%FSLAX45Y45*%
G04 Gerber Fmt 4.5, Leading zero omitted, Abs format (unit mm)*
G04 Created by KiCad (PCBNEW 6.0.2) date 2022-11-10 22:55:13*
%MOMM*%
%LPD*%
G01*
G04 APERTURE LIST*
%TA.AperFunction,Profile*%
%ADD10C,0.050000*%
%TD*%
%ADD11C,0.200000*%
G04 APERTURE END LIST*
D10*
X24300000Y-4545000D02*
G75*
G03*
X24300000Y-4545000I-152643J0D01*
G01*
X24307643Y-7745000D02*
G75*
G03*
X24307643Y-7745000I-152643J0D01*
G01*
X19953558Y-7748629D02*
G75*
G03*
X19953558Y-7748629I-152643J0D01*
G01*
X24447500Y-8112000D02*
X19372500Y-8112000D01*
X19372500Y-8112000D02*
X19372500Y-4230000D01*
X19372500Y-4230000D02*
X24447500Y-4230000D01*
X24447500Y-4230000D02*
X24447500Y-8112000D01*
X19957643Y-4548000D02*
G75*
G03*
X19957643Y-4548000I-152643J0D01*
G01*
D11*
X19627619Y-8424976D02*
X19627619Y-8224976D01*
X19675238Y-8224976D01*
X19703810Y-8234500D01*
X19722857Y-8253548D01*
X19732381Y-8272595D01*
X19741905Y-8310690D01*
X19741905Y-8339262D01*
X19732381Y-8377357D01*
X19722857Y-8396405D01*
X19703810Y-8415452D01*
X19675238Y-8424976D01*
X19627619Y-8424976D01*
X19827619Y-8424976D02*
X19827619Y-8291643D01*
X19827619Y-8329738D02*
X19837143Y-8310690D01*
X19846667Y-8301167D01*
X19865714Y-8291643D01*
X19884762Y-8291643D01*
X19951429Y-8424976D02*
X19951429Y-8291643D01*
X19951429Y-8224976D02*
X19941905Y-8234500D01*
X19951429Y-8244024D01*
X19960952Y-8234500D01*
X19951429Y-8224976D01*
X19951429Y-8244024D01*
X20075238Y-8424976D02*
X20056190Y-8415452D01*
X20046667Y-8396405D01*
X20046667Y-8224976D01*
X20180000Y-8424976D02*
X20160952Y-8415452D01*
X20151429Y-8396405D01*
X20151429Y-8224976D01*
X20408571Y-8424976D02*
X20408571Y-8224976D01*
X20475238Y-8367833D01*
X20541905Y-8224976D01*
X20541905Y-8424976D01*
X20722857Y-8424976D02*
X20722857Y-8320214D01*
X20713333Y-8301167D01*
X20694286Y-8291643D01*
X20656190Y-8291643D01*
X20637143Y-8301167D01*
X20722857Y-8415452D02*
X20703810Y-8424976D01*
X20656190Y-8424976D01*
X20637143Y-8415452D01*
X20627619Y-8396405D01*
X20627619Y-8377357D01*
X20637143Y-8358309D01*
X20656190Y-8348786D01*
X20703810Y-8348786D01*
X20722857Y-8339262D01*
X20818095Y-8291643D02*
X20818095Y-8491643D01*
X20818095Y-8301167D02*
X20837143Y-8291643D01*
X20875238Y-8291643D01*
X20894286Y-8301167D01*
X20903810Y-8310690D01*
X20913333Y-8329738D01*
X20913333Y-8386881D01*
X20903810Y-8405929D01*
X20894286Y-8415452D01*
X20875238Y-8424976D01*
X20837143Y-8424976D01*
X20818095Y-8415452D01*
X20999048Y-8405929D02*
X21008571Y-8415452D01*
X20999048Y-8424976D01*
X20989524Y-8415452D01*
X20999048Y-8405929D01*
X20999048Y-8424976D01*
X20999048Y-8301167D02*
X21008571Y-8310690D01*
X20999048Y-8320214D01*
X20989524Y-8310690D01*
X20999048Y-8301167D01*
X20999048Y-8320214D01*
M02*
