M48
; DRILL file {KiCad 6.0.2} date Чт 10 ноя 2022 22:55:12
; FORMAT={-:-/ absolute / metric / decimal}
; #@! TF.CreationDate,2022-11-10T22:55:12+01:00
; #@! TF.GenerationSoftware,Kicad,Pcbnew,6.0.2
; #@! TF.FileFunction,Plated,1,2,PTH
FMAT,2
METRIC
; #@! TA.AperFunction,Plated,PTH,ComponentDrill
T1C0.500
; #@! TA.AperFunction,Plated,PTH,ComponentDrill
T2C0.800
; #@! TA.AperFunction,Plated,PTH,ComponentDrill
T3C1.000
; #@! TA.AperFunction,Plated,PTH,ComponentDrill
T4C1.500
; #@! TA.AperFunction,Plated,PTH,ComponentDrill
T5C1.700
%
G90
G05
T1
X213.7Y-73.0
X215.6Y-73.0
T2
X203.4Y-46.9
X203.4Y-54.52
X203.85Y-67.95
X203.85Y-75.57
X204.9Y-62.0
X204.9Y-64.65
X205.95Y-46.91
X205.95Y-54.53
X206.4Y-67.95
X206.4Y-75.57
X209.75Y-67.85
X209.9Y-62.0
X209.9Y-64.65
X213.0Y-60.7
X215.0Y-60.7
X218.75Y-60.85
X220.75Y-60.85
X220.95Y-71.15
X222.45Y-67.85
X223.45Y-71.15
X225.7Y-77.7
X225.8Y-71.3
X228.2Y-77.7
X228.3Y-71.3
X228.45Y-48.6
X230.45Y-48.6
X230.8Y-70.2
X230.8Y-72.7
X230.8Y-74.9
X230.8Y-77.4
X235.08Y-47.525
X235.08Y-49.525
T3
X196.52Y-61.36
X200.52Y-61.36
X205.7Y-58.0
X209.7Y-58.0
X229.3Y-53.935
X229.3Y-56.475
X234.6Y-53.9
X234.6Y-56.44
X234.6Y-58.98
X234.6Y-61.52
X234.6Y-64.06
X234.6Y-66.6
X234.7Y-71.3
X234.7Y-73.84
X234.7Y-76.38
T4
X198.26Y-53.84
X198.26Y-69.02
T5
X195.72Y-51.3
X195.72Y-56.38
X195.72Y-66.48
X195.72Y-71.56
X200.8Y-51.3
X200.8Y-56.38
X200.8Y-66.48
X200.8Y-71.56
T0
M30
