%FSLAX45Y45*%
G04 Gerber Fmt 4.5, Leading zero omitted, Abs format (unit mm)*
G04 Created by KiCad (PCBNEW 6.0.2) date 2022-11-10 22:55:13*
%MOMM*%
%LPD*%
G01*
G04 APERTURE LIST*
%TA.AperFunction,Profile*%
%ADD10C,0.050000*%
%TD*%
%ADD11C,0.200000*%
%ADD12C,0.050000*%
%ADD13C,0.080000*%
%ADD14C,0.100000*%
%ADD15C,0.150000*%
%ADD16C,0.170000*%
G04 APERTURE END LIST*
D10*
X24300000Y-4545000D02*
G75*
G03*
X24300000Y-4545000I-152643J0D01*
G01*
X24307643Y-7745000D02*
G75*
G03*
X24307643Y-7745000I-152643J0D01*
G01*
X19953558Y-7748629D02*
G75*
G03*
X19953558Y-7748629I-152643J0D01*
G01*
X24447500Y-8112000D02*
X19372500Y-8112000D01*
X19372500Y-8112000D02*
X19372500Y-4230000D01*
X19372500Y-4230000D02*
X24447500Y-4230000D01*
X24447500Y-4230000D02*
X24447500Y-8112000D01*
X19957643Y-4548000D02*
G75*
G03*
X19957643Y-4548000I-152643J0D01*
G01*
D11*
D12*
X21345000Y-7275000D02*
X21395000Y-7325000D01*
X21395000Y-7275000D02*
X21345000Y-7325000D01*
X21535000Y-7275000D02*
X21585000Y-7325000D01*
X21585000Y-7275000D02*
X21535000Y-7325000D01*
D13*
X20380000Y-4690000D02*
G75*
G03*
X20380000Y-4690000I-40000J0D01*
G01*
X20380000Y-5452000D02*
G75*
G03*
X20380000Y-5452000I-40000J0D01*
G01*
X20425000Y-6795000D02*
G75*
G03*
X20425000Y-6795000I-40000J0D01*
G01*
X20425000Y-7557000D02*
G75*
G03*
X20425000Y-7557000I-40000J0D01*
G01*
X20530000Y-6200000D02*
G75*
G03*
X20530000Y-6200000I-40000J0D01*
G01*
X20530000Y-6465000D02*
G75*
G03*
X20530000Y-6465000I-40000J0D01*
G01*
X20635000Y-4691000D02*
G75*
G03*
X20635000Y-4691000I-40000J0D01*
G01*
X20635000Y-5453000D02*
G75*
G03*
X20635000Y-5453000I-40000J0D01*
G01*
X20680000Y-6795000D02*
G75*
G03*
X20680000Y-6795000I-40000J0D01*
G01*
X20680000Y-7557000D02*
G75*
G03*
X20680000Y-7557000I-40000J0D01*
G01*
X21015000Y-6785000D02*
G75*
G03*
X21015000Y-6785000I-40000J0D01*
G01*
X21030000Y-6200000D02*
G75*
G03*
X21030000Y-6200000I-40000J0D01*
G01*
X21030000Y-6465000D02*
G75*
G03*
X21030000Y-6465000I-40000J0D01*
G01*
X21340000Y-6070000D02*
G75*
G03*
X21340000Y-6070000I-40000J0D01*
G01*
X21540000Y-6070000D02*
G75*
G03*
X21540000Y-6070000I-40000J0D01*
G01*
X21915000Y-6085000D02*
G75*
G03*
X21915000Y-6085000I-40000J0D01*
G01*
X22115000Y-6085000D02*
G75*
G03*
X22115000Y-6085000I-40000J0D01*
G01*
X22135000Y-7115000D02*
G75*
G03*
X22135000Y-7115000I-40000J0D01*
G01*
X22285000Y-6785000D02*
G75*
G03*
X22285000Y-6785000I-40000J0D01*
G01*
X22385000Y-7115000D02*
G75*
G03*
X22385000Y-7115000I-40000J0D01*
G01*
X22610000Y-7770000D02*
G75*
G03*
X22610000Y-7770000I-40000J0D01*
G01*
X22620000Y-7130000D02*
G75*
G03*
X22620000Y-7130000I-40000J0D01*
G01*
X22860000Y-7770000D02*
G75*
G03*
X22860000Y-7770000I-40000J0D01*
G01*
X22870000Y-7130000D02*
G75*
G03*
X22870000Y-7130000I-40000J0D01*
G01*
X22885000Y-4860000D02*
G75*
G03*
X22885000Y-4860000I-40000J0D01*
G01*
X23085000Y-4860000D02*
G75*
G03*
X23085000Y-4860000I-40000J0D01*
G01*
X23120000Y-7020000D02*
G75*
G03*
X23120000Y-7020000I-40000J0D01*
G01*
X23120000Y-7270000D02*
G75*
G03*
X23120000Y-7270000I-40000J0D01*
G01*
X23120000Y-7490000D02*
G75*
G03*
X23120000Y-7490000I-40000J0D01*
G01*
X23120000Y-7740000D02*
G75*
G03*
X23120000Y-7740000I-40000J0D01*
G01*
X23548000Y-4752511D02*
G75*
G03*
X23548000Y-4752511I-40000J0D01*
G01*
X23548000Y-4952511D02*
G75*
G03*
X23548000Y-4952511I-40000J0D01*
G01*
D14*
X19652000Y-6086000D02*
X19652000Y-6186000D01*
X19602000Y-6136000D02*
X19702000Y-6136000D01*
X20052000Y-6086000D02*
X20052000Y-6186000D01*
X20002000Y-6136000D02*
X20102000Y-6136000D01*
X20570000Y-5750000D02*
X20570000Y-5850000D01*
X20520000Y-5800000D02*
X20620000Y-5800000D01*
X20970000Y-5750000D02*
X20970000Y-5850000D01*
X20920000Y-5800000D02*
X21020000Y-5800000D01*
X22930000Y-5343500D02*
X22930000Y-5443500D01*
X22880000Y-5393500D02*
X22980000Y-5393500D01*
X22930000Y-5597500D02*
X22930000Y-5697500D01*
X22880000Y-5647500D02*
X22980000Y-5647500D01*
X23460000Y-5340000D02*
X23460000Y-5440000D01*
X23410000Y-5390000D02*
X23510000Y-5390000D01*
X23460000Y-5594000D02*
X23460000Y-5694000D01*
X23410000Y-5644000D02*
X23510000Y-5644000D01*
X23460000Y-5848000D02*
X23460000Y-5948000D01*
X23410000Y-5898000D02*
X23510000Y-5898000D01*
X23460000Y-6102000D02*
X23460000Y-6202000D01*
X23410000Y-6152000D02*
X23510000Y-6152000D01*
X23460000Y-6356000D02*
X23460000Y-6456000D01*
X23410000Y-6406000D02*
X23510000Y-6406000D01*
X23460000Y-6610000D02*
X23460000Y-6710000D01*
X23410000Y-6660000D02*
X23510000Y-6660000D01*
X23470000Y-7080000D02*
X23470000Y-7180000D01*
X23420000Y-7130000D02*
X23520000Y-7130000D01*
X23470000Y-7334000D02*
X23470000Y-7434000D01*
X23420000Y-7384000D02*
X23520000Y-7384000D01*
X23470000Y-7588000D02*
X23470000Y-7688000D01*
X23420000Y-7638000D02*
X23520000Y-7638000D01*
D15*
X19879034Y-5437034D02*
X19879034Y-5330967D01*
X19772967Y-5330967D01*
X19772967Y-5437034D01*
X19879034Y-5437034D01*
X19879034Y-6955033D02*
X19879034Y-6848966D01*
X19772967Y-6848966D01*
X19772967Y-6955033D01*
X19879034Y-6955033D01*
D16*
X19572000Y-5215000D02*
X19657000Y-5130000D01*
X19572000Y-5045000D01*
X19487000Y-5130000D01*
X19572000Y-5215000D01*
X19572000Y-5723000D02*
X19657000Y-5638000D01*
X19572000Y-5553000D01*
X19487000Y-5638000D01*
X19572000Y-5723000D01*
X19572000Y-6733000D02*
X19657000Y-6648000D01*
X19572000Y-6563000D01*
X19487000Y-6648000D01*
X19572000Y-6733000D01*
X19572000Y-7241000D02*
X19657000Y-7156000D01*
X19572000Y-7071000D01*
X19487000Y-7156000D01*
X19572000Y-7241000D01*
X20080000Y-5215000D02*
X20165000Y-5130000D01*
X20080000Y-5045000D01*
X19995000Y-5130000D01*
X20080000Y-5215000D01*
X20080000Y-5723000D02*
X20165000Y-5638000D01*
X20080000Y-5553000D01*
X19995000Y-5638000D01*
X20080000Y-5723000D01*
X20080000Y-6733000D02*
X20165000Y-6648000D01*
X20080000Y-6563000D01*
X19995000Y-6648000D01*
X20080000Y-6733000D01*
X20080000Y-7241000D02*
X20165000Y-7156000D01*
X20080000Y-7071000D01*
X19995000Y-7156000D01*
X20080000Y-7241000D01*
D11*
X19627619Y-8424976D02*
X19627619Y-8224976D01*
X19675238Y-8224976D01*
X19703810Y-8234500D01*
X19722857Y-8253548D01*
X19732381Y-8272595D01*
X19741905Y-8310690D01*
X19741905Y-8339262D01*
X19732381Y-8377357D01*
X19722857Y-8396405D01*
X19703810Y-8415452D01*
X19675238Y-8424976D01*
X19627619Y-8424976D01*
X19827619Y-8424976D02*
X19827619Y-8291643D01*
X19827619Y-8329738D02*
X19837143Y-8310690D01*
X19846667Y-8301167D01*
X19865714Y-8291643D01*
X19884762Y-8291643D01*
X19951429Y-8424976D02*
X19951429Y-8291643D01*
X19951429Y-8224976D02*
X19941905Y-8234500D01*
X19951429Y-8244024D01*
X19960952Y-8234500D01*
X19951429Y-8224976D01*
X19951429Y-8244024D01*
X20075238Y-8424976D02*
X20056190Y-8415452D01*
X20046667Y-8396405D01*
X20046667Y-8224976D01*
X20180000Y-8424976D02*
X20160952Y-8415452D01*
X20151429Y-8396405D01*
X20151429Y-8224976D01*
X20408571Y-8424976D02*
X20408571Y-8224976D01*
X20475238Y-8367833D01*
X20541905Y-8224976D01*
X20541905Y-8424976D01*
X20722857Y-8424976D02*
X20722857Y-8320214D01*
X20713333Y-8301167D01*
X20694286Y-8291643D01*
X20656190Y-8291643D01*
X20637143Y-8301167D01*
X20722857Y-8415452D02*
X20703810Y-8424976D01*
X20656190Y-8424976D01*
X20637143Y-8415452D01*
X20627619Y-8396405D01*
X20627619Y-8377357D01*
X20637143Y-8358309D01*
X20656190Y-8348786D01*
X20703810Y-8348786D01*
X20722857Y-8339262D01*
X20818095Y-8291643D02*
X20818095Y-8491643D01*
X20818095Y-8301167D02*
X20837143Y-8291643D01*
X20875238Y-8291643D01*
X20894286Y-8301167D01*
X20903810Y-8310690D01*
X20913333Y-8329738D01*
X20913333Y-8386881D01*
X20903810Y-8405929D01*
X20894286Y-8415452D01*
X20875238Y-8424976D01*
X20837143Y-8424976D01*
X20818095Y-8415452D01*
X20999048Y-8405929D02*
X21008571Y-8415452D01*
X20999048Y-8424976D01*
X20989524Y-8415452D01*
X20999048Y-8405929D01*
X20999048Y-8424976D01*
X20999048Y-8301167D02*
X21008571Y-8310690D01*
X20999048Y-8320214D01*
X20989524Y-8310690D01*
X20999048Y-8301167D01*
X20999048Y-8320214D01*
D12*
X19320000Y-8729500D02*
X19370000Y-8779500D01*
X19370000Y-8729500D02*
X19320000Y-8779500D01*
D11*
X19665714Y-8644976D02*
X19684762Y-8644976D01*
X19703810Y-8654500D01*
X19713333Y-8664024D01*
X19722857Y-8683071D01*
X19732381Y-8721167D01*
X19732381Y-8768786D01*
X19722857Y-8806881D01*
X19713333Y-8825929D01*
X19703810Y-8835452D01*
X19684762Y-8844976D01*
X19665714Y-8844976D01*
X19646667Y-8835452D01*
X19637143Y-8825929D01*
X19627619Y-8806881D01*
X19618095Y-8768786D01*
X19618095Y-8721167D01*
X19627619Y-8683071D01*
X19637143Y-8664024D01*
X19646667Y-8654500D01*
X19665714Y-8644976D01*
X19818095Y-8825929D02*
X19827619Y-8835452D01*
X19818095Y-8844976D01*
X19808571Y-8835452D01*
X19818095Y-8825929D01*
X19818095Y-8844976D01*
X20008571Y-8644976D02*
X19913333Y-8644976D01*
X19903810Y-8740214D01*
X19913333Y-8730690D01*
X19932381Y-8721167D01*
X19980000Y-8721167D01*
X19999048Y-8730690D01*
X20008571Y-8740214D01*
X20018095Y-8759262D01*
X20018095Y-8806881D01*
X20008571Y-8825929D01*
X19999048Y-8835452D01*
X19980000Y-8844976D01*
X19932381Y-8844976D01*
X19913333Y-8835452D01*
X19903810Y-8825929D01*
X20141905Y-8644976D02*
X20160952Y-8644976D01*
X20180000Y-8654500D01*
X20189524Y-8664024D01*
X20199048Y-8683071D01*
X20208571Y-8721167D01*
X20208571Y-8768786D01*
X20199048Y-8806881D01*
X20189524Y-8825929D01*
X20180000Y-8835452D01*
X20160952Y-8844976D01*
X20141905Y-8844976D01*
X20122857Y-8835452D01*
X20113333Y-8825929D01*
X20103810Y-8806881D01*
X20094286Y-8768786D01*
X20094286Y-8721167D01*
X20103810Y-8683071D01*
X20113333Y-8664024D01*
X20122857Y-8654500D01*
X20141905Y-8644976D01*
X20332381Y-8644976D02*
X20351429Y-8644976D01*
X20370476Y-8654500D01*
X20380000Y-8664024D01*
X20389524Y-8683071D01*
X20399048Y-8721167D01*
X20399048Y-8768786D01*
X20389524Y-8806881D01*
X20380000Y-8825929D01*
X20370476Y-8835452D01*
X20351429Y-8844976D01*
X20332381Y-8844976D01*
X20313333Y-8835452D01*
X20303810Y-8825929D01*
X20294286Y-8806881D01*
X20284762Y-8768786D01*
X20284762Y-8721167D01*
X20294286Y-8683071D01*
X20303810Y-8664024D01*
X20313333Y-8654500D01*
X20332381Y-8644976D01*
X20484762Y-8844976D02*
X20484762Y-8711643D01*
X20484762Y-8730690D02*
X20494286Y-8721167D01*
X20513333Y-8711643D01*
X20541905Y-8711643D01*
X20560952Y-8721167D01*
X20570476Y-8740214D01*
X20570476Y-8844976D01*
X20570476Y-8740214D02*
X20580000Y-8721167D01*
X20599048Y-8711643D01*
X20627619Y-8711643D01*
X20646667Y-8721167D01*
X20656190Y-8740214D01*
X20656190Y-8844976D01*
X20751429Y-8844976D02*
X20751429Y-8711643D01*
X20751429Y-8730690D02*
X20760952Y-8721167D01*
X20780000Y-8711643D01*
X20808571Y-8711643D01*
X20827619Y-8721167D01*
X20837143Y-8740214D01*
X20837143Y-8844976D01*
X20837143Y-8740214D02*
X20846667Y-8721167D01*
X20865714Y-8711643D01*
X20894286Y-8711643D01*
X20913333Y-8721167D01*
X20922857Y-8740214D01*
X20922857Y-8844976D01*
X21313333Y-8635452D02*
X21141905Y-8892595D01*
X21570476Y-8644976D02*
X21589524Y-8644976D01*
X21608571Y-8654500D01*
X21618095Y-8664024D01*
X21627619Y-8683071D01*
X21637143Y-8721167D01*
X21637143Y-8768786D01*
X21627619Y-8806881D01*
X21618095Y-8825929D01*
X21608571Y-8835452D01*
X21589524Y-8844976D01*
X21570476Y-8844976D01*
X21551429Y-8835452D01*
X21541905Y-8825929D01*
X21532381Y-8806881D01*
X21522857Y-8768786D01*
X21522857Y-8721167D01*
X21532381Y-8683071D01*
X21541905Y-8664024D01*
X21551429Y-8654500D01*
X21570476Y-8644976D01*
X21722857Y-8825929D02*
X21732381Y-8835452D01*
X21722857Y-8844976D01*
X21713333Y-8835452D01*
X21722857Y-8825929D01*
X21722857Y-8844976D01*
X21856190Y-8644976D02*
X21875238Y-8644976D01*
X21894286Y-8654500D01*
X21903810Y-8664024D01*
X21913333Y-8683071D01*
X21922857Y-8721167D01*
X21922857Y-8768786D01*
X21913333Y-8806881D01*
X21903810Y-8825929D01*
X21894286Y-8835452D01*
X21875238Y-8844976D01*
X21856190Y-8844976D01*
X21837143Y-8835452D01*
X21827619Y-8825929D01*
X21818095Y-8806881D01*
X21808571Y-8768786D01*
X21808571Y-8721167D01*
X21818095Y-8683071D01*
X21827619Y-8664024D01*
X21837143Y-8654500D01*
X21856190Y-8644976D01*
X22113333Y-8844976D02*
X21999048Y-8844976D01*
X22056190Y-8844976D02*
X22056190Y-8644976D01*
X22037143Y-8673548D01*
X22018095Y-8692595D01*
X21999048Y-8702119D01*
X22208571Y-8844976D02*
X22246667Y-8844976D01*
X22265714Y-8835452D01*
X22275238Y-8825929D01*
X22294286Y-8797357D01*
X22303810Y-8759262D01*
X22303810Y-8683071D01*
X22294286Y-8664024D01*
X22284762Y-8654500D01*
X22265714Y-8644976D01*
X22227619Y-8644976D01*
X22208571Y-8654500D01*
X22199048Y-8664024D01*
X22189524Y-8683071D01*
X22189524Y-8730690D01*
X22199048Y-8749738D01*
X22208571Y-8759262D01*
X22227619Y-8768786D01*
X22265714Y-8768786D01*
X22284762Y-8759262D01*
X22294286Y-8749738D01*
X22303810Y-8730690D01*
X22370476Y-8644976D02*
X22503809Y-8644976D01*
X22418095Y-8844976D01*
X22570476Y-8644976D02*
X22570476Y-8683071D01*
X22646667Y-8644976D02*
X22646667Y-8683071D01*
X22941905Y-8921167D02*
X22932381Y-8911643D01*
X22913333Y-8883071D01*
X22903809Y-8864024D01*
X22894286Y-8835452D01*
X22884762Y-8787833D01*
X22884762Y-8749738D01*
X22894286Y-8702119D01*
X22903809Y-8673548D01*
X22913333Y-8654500D01*
X22932381Y-8625929D01*
X22941905Y-8616405D01*
X23008571Y-8664024D02*
X23018095Y-8654500D01*
X23037143Y-8644976D01*
X23084762Y-8644976D01*
X23103809Y-8654500D01*
X23113333Y-8664024D01*
X23122857Y-8683071D01*
X23122857Y-8702119D01*
X23113333Y-8730690D01*
X22999048Y-8844976D01*
X23122857Y-8844976D01*
X23360952Y-8844976D02*
X23360952Y-8644976D01*
X23446667Y-8844976D02*
X23446667Y-8740214D01*
X23437143Y-8721167D01*
X23418095Y-8711643D01*
X23389524Y-8711643D01*
X23370476Y-8721167D01*
X23360952Y-8730690D01*
X23570476Y-8844976D02*
X23551428Y-8835452D01*
X23541905Y-8825929D01*
X23532381Y-8806881D01*
X23532381Y-8749738D01*
X23541905Y-8730690D01*
X23551428Y-8721167D01*
X23570476Y-8711643D01*
X23599048Y-8711643D01*
X23618095Y-8721167D01*
X23627619Y-8730690D01*
X23637143Y-8749738D01*
X23637143Y-8806881D01*
X23627619Y-8825929D01*
X23618095Y-8835452D01*
X23599048Y-8844976D01*
X23570476Y-8844976D01*
X23751428Y-8844976D02*
X23732381Y-8835452D01*
X23722857Y-8816405D01*
X23722857Y-8644976D01*
X23903809Y-8835452D02*
X23884762Y-8844976D01*
X23846667Y-8844976D01*
X23827619Y-8835452D01*
X23818095Y-8816405D01*
X23818095Y-8740214D01*
X23827619Y-8721167D01*
X23846667Y-8711643D01*
X23884762Y-8711643D01*
X23903809Y-8721167D01*
X23913333Y-8740214D01*
X23913333Y-8759262D01*
X23818095Y-8778310D01*
X23989524Y-8835452D02*
X24008571Y-8844976D01*
X24046667Y-8844976D01*
X24065714Y-8835452D01*
X24075238Y-8816405D01*
X24075238Y-8806881D01*
X24065714Y-8787833D01*
X24046667Y-8778310D01*
X24018095Y-8778310D01*
X23999048Y-8768786D01*
X23989524Y-8749738D01*
X23989524Y-8740214D01*
X23999048Y-8721167D01*
X24018095Y-8711643D01*
X24046667Y-8711643D01*
X24065714Y-8721167D01*
X24141905Y-8921167D02*
X24151428Y-8911643D01*
X24170476Y-8883071D01*
X24180000Y-8864024D01*
X24189524Y-8835452D01*
X24199048Y-8787833D01*
X24199048Y-8749738D01*
X24189524Y-8702119D01*
X24180000Y-8673548D01*
X24170476Y-8654500D01*
X24151428Y-8625929D01*
X24141905Y-8616405D01*
D13*
X19370000Y-9018500D02*
G75*
G03*
X19370000Y-9018500I-40000J0D01*
G01*
D11*
X19665714Y-8908976D02*
X19684762Y-8908976D01*
X19703810Y-8918500D01*
X19713333Y-8928024D01*
X19722857Y-8947071D01*
X19732381Y-8985167D01*
X19732381Y-9032786D01*
X19722857Y-9070881D01*
X19713333Y-9089929D01*
X19703810Y-9099452D01*
X19684762Y-9108976D01*
X19665714Y-9108976D01*
X19646667Y-9099452D01*
X19637143Y-9089929D01*
X19627619Y-9070881D01*
X19618095Y-9032786D01*
X19618095Y-8985167D01*
X19627619Y-8947071D01*
X19637143Y-8928024D01*
X19646667Y-8918500D01*
X19665714Y-8908976D01*
X19818095Y-9089929D02*
X19827619Y-9099452D01*
X19818095Y-9108976D01*
X19808571Y-9099452D01*
X19818095Y-9089929D01*
X19818095Y-9108976D01*
X19941905Y-8994690D02*
X19922857Y-8985167D01*
X19913333Y-8975643D01*
X19903810Y-8956595D01*
X19903810Y-8947071D01*
X19913333Y-8928024D01*
X19922857Y-8918500D01*
X19941905Y-8908976D01*
X19980000Y-8908976D01*
X19999048Y-8918500D01*
X20008571Y-8928024D01*
X20018095Y-8947071D01*
X20018095Y-8956595D01*
X20008571Y-8975643D01*
X19999048Y-8985167D01*
X19980000Y-8994690D01*
X19941905Y-8994690D01*
X19922857Y-9004214D01*
X19913333Y-9013738D01*
X19903810Y-9032786D01*
X19903810Y-9070881D01*
X19913333Y-9089929D01*
X19922857Y-9099452D01*
X19941905Y-9108976D01*
X19980000Y-9108976D01*
X19999048Y-9099452D01*
X20008571Y-9089929D01*
X20018095Y-9070881D01*
X20018095Y-9032786D01*
X20008571Y-9013738D01*
X19999048Y-9004214D01*
X19980000Y-8994690D01*
X20141905Y-8908976D02*
X20160952Y-8908976D01*
X20180000Y-8918500D01*
X20189524Y-8928024D01*
X20199048Y-8947071D01*
X20208571Y-8985167D01*
X20208571Y-9032786D01*
X20199048Y-9070881D01*
X20189524Y-9089929D01*
X20180000Y-9099452D01*
X20160952Y-9108976D01*
X20141905Y-9108976D01*
X20122857Y-9099452D01*
X20113333Y-9089929D01*
X20103810Y-9070881D01*
X20094286Y-9032786D01*
X20094286Y-8985167D01*
X20103810Y-8947071D01*
X20113333Y-8928024D01*
X20122857Y-8918500D01*
X20141905Y-8908976D01*
X20332381Y-8908976D02*
X20351429Y-8908976D01*
X20370476Y-8918500D01*
X20380000Y-8928024D01*
X20389524Y-8947071D01*
X20399048Y-8985167D01*
X20399048Y-9032786D01*
X20389524Y-9070881D01*
X20380000Y-9089929D01*
X20370476Y-9099452D01*
X20351429Y-9108976D01*
X20332381Y-9108976D01*
X20313333Y-9099452D01*
X20303810Y-9089929D01*
X20294286Y-9070881D01*
X20284762Y-9032786D01*
X20284762Y-8985167D01*
X20294286Y-8947071D01*
X20303810Y-8928024D01*
X20313333Y-8918500D01*
X20332381Y-8908976D01*
X20484762Y-9108976D02*
X20484762Y-8975643D01*
X20484762Y-8994690D02*
X20494286Y-8985167D01*
X20513333Y-8975643D01*
X20541905Y-8975643D01*
X20560952Y-8985167D01*
X20570476Y-9004214D01*
X20570476Y-9108976D01*
X20570476Y-9004214D02*
X20580000Y-8985167D01*
X20599048Y-8975643D01*
X20627619Y-8975643D01*
X20646667Y-8985167D01*
X20656190Y-9004214D01*
X20656190Y-9108976D01*
X20751429Y-9108976D02*
X20751429Y-8975643D01*
X20751429Y-8994690D02*
X20760952Y-8985167D01*
X20780000Y-8975643D01*
X20808571Y-8975643D01*
X20827619Y-8985167D01*
X20837143Y-9004214D01*
X20837143Y-9108976D01*
X20837143Y-9004214D02*
X20846667Y-8985167D01*
X20865714Y-8975643D01*
X20894286Y-8975643D01*
X20913333Y-8985167D01*
X20922857Y-9004214D01*
X20922857Y-9108976D01*
X21313333Y-8899452D02*
X21141905Y-9156595D01*
X21570476Y-8908976D02*
X21589524Y-8908976D01*
X21608571Y-8918500D01*
X21618095Y-8928024D01*
X21627619Y-8947071D01*
X21637143Y-8985167D01*
X21637143Y-9032786D01*
X21627619Y-9070881D01*
X21618095Y-9089929D01*
X21608571Y-9099452D01*
X21589524Y-9108976D01*
X21570476Y-9108976D01*
X21551429Y-9099452D01*
X21541905Y-9089929D01*
X21532381Y-9070881D01*
X21522857Y-9032786D01*
X21522857Y-8985167D01*
X21532381Y-8947071D01*
X21541905Y-8928024D01*
X21551429Y-8918500D01*
X21570476Y-8908976D01*
X21722857Y-9089929D02*
X21732381Y-9099452D01*
X21722857Y-9108976D01*
X21713333Y-9099452D01*
X21722857Y-9089929D01*
X21722857Y-9108976D01*
X21856190Y-8908976D02*
X21875238Y-8908976D01*
X21894286Y-8918500D01*
X21903810Y-8928024D01*
X21913333Y-8947071D01*
X21922857Y-8985167D01*
X21922857Y-9032786D01*
X21913333Y-9070881D01*
X21903810Y-9089929D01*
X21894286Y-9099452D01*
X21875238Y-9108976D01*
X21856190Y-9108976D01*
X21837143Y-9099452D01*
X21827619Y-9089929D01*
X21818095Y-9070881D01*
X21808571Y-9032786D01*
X21808571Y-8985167D01*
X21818095Y-8947071D01*
X21827619Y-8928024D01*
X21837143Y-8918500D01*
X21856190Y-8908976D01*
X21989524Y-8908976D02*
X22113333Y-8908976D01*
X22046667Y-8985167D01*
X22075238Y-8985167D01*
X22094286Y-8994690D01*
X22103810Y-9004214D01*
X22113333Y-9023262D01*
X22113333Y-9070881D01*
X22103810Y-9089929D01*
X22094286Y-9099452D01*
X22075238Y-9108976D01*
X22018095Y-9108976D01*
X21999048Y-9099452D01*
X21989524Y-9089929D01*
X22303810Y-9108976D02*
X22189524Y-9108976D01*
X22246667Y-9108976D02*
X22246667Y-8908976D01*
X22227619Y-8937548D01*
X22208571Y-8956595D01*
X22189524Y-8966119D01*
X22484762Y-8908976D02*
X22389524Y-8908976D01*
X22380000Y-9004214D01*
X22389524Y-8994690D01*
X22408571Y-8985167D01*
X22456190Y-8985167D01*
X22475238Y-8994690D01*
X22484762Y-9004214D01*
X22494286Y-9023262D01*
X22494286Y-9070881D01*
X22484762Y-9089929D01*
X22475238Y-9099452D01*
X22456190Y-9108976D01*
X22408571Y-9108976D01*
X22389524Y-9099452D01*
X22380000Y-9089929D01*
X22570476Y-8908976D02*
X22570476Y-8947071D01*
X22646667Y-8908976D02*
X22646667Y-8947071D01*
X22941905Y-9185167D02*
X22932381Y-9175643D01*
X22913333Y-9147071D01*
X22903809Y-9128024D01*
X22894286Y-9099452D01*
X22884762Y-9051833D01*
X22884762Y-9013738D01*
X22894286Y-8966119D01*
X22903809Y-8937548D01*
X22913333Y-8918500D01*
X22932381Y-8889929D01*
X22941905Y-8880405D01*
X22999048Y-8908976D02*
X23122857Y-8908976D01*
X23056190Y-8985167D01*
X23084762Y-8985167D01*
X23103809Y-8994690D01*
X23113333Y-9004214D01*
X23122857Y-9023262D01*
X23122857Y-9070881D01*
X23113333Y-9089929D01*
X23103809Y-9099452D01*
X23084762Y-9108976D01*
X23027619Y-9108976D01*
X23008571Y-9099452D01*
X22999048Y-9089929D01*
X23199048Y-8928024D02*
X23208571Y-8918500D01*
X23227619Y-8908976D01*
X23275238Y-8908976D01*
X23294286Y-8918500D01*
X23303809Y-8928024D01*
X23313333Y-8947071D01*
X23313333Y-8966119D01*
X23303809Y-8994690D01*
X23189524Y-9108976D01*
X23313333Y-9108976D01*
X23551428Y-9108976D02*
X23551428Y-8908976D01*
X23637143Y-9108976D02*
X23637143Y-9004214D01*
X23627619Y-8985167D01*
X23608571Y-8975643D01*
X23580000Y-8975643D01*
X23560952Y-8985167D01*
X23551428Y-8994690D01*
X23760952Y-9108976D02*
X23741905Y-9099452D01*
X23732381Y-9089929D01*
X23722857Y-9070881D01*
X23722857Y-9013738D01*
X23732381Y-8994690D01*
X23741905Y-8985167D01*
X23760952Y-8975643D01*
X23789524Y-8975643D01*
X23808571Y-8985167D01*
X23818095Y-8994690D01*
X23827619Y-9013738D01*
X23827619Y-9070881D01*
X23818095Y-9089929D01*
X23808571Y-9099452D01*
X23789524Y-9108976D01*
X23760952Y-9108976D01*
X23941905Y-9108976D02*
X23922857Y-9099452D01*
X23913333Y-9080405D01*
X23913333Y-8908976D01*
X24094286Y-9099452D02*
X24075238Y-9108976D01*
X24037143Y-9108976D01*
X24018095Y-9099452D01*
X24008571Y-9080405D01*
X24008571Y-9004214D01*
X24018095Y-8985167D01*
X24037143Y-8975643D01*
X24075238Y-8975643D01*
X24094286Y-8985167D01*
X24103809Y-9004214D01*
X24103809Y-9023262D01*
X24008571Y-9042310D01*
X24180000Y-9099452D02*
X24199048Y-9108976D01*
X24237143Y-9108976D01*
X24256190Y-9099452D01*
X24265714Y-9080405D01*
X24265714Y-9070881D01*
X24256190Y-9051833D01*
X24237143Y-9042310D01*
X24208571Y-9042310D01*
X24189524Y-9032786D01*
X24180000Y-9013738D01*
X24180000Y-9004214D01*
X24189524Y-8985167D01*
X24208571Y-8975643D01*
X24237143Y-8975643D01*
X24256190Y-8985167D01*
X24332381Y-9185167D02*
X24341905Y-9175643D01*
X24360952Y-9147071D01*
X24370476Y-9128024D01*
X24380000Y-9099452D01*
X24389524Y-9051833D01*
X24389524Y-9013738D01*
X24380000Y-8966119D01*
X24370476Y-8937548D01*
X24360952Y-8918500D01*
X24341905Y-8889929D01*
X24332381Y-8880405D01*
D14*
X19320000Y-9232500D02*
X19320000Y-9332500D01*
X19270000Y-9282500D02*
X19370000Y-9282500D01*
D11*
X19732381Y-9372976D02*
X19618095Y-9372976D01*
X19675238Y-9372976D02*
X19675238Y-9172976D01*
X19656190Y-9201548D01*
X19637143Y-9220595D01*
X19618095Y-9230119D01*
X19818095Y-9353929D02*
X19827619Y-9363452D01*
X19818095Y-9372976D01*
X19808571Y-9363452D01*
X19818095Y-9353929D01*
X19818095Y-9372976D01*
X19951429Y-9172976D02*
X19970476Y-9172976D01*
X19989524Y-9182500D01*
X19999048Y-9192024D01*
X20008571Y-9211071D01*
X20018095Y-9249167D01*
X20018095Y-9296786D01*
X20008571Y-9334881D01*
X19999048Y-9353929D01*
X19989524Y-9363452D01*
X19970476Y-9372976D01*
X19951429Y-9372976D01*
X19932381Y-9363452D01*
X19922857Y-9353929D01*
X19913333Y-9334881D01*
X19903810Y-9296786D01*
X19903810Y-9249167D01*
X19913333Y-9211071D01*
X19922857Y-9192024D01*
X19932381Y-9182500D01*
X19951429Y-9172976D01*
X20141905Y-9172976D02*
X20160952Y-9172976D01*
X20180000Y-9182500D01*
X20189524Y-9192024D01*
X20199048Y-9211071D01*
X20208571Y-9249167D01*
X20208571Y-9296786D01*
X20199048Y-9334881D01*
X20189524Y-9353929D01*
X20180000Y-9363452D01*
X20160952Y-9372976D01*
X20141905Y-9372976D01*
X20122857Y-9363452D01*
X20113333Y-9353929D01*
X20103810Y-9334881D01*
X20094286Y-9296786D01*
X20094286Y-9249167D01*
X20103810Y-9211071D01*
X20113333Y-9192024D01*
X20122857Y-9182500D01*
X20141905Y-9172976D01*
X20332381Y-9172976D02*
X20351429Y-9172976D01*
X20370476Y-9182500D01*
X20380000Y-9192024D01*
X20389524Y-9211071D01*
X20399048Y-9249167D01*
X20399048Y-9296786D01*
X20389524Y-9334881D01*
X20380000Y-9353929D01*
X20370476Y-9363452D01*
X20351429Y-9372976D01*
X20332381Y-9372976D01*
X20313333Y-9363452D01*
X20303810Y-9353929D01*
X20294286Y-9334881D01*
X20284762Y-9296786D01*
X20284762Y-9249167D01*
X20294286Y-9211071D01*
X20303810Y-9192024D01*
X20313333Y-9182500D01*
X20332381Y-9172976D01*
X20484762Y-9372976D02*
X20484762Y-9239643D01*
X20484762Y-9258690D02*
X20494286Y-9249167D01*
X20513333Y-9239643D01*
X20541905Y-9239643D01*
X20560952Y-9249167D01*
X20570476Y-9268214D01*
X20570476Y-9372976D01*
X20570476Y-9268214D02*
X20580000Y-9249167D01*
X20599048Y-9239643D01*
X20627619Y-9239643D01*
X20646667Y-9249167D01*
X20656190Y-9268214D01*
X20656190Y-9372976D01*
X20751429Y-9372976D02*
X20751429Y-9239643D01*
X20751429Y-9258690D02*
X20760952Y-9249167D01*
X20780000Y-9239643D01*
X20808571Y-9239643D01*
X20827619Y-9249167D01*
X20837143Y-9268214D01*
X20837143Y-9372976D01*
X20837143Y-9268214D02*
X20846667Y-9249167D01*
X20865714Y-9239643D01*
X20894286Y-9239643D01*
X20913333Y-9249167D01*
X20922857Y-9268214D01*
X20922857Y-9372976D01*
X21313333Y-9163452D02*
X21141905Y-9420595D01*
X21570476Y-9172976D02*
X21589524Y-9172976D01*
X21608571Y-9182500D01*
X21618095Y-9192024D01*
X21627619Y-9211071D01*
X21637143Y-9249167D01*
X21637143Y-9296786D01*
X21627619Y-9334881D01*
X21618095Y-9353929D01*
X21608571Y-9363452D01*
X21589524Y-9372976D01*
X21570476Y-9372976D01*
X21551429Y-9363452D01*
X21541905Y-9353929D01*
X21532381Y-9334881D01*
X21522857Y-9296786D01*
X21522857Y-9249167D01*
X21532381Y-9211071D01*
X21541905Y-9192024D01*
X21551429Y-9182500D01*
X21570476Y-9172976D01*
X21722857Y-9353929D02*
X21732381Y-9363452D01*
X21722857Y-9372976D01*
X21713333Y-9363452D01*
X21722857Y-9353929D01*
X21722857Y-9372976D01*
X21856190Y-9172976D02*
X21875238Y-9172976D01*
X21894286Y-9182500D01*
X21903810Y-9192024D01*
X21913333Y-9211071D01*
X21922857Y-9249167D01*
X21922857Y-9296786D01*
X21913333Y-9334881D01*
X21903810Y-9353929D01*
X21894286Y-9363452D01*
X21875238Y-9372976D01*
X21856190Y-9372976D01*
X21837143Y-9363452D01*
X21827619Y-9353929D01*
X21818095Y-9334881D01*
X21808571Y-9296786D01*
X21808571Y-9249167D01*
X21818095Y-9211071D01*
X21827619Y-9192024D01*
X21837143Y-9182500D01*
X21856190Y-9172976D01*
X21989524Y-9172976D02*
X22113333Y-9172976D01*
X22046667Y-9249167D01*
X22075238Y-9249167D01*
X22094286Y-9258690D01*
X22103810Y-9268214D01*
X22113333Y-9287262D01*
X22113333Y-9334881D01*
X22103810Y-9353929D01*
X22094286Y-9363452D01*
X22075238Y-9372976D01*
X22018095Y-9372976D01*
X21999048Y-9363452D01*
X21989524Y-9353929D01*
X22208571Y-9372976D02*
X22246667Y-9372976D01*
X22265714Y-9363452D01*
X22275238Y-9353929D01*
X22294286Y-9325357D01*
X22303810Y-9287262D01*
X22303810Y-9211071D01*
X22294286Y-9192024D01*
X22284762Y-9182500D01*
X22265714Y-9172976D01*
X22227619Y-9172976D01*
X22208571Y-9182500D01*
X22199048Y-9192024D01*
X22189524Y-9211071D01*
X22189524Y-9258690D01*
X22199048Y-9277738D01*
X22208571Y-9287262D01*
X22227619Y-9296786D01*
X22265714Y-9296786D01*
X22284762Y-9287262D01*
X22294286Y-9277738D01*
X22303810Y-9258690D01*
X22475238Y-9239643D02*
X22475238Y-9372976D01*
X22427619Y-9163452D02*
X22380000Y-9306310D01*
X22503809Y-9306310D01*
X22570476Y-9172976D02*
X22570476Y-9211071D01*
X22646667Y-9172976D02*
X22646667Y-9211071D01*
X22941905Y-9449167D02*
X22932381Y-9439643D01*
X22913333Y-9411071D01*
X22903809Y-9392024D01*
X22894286Y-9363452D01*
X22884762Y-9315833D01*
X22884762Y-9277738D01*
X22894286Y-9230119D01*
X22903809Y-9201548D01*
X22913333Y-9182500D01*
X22932381Y-9153929D01*
X22941905Y-9144405D01*
X23122857Y-9372976D02*
X23008571Y-9372976D01*
X23065714Y-9372976D02*
X23065714Y-9172976D01*
X23046667Y-9201548D01*
X23027619Y-9220595D01*
X23008571Y-9230119D01*
X23303809Y-9172976D02*
X23208571Y-9172976D01*
X23199048Y-9268214D01*
X23208571Y-9258690D01*
X23227619Y-9249167D01*
X23275238Y-9249167D01*
X23294286Y-9258690D01*
X23303809Y-9268214D01*
X23313333Y-9287262D01*
X23313333Y-9334881D01*
X23303809Y-9353929D01*
X23294286Y-9363452D01*
X23275238Y-9372976D01*
X23227619Y-9372976D01*
X23208571Y-9363452D01*
X23199048Y-9353929D01*
X23551428Y-9372976D02*
X23551428Y-9172976D01*
X23637143Y-9372976D02*
X23637143Y-9268214D01*
X23627619Y-9249167D01*
X23608571Y-9239643D01*
X23580000Y-9239643D01*
X23560952Y-9249167D01*
X23551428Y-9258690D01*
X23760952Y-9372976D02*
X23741905Y-9363452D01*
X23732381Y-9353929D01*
X23722857Y-9334881D01*
X23722857Y-9277738D01*
X23732381Y-9258690D01*
X23741905Y-9249167D01*
X23760952Y-9239643D01*
X23789524Y-9239643D01*
X23808571Y-9249167D01*
X23818095Y-9258690D01*
X23827619Y-9277738D01*
X23827619Y-9334881D01*
X23818095Y-9353929D01*
X23808571Y-9363452D01*
X23789524Y-9372976D01*
X23760952Y-9372976D01*
X23941905Y-9372976D02*
X23922857Y-9363452D01*
X23913333Y-9344405D01*
X23913333Y-9172976D01*
X24094286Y-9363452D02*
X24075238Y-9372976D01*
X24037143Y-9372976D01*
X24018095Y-9363452D01*
X24008571Y-9344405D01*
X24008571Y-9268214D01*
X24018095Y-9249167D01*
X24037143Y-9239643D01*
X24075238Y-9239643D01*
X24094286Y-9249167D01*
X24103809Y-9268214D01*
X24103809Y-9287262D01*
X24008571Y-9306310D01*
X24180000Y-9363452D02*
X24199048Y-9372976D01*
X24237143Y-9372976D01*
X24256190Y-9363452D01*
X24265714Y-9344405D01*
X24265714Y-9334881D01*
X24256190Y-9315833D01*
X24237143Y-9306310D01*
X24208571Y-9306310D01*
X24189524Y-9296786D01*
X24180000Y-9277738D01*
X24180000Y-9268214D01*
X24189524Y-9249167D01*
X24208571Y-9239643D01*
X24237143Y-9239643D01*
X24256190Y-9249167D01*
X24332381Y-9449167D02*
X24341905Y-9439643D01*
X24360952Y-9411071D01*
X24370476Y-9392024D01*
X24380000Y-9363452D01*
X24389524Y-9315833D01*
X24389524Y-9277738D01*
X24380000Y-9230119D01*
X24370476Y-9201548D01*
X24360952Y-9182500D01*
X24341905Y-9153929D01*
X24332381Y-9144405D01*
D15*
X19348034Y-9599534D02*
X19348034Y-9493467D01*
X19241967Y-9493467D01*
X19241967Y-9599534D01*
X19348034Y-9599534D01*
D11*
X19732381Y-9636976D02*
X19618095Y-9636976D01*
X19675238Y-9636976D02*
X19675238Y-9436976D01*
X19656190Y-9465548D01*
X19637143Y-9484595D01*
X19618095Y-9494119D01*
X19818095Y-9617929D02*
X19827619Y-9627452D01*
X19818095Y-9636976D01*
X19808571Y-9627452D01*
X19818095Y-9617929D01*
X19818095Y-9636976D01*
X20008571Y-9436976D02*
X19913333Y-9436976D01*
X19903810Y-9532214D01*
X19913333Y-9522690D01*
X19932381Y-9513167D01*
X19980000Y-9513167D01*
X19999048Y-9522690D01*
X20008571Y-9532214D01*
X20018095Y-9551262D01*
X20018095Y-9598881D01*
X20008571Y-9617929D01*
X19999048Y-9627452D01*
X19980000Y-9636976D01*
X19932381Y-9636976D01*
X19913333Y-9627452D01*
X19903810Y-9617929D01*
X20141905Y-9436976D02*
X20160952Y-9436976D01*
X20180000Y-9446500D01*
X20189524Y-9456024D01*
X20199048Y-9475071D01*
X20208571Y-9513167D01*
X20208571Y-9560786D01*
X20199048Y-9598881D01*
X20189524Y-9617929D01*
X20180000Y-9627452D01*
X20160952Y-9636976D01*
X20141905Y-9636976D01*
X20122857Y-9627452D01*
X20113333Y-9617929D01*
X20103810Y-9598881D01*
X20094286Y-9560786D01*
X20094286Y-9513167D01*
X20103810Y-9475071D01*
X20113333Y-9456024D01*
X20122857Y-9446500D01*
X20141905Y-9436976D01*
X20332381Y-9436976D02*
X20351429Y-9436976D01*
X20370476Y-9446500D01*
X20380000Y-9456024D01*
X20389524Y-9475071D01*
X20399048Y-9513167D01*
X20399048Y-9560786D01*
X20389524Y-9598881D01*
X20380000Y-9617929D01*
X20370476Y-9627452D01*
X20351429Y-9636976D01*
X20332381Y-9636976D01*
X20313333Y-9627452D01*
X20303810Y-9617929D01*
X20294286Y-9598881D01*
X20284762Y-9560786D01*
X20284762Y-9513167D01*
X20294286Y-9475071D01*
X20303810Y-9456024D01*
X20313333Y-9446500D01*
X20332381Y-9436976D01*
X20484762Y-9636976D02*
X20484762Y-9503643D01*
X20484762Y-9522690D02*
X20494286Y-9513167D01*
X20513333Y-9503643D01*
X20541905Y-9503643D01*
X20560952Y-9513167D01*
X20570476Y-9532214D01*
X20570476Y-9636976D01*
X20570476Y-9532214D02*
X20580000Y-9513167D01*
X20599048Y-9503643D01*
X20627619Y-9503643D01*
X20646667Y-9513167D01*
X20656190Y-9532214D01*
X20656190Y-9636976D01*
X20751429Y-9636976D02*
X20751429Y-9503643D01*
X20751429Y-9522690D02*
X20760952Y-9513167D01*
X20780000Y-9503643D01*
X20808571Y-9503643D01*
X20827619Y-9513167D01*
X20837143Y-9532214D01*
X20837143Y-9636976D01*
X20837143Y-9532214D02*
X20846667Y-9513167D01*
X20865714Y-9503643D01*
X20894286Y-9503643D01*
X20913333Y-9513167D01*
X20922857Y-9532214D01*
X20922857Y-9636976D01*
X21313333Y-9427452D02*
X21141905Y-9684595D01*
X21570476Y-9436976D02*
X21589524Y-9436976D01*
X21608571Y-9446500D01*
X21618095Y-9456024D01*
X21627619Y-9475071D01*
X21637143Y-9513167D01*
X21637143Y-9560786D01*
X21627619Y-9598881D01*
X21618095Y-9617929D01*
X21608571Y-9627452D01*
X21589524Y-9636976D01*
X21570476Y-9636976D01*
X21551429Y-9627452D01*
X21541905Y-9617929D01*
X21532381Y-9598881D01*
X21522857Y-9560786D01*
X21522857Y-9513167D01*
X21532381Y-9475071D01*
X21541905Y-9456024D01*
X21551429Y-9446500D01*
X21570476Y-9436976D01*
X21722857Y-9617929D02*
X21732381Y-9627452D01*
X21722857Y-9636976D01*
X21713333Y-9627452D01*
X21722857Y-9617929D01*
X21722857Y-9636976D01*
X21856190Y-9436976D02*
X21875238Y-9436976D01*
X21894286Y-9446500D01*
X21903810Y-9456024D01*
X21913333Y-9475071D01*
X21922857Y-9513167D01*
X21922857Y-9560786D01*
X21913333Y-9598881D01*
X21903810Y-9617929D01*
X21894286Y-9627452D01*
X21875238Y-9636976D01*
X21856190Y-9636976D01*
X21837143Y-9627452D01*
X21827619Y-9617929D01*
X21818095Y-9598881D01*
X21808571Y-9560786D01*
X21808571Y-9513167D01*
X21818095Y-9475071D01*
X21827619Y-9456024D01*
X21837143Y-9446500D01*
X21856190Y-9436976D01*
X22103810Y-9436976D02*
X22008571Y-9436976D01*
X21999048Y-9532214D01*
X22008571Y-9522690D01*
X22027619Y-9513167D01*
X22075238Y-9513167D01*
X22094286Y-9522690D01*
X22103810Y-9532214D01*
X22113333Y-9551262D01*
X22113333Y-9598881D01*
X22103810Y-9617929D01*
X22094286Y-9627452D01*
X22075238Y-9636976D01*
X22027619Y-9636976D01*
X22008571Y-9627452D01*
X21999048Y-9617929D01*
X22208571Y-9636976D02*
X22246667Y-9636976D01*
X22265714Y-9627452D01*
X22275238Y-9617929D01*
X22294286Y-9589357D01*
X22303810Y-9551262D01*
X22303810Y-9475071D01*
X22294286Y-9456024D01*
X22284762Y-9446500D01*
X22265714Y-9436976D01*
X22227619Y-9436976D01*
X22208571Y-9446500D01*
X22199048Y-9456024D01*
X22189524Y-9475071D01*
X22189524Y-9522690D01*
X22199048Y-9541738D01*
X22208571Y-9551262D01*
X22227619Y-9560786D01*
X22265714Y-9560786D01*
X22284762Y-9551262D01*
X22294286Y-9541738D01*
X22303810Y-9522690D01*
X22494286Y-9636976D02*
X22380000Y-9636976D01*
X22437143Y-9636976D02*
X22437143Y-9436976D01*
X22418095Y-9465548D01*
X22399048Y-9484595D01*
X22380000Y-9494119D01*
X22570476Y-9436976D02*
X22570476Y-9475071D01*
X22646667Y-9436976D02*
X22646667Y-9475071D01*
X22941905Y-9713167D02*
X22932381Y-9703643D01*
X22913333Y-9675071D01*
X22903809Y-9656024D01*
X22894286Y-9627452D01*
X22884762Y-9579833D01*
X22884762Y-9541738D01*
X22894286Y-9494119D01*
X22903809Y-9465548D01*
X22913333Y-9446500D01*
X22932381Y-9417929D01*
X22941905Y-9408405D01*
X23008571Y-9456024D02*
X23018095Y-9446500D01*
X23037143Y-9436976D01*
X23084762Y-9436976D01*
X23103809Y-9446500D01*
X23113333Y-9456024D01*
X23122857Y-9475071D01*
X23122857Y-9494119D01*
X23113333Y-9522690D01*
X22999048Y-9636976D01*
X23122857Y-9636976D01*
X23360952Y-9636976D02*
X23360952Y-9436976D01*
X23446667Y-9636976D02*
X23446667Y-9532214D01*
X23437143Y-9513167D01*
X23418095Y-9503643D01*
X23389524Y-9503643D01*
X23370476Y-9513167D01*
X23360952Y-9522690D01*
X23570476Y-9636976D02*
X23551428Y-9627452D01*
X23541905Y-9617929D01*
X23532381Y-9598881D01*
X23532381Y-9541738D01*
X23541905Y-9522690D01*
X23551428Y-9513167D01*
X23570476Y-9503643D01*
X23599048Y-9503643D01*
X23618095Y-9513167D01*
X23627619Y-9522690D01*
X23637143Y-9541738D01*
X23637143Y-9598881D01*
X23627619Y-9617929D01*
X23618095Y-9627452D01*
X23599048Y-9636976D01*
X23570476Y-9636976D01*
X23751428Y-9636976D02*
X23732381Y-9627452D01*
X23722857Y-9608405D01*
X23722857Y-9436976D01*
X23903809Y-9627452D02*
X23884762Y-9636976D01*
X23846667Y-9636976D01*
X23827619Y-9627452D01*
X23818095Y-9608405D01*
X23818095Y-9532214D01*
X23827619Y-9513167D01*
X23846667Y-9503643D01*
X23884762Y-9503643D01*
X23903809Y-9513167D01*
X23913333Y-9532214D01*
X23913333Y-9551262D01*
X23818095Y-9570310D01*
X23989524Y-9627452D02*
X24008571Y-9636976D01*
X24046667Y-9636976D01*
X24065714Y-9627452D01*
X24075238Y-9608405D01*
X24075238Y-9598881D01*
X24065714Y-9579833D01*
X24046667Y-9570310D01*
X24018095Y-9570310D01*
X23999048Y-9560786D01*
X23989524Y-9541738D01*
X23989524Y-9532214D01*
X23999048Y-9513167D01*
X24018095Y-9503643D01*
X24046667Y-9503643D01*
X24065714Y-9513167D01*
X24141905Y-9713167D02*
X24151428Y-9703643D01*
X24170476Y-9675071D01*
X24180000Y-9656024D01*
X24189524Y-9627452D01*
X24199048Y-9579833D01*
X24199048Y-9541738D01*
X24189524Y-9494119D01*
X24180000Y-9465548D01*
X24170476Y-9446500D01*
X24151428Y-9417929D01*
X24141905Y-9408405D01*
D16*
X19285000Y-9901500D02*
X19370000Y-9816500D01*
X19285000Y-9731500D01*
X19200000Y-9816500D01*
X19285000Y-9901500D01*
D11*
X19732381Y-9906976D02*
X19618095Y-9906976D01*
X19675238Y-9906976D02*
X19675238Y-9706976D01*
X19656190Y-9735548D01*
X19637143Y-9754595D01*
X19618095Y-9764119D01*
X19818095Y-9887929D02*
X19827619Y-9897452D01*
X19818095Y-9906976D01*
X19808571Y-9897452D01*
X19818095Y-9887929D01*
X19818095Y-9906976D01*
X19894286Y-9706976D02*
X20027619Y-9706976D01*
X19941905Y-9906976D01*
X20141905Y-9706976D02*
X20160952Y-9706976D01*
X20180000Y-9716500D01*
X20189524Y-9726024D01*
X20199048Y-9745071D01*
X20208571Y-9783167D01*
X20208571Y-9830786D01*
X20199048Y-9868881D01*
X20189524Y-9887929D01*
X20180000Y-9897452D01*
X20160952Y-9906976D01*
X20141905Y-9906976D01*
X20122857Y-9897452D01*
X20113333Y-9887929D01*
X20103810Y-9868881D01*
X20094286Y-9830786D01*
X20094286Y-9783167D01*
X20103810Y-9745071D01*
X20113333Y-9726024D01*
X20122857Y-9716500D01*
X20141905Y-9706976D01*
X20332381Y-9706976D02*
X20351429Y-9706976D01*
X20370476Y-9716500D01*
X20380000Y-9726024D01*
X20389524Y-9745071D01*
X20399048Y-9783167D01*
X20399048Y-9830786D01*
X20389524Y-9868881D01*
X20380000Y-9887929D01*
X20370476Y-9897452D01*
X20351429Y-9906976D01*
X20332381Y-9906976D01*
X20313333Y-9897452D01*
X20303810Y-9887929D01*
X20294286Y-9868881D01*
X20284762Y-9830786D01*
X20284762Y-9783167D01*
X20294286Y-9745071D01*
X20303810Y-9726024D01*
X20313333Y-9716500D01*
X20332381Y-9706976D01*
X20484762Y-9906976D02*
X20484762Y-9773643D01*
X20484762Y-9792690D02*
X20494286Y-9783167D01*
X20513333Y-9773643D01*
X20541905Y-9773643D01*
X20560952Y-9783167D01*
X20570476Y-9802214D01*
X20570476Y-9906976D01*
X20570476Y-9802214D02*
X20580000Y-9783167D01*
X20599048Y-9773643D01*
X20627619Y-9773643D01*
X20646667Y-9783167D01*
X20656190Y-9802214D01*
X20656190Y-9906976D01*
X20751429Y-9906976D02*
X20751429Y-9773643D01*
X20751429Y-9792690D02*
X20760952Y-9783167D01*
X20780000Y-9773643D01*
X20808571Y-9773643D01*
X20827619Y-9783167D01*
X20837143Y-9802214D01*
X20837143Y-9906976D01*
X20837143Y-9802214D02*
X20846667Y-9783167D01*
X20865714Y-9773643D01*
X20894286Y-9773643D01*
X20913333Y-9783167D01*
X20922857Y-9802214D01*
X20922857Y-9906976D01*
X21313333Y-9697452D02*
X21141905Y-9954595D01*
X21570476Y-9706976D02*
X21589524Y-9706976D01*
X21608571Y-9716500D01*
X21618095Y-9726024D01*
X21627619Y-9745071D01*
X21637143Y-9783167D01*
X21637143Y-9830786D01*
X21627619Y-9868881D01*
X21618095Y-9887929D01*
X21608571Y-9897452D01*
X21589524Y-9906976D01*
X21570476Y-9906976D01*
X21551429Y-9897452D01*
X21541905Y-9887929D01*
X21532381Y-9868881D01*
X21522857Y-9830786D01*
X21522857Y-9783167D01*
X21532381Y-9745071D01*
X21541905Y-9726024D01*
X21551429Y-9716500D01*
X21570476Y-9706976D01*
X21722857Y-9887929D02*
X21732381Y-9897452D01*
X21722857Y-9906976D01*
X21713333Y-9897452D01*
X21722857Y-9887929D01*
X21722857Y-9906976D01*
X21856190Y-9706976D02*
X21875238Y-9706976D01*
X21894286Y-9716500D01*
X21903810Y-9726024D01*
X21913333Y-9745071D01*
X21922857Y-9783167D01*
X21922857Y-9830786D01*
X21913333Y-9868881D01*
X21903810Y-9887929D01*
X21894286Y-9897452D01*
X21875238Y-9906976D01*
X21856190Y-9906976D01*
X21837143Y-9897452D01*
X21827619Y-9887929D01*
X21818095Y-9868881D01*
X21808571Y-9830786D01*
X21808571Y-9783167D01*
X21818095Y-9745071D01*
X21827619Y-9726024D01*
X21837143Y-9716500D01*
X21856190Y-9706976D01*
X22094286Y-9706976D02*
X22056190Y-9706976D01*
X22037143Y-9716500D01*
X22027619Y-9726024D01*
X22008571Y-9754595D01*
X21999048Y-9792690D01*
X21999048Y-9868881D01*
X22008571Y-9887929D01*
X22018095Y-9897452D01*
X22037143Y-9906976D01*
X22075238Y-9906976D01*
X22094286Y-9897452D01*
X22103810Y-9887929D01*
X22113333Y-9868881D01*
X22113333Y-9821262D01*
X22103810Y-9802214D01*
X22094286Y-9792690D01*
X22075238Y-9783167D01*
X22037143Y-9783167D01*
X22018095Y-9792690D01*
X22008571Y-9802214D01*
X21999048Y-9821262D01*
X22284762Y-9706976D02*
X22246667Y-9706976D01*
X22227619Y-9716500D01*
X22218095Y-9726024D01*
X22199048Y-9754595D01*
X22189524Y-9792690D01*
X22189524Y-9868881D01*
X22199048Y-9887929D01*
X22208571Y-9897452D01*
X22227619Y-9906976D01*
X22265714Y-9906976D01*
X22284762Y-9897452D01*
X22294286Y-9887929D01*
X22303810Y-9868881D01*
X22303810Y-9821262D01*
X22294286Y-9802214D01*
X22284762Y-9792690D01*
X22265714Y-9783167D01*
X22227619Y-9783167D01*
X22208571Y-9792690D01*
X22199048Y-9802214D01*
X22189524Y-9821262D01*
X22399048Y-9906976D02*
X22437143Y-9906976D01*
X22456190Y-9897452D01*
X22465714Y-9887929D01*
X22484762Y-9859357D01*
X22494286Y-9821262D01*
X22494286Y-9745071D01*
X22484762Y-9726024D01*
X22475238Y-9716500D01*
X22456190Y-9706976D01*
X22418095Y-9706976D01*
X22399048Y-9716500D01*
X22389524Y-9726024D01*
X22380000Y-9745071D01*
X22380000Y-9792690D01*
X22389524Y-9811738D01*
X22399048Y-9821262D01*
X22418095Y-9830786D01*
X22456190Y-9830786D01*
X22475238Y-9821262D01*
X22484762Y-9811738D01*
X22494286Y-9792690D01*
X22570476Y-9706976D02*
X22570476Y-9745071D01*
X22646667Y-9706976D02*
X22646667Y-9745071D01*
X22941905Y-9983167D02*
X22932381Y-9973643D01*
X22913333Y-9945071D01*
X22903809Y-9926024D01*
X22894286Y-9897452D01*
X22884762Y-9849833D01*
X22884762Y-9811738D01*
X22894286Y-9764119D01*
X22903809Y-9735548D01*
X22913333Y-9716500D01*
X22932381Y-9687929D01*
X22941905Y-9678405D01*
X23046667Y-9792690D02*
X23027619Y-9783167D01*
X23018095Y-9773643D01*
X23008571Y-9754595D01*
X23008571Y-9745071D01*
X23018095Y-9726024D01*
X23027619Y-9716500D01*
X23046667Y-9706976D01*
X23084762Y-9706976D01*
X23103809Y-9716500D01*
X23113333Y-9726024D01*
X23122857Y-9745071D01*
X23122857Y-9754595D01*
X23113333Y-9773643D01*
X23103809Y-9783167D01*
X23084762Y-9792690D01*
X23046667Y-9792690D01*
X23027619Y-9802214D01*
X23018095Y-9811738D01*
X23008571Y-9830786D01*
X23008571Y-9868881D01*
X23018095Y-9887929D01*
X23027619Y-9897452D01*
X23046667Y-9906976D01*
X23084762Y-9906976D01*
X23103809Y-9897452D01*
X23113333Y-9887929D01*
X23122857Y-9868881D01*
X23122857Y-9830786D01*
X23113333Y-9811738D01*
X23103809Y-9802214D01*
X23084762Y-9792690D01*
X23360952Y-9906976D02*
X23360952Y-9706976D01*
X23446667Y-9906976D02*
X23446667Y-9802214D01*
X23437143Y-9783167D01*
X23418095Y-9773643D01*
X23389524Y-9773643D01*
X23370476Y-9783167D01*
X23360952Y-9792690D01*
X23570476Y-9906976D02*
X23551428Y-9897452D01*
X23541905Y-9887929D01*
X23532381Y-9868881D01*
X23532381Y-9811738D01*
X23541905Y-9792690D01*
X23551428Y-9783167D01*
X23570476Y-9773643D01*
X23599048Y-9773643D01*
X23618095Y-9783167D01*
X23627619Y-9792690D01*
X23637143Y-9811738D01*
X23637143Y-9868881D01*
X23627619Y-9887929D01*
X23618095Y-9897452D01*
X23599048Y-9906976D01*
X23570476Y-9906976D01*
X23751428Y-9906976D02*
X23732381Y-9897452D01*
X23722857Y-9878405D01*
X23722857Y-9706976D01*
X23903809Y-9897452D02*
X23884762Y-9906976D01*
X23846667Y-9906976D01*
X23827619Y-9897452D01*
X23818095Y-9878405D01*
X23818095Y-9802214D01*
X23827619Y-9783167D01*
X23846667Y-9773643D01*
X23884762Y-9773643D01*
X23903809Y-9783167D01*
X23913333Y-9802214D01*
X23913333Y-9821262D01*
X23818095Y-9840310D01*
X23989524Y-9897452D02*
X24008571Y-9906976D01*
X24046667Y-9906976D01*
X24065714Y-9897452D01*
X24075238Y-9878405D01*
X24075238Y-9868881D01*
X24065714Y-9849833D01*
X24046667Y-9840310D01*
X24018095Y-9840310D01*
X23999048Y-9830786D01*
X23989524Y-9811738D01*
X23989524Y-9802214D01*
X23999048Y-9783167D01*
X24018095Y-9773643D01*
X24046667Y-9773643D01*
X24065714Y-9783167D01*
X24141905Y-9983167D02*
X24151428Y-9973643D01*
X24170476Y-9945071D01*
X24180000Y-9926024D01*
X24189524Y-9897452D01*
X24199048Y-9849833D01*
X24199048Y-9811738D01*
X24189524Y-9764119D01*
X24180000Y-9735548D01*
X24170476Y-9716500D01*
X24151428Y-9687929D01*
X24141905Y-9678405D01*
M02*
