%TF.GenerationSoftware,KiCad,Pcbnew,6.0.2*%
%TF.CreationDate,2022-11-10T22:55:43+01:00*%
%TF.ProjectId,SI4735,53493437-3335-42e6-9b69-6361645f7063,rev?*%
%TF.SameCoordinates,Original*%
%TF.FileFunction,Other,User*%
%FSLAX46Y46*%
G04 Gerber Fmt 4.6, Leading zero omitted, Abs format (unit mm)*
G04 Created by KiCad (PCBNEW 6.0.2) date 2022-11-10 22:55:43*
%MOMM*%
%LPD*%
G01*
G04 APERTURE LIST*
%TA.AperFunction,Profile*%
%ADD10C,0.050000*%
%TD*%
%TA.AperFunction,Profile*%
%ADD11C,0.100000*%
%TD*%
%ADD12C,0.050000*%
G04 APERTURE END LIST*
D10*
X243000000Y-45450000D02*
G75*
G03*
X243000000Y-45450000I-1526434J0D01*
G01*
X243076434Y-77450000D02*
G75*
G03*
X243076434Y-77450000I-1526434J0D01*
G01*
X199535580Y-77486292D02*
G75*
G03*
X199535580Y-77486292I-1526434J0D01*
G01*
X244475000Y-81120000D02*
X193725000Y-81120000D01*
X193725000Y-81120000D02*
X193725000Y-42300000D01*
X193725000Y-42300000D02*
X244475000Y-42300000D01*
X244475000Y-42300000D02*
X244475000Y-81120000D01*
X199576434Y-45480000D02*
G75*
G03*
X199576434Y-45480000I-1526434J0D01*
G01*
D11*
%TO.C,J2*%
X193760000Y-49540000D02*
X193760000Y-58140000D01*
%TO.C,J3*%
X193760000Y-64720000D02*
X193760000Y-73320000D01*
D12*
%TO.C,C1*%
X222900000Y-61750000D02*
X218300000Y-61750000D01*
X222900000Y-64050000D02*
X222900000Y-61750000D01*
X218300000Y-64050000D02*
X222900000Y-64050000D01*
X218300000Y-61750000D02*
X218300000Y-64050000D01*
%TO.C,C2*%
X214750000Y-73392000D02*
X214750000Y-77992000D01*
X217050000Y-77992000D02*
X217050000Y-73392000D01*
X214750000Y-77992000D02*
X217050000Y-77992000D01*
X217050000Y-73392000D02*
X214750000Y-73392000D01*
%TO.C,C3*%
X212210000Y-77992000D02*
X214510000Y-77992000D01*
X212210000Y-73392000D02*
X212210000Y-77992000D01*
X214510000Y-73392000D02*
X212210000Y-73392000D01*
X214510000Y-77992000D02*
X214510000Y-73392000D01*
%TO.C,R1*%
X223982500Y-62720000D02*
X228542500Y-62720000D01*
X228542500Y-60480000D02*
X223982500Y-60480000D01*
X228542500Y-62720000D02*
X228542500Y-60480000D01*
X223982500Y-60480000D02*
X223982500Y-62720000D01*
%TO.C,R2*%
X228542500Y-64880000D02*
X223982500Y-64880000D01*
X223982500Y-67120000D02*
X228542500Y-67120000D01*
X228542500Y-67120000D02*
X228542500Y-64880000D01*
X223982500Y-64880000D02*
X223982500Y-67120000D01*
%TO.C,R3*%
X228555000Y-69320000D02*
X228555000Y-67080000D01*
X228555000Y-67080000D02*
X223995000Y-67080000D01*
X223995000Y-69320000D02*
X228555000Y-69320000D01*
X223995000Y-67080000D02*
X223995000Y-69320000D01*
%TO.C,R4*%
X241380000Y-62430000D02*
X236820000Y-62430000D01*
X241380000Y-64670000D02*
X241380000Y-62430000D01*
X236820000Y-62430000D02*
X236820000Y-64670000D01*
X236820000Y-64670000D02*
X241380000Y-64670000D01*
%TO.C,R5*%
X236820000Y-64680000D02*
X236820000Y-66920000D01*
X241380000Y-64680000D02*
X236820000Y-64680000D01*
X241380000Y-66920000D02*
X241380000Y-64680000D01*
X236820000Y-66920000D02*
X241380000Y-66920000D01*
%TO.C,R6*%
X236820000Y-55380000D02*
X236820000Y-57620000D01*
X241380000Y-55380000D02*
X236820000Y-55380000D01*
X236820000Y-57620000D02*
X241380000Y-57620000D01*
X241380000Y-57620000D02*
X241380000Y-55380000D01*
%TO.C,R7*%
X226742500Y-72380000D02*
X222182500Y-72380000D01*
X226742500Y-74620000D02*
X226742500Y-72380000D01*
X222182500Y-72380000D02*
X222182500Y-74620000D01*
X222182500Y-74620000D02*
X226742500Y-74620000D01*
%TO.C,R8*%
X222182500Y-76870000D02*
X226742500Y-76870000D01*
X226742500Y-74630000D02*
X222182500Y-74630000D01*
X222182500Y-74630000D02*
X222182500Y-76870000D01*
X226742500Y-76870000D02*
X226742500Y-74630000D01*
%TO.C,U2*%
X211300000Y-62100000D02*
X218200000Y-62100000D01*
X211300000Y-71400000D02*
X211300000Y-62100000D01*
X211300000Y-71400000D02*
X218200000Y-71400000D01*
X218200000Y-71400000D02*
X218200000Y-62100000D01*
%TO.C,R13*%
X223982500Y-62680000D02*
X223982500Y-64920000D01*
X228542500Y-64920000D02*
X228542500Y-62680000D01*
X228542500Y-62680000D02*
X223982500Y-62680000D01*
X223982500Y-64920000D02*
X228542500Y-64920000D01*
%TO.C,R12*%
X241380000Y-57880000D02*
X236820000Y-57880000D01*
X236820000Y-57880000D02*
X236820000Y-60120000D01*
X236820000Y-60120000D02*
X241380000Y-60120000D01*
X241380000Y-60120000D02*
X241380000Y-57880000D01*
%TO.C,R10*%
X210770000Y-73830000D02*
X210770000Y-69270000D01*
X208530000Y-73830000D02*
X210770000Y-73830000D01*
X210770000Y-69270000D02*
X208530000Y-69270000D01*
X208530000Y-69270000D02*
X208530000Y-73830000D01*
%TO.C,R14*%
X241380000Y-62420000D02*
X241380000Y-60180000D01*
X236820000Y-60180000D02*
X236820000Y-62420000D01*
X236820000Y-62420000D02*
X241380000Y-62420000D01*
X241380000Y-60180000D02*
X236820000Y-60180000D01*
%TD*%
M02*
