%TF.GenerationSoftware,KiCad,Pcbnew,6.0.2*%
%TF.CreationDate,2022-11-10T22:55:42+01:00*%
%TF.ProjectId,SI4735,53493437-3335-42e6-9b69-6361645f7063,rev?*%
%TF.SameCoordinates,Original*%
%TF.FileFunction,Legend,Top*%
%TF.FilePolarity,Positive*%
%FSLAX46Y46*%
G04 Gerber Fmt 4.6, Leading zero omitted, Abs format (unit mm)*
G04 Created by KiCad (PCBNEW 6.0.2) date 2022-11-10 22:55:42*
%MOMM*%
%LPD*%
G01*
G04 APERTURE LIST*
%ADD10C,0.120000*%
%TA.AperFunction,Profile*%
%ADD11C,0.050000*%
%TD*%
%ADD12C,0.100000*%
%ADD13C,0.150000*%
%TA.AperFunction,Profile*%
%ADD14C,0.100000*%
%TD*%
G04 APERTURE END LIST*
D10*
X233270000Y-52430000D02*
X243586000Y-52430000D01*
X243586000Y-52430000D02*
X243586000Y-68072000D01*
X243586000Y-68072000D02*
X233270000Y-68072000D01*
X233270000Y-68072000D02*
X233270000Y-52430000D01*
X233340000Y-69860000D02*
X238300000Y-69860000D01*
X238300000Y-69860000D02*
X238300000Y-77900000D01*
X238300000Y-77900000D02*
X233340000Y-77900000D01*
X233340000Y-77900000D02*
X233340000Y-69860000D01*
X233355000Y-72580000D02*
X238305000Y-72580000D01*
X233280000Y-57700000D02*
X243576000Y-57702000D01*
X233300000Y-55160000D02*
X243596000Y-55162000D01*
X236030000Y-75110000D02*
X236025000Y-77875000D01*
X233290000Y-62970000D02*
X243586000Y-62972000D01*
X233290000Y-60290000D02*
X243586000Y-60292000D01*
X233265000Y-75135000D02*
X238215000Y-75135000D01*
X233290000Y-65530000D02*
X243586000Y-65532000D01*
D11*
X243000000Y-45450000D02*
G75*
G03*
X243000000Y-45450000I-1526434J0D01*
G01*
X243076434Y-77450000D02*
G75*
G03*
X243076434Y-77450000I-1526434J0D01*
G01*
X199535580Y-77486292D02*
G75*
G03*
X199535580Y-77486292I-1526434J0D01*
G01*
X244475000Y-81120000D02*
X193725000Y-81120000D01*
X193725000Y-81120000D02*
X193725000Y-42300000D01*
X193725000Y-42300000D02*
X244475000Y-42300000D01*
X244475000Y-42300000D02*
X244475000Y-81120000D01*
X199576434Y-45480000D02*
G75*
G03*
X199576434Y-45480000I-1526434J0D01*
G01*
D12*
X203507142Y-43879809D02*
X203621428Y-43917904D01*
X203811904Y-43917904D01*
X203888095Y-43879809D01*
X203926190Y-43841714D01*
X203964285Y-43765523D01*
X203964285Y-43689333D01*
X203926190Y-43613142D01*
X203888095Y-43575047D01*
X203811904Y-43536952D01*
X203659523Y-43498857D01*
X203583333Y-43460761D01*
X203545238Y-43422666D01*
X203507142Y-43346476D01*
X203507142Y-43270285D01*
X203545238Y-43194095D01*
X203583333Y-43156000D01*
X203659523Y-43117904D01*
X203850000Y-43117904D01*
X203964285Y-43156000D01*
X204307142Y-43917904D02*
X204307142Y-43384571D01*
X204307142Y-43117904D02*
X204269047Y-43156000D01*
X204307142Y-43194095D01*
X204345238Y-43156000D01*
X204307142Y-43117904D01*
X204307142Y-43194095D01*
X205030952Y-43384571D02*
X205030952Y-43917904D01*
X204840476Y-43079809D02*
X204650000Y-43651238D01*
X205145238Y-43651238D01*
X205373809Y-43117904D02*
X205907142Y-43117904D01*
X205564285Y-43917904D01*
X206135714Y-43117904D02*
X206630952Y-43117904D01*
X206364285Y-43422666D01*
X206478571Y-43422666D01*
X206554761Y-43460761D01*
X206592857Y-43498857D01*
X206630952Y-43575047D01*
X206630952Y-43765523D01*
X206592857Y-43841714D01*
X206554761Y-43879809D01*
X206478571Y-43917904D01*
X206250000Y-43917904D01*
X206173809Y-43879809D01*
X206135714Y-43841714D01*
X207354761Y-43117904D02*
X206973809Y-43117904D01*
X206935714Y-43498857D01*
X206973809Y-43460761D01*
X207050000Y-43422666D01*
X207240476Y-43422666D01*
X207316666Y-43460761D01*
X207354761Y-43498857D01*
X207392857Y-43575047D01*
X207392857Y-43765523D01*
X207354761Y-43841714D01*
X207316666Y-43879809D01*
X207240476Y-43917904D01*
X207050000Y-43917904D01*
X206973809Y-43879809D01*
X206935714Y-43841714D01*
X207735714Y-43613142D02*
X208345238Y-43613142D01*
X208726190Y-43917904D02*
X208726190Y-43117904D01*
X208726190Y-43422666D02*
X208802380Y-43384571D01*
X208954761Y-43384571D01*
X209030952Y-43422666D01*
X209069047Y-43460761D01*
X209107142Y-43536952D01*
X209107142Y-43765523D01*
X209069047Y-43841714D01*
X209030952Y-43879809D01*
X208954761Y-43917904D01*
X208802380Y-43917904D01*
X208726190Y-43879809D01*
X209792857Y-43917904D02*
X209792857Y-43498857D01*
X209754761Y-43422666D01*
X209678571Y-43384571D01*
X209526190Y-43384571D01*
X209450000Y-43422666D01*
X209792857Y-43879809D02*
X209716666Y-43917904D01*
X209526190Y-43917904D01*
X209450000Y-43879809D01*
X209411904Y-43803619D01*
X209411904Y-43727428D01*
X209450000Y-43651238D01*
X209526190Y-43613142D01*
X209716666Y-43613142D01*
X209792857Y-43575047D01*
X210135714Y-43879809D02*
X210211904Y-43917904D01*
X210364285Y-43917904D01*
X210440476Y-43879809D01*
X210478571Y-43803619D01*
X210478571Y-43765523D01*
X210440476Y-43689333D01*
X210364285Y-43651238D01*
X210250000Y-43651238D01*
X210173809Y-43613142D01*
X210135714Y-43536952D01*
X210135714Y-43498857D01*
X210173809Y-43422666D01*
X210250000Y-43384571D01*
X210364285Y-43384571D01*
X210440476Y-43422666D01*
X211126190Y-43879809D02*
X211050000Y-43917904D01*
X210897619Y-43917904D01*
X210821428Y-43879809D01*
X210783333Y-43803619D01*
X210783333Y-43498857D01*
X210821428Y-43422666D01*
X210897619Y-43384571D01*
X211050000Y-43384571D01*
X211126190Y-43422666D01*
X211164285Y-43498857D01*
X211164285Y-43575047D01*
X210783333Y-43651238D01*
X211850000Y-43917904D02*
X211850000Y-43117904D01*
X211850000Y-43879809D02*
X211773809Y-43917904D01*
X211621428Y-43917904D01*
X211545238Y-43879809D01*
X211507142Y-43841714D01*
X211469047Y-43765523D01*
X211469047Y-43536952D01*
X211507142Y-43460761D01*
X211545238Y-43422666D01*
X211621428Y-43384571D01*
X211773809Y-43384571D01*
X211850000Y-43422666D01*
X212840476Y-43917904D02*
X212840476Y-43384571D01*
X212840476Y-43536952D02*
X212878571Y-43460761D01*
X212916666Y-43422666D01*
X212992857Y-43384571D01*
X213069047Y-43384571D01*
X213678571Y-43917904D02*
X213678571Y-43498857D01*
X213640476Y-43422666D01*
X213564285Y-43384571D01*
X213411904Y-43384571D01*
X213335714Y-43422666D01*
X213678571Y-43879809D02*
X213602380Y-43917904D01*
X213411904Y-43917904D01*
X213335714Y-43879809D01*
X213297619Y-43803619D01*
X213297619Y-43727428D01*
X213335714Y-43651238D01*
X213411904Y-43613142D01*
X213602380Y-43613142D01*
X213678571Y-43575047D01*
X214402380Y-43917904D02*
X214402380Y-43117904D01*
X214402380Y-43879809D02*
X214326190Y-43917904D01*
X214173809Y-43917904D01*
X214097619Y-43879809D01*
X214059523Y-43841714D01*
X214021428Y-43765523D01*
X214021428Y-43536952D01*
X214059523Y-43460761D01*
X214097619Y-43422666D01*
X214173809Y-43384571D01*
X214326190Y-43384571D01*
X214402380Y-43422666D01*
X214783333Y-43917904D02*
X214783333Y-43384571D01*
X214783333Y-43117904D02*
X214745238Y-43156000D01*
X214783333Y-43194095D01*
X214821428Y-43156000D01*
X214783333Y-43117904D01*
X214783333Y-43194095D01*
X215278571Y-43917904D02*
X215202380Y-43879809D01*
X215164285Y-43841714D01*
X215126190Y-43765523D01*
X215126190Y-43536952D01*
X215164285Y-43460761D01*
X215202380Y-43422666D01*
X215278571Y-43384571D01*
X215392857Y-43384571D01*
X215469047Y-43422666D01*
X215507142Y-43460761D01*
X215545238Y-43536952D01*
X215545238Y-43765523D01*
X215507142Y-43841714D01*
X215469047Y-43879809D01*
X215392857Y-43917904D01*
X215278571Y-43917904D01*
X215888095Y-43841714D02*
X215926190Y-43879809D01*
X215888095Y-43917904D01*
X215850000Y-43879809D01*
X215888095Y-43841714D01*
X215888095Y-43917904D01*
X216878571Y-43917904D02*
X216878571Y-43117904D01*
X217069047Y-43117904D01*
X217183333Y-43156000D01*
X217259523Y-43232190D01*
X217297619Y-43308380D01*
X217335714Y-43460761D01*
X217335714Y-43575047D01*
X217297619Y-43727428D01*
X217259523Y-43803619D01*
X217183333Y-43879809D01*
X217069047Y-43917904D01*
X216878571Y-43917904D01*
X217983333Y-43879809D02*
X217907142Y-43917904D01*
X217754761Y-43917904D01*
X217678571Y-43879809D01*
X217640476Y-43803619D01*
X217640476Y-43498857D01*
X217678571Y-43422666D01*
X217754761Y-43384571D01*
X217907142Y-43384571D01*
X217983333Y-43422666D01*
X218021428Y-43498857D01*
X218021428Y-43575047D01*
X217640476Y-43651238D01*
X218288095Y-43384571D02*
X218478571Y-43917904D01*
X218669047Y-43384571D01*
X219278571Y-43879809D02*
X219202380Y-43917904D01*
X219050000Y-43917904D01*
X218973809Y-43879809D01*
X218935714Y-43803619D01*
X218935714Y-43498857D01*
X218973809Y-43422666D01*
X219050000Y-43384571D01*
X219202380Y-43384571D01*
X219278571Y-43422666D01*
X219316666Y-43498857D01*
X219316666Y-43575047D01*
X218935714Y-43651238D01*
X219773809Y-43917904D02*
X219697619Y-43879809D01*
X219659523Y-43803619D01*
X219659523Y-43117904D01*
X220192857Y-43917904D02*
X220116666Y-43879809D01*
X220078571Y-43841714D01*
X220040476Y-43765523D01*
X220040476Y-43536952D01*
X220078571Y-43460761D01*
X220116666Y-43422666D01*
X220192857Y-43384571D01*
X220307142Y-43384571D01*
X220383333Y-43422666D01*
X220421428Y-43460761D01*
X220459523Y-43536952D01*
X220459523Y-43765523D01*
X220421428Y-43841714D01*
X220383333Y-43879809D01*
X220307142Y-43917904D01*
X220192857Y-43917904D01*
X220802380Y-43384571D02*
X220802380Y-44184571D01*
X220802380Y-43422666D02*
X220878571Y-43384571D01*
X221030952Y-43384571D01*
X221107142Y-43422666D01*
X221145238Y-43460761D01*
X221183333Y-43536952D01*
X221183333Y-43765523D01*
X221145238Y-43841714D01*
X221107142Y-43879809D01*
X221030952Y-43917904D01*
X220878571Y-43917904D01*
X220802380Y-43879809D01*
X221830952Y-43879809D02*
X221754761Y-43917904D01*
X221602380Y-43917904D01*
X221526190Y-43879809D01*
X221488095Y-43803619D01*
X221488095Y-43498857D01*
X221526190Y-43422666D01*
X221602380Y-43384571D01*
X221754761Y-43384571D01*
X221830952Y-43422666D01*
X221869047Y-43498857D01*
X221869047Y-43575047D01*
X221488095Y-43651238D01*
X222554761Y-43917904D02*
X222554761Y-43117904D01*
X222554761Y-43879809D02*
X222478571Y-43917904D01*
X222326190Y-43917904D01*
X222250000Y-43879809D01*
X222211904Y-43841714D01*
X222173809Y-43765523D01*
X222173809Y-43536952D01*
X222211904Y-43460761D01*
X222250000Y-43422666D01*
X222326190Y-43384571D01*
X222478571Y-43384571D01*
X222554761Y-43422666D01*
X223545238Y-43917904D02*
X223545238Y-43117904D01*
X223545238Y-43422666D02*
X223621428Y-43384571D01*
X223773809Y-43384571D01*
X223850000Y-43422666D01*
X223888095Y-43460761D01*
X223926190Y-43536952D01*
X223926190Y-43765523D01*
X223888095Y-43841714D01*
X223850000Y-43879809D01*
X223773809Y-43917904D01*
X223621428Y-43917904D01*
X223545238Y-43879809D01*
X224192857Y-43384571D02*
X224383333Y-43917904D01*
X224573809Y-43384571D02*
X224383333Y-43917904D01*
X224307142Y-44108380D01*
X224269047Y-44146476D01*
X224192857Y-44184571D01*
X225450000Y-43689333D02*
X225830952Y-43689333D01*
X225373809Y-43917904D02*
X225640476Y-43117904D01*
X225907142Y-43917904D01*
X226173809Y-43841714D02*
X226211904Y-43879809D01*
X226173809Y-43917904D01*
X226135714Y-43879809D01*
X226173809Y-43841714D01*
X226173809Y-43917904D01*
X227164285Y-43917904D02*
X227164285Y-43117904D01*
X227469047Y-43384571D02*
X227659523Y-43917904D01*
X227850000Y-43384571D01*
X228497619Y-43917904D02*
X228497619Y-43498857D01*
X228459523Y-43422666D01*
X228383333Y-43384571D01*
X228230952Y-43384571D01*
X228154761Y-43422666D01*
X228497619Y-43879809D02*
X228421428Y-43917904D01*
X228230952Y-43917904D01*
X228154761Y-43879809D01*
X228116666Y-43803619D01*
X228116666Y-43727428D01*
X228154761Y-43651238D01*
X228230952Y-43613142D01*
X228421428Y-43613142D01*
X228497619Y-43575047D01*
X228878571Y-43384571D02*
X228878571Y-43917904D01*
X228878571Y-43460761D02*
X228916666Y-43422666D01*
X228992857Y-43384571D01*
X229107142Y-43384571D01*
X229183333Y-43422666D01*
X229221428Y-43498857D01*
X229221428Y-43917904D01*
X229716666Y-43917904D02*
X229640476Y-43879809D01*
X229602380Y-43841714D01*
X229564285Y-43765523D01*
X229564285Y-43536952D01*
X229602380Y-43460761D01*
X229640476Y-43422666D01*
X229716666Y-43384571D01*
X229830952Y-43384571D01*
X229907142Y-43422666D01*
X229945238Y-43460761D01*
X229983333Y-43536952D01*
X229983333Y-43765523D01*
X229945238Y-43841714D01*
X229907142Y-43879809D01*
X229830952Y-43917904D01*
X229716666Y-43917904D01*
X230250000Y-43384571D02*
X230440476Y-43917904D01*
X230630952Y-43384571D01*
X214230952Y-45205904D02*
X213773809Y-45205904D01*
X214002380Y-45205904D02*
X214002380Y-44405904D01*
X213926190Y-44520190D01*
X213850000Y-44596380D01*
X213773809Y-44634476D01*
X214916666Y-44672571D02*
X214916666Y-45205904D01*
X214726190Y-44367809D02*
X214535714Y-44939238D01*
X215030952Y-44939238D01*
X215335714Y-45129714D02*
X215373809Y-45167809D01*
X215335714Y-45205904D01*
X215297619Y-45167809D01*
X215335714Y-45129714D01*
X215335714Y-45205904D01*
X215869047Y-44405904D02*
X215945238Y-44405904D01*
X216021428Y-44444000D01*
X216059523Y-44482095D01*
X216097619Y-44558285D01*
X216135714Y-44710666D01*
X216135714Y-44901142D01*
X216097619Y-45053523D01*
X216059523Y-45129714D01*
X216021428Y-45167809D01*
X215945238Y-45205904D01*
X215869047Y-45205904D01*
X215792857Y-45167809D01*
X215754761Y-45129714D01*
X215716666Y-45053523D01*
X215678571Y-44901142D01*
X215678571Y-44710666D01*
X215716666Y-44558285D01*
X215754761Y-44482095D01*
X215792857Y-44444000D01*
X215869047Y-44405904D01*
X216592857Y-44748761D02*
X216516666Y-44710666D01*
X216478571Y-44672571D01*
X216440476Y-44596380D01*
X216440476Y-44558285D01*
X216478571Y-44482095D01*
X216516666Y-44444000D01*
X216592857Y-44405904D01*
X216745238Y-44405904D01*
X216821428Y-44444000D01*
X216859523Y-44482095D01*
X216897619Y-44558285D01*
X216897619Y-44596380D01*
X216859523Y-44672571D01*
X216821428Y-44710666D01*
X216745238Y-44748761D01*
X216592857Y-44748761D01*
X216516666Y-44786857D01*
X216478571Y-44824952D01*
X216440476Y-44901142D01*
X216440476Y-45053523D01*
X216478571Y-45129714D01*
X216516666Y-45167809D01*
X216592857Y-45205904D01*
X216745238Y-45205904D01*
X216821428Y-45167809D01*
X216859523Y-45129714D01*
X216897619Y-45053523D01*
X216897619Y-44901142D01*
X216859523Y-44824952D01*
X216821428Y-44786857D01*
X216745238Y-44748761D01*
X217240476Y-45129714D02*
X217278571Y-45167809D01*
X217240476Y-45205904D01*
X217202380Y-45167809D01*
X217240476Y-45129714D01*
X217240476Y-45205904D01*
X217583333Y-44482095D02*
X217621428Y-44444000D01*
X217697619Y-44405904D01*
X217888095Y-44405904D01*
X217964285Y-44444000D01*
X218002380Y-44482095D01*
X218040476Y-44558285D01*
X218040476Y-44634476D01*
X218002380Y-44748761D01*
X217545238Y-45205904D01*
X218040476Y-45205904D01*
X218535714Y-44405904D02*
X218611904Y-44405904D01*
X218688095Y-44444000D01*
X218726190Y-44482095D01*
X218764285Y-44558285D01*
X218802380Y-44710666D01*
X218802380Y-44901142D01*
X218764285Y-45053523D01*
X218726190Y-45129714D01*
X218688095Y-45167809D01*
X218611904Y-45205904D01*
X218535714Y-45205904D01*
X218459523Y-45167809D01*
X218421428Y-45129714D01*
X218383333Y-45053523D01*
X218345238Y-44901142D01*
X218345238Y-44710666D01*
X218383333Y-44558285D01*
X218421428Y-44482095D01*
X218459523Y-44444000D01*
X218535714Y-44405904D01*
X219107142Y-44482095D02*
X219145238Y-44444000D01*
X219221428Y-44405904D01*
X219411904Y-44405904D01*
X219488095Y-44444000D01*
X219526190Y-44482095D01*
X219564285Y-44558285D01*
X219564285Y-44634476D01*
X219526190Y-44748761D01*
X219069047Y-45205904D01*
X219564285Y-45205904D01*
X219869047Y-44482095D02*
X219907142Y-44444000D01*
X219983333Y-44405904D01*
X220173809Y-44405904D01*
X220250000Y-44444000D01*
X220288095Y-44482095D01*
X220326190Y-44558285D01*
X220326190Y-44634476D01*
X220288095Y-44748761D01*
X219830952Y-45205904D01*
X220326190Y-45205904D01*
D13*
X237824523Y-76887380D02*
X237348333Y-76887380D01*
X237348333Y-75887380D01*
X227323809Y-59302380D02*
X227323809Y-58302380D01*
X227704761Y-58302380D01*
X227800000Y-58350000D01*
X227847619Y-58397619D01*
X227895238Y-58492857D01*
X227895238Y-58635714D01*
X227847619Y-58730952D01*
X227800000Y-58778571D01*
X227704761Y-58826190D01*
X227323809Y-58826190D01*
X228466666Y-59302380D02*
X228371428Y-59254761D01*
X228323809Y-59207142D01*
X228276190Y-59111904D01*
X228276190Y-58826190D01*
X228323809Y-58730952D01*
X228371428Y-58683333D01*
X228466666Y-58635714D01*
X228609523Y-58635714D01*
X228704761Y-58683333D01*
X228752380Y-58730952D01*
X228800000Y-58826190D01*
X228800000Y-59111904D01*
X228752380Y-59207142D01*
X228704761Y-59254761D01*
X228609523Y-59302380D01*
X228466666Y-59302380D01*
X229133333Y-58635714D02*
X229323809Y-59302380D01*
X229514285Y-58826190D01*
X229704761Y-59302380D01*
X229895238Y-58635714D01*
X230657142Y-59254761D02*
X230561904Y-59302380D01*
X230371428Y-59302380D01*
X230276190Y-59254761D01*
X230228571Y-59159523D01*
X230228571Y-58778571D01*
X230276190Y-58683333D01*
X230371428Y-58635714D01*
X230561904Y-58635714D01*
X230657142Y-58683333D01*
X230704761Y-58778571D01*
X230704761Y-58873809D01*
X230228571Y-58969047D01*
X231133333Y-59302380D02*
X231133333Y-58635714D01*
X231133333Y-58826190D02*
X231180952Y-58730952D01*
X231228571Y-58683333D01*
X231323809Y-58635714D01*
X231419047Y-58635714D01*
X196928571Y-74178571D02*
X196595238Y-74178571D01*
X196595238Y-74702380D02*
X196595238Y-73702380D01*
X197071428Y-73702380D01*
X197452380Y-74702380D02*
X197452380Y-73702380D01*
X197785714Y-74416666D01*
X198119047Y-73702380D01*
X198119047Y-74702380D01*
X199357142Y-74702380D02*
X199357142Y-73702380D01*
X199833333Y-74702380D02*
X199833333Y-73702380D01*
X200404761Y-74702380D01*
X200404761Y-73702380D01*
X237701904Y-73390000D02*
X237606666Y-73342380D01*
X237463809Y-73342380D01*
X237320952Y-73390000D01*
X237225714Y-73485238D01*
X237178095Y-73580476D01*
X237130476Y-73770952D01*
X237130476Y-73913809D01*
X237178095Y-74104285D01*
X237225714Y-74199523D01*
X237320952Y-74294761D01*
X237463809Y-74342380D01*
X237559047Y-74342380D01*
X237701904Y-74294761D01*
X237749523Y-74247142D01*
X237749523Y-73913809D01*
X237559047Y-73913809D01*
X236299809Y-64412761D02*
X236442666Y-64460380D01*
X236680761Y-64460380D01*
X236776000Y-64412761D01*
X236823619Y-64365142D01*
X236871238Y-64269904D01*
X236871238Y-64174666D01*
X236823619Y-64079428D01*
X236776000Y-64031809D01*
X236680761Y-63984190D01*
X236490285Y-63936571D01*
X236395047Y-63888952D01*
X236347428Y-63841333D01*
X236299809Y-63746095D01*
X236299809Y-63650857D01*
X236347428Y-63555619D01*
X236395047Y-63508000D01*
X236490285Y-63460380D01*
X236728380Y-63460380D01*
X236871238Y-63508000D01*
X237299809Y-64460380D02*
X237299809Y-63460380D01*
X237537904Y-63460380D01*
X237680761Y-63508000D01*
X237776000Y-63603238D01*
X237823619Y-63698476D01*
X237871238Y-63888952D01*
X237871238Y-64031809D01*
X237823619Y-64222285D01*
X237776000Y-64317523D01*
X237680761Y-64412761D01*
X237537904Y-64460380D01*
X237299809Y-64460380D01*
X238299809Y-64460380D02*
X238299809Y-63460380D01*
X238966476Y-63460380D02*
X239156952Y-63460380D01*
X239252190Y-63508000D01*
X239347428Y-63603238D01*
X239395047Y-63793714D01*
X239395047Y-64127047D01*
X239347428Y-64317523D01*
X239252190Y-64412761D01*
X239156952Y-64460380D01*
X238966476Y-64460380D01*
X238871238Y-64412761D01*
X238776000Y-64317523D01*
X238728380Y-64127047D01*
X238728380Y-63793714D01*
X238776000Y-63603238D01*
X238871238Y-63508000D01*
X238966476Y-63460380D01*
X240537904Y-63412761D02*
X239680761Y-64698476D01*
X240823619Y-64412761D02*
X240966476Y-64460380D01*
X241204571Y-64460380D01*
X241299809Y-64412761D01*
X241347428Y-64365142D01*
X241395047Y-64269904D01*
X241395047Y-64174666D01*
X241347428Y-64079428D01*
X241299809Y-64031809D01*
X241204571Y-63984190D01*
X241014095Y-63936571D01*
X240918857Y-63888952D01*
X240871238Y-63841333D01*
X240823619Y-63746095D01*
X240823619Y-63650857D01*
X240871238Y-63555619D01*
X240918857Y-63508000D01*
X241014095Y-63460380D01*
X241252190Y-63460380D01*
X241395047Y-63508000D01*
X241823619Y-64460380D02*
X241823619Y-63460380D01*
X242061714Y-63460380D01*
X242204571Y-63508000D01*
X242299809Y-63603238D01*
X242347428Y-63698476D01*
X242395047Y-63888952D01*
X242395047Y-64031809D01*
X242347428Y-64222285D01*
X242299809Y-64317523D01*
X242204571Y-64412761D01*
X242061714Y-64460380D01*
X241823619Y-64460380D01*
X242776000Y-64174666D02*
X243252190Y-64174666D01*
X242680761Y-64460380D02*
X243014095Y-63460380D01*
X243347428Y-64460380D01*
X236482095Y-59332761D02*
X236624952Y-59380380D01*
X236863047Y-59380380D01*
X236958285Y-59332761D01*
X237005904Y-59285142D01*
X237053523Y-59189904D01*
X237053523Y-59094666D01*
X237005904Y-58999428D01*
X236958285Y-58951809D01*
X236863047Y-58904190D01*
X236672571Y-58856571D01*
X236577333Y-58808952D01*
X236529714Y-58761333D01*
X236482095Y-58666095D01*
X236482095Y-58570857D01*
X236529714Y-58475619D01*
X236577333Y-58428000D01*
X236672571Y-58380380D01*
X236910666Y-58380380D01*
X237053523Y-58428000D01*
X237482095Y-58856571D02*
X237815428Y-58856571D01*
X237958285Y-59380380D02*
X237482095Y-59380380D01*
X237482095Y-58380380D01*
X237958285Y-58380380D01*
X238386857Y-59380380D02*
X238386857Y-58380380D01*
X238958285Y-59380380D01*
X238958285Y-58380380D01*
X232707142Y-62204761D02*
X232754761Y-62252380D01*
X232802380Y-62395238D01*
X232802380Y-62490476D01*
X232754761Y-62633333D01*
X232659523Y-62728571D01*
X232564285Y-62776190D01*
X232373809Y-62823809D01*
X232230952Y-62823809D01*
X232040476Y-62776190D01*
X231945238Y-62728571D01*
X231850000Y-62633333D01*
X231802380Y-62490476D01*
X231802380Y-62395238D01*
X231850000Y-62252380D01*
X231897619Y-62204761D01*
X232802380Y-61633333D02*
X232754761Y-61728571D01*
X232707142Y-61776190D01*
X232611904Y-61823809D01*
X232326190Y-61823809D01*
X232230952Y-61776190D01*
X232183333Y-61728571D01*
X232135714Y-61633333D01*
X232135714Y-61490476D01*
X232183333Y-61395238D01*
X232230952Y-61347619D01*
X232326190Y-61300000D01*
X232611904Y-61300000D01*
X232707142Y-61347619D01*
X232754761Y-61395238D01*
X232802380Y-61490476D01*
X232802380Y-61633333D01*
X232135714Y-60871428D02*
X232802380Y-60871428D01*
X232230952Y-60871428D02*
X232183333Y-60823809D01*
X232135714Y-60728571D01*
X232135714Y-60585714D01*
X232183333Y-60490476D01*
X232278571Y-60442857D01*
X232802380Y-60442857D01*
X232135714Y-60109523D02*
X232135714Y-59728571D01*
X231802380Y-59966666D02*
X232659523Y-59966666D01*
X232754761Y-59919047D01*
X232802380Y-59823809D01*
X232802380Y-59728571D01*
X232802380Y-59395238D02*
X232135714Y-59395238D01*
X232326190Y-59395238D02*
X232230952Y-59347619D01*
X232183333Y-59300000D01*
X232135714Y-59204761D01*
X232135714Y-59109523D01*
X232802380Y-58633333D02*
X232754761Y-58728571D01*
X232707142Y-58776190D01*
X232611904Y-58823809D01*
X232326190Y-58823809D01*
X232230952Y-58776190D01*
X232183333Y-58728571D01*
X232135714Y-58633333D01*
X232135714Y-58490476D01*
X232183333Y-58395238D01*
X232230952Y-58347619D01*
X232326190Y-58300000D01*
X232611904Y-58300000D01*
X232707142Y-58347619D01*
X232754761Y-58395238D01*
X232802380Y-58490476D01*
X232802380Y-58633333D01*
X232802380Y-57728571D02*
X232754761Y-57823809D01*
X232659523Y-57871428D01*
X231802380Y-57871428D01*
X196547619Y-49066666D02*
X197023809Y-49066666D01*
X196452380Y-49352380D02*
X196785714Y-48352380D01*
X197119047Y-49352380D01*
X197452380Y-49352380D02*
X197452380Y-48352380D01*
X197785714Y-49066666D01*
X198119047Y-48352380D01*
X198119047Y-49352380D01*
X199357142Y-49352380D02*
X199357142Y-48352380D01*
X199833333Y-49352380D02*
X199833333Y-48352380D01*
X200404761Y-49352380D01*
X200404761Y-48352380D01*
D12*
X221347142Y-46587000D02*
X221632857Y-46587000D01*
X221290000Y-46758428D02*
X221490000Y-46158428D01*
X221690000Y-46758428D01*
X221890000Y-46758428D02*
X221890000Y-46158428D01*
X222090000Y-46587000D01*
X222290000Y-46158428D01*
X222290000Y-46758428D01*
X222547142Y-46729857D02*
X222632857Y-46758428D01*
X222775714Y-46758428D01*
X222832857Y-46729857D01*
X222861428Y-46701285D01*
X222890000Y-46644142D01*
X222890000Y-46587000D01*
X222861428Y-46529857D01*
X222832857Y-46501285D01*
X222775714Y-46472714D01*
X222661428Y-46444142D01*
X222604285Y-46415571D01*
X222575714Y-46387000D01*
X222547142Y-46329857D01*
X222547142Y-46272714D01*
X222575714Y-46215571D01*
X222604285Y-46187000D01*
X222661428Y-46158428D01*
X222804285Y-46158428D01*
X222890000Y-46187000D01*
X223918571Y-46758428D02*
X223575714Y-46758428D01*
X223747142Y-46758428D02*
X223747142Y-46158428D01*
X223690000Y-46244142D01*
X223632857Y-46301285D01*
X223575714Y-46329857D01*
X224490000Y-46758428D02*
X224147142Y-46758428D01*
X224318571Y-46758428D02*
X224318571Y-46158428D01*
X224261428Y-46244142D01*
X224204285Y-46301285D01*
X224147142Y-46329857D01*
X225061428Y-46758428D02*
X224718571Y-46758428D01*
X224890000Y-46758428D02*
X224890000Y-46158428D01*
X224832857Y-46244142D01*
X224775714Y-46301285D01*
X224718571Y-46329857D01*
X225261428Y-46158428D02*
X225661428Y-46158428D01*
X225404285Y-46758428D01*
X222547142Y-47495857D02*
X223004285Y-47495857D01*
X223232857Y-47124428D02*
X223604285Y-47124428D01*
X223404285Y-47353000D01*
X223490000Y-47353000D01*
X223547142Y-47381571D01*
X223575714Y-47410142D01*
X223604285Y-47467285D01*
X223604285Y-47610142D01*
X223575714Y-47667285D01*
X223547142Y-47695857D01*
X223490000Y-47724428D01*
X223318571Y-47724428D01*
X223261428Y-47695857D01*
X223232857Y-47667285D01*
X223861428Y-47667285D02*
X223890000Y-47695857D01*
X223861428Y-47724428D01*
X223832857Y-47695857D01*
X223861428Y-47667285D01*
X223861428Y-47724428D01*
X224090000Y-47124428D02*
X224461428Y-47124428D01*
X224261428Y-47353000D01*
X224347142Y-47353000D01*
X224404285Y-47381571D01*
X224432857Y-47410142D01*
X224461428Y-47467285D01*
X224461428Y-47610142D01*
X224432857Y-47667285D01*
X224404285Y-47695857D01*
X224347142Y-47724428D01*
X224175714Y-47724428D01*
X224118571Y-47695857D01*
X224090000Y-47667285D01*
D13*
X237779523Y-71732380D02*
X237446190Y-71256190D01*
X237208095Y-71732380D02*
X237208095Y-70732380D01*
X237589047Y-70732380D01*
X237684285Y-70780000D01*
X237731904Y-70827619D01*
X237779523Y-70922857D01*
X237779523Y-71065714D01*
X237731904Y-71160952D01*
X237684285Y-71208571D01*
X237589047Y-71256190D01*
X237208095Y-71256190D01*
X230279047Y-54121428D02*
X231040952Y-54121428D01*
X230660000Y-54502380D02*
X230660000Y-53740476D01*
X236180761Y-62126761D02*
X236323619Y-62174380D01*
X236561714Y-62174380D01*
X236656952Y-62126761D01*
X236704571Y-62079142D01*
X236752190Y-61983904D01*
X236752190Y-61888666D01*
X236704571Y-61793428D01*
X236656952Y-61745809D01*
X236561714Y-61698190D01*
X236371238Y-61650571D01*
X236276000Y-61602952D01*
X236228380Y-61555333D01*
X236180761Y-61460095D01*
X236180761Y-61364857D01*
X236228380Y-61269619D01*
X236276000Y-61222000D01*
X236371238Y-61174380D01*
X236609333Y-61174380D01*
X236752190Y-61222000D01*
X237752190Y-62079142D02*
X237704571Y-62126761D01*
X237561714Y-62174380D01*
X237466476Y-62174380D01*
X237323619Y-62126761D01*
X237228380Y-62031523D01*
X237180761Y-61936285D01*
X237133142Y-61745809D01*
X237133142Y-61602952D01*
X237180761Y-61412476D01*
X237228380Y-61317238D01*
X237323619Y-61222000D01*
X237466476Y-61174380D01*
X237561714Y-61174380D01*
X237704571Y-61222000D01*
X237752190Y-61269619D01*
X238656952Y-62174380D02*
X238180761Y-62174380D01*
X238180761Y-61174380D01*
X238990285Y-62174380D02*
X238990285Y-61174380D01*
X239561714Y-62174380D02*
X239133142Y-61602952D01*
X239561714Y-61174380D02*
X238990285Y-61745809D01*
X240704571Y-61126761D02*
X239847428Y-62412476D01*
X240990285Y-62126761D02*
X241133142Y-62174380D01*
X241371238Y-62174380D01*
X241466476Y-62126761D01*
X241514095Y-62079142D01*
X241561714Y-61983904D01*
X241561714Y-61888666D01*
X241514095Y-61793428D01*
X241466476Y-61745809D01*
X241371238Y-61698190D01*
X241180761Y-61650571D01*
X241085523Y-61602952D01*
X241037904Y-61555333D01*
X240990285Y-61460095D01*
X240990285Y-61364857D01*
X241037904Y-61269619D01*
X241085523Y-61222000D01*
X241180761Y-61174380D01*
X241418857Y-61174380D01*
X241561714Y-61222000D01*
X242561714Y-62079142D02*
X242514095Y-62126761D01*
X242371238Y-62174380D01*
X242276000Y-62174380D01*
X242133142Y-62126761D01*
X242037904Y-62031523D01*
X241990285Y-61936285D01*
X241942666Y-61745809D01*
X241942666Y-61602952D01*
X241990285Y-61412476D01*
X242037904Y-61317238D01*
X242133142Y-61222000D01*
X242276000Y-61174380D01*
X242371238Y-61174380D01*
X242514095Y-61222000D01*
X242561714Y-61269619D01*
X243466476Y-62174380D02*
X242990285Y-62174380D01*
X242990285Y-61174380D01*
D12*
X213607142Y-46567000D02*
X213892857Y-46567000D01*
X213550000Y-46738428D02*
X213750000Y-46138428D01*
X213950000Y-46738428D01*
X214150000Y-46738428D02*
X214150000Y-46138428D01*
X214350000Y-46567000D01*
X214550000Y-46138428D01*
X214550000Y-46738428D01*
X214807142Y-46709857D02*
X214892857Y-46738428D01*
X215035714Y-46738428D01*
X215092857Y-46709857D01*
X215121428Y-46681285D01*
X215150000Y-46624142D01*
X215150000Y-46567000D01*
X215121428Y-46509857D01*
X215092857Y-46481285D01*
X215035714Y-46452714D01*
X214921428Y-46424142D01*
X214864285Y-46395571D01*
X214835714Y-46367000D01*
X214807142Y-46309857D01*
X214807142Y-46252714D01*
X214835714Y-46195571D01*
X214864285Y-46167000D01*
X214921428Y-46138428D01*
X215064285Y-46138428D01*
X215150000Y-46167000D01*
X216178571Y-46738428D02*
X215835714Y-46738428D01*
X216007142Y-46738428D02*
X216007142Y-46138428D01*
X215950000Y-46224142D01*
X215892857Y-46281285D01*
X215835714Y-46309857D01*
X216750000Y-46738428D02*
X216407142Y-46738428D01*
X216578571Y-46738428D02*
X216578571Y-46138428D01*
X216521428Y-46224142D01*
X216464285Y-46281285D01*
X216407142Y-46309857D01*
X217321428Y-46738428D02*
X216978571Y-46738428D01*
X217150000Y-46738428D02*
X217150000Y-46138428D01*
X217092857Y-46224142D01*
X217035714Y-46281285D01*
X216978571Y-46309857D01*
X217521428Y-46138428D02*
X217921428Y-46138428D01*
X217664285Y-46738428D01*
X214807142Y-47475857D02*
X215264285Y-47475857D01*
X215835714Y-47104428D02*
X215550000Y-47104428D01*
X215521428Y-47390142D01*
X215550000Y-47361571D01*
X215607142Y-47333000D01*
X215750000Y-47333000D01*
X215807142Y-47361571D01*
X215835714Y-47390142D01*
X215864285Y-47447285D01*
X215864285Y-47590142D01*
X215835714Y-47647285D01*
X215807142Y-47675857D01*
X215750000Y-47704428D01*
X215607142Y-47704428D01*
X215550000Y-47675857D01*
X215521428Y-47647285D01*
X216121428Y-47647285D02*
X216150000Y-47675857D01*
X216121428Y-47704428D01*
X216092857Y-47675857D01*
X216121428Y-47647285D01*
X216121428Y-47704428D01*
X216521428Y-47104428D02*
X216578571Y-47104428D01*
X216635714Y-47133000D01*
X216664285Y-47161571D01*
X216692857Y-47218714D01*
X216721428Y-47333000D01*
X216721428Y-47475857D01*
X216692857Y-47590142D01*
X216664285Y-47647285D01*
X216635714Y-47675857D01*
X216578571Y-47704428D01*
X216521428Y-47704428D01*
X216464285Y-47675857D01*
X216435714Y-47647285D01*
X216407142Y-47590142D01*
X216378571Y-47475857D01*
X216378571Y-47333000D01*
X216407142Y-47218714D01*
X216435714Y-47161571D01*
X216464285Y-47133000D01*
X216521428Y-47104428D01*
D13*
X236982095Y-66048000D02*
X236886857Y-66000380D01*
X236744000Y-66000380D01*
X236601142Y-66048000D01*
X236505904Y-66143238D01*
X236458285Y-66238476D01*
X236410666Y-66428952D01*
X236410666Y-66571809D01*
X236458285Y-66762285D01*
X236505904Y-66857523D01*
X236601142Y-66952761D01*
X236744000Y-67000380D01*
X236839238Y-67000380D01*
X236982095Y-66952761D01*
X237029714Y-66905142D01*
X237029714Y-66571809D01*
X236839238Y-66571809D01*
X237458285Y-67000380D02*
X237458285Y-66000380D01*
X238029714Y-67000380D01*
X238029714Y-66000380D01*
X238505904Y-67000380D02*
X238505904Y-66000380D01*
X238744000Y-66000380D01*
X238886857Y-66048000D01*
X238982095Y-66143238D01*
X239029714Y-66238476D01*
X239077333Y-66428952D01*
X239077333Y-66571809D01*
X239029714Y-66762285D01*
X238982095Y-66857523D01*
X238886857Y-66952761D01*
X238744000Y-67000380D01*
X238505904Y-67000380D01*
X236942380Y-56586380D02*
X236609047Y-56110190D01*
X236370952Y-56586380D02*
X236370952Y-55586380D01*
X236751904Y-55586380D01*
X236847142Y-55634000D01*
X236894761Y-55681619D01*
X236942380Y-55776857D01*
X236942380Y-55919714D01*
X236894761Y-56014952D01*
X236847142Y-56062571D01*
X236751904Y-56110190D01*
X236370952Y-56110190D01*
X237323333Y-56538761D02*
X237466190Y-56586380D01*
X237704285Y-56586380D01*
X237799523Y-56538761D01*
X237847142Y-56491142D01*
X237894761Y-56395904D01*
X237894761Y-56300666D01*
X237847142Y-56205428D01*
X237799523Y-56157809D01*
X237704285Y-56110190D01*
X237513809Y-56062571D01*
X237418571Y-56014952D01*
X237370952Y-55967333D01*
X237323333Y-55872095D01*
X237323333Y-55776857D01*
X237370952Y-55681619D01*
X237418571Y-55634000D01*
X237513809Y-55586380D01*
X237751904Y-55586380D01*
X237894761Y-55634000D01*
X238180476Y-55586380D02*
X238751904Y-55586380D01*
X238466190Y-56586380D02*
X238466190Y-55586380D01*
X236394857Y-53300380D02*
X237013904Y-53300380D01*
X236680571Y-53681333D01*
X236823428Y-53681333D01*
X236918666Y-53728952D01*
X236966285Y-53776571D01*
X237013904Y-53871809D01*
X237013904Y-54109904D01*
X236966285Y-54205142D01*
X236918666Y-54252761D01*
X236823428Y-54300380D01*
X236537714Y-54300380D01*
X236442476Y-54252761D01*
X236394857Y-54205142D01*
X237442476Y-54205142D02*
X237490095Y-54252761D01*
X237442476Y-54300380D01*
X237394857Y-54252761D01*
X237442476Y-54205142D01*
X237442476Y-54300380D01*
X237823428Y-53300380D02*
X238442476Y-53300380D01*
X238109142Y-53681333D01*
X238252000Y-53681333D01*
X238347238Y-53728952D01*
X238394857Y-53776571D01*
X238442476Y-53871809D01*
X238442476Y-54109904D01*
X238394857Y-54205142D01*
X238347238Y-54252761D01*
X238252000Y-54300380D01*
X237966285Y-54300380D01*
X237871047Y-54252761D01*
X237823428Y-54205142D01*
X239490095Y-53300380D02*
X239823428Y-54300380D01*
X240156761Y-53300380D01*
%TO.C,C4*%
X222833333Y-58707142D02*
X222785714Y-58754761D01*
X222642857Y-58802380D01*
X222547619Y-58802380D01*
X222404761Y-58754761D01*
X222309523Y-58659523D01*
X222261904Y-58564285D01*
X222214285Y-58373809D01*
X222214285Y-58230952D01*
X222261904Y-58040476D01*
X222309523Y-57945238D01*
X222404761Y-57850000D01*
X222547619Y-57802380D01*
X222642857Y-57802380D01*
X222785714Y-57850000D01*
X222833333Y-57897619D01*
X223690476Y-58135714D02*
X223690476Y-58802380D01*
X223452380Y-57754761D02*
X223214285Y-58469047D01*
X223833333Y-58469047D01*
%TO.C,C5*%
X222133333Y-69907142D02*
X222085714Y-69954761D01*
X221942857Y-70002380D01*
X221847619Y-70002380D01*
X221704761Y-69954761D01*
X221609523Y-69859523D01*
X221561904Y-69764285D01*
X221514285Y-69573809D01*
X221514285Y-69430952D01*
X221561904Y-69240476D01*
X221609523Y-69145238D01*
X221704761Y-69050000D01*
X221847619Y-69002380D01*
X221942857Y-69002380D01*
X222085714Y-69050000D01*
X222133333Y-69097619D01*
X223038095Y-69002380D02*
X222561904Y-69002380D01*
X222514285Y-69478571D01*
X222561904Y-69430952D01*
X222657142Y-69383333D01*
X222895238Y-69383333D01*
X222990476Y-69430952D01*
X223038095Y-69478571D01*
X223085714Y-69573809D01*
X223085714Y-69811904D01*
X223038095Y-69907142D01*
X222990476Y-69954761D01*
X222895238Y-70002380D01*
X222657142Y-70002380D01*
X222561904Y-69954761D01*
X222514285Y-69907142D01*
%TO.C,C6*%
X207133333Y-62357142D02*
X207085714Y-62404761D01*
X206942857Y-62452380D01*
X206847619Y-62452380D01*
X206704761Y-62404761D01*
X206609523Y-62309523D01*
X206561904Y-62214285D01*
X206514285Y-62023809D01*
X206514285Y-61880952D01*
X206561904Y-61690476D01*
X206609523Y-61595238D01*
X206704761Y-61500000D01*
X206847619Y-61452380D01*
X206942857Y-61452380D01*
X207085714Y-61500000D01*
X207133333Y-61547619D01*
X207990476Y-61452380D02*
X207800000Y-61452380D01*
X207704761Y-61500000D01*
X207657142Y-61547619D01*
X207561904Y-61690476D01*
X207514285Y-61880952D01*
X207514285Y-62261904D01*
X207561904Y-62357142D01*
X207609523Y-62404761D01*
X207704761Y-62452380D01*
X207895238Y-62452380D01*
X207990476Y-62404761D01*
X208038095Y-62357142D01*
X208085714Y-62261904D01*
X208085714Y-62023809D01*
X208038095Y-61928571D01*
X207990476Y-61880952D01*
X207895238Y-61833333D01*
X207704761Y-61833333D01*
X207609523Y-61880952D01*
X207561904Y-61928571D01*
X207514285Y-62023809D01*
%TO.C,C7*%
X207133333Y-64907142D02*
X207085714Y-64954761D01*
X206942857Y-65002380D01*
X206847619Y-65002380D01*
X206704761Y-64954761D01*
X206609523Y-64859523D01*
X206561904Y-64764285D01*
X206514285Y-64573809D01*
X206514285Y-64430952D01*
X206561904Y-64240476D01*
X206609523Y-64145238D01*
X206704761Y-64050000D01*
X206847619Y-64002380D01*
X206942857Y-64002380D01*
X207085714Y-64050000D01*
X207133333Y-64097619D01*
X207466666Y-64002380D02*
X208133333Y-64002380D01*
X207704761Y-65002380D01*
%TO.C,C8*%
X216533333Y-58657142D02*
X216485714Y-58704761D01*
X216342857Y-58752380D01*
X216247619Y-58752380D01*
X216104761Y-58704761D01*
X216009523Y-58609523D01*
X215961904Y-58514285D01*
X215914285Y-58323809D01*
X215914285Y-58180952D01*
X215961904Y-57990476D01*
X216009523Y-57895238D01*
X216104761Y-57800000D01*
X216247619Y-57752380D01*
X216342857Y-57752380D01*
X216485714Y-57800000D01*
X216533333Y-57847619D01*
X217104761Y-58180952D02*
X217009523Y-58133333D01*
X216961904Y-58085714D01*
X216914285Y-57990476D01*
X216914285Y-57942857D01*
X216961904Y-57847619D01*
X217009523Y-57800000D01*
X217104761Y-57752380D01*
X217295238Y-57752380D01*
X217390476Y-57800000D01*
X217438095Y-57847619D01*
X217485714Y-57942857D01*
X217485714Y-57990476D01*
X217438095Y-58085714D01*
X217390476Y-58133333D01*
X217295238Y-58180952D01*
X217104761Y-58180952D01*
X217009523Y-58228571D01*
X216961904Y-58276190D01*
X216914285Y-58371428D01*
X216914285Y-58561904D01*
X216961904Y-58657142D01*
X217009523Y-58704761D01*
X217104761Y-58752380D01*
X217295238Y-58752380D01*
X217390476Y-58704761D01*
X217438095Y-58657142D01*
X217485714Y-58561904D01*
X217485714Y-58371428D01*
X217438095Y-58276190D01*
X217390476Y-58228571D01*
X217295238Y-58180952D01*
%TO.C,C9*%
X233057142Y-71616666D02*
X233104761Y-71664285D01*
X233152380Y-71807142D01*
X233152380Y-71902380D01*
X233104761Y-72045238D01*
X233009523Y-72140476D01*
X232914285Y-72188095D01*
X232723809Y-72235714D01*
X232580952Y-72235714D01*
X232390476Y-72188095D01*
X232295238Y-72140476D01*
X232200000Y-72045238D01*
X232152380Y-71902380D01*
X232152380Y-71807142D01*
X232200000Y-71664285D01*
X232247619Y-71616666D01*
X233152380Y-71140476D02*
X233152380Y-70950000D01*
X233104761Y-70854761D01*
X233057142Y-70807142D01*
X232914285Y-70711904D01*
X232723809Y-70664285D01*
X232342857Y-70664285D01*
X232247619Y-70711904D01*
X232200000Y-70759523D01*
X232152380Y-70854761D01*
X232152380Y-71045238D01*
X232200000Y-71140476D01*
X232247619Y-71188095D01*
X232342857Y-71235714D01*
X232580952Y-71235714D01*
X232676190Y-71188095D01*
X232723809Y-71140476D01*
X232771428Y-71045238D01*
X232771428Y-70854761D01*
X232723809Y-70759523D01*
X232676190Y-70711904D01*
X232580952Y-70664285D01*
%TO.C,C10*%
X233021142Y-76842857D02*
X233068761Y-76890476D01*
X233116380Y-77033333D01*
X233116380Y-77128571D01*
X233068761Y-77271428D01*
X232973523Y-77366666D01*
X232878285Y-77414285D01*
X232687809Y-77461904D01*
X232544952Y-77461904D01*
X232354476Y-77414285D01*
X232259238Y-77366666D01*
X232164000Y-77271428D01*
X232116380Y-77128571D01*
X232116380Y-77033333D01*
X232164000Y-76890476D01*
X232211619Y-76842857D01*
X233116380Y-75890476D02*
X233116380Y-76461904D01*
X233116380Y-76176190D02*
X232116380Y-76176190D01*
X232259238Y-76271428D01*
X232354476Y-76366666D01*
X232402095Y-76461904D01*
X232116380Y-75271428D02*
X232116380Y-75176190D01*
X232164000Y-75080952D01*
X232211619Y-75033333D01*
X232306857Y-74985714D01*
X232497333Y-74938095D01*
X232735428Y-74938095D01*
X232925904Y-74985714D01*
X233021142Y-75033333D01*
X233068761Y-75080952D01*
X233116380Y-75176190D01*
X233116380Y-75271428D01*
X233068761Y-75366666D01*
X233021142Y-75414285D01*
X232925904Y-75461904D01*
X232735428Y-75509523D01*
X232497333Y-75509523D01*
X232306857Y-75461904D01*
X232211619Y-75414285D01*
X232164000Y-75366666D01*
X232116380Y-75271428D01*
%TO.C,C11*%
X226457142Y-80057142D02*
X226409523Y-80104761D01*
X226266666Y-80152380D01*
X226171428Y-80152380D01*
X226028571Y-80104761D01*
X225933333Y-80009523D01*
X225885714Y-79914285D01*
X225838095Y-79723809D01*
X225838095Y-79580952D01*
X225885714Y-79390476D01*
X225933333Y-79295238D01*
X226028571Y-79200000D01*
X226171428Y-79152380D01*
X226266666Y-79152380D01*
X226409523Y-79200000D01*
X226457142Y-79247619D01*
X227409523Y-80152380D02*
X226838095Y-80152380D01*
X227123809Y-80152380D02*
X227123809Y-79152380D01*
X227028571Y-79295238D01*
X226933333Y-79390476D01*
X226838095Y-79438095D01*
X228361904Y-80152380D02*
X227790476Y-80152380D01*
X228076190Y-80152380D02*
X228076190Y-79152380D01*
X227980952Y-79295238D01*
X227885714Y-79390476D01*
X227790476Y-79438095D01*
%TO.C,C12*%
X226433142Y-69953142D02*
X226385523Y-70000761D01*
X226242666Y-70048380D01*
X226147428Y-70048380D01*
X226004571Y-70000761D01*
X225909333Y-69905523D01*
X225861714Y-69810285D01*
X225814095Y-69619809D01*
X225814095Y-69476952D01*
X225861714Y-69286476D01*
X225909333Y-69191238D01*
X226004571Y-69096000D01*
X226147428Y-69048380D01*
X226242666Y-69048380D01*
X226385523Y-69096000D01*
X226433142Y-69143619D01*
X227385523Y-70048380D02*
X226814095Y-70048380D01*
X227099809Y-70048380D02*
X227099809Y-69048380D01*
X227004571Y-69191238D01*
X226909333Y-69286476D01*
X226814095Y-69334095D01*
X227766476Y-69143619D02*
X227814095Y-69096000D01*
X227909333Y-69048380D01*
X228147428Y-69048380D01*
X228242666Y-69096000D01*
X228290285Y-69143619D01*
X228337904Y-69238857D01*
X228337904Y-69334095D01*
X228290285Y-69476952D01*
X227718857Y-70048380D01*
X228337904Y-70048380D01*
%TO.C,J2*%
X202016666Y-58302380D02*
X202016666Y-59016666D01*
X201969047Y-59159523D01*
X201873809Y-59254761D01*
X201730952Y-59302380D01*
X201635714Y-59302380D01*
X202445238Y-58397619D02*
X202492857Y-58350000D01*
X202588095Y-58302380D01*
X202826190Y-58302380D01*
X202921428Y-58350000D01*
X202969047Y-58397619D01*
X203016666Y-58492857D01*
X203016666Y-58588095D01*
X202969047Y-58730952D01*
X202397619Y-59302380D01*
X203016666Y-59302380D01*
%TO.C,J3*%
X201866666Y-63502380D02*
X201866666Y-64216666D01*
X201819047Y-64359523D01*
X201723809Y-64454761D01*
X201580952Y-64502380D01*
X201485714Y-64502380D01*
X202247619Y-63502380D02*
X202866666Y-63502380D01*
X202533333Y-63883333D01*
X202676190Y-63883333D01*
X202771428Y-63930952D01*
X202819047Y-63978571D01*
X202866666Y-64073809D01*
X202866666Y-64311904D01*
X202819047Y-64407142D01*
X202771428Y-64454761D01*
X202676190Y-64502380D01*
X202390476Y-64502380D01*
X202295238Y-64454761D01*
X202247619Y-64407142D01*
%TO.C,J4*%
X234366666Y-78602380D02*
X234366666Y-79316666D01*
X234319047Y-79459523D01*
X234223809Y-79554761D01*
X234080952Y-79602380D01*
X233985714Y-79602380D01*
X235271428Y-78935714D02*
X235271428Y-79602380D01*
X235033333Y-78554761D02*
X234795238Y-79269047D01*
X235414285Y-79269047D01*
%TO.C,J5*%
X231516666Y-50902380D02*
X231516666Y-51616666D01*
X231469047Y-51759523D01*
X231373809Y-51854761D01*
X231230952Y-51902380D01*
X231135714Y-51902380D01*
X232469047Y-50902380D02*
X231992857Y-50902380D01*
X231945238Y-51378571D01*
X231992857Y-51330952D01*
X232088095Y-51283333D01*
X232326190Y-51283333D01*
X232421428Y-51330952D01*
X232469047Y-51378571D01*
X232516666Y-51473809D01*
X232516666Y-51711904D01*
X232469047Y-51807142D01*
X232421428Y-51854761D01*
X232326190Y-51902380D01*
X232088095Y-51902380D01*
X231992857Y-51854761D01*
X231945238Y-51807142D01*
%TO.C,Y1*%
X217123809Y-72826190D02*
X217123809Y-73302380D01*
X216790476Y-72302380D02*
X217123809Y-72826190D01*
X217457142Y-72302380D01*
X218314285Y-73302380D02*
X217742857Y-73302380D01*
X218028571Y-73302380D02*
X218028571Y-72302380D01*
X217933333Y-72445238D01*
X217838095Y-72540476D01*
X217742857Y-72588095D01*
X211790476Y-75352380D02*
X212409523Y-75352380D01*
X212076190Y-75733333D01*
X212219047Y-75733333D01*
X212314285Y-75780952D01*
X212361904Y-75828571D01*
X212409523Y-75923809D01*
X212409523Y-76161904D01*
X212361904Y-76257142D01*
X212314285Y-76304761D01*
X212219047Y-76352380D01*
X211933333Y-76352380D01*
X211838095Y-76304761D01*
X211790476Y-76257142D01*
X212790476Y-75447619D02*
X212838095Y-75400000D01*
X212933333Y-75352380D01*
X213171428Y-75352380D01*
X213266666Y-75400000D01*
X213314285Y-75447619D01*
X213361904Y-75542857D01*
X213361904Y-75638095D01*
X213314285Y-75780952D01*
X212742857Y-76352380D01*
X213361904Y-76352380D01*
X213790476Y-76257142D02*
X213838095Y-76304761D01*
X213790476Y-76352380D01*
X213742857Y-76304761D01*
X213790476Y-76257142D01*
X213790476Y-76352380D01*
X214171428Y-75352380D02*
X214838095Y-75352380D01*
X214409523Y-76352380D01*
X215647619Y-75352380D02*
X215457142Y-75352380D01*
X215361904Y-75400000D01*
X215314285Y-75447619D01*
X215219047Y-75590476D01*
X215171428Y-75780952D01*
X215171428Y-76161904D01*
X215219047Y-76257142D01*
X215266666Y-76304761D01*
X215361904Y-76352380D01*
X215552380Y-76352380D01*
X215647619Y-76304761D01*
X215695238Y-76257142D01*
X215742857Y-76161904D01*
X215742857Y-75923809D01*
X215695238Y-75828571D01*
X215647619Y-75780952D01*
X215552380Y-75733333D01*
X215361904Y-75733333D01*
X215266666Y-75780952D01*
X215219047Y-75828571D01*
X215171428Y-75923809D01*
X216314285Y-75780952D02*
X216219047Y-75733333D01*
X216171428Y-75685714D01*
X216123809Y-75590476D01*
X216123809Y-75542857D01*
X216171428Y-75447619D01*
X216219047Y-75400000D01*
X216314285Y-75352380D01*
X216504761Y-75352380D01*
X216600000Y-75400000D01*
X216647619Y-75447619D01*
X216695238Y-75542857D01*
X216695238Y-75590476D01*
X216647619Y-75685714D01*
X216600000Y-75733333D01*
X216504761Y-75780952D01*
X216314285Y-75780952D01*
X216219047Y-75828571D01*
X216171428Y-75876190D01*
X216123809Y-75971428D01*
X216123809Y-76161904D01*
X216171428Y-76257142D01*
X216219047Y-76304761D01*
X216314285Y-76352380D01*
X216504761Y-76352380D01*
X216600000Y-76304761D01*
X216647619Y-76257142D01*
X216695238Y-76161904D01*
X216695238Y-75971428D01*
X216647619Y-75876190D01*
X216600000Y-75828571D01*
X216504761Y-75780952D01*
X217123809Y-76352380D02*
X217123809Y-75352380D01*
X217219047Y-75971428D02*
X217504761Y-76352380D01*
X217504761Y-75685714D02*
X217123809Y-76066666D01*
X217933333Y-76352380D02*
X217933333Y-75352380D01*
X217933333Y-75828571D02*
X218504761Y-75828571D01*
X218504761Y-76352380D02*
X218504761Y-75352380D01*
X218885714Y-75685714D02*
X219409523Y-75685714D01*
X218885714Y-76352380D01*
X219409523Y-76352380D01*
%TO.C,R11*%
X215457142Y-65582380D02*
X215123809Y-65106190D01*
X214885714Y-65582380D02*
X214885714Y-64582380D01*
X215266666Y-64582380D01*
X215361904Y-64630000D01*
X215409523Y-64677619D01*
X215457142Y-64772857D01*
X215457142Y-64915714D01*
X215409523Y-65010952D01*
X215361904Y-65058571D01*
X215266666Y-65106190D01*
X214885714Y-65106190D01*
X216409523Y-65582380D02*
X215838095Y-65582380D01*
X216123809Y-65582380D02*
X216123809Y-64582380D01*
X216028571Y-64725238D01*
X215933333Y-64820476D01*
X215838095Y-64868095D01*
X217361904Y-65582380D02*
X216790476Y-65582380D01*
X217076190Y-65582380D02*
X217076190Y-64582380D01*
X216980952Y-64725238D01*
X216885714Y-64820476D01*
X216790476Y-64868095D01*
%TO.C,D4*%
X203902380Y-51638095D02*
X202902380Y-51638095D01*
X202902380Y-51400000D01*
X202950000Y-51257142D01*
X203045238Y-51161904D01*
X203140476Y-51114285D01*
X203330952Y-51066666D01*
X203473809Y-51066666D01*
X203664285Y-51114285D01*
X203759523Y-51161904D01*
X203854761Y-51257142D01*
X203902380Y-51400000D01*
X203902380Y-51638095D01*
X203235714Y-50209523D02*
X203902380Y-50209523D01*
X202854761Y-50447619D02*
X203569047Y-50685714D01*
X203569047Y-50066666D01*
X206502380Y-56361904D02*
X205502380Y-56361904D01*
X206502380Y-55790476D02*
X205930952Y-56219047D01*
X205502380Y-55790476D02*
X206073809Y-56361904D01*
%TO.C,C14*%
X231357142Y-46157142D02*
X231309523Y-46204761D01*
X231166666Y-46252380D01*
X231071428Y-46252380D01*
X230928571Y-46204761D01*
X230833333Y-46109523D01*
X230785714Y-46014285D01*
X230738095Y-45823809D01*
X230738095Y-45680952D01*
X230785714Y-45490476D01*
X230833333Y-45395238D01*
X230928571Y-45300000D01*
X231071428Y-45252380D01*
X231166666Y-45252380D01*
X231309523Y-45300000D01*
X231357142Y-45347619D01*
X232309523Y-46252380D02*
X231738095Y-46252380D01*
X232023809Y-46252380D02*
X232023809Y-45252380D01*
X231928571Y-45395238D01*
X231833333Y-45490476D01*
X231738095Y-45538095D01*
X233166666Y-45585714D02*
X233166666Y-46252380D01*
X232928571Y-45204761D02*
X232690476Y-45919047D01*
X233309523Y-45919047D01*
%TO.C,L2*%
X207533333Y-58452380D02*
X207057142Y-58452380D01*
X207057142Y-57452380D01*
X207819047Y-57547619D02*
X207866666Y-57500000D01*
X207961904Y-57452380D01*
X208200000Y-57452380D01*
X208295238Y-57500000D01*
X208342857Y-57547619D01*
X208390476Y-57642857D01*
X208390476Y-57738095D01*
X208342857Y-57880952D01*
X207771428Y-58452380D01*
X208390476Y-58452380D01*
%TO.C,D1*%
X204202380Y-72538095D02*
X203202380Y-72538095D01*
X203202380Y-72300000D01*
X203250000Y-72157142D01*
X203345238Y-72061904D01*
X203440476Y-72014285D01*
X203630952Y-71966666D01*
X203773809Y-71966666D01*
X203964285Y-72014285D01*
X204059523Y-72061904D01*
X204154761Y-72157142D01*
X204202380Y-72300000D01*
X204202380Y-72538095D01*
X204202380Y-71014285D02*
X204202380Y-71585714D01*
X204202380Y-71300000D02*
X203202380Y-71300000D01*
X203345238Y-71395238D01*
X203440476Y-71490476D01*
X203488095Y-71585714D01*
X204302380Y-77461904D02*
X203302380Y-77461904D01*
X204302380Y-76890476D02*
X203730952Y-77319047D01*
X203302380Y-76890476D02*
X203873809Y-77461904D01*
%TO.C,C15*%
X237387142Y-46132255D02*
X237339523Y-46179874D01*
X237196666Y-46227493D01*
X237101428Y-46227493D01*
X236958571Y-46179874D01*
X236863333Y-46084636D01*
X236815714Y-45989398D01*
X236768095Y-45798922D01*
X236768095Y-45656065D01*
X236815714Y-45465589D01*
X236863333Y-45370351D01*
X236958571Y-45275113D01*
X237101428Y-45227493D01*
X237196666Y-45227493D01*
X237339523Y-45275113D01*
X237387142Y-45322732D01*
X238339523Y-46227493D02*
X237768095Y-46227493D01*
X238053809Y-46227493D02*
X238053809Y-45227493D01*
X237958571Y-45370351D01*
X237863333Y-45465589D01*
X237768095Y-45513208D01*
X239244285Y-45227493D02*
X238768095Y-45227493D01*
X238720476Y-45703684D01*
X238768095Y-45656065D01*
X238863333Y-45608446D01*
X239101428Y-45608446D01*
X239196666Y-45656065D01*
X239244285Y-45703684D01*
X239291904Y-45798922D01*
X239291904Y-46037017D01*
X239244285Y-46132255D01*
X239196666Y-46179874D01*
X239101428Y-46227493D01*
X238863333Y-46227493D01*
X238768095Y-46179874D01*
X238720476Y-46132255D01*
%TO.C,U1*%
X219838095Y-48102380D02*
X219838095Y-48911904D01*
X219885714Y-49007142D01*
X219933333Y-49054761D01*
X220028571Y-49102380D01*
X220219047Y-49102380D01*
X220314285Y-49054761D01*
X220361904Y-49007142D01*
X220409523Y-48911904D01*
X220409523Y-48102380D01*
X221409523Y-49102380D02*
X220838095Y-49102380D01*
X221123809Y-49102380D02*
X221123809Y-48102380D01*
X221028571Y-48245238D01*
X220933333Y-48340476D01*
X220838095Y-48388095D01*
%TO.C,D3*%
X205972380Y-51448095D02*
X204972380Y-51448095D01*
X204972380Y-51210000D01*
X205020000Y-51067142D01*
X205115238Y-50971904D01*
X205210476Y-50924285D01*
X205400952Y-50876666D01*
X205543809Y-50876666D01*
X205734285Y-50924285D01*
X205829523Y-50971904D01*
X205924761Y-51067142D01*
X205972380Y-51210000D01*
X205972380Y-51448095D01*
X204972380Y-50543333D02*
X204972380Y-49924285D01*
X205353333Y-50257619D01*
X205353333Y-50114761D01*
X205400952Y-50019523D01*
X205448571Y-49971904D01*
X205543809Y-49924285D01*
X205781904Y-49924285D01*
X205877142Y-49971904D01*
X205924761Y-50019523D01*
X205972380Y-50114761D01*
X205972380Y-50400476D01*
X205924761Y-50495714D01*
X205877142Y-50543333D01*
X203852380Y-45661904D02*
X202852380Y-45661904D01*
X203852380Y-45090476D02*
X203280952Y-45519047D01*
X202852380Y-45090476D02*
X203423809Y-45661904D01*
%TO.C,L1*%
X198333333Y-61802380D02*
X197857142Y-61802380D01*
X197857142Y-60802380D01*
X199190476Y-61802380D02*
X198619047Y-61802380D01*
X198904761Y-61802380D02*
X198904761Y-60802380D01*
X198809523Y-60945238D01*
X198714285Y-61040476D01*
X198619047Y-61088095D01*
%TO.C,U3*%
X210238095Y-48052380D02*
X210238095Y-48861904D01*
X210285714Y-48957142D01*
X210333333Y-49004761D01*
X210428571Y-49052380D01*
X210619047Y-49052380D01*
X210714285Y-49004761D01*
X210761904Y-48957142D01*
X210809523Y-48861904D01*
X210809523Y-48052380D01*
X211190476Y-48052380D02*
X211809523Y-48052380D01*
X211476190Y-48433333D01*
X211619047Y-48433333D01*
X211714285Y-48480952D01*
X211761904Y-48528571D01*
X211809523Y-48623809D01*
X211809523Y-48861904D01*
X211761904Y-48957142D01*
X211714285Y-49004761D01*
X211619047Y-49052380D01*
X211333333Y-49052380D01*
X211238095Y-49004761D01*
X211190476Y-48957142D01*
%TO.C,J6*%
X237366666Y-51052380D02*
X237366666Y-51766666D01*
X237319047Y-51909523D01*
X237223809Y-52004761D01*
X237080952Y-52052380D01*
X236985714Y-52052380D01*
X238271428Y-51052380D02*
X238080952Y-51052380D01*
X237985714Y-51100000D01*
X237938095Y-51147619D01*
X237842857Y-51290476D01*
X237795238Y-51480952D01*
X237795238Y-51861904D01*
X237842857Y-51957142D01*
X237890476Y-52004761D01*
X237985714Y-52052380D01*
X238176190Y-52052380D01*
X238271428Y-52004761D01*
X238319047Y-51957142D01*
X238366666Y-51861904D01*
X238366666Y-51623809D01*
X238319047Y-51528571D01*
X238271428Y-51480952D01*
X238176190Y-51433333D01*
X237985714Y-51433333D01*
X237890476Y-51480952D01*
X237842857Y-51528571D01*
X237795238Y-51623809D01*
%TO.C,D2*%
X206852380Y-72638095D02*
X205852380Y-72638095D01*
X205852380Y-72400000D01*
X205900000Y-72257142D01*
X205995238Y-72161904D01*
X206090476Y-72114285D01*
X206280952Y-72066666D01*
X206423809Y-72066666D01*
X206614285Y-72114285D01*
X206709523Y-72161904D01*
X206804761Y-72257142D01*
X206852380Y-72400000D01*
X206852380Y-72638095D01*
X205947619Y-71685714D02*
X205900000Y-71638095D01*
X205852380Y-71542857D01*
X205852380Y-71304761D01*
X205900000Y-71209523D01*
X205947619Y-71161904D01*
X206042857Y-71114285D01*
X206138095Y-71114285D01*
X206280952Y-71161904D01*
X206852380Y-71733333D01*
X206852380Y-71114285D01*
X206902380Y-66711904D02*
X205902380Y-66711904D01*
X206902380Y-66140476D02*
X206330952Y-66569047D01*
X205902380Y-66140476D02*
X206473809Y-66711904D01*
D10*
%TO.C,C4*%
X218269000Y-59810000D02*
X218269000Y-58728000D01*
X219670000Y-63429000D02*
X219670000Y-61890000D01*
X218429000Y-63074000D02*
X218429000Y-61890000D01*
X219470000Y-63415000D02*
X219470000Y-61890000D01*
X219750000Y-59810000D02*
X219750000Y-58270000D01*
X218949000Y-59810000D02*
X218949000Y-58395000D01*
X218629000Y-63179000D02*
X218629000Y-61890000D01*
X219670000Y-59810000D02*
X219670000Y-58271000D01*
X217829000Y-62593000D02*
X217829000Y-61890000D01*
X219430000Y-63411000D02*
X219430000Y-61890000D01*
X218869000Y-59810000D02*
X218869000Y-58422000D01*
X217269000Y-61655000D02*
X217269000Y-60045000D01*
X219150000Y-59810000D02*
X219150000Y-58339000D01*
X219230000Y-63378000D02*
X219230000Y-61890000D01*
X217309000Y-61765000D02*
X217309000Y-59935000D01*
X218429000Y-59810000D02*
X218429000Y-58626000D01*
X219350000Y-63400000D02*
X219350000Y-61890000D01*
X218989000Y-59810000D02*
X218989000Y-58382000D01*
X219310000Y-63393000D02*
X219310000Y-61890000D01*
X218669000Y-59810000D02*
X218669000Y-58502000D01*
X217349000Y-61861000D02*
X217349000Y-59839000D01*
X218589000Y-63160000D02*
X218589000Y-61890000D01*
X222304775Y-62575000D02*
X222304775Y-62075000D01*
X217229000Y-61527000D02*
X217229000Y-60173000D01*
X218789000Y-59810000D02*
X218789000Y-58452000D01*
X218589000Y-59810000D02*
X218589000Y-58540000D01*
X218629000Y-59810000D02*
X218629000Y-58521000D01*
X217789000Y-62549000D02*
X217789000Y-61890000D01*
X217149000Y-61134000D02*
X217149000Y-60566000D01*
X217669000Y-62404000D02*
X217669000Y-59296000D01*
X218709000Y-63215000D02*
X218709000Y-61890000D01*
X219270000Y-59810000D02*
X219270000Y-58314000D01*
X219350000Y-59810000D02*
X219350000Y-58300000D01*
X218029000Y-59810000D02*
X218029000Y-58913000D01*
X217829000Y-59810000D02*
X217829000Y-59107000D01*
X219310000Y-59810000D02*
X219310000Y-58307000D01*
X218229000Y-62945000D02*
X218229000Y-61890000D01*
X219110000Y-59810000D02*
X219110000Y-58349000D01*
X217989000Y-59810000D02*
X217989000Y-58949000D01*
X219190000Y-63370000D02*
X219190000Y-61890000D01*
X218509000Y-59810000D02*
X218509000Y-58582000D01*
X217469000Y-62101000D02*
X217469000Y-59599000D01*
X218989000Y-63318000D02*
X218989000Y-61890000D01*
X218469000Y-59810000D02*
X218469000Y-58603000D01*
X217629000Y-62350000D02*
X217629000Y-59350000D01*
X217749000Y-62503000D02*
X217749000Y-61890000D01*
X218149000Y-62885000D02*
X218149000Y-61890000D01*
X218469000Y-63097000D02*
X218469000Y-61890000D01*
X218149000Y-59810000D02*
X218149000Y-58815000D01*
X217589000Y-62293000D02*
X217589000Y-59407000D01*
X218229000Y-59810000D02*
X218229000Y-58755000D01*
X217909000Y-62676000D02*
X217909000Y-61890000D01*
X218829000Y-63264000D02*
X218829000Y-61890000D01*
X218109000Y-62854000D02*
X218109000Y-61890000D01*
X219390000Y-63406000D02*
X219390000Y-61890000D01*
X218829000Y-59810000D02*
X218829000Y-58436000D01*
X219029000Y-59810000D02*
X219029000Y-58370000D01*
X218669000Y-63198000D02*
X218669000Y-61890000D01*
X218389000Y-59810000D02*
X218389000Y-58650000D01*
X219390000Y-59810000D02*
X219390000Y-58294000D01*
X218749000Y-63232000D02*
X218749000Y-61890000D01*
X217189000Y-61368000D02*
X217189000Y-60332000D01*
X219710000Y-59810000D02*
X219710000Y-58270000D01*
X219550000Y-59810000D02*
X219550000Y-58277000D01*
X219230000Y-59810000D02*
X219230000Y-58322000D01*
X217389000Y-61948000D02*
X217389000Y-59752000D01*
X219190000Y-59810000D02*
X219190000Y-58330000D01*
X219430000Y-59810000D02*
X219430000Y-58289000D01*
X218909000Y-59810000D02*
X218909000Y-58408000D01*
X219510000Y-63419000D02*
X219510000Y-61890000D01*
X218549000Y-63140000D02*
X218549000Y-61890000D01*
X217749000Y-59810000D02*
X217749000Y-59197000D01*
X218789000Y-63248000D02*
X218789000Y-61890000D01*
X218549000Y-59810000D02*
X218549000Y-58560000D01*
X217509000Y-62169000D02*
X217509000Y-59531000D01*
X218109000Y-59810000D02*
X218109000Y-58846000D01*
X218069000Y-59810000D02*
X218069000Y-58879000D01*
X218189000Y-59810000D02*
X218189000Y-58785000D01*
X218189000Y-62915000D02*
X218189000Y-61890000D01*
X218749000Y-59810000D02*
X218749000Y-58468000D01*
X218389000Y-63050000D02*
X218389000Y-61890000D01*
X218509000Y-63118000D02*
X218509000Y-61890000D01*
X218949000Y-63305000D02*
X218949000Y-61890000D01*
X219550000Y-63423000D02*
X219550000Y-61890000D01*
X217909000Y-59810000D02*
X217909000Y-59024000D01*
X219150000Y-63361000D02*
X219150000Y-61890000D01*
X218069000Y-62821000D02*
X218069000Y-61890000D01*
X219510000Y-59810000D02*
X219510000Y-58281000D01*
X217549000Y-62233000D02*
X217549000Y-59467000D01*
X219630000Y-63428000D02*
X219630000Y-61890000D01*
X217989000Y-62751000D02*
X217989000Y-61890000D01*
X217869000Y-59810000D02*
X217869000Y-59065000D01*
X218029000Y-62787000D02*
X218029000Y-61890000D01*
X219029000Y-63330000D02*
X219029000Y-61890000D01*
X218349000Y-63025000D02*
X218349000Y-61890000D01*
X219710000Y-63430000D02*
X219710000Y-61890000D01*
X217789000Y-59810000D02*
X217789000Y-59151000D01*
X217709000Y-62455000D02*
X217709000Y-59245000D01*
X219070000Y-63341000D02*
X219070000Y-61890000D01*
X217869000Y-62635000D02*
X217869000Y-61890000D01*
X217949000Y-62714000D02*
X217949000Y-61890000D01*
X218309000Y-59810000D02*
X218309000Y-58701000D01*
X219070000Y-59810000D02*
X219070000Y-58359000D01*
X218709000Y-59810000D02*
X218709000Y-58485000D01*
X219470000Y-59810000D02*
X219470000Y-58285000D01*
X219270000Y-63386000D02*
X219270000Y-61890000D01*
X219110000Y-63351000D02*
X219110000Y-61890000D01*
X218869000Y-63278000D02*
X218869000Y-61890000D01*
X218909000Y-63292000D02*
X218909000Y-61890000D01*
X217429000Y-62028000D02*
X217429000Y-59672000D01*
X218269000Y-62972000D02*
X218269000Y-61890000D01*
X219590000Y-63426000D02*
X219590000Y-61890000D01*
X218309000Y-62999000D02*
X218309000Y-61890000D01*
X217949000Y-59810000D02*
X217949000Y-58986000D01*
X219590000Y-59810000D02*
X219590000Y-58274000D01*
X218349000Y-59810000D02*
X218349000Y-58675000D01*
X219750000Y-63430000D02*
X219750000Y-61890000D01*
X222554775Y-62325000D02*
X222054775Y-62325000D01*
X219630000Y-59810000D02*
X219630000Y-58272000D01*
X222370000Y-60850000D02*
G75*
G03*
X222370000Y-60850000I-2620000J0D01*
G01*
%TO.C,C5*%
X222829000Y-72070000D02*
X221571000Y-72070000D01*
X222829000Y-70230000D02*
X221571000Y-70230000D01*
%TO.C,C6*%
X209670000Y-63055000D02*
X209670000Y-63070000D01*
X205130000Y-63070000D02*
X209670000Y-63070000D01*
X205130000Y-60930000D02*
X209670000Y-60930000D01*
X205130000Y-60930000D02*
X205130000Y-60945000D01*
X209670000Y-60930000D02*
X209670000Y-60945000D01*
X205130000Y-63055000D02*
X205130000Y-63070000D01*
%TO.C,C7*%
X205130000Y-63580000D02*
X205130000Y-63595000D01*
X205130000Y-63580000D02*
X209670000Y-63580000D01*
X209670000Y-63580000D02*
X209670000Y-63595000D01*
X205130000Y-65705000D02*
X205130000Y-65720000D01*
X209670000Y-65705000D02*
X209670000Y-65720000D01*
X205130000Y-65720000D02*
X209670000Y-65720000D01*
%TO.C,C8*%
X213640000Y-59660000D02*
X213640000Y-58144000D01*
X212679000Y-62924000D02*
X212679000Y-61740000D01*
X212959000Y-63065000D02*
X212959000Y-61740000D01*
X212839000Y-63010000D02*
X212839000Y-61740000D01*
X211519000Y-61505000D02*
X211519000Y-59895000D01*
X212319000Y-59660000D02*
X212319000Y-58729000D01*
X211399000Y-60984000D02*
X211399000Y-60416000D01*
X213960000Y-59660000D02*
X213960000Y-58120000D01*
X212359000Y-62704000D02*
X212359000Y-61740000D01*
X212319000Y-62671000D02*
X212319000Y-61740000D01*
X213520000Y-63236000D02*
X213520000Y-61740000D01*
X213640000Y-63256000D02*
X213640000Y-61740000D01*
X212559000Y-59660000D02*
X212559000Y-58551000D01*
X213320000Y-59660000D02*
X213320000Y-58209000D01*
X213480000Y-63228000D02*
X213480000Y-61740000D01*
X212159000Y-59660000D02*
X212159000Y-58874000D01*
X212279000Y-59660000D02*
X212279000Y-58763000D01*
X213960000Y-63280000D02*
X213960000Y-61740000D01*
X211439000Y-61218000D02*
X211439000Y-60182000D01*
X213039000Y-59660000D02*
X213039000Y-58302000D01*
X211959000Y-62305000D02*
X211959000Y-59095000D01*
X212079000Y-59660000D02*
X212079000Y-58957000D01*
X213880000Y-63278000D02*
X213880000Y-61740000D01*
X211879000Y-62200000D02*
X211879000Y-59200000D01*
X211999000Y-62353000D02*
X211999000Y-61740000D01*
X212759000Y-59660000D02*
X212759000Y-58432000D01*
X213760000Y-59660000D02*
X213760000Y-58131000D01*
X216554775Y-62425000D02*
X216554775Y-61925000D01*
X213600000Y-59660000D02*
X213600000Y-58150000D01*
X212479000Y-59660000D02*
X212479000Y-58605000D01*
X213720000Y-63265000D02*
X213720000Y-61740000D01*
X212879000Y-63029000D02*
X212879000Y-61740000D01*
X212039000Y-59660000D02*
X212039000Y-59001000D01*
X212919000Y-63048000D02*
X212919000Y-61740000D01*
X213920000Y-63279000D02*
X213920000Y-61740000D01*
X212159000Y-62526000D02*
X212159000Y-61740000D01*
X213039000Y-63098000D02*
X213039000Y-61740000D01*
X212239000Y-62601000D02*
X212239000Y-61740000D01*
X213360000Y-63201000D02*
X213360000Y-61740000D01*
X213119000Y-63128000D02*
X213119000Y-61740000D01*
X212639000Y-59660000D02*
X212639000Y-58500000D01*
X211599000Y-61711000D02*
X211599000Y-59689000D01*
X213800000Y-63273000D02*
X213800000Y-61740000D01*
X213079000Y-59660000D02*
X213079000Y-58286000D01*
X213320000Y-63191000D02*
X213320000Y-61740000D01*
X213279000Y-63180000D02*
X213279000Y-61740000D01*
X213239000Y-63168000D02*
X213239000Y-61740000D01*
X214000000Y-63280000D02*
X214000000Y-61740000D01*
X213680000Y-63261000D02*
X213680000Y-61740000D01*
X212959000Y-59660000D02*
X212959000Y-58335000D01*
X211839000Y-62143000D02*
X211839000Y-59257000D01*
X212719000Y-59660000D02*
X212719000Y-58453000D01*
X212599000Y-59660000D02*
X212599000Y-58525000D01*
X212439000Y-59660000D02*
X212439000Y-58635000D01*
X211559000Y-61615000D02*
X211559000Y-59785000D01*
X212559000Y-62849000D02*
X212559000Y-61740000D01*
X211639000Y-61798000D02*
X211639000Y-59602000D01*
X213600000Y-63250000D02*
X213600000Y-61740000D01*
X212799000Y-59660000D02*
X212799000Y-58410000D01*
X213360000Y-59660000D02*
X213360000Y-58199000D01*
X212479000Y-62795000D02*
X212479000Y-61740000D01*
X212759000Y-62968000D02*
X212759000Y-61740000D01*
X211679000Y-61878000D02*
X211679000Y-59522000D01*
X214000000Y-59660000D02*
X214000000Y-58120000D01*
X212519000Y-62822000D02*
X212519000Y-61740000D01*
X212119000Y-62485000D02*
X212119000Y-61740000D01*
X211919000Y-62254000D02*
X211919000Y-59146000D01*
X213159000Y-59660000D02*
X213159000Y-58258000D01*
X213480000Y-59660000D02*
X213480000Y-58172000D01*
X213560000Y-59660000D02*
X213560000Y-58157000D01*
X213680000Y-59660000D02*
X213680000Y-58139000D01*
X212359000Y-59660000D02*
X212359000Y-58696000D01*
X212399000Y-62735000D02*
X212399000Y-61740000D01*
X213400000Y-59660000D02*
X213400000Y-58189000D01*
X212039000Y-62399000D02*
X212039000Y-61740000D01*
X212519000Y-59660000D02*
X212519000Y-58578000D01*
X211999000Y-59660000D02*
X211999000Y-59047000D01*
X213159000Y-63142000D02*
X213159000Y-61740000D01*
X213720000Y-59660000D02*
X213720000Y-58135000D01*
X213760000Y-63269000D02*
X213760000Y-61740000D01*
X213920000Y-59660000D02*
X213920000Y-58121000D01*
X212199000Y-59660000D02*
X212199000Y-58836000D01*
X213520000Y-59660000D02*
X213520000Y-58164000D01*
X212799000Y-62990000D02*
X212799000Y-61740000D01*
X212639000Y-62900000D02*
X212639000Y-61740000D01*
X212119000Y-59660000D02*
X212119000Y-58915000D01*
X211719000Y-61951000D02*
X211719000Y-59449000D01*
X212399000Y-59660000D02*
X212399000Y-58665000D01*
X212439000Y-62765000D02*
X212439000Y-61740000D01*
X213199000Y-63155000D02*
X213199000Y-61740000D01*
X212239000Y-59660000D02*
X212239000Y-58799000D01*
X213840000Y-63276000D02*
X213840000Y-61740000D01*
X212079000Y-62443000D02*
X212079000Y-61740000D01*
X213400000Y-63211000D02*
X213400000Y-61740000D01*
X212679000Y-59660000D02*
X212679000Y-58476000D01*
X213440000Y-59660000D02*
X213440000Y-58180000D01*
X212279000Y-62637000D02*
X212279000Y-61740000D01*
X212839000Y-59660000D02*
X212839000Y-58390000D01*
X212999000Y-59660000D02*
X212999000Y-58318000D01*
X213239000Y-59660000D02*
X213239000Y-58232000D01*
X213840000Y-59660000D02*
X213840000Y-58124000D01*
X213279000Y-59660000D02*
X213279000Y-58220000D01*
X211479000Y-61377000D02*
X211479000Y-60023000D01*
X213079000Y-63114000D02*
X213079000Y-61740000D01*
X216804775Y-62175000D02*
X216304775Y-62175000D01*
X212879000Y-59660000D02*
X212879000Y-58371000D01*
X213560000Y-63243000D02*
X213560000Y-61740000D01*
X213880000Y-59660000D02*
X213880000Y-58122000D01*
X212919000Y-59660000D02*
X212919000Y-58352000D01*
X212719000Y-62947000D02*
X212719000Y-61740000D01*
X213119000Y-59660000D02*
X213119000Y-58272000D01*
X213800000Y-59660000D02*
X213800000Y-58127000D01*
X212199000Y-62564000D02*
X212199000Y-61740000D01*
X212599000Y-62875000D02*
X212599000Y-61740000D01*
X212999000Y-63082000D02*
X212999000Y-61740000D01*
X211759000Y-62019000D02*
X211759000Y-59381000D01*
X211799000Y-62083000D02*
X211799000Y-59317000D01*
X213199000Y-59660000D02*
X213199000Y-58245000D01*
X213440000Y-63220000D02*
X213440000Y-61740000D01*
X216620000Y-60700000D02*
G75*
G03*
X216620000Y-60700000I-2620000J0D01*
G01*
%TO.C,C9*%
X229875000Y-69630000D02*
X229630000Y-69630000D01*
X231970000Y-73270000D02*
X231725000Y-73270000D01*
X231970000Y-69630000D02*
X231725000Y-69630000D01*
X229630000Y-69630000D02*
X229630000Y-73270000D01*
X229875000Y-73270000D02*
X229630000Y-73270000D01*
X231970000Y-69630000D02*
X231970000Y-73270000D01*
%TO.C,C10*%
X229630000Y-74330000D02*
X229875000Y-74330000D01*
X231725000Y-77970000D02*
X231970000Y-77970000D01*
X229630000Y-77970000D02*
X229875000Y-77970000D01*
X229630000Y-77970000D02*
X229630000Y-74330000D01*
X231970000Y-77970000D02*
X231970000Y-74330000D01*
X231725000Y-74330000D02*
X231970000Y-74330000D01*
%TO.C,C11*%
X228770000Y-76775000D02*
X228770000Y-76530000D01*
X228770000Y-78870000D02*
X225130000Y-78870000D01*
X225130000Y-76775000D02*
X225130000Y-76530000D01*
X228770000Y-78870000D02*
X228770000Y-78625000D01*
X225130000Y-78870000D02*
X225130000Y-78625000D01*
X228770000Y-76530000D02*
X225130000Y-76530000D01*
%TO.C,C12*%
X228870000Y-70130000D02*
X225230000Y-70130000D01*
X225230000Y-70375000D02*
X225230000Y-70130000D01*
X225230000Y-72470000D02*
X225230000Y-72225000D01*
X228870000Y-72470000D02*
X225230000Y-72470000D01*
X228870000Y-70375000D02*
X228870000Y-70130000D01*
X228870000Y-72470000D02*
X228870000Y-72225000D01*
%TO.C,J2*%
X198760000Y-57940000D02*
X198260000Y-57440000D01*
X194160000Y-57940000D02*
X202360000Y-57940000D01*
X194160000Y-49740000D02*
X202360000Y-49740000D01*
X202360000Y-57940000D02*
X202360000Y-49740000D01*
X194160000Y-57940000D02*
X194160000Y-49740000D01*
X198260000Y-57440000D02*
X197760000Y-57940000D01*
D14*
X193760000Y-49540000D02*
X193760000Y-58140000D01*
D10*
%TO.C,J3*%
X202360000Y-73120000D02*
X202360000Y-64920000D01*
X198760000Y-73120000D02*
X198260000Y-72620000D01*
X194160000Y-64920000D02*
X202360000Y-64920000D01*
X194160000Y-73120000D02*
X202360000Y-73120000D01*
X194160000Y-73120000D02*
X194160000Y-64920000D01*
X198260000Y-72620000D02*
X197760000Y-73120000D01*
D14*
X193760000Y-64720000D02*
X193760000Y-73320000D01*
D10*
%TO.C,J4*%
X236030000Y-75110000D02*
X236030000Y-69970000D01*
X233370000Y-75110000D02*
X233370000Y-69970000D01*
X236030000Y-69970000D02*
X233370000Y-69970000D01*
X234700000Y-77710000D02*
X233370000Y-77710000D01*
X233370000Y-77710000D02*
X233370000Y-76380000D01*
X236030000Y-75110000D02*
X233370000Y-75110000D01*
%TO.C,J5*%
X230630000Y-52605000D02*
X227970000Y-52605000D01*
X227970000Y-55205000D02*
X227970000Y-52605000D01*
X230630000Y-57805000D02*
X229300000Y-57805000D01*
X230630000Y-56475000D02*
X230630000Y-57805000D01*
X230630000Y-55205000D02*
X227970000Y-55205000D01*
X230630000Y-55205000D02*
X230630000Y-52605000D01*
%TO.C,Y1*%
X212950000Y-73000000D02*
G75*
G03*
X216350000Y-73000000I1700000J0D01*
G01*
X216350000Y-73000000D02*
G75*
G03*
X212950000Y-73000000I-1700000J0D01*
G01*
%TO.C,R11*%
X210790000Y-67850000D02*
X211480000Y-67850000D01*
X211480000Y-69570000D02*
X220720000Y-69570000D01*
X211480000Y-66130000D02*
X211480000Y-69570000D01*
X220720000Y-69570000D02*
X220720000Y-66130000D01*
X221410000Y-67850000D02*
X220720000Y-67850000D01*
X220720000Y-66130000D02*
X211480000Y-66130000D01*
%TO.C,D4*%
X204830000Y-52240000D02*
X207070000Y-52240000D01*
X207070000Y-48600000D02*
X204830000Y-48600000D01*
X205950000Y-47950000D02*
X205950000Y-48600000D01*
X205950000Y-53490000D02*
X205950000Y-52840000D01*
X207070000Y-52840000D02*
X207070000Y-48600000D01*
X204830000Y-52120000D02*
X207070000Y-52120000D01*
X204830000Y-52840000D02*
X207070000Y-52840000D01*
X204830000Y-48600000D02*
X204830000Y-52840000D01*
X204830000Y-52000000D02*
X207070000Y-52000000D01*
%TO.C,C14*%
X231731000Y-47349000D02*
X231731000Y-49851000D01*
X230491000Y-49640000D02*
X230491000Y-50965000D01*
X231651000Y-47217000D02*
X231651000Y-49983000D01*
X230211000Y-46132000D02*
X230211000Y-47560000D01*
X230611000Y-46290000D02*
X230611000Y-47560000D01*
X231611000Y-47157000D02*
X231611000Y-50043000D01*
X229770000Y-49640000D02*
X229770000Y-51161000D01*
X229930000Y-49640000D02*
X229930000Y-51136000D01*
X230491000Y-46235000D02*
X230491000Y-47560000D01*
X232051000Y-48316000D02*
X232051000Y-48884000D01*
X231451000Y-49640000D02*
X231451000Y-50253000D01*
X229610000Y-49640000D02*
X229610000Y-51176000D01*
X231411000Y-46901000D02*
X231411000Y-47560000D01*
X230331000Y-46172000D02*
X230331000Y-47560000D01*
X229850000Y-49640000D02*
X229850000Y-51150000D01*
X232011000Y-48082000D02*
X232011000Y-49118000D01*
X229530000Y-49640000D02*
X229530000Y-51179000D01*
X231091000Y-46596000D02*
X231091000Y-47560000D01*
X230891000Y-49640000D02*
X230891000Y-50749000D01*
X230010000Y-46080000D02*
X230010000Y-47560000D01*
X230691000Y-49640000D02*
X230691000Y-50868000D01*
X230010000Y-49640000D02*
X230010000Y-51120000D01*
X231251000Y-46736000D02*
X231251000Y-47560000D01*
X230050000Y-49640000D02*
X230050000Y-51111000D01*
X230531000Y-46252000D02*
X230531000Y-47560000D01*
X231131000Y-49640000D02*
X231131000Y-50571000D01*
X231211000Y-46699000D02*
X231211000Y-47560000D01*
X230851000Y-49640000D02*
X230851000Y-50775000D01*
X230331000Y-49640000D02*
X230331000Y-51028000D01*
X231691000Y-47281000D02*
X231691000Y-49919000D01*
X231331000Y-49640000D02*
X231331000Y-50385000D01*
X231171000Y-49640000D02*
X231171000Y-50537000D01*
X229650000Y-49640000D02*
X229650000Y-51173000D01*
X229690000Y-46031000D02*
X229690000Y-47560000D01*
X230451000Y-49640000D02*
X230451000Y-50982000D01*
X229490000Y-46020000D02*
X229490000Y-47560000D01*
X230171000Y-46120000D02*
X230171000Y-47560000D01*
X229850000Y-46050000D02*
X229850000Y-47560000D01*
X229530000Y-46021000D02*
X229530000Y-47560000D01*
X230811000Y-49640000D02*
X230811000Y-50800000D01*
X229730000Y-49640000D02*
X229730000Y-51165000D01*
X230531000Y-49640000D02*
X230531000Y-50948000D01*
X231571000Y-47100000D02*
X231571000Y-50100000D01*
X229810000Y-46044000D02*
X229810000Y-47560000D01*
X230371000Y-49640000D02*
X230371000Y-51014000D01*
X230931000Y-49640000D02*
X230931000Y-50722000D01*
X231051000Y-46565000D02*
X231051000Y-47560000D01*
X229690000Y-49640000D02*
X229690000Y-51169000D01*
X231451000Y-46947000D02*
X231451000Y-47560000D01*
X231291000Y-49640000D02*
X231291000Y-50426000D01*
X230130000Y-49640000D02*
X230130000Y-51091000D01*
X229570000Y-46022000D02*
X229570000Y-47560000D01*
X231091000Y-49640000D02*
X231091000Y-50604000D01*
X230731000Y-49640000D02*
X230731000Y-50847000D01*
X231051000Y-49640000D02*
X231051000Y-50635000D01*
X230611000Y-49640000D02*
X230611000Y-50910000D01*
X226645225Y-47125000D02*
X227145225Y-47125000D01*
X231371000Y-46857000D02*
X231371000Y-47560000D01*
X229810000Y-49640000D02*
X229810000Y-51156000D01*
X230971000Y-49640000D02*
X230971000Y-50695000D01*
X229650000Y-46027000D02*
X229650000Y-47560000D01*
X230971000Y-46505000D02*
X230971000Y-47560000D01*
X229610000Y-46024000D02*
X229610000Y-47560000D01*
X231931000Y-47795000D02*
X231931000Y-49405000D01*
X231011000Y-49640000D02*
X231011000Y-50665000D01*
X230691000Y-46332000D02*
X230691000Y-47560000D01*
X229730000Y-46035000D02*
X229730000Y-47560000D01*
X231811000Y-47502000D02*
X231811000Y-49698000D01*
X230371000Y-46186000D02*
X230371000Y-47560000D01*
X230050000Y-46089000D02*
X230050000Y-47560000D01*
X230731000Y-46353000D02*
X230731000Y-47560000D01*
X229930000Y-46064000D02*
X229930000Y-47560000D01*
X231171000Y-46663000D02*
X231171000Y-47560000D01*
X226895225Y-46875000D02*
X226895225Y-47375000D01*
X230211000Y-49640000D02*
X230211000Y-51068000D01*
X230171000Y-49640000D02*
X230171000Y-51080000D01*
X229890000Y-49640000D02*
X229890000Y-51143000D01*
X230891000Y-46451000D02*
X230891000Y-47560000D01*
X230090000Y-46099000D02*
X230090000Y-47560000D01*
X230130000Y-46109000D02*
X230130000Y-47560000D01*
X229890000Y-46057000D02*
X229890000Y-47560000D01*
X231411000Y-49640000D02*
X231411000Y-50299000D01*
X230771000Y-49640000D02*
X230771000Y-50824000D01*
X230251000Y-49640000D02*
X230251000Y-51055000D01*
X230931000Y-46478000D02*
X230931000Y-47560000D01*
X229970000Y-49640000D02*
X229970000Y-51128000D01*
X230571000Y-46271000D02*
X230571000Y-47560000D01*
X231531000Y-47046000D02*
X231531000Y-50154000D01*
X231891000Y-47685000D02*
X231891000Y-49515000D01*
X231331000Y-46815000D02*
X231331000Y-47560000D01*
X230771000Y-46376000D02*
X230771000Y-47560000D01*
X231771000Y-47422000D02*
X231771000Y-49778000D01*
X231491000Y-46995000D02*
X231491000Y-50205000D01*
X229770000Y-46039000D02*
X229770000Y-47560000D01*
X230090000Y-49640000D02*
X230090000Y-51101000D01*
X230651000Y-46310000D02*
X230651000Y-47560000D01*
X231251000Y-49640000D02*
X231251000Y-50464000D01*
X230651000Y-49640000D02*
X230651000Y-50890000D01*
X229450000Y-46020000D02*
X229450000Y-47560000D01*
X230451000Y-46218000D02*
X230451000Y-47560000D01*
X230811000Y-46400000D02*
X230811000Y-47560000D01*
X231291000Y-46774000D02*
X231291000Y-47560000D01*
X230851000Y-46425000D02*
X230851000Y-47560000D01*
X230251000Y-46145000D02*
X230251000Y-47560000D01*
X229970000Y-46072000D02*
X229970000Y-47560000D01*
X231011000Y-46535000D02*
X231011000Y-47560000D01*
X230571000Y-49640000D02*
X230571000Y-50929000D01*
X231851000Y-47589000D02*
X231851000Y-49611000D01*
X230291000Y-46158000D02*
X230291000Y-47560000D01*
X230411000Y-49640000D02*
X230411000Y-50998000D01*
X229570000Y-49640000D02*
X229570000Y-51178000D01*
X231131000Y-46629000D02*
X231131000Y-47560000D01*
X231971000Y-47923000D02*
X231971000Y-49277000D01*
X229450000Y-49640000D02*
X229450000Y-51180000D01*
X230411000Y-46202000D02*
X230411000Y-47560000D01*
X229490000Y-49640000D02*
X229490000Y-51180000D01*
X231211000Y-49640000D02*
X231211000Y-50501000D01*
X231371000Y-49640000D02*
X231371000Y-50343000D01*
X230291000Y-49640000D02*
X230291000Y-51042000D01*
X232070000Y-48600000D02*
G75*
G03*
X232070000Y-48600000I-2620000J0D01*
G01*
%TO.C,L2*%
X204845740Y-59260000D02*
G75*
G03*
X210554260Y-59260000I2854260J1260000D01*
G01*
X210554260Y-56740000D02*
G75*
G03*
X204845740Y-56740000I-2854260J-1260000D01*
G01*
%TO.C,D1*%
X203850000Y-74530000D02*
X203850000Y-73880000D01*
X202730000Y-73160000D02*
X204970000Y-73160000D01*
X204970000Y-73880000D02*
X204970000Y-69640000D01*
X202730000Y-69640000D02*
X202730000Y-73880000D01*
X204970000Y-69640000D02*
X202730000Y-69640000D01*
X203850000Y-68990000D02*
X203850000Y-69640000D01*
X202730000Y-73880000D02*
X204970000Y-73880000D01*
X202730000Y-73040000D02*
X204970000Y-73040000D01*
X202730000Y-73280000D02*
X204970000Y-73280000D01*
%TO.C,C15*%
X232579000Y-47885113D02*
X234040000Y-47885113D01*
X236120000Y-48205113D02*
X237641000Y-48205113D01*
X236120000Y-47004113D02*
X237175000Y-47004113D01*
X232833000Y-47244113D02*
X234040000Y-47244113D01*
X232666000Y-47604113D02*
X234040000Y-47604113D01*
X232790000Y-47324113D02*
X234040000Y-47324113D01*
X233982000Y-46164113D02*
X236178000Y-46164113D01*
X233076000Y-46884113D02*
X234040000Y-46884113D01*
X233637000Y-46364113D02*
X236523000Y-46364113D01*
X236120000Y-46964113D02*
X237145000Y-46964113D01*
X232856000Y-47204113D02*
X234040000Y-47204113D01*
X232682000Y-47564113D02*
X234040000Y-47564113D01*
X236120000Y-47484113D02*
X237445000Y-47484113D01*
X233475000Y-46484113D02*
X236685000Y-46484113D01*
X236120000Y-46924113D02*
X237115000Y-46924113D01*
X236120000Y-47564113D02*
X237478000Y-47564113D01*
X233697000Y-46324113D02*
X236463000Y-46324113D01*
X233143000Y-46804113D02*
X234040000Y-46804113D01*
X232931000Y-47084113D02*
X234040000Y-47084113D01*
X236120000Y-47604113D02*
X237494000Y-47604113D01*
X236120000Y-47044113D02*
X237202000Y-47044113D01*
X236120000Y-46844113D02*
X237051000Y-46844113D01*
X236120000Y-48365113D02*
X237656000Y-48365113D01*
X233045000Y-46924113D02*
X234040000Y-46924113D01*
X232515000Y-48245113D02*
X234040000Y-48245113D01*
X236120000Y-48085113D02*
X237623000Y-48085113D01*
X233295000Y-46644113D02*
X234040000Y-46644113D01*
X236120000Y-47764113D02*
X237548000Y-47764113D01*
X236120000Y-47124113D02*
X237255000Y-47124113D01*
X232501000Y-48445113D02*
X234040000Y-48445113D01*
X233761000Y-46284113D02*
X236399000Y-46284113D01*
X236120000Y-48445113D02*
X237659000Y-48445113D01*
X232638000Y-47684113D02*
X234040000Y-47684113D01*
X233605000Y-51329888D02*
X233605000Y-50829888D01*
X236120000Y-48045113D02*
X237616000Y-48045113D01*
X236120000Y-46724113D02*
X236944000Y-46724113D01*
X236120000Y-47524113D02*
X237462000Y-47524113D01*
X233526000Y-46444113D02*
X236634000Y-46444113D01*
X236120000Y-47404113D02*
X237409000Y-47404113D01*
X232600000Y-47804113D02*
X234040000Y-47804113D01*
X234796000Y-45924113D02*
X235364000Y-45924113D01*
X236120000Y-46644113D02*
X236865000Y-46644113D01*
X234165000Y-46084113D02*
X235995000Y-46084113D01*
X232511000Y-48285113D02*
X234040000Y-48285113D01*
X236120000Y-46604113D02*
X236823000Y-46604113D01*
X233355000Y-51079888D02*
X233855000Y-51079888D01*
X236120000Y-47965113D02*
X237600000Y-47965113D01*
X236120000Y-47804113D02*
X237560000Y-47804113D01*
X236120000Y-46684113D02*
X236906000Y-46684113D01*
X236120000Y-48165113D02*
X237636000Y-48165113D01*
X236120000Y-48325113D02*
X237653000Y-48325113D01*
X232537000Y-48085113D02*
X234040000Y-48085113D01*
X232552000Y-48005113D02*
X234040000Y-48005113D01*
X236120000Y-47724113D02*
X237535000Y-47724113D01*
X233179000Y-46764113D02*
X234040000Y-46764113D01*
X232612000Y-47764113D02*
X234040000Y-47764113D01*
X234275000Y-46044113D02*
X235885000Y-46044113D01*
X236120000Y-47324113D02*
X237370000Y-47324113D01*
X232589000Y-47845113D02*
X234040000Y-47845113D01*
X232519000Y-48205113D02*
X234040000Y-48205113D01*
X232524000Y-48165113D02*
X234040000Y-48165113D01*
X236120000Y-47845113D02*
X237571000Y-47845113D01*
X233337000Y-46604113D02*
X234040000Y-46604113D01*
X236120000Y-48285113D02*
X237649000Y-48285113D01*
X234403000Y-46004113D02*
X235757000Y-46004113D01*
X236120000Y-47644113D02*
X237508000Y-47644113D01*
X236120000Y-47444113D02*
X237428000Y-47444113D01*
X233829000Y-46244113D02*
X236331000Y-46244113D01*
X232985000Y-47004113D02*
X234040000Y-47004113D01*
X236120000Y-47284113D02*
X237348000Y-47284113D01*
X232625000Y-47724113D02*
X234040000Y-47724113D01*
X236120000Y-48125113D02*
X237630000Y-48125113D01*
X236120000Y-48405113D02*
X237658000Y-48405113D01*
X232530000Y-48125113D02*
X234040000Y-48125113D01*
X232880000Y-47164113D02*
X234040000Y-47164113D01*
X236120000Y-48245113D02*
X237645000Y-48245113D01*
X236120000Y-47364113D02*
X237390000Y-47364113D01*
X236120000Y-47885113D02*
X237581000Y-47885113D01*
X236120000Y-47925113D02*
X237591000Y-47925113D01*
X234069000Y-46124113D02*
X236091000Y-46124113D01*
X236120000Y-48005113D02*
X237608000Y-48005113D01*
X236120000Y-47084113D02*
X237229000Y-47084113D01*
X232500000Y-48525113D02*
X234040000Y-48525113D01*
X236120000Y-47164113D02*
X237280000Y-47164113D01*
X232770000Y-47364113D02*
X234040000Y-47364113D01*
X236120000Y-46764113D02*
X236981000Y-46764113D01*
X233902000Y-46204113D02*
X236258000Y-46204113D01*
X236120000Y-48525113D02*
X237660000Y-48525113D01*
X232504000Y-48365113D02*
X234040000Y-48365113D01*
X233015000Y-46964113D02*
X234040000Y-46964113D01*
X232652000Y-47644113D02*
X234040000Y-47644113D01*
X236120000Y-47684113D02*
X237522000Y-47684113D01*
X233427000Y-46524113D02*
X234040000Y-46524113D01*
X232698000Y-47524113D02*
X234040000Y-47524113D01*
X232500000Y-48485113D02*
X234040000Y-48485113D01*
X236120000Y-47204113D02*
X237304000Y-47204113D01*
X233216000Y-46724113D02*
X234040000Y-46724113D01*
X236120000Y-47244113D02*
X237327000Y-47244113D01*
X233109000Y-46844113D02*
X234040000Y-46844113D01*
X232715000Y-47484113D02*
X234040000Y-47484113D01*
X232560000Y-47965113D02*
X234040000Y-47965113D01*
X232812000Y-47284113D02*
X234040000Y-47284113D01*
X236120000Y-46884113D02*
X237084000Y-46884113D01*
X236120000Y-48485113D02*
X237660000Y-48485113D01*
X232569000Y-47925113D02*
X234040000Y-47925113D01*
X233254000Y-46684113D02*
X234040000Y-46684113D01*
X232751000Y-47404113D02*
X234040000Y-47404113D01*
X232958000Y-47044113D02*
X234040000Y-47044113D01*
X232507000Y-48325113D02*
X234040000Y-48325113D01*
X232544000Y-48045113D02*
X234040000Y-48045113D01*
X233580000Y-46404113D02*
X236580000Y-46404113D01*
X232905000Y-47124113D02*
X234040000Y-47124113D01*
X236120000Y-46524113D02*
X236733000Y-46524113D01*
X236120000Y-46564113D02*
X236779000Y-46564113D01*
X232502000Y-48405113D02*
X234040000Y-48405113D01*
X234562000Y-45964113D02*
X235598000Y-45964113D01*
X233381000Y-46564113D02*
X234040000Y-46564113D01*
X236120000Y-46804113D02*
X237017000Y-46804113D01*
X232732000Y-47444113D02*
X234040000Y-47444113D01*
X237700000Y-48525113D02*
G75*
G03*
X237700000Y-48525113I-2620000J0D01*
G01*
%TO.C,U1*%
X219990000Y-56450000D02*
X219990000Y-50440000D01*
X219990000Y-50440000D02*
X221250000Y-50440000D01*
X226810000Y-54200000D02*
X226810000Y-50440000D01*
X226810000Y-50440000D02*
X225550000Y-50440000D01*
%TO.C,D3*%
X202280000Y-48590000D02*
X202280000Y-52830000D01*
X204520000Y-49430000D02*
X202280000Y-49430000D01*
X202280000Y-52830000D02*
X204520000Y-52830000D01*
X204520000Y-49190000D02*
X202280000Y-49190000D01*
X203400000Y-53480000D02*
X203400000Y-52830000D01*
X204520000Y-48590000D02*
X202280000Y-48590000D01*
X204520000Y-52830000D02*
X204520000Y-48590000D01*
X204520000Y-49310000D02*
X202280000Y-49310000D01*
X203400000Y-47940000D02*
X203400000Y-48590000D01*
%TO.C,L1*%
X195665740Y-62620000D02*
G75*
G03*
X201374260Y-62620000I2854260J1260000D01*
G01*
X201374260Y-60100000D02*
G75*
G03*
X195665740Y-60100000I-2854260J-1260000D01*
G01*
%TO.C,U3*%
X212190000Y-56450000D02*
X212190000Y-50440000D01*
X219010000Y-54200000D02*
X219010000Y-50440000D01*
X212190000Y-50440000D02*
X213450000Y-50440000D01*
X219010000Y-50440000D02*
X217750000Y-50440000D01*
%TO.C,J6*%
X233270000Y-67930000D02*
X235930000Y-67930000D01*
X235930000Y-52570000D02*
X235930000Y-53900000D01*
X233270000Y-55170000D02*
X233270000Y-67930000D01*
X234600000Y-52570000D02*
X235930000Y-52570000D01*
X233270000Y-55170000D02*
X235930000Y-55170000D01*
X235930000Y-55170000D02*
X235930000Y-67930000D01*
%TO.C,D2*%
X207520000Y-69640000D02*
X205280000Y-69640000D01*
X205280000Y-69640000D02*
X205280000Y-73880000D01*
X206400000Y-74530000D02*
X206400000Y-73880000D01*
X207520000Y-70240000D02*
X205280000Y-70240000D01*
X205280000Y-73880000D02*
X207520000Y-73880000D01*
X207520000Y-70480000D02*
X205280000Y-70480000D01*
X207520000Y-70360000D02*
X205280000Y-70360000D01*
X207520000Y-73880000D02*
X207520000Y-69640000D01*
X206400000Y-68990000D02*
X206400000Y-69640000D01*
%TD*%
M02*
