%TF.GenerationSoftware,KiCad,Pcbnew,6.0.2*%
%TF.CreationDate,2022-11-10T22:55:41+01:00*%
%TF.ProjectId,SI4735,53493437-3335-42e6-9b69-6361645f7063,rev?*%
%TF.SameCoordinates,Original*%
%TF.FileFunction,Copper,L2,Bot*%
%TF.FilePolarity,Positive*%
%FSLAX46Y46*%
G04 Gerber Fmt 4.6, Leading zero omitted, Abs format (unit mm)*
G04 Created by KiCad (PCBNEW 6.0.2) date 2022-11-10 22:55:41*
%MOMM*%
%LPD*%
G01*
G04 APERTURE LIST*
G04 Aperture macros list*
%AMRoundRect*
0 Rectangle with rounded corners*
0 $1 Rounding radius*
0 $2 $3 $4 $5 $6 $7 $8 $9 X,Y pos of 4 corners*
0 Add a 4 corners polygon primitive as box body*
4,1,4,$2,$3,$4,$5,$6,$7,$8,$9,$2,$3,0*
0 Add four circle primitives for the rounded corners*
1,1,$1+$1,$2,$3*
1,1,$1+$1,$4,$5*
1,1,$1+$1,$6,$7*
1,1,$1+$1,$8,$9*
0 Add four rect primitives between the rounded corners*
20,1,$1+$1,$2,$3,$4,$5,0*
20,1,$1+$1,$4,$5,$6,$7,0*
20,1,$1+$1,$6,$7,$8,$9,0*
20,1,$1+$1,$8,$9,$2,$3,0*%
G04 Aperture macros list end*
%TA.AperFunction,Profile*%
%ADD10C,0.050000*%
%TD*%
%ADD11C,0.150000*%
%TA.AperFunction,NonConductor*%
%ADD12C,0.150000*%
%TD*%
%TA.AperFunction,Profile*%
%ADD13C,0.100000*%
%TD*%
%TA.AperFunction,ComponentPad*%
%ADD14R,1.600000X1.600000*%
%TD*%
%TA.AperFunction,ComponentPad*%
%ADD15C,1.600000*%
%TD*%
%TA.AperFunction,ComponentPad*%
%ADD16RoundRect,0.200100X0.949900X-0.949900X0.949900X0.949900X-0.949900X0.949900X-0.949900X-0.949900X0*%
%TD*%
%TA.AperFunction,ComponentPad*%
%ADD17C,2.500000*%
%TD*%
%TA.AperFunction,ComponentPad*%
%ADD18R,1.700000X1.700000*%
%TD*%
%TA.AperFunction,ComponentPad*%
%ADD19O,1.700000X1.700000*%
%TD*%
%TA.AperFunction,ComponentPad*%
%ADD20C,1.000000*%
%TD*%
%TA.AperFunction,ComponentPad*%
%ADD21O,1.600000X1.600000*%
%TD*%
%TA.AperFunction,ComponentPad*%
%ADD22C,2.000000*%
%TD*%
%TA.AperFunction,SMDPad,CuDef*%
%ADD23RoundRect,0.250000X0.325000X0.650000X-0.325000X0.650000X-0.325000X-0.650000X0.325000X-0.650000X0*%
%TD*%
%TA.AperFunction,SMDPad,CuDef*%
%ADD24RoundRect,0.250000X-0.650000X0.325000X-0.650000X-0.325000X0.650000X-0.325000X0.650000X0.325000X0*%
%TD*%
%TA.AperFunction,SMDPad,CuDef*%
%ADD25RoundRect,0.250000X-0.312500X-0.625000X0.312500X-0.625000X0.312500X0.625000X-0.312500X0.625000X0*%
%TD*%
%TA.AperFunction,SMDPad,CuDef*%
%ADD26RoundRect,0.250000X0.312500X0.625000X-0.312500X0.625000X-0.312500X-0.625000X0.312500X-0.625000X0*%
%TD*%
%TA.AperFunction,SMDPad,CuDef*%
%ADD27R,1.200000X0.400000*%
%TD*%
%TA.AperFunction,SMDPad,CuDef*%
%ADD28RoundRect,0.250000X-0.625000X0.312500X-0.625000X-0.312500X0.625000X-0.312500X0.625000X0.312500X0*%
%TD*%
%TA.AperFunction,Conductor*%
%ADD29C,1.000000*%
%TD*%
%TA.AperFunction,Conductor*%
%ADD30C,0.400000*%
%TD*%
%TA.AperFunction,Conductor*%
%ADD31C,1.200000*%
%TD*%
%TA.AperFunction,Conductor*%
%ADD32C,0.800000*%
%TD*%
%TA.AperFunction,Conductor*%
%ADD33C,0.300000*%
%TD*%
%TA.AperFunction,Conductor*%
%ADD34C,2.000000*%
%TD*%
%TA.AperFunction,Conductor*%
%ADD35C,0.500000*%
%TD*%
%TA.AperFunction,Conductor*%
%ADD36C,0.700000*%
%TD*%
%TA.AperFunction,Conductor*%
%ADD37C,0.650000*%
%TD*%
%TA.AperFunction,Conductor*%
%ADD38C,0.450000*%
%TD*%
G04 APERTURE END LIST*
D10*
X243000000Y-45450000D02*
G75*
G03*
X243000000Y-45450000I-1526434J0D01*
G01*
X243076434Y-77450000D02*
G75*
G03*
X243076434Y-77450000I-1526434J0D01*
G01*
X199535580Y-77486292D02*
G75*
G03*
X199535580Y-77486292I-1526434J0D01*
G01*
X244475000Y-81120000D02*
X193725000Y-81120000D01*
X193725000Y-81120000D02*
X193725000Y-42300000D01*
X193725000Y-42300000D02*
X244475000Y-42300000D01*
X244475000Y-42300000D02*
X244475000Y-81120000D01*
X199576434Y-45480000D02*
G75*
G03*
X199576434Y-45480000I-1526434J0D01*
G01*
D11*
%TO.C,J2*%
D12*
X196347619Y-49066666D02*
X196823809Y-49066666D01*
X196252380Y-49352380D02*
X196585714Y-48352380D01*
X196919047Y-49352380D01*
X197252380Y-49352380D02*
X197252380Y-48352380D01*
X197585714Y-49066666D01*
X197919047Y-48352380D01*
X197919047Y-49352380D01*
X198157142Y-49447619D02*
X198919047Y-49447619D01*
X199157142Y-49352380D02*
X199157142Y-48352380D01*
X199633333Y-49352380D02*
X199633333Y-48352380D01*
X200204761Y-49352380D01*
X200204761Y-48352380D01*
D11*
%TO.C,J3*%
D12*
X196628571Y-74178571D02*
X196295238Y-74178571D01*
X196295238Y-74702380D02*
X196295238Y-73702380D01*
X196771428Y-73702380D01*
X197152380Y-74702380D02*
X197152380Y-73702380D01*
X197485714Y-74416666D01*
X197819047Y-73702380D01*
X197819047Y-74702380D01*
X198057142Y-74797619D02*
X198819047Y-74797619D01*
X199057142Y-74702380D02*
X199057142Y-73702380D01*
X199533333Y-74702380D02*
X199533333Y-73702380D01*
X200104761Y-74702380D01*
X200104761Y-73702380D01*
D13*
%TO.C,J2*%
X193760000Y-49540000D02*
X193760000Y-58140000D01*
%TO.C,J3*%
X193760000Y-64720000D02*
X193760000Y-73320000D01*
%TD*%
D14*
%TO.P,C4,1*%
%TO.N,Net-(C4-Pad1)*%
X220750000Y-60850000D03*
D15*
%TO.P,C4,2*%
%TO.N,GND*%
X218750000Y-60850000D03*
%TD*%
%TO.P,C5,1*%
%TO.N,Net-(C5-Pad1)*%
X223450000Y-71150000D03*
%TO.P,C5,2*%
%TO.N,Net-(C5-Pad2)*%
X220950000Y-71150000D03*
%TD*%
%TO.P,C6,1*%
%TO.N,Net-(C6-Pad1)*%
X204900000Y-62000000D03*
%TO.P,C6,2*%
%TO.N,Net-(C6-Pad2)*%
X209900000Y-62000000D03*
%TD*%
%TO.P,C7,1*%
%TO.N,Net-(C7-Pad1)*%
X204900000Y-64650000D03*
%TO.P,C7,2*%
%TO.N,Net-(C7-Pad2)*%
X209900000Y-64650000D03*
%TD*%
D14*
%TO.P,C8,1*%
%TO.N,Net-(C5-Pad1)*%
X215000000Y-60700000D03*
D15*
%TO.P,C8,2*%
%TO.N,GND*%
X213000000Y-60700000D03*
%TD*%
%TO.P,C9,1*%
%TO.N,Net-(C9-Pad1)*%
X230800000Y-70200000D03*
%TO.P,C9,2*%
%TO.N,Net-(C12-Pad2)*%
X230800000Y-72700000D03*
%TD*%
%TO.P,C10,1*%
%TO.N,Net-(C10-Pad1)*%
X230800000Y-77400000D03*
%TO.P,C10,2*%
%TO.N,Net-(C10-Pad2)*%
X230800000Y-74900000D03*
%TD*%
%TO.P,C11,1*%
%TO.N,GND*%
X228200000Y-77700000D03*
%TO.P,C11,2*%
%TO.N,Net-(C10-Pad2)*%
X225700000Y-77700000D03*
%TD*%
%TO.P,C12,1*%
%TO.N,GND*%
X228300000Y-71300000D03*
%TO.P,C12,2*%
%TO.N,Net-(C12-Pad2)*%
X225800000Y-71300000D03*
%TD*%
D16*
%TO.P,J2,1,Pin_1*%
%TO.N,Net-(C6-Pad1)*%
X198260000Y-53840000D03*
D17*
%TO.P,J2,2,Pin_2*%
%TO.N,GND*%
X200800000Y-56380000D03*
X200800000Y-51300000D03*
X195720000Y-56380000D03*
X195720000Y-51300000D03*
%TD*%
D16*
%TO.P,J3,1,Pin_1*%
%TO.N,Net-(C7-Pad1)*%
X198260000Y-69020000D03*
D17*
%TO.P,J3,2,Pin_2*%
%TO.N,GND*%
X195720000Y-66480000D03*
X195720000Y-71560000D03*
X200800000Y-66480000D03*
X200800000Y-71560000D03*
%TD*%
D18*
%TO.P,J4,1,Pin_1*%
%TO.N,Net-(C10-Pad1)*%
X234700000Y-76380000D03*
D19*
%TO.P,J4,2,Pin_2*%
%TO.N,GND*%
X234700000Y-73840000D03*
%TO.P,J4,3,Pin_3*%
%TO.N,Net-(C9-Pad1)*%
X234700000Y-71300000D03*
%TD*%
D18*
%TO.P,J5,1,Pin_1*%
%TO.N,GND*%
X229300000Y-56475000D03*
D19*
%TO.P,J5,2,Pin_2*%
%TO.N,Net-(C14-Pad1)*%
X229300000Y-53935000D03*
%TD*%
D20*
%TO.P,Y1,1,1*%
%TO.N,Net-(C2-Pad1)*%
X215600000Y-73000000D03*
%TO.P,Y1,2,2*%
%TO.N,Net-(C3-Pad1)*%
X213700000Y-73000000D03*
%TD*%
D15*
%TO.P,R11,1*%
%TO.N,Net-(R11-Pad1)*%
X209750000Y-67850000D03*
D21*
%TO.P,R11,2*%
%TO.N,Net-(C4-Pad1)*%
X222450000Y-67850000D03*
%TD*%
D14*
%TO.P,D4,1,K*%
%TO.N,Net-(C6-Pad1)*%
X205950000Y-54530000D03*
D21*
%TO.P,D4,2,A*%
%TO.N,GND*%
X205950000Y-46910000D03*
%TD*%
D14*
%TO.P,C14,1*%
%TO.N,Net-(C14-Pad1)*%
X228450000Y-48600000D03*
D15*
%TO.P,C14,2*%
%TO.N,GND*%
X230450000Y-48600000D03*
%TD*%
D22*
%TO.P,L2,1,1*%
%TO.N,Net-(C6-Pad1)*%
X205700000Y-58000000D03*
%TO.P,L2,2,2*%
%TO.N,GND*%
X209700000Y-58000000D03*
%TD*%
D14*
%TO.P,D1,1,K*%
%TO.N,GND*%
X203850000Y-75570000D03*
D21*
%TO.P,D1,2,A*%
%TO.N,Net-(C7-Pad1)*%
X203850000Y-67950000D03*
%TD*%
D14*
%TO.P,C15,1*%
%TO.N,Net-(C14-Pad1)*%
X235080000Y-49525113D03*
D15*
%TO.P,C15,2*%
%TO.N,GND*%
X235080000Y-47525113D03*
%TD*%
D14*
%TO.P,D3,1,K*%
%TO.N,GND*%
X203400000Y-46900000D03*
D21*
%TO.P,D3,2,A*%
%TO.N,Net-(C6-Pad1)*%
X203400000Y-54520000D03*
%TD*%
D22*
%TO.P,L1,1,1*%
%TO.N,Net-(C7-Pad1)*%
X200520000Y-61360000D03*
%TO.P,L1,2,2*%
%TO.N,Net-(C6-Pad1)*%
X196520000Y-61360000D03*
%TD*%
D18*
%TO.P,J6,1,Pin_1*%
%TO.N,Net-(C4-Pad1)*%
X234600000Y-53900000D03*
D19*
%TO.P,J6,2,Pin_2*%
%TO.N,Net-(J6-Pad2)*%
X234600000Y-56440000D03*
%TO.P,J6,3,Pin_3*%
%TO.N,Net-(J6-Pad3)*%
X234600000Y-58980000D03*
%TO.P,J6,4,Pin_4*%
%TO.N,Net-(J6-Pad4)*%
X234600000Y-61520000D03*
%TO.P,J6,5,Pin_5*%
%TO.N,Net-(J6-Pad5)*%
X234600000Y-64060000D03*
%TO.P,J6,6,Pin_6*%
%TO.N,GND*%
X234600000Y-66600000D03*
%TD*%
D14*
%TO.P,D2,1,K*%
%TO.N,Net-(C7-Pad1)*%
X206400000Y-67950000D03*
D21*
%TO.P,D2,2,A*%
%TO.N,GND*%
X206400000Y-75570000D03*
%TD*%
D23*
%TO.P,C1,1*%
%TO.N,Net-(C1-Pad1)*%
X222075000Y-62900000D03*
%TO.P,C1,2*%
%TO.N,GND*%
X219125000Y-62900000D03*
%TD*%
D24*
%TO.P,C2,1*%
%TO.N,Net-(C2-Pad1)*%
X215900000Y-74217000D03*
%TO.P,C2,2*%
%TO.N,GND*%
X215900000Y-77167000D03*
%TD*%
%TO.P,C3,1*%
%TO.N,Net-(C3-Pad1)*%
X213360000Y-74217000D03*
%TO.P,C3,2*%
%TO.N,GND*%
X213360000Y-77167000D03*
%TD*%
D25*
%TO.P,R1,1*%
%TO.N,Net-(C1-Pad1)*%
X224800000Y-61600000D03*
%TO.P,R1,2*%
%TO.N,Net-(J6-Pad2)*%
X227725000Y-61600000D03*
%TD*%
%TO.P,R2,1*%
%TO.N,Net-(R2-Pad1)*%
X224800000Y-66000000D03*
%TO.P,R2,2*%
%TO.N,Net-(J6-Pad4)*%
X227725000Y-66000000D03*
%TD*%
%TO.P,R3,1*%
%TO.N,Net-(R3-Pad1)*%
X224812500Y-68200000D03*
%TO.P,R3,2*%
%TO.N,Net-(J6-Pad5)*%
X227737500Y-68200000D03*
%TD*%
D26*
%TO.P,R4,1*%
%TO.N,Net-(C4-Pad1)*%
X240562500Y-63550000D03*
%TO.P,R4,2*%
%TO.N,Net-(J6-Pad4)*%
X237637500Y-63550000D03*
%TD*%
%TO.P,R5,1*%
%TO.N,Net-(C4-Pad1)*%
X240562500Y-65800000D03*
%TO.P,R5,2*%
%TO.N,Net-(J6-Pad5)*%
X237637500Y-65800000D03*
%TD*%
%TO.P,R6,1*%
%TO.N,Net-(C4-Pad1)*%
X240562500Y-56500000D03*
%TO.P,R6,2*%
%TO.N,Net-(J6-Pad2)*%
X237637500Y-56500000D03*
%TD*%
%TO.P,R7,1*%
%TO.N,Net-(C12-Pad2)*%
X225925000Y-73500000D03*
%TO.P,R7,2*%
%TO.N,Net-(R7-Pad2)*%
X223000000Y-73500000D03*
%TD*%
%TO.P,R8,1*%
%TO.N,Net-(C10-Pad2)*%
X225925000Y-75750000D03*
%TO.P,R8,2*%
%TO.N,Net-(R8-Pad2)*%
X223000000Y-75750000D03*
%TD*%
D27*
%TO.P,U2,1,DOUT*%
%TO.N,unconnected-(U2-Pad1)*%
X212150000Y-70242500D03*
%TO.P,U2,2,DFS*%
%TO.N,unconnected-(U2-Pad2)*%
X212150000Y-69607500D03*
%TO.P,U2,3,GPO3/[DCLK]*%
%TO.N,Net-(C3-Pad1)*%
X212150000Y-68972500D03*
%TO.P,U2,4,GPO2/[~{INT}]*%
%TO.N,Net-(R10-Pad1)*%
X212150000Y-68337500D03*
%TO.P,U2,5,GPO1*%
%TO.N,Net-(R11-Pad1)*%
X212150000Y-67702500D03*
%TO.P,U2,6,NC*%
%TO.N,unconnected-(U2-Pad6)*%
X212150000Y-67067500D03*
%TO.P,U2,7,NC*%
%TO.N,unconnected-(U2-Pad7)*%
X212150000Y-66432500D03*
%TO.P,U2,8,FMI*%
%TO.N,Net-(C7-Pad2)*%
X212150000Y-65797500D03*
%TO.P,U2,9,RFGND*%
%TO.N,GND*%
X212150000Y-65162500D03*
%TO.P,U2,10,NC*%
%TO.N,unconnected-(U2-Pad10)*%
X212150000Y-64527500D03*
%TO.P,U2,11,NC*%
%TO.N,unconnected-(U2-Pad11)*%
X212150000Y-63892500D03*
%TO.P,U2,12,AMI*%
%TO.N,Net-(C6-Pad2)*%
X212150000Y-63257500D03*
%TO.P,U2,13,GND*%
%TO.N,GND*%
X217350000Y-63257500D03*
%TO.P,U2,14,GND*%
X217350000Y-63892500D03*
%TO.P,U2,15,~{RST}*%
%TO.N,Net-(C1-Pad1)*%
X217350000Y-64527500D03*
%TO.P,U2,16,~{SEN}*%
%TO.N,Net-(R13-Pad1)*%
X217350000Y-65162500D03*
%TO.P,U2,17,SCLK*%
%TO.N,Net-(R2-Pad1)*%
X217350000Y-65797500D03*
%TO.P,U2,18,SDIO*%
%TO.N,Net-(R3-Pad1)*%
X217350000Y-66432500D03*
%TO.P,U2,19,RCLK*%
%TO.N,Net-(C2-Pad1)*%
X217350000Y-67067500D03*
%TO.P,U2,20,VD*%
%TO.N,Net-(C4-Pad1)*%
X217350000Y-67702500D03*
%TO.P,U2,21,VA*%
%TO.N,Net-(C5-Pad1)*%
X217350000Y-68337500D03*
%TO.P,U2,22,DBYP*%
%TO.N,Net-(C5-Pad2)*%
X217350000Y-68972500D03*
%TO.P,U2,23,ROUT/[DOUT]*%
%TO.N,Net-(R7-Pad2)*%
X217350000Y-69607500D03*
%TO.P,U2,24,LOUT/[DFS]*%
%TO.N,Net-(R8-Pad2)*%
X217350000Y-70242500D03*
%TD*%
D25*
%TO.P,R13,1*%
%TO.N,Net-(R13-Pad1)*%
X224800000Y-63800000D03*
%TO.P,R13,2*%
%TO.N,Net-(J6-Pad3)*%
X227725000Y-63800000D03*
%TD*%
D26*
%TO.P,R12,1*%
%TO.N,Net-(C4-Pad1)*%
X240562500Y-59000000D03*
%TO.P,R12,2*%
%TO.N,Net-(J6-Pad3)*%
X237637500Y-59000000D03*
%TD*%
D28*
%TO.P,R10,1*%
%TO.N,Net-(R10-Pad1)*%
X209650000Y-70087500D03*
%TO.P,R10,2*%
%TO.N,GND*%
X209650000Y-73012500D03*
%TD*%
D25*
%TO.P,R14,1*%
%TO.N,Net-(J6-Pad3)*%
X237637500Y-61300000D03*
%TO.P,R14,2*%
%TO.N,GND*%
X240562500Y-61300000D03*
%TD*%
D29*
%TO.N,Net-(C2-Pad1)*%
X215600000Y-72750000D02*
X215600000Y-71450000D01*
D30*
X215932500Y-67067500D02*
X215600000Y-67400000D01*
D29*
X215600000Y-72800000D02*
X215600000Y-74171000D01*
D30*
X217350000Y-67067500D02*
X215932500Y-67067500D01*
X215600000Y-67400000D02*
X215600000Y-71450000D01*
D29*
X215600000Y-74171000D02*
X215646000Y-74217000D01*
%TO.N,Net-(C3-Pad1)*%
X213700000Y-73877000D02*
X213360000Y-74217000D01*
D30*
X212150000Y-68972500D02*
X213472500Y-68972500D01*
X213700000Y-69200000D02*
X213700000Y-71500000D01*
D29*
X213700000Y-72800000D02*
X213700000Y-71500000D01*
D30*
X213472500Y-68972500D02*
X213700000Y-69200000D01*
D29*
X213700000Y-73000000D02*
X213700000Y-72800000D01*
X213700000Y-72800000D02*
X213700000Y-73877000D01*
D31*
%TO.N,Net-(C5-Pad2)*%
X220950000Y-71150000D02*
X220255000Y-70455000D01*
D30*
X220255000Y-70455000D02*
X218772500Y-68972500D01*
X218772500Y-68972500D02*
X217350000Y-68972500D01*
D32*
%TO.N,GND*%
X230950000Y-67150000D02*
X231850000Y-67150000D01*
D33*
X213000000Y-60700000D02*
X213000000Y-60900000D01*
D32*
X241899511Y-69399511D02*
X242725000Y-70225000D01*
D34*
X209600000Y-57400000D02*
X209600000Y-59150000D01*
D32*
X217600000Y-63650000D02*
X216850000Y-62900000D01*
X240750000Y-69800000D02*
X240700000Y-69750000D01*
D31*
X223350000Y-54350000D02*
X225150000Y-54350000D01*
D32*
X242299511Y-79296893D02*
X242449457Y-79296893D01*
D35*
X211800000Y-64900000D02*
X212785000Y-64900000D01*
D34*
X236100000Y-80000000D02*
X238000000Y-80000000D01*
X213675000Y-44425000D02*
X210975000Y-44425000D01*
D32*
X208700000Y-58300000D02*
X208237500Y-58762500D01*
D31*
X225800000Y-50250000D02*
X225800000Y-53350000D01*
D29*
X237150000Y-69550000D02*
X236800000Y-69200000D01*
D35*
X203100000Y-76950000D02*
X203900000Y-77750000D01*
D32*
X238600000Y-46900000D02*
X238100000Y-46400000D01*
D33*
X213537500Y-64587500D02*
X214112500Y-64587500D01*
X213450000Y-65700000D02*
X213450000Y-64800000D01*
D29*
X236800000Y-69200000D02*
X236800000Y-70100000D01*
D33*
X213650000Y-61750000D02*
X213650000Y-62400000D01*
D29*
X206756000Y-62992000D02*
X206756000Y-60244000D01*
D31*
X195905518Y-44544482D02*
X195905518Y-46534482D01*
D32*
X242900978Y-69200000D02*
X240200000Y-69200000D01*
D33*
X194000000Y-60000000D02*
X195720000Y-58280000D01*
X215550489Y-64950000D02*
X215015000Y-64950000D01*
D36*
X205700000Y-74700000D02*
X204710000Y-74700000D01*
D32*
X218300000Y-50700000D02*
X219600000Y-49400000D01*
X232650000Y-46800000D02*
X229800000Y-46800000D01*
X219450000Y-52100000D02*
X219450000Y-50050000D01*
D29*
X241799980Y-80499980D02*
X242805980Y-80499980D01*
D31*
X222000000Y-51000000D02*
X216100000Y-51000000D01*
D34*
X216999511Y-60249511D02*
X216999511Y-60800489D01*
X200800000Y-46350000D02*
X200800000Y-44900000D01*
D32*
X239182658Y-43817342D02*
X239182658Y-46582658D01*
D34*
X215890000Y-80000000D02*
X218684000Y-80000000D01*
D33*
X213949511Y-64227011D02*
X213014022Y-65162500D01*
D32*
X240550000Y-71300000D02*
X241250000Y-71300000D01*
X195720000Y-51300000D02*
X195720000Y-54780000D01*
D33*
X214750000Y-65700000D02*
X213450000Y-65700000D01*
D34*
X195569645Y-71710355D02*
X195569645Y-78219645D01*
D32*
X218069000Y-76825000D02*
X216975000Y-76825000D01*
D29*
X234700000Y-73840000D02*
X236160000Y-73840000D01*
D32*
X241250000Y-70050000D02*
X240750000Y-70550000D01*
X200800000Y-77539719D02*
X198815251Y-75554970D01*
D29*
X194760020Y-73734221D02*
X194260020Y-73234221D01*
X242299511Y-79296893D02*
X242551309Y-79548691D01*
D33*
X214100000Y-57500000D02*
X214100000Y-58900000D01*
D32*
X240000489Y-49499511D02*
X238100000Y-51400000D01*
D29*
X228200000Y-79900000D02*
X228100000Y-80000000D01*
D33*
X214100000Y-58900000D02*
X212600000Y-58900000D01*
D31*
X216300000Y-54200000D02*
X214550000Y-55950000D01*
D32*
X212250000Y-52450000D02*
X212250000Y-47450000D01*
D29*
X230099511Y-68000489D02*
X229550000Y-68550000D01*
D35*
X205750000Y-71600000D02*
X205350000Y-72000000D01*
D31*
X202748100Y-74250000D02*
X200800000Y-76198100D01*
D36*
X203143750Y-70643750D02*
X202837500Y-70950000D01*
D33*
X213949511Y-63100489D02*
X213200000Y-63850000D01*
D32*
X211700000Y-59800000D02*
X211700000Y-60857989D01*
D36*
X197050000Y-73150000D02*
X197050000Y-72670000D01*
D29*
X206756000Y-65786000D02*
X206756000Y-65024000D01*
D33*
X214650000Y-65850000D02*
X214650000Y-63250000D01*
D32*
X236600000Y-50600000D02*
X236600000Y-47900000D01*
D34*
X217500000Y-60750000D02*
X216999511Y-60249511D01*
D29*
X229300000Y-78800000D02*
X230200000Y-79700000D01*
D32*
X239960000Y-71890000D02*
X240550000Y-71300000D01*
D36*
X197050000Y-71700000D02*
X197190000Y-71560000D01*
D32*
X243403272Y-46248883D02*
X243403272Y-44651118D01*
D36*
X218752000Y-75750000D02*
X210450000Y-75750000D01*
D29*
X207946000Y-66946000D02*
X207946000Y-69204000D01*
D32*
X223950000Y-46950000D02*
X224100000Y-46800000D01*
D34*
X240100000Y-51750000D02*
X240100000Y-51200000D01*
D29*
X217400000Y-76300000D02*
X217400000Y-78462000D01*
D32*
X219125000Y-62900000D02*
X218600000Y-62900000D01*
X240100000Y-69300000D02*
X240200000Y-69200000D01*
D31*
X216200000Y-46800000D02*
X216200000Y-58550489D01*
D36*
X204292500Y-73450000D02*
X204130000Y-73612500D01*
D32*
X196777748Y-79427748D02*
X199831796Y-79427748D01*
X235594000Y-72850000D02*
X235642000Y-72898000D01*
D34*
X195638057Y-74561943D02*
X194760020Y-75439980D01*
D32*
X241350000Y-53000000D02*
X242300000Y-53000000D01*
D34*
X195720000Y-71560000D02*
X195569645Y-71710355D01*
X194760020Y-75439980D02*
X194760020Y-78260020D01*
D32*
X240300000Y-75850000D02*
X239200978Y-75850000D01*
D31*
X243425000Y-65675000D02*
X243425000Y-55875000D01*
D29*
X236058000Y-72482000D02*
X235790489Y-72749511D01*
D32*
X196600000Y-67500000D02*
X195720000Y-68380000D01*
D31*
X214100000Y-52850000D02*
X215950000Y-52850000D01*
D29*
X235040000Y-73840000D02*
X235921000Y-74721000D01*
D32*
X200553567Y-43346433D02*
X204196433Y-43346433D01*
X223950000Y-48500000D02*
X223600000Y-48150000D01*
D31*
X217800000Y-56450000D02*
X217800000Y-56650000D01*
D34*
X200800000Y-75950000D02*
X200800000Y-72650000D01*
D32*
X197383746Y-75554970D02*
X197196992Y-75741724D01*
D31*
X221900000Y-57600000D02*
X222750000Y-57600000D01*
D34*
X205275000Y-44425000D02*
X202625000Y-44425000D01*
D33*
X212100000Y-61500000D02*
X211900000Y-61300000D01*
D29*
X238003922Y-78296078D02*
X237496078Y-78296078D01*
D33*
X211425000Y-60075000D02*
X211700000Y-59800000D01*
D31*
X202200000Y-75250000D02*
X200800000Y-76650000D01*
D34*
X199450000Y-51300000D02*
X196934241Y-51300000D01*
D36*
X210900000Y-72500000D02*
X210600000Y-72800000D01*
D33*
X213537500Y-63512500D02*
X213949511Y-63100489D01*
D36*
X220104000Y-77102000D02*
X218972000Y-77102000D01*
D34*
X218684000Y-80000000D02*
X222500000Y-80000000D01*
D32*
X229900000Y-51750000D02*
X229900000Y-50650000D01*
D29*
X232600000Y-69000000D02*
X232150000Y-68550000D01*
D37*
X208650000Y-71600000D02*
X207200000Y-71600000D01*
D32*
X199392401Y-79422769D02*
X196772769Y-79422769D01*
D33*
X216257500Y-63257500D02*
X217350000Y-63257500D01*
D34*
X200200040Y-47500000D02*
X200200040Y-49350040D01*
D29*
X228200000Y-77700000D02*
X229047000Y-78547000D01*
D31*
X210025000Y-53725000D02*
X209000000Y-52700000D01*
X208700000Y-54350000D02*
X222050000Y-54350000D01*
X212342011Y-61500000D02*
X213200000Y-62357989D01*
D29*
X219710000Y-77978000D02*
X217424000Y-77978000D01*
D32*
X230450000Y-48600000D02*
X230450000Y-50800000D01*
D33*
X212600000Y-58900000D02*
X212600000Y-59300000D01*
D36*
X210900000Y-73450000D02*
X206250000Y-73450000D01*
D32*
X234800000Y-66600000D02*
X236200489Y-68000489D01*
D34*
X200800000Y-78015170D02*
X200800000Y-76198100D01*
D32*
X217650000Y-61950000D02*
X218000000Y-61600000D01*
X231850000Y-67150000D02*
X233550000Y-67150000D01*
D34*
X194760020Y-50860020D02*
X194760020Y-58554221D01*
X213675000Y-45775000D02*
X214550000Y-46650000D01*
D29*
X237803922Y-78296078D02*
X238003922Y-78296078D01*
D32*
X239532593Y-46932593D02*
X239532593Y-46067407D01*
X221200000Y-50000000D02*
X222050000Y-50000000D01*
X222200000Y-49850000D02*
X218350000Y-49850000D01*
D36*
X212200000Y-72850000D02*
X212200000Y-72000000D01*
D29*
X206756000Y-65786000D02*
X207620000Y-66650000D01*
D36*
X217400000Y-75970000D02*
X212530000Y-75970000D01*
D34*
X236200489Y-68000489D02*
X237900489Y-68000489D01*
X195667120Y-50032880D02*
X194760020Y-49125779D01*
D32*
X194200000Y-47700000D02*
X194200000Y-43650000D01*
D36*
X200800000Y-74200000D02*
X198160000Y-71560000D01*
D31*
X220500000Y-55900000D02*
X220950000Y-55450000D01*
D32*
X227850000Y-55750000D02*
X227125000Y-56475000D01*
D35*
X213157500Y-63892500D02*
X214150000Y-62900000D01*
D32*
X195720000Y-66480000D02*
X195720000Y-68380000D01*
D36*
X217400000Y-75970000D02*
X211180000Y-75970000D01*
D33*
X219375000Y-59825000D02*
X220300000Y-58900000D01*
D31*
X205429772Y-71029772D02*
X200654772Y-75804772D01*
D33*
X213949511Y-63100489D02*
X213949511Y-63349022D01*
D36*
X206371000Y-70579000D02*
X206371000Y-71121000D01*
D29*
X207600000Y-51300000D02*
X209000000Y-52700000D01*
D31*
X215825000Y-47925000D02*
X215325000Y-47425000D01*
D33*
X212700000Y-57500000D02*
X214100000Y-58900000D01*
D29*
X222951309Y-79548691D02*
X222500000Y-80000000D01*
D32*
X217800000Y-47200000D02*
X217400000Y-46800000D01*
X239700000Y-70400000D02*
X239050000Y-69750000D01*
D33*
X214242500Y-66057500D02*
X214442989Y-66057500D01*
D32*
X238599511Y-69399511D02*
X242701467Y-69399511D01*
D34*
X212050000Y-59450000D02*
X212600000Y-58900000D01*
D29*
X207310000Y-60244000D02*
X206756000Y-60244000D01*
D31*
X215450000Y-51000000D02*
X214550000Y-51900000D01*
D33*
X213949511Y-65025489D02*
X213675000Y-65300000D01*
D29*
X235000000Y-68200000D02*
X233100000Y-68200000D01*
D32*
X238100000Y-51400000D02*
X238100000Y-48550000D01*
X239960000Y-72040000D02*
X239510000Y-71590000D01*
D36*
X208000000Y-71900000D02*
X206300000Y-71900000D01*
D29*
X236200489Y-68000489D02*
X231099511Y-68000489D01*
D36*
X211900000Y-72000000D02*
X211400000Y-72500000D01*
D32*
X198234863Y-80000000D02*
X199943966Y-78290897D01*
D33*
X216107500Y-66057500D02*
X216107500Y-63642500D01*
D34*
X221900000Y-57600000D02*
X218100000Y-57600000D01*
D33*
X215050000Y-64950000D02*
X214275000Y-64175000D01*
D35*
X211400000Y-75300000D02*
X211400000Y-73650000D01*
D32*
X218949511Y-58700489D02*
X218949511Y-58850489D01*
D31*
X214100000Y-52850000D02*
X214100000Y-52250000D01*
D29*
X206756000Y-63246000D02*
X206756000Y-60744000D01*
D32*
X242700489Y-68000489D02*
X243600489Y-67100489D01*
D31*
X216300000Y-49400000D02*
X216300000Y-56850000D01*
D29*
X223266000Y-77978000D02*
X222758000Y-77470000D01*
X215710000Y-77240000D02*
X215700000Y-77250000D01*
X224028000Y-77470000D02*
X221488000Y-77470000D01*
D35*
X212150000Y-63892500D02*
X212892500Y-63892500D01*
D33*
X213200000Y-60900000D02*
X213000000Y-60700000D01*
D31*
X210250000Y-78050000D02*
X203000000Y-78050000D01*
X212650000Y-46650000D02*
X212650000Y-58850000D01*
D32*
X235921000Y-74721000D02*
X235921000Y-74621000D01*
D33*
X216237500Y-62462500D02*
X216837500Y-62462500D01*
D32*
X215450000Y-51000000D02*
X215450000Y-49450000D01*
D35*
X216892000Y-77240000D02*
X213433000Y-77240000D01*
D32*
X195720000Y-65265759D02*
X194760020Y-64305779D01*
D31*
X195200548Y-43503414D02*
X195043567Y-43346433D01*
D32*
X197000000Y-58050000D02*
X197000000Y-56060000D01*
D36*
X210425000Y-75775000D02*
X210900000Y-76250000D01*
D32*
X204196433Y-43346433D02*
X205275000Y-44425000D01*
X243425000Y-47151000D02*
X243425000Y-53375000D01*
D34*
X197669960Y-49350040D02*
X196934241Y-50085759D01*
D32*
X242050000Y-73250000D02*
X241460000Y-73840000D01*
D36*
X204000000Y-76250000D02*
X203000000Y-75250000D01*
D29*
X236960000Y-73840000D02*
X238440000Y-73840000D01*
D31*
X222050000Y-50000000D02*
X222300000Y-49750000D01*
D29*
X236800000Y-75600000D02*
X236800000Y-76300000D01*
D36*
X206356250Y-70643750D02*
X207500000Y-69500000D01*
D34*
X200050000Y-80000000D02*
X200800000Y-79250000D01*
X199450000Y-51300000D02*
X200800000Y-51300000D01*
D33*
X215000000Y-65850000D02*
X215000000Y-62900000D01*
D35*
X211725000Y-73325000D02*
X211400000Y-73650000D01*
D32*
X194200000Y-60400000D02*
X194200000Y-59550000D01*
D31*
X224750000Y-52250000D02*
X217250000Y-52250000D01*
D34*
X196934241Y-50085759D02*
X197894221Y-49125779D01*
D32*
X238100000Y-49300978D02*
X238400489Y-49000489D01*
D31*
X201375000Y-44425000D02*
X201375000Y-45171681D01*
D33*
X215207500Y-63892500D02*
X215642500Y-63892500D01*
X214499511Y-65850000D02*
X214650000Y-65850000D01*
D36*
X203143750Y-70643750D02*
X206356250Y-70643750D01*
D31*
X224100000Y-46800000D02*
X224350000Y-46800000D01*
D32*
X240100000Y-50000000D02*
X239400000Y-50000000D01*
D33*
X203000000Y-64280000D02*
X203000000Y-58380000D01*
D29*
X217424000Y-77978000D02*
X217400000Y-77954000D01*
D34*
X200800000Y-72650000D02*
X200800000Y-74200000D01*
D32*
X216350000Y-50250000D02*
X216516547Y-50083453D01*
X212200000Y-76300000D02*
X211800000Y-76700000D01*
X243489222Y-78257128D02*
X243489222Y-76189222D01*
X234802000Y-72898000D02*
X235642000Y-72898000D01*
D29*
X218972000Y-77240000D02*
X218972000Y-77102000D01*
D35*
X211400000Y-71750000D02*
X211300000Y-71650000D01*
D32*
X240100000Y-70550000D02*
X240100000Y-70000000D01*
X232925000Y-68375000D02*
X232925000Y-66525000D01*
X237350000Y-69750000D02*
X239050000Y-69750000D01*
D31*
X221400000Y-51600000D02*
X221650000Y-51350000D01*
D35*
X211750000Y-72600000D02*
X211400000Y-72250000D01*
D32*
X235642000Y-72898000D02*
X234338000Y-72898000D01*
X243425000Y-52575000D02*
X243075000Y-52225000D01*
X215300000Y-53500000D02*
X215950000Y-52850000D01*
D31*
X217800000Y-51000000D02*
X219450000Y-51000000D01*
X227325000Y-45925000D02*
X213825000Y-45925000D01*
D33*
X213537500Y-64412500D02*
X213537500Y-64587500D01*
D29*
X207518000Y-64262000D02*
X206756000Y-65024000D01*
D33*
X212900000Y-61650000D02*
X214150000Y-62900000D01*
D32*
X222000000Y-51000000D02*
X221200000Y-51000000D01*
X212250000Y-47450000D02*
X211450000Y-46650000D01*
D34*
X213675000Y-44425000D02*
X213675000Y-45775000D01*
D36*
X204800000Y-69300000D02*
X204050000Y-69300000D01*
D32*
X234700000Y-73840000D02*
X233490000Y-73840000D01*
D31*
X223000000Y-51350000D02*
X223350000Y-51700000D01*
D34*
X209700000Y-57500000D02*
X209600000Y-57400000D01*
D29*
X236200489Y-68000489D02*
X236800000Y-68600000D01*
X208200000Y-57400000D02*
X207850000Y-57750000D01*
D35*
X211500000Y-65100000D02*
X211500000Y-63900000D01*
D32*
X194760020Y-44289980D02*
X195200548Y-43849452D01*
D35*
X211400000Y-72500000D02*
X211400000Y-72250000D01*
D36*
X206250000Y-73450000D02*
X204292500Y-73450000D01*
D34*
X197138057Y-74561943D02*
X195638057Y-74561943D01*
X204550000Y-47500000D02*
X205500000Y-47500000D01*
D33*
X214650000Y-65850000D02*
X215000000Y-65850000D01*
D32*
X217400000Y-47750000D02*
X217316587Y-47666587D01*
D31*
X220400000Y-49400000D02*
X219600000Y-49400000D01*
D29*
X239000489Y-78999511D02*
X238000000Y-80000000D01*
D33*
X213949511Y-63400489D02*
X213949511Y-63100489D01*
D32*
X239622939Y-76652997D02*
X240771211Y-75504725D01*
X241250000Y-48850000D02*
X241250000Y-48650000D01*
D33*
X215892500Y-64257500D02*
X215892500Y-63857500D01*
D32*
X221400000Y-51600000D02*
X221200000Y-51400000D01*
D34*
X216999511Y-60800489D02*
X216999511Y-62699511D01*
D32*
X233934000Y-74584000D02*
X233868000Y-74650000D01*
D29*
X242299511Y-68000489D02*
X243200000Y-68900978D01*
D36*
X211725000Y-73325000D02*
X212200000Y-72850000D01*
D29*
X216404000Y-77954000D02*
X215700000Y-77250000D01*
D32*
X236600000Y-49900000D02*
X237325000Y-50625000D01*
D36*
X212200000Y-72000000D02*
X212200000Y-71600000D01*
D29*
X237700000Y-70900000D02*
X235000000Y-68200000D01*
D32*
X218600000Y-62900000D02*
X217707500Y-62900000D01*
D33*
X220250000Y-58900000D02*
X213668630Y-58900000D01*
D38*
X240525000Y-61300000D02*
X242200000Y-61300000D01*
D33*
X214707011Y-66057500D02*
X214457011Y-65807500D01*
D32*
X196081783Y-76689591D02*
X197216404Y-75554970D01*
X232600000Y-66200000D02*
X232250000Y-65850000D01*
X237325000Y-50625000D02*
X238100000Y-51400000D01*
D31*
X212700000Y-56400000D02*
X210025000Y-53725000D01*
D32*
X217316587Y-50516587D02*
X217316587Y-49450000D01*
X238600000Y-48500000D02*
X238600000Y-46900000D01*
D34*
X242400000Y-62200000D02*
X242400000Y-63500000D01*
D36*
X207946000Y-69204000D02*
X207946000Y-69754000D01*
D32*
X239960000Y-73840000D02*
X239960000Y-71340000D01*
D35*
X205350000Y-72000000D02*
X205075000Y-72275000D01*
D31*
X216300000Y-50250000D02*
X216300000Y-54200000D01*
D32*
X218450000Y-59200000D02*
X218949511Y-58700489D01*
D29*
X243200000Y-73600000D02*
X243200000Y-75900000D01*
D31*
X198943797Y-43346433D02*
X200800000Y-45202636D01*
D32*
X231950000Y-50350000D02*
X233350000Y-51750000D01*
X218000000Y-61600000D02*
X218750000Y-60850000D01*
D31*
X212800000Y-51900000D02*
X212250000Y-52450000D01*
X221625000Y-54775000D02*
X222050000Y-54350000D01*
X195200548Y-43849452D02*
X195200548Y-43503414D01*
D32*
X224975000Y-48275000D02*
X223175000Y-48275000D01*
X232250000Y-46000000D02*
X231550000Y-46000000D01*
X224150000Y-49400000D02*
X222650000Y-49400000D01*
X194200000Y-43650000D02*
X194200000Y-43150040D01*
X201375000Y-44425000D02*
X200553567Y-43603567D01*
X232650000Y-46800000D02*
X232650000Y-48300000D01*
X221750000Y-56250000D02*
X221325000Y-55825000D01*
X218000000Y-47750000D02*
X217400000Y-47750000D01*
D31*
X222650000Y-49400000D02*
X220400000Y-49400000D01*
D32*
X238440000Y-70960000D02*
X238500000Y-70900000D01*
D34*
X237632658Y-45367342D02*
X236600000Y-46400000D01*
D29*
X236200000Y-69500000D02*
X236500000Y-69800000D01*
D32*
X194450000Y-60400000D02*
X195300000Y-59550000D01*
X224850000Y-49650000D02*
X224850000Y-50150000D01*
D31*
X214550000Y-56950000D02*
X219450000Y-56950000D01*
D33*
X212600000Y-58900000D02*
X212600000Y-58450000D01*
D32*
X222300000Y-49750000D02*
X222200000Y-49850000D01*
D33*
X213000000Y-60000000D02*
X213525000Y-59475000D01*
D29*
X238500000Y-70900000D02*
X238150000Y-70550000D01*
X229550000Y-69000000D02*
X228300000Y-70250000D01*
D33*
X213650000Y-59250000D02*
X213250000Y-59250000D01*
D31*
X209032000Y-78984000D02*
X203134000Y-78984000D01*
X231325000Y-45225000D02*
X231325000Y-46625000D01*
D29*
X219456000Y-77724000D02*
X218972000Y-77240000D01*
D35*
X213077000Y-77450000D02*
X213360000Y-77167000D01*
D36*
X204325000Y-69875000D02*
X206475000Y-69875000D01*
D34*
X218949511Y-58700489D02*
X221700489Y-58700489D01*
D32*
X242194682Y-79548691D02*
X242342885Y-79400489D01*
X195275000Y-63375000D02*
X194760020Y-62860020D01*
D29*
X236058000Y-72482000D02*
X236058000Y-74584000D01*
D32*
X225250000Y-51750000D02*
X225250000Y-52000000D01*
D33*
X216107500Y-63642500D02*
X216850000Y-62900000D01*
D31*
X222300000Y-49750000D02*
X222650000Y-49400000D01*
D29*
X239510000Y-73840000D02*
X239960000Y-73840000D01*
D31*
X197103567Y-43346433D02*
X195905518Y-44544482D01*
X217800000Y-54650000D02*
X217800000Y-55250000D01*
X200000020Y-47700020D02*
X200200040Y-47500000D01*
D29*
X240200000Y-80000000D02*
X240697382Y-80000000D01*
D33*
X213350000Y-64150000D02*
X213200000Y-64150000D01*
D36*
X204275000Y-69825000D02*
X204325000Y-69875000D01*
D31*
X217650000Y-53550000D02*
X218100000Y-53100000D01*
D34*
X213000000Y-58850000D02*
X212600000Y-58450000D01*
D29*
X204900000Y-49850000D02*
X207850000Y-49850000D01*
D33*
X215950489Y-61849511D02*
X216999511Y-60800489D01*
D32*
X233700000Y-65850000D02*
X235050000Y-65850000D01*
X243075000Y-52225000D02*
X242249511Y-51399511D01*
X236600000Y-46400000D02*
X236600000Y-49900000D01*
X216850000Y-62750000D02*
X217650000Y-61950000D01*
X196600000Y-65600000D02*
X195720000Y-66480000D01*
D34*
X196934241Y-51300000D02*
X196934241Y-50085759D01*
D31*
X221900000Y-58850000D02*
X224250000Y-56500000D01*
D32*
X241700489Y-72600489D02*
X242050000Y-72950000D01*
D31*
X198160000Y-71560000D02*
X203840960Y-71560000D01*
D34*
X199520000Y-47500000D02*
X200800000Y-47500000D01*
D31*
X221650000Y-51350000D02*
X223000000Y-51350000D01*
X217800000Y-56650000D02*
X216950000Y-57500000D01*
D32*
X224850000Y-50150000D02*
X225250000Y-50550000D01*
X237350000Y-77100000D02*
X238150000Y-76300000D01*
D37*
X207500000Y-69500000D02*
X207500000Y-70600000D01*
D32*
X226000000Y-52750000D02*
X226000000Y-51750000D01*
D33*
X214150000Y-62900000D02*
X214150000Y-62175000D01*
D36*
X212200000Y-76300000D02*
X216450000Y-76300000D01*
X206550000Y-72800000D02*
X206150000Y-72800000D01*
D34*
X210500000Y-80000000D02*
X211826000Y-80000000D01*
D32*
X238100000Y-48550000D02*
X238100000Y-47850000D01*
X223200000Y-47750000D02*
X222300000Y-47750000D01*
X239532593Y-46253169D02*
X239532593Y-46067407D01*
X219125000Y-58875978D02*
X218949511Y-58700489D01*
D34*
X237650000Y-46400000D02*
X238100000Y-46400000D01*
D32*
X242050000Y-71300000D02*
X242850000Y-71300000D01*
X223950000Y-48750000D02*
X224850000Y-49650000D01*
X230450000Y-47000000D02*
X230450000Y-48600000D01*
D29*
X237475000Y-73325000D02*
X237900489Y-72899511D01*
X236100000Y-80000000D02*
X237803922Y-78296078D01*
D34*
X209000000Y-52700000D02*
X209000000Y-49400000D01*
D32*
X242400000Y-70550000D02*
X241650000Y-70550000D01*
X235050000Y-47600000D02*
X236450000Y-47600000D01*
X200553567Y-43603567D02*
X200553567Y-43346433D01*
D37*
X244149980Y-80794980D02*
X244149980Y-42649980D01*
D31*
X200200040Y-47500000D02*
X200200040Y-44260080D01*
X205429772Y-71029772D02*
X204970228Y-71029772D01*
D32*
X243489222Y-76189222D02*
X243200000Y-75900000D01*
D34*
X205300000Y-50950000D02*
X207450000Y-50950000D01*
D31*
X214100000Y-50100000D02*
X214100000Y-49600000D01*
D33*
X213300000Y-65850000D02*
X214200000Y-64950000D01*
D31*
X226800000Y-53550000D02*
X227400000Y-52950000D01*
D33*
X213300000Y-58900000D02*
X213700000Y-58900000D01*
D36*
X210900000Y-74700000D02*
X205700000Y-74700000D01*
X207946000Y-69754000D02*
X207800000Y-69900000D01*
D32*
X225800000Y-47750000D02*
X224375000Y-49175000D01*
D29*
X194638221Y-73734221D02*
X194552422Y-73820020D01*
D32*
X233170000Y-74490000D02*
X233170000Y-73050000D01*
X194760020Y-49125779D02*
X194760020Y-44289980D01*
D33*
X213200000Y-61850000D02*
X213200000Y-60900000D01*
D36*
X208650000Y-71600000D02*
X208350000Y-71900000D01*
X207649511Y-65499511D02*
X207649511Y-64393511D01*
D32*
X226550000Y-47250000D02*
X227000000Y-46800000D01*
X237900489Y-72899511D02*
X237900489Y-71100489D01*
D31*
X242400000Y-64900000D02*
X242400000Y-66600000D01*
D32*
X229900000Y-50650000D02*
X229900000Y-50050000D01*
D36*
X207231511Y-65499511D02*
X206756000Y-65024000D01*
D34*
X199411943Y-74561943D02*
X197138057Y-74561943D01*
D31*
X200800000Y-71560000D02*
X202190000Y-72950000D01*
X213675000Y-57825000D02*
X211700000Y-59800000D01*
D34*
X236250000Y-51750000D02*
X233350000Y-51750000D01*
D36*
X195720000Y-71080000D02*
X196250000Y-70550000D01*
D29*
X237900489Y-68000489D02*
X237900489Y-79900489D01*
D32*
X195667698Y-78219645D02*
X196088840Y-77798503D01*
D34*
X233700000Y-46400000D02*
X235400000Y-46400000D01*
D31*
X214100000Y-47100000D02*
X215525000Y-45675000D01*
D36*
X219100000Y-76300000D02*
X219201000Y-76199000D01*
D31*
X216300000Y-54200000D02*
X217000000Y-54200000D01*
D33*
X213200000Y-64550000D02*
X213200000Y-65700000D01*
D31*
X217250000Y-52250000D02*
X214100000Y-52250000D01*
D34*
X200800000Y-46350000D02*
X209000000Y-46350000D01*
X234600000Y-68200000D02*
X235000000Y-68200000D01*
D32*
X242300000Y-53000000D02*
X242750000Y-52550000D01*
D29*
X200250000Y-52100000D02*
X199450000Y-51300000D01*
D32*
X241854691Y-79548691D02*
X242805980Y-80499980D01*
D29*
X243200000Y-69750000D02*
X243200000Y-70950000D01*
D31*
X200200040Y-44260080D02*
X199286393Y-43346433D01*
D34*
X234100000Y-46000000D02*
X235675000Y-44425000D01*
D32*
X241250000Y-71300000D02*
X241250000Y-73630000D01*
X218975000Y-56425000D02*
X223925000Y-56425000D01*
D35*
X211507500Y-63892500D02*
X212150000Y-63892500D01*
D33*
X213000000Y-60000000D02*
X213000000Y-60700000D01*
D34*
X194750000Y-80000000D02*
X197350000Y-80000000D01*
D29*
X236300000Y-79000000D02*
X229000000Y-79000000D01*
D32*
X231325000Y-46625000D02*
X231325000Y-51575000D01*
D33*
X212649511Y-61800489D02*
X212524511Y-61675489D01*
D29*
X209032000Y-78984000D02*
X208284000Y-78984000D01*
D32*
X218949511Y-58850489D02*
X216999511Y-60800489D01*
D33*
X213949511Y-63100489D02*
X213949511Y-64199511D01*
D32*
X241174046Y-47394753D02*
X241141450Y-47362157D01*
X238100000Y-49950000D02*
X237050000Y-48900000D01*
X242346909Y-74703091D02*
X242450000Y-74600000D01*
X230200000Y-51750000D02*
X229900000Y-51750000D01*
D34*
X209000000Y-46350000D02*
X209050000Y-46350000D01*
D32*
X217800000Y-51000000D02*
X218800000Y-51000000D01*
X240100000Y-70550000D02*
X239700000Y-70550000D01*
D31*
X215900000Y-54650000D02*
X215300000Y-54050000D01*
D29*
X240490000Y-73840000D02*
X241460000Y-73840000D01*
D34*
X221900000Y-58500978D02*
X221700489Y-58700489D01*
D31*
X229225000Y-46225000D02*
X228925000Y-45925000D01*
D33*
X214150000Y-64950000D02*
X213350000Y-64150000D01*
D29*
X207850000Y-59650000D02*
X208475000Y-60275000D01*
D33*
X213200000Y-64150000D02*
X213949511Y-63400489D01*
D32*
X214550000Y-48550000D02*
X216516547Y-48550000D01*
D34*
X204550000Y-50200000D02*
X207250000Y-47500000D01*
D33*
X213949511Y-65300000D02*
X214499511Y-65850000D01*
D29*
X216906000Y-78984000D02*
X209032000Y-78984000D01*
D36*
X207050000Y-69300000D02*
X208042000Y-69300000D01*
D33*
X212800000Y-60500000D02*
X213000000Y-60700000D01*
D32*
X223175000Y-48275000D02*
X223000000Y-48450000D01*
D34*
X242400000Y-54050000D02*
X242400000Y-62200000D01*
D29*
X206756000Y-60744000D02*
X207850000Y-59650000D01*
D32*
X199831796Y-79427748D02*
X199943966Y-79315578D01*
X196400000Y-52350000D02*
X196400000Y-58450000D01*
X225250000Y-50550000D02*
X225250000Y-48550000D01*
X208200000Y-51800000D02*
X209000000Y-51000000D01*
D31*
X203134000Y-78984000D02*
X202600000Y-78450000D01*
D34*
X200800000Y-51300000D02*
X204550000Y-47550000D01*
D32*
X231950000Y-47600000D02*
X231950000Y-50350000D01*
D31*
X220500000Y-53150000D02*
X219450000Y-52100000D01*
D32*
X236800000Y-75600000D02*
X238950978Y-75600000D01*
D35*
X206700000Y-70650000D02*
X206150000Y-71200000D01*
D31*
X223350000Y-54300000D02*
X223300000Y-54350000D01*
D33*
X213550000Y-65700000D02*
X213907500Y-66057500D01*
X213200000Y-66050000D02*
X213200000Y-65950000D01*
D31*
X223925000Y-56425000D02*
X225575000Y-54775000D01*
D29*
X208050000Y-48500000D02*
X207150000Y-47600000D01*
D32*
X196088840Y-77798503D02*
X196084039Y-77405695D01*
X243286020Y-43566020D02*
X242700020Y-42980020D01*
D36*
X210900000Y-77750000D02*
X210900000Y-77400000D01*
D32*
X232650000Y-51050000D02*
X233350000Y-51750000D01*
D31*
X198942019Y-43346433D02*
X198943797Y-43346433D01*
D34*
X194760020Y-78260020D02*
X195250000Y-78750000D01*
D33*
X216292500Y-65692011D02*
X216292500Y-64192500D01*
X220300000Y-58850000D02*
X220350000Y-58900000D01*
D32*
X197196992Y-75741724D02*
X195061764Y-75741724D01*
X223925000Y-56425000D02*
X223275000Y-56425000D01*
D34*
X215525000Y-45675000D02*
X216775000Y-44425000D01*
D29*
X231899511Y-68800489D02*
X231999511Y-68900489D01*
D32*
X213525000Y-59475000D02*
X213525000Y-62275000D01*
X216000000Y-47750000D02*
X215825000Y-47925000D01*
D34*
X234575000Y-44425000D02*
X231325000Y-44425000D01*
D35*
X212267000Y-77167000D02*
X211800000Y-76700000D01*
D32*
X242700020Y-42980020D02*
X243480020Y-42980020D01*
D31*
X217800000Y-56450000D02*
X215650000Y-56450000D01*
D29*
X242440000Y-73840000D02*
X242960000Y-73840000D01*
D35*
X211300000Y-76754000D02*
X211973000Y-77427000D01*
D33*
X213000000Y-61500000D02*
X213000000Y-60700000D01*
D29*
X232150000Y-68550000D02*
X229550000Y-68550000D01*
D31*
X202190000Y-72950000D02*
X203050000Y-72950000D01*
D32*
X233200000Y-47600000D02*
X237300000Y-47600000D01*
X239510000Y-73840000D02*
X239510000Y-71590000D01*
D29*
X206756000Y-63246000D02*
X206756000Y-62992000D01*
D32*
X241250000Y-48650000D02*
X240550000Y-47950000D01*
D31*
X222000000Y-51000000D02*
X209000000Y-51000000D01*
D29*
X236800000Y-78500000D02*
X236500000Y-78800000D01*
D32*
X241350000Y-69750000D02*
X240700000Y-69750000D01*
D35*
X211400000Y-72250000D02*
X211550000Y-72100000D01*
D34*
X224038000Y-80000000D02*
X225400000Y-80000000D01*
D32*
X196800000Y-58050000D02*
X197000000Y-58050000D01*
D36*
X203143750Y-70643750D02*
X205706250Y-70643750D01*
X201850000Y-70950000D02*
X194110020Y-70950000D01*
D31*
X214550000Y-46650000D02*
X214550000Y-48550000D01*
D32*
X194947154Y-43250020D02*
X195200548Y-43503414D01*
X240641456Y-79391456D02*
X242204948Y-79391456D01*
D33*
X215642500Y-65807500D02*
X215600000Y-65850000D01*
D31*
X202600000Y-78450000D02*
X202600000Y-80000000D01*
D32*
X213525000Y-62275000D02*
X214150000Y-62900000D01*
X214750000Y-48750000D02*
X214550000Y-48550000D01*
D29*
X240000489Y-47400489D02*
X239100489Y-47400489D01*
D31*
X199286393Y-43346433D02*
X197103567Y-43346433D01*
X223300000Y-51000000D02*
X223300000Y-53100000D01*
D32*
X242346909Y-75504725D02*
X243470705Y-76628521D01*
X243900020Y-43400020D02*
X243900020Y-79100020D01*
D36*
X210900000Y-72500000D02*
X206650000Y-72500000D01*
D32*
X235900000Y-74600000D02*
X233400000Y-74600000D01*
X224375000Y-49175000D02*
X224150000Y-49400000D01*
D29*
X216525000Y-79365000D02*
X215890000Y-80000000D01*
D34*
X200800000Y-47500000D02*
X202450000Y-47500000D01*
D31*
X226590000Y-50050000D02*
X226590000Y-46930000D01*
D37*
X243900020Y-80719980D02*
X243975020Y-80794980D01*
D32*
X239050000Y-69750000D02*
X243200000Y-69750000D01*
X243900020Y-42980020D02*
X243900020Y-43400020D01*
D34*
X218100000Y-57600000D02*
X214200000Y-57600000D01*
D29*
X236800000Y-74600000D02*
X242000000Y-74600000D01*
D35*
X205075000Y-72275000D02*
X203100000Y-74250000D01*
D31*
X225100000Y-51750000D02*
X225100000Y-51900000D01*
D29*
X206756000Y-65024000D02*
X206756000Y-63246000D01*
D32*
X231950000Y-47600000D02*
X230950000Y-47600000D01*
D33*
X214350000Y-64600000D02*
X214900000Y-64600000D01*
D32*
X218450000Y-62050000D02*
X218450000Y-59200000D01*
D36*
X210900000Y-77400000D02*
X210900000Y-76600000D01*
D29*
X208444000Y-60244000D02*
X207310000Y-60244000D01*
D33*
X213300000Y-65850000D02*
X213200000Y-65950000D01*
D34*
X235675000Y-44425000D02*
X234575000Y-44425000D01*
D33*
X214850245Y-64249755D02*
X214857990Y-64257500D01*
D34*
X211700000Y-59800000D02*
X212050000Y-59450000D01*
D31*
X231325000Y-44425000D02*
X231725000Y-44425000D01*
D36*
X195720000Y-71560000D02*
X195720000Y-71080000D01*
X242200000Y-61300000D02*
X242400000Y-61100000D01*
D33*
X213862500Y-64062500D02*
X213537500Y-63737500D01*
D29*
X206756000Y-60244000D02*
X209600000Y-57400000D01*
D34*
X202600000Y-80000000D02*
X206600000Y-80000000D01*
D36*
X205750456Y-73950000D02*
X204467500Y-73950000D01*
D31*
X219450000Y-52100000D02*
X219450000Y-56200000D01*
D33*
X218700000Y-60500000D02*
X219375000Y-59825000D01*
D36*
X241500000Y-61300000D02*
X242400000Y-62200000D01*
D31*
X223350000Y-51000000D02*
X223350000Y-51700000D01*
X217000000Y-54200000D02*
X217650000Y-53550000D01*
D33*
X213949511Y-65025489D02*
X213949511Y-64999511D01*
D32*
X195720000Y-54780000D02*
X195720000Y-56380000D01*
X222250000Y-49800000D02*
X222300000Y-49750000D01*
X242750000Y-52550000D02*
X243075000Y-52225000D01*
D29*
X229000000Y-79000000D02*
X228800000Y-78800000D01*
D32*
X218300000Y-50700000D02*
X216750000Y-50700000D01*
D33*
X212900000Y-60700000D02*
X212900000Y-61650000D01*
D29*
X233934000Y-74584000D02*
X236058000Y-74584000D01*
D36*
X218900000Y-77470000D02*
X217400000Y-75970000D01*
D31*
X223300000Y-54350000D02*
X223350000Y-54350000D01*
X215300000Y-54050000D02*
X214100000Y-52850000D01*
D32*
X227850000Y-52500000D02*
X227850000Y-53300000D01*
D29*
X233900000Y-69500000D02*
X236200000Y-69500000D01*
D32*
X219450000Y-49250000D02*
X220250000Y-48450000D01*
X243900020Y-79100020D02*
X243900020Y-80719980D01*
X218600000Y-62900000D02*
X217650000Y-61950000D01*
D31*
X220950000Y-55450000D02*
X221625000Y-54775000D01*
D32*
X196205779Y-64305779D02*
X196600000Y-64700000D01*
D33*
X213949511Y-64199511D02*
X213949511Y-65200489D01*
D29*
X236800000Y-68600000D02*
X236800000Y-69200000D01*
D32*
X239604479Y-76545521D02*
X239604479Y-78354479D01*
X223950000Y-51000000D02*
X223950000Y-47200000D01*
D29*
X239000489Y-77599511D02*
X239000489Y-78999511D01*
D31*
X214100000Y-56400000D02*
X212700000Y-56400000D01*
D29*
X242554203Y-47919519D02*
X242367342Y-47732658D01*
D34*
X209600000Y-51250000D02*
X209600000Y-48500000D01*
D36*
X209900000Y-75750000D02*
X209900000Y-77700000D01*
X208706000Y-60244000D02*
X210244000Y-60244000D01*
D32*
X234600000Y-66600000D02*
X233850000Y-65850000D01*
D31*
X228300000Y-71300000D02*
X228300000Y-70250000D01*
D32*
X224450000Y-47750000D02*
X224000000Y-47750000D01*
X242333607Y-43346433D02*
X242700020Y-42980020D01*
D29*
X221488000Y-77470000D02*
X222758000Y-77470000D01*
D31*
X225100000Y-51900000D02*
X224750000Y-52250000D01*
D33*
X213200000Y-64150000D02*
X213200000Y-64550000D01*
D29*
X207850000Y-49850000D02*
X209000000Y-51000000D01*
D32*
X217316587Y-48266587D02*
X217316587Y-46800000D01*
D33*
X211425000Y-61375000D02*
X211425000Y-61075000D01*
X213200000Y-65348478D02*
X213014022Y-65162500D01*
D32*
X194760020Y-62710020D02*
X194760020Y-60089980D01*
D33*
X213000000Y-59600000D02*
X213000000Y-59200000D01*
D32*
X236600000Y-51400000D02*
X236250000Y-51750000D01*
D34*
X211846000Y-80000000D02*
X215890000Y-80000000D01*
D33*
X213949511Y-63100489D02*
X213537500Y-62688478D01*
D29*
X237496078Y-78296078D02*
X236800000Y-77600000D01*
D32*
X229900000Y-51400000D02*
X230475000Y-50825000D01*
D33*
X211700000Y-60850978D02*
X211700000Y-59800000D01*
D31*
X214550000Y-51900000D02*
X214550000Y-55000000D01*
D36*
X219201000Y-76199000D02*
X220472000Y-77470000D01*
D33*
X211425000Y-61075000D02*
X211425000Y-60075000D01*
D36*
X206650000Y-72500000D02*
X205750000Y-71600000D01*
D34*
X200800000Y-49150000D02*
X202450000Y-47500000D01*
D32*
X194750000Y-80000000D02*
X194750000Y-80150000D01*
D34*
X242400000Y-54050000D02*
X241350000Y-53000000D01*
D33*
X213650000Y-62400000D02*
X214150000Y-62900000D01*
X216837500Y-62462500D02*
X218700000Y-60600000D01*
D32*
X236800000Y-76300000D02*
X238150000Y-76300000D01*
D31*
X227000000Y-46800000D02*
X232650000Y-46800000D01*
D32*
X194760020Y-62860020D02*
X194760020Y-60089980D01*
D29*
X236800000Y-78500000D02*
X236800000Y-79300000D01*
D31*
X221550000Y-57600000D02*
X223850000Y-55300000D01*
D34*
X207150000Y-47600000D02*
X207250000Y-47500000D01*
X231150000Y-51750000D02*
X229900000Y-51750000D01*
D32*
X241250000Y-73630000D02*
X241460000Y-73840000D01*
D34*
X209050000Y-46350000D02*
X210975000Y-44425000D01*
D31*
X214700000Y-46800000D02*
X216200000Y-46800000D01*
D34*
X241300000Y-50450000D02*
X242100489Y-51250489D01*
D32*
X221200000Y-51000000D02*
X220425000Y-50225000D01*
D31*
X213275000Y-53725000D02*
X210975000Y-53725000D01*
D29*
X236800000Y-79300000D02*
X236100000Y-80000000D01*
D32*
X217800000Y-48450000D02*
X220250000Y-48450000D01*
X216975000Y-76825000D02*
X216450000Y-76300000D01*
D36*
X206756000Y-60744000D02*
X207944000Y-60744000D01*
D32*
X223100000Y-56250000D02*
X221750000Y-56250000D01*
D34*
X200800000Y-75950000D02*
X198000000Y-73150000D01*
D35*
X202700000Y-77150000D02*
X202700000Y-77450000D01*
D36*
X210570000Y-74120000D02*
X210900000Y-74450000D01*
D31*
X216400000Y-55900000D02*
X218100000Y-57600000D01*
D36*
X206300000Y-71900000D02*
X205429772Y-71029772D01*
D32*
X209700000Y-58000000D02*
X210600000Y-58000000D01*
X223950000Y-47200000D02*
X224350000Y-46800000D01*
D34*
X196934241Y-51300000D02*
X195667120Y-50032880D01*
D31*
X199399452Y-47620548D02*
X196991584Y-47620548D01*
D32*
X226550000Y-50050000D02*
X226000000Y-50050000D01*
X199943966Y-79315578D02*
X199943966Y-76683686D01*
D36*
X203550000Y-75400000D02*
X210050000Y-75400000D01*
D34*
X240500000Y-49600000D02*
X241250000Y-48850000D01*
D36*
X197710000Y-72010000D02*
X198160000Y-71560000D01*
D32*
X219295009Y-63070009D02*
X219125000Y-62900000D01*
X238100000Y-47850000D02*
X238100000Y-46400000D01*
X233918000Y-74600000D02*
X233400000Y-74600000D01*
D31*
X216200000Y-46800000D02*
X217400000Y-46800000D01*
D32*
X239700000Y-70550000D02*
X239700000Y-70400000D01*
X216300000Y-50250000D02*
X216866587Y-50250000D01*
D37*
X207800000Y-69900000D02*
X207800000Y-71700000D01*
D32*
X241250000Y-71300000D02*
X242050000Y-71300000D01*
X235050000Y-47600000D02*
X233200000Y-47600000D01*
X239960000Y-73840000D02*
X239960000Y-71890000D01*
D29*
X208475000Y-60275000D02*
X212475000Y-60275000D01*
D31*
X195905518Y-46534482D02*
X195905518Y-47596614D01*
D33*
X212600000Y-60300000D02*
X213000000Y-60700000D01*
D34*
X194760020Y-73734221D02*
X194760020Y-69789980D01*
D36*
X206500000Y-71250000D02*
X206850000Y-71250000D01*
D33*
X215357500Y-66057500D02*
X215357500Y-63257500D01*
D32*
X226550000Y-50050000D02*
X226550000Y-47250000D01*
D34*
X220300000Y-57600000D02*
X220300000Y-58600489D01*
D32*
X226800000Y-53550000D02*
X226000000Y-52750000D01*
D33*
X213949511Y-63499511D02*
X213949511Y-63100489D01*
D29*
X239000489Y-68000489D02*
X239000489Y-72600489D01*
X208237500Y-58762500D02*
X207850000Y-59150000D01*
D35*
X212892500Y-64307500D02*
X211907500Y-64307500D01*
D31*
X195905518Y-46534482D02*
X197656036Y-48285000D01*
D36*
X197050000Y-73150000D02*
X197050000Y-71700000D01*
D35*
X213360000Y-77167000D02*
X215900000Y-77167000D01*
D36*
X204130000Y-74120000D02*
X210570000Y-74120000D01*
D33*
X213550000Y-65700000D02*
X214750000Y-65700000D01*
D32*
X241005778Y-43569713D02*
X240619971Y-43569713D01*
D36*
X205129544Y-72329544D02*
X204130000Y-72329544D01*
D32*
X194718680Y-48218680D02*
X194200000Y-47700000D01*
X243403272Y-44651118D02*
X242268109Y-43515955D01*
X223925000Y-56425000D02*
X221925000Y-56425000D01*
D29*
X238440000Y-73840000D02*
X239510000Y-73840000D01*
D32*
X219125000Y-62725000D02*
X218450000Y-62050000D01*
D33*
X216292500Y-66057500D02*
X213207500Y-66057500D01*
D29*
X232349511Y-69250489D02*
X232599022Y-69500000D01*
D31*
X212650000Y-58850000D02*
X212050000Y-59450000D01*
D32*
X237325000Y-47575000D02*
X237325000Y-46725000D01*
D34*
X200800000Y-76198100D02*
X197751900Y-73150000D01*
D33*
X214150000Y-62175000D02*
X213537500Y-61562500D01*
D29*
X239000489Y-75649511D02*
X239000489Y-76299511D01*
D31*
X204130000Y-72329544D02*
X204350000Y-72109544D01*
D32*
X237700000Y-43650000D02*
X236450000Y-43650000D01*
X222300000Y-49750000D02*
X223800000Y-49750000D01*
X232925000Y-66525000D02*
X232600000Y-66200000D01*
X216516547Y-48550000D02*
X216516547Y-49400000D01*
X240300000Y-75850000D02*
X239604479Y-76545521D01*
X234338000Y-72898000D02*
X234290000Y-72850000D01*
D29*
X217400000Y-77240000D02*
X217400000Y-77954000D01*
D32*
X237150000Y-69550000D02*
X237350000Y-69750000D01*
D31*
X204130000Y-73612500D02*
X204130000Y-74120000D01*
X231325000Y-44425000D02*
X231325000Y-45225000D01*
D36*
X206371000Y-71121000D02*
X206500000Y-71250000D01*
D32*
X229300000Y-56475000D02*
X224275000Y-56475000D01*
X233170000Y-73050000D02*
X233370000Y-72850000D01*
X241174046Y-47394753D02*
X242257402Y-47394753D01*
D34*
X229900000Y-51750000D02*
X226000000Y-51750000D01*
D31*
X214300000Y-49400000D02*
X214100000Y-49600000D01*
D32*
X220250000Y-48450000D02*
X223000000Y-48450000D01*
D36*
X203550000Y-75400000D02*
X203650000Y-75400000D01*
D29*
X217400000Y-78716000D02*
X218684000Y-80000000D01*
D31*
X220500000Y-55900000D02*
X220500000Y-53150000D01*
D33*
X213000000Y-59500000D02*
X213000000Y-59300000D01*
D34*
X234600000Y-66600000D02*
X234600000Y-68200000D01*
D33*
X213250000Y-59250000D02*
X213000000Y-59500000D01*
D32*
X239000489Y-72600489D02*
X241700489Y-72600489D01*
D29*
X235921000Y-74721000D02*
X236800000Y-75600000D01*
D32*
X242000000Y-74600000D02*
X241500000Y-75100000D01*
D36*
X208350000Y-71900000D02*
X208000000Y-71900000D01*
D29*
X217400000Y-77954000D02*
X217400000Y-78462000D01*
D34*
X235675000Y-44425000D02*
X237650000Y-46400000D01*
D32*
X195061764Y-75741724D02*
X194760020Y-75439980D01*
D34*
X200800000Y-51300000D02*
X200800000Y-47500000D01*
D31*
X216650000Y-53550000D02*
X215950000Y-52850000D01*
D33*
X216257500Y-63257500D02*
X218967500Y-63257500D01*
D35*
X208200000Y-66400000D02*
X208200000Y-64342000D01*
D33*
X213900000Y-58900000D02*
X212600000Y-58900000D01*
D36*
X210900000Y-76250000D02*
X210900000Y-74700000D01*
D33*
X214700000Y-64950000D02*
X214575000Y-64825000D01*
D32*
X195569645Y-78219645D02*
X195667698Y-78219645D01*
X226200000Y-50650000D02*
X225800000Y-50250000D01*
D29*
X209000000Y-52700000D02*
X208400000Y-52100000D01*
D34*
X212600000Y-58900000D02*
X212799511Y-58700489D01*
D29*
X209084000Y-78932000D02*
X209032000Y-78984000D01*
D31*
X232650000Y-46800000D02*
X234100000Y-46800000D01*
X204970228Y-71029772D02*
X203050000Y-72950000D01*
D33*
X214900000Y-64600000D02*
X215050245Y-64449755D01*
X213949511Y-65300000D02*
X214350000Y-65300000D01*
D31*
X225575000Y-54775000D02*
X226800000Y-53550000D01*
D33*
X213000000Y-59300000D02*
X212600000Y-58900000D01*
D32*
X237400000Y-71300000D02*
X240550000Y-71300000D01*
D33*
X212800000Y-59500000D02*
X212600000Y-59300000D01*
D29*
X201490000Y-71560000D02*
X200800000Y-71560000D01*
D31*
X220950000Y-52500000D02*
X219450000Y-51000000D01*
D34*
X212650000Y-46650000D02*
X214550000Y-46650000D01*
D33*
X220300000Y-58900000D02*
X220300000Y-58850000D01*
X213700000Y-58900000D02*
X213000000Y-59600000D01*
D35*
X212892500Y-64792500D02*
X212892500Y-65067500D01*
D29*
X236800000Y-70100000D02*
X236800000Y-71300000D01*
D32*
X237900489Y-71100489D02*
X237700000Y-70900000D01*
D29*
X209846000Y-79346000D02*
X210500000Y-80000000D01*
D35*
X208200000Y-68300000D02*
X208200000Y-66400000D01*
D36*
X210900000Y-72500000D02*
X210900000Y-71900000D01*
D30*
X212150000Y-65162500D02*
X213537500Y-65162500D01*
D32*
X242204948Y-79391456D02*
X242299511Y-79296893D01*
X197196992Y-75741724D02*
X197599962Y-75599925D01*
D36*
X218752000Y-75750000D02*
X219201000Y-76199000D01*
D35*
X211300000Y-77750000D02*
X211650000Y-77750000D01*
D32*
X230950000Y-50500000D02*
X231200000Y-50750000D01*
D34*
X240100000Y-51200000D02*
X240100000Y-50000000D01*
D33*
X214150000Y-62900000D02*
X213200000Y-61950000D01*
D32*
X237325000Y-50625000D02*
X237325000Y-49325000D01*
X208700000Y-54350000D02*
X208700000Y-58300000D01*
D34*
X226800000Y-80000000D02*
X228100000Y-80000000D01*
D32*
X238750978Y-76300000D02*
X239200978Y-75850000D01*
D29*
X227099511Y-79700489D02*
X226800000Y-80000000D01*
D34*
X202450000Y-47500000D02*
X204550000Y-47500000D01*
D33*
X213650000Y-61750000D02*
X213749511Y-61849511D01*
D32*
X237050000Y-48900000D02*
X237050000Y-47000000D01*
D29*
X236500000Y-69800000D02*
X236500000Y-78800000D01*
D31*
X208237500Y-58762500D02*
X208237500Y-58796745D01*
D34*
X194760020Y-49125779D02*
X194760020Y-50860020D01*
D32*
X224375000Y-49175000D02*
X223950000Y-48750000D01*
X216516547Y-47925000D02*
X216516547Y-47750000D01*
D31*
X217800000Y-54650000D02*
X215900000Y-54650000D01*
D29*
X219456000Y-77724000D02*
X218948000Y-78232000D01*
D36*
X199210000Y-72010000D02*
X200800000Y-73600000D01*
X204275000Y-69825000D02*
X204800000Y-69300000D01*
D35*
X211400000Y-72250000D02*
X211400000Y-71750000D01*
D33*
X216000000Y-65850000D02*
X216050000Y-65900000D01*
D29*
X236800000Y-72200000D02*
X236800000Y-73200000D01*
X207620000Y-66650000D02*
X207650000Y-66650000D01*
D31*
X219450000Y-56200000D02*
X218150000Y-57500000D01*
X195200548Y-47620548D02*
X195200548Y-43849452D01*
D32*
X226000000Y-50050000D02*
X225800000Y-50250000D01*
D36*
X210900000Y-76600000D02*
X210900000Y-76250000D01*
D32*
X239400000Y-50000000D02*
X238400489Y-49000489D01*
D33*
X213850489Y-62600489D02*
X214150000Y-62900000D01*
D32*
X243900020Y-80719980D02*
X243130020Y-80719980D01*
X233550000Y-66000000D02*
X233700000Y-65850000D01*
D33*
X212600000Y-59300000D02*
X212600000Y-60300000D01*
D29*
X218069000Y-76825000D02*
X218313000Y-76581000D01*
X236630489Y-74930489D02*
X236800000Y-75100000D01*
D33*
X213450000Y-65700000D02*
X213300000Y-65850000D01*
D36*
X210400000Y-75250000D02*
X204100000Y-75250000D01*
D31*
X219450000Y-56950000D02*
X220500000Y-55900000D01*
D34*
X225250000Y-51750000D02*
X224750000Y-52250000D01*
X195720000Y-56380000D02*
X195720000Y-57594241D01*
D32*
X225800000Y-47750000D02*
X223200000Y-47750000D01*
X240100000Y-70000000D02*
X240100000Y-69300000D01*
X238100000Y-49950000D02*
X238100000Y-49300978D01*
D31*
X223950000Y-51000000D02*
X223950000Y-53750000D01*
D32*
X211700000Y-60857989D02*
X212342011Y-61500000D01*
X223600000Y-48150000D02*
X223200000Y-47750000D01*
X239532593Y-44657091D02*
X240372342Y-43817342D01*
X198815251Y-75554970D02*
X197383746Y-75554970D01*
D33*
X213537500Y-64412500D02*
X214287500Y-64412500D01*
D32*
X236800000Y-77100000D02*
X237350000Y-77100000D01*
D34*
X200800000Y-71560000D02*
X200800000Y-72650000D01*
D29*
X217400000Y-78490000D02*
X216906000Y-78984000D01*
D32*
X243470705Y-76628521D02*
X242360862Y-75518678D01*
X229975000Y-46525000D02*
X230450000Y-47000000D01*
D36*
X210450000Y-75750000D02*
X210425000Y-75775000D01*
D29*
X207500000Y-52100000D02*
X200250000Y-52100000D01*
D32*
X197338791Y-75599925D02*
X197196992Y-75741724D01*
X195569645Y-78219645D02*
X196777748Y-79427748D01*
X238200000Y-77100000D02*
X239000489Y-76299511D01*
X244074980Y-42700000D02*
X244074980Y-43225060D01*
D34*
X227125000Y-56475000D02*
X227125000Y-55175000D01*
X195720000Y-51300000D02*
X198735000Y-48285000D01*
D31*
X216200000Y-58550489D02*
X216050000Y-58700489D01*
D32*
X216516547Y-48550000D02*
X216516547Y-45925000D01*
D33*
X213537500Y-61337500D02*
X212900000Y-60700000D01*
X213000000Y-59200000D02*
X213100000Y-59100000D01*
D29*
X209846000Y-78952000D02*
X209846000Y-79346000D01*
D32*
X242249511Y-52199511D02*
X243425000Y-53375000D01*
D35*
X211650000Y-77750000D02*
X211973000Y-77427000D01*
D29*
X225900000Y-80000000D02*
X225288000Y-80000000D01*
D34*
X227125000Y-56475000D02*
X223975000Y-56475000D01*
D32*
X223150000Y-54500000D02*
X223150000Y-54350000D01*
D36*
X210900000Y-74700000D02*
X210900000Y-74450000D01*
D32*
X227125000Y-54025000D02*
X227850000Y-53300000D01*
D34*
X229300000Y-56475000D02*
X229300000Y-57900000D01*
D32*
X236600000Y-46400000D02*
X236600000Y-50600000D01*
D34*
X225400000Y-80000000D02*
X226800000Y-80000000D01*
D31*
X229975000Y-46575000D02*
X229575000Y-46575000D01*
D34*
X216775000Y-44425000D02*
X213675000Y-44425000D01*
D33*
X213200000Y-65950000D02*
X213200000Y-65700000D01*
D32*
X218450000Y-62050000D02*
X218000000Y-61600000D01*
X229900000Y-50650000D02*
X226200000Y-50650000D01*
D37*
X207200000Y-71600000D02*
X206850000Y-71250000D01*
D32*
X239182658Y-46582658D02*
X240000489Y-47400489D01*
D31*
X195905518Y-47596614D02*
X195929452Y-47620548D01*
D29*
X203450000Y-51300000D02*
X204900000Y-49850000D01*
X216892000Y-77240000D02*
X215710000Y-77240000D01*
X242960000Y-73840000D02*
X243200000Y-73600000D01*
D33*
X212600000Y-60700000D02*
X212900000Y-60700000D01*
X214800489Y-65700000D02*
X213949511Y-64849022D01*
D32*
X242342885Y-79400489D02*
X240767788Y-79400489D01*
D35*
X211400000Y-73650000D02*
X211400000Y-72500000D01*
D33*
X213749022Y-62900000D02*
X214150000Y-62900000D01*
X213450000Y-63600000D02*
X213450000Y-65700000D01*
D29*
X236800000Y-73200000D02*
X236800000Y-74600000D01*
D32*
X194200000Y-60400000D02*
X194450000Y-60400000D01*
D36*
X210900000Y-74700000D02*
X210400000Y-75200000D01*
D31*
X213675000Y-45775000D02*
X213675000Y-57825000D01*
D32*
X226590000Y-50050000D02*
X226550000Y-50050000D01*
D31*
X242400000Y-54050000D02*
X242400000Y-55300000D01*
D29*
X237400000Y-68600000D02*
X236800000Y-69200000D01*
D31*
X240300000Y-49400000D02*
X240500000Y-49600000D01*
D32*
X196380020Y-80719980D02*
X243900020Y-80719980D01*
D34*
X194750000Y-76806420D02*
X194750000Y-80000000D01*
D32*
X234100000Y-46000000D02*
X229000000Y-46000000D01*
D34*
X210600000Y-47500000D02*
X211450000Y-46650000D01*
D32*
X240550000Y-47950000D02*
X240618799Y-47950000D01*
D33*
X213525000Y-59475000D02*
X213700000Y-59300000D01*
D32*
X216866587Y-50250000D02*
X217316587Y-49800000D01*
X207500000Y-52100000D02*
X207500000Y-60054000D01*
D33*
X213949511Y-64500489D02*
X213949511Y-63100489D01*
D29*
X217212000Y-78650000D02*
X217400000Y-78462000D01*
D31*
X220300000Y-57600000D02*
X221550000Y-57600000D01*
D33*
X213200000Y-65700000D02*
X213550000Y-65700000D01*
X214157500Y-65807500D02*
X213907500Y-66057500D01*
D31*
X243425000Y-55875000D02*
X243425000Y-53375000D01*
D32*
X236600000Y-47900000D02*
X238100000Y-46400000D01*
D31*
X203000000Y-78050000D02*
X203000000Y-75250000D01*
D32*
X237325000Y-46725000D02*
X237650000Y-46400000D01*
D35*
X207475000Y-66075000D02*
X207045000Y-66075000D01*
D32*
X232250000Y-65850000D02*
X230950000Y-67150000D01*
D29*
X203450000Y-51300000D02*
X207600000Y-51300000D01*
D33*
X213537500Y-64587500D02*
X213537500Y-65162500D01*
D34*
X214100000Y-57500000D02*
X214100000Y-58700489D01*
D29*
X207310000Y-64054000D02*
X207518000Y-64262000D01*
D34*
X242400000Y-54050000D02*
X240100000Y-51750000D01*
D32*
X242838233Y-46836630D02*
X242280110Y-47394753D01*
X241902175Y-43150020D02*
X243400000Y-44647845D01*
D34*
X209000000Y-52700000D02*
X209000000Y-51000000D01*
D31*
X216300000Y-49400000D02*
X211450000Y-49400000D01*
D32*
X232650000Y-48300000D02*
X232650000Y-51050000D01*
D31*
X212340000Y-77240000D02*
X211800000Y-76700000D01*
D36*
X209900000Y-77700000D02*
X210250000Y-78050000D01*
D32*
X233860000Y-73000000D02*
X234700000Y-73840000D01*
D36*
X210450000Y-76950000D02*
X210750000Y-77250000D01*
D33*
X214100000Y-58900000D02*
X213700000Y-58900000D01*
X213537500Y-64587500D02*
X213862500Y-64587500D01*
D29*
X242367342Y-47732658D02*
X242843342Y-47732658D01*
D33*
X214807500Y-63892500D02*
X215442500Y-63257500D01*
D31*
X214550000Y-48550000D02*
X214550000Y-51900000D01*
D36*
X209850000Y-75800000D02*
X209900000Y-75750000D01*
D33*
X216292500Y-65692011D02*
X216292500Y-66057500D01*
D31*
X222000000Y-53200000D02*
X223150000Y-54350000D01*
D32*
X240550000Y-47950000D02*
X240000489Y-47400489D01*
D33*
X215892500Y-66057500D02*
X215892500Y-64257500D01*
D34*
X205500000Y-47500000D02*
X210600000Y-47500000D01*
D31*
X223300000Y-53100000D02*
X218100000Y-53100000D01*
X203100000Y-74250000D02*
X202748100Y-74250000D01*
X242400000Y-59700000D02*
X242400000Y-61100000D01*
D32*
X242000000Y-69750000D02*
X241350000Y-69750000D01*
X236102000Y-72898000D02*
X236800000Y-72200000D01*
D33*
X212649511Y-61800489D02*
X213749022Y-62900000D01*
D32*
X236450000Y-47600000D02*
X237650000Y-46400000D01*
X242440000Y-73840000D02*
X242440000Y-71710000D01*
X234600000Y-66600000D02*
X234700000Y-66500000D01*
D33*
X213650000Y-59250000D02*
X213700000Y-59300000D01*
D31*
X218100000Y-53100000D02*
X217250000Y-52250000D01*
D35*
X205250000Y-80000000D02*
X206600000Y-80000000D01*
D32*
X220650000Y-50000000D02*
X221200000Y-50000000D01*
X221200000Y-51000000D02*
X220250000Y-50050000D01*
D31*
X235675000Y-44425000D02*
X238825040Y-44425000D01*
D32*
X238500978Y-77100000D02*
X239000489Y-77599511D01*
D33*
X215442500Y-63257500D02*
X216237500Y-62462500D01*
X214850245Y-64249755D02*
X215550489Y-64950000D01*
D32*
X194760020Y-62860020D02*
X194760020Y-62710020D01*
X240372342Y-43817342D02*
X239182658Y-43817342D01*
D34*
X200800000Y-78015170D02*
X200800000Y-74200000D01*
D36*
X210400000Y-75200000D02*
X210400000Y-75250000D01*
D32*
X233200000Y-47600000D02*
X233200000Y-51600000D01*
D31*
X215950000Y-52850000D02*
X217800000Y-51000000D01*
X203143750Y-70643750D02*
X202227500Y-71560000D01*
X227850000Y-52500000D02*
X228925000Y-51425000D01*
D33*
X214150000Y-62900000D02*
X213000000Y-61750000D01*
D32*
X227325000Y-52875000D02*
X227125000Y-52875000D01*
D34*
X209000000Y-54050000D02*
X209000000Y-52700000D01*
D32*
X235921000Y-74721000D02*
X233401000Y-74721000D01*
D36*
X240562500Y-61300000D02*
X241500000Y-61300000D01*
D29*
X209600000Y-57400000D02*
X208200000Y-57400000D01*
X194760020Y-73734221D02*
X194638221Y-73734221D01*
D32*
X197599962Y-75599925D02*
X197338791Y-75599925D01*
D29*
X243800000Y-75300000D02*
X243200000Y-75900000D01*
D31*
X218150000Y-57500000D02*
X216950000Y-57500000D01*
D34*
X200050000Y-80000000D02*
X202600000Y-80000000D01*
D33*
X215000000Y-65850000D02*
X215200000Y-65850000D01*
X218967500Y-63257500D02*
X219125000Y-63100000D01*
X218900000Y-57500000D02*
X216950000Y-57500000D01*
X213907500Y-66057500D02*
X214242500Y-66057500D01*
D34*
X200800000Y-79250000D02*
X200800000Y-75950000D01*
D35*
X211300000Y-76300000D02*
X211300000Y-77450000D01*
D32*
X242400000Y-54050000D02*
X242400000Y-52900000D01*
D36*
X210050000Y-75400000D02*
X210425000Y-75775000D01*
D32*
X219125000Y-62900000D02*
X219125000Y-62725000D01*
D29*
X232199511Y-69100489D02*
X231099511Y-68000489D01*
D32*
X234600000Y-66600000D02*
X234800000Y-66600000D01*
D29*
X218948000Y-78232000D02*
X218682000Y-78232000D01*
D34*
X223975000Y-56475000D02*
X223925000Y-56425000D01*
D36*
X210244000Y-60244000D02*
X211500000Y-61500000D01*
D29*
X231099511Y-68000489D02*
X230099511Y-68000489D01*
D36*
X208706000Y-59656000D02*
X208444000Y-59394000D01*
D29*
X224038000Y-78750000D02*
X223266000Y-77978000D01*
D33*
X213207500Y-66057500D02*
X213557500Y-66057500D01*
D36*
X203775000Y-74925000D02*
X203100000Y-74250000D01*
D32*
X239960000Y-71340000D02*
X240750000Y-70550000D01*
D29*
X240697382Y-80000000D02*
X241148691Y-79548691D01*
D32*
X236600000Y-46400000D02*
X240100000Y-49900000D01*
X221575000Y-56075000D02*
X223150000Y-54500000D01*
D35*
X194760020Y-49460000D02*
X194760020Y-50860020D01*
D29*
X235642000Y-72898000D02*
X236340000Y-72200000D01*
D36*
X210750000Y-77250000D02*
X210900000Y-77400000D01*
D32*
X223800000Y-49750000D02*
X225800000Y-47750000D01*
D34*
X242249511Y-51399511D02*
X242100489Y-51250489D01*
D32*
X217800000Y-48450000D02*
X217800000Y-47200000D01*
X197156295Y-79382098D02*
X197156295Y-79806295D01*
X223000000Y-48750000D02*
X224000000Y-47750000D01*
D33*
X213949511Y-65300000D02*
X213675000Y-65300000D01*
X213537500Y-62462500D02*
X213537500Y-63737500D01*
D32*
X238000000Y-80000000D02*
X238500978Y-79499022D01*
X238599511Y-69399511D02*
X241899511Y-69399511D01*
D33*
X213200000Y-61950000D02*
X213200000Y-61850000D01*
D32*
X242194682Y-79548691D02*
X242194682Y-80105278D01*
X194760020Y-60089980D02*
X195300000Y-59550000D01*
X239604479Y-78354479D02*
X240000000Y-78750000D01*
X217200000Y-48550000D02*
X218000000Y-47750000D01*
D34*
X195720000Y-51300000D02*
X195720000Y-48165800D01*
X225575000Y-54775000D02*
X227125000Y-56325000D01*
D33*
X213200000Y-65700000D02*
X213200000Y-65348478D01*
D32*
X241141450Y-47362157D02*
X240641581Y-47362157D01*
D34*
X212799511Y-58700489D02*
X214100000Y-58700489D01*
D32*
X194200000Y-43150040D02*
X194650020Y-42700020D01*
D33*
X211150000Y-58950000D02*
X209600000Y-57400000D01*
D32*
X223000000Y-50150000D02*
X223000000Y-48750000D01*
D29*
X224038000Y-80000000D02*
X224038000Y-78750000D01*
D33*
X214350000Y-65300000D02*
X214500000Y-65300000D01*
D34*
X206600000Y-80000000D02*
X207500000Y-80000000D01*
D35*
X211650000Y-72000000D02*
X211400000Y-71750000D01*
D33*
X214100000Y-57500000D02*
X214000000Y-57500000D01*
X213862500Y-64587500D02*
X213862500Y-64062500D01*
D36*
X208444000Y-60244000D02*
X208444000Y-59394000D01*
D35*
X203100000Y-74250000D02*
X203100000Y-76950000D01*
D33*
X212987500Y-65162500D02*
X213537500Y-65162500D01*
D32*
X233400000Y-73000000D02*
X233550000Y-72850000D01*
D33*
X213537500Y-62037500D02*
X213450000Y-61950000D01*
D29*
X217400000Y-78490000D02*
X216525000Y-79365000D01*
D31*
X197656036Y-48285000D02*
X198735000Y-48285000D01*
D32*
X240673729Y-43515955D02*
X240372342Y-43817342D01*
X243200000Y-68900978D02*
X242900978Y-69200000D01*
X195667120Y-48218680D02*
X194718680Y-48218680D01*
D34*
X209000000Y-51000000D02*
X205500000Y-47500000D01*
D33*
X215550489Y-64950000D02*
X214700000Y-64950000D01*
D31*
X229575000Y-46575000D02*
X229225000Y-46225000D01*
D32*
X240750000Y-70550000D02*
X240100000Y-70550000D01*
D36*
X196250000Y-65795759D02*
X195720000Y-65265759D01*
X207649511Y-64393511D02*
X207310000Y-64054000D01*
X208042000Y-69300000D02*
X207946000Y-69204000D01*
D33*
X213207500Y-66057500D02*
X213200000Y-66050000D01*
D32*
X242701467Y-69399511D02*
X243200000Y-68900978D01*
D31*
X222050000Y-54350000D02*
X222050000Y-50000000D01*
D33*
X215000000Y-62900000D02*
X215000000Y-65450000D01*
D31*
X213825000Y-45925000D02*
X213675000Y-45775000D01*
D36*
X240562500Y-61300000D02*
X242200000Y-61300000D01*
D31*
X204130000Y-73612500D02*
X204130000Y-72329544D01*
D32*
X197156295Y-79806295D02*
X197350000Y-80000000D01*
X240650000Y-70550000D02*
X240100000Y-70000000D01*
D29*
X236058000Y-74584000D02*
X235921000Y-74721000D01*
X236160000Y-73840000D02*
X236800000Y-73200000D01*
D32*
X237300000Y-47600000D02*
X237325000Y-47575000D01*
D33*
X213100000Y-59100000D02*
X213300000Y-58900000D01*
D34*
X195720000Y-65265759D02*
X195720000Y-66480000D01*
D36*
X195720000Y-71560000D02*
X200800000Y-71560000D01*
D31*
X206371000Y-70579000D02*
X204421000Y-70579000D01*
D33*
X214707011Y-66057500D02*
X213949511Y-65300000D01*
D36*
X203100000Y-76950000D02*
X210450000Y-76950000D01*
D29*
X236800000Y-71300000D02*
X236800000Y-72200000D01*
D32*
X216300000Y-50250000D02*
X216516547Y-50250000D01*
D34*
X233350000Y-51750000D02*
X231150000Y-51750000D01*
D32*
X220425000Y-50225000D02*
X220650000Y-50000000D01*
D34*
X197050000Y-73150000D02*
X194760020Y-75439980D01*
D29*
X236200000Y-69500000D02*
X236800000Y-70100000D01*
D33*
X216950000Y-57500000D02*
X212600000Y-57500000D01*
D29*
X233900000Y-69000000D02*
X233100000Y-68200000D01*
D32*
X215325000Y-47425000D02*
X215950000Y-48050000D01*
D35*
X212150000Y-64550000D02*
X211800000Y-64900000D01*
D32*
X230450000Y-50800000D02*
X230475000Y-50825000D01*
D34*
X202600000Y-80000000D02*
X203250000Y-80000000D01*
D32*
X232250000Y-46000000D02*
X232250000Y-45350000D01*
X242249511Y-51399511D02*
X242249511Y-52199511D01*
D35*
X212150000Y-63892500D02*
X212150000Y-64550000D01*
D36*
X208249000Y-58774000D02*
X208237500Y-58762500D01*
D32*
X233850000Y-65850000D02*
X233700000Y-65850000D01*
D34*
X227425000Y-44425000D02*
X216775000Y-44425000D01*
D33*
X214275000Y-64175000D02*
X214450000Y-64000000D01*
D31*
X214100000Y-49600000D02*
X214100000Y-47100000D01*
D33*
X215357500Y-66057500D02*
X214707011Y-66057500D01*
D34*
X231325000Y-44425000D02*
X229975000Y-44425000D01*
D32*
X223950000Y-48750000D02*
X223000000Y-48750000D01*
X216750000Y-50700000D02*
X216300000Y-50250000D01*
X221925000Y-56425000D02*
X221575000Y-56075000D01*
X196772769Y-79422769D02*
X195569645Y-78219645D01*
D31*
X211450000Y-57300000D02*
X212600000Y-58450000D01*
X198907199Y-47639482D02*
X197010518Y-47639482D01*
D29*
X209600000Y-57400000D02*
X208237500Y-58762500D01*
D35*
X211562500Y-65162500D02*
X211500000Y-65100000D01*
D36*
X204000000Y-74700000D02*
X205700000Y-74700000D01*
D33*
X214500000Y-64750000D02*
X214350000Y-64600000D01*
D32*
X215175000Y-47925000D02*
X214550000Y-48550000D01*
D36*
X242400000Y-63073230D02*
X242400000Y-63500000D01*
D32*
X230950000Y-47600000D02*
X230950000Y-50500000D01*
D33*
X213675000Y-65300000D02*
X213537500Y-65162500D01*
D32*
X227125000Y-55175000D02*
X227125000Y-54025000D01*
D34*
X216850000Y-62900000D02*
X215000000Y-62900000D01*
X209600000Y-59150000D02*
X210250000Y-59800000D01*
D32*
X240618799Y-47950000D02*
X241174046Y-47394753D01*
D34*
X210750000Y-57500000D02*
X209700000Y-57500000D01*
D33*
X213949511Y-64199511D02*
X213949511Y-64599511D01*
X212900000Y-62050978D02*
X212900000Y-60700000D01*
D35*
X212892500Y-65067500D02*
X212987500Y-65162500D01*
D32*
X225250000Y-51750000D02*
X225250000Y-51200000D01*
D33*
X196800000Y-51120000D02*
X203320000Y-51120000D01*
X211650000Y-61650000D02*
X211950000Y-61650000D01*
D32*
X221325000Y-55825000D02*
X220950000Y-55450000D01*
X241148691Y-79548691D02*
X241148691Y-79848691D01*
D34*
X199145483Y-79645483D02*
X199169687Y-79645483D01*
D32*
X213668630Y-59331370D02*
X213525000Y-59475000D01*
D31*
X225800000Y-46800000D02*
X225800000Y-47750000D01*
D29*
X241000489Y-79400489D02*
X241148691Y-79548691D01*
D37*
X243975020Y-80794980D02*
X244149980Y-80794980D01*
D35*
X203550000Y-75400000D02*
X203550000Y-77400000D01*
D32*
X236600000Y-47900000D02*
X233050000Y-47900000D01*
D35*
X212150000Y-64527500D02*
X213802500Y-64527500D01*
D33*
X213557500Y-66057500D02*
X214242500Y-66057500D01*
D37*
X207500000Y-70600000D02*
X206850000Y-71250000D01*
D32*
X237400000Y-73250000D02*
X237400000Y-71300000D01*
D31*
X222000000Y-51000000D02*
X223300000Y-51000000D01*
D33*
X213000000Y-61750000D02*
X213000000Y-60700000D01*
D32*
X217316587Y-49800000D02*
X218350000Y-49800000D01*
D29*
X229550000Y-68550000D02*
X229550000Y-69000000D01*
D33*
X220200000Y-57500000D02*
X214100000Y-57500000D01*
D36*
X203456250Y-70643750D02*
X204275000Y-69825000D01*
D33*
X215642500Y-63892500D02*
X216292500Y-63892500D01*
D32*
X195720000Y-68380000D02*
X195720000Y-71560000D01*
D31*
X214550000Y-46650000D02*
X214700000Y-46800000D01*
D33*
X213537500Y-65162500D02*
X214400000Y-64300000D01*
D32*
X194175020Y-43625020D02*
X194175020Y-42700000D01*
D36*
X208150000Y-66450000D02*
X208200000Y-66400000D01*
D35*
X211650000Y-72000000D02*
X211400000Y-72250000D01*
D32*
X225800000Y-47750000D02*
X224450000Y-47750000D01*
D29*
X218972000Y-77240000D02*
X216892000Y-77240000D01*
D32*
X236600000Y-50600000D02*
X236600000Y-51400000D01*
D33*
X220350000Y-58900000D02*
X220850000Y-58900000D01*
D34*
X199754517Y-79645483D02*
X200800000Y-78600000D01*
D36*
X210750000Y-77250000D02*
X202800000Y-77250000D01*
D35*
X206371000Y-70579000D02*
X202700000Y-74250000D01*
D32*
X233401000Y-74721000D02*
X233170000Y-74490000D01*
D31*
X223300000Y-53100000D02*
X222050000Y-54350000D01*
D33*
X216037500Y-62462500D02*
X216237500Y-62462500D01*
D31*
X213668630Y-58900000D02*
X213450000Y-59118630D01*
D34*
X227125000Y-55175000D02*
X225550000Y-53600000D01*
D32*
X233550000Y-67150000D02*
X233550000Y-66000000D01*
D35*
X212892500Y-63892500D02*
X212892500Y-64307500D01*
D32*
X238500978Y-79499022D02*
X238500978Y-77100000D01*
D31*
X222050000Y-54350000D02*
X223150000Y-54350000D01*
D34*
X205300000Y-50950000D02*
X204550000Y-50200000D01*
X195720000Y-51300000D02*
X198950000Y-51300000D01*
D33*
X214200000Y-64950000D02*
X215550489Y-64950000D01*
D29*
X217400000Y-78462000D02*
X217400000Y-78490000D01*
D36*
X211600000Y-59900000D02*
X211700000Y-59800000D01*
D34*
X241350000Y-53000000D02*
X239750000Y-51400000D01*
X213668630Y-58700489D02*
X218949511Y-58700489D01*
D32*
X240550000Y-73780000D02*
X240490000Y-73840000D01*
D33*
X213200000Y-63850000D02*
X213200000Y-64150000D01*
D32*
X218350000Y-49800000D02*
X222250000Y-49800000D01*
X243400000Y-44647845D02*
X243400000Y-45250000D01*
D31*
X200800000Y-76650000D02*
X200800000Y-74200000D01*
X196991584Y-47620548D02*
X195905518Y-46534482D01*
D32*
X240767788Y-79400489D02*
X239622939Y-78255640D01*
D33*
X215550489Y-64950000D02*
X216292500Y-65692011D01*
D31*
X217400000Y-46800000D02*
X224100000Y-46800000D01*
D29*
X216906000Y-78984000D02*
X216525000Y-79365000D01*
D34*
X209275000Y-44425000D02*
X201375000Y-44425000D01*
D35*
X213433000Y-77240000D02*
X213360000Y-77167000D01*
D31*
X216100000Y-51000000D02*
X215450000Y-51000000D01*
D29*
X241460000Y-73840000D02*
X242440000Y-73840000D01*
D33*
X215442500Y-63257500D02*
X216257500Y-63257500D01*
D29*
X228100000Y-80000000D02*
X228082000Y-80000000D01*
D35*
X207000000Y-70350000D02*
X206700000Y-70650000D01*
D33*
X212524511Y-61675489D02*
X211949511Y-61100489D01*
D36*
X211180000Y-75970000D02*
X210900000Y-76250000D01*
D32*
X194760020Y-64305779D02*
X196205779Y-64305779D01*
X234700000Y-66500000D02*
X235700000Y-66500000D01*
X217800000Y-55250000D02*
X218975000Y-56425000D01*
D35*
X207475000Y-65875000D02*
X207475000Y-66075000D01*
D34*
X211826000Y-80000000D02*
X211846000Y-80000000D01*
D33*
X215892500Y-66057500D02*
X215892500Y-65292011D01*
D36*
X207649511Y-65499511D02*
X207231511Y-65499511D01*
D31*
X217250000Y-53250000D02*
X216300000Y-54200000D01*
D32*
X215950000Y-48050000D02*
X215950000Y-52850000D01*
D34*
X199145483Y-79645483D02*
X199754517Y-79645483D01*
D35*
X211750000Y-72900000D02*
X211750000Y-73300000D01*
D32*
X207500000Y-60054000D02*
X207310000Y-60244000D01*
D34*
X214550000Y-46650000D02*
X215525000Y-45675000D01*
X223050000Y-57900000D02*
X222750000Y-57600000D01*
D29*
X226800000Y-79100000D02*
X226800000Y-80000000D01*
D37*
X207800000Y-71700000D02*
X208000000Y-71900000D01*
D34*
X207500000Y-80000000D02*
X210500000Y-80000000D01*
D36*
X207050000Y-69300000D02*
X204800000Y-69300000D01*
D32*
X224975000Y-48275000D02*
X224450000Y-47750000D01*
D34*
X212600000Y-57500000D02*
X210750000Y-57500000D01*
X209600000Y-57400000D02*
X209600000Y-55250000D01*
D32*
X241650000Y-70550000D02*
X240750000Y-70550000D01*
D31*
X223850000Y-55300000D02*
X225550000Y-53600000D01*
D29*
X221488000Y-77470000D02*
X220472000Y-77470000D01*
D35*
X212987500Y-65162500D02*
X211562500Y-65162500D01*
D33*
X214450000Y-64000000D02*
X213949511Y-63499511D01*
D34*
X241250000Y-48850000D02*
X241250000Y-50400000D01*
D32*
X239700000Y-70550000D02*
X238150000Y-70550000D01*
D31*
X217424000Y-77978000D02*
X217352000Y-78050000D01*
D34*
X200654772Y-75804772D02*
X200050000Y-75200000D01*
D31*
X226460000Y-46800000D02*
X227000000Y-46800000D01*
D32*
X225250000Y-51750000D02*
X225250000Y-50550000D01*
D33*
X215200000Y-65850000D02*
X215600000Y-65850000D01*
D32*
X243670347Y-46905653D02*
X243425000Y-47151000D01*
X231325000Y-51575000D02*
X231150000Y-51750000D01*
D31*
X215325000Y-47425000D02*
X214550000Y-46650000D01*
D33*
X213000000Y-60900000D02*
X215000000Y-62900000D01*
X213700000Y-59300000D02*
X214100000Y-58900000D01*
X215000000Y-65450000D02*
X214750000Y-65700000D01*
D35*
X211750000Y-72600000D02*
X211750000Y-72900000D01*
D33*
X215550489Y-64950000D02*
X214150000Y-64950000D01*
X213949511Y-64424511D02*
X214112500Y-64587500D01*
D32*
X232250000Y-45350000D02*
X231325000Y-44425000D01*
D29*
X237900489Y-79900489D02*
X238000000Y-80000000D01*
D32*
X242346909Y-75504725D02*
X242346909Y-74703091D01*
X243200000Y-70950000D02*
X242000000Y-69750000D01*
D31*
X217800000Y-56650000D02*
X215250000Y-56650000D01*
D36*
X197710000Y-72010000D02*
X199210000Y-72010000D01*
D33*
X215357500Y-63257500D02*
X215000000Y-62900000D01*
X213537500Y-64587500D02*
X213537500Y-63512500D01*
D29*
X228082000Y-80000000D02*
X226991000Y-78909000D01*
D33*
X220300000Y-58850000D02*
X220250000Y-58900000D01*
D34*
X207250000Y-47500000D02*
X210600000Y-47500000D01*
D33*
X213862500Y-64587500D02*
X214275000Y-64175000D01*
X213537500Y-62037500D02*
X213537500Y-61562500D01*
D32*
X243400000Y-45250000D02*
X243400000Y-46274863D01*
D33*
X213300000Y-58900000D02*
X213650000Y-59250000D01*
D32*
X242450000Y-74600000D02*
X242000000Y-74600000D01*
X197350000Y-80000000D02*
X198234863Y-80000000D01*
D31*
X205429772Y-71029772D02*
X204350000Y-72109544D01*
D29*
X218948000Y-78232000D02*
X218464000Y-78716000D01*
D36*
X210600000Y-72800000D02*
X209900000Y-72800000D01*
D29*
X238000000Y-80000000D02*
X238499980Y-80499980D01*
D36*
X204050000Y-75800000D02*
X209850000Y-75800000D01*
D31*
X219450000Y-51000000D02*
X219450000Y-52100000D01*
D34*
X197894221Y-49125779D02*
X198735000Y-48285000D01*
D29*
X238499980Y-80499980D02*
X241799980Y-80499980D01*
D32*
X216300000Y-50250000D02*
X216350000Y-50250000D01*
X229800000Y-46800000D02*
X229225000Y-46225000D01*
D36*
X204130000Y-72329544D02*
X204600456Y-72800000D01*
X197050000Y-72670000D02*
X197710000Y-72010000D01*
D32*
X243425000Y-52575000D02*
X242249511Y-51399511D01*
D34*
X194760020Y-64305779D02*
X194760020Y-75439980D01*
D32*
X217800000Y-51000000D02*
X218000000Y-51000000D01*
D33*
X211425000Y-61625000D02*
X211425000Y-61375000D01*
D34*
X216050000Y-58700489D02*
X216999511Y-58700489D01*
D31*
X222750000Y-57600000D02*
X223925000Y-56425000D01*
D34*
X195667120Y-48218680D02*
X195667120Y-50032880D01*
D36*
X212200000Y-71600000D02*
X208650000Y-71600000D01*
D33*
X213949511Y-63100489D02*
X214200000Y-63350978D01*
D31*
X216300000Y-49400000D02*
X214300000Y-49400000D01*
D32*
X216516547Y-50250000D02*
X216516547Y-50516587D01*
D34*
X229300000Y-56475000D02*
X227125000Y-56475000D01*
D29*
X217400000Y-75970000D02*
X217400000Y-76300000D01*
D31*
X211450000Y-46650000D02*
X211450000Y-57300000D01*
D33*
X214500000Y-65300000D02*
X215200489Y-65300000D01*
D29*
X236200489Y-68000489D02*
X239000489Y-68000489D01*
D33*
X216292500Y-63892500D02*
X216292500Y-66057500D01*
D34*
X200654772Y-78745228D02*
X200654772Y-75804772D01*
D31*
X207649511Y-65700489D02*
X207475000Y-65875000D01*
D36*
X202800000Y-77250000D02*
X202700000Y-77150000D01*
D29*
X207850000Y-57750000D02*
X207850000Y-59650000D01*
D33*
X214200000Y-63350978D02*
X214200000Y-64950000D01*
D34*
X202719511Y-58299511D02*
X200800000Y-56380000D01*
X237900489Y-68000489D02*
X239000489Y-68000489D01*
D36*
X195720000Y-71560000D02*
X197190000Y-71560000D01*
D34*
X200800000Y-51300000D02*
X200800000Y-49150000D01*
D29*
X236960000Y-73840000D02*
X237475000Y-73325000D01*
D31*
X214800000Y-55250000D02*
X213275000Y-53725000D01*
X206371000Y-70579000D02*
X205880544Y-70579000D01*
D33*
X213949511Y-63100489D02*
X213949511Y-64227011D01*
X214000000Y-57500000D02*
X212600000Y-58900000D01*
D32*
X223000000Y-48750000D02*
X214750000Y-48750000D01*
D33*
X213557500Y-65842500D02*
X214575000Y-64825000D01*
D32*
X231850000Y-67150000D02*
X232600000Y-66400000D01*
D33*
X195720000Y-66480000D02*
X194000000Y-64760000D01*
D32*
X211800000Y-76700000D02*
X217000000Y-76700000D01*
D34*
X210975000Y-44425000D02*
X209275000Y-44425000D01*
D36*
X202400000Y-70950000D02*
X201850000Y-70950000D01*
D35*
X212785000Y-64900000D02*
X212892500Y-64792500D01*
D32*
X235921000Y-74621000D02*
X235900000Y-74600000D01*
X194200000Y-43650000D02*
X194175020Y-43625020D01*
D33*
X213750489Y-64199511D02*
X213537500Y-64412500D01*
D32*
X240750000Y-70550000D02*
X240650000Y-70550000D01*
D31*
X210975000Y-53725000D02*
X210025000Y-53725000D01*
D29*
X234700000Y-73840000D02*
X235040000Y-73840000D01*
D33*
X214575000Y-64825000D02*
X213949511Y-64199511D01*
D32*
X217000000Y-76700000D02*
X217400000Y-76300000D01*
D35*
X211300000Y-71650000D02*
X211300000Y-76300000D01*
D33*
X213200000Y-62550000D02*
X213200000Y-61850000D01*
D32*
X238440000Y-73840000D02*
X238440000Y-70960000D01*
D29*
X207518000Y-64262000D02*
X207850000Y-63930000D01*
X224004000Y-78716000D02*
X224038000Y-78750000D01*
D32*
X238200000Y-77100000D02*
X238500978Y-77100000D01*
D29*
X218464000Y-78716000D02*
X217400000Y-78716000D01*
D34*
X211450000Y-46650000D02*
X210750000Y-47350000D01*
D33*
X212150000Y-65162500D02*
X212987500Y-65162500D01*
D32*
X237475000Y-73325000D02*
X237400000Y-73250000D01*
D36*
X204050000Y-69300000D02*
X202400000Y-70950000D01*
D31*
X220800000Y-51000000D02*
X221400000Y-51600000D01*
D36*
X206475000Y-69875000D02*
X207050000Y-69300000D01*
D34*
X239000489Y-68000489D02*
X241000489Y-68000489D01*
D29*
X228200000Y-77700000D02*
X228200000Y-79400000D01*
D34*
X235400000Y-46400000D02*
X236600000Y-46400000D01*
D35*
X213802500Y-64527500D02*
X213862500Y-64587500D01*
D33*
X212600000Y-57500000D02*
X212700000Y-57500000D01*
D32*
X218800000Y-51000000D02*
X220400000Y-49400000D01*
X240631322Y-75518678D02*
X240300000Y-75850000D01*
D36*
X207000000Y-69900000D02*
X207800000Y-69900000D01*
D33*
X213749511Y-61849511D02*
X215950489Y-61849511D01*
D34*
X200200040Y-49350040D02*
X197669960Y-49350040D01*
D31*
X204421000Y-70579000D02*
X200800000Y-74200000D01*
D29*
X207310000Y-60244000D02*
X207310000Y-64054000D01*
D32*
X243200000Y-70950000D02*
X243200000Y-71750000D01*
X238500000Y-70900000D02*
X238500000Y-68500978D01*
D34*
X222400000Y-58100000D02*
X221900000Y-57600000D01*
D32*
X236925000Y-44425000D02*
X237700000Y-43650000D01*
D35*
X211800000Y-72950000D02*
X211750000Y-72900000D01*
D32*
X233700000Y-65850000D02*
X232250000Y-65850000D01*
D34*
X240100000Y-51750000D02*
X236250000Y-51750000D01*
D33*
X213537500Y-61562500D02*
X213537500Y-61337500D01*
X215200000Y-65850000D02*
X215200000Y-64599510D01*
X213862500Y-64587500D02*
X213949511Y-64500489D01*
D29*
X210425000Y-79925000D02*
X210500000Y-80000000D01*
X243500000Y-75600000D02*
X243800000Y-75300000D01*
D33*
X211924022Y-61075000D02*
X211425000Y-61075000D01*
D35*
X211300000Y-77450000D02*
X213077000Y-77450000D01*
D32*
X194175020Y-42700000D02*
X244074980Y-42700000D01*
D36*
X203450000Y-76600000D02*
X203100000Y-76950000D01*
D29*
X239100489Y-47400489D02*
X238100000Y-46400000D01*
D36*
X203143750Y-70643750D02*
X203456250Y-70643750D01*
D32*
X223000000Y-48450000D02*
X222300000Y-47750000D01*
D31*
X240500000Y-49600000D02*
X240325000Y-49425000D01*
D33*
X216292500Y-63892500D02*
X217350000Y-63892500D01*
D32*
X219125000Y-62900000D02*
X219125000Y-58875978D01*
D37*
X208249000Y-69451000D02*
X208249000Y-59589000D01*
D32*
X223800000Y-53600000D02*
X223300000Y-53100000D01*
X216516547Y-48550000D02*
X217200000Y-48550000D01*
D33*
X213949511Y-63349022D02*
X214850245Y-64249755D01*
D31*
X202227500Y-71560000D02*
X200800000Y-71560000D01*
D33*
X213668630Y-58900000D02*
X213000000Y-59568630D01*
X217350000Y-63257500D02*
X217350000Y-63892500D01*
D32*
X243425000Y-53375000D02*
X243425000Y-52575000D01*
D34*
X209600000Y-57400000D02*
X209600000Y-51250000D01*
D35*
X206650000Y-70600000D02*
X206700000Y-70650000D01*
D32*
X196600000Y-64700000D02*
X196600000Y-65600000D01*
D29*
X211600000Y-79774000D02*
X211826000Y-80000000D01*
D32*
X240000000Y-78750000D02*
X240225000Y-78975000D01*
D34*
X235000000Y-68200000D02*
X235199511Y-68000489D01*
D36*
X212550000Y-61900000D02*
X213200000Y-62550000D01*
X212530000Y-75970000D02*
X211800000Y-76700000D01*
X211500000Y-61500000D02*
X213400000Y-61500000D01*
D29*
X226991000Y-78909000D02*
X225900000Y-80000000D01*
D33*
X211300000Y-59100000D02*
X211150000Y-58950000D01*
D32*
X229900000Y-46650000D02*
X229975000Y-46575000D01*
D33*
X216107500Y-66057500D02*
X215892500Y-66057500D01*
X212800000Y-59500000D02*
X212800000Y-60500000D01*
D32*
X223950000Y-51000000D02*
X223950000Y-46950000D01*
X195720000Y-51670000D02*
X196400000Y-52350000D01*
D29*
X236340000Y-72200000D02*
X236800000Y-72200000D01*
D31*
X228925000Y-45475000D02*
X228925000Y-45925000D01*
D34*
X197138057Y-74561943D02*
X196994477Y-74561943D01*
D31*
X229975000Y-44425000D02*
X229975000Y-46525000D01*
D36*
X208444000Y-58969000D02*
X208237500Y-58762500D01*
X204100000Y-75250000D02*
X203775000Y-74925000D01*
D29*
X233100000Y-68200000D02*
X232925000Y-68375000D01*
D35*
X210900000Y-77750000D02*
X211300000Y-77750000D01*
D29*
X234700000Y-73840000D02*
X236960000Y-73840000D01*
D31*
X197103567Y-43346433D02*
X195043567Y-43346433D01*
X225800000Y-47750000D02*
X225800000Y-50250000D01*
X239125000Y-45375000D02*
X238100000Y-46400000D01*
X200800000Y-46220000D02*
X199399452Y-47620548D01*
D36*
X209900000Y-72800000D02*
X206550000Y-72800000D01*
D32*
X218000000Y-51000000D02*
X218300000Y-50700000D01*
D31*
X228925000Y-45925000D02*
X227425000Y-44425000D01*
D32*
X216850000Y-62900000D02*
X216850000Y-62750000D01*
X219125000Y-62900000D02*
X219125000Y-61125000D01*
X225250000Y-52000000D02*
X226800000Y-53550000D01*
D33*
X220300000Y-57600000D02*
X220200000Y-57500000D01*
D32*
X240700000Y-69750000D02*
X239050000Y-69750000D01*
X194200000Y-59550000D02*
X194200000Y-47700000D01*
D31*
X211450000Y-49400000D02*
X209600000Y-51250000D01*
D33*
X213274511Y-62425489D02*
X212649511Y-61800489D01*
D32*
X243600489Y-68000489D02*
X243600489Y-67100489D01*
X238100000Y-51400000D02*
X238600000Y-50900000D01*
D36*
X204710000Y-74700000D02*
X204130000Y-74120000D01*
D32*
X210200000Y-58000000D02*
X209700000Y-58000000D01*
X242910000Y-72040000D02*
X243200000Y-71750000D01*
D35*
X202700000Y-77450000D02*
X205250000Y-80000000D01*
D36*
X207475000Y-65875000D02*
X207649511Y-66049511D01*
D31*
X227838000Y-78062000D02*
X226991000Y-78909000D01*
D29*
X207850000Y-59150000D02*
X207850000Y-59650000D01*
D34*
X238762062Y-51400000D02*
X243237062Y-55875000D01*
X210250000Y-59800000D02*
X211700000Y-59800000D01*
D32*
X242257402Y-47394753D02*
X243403272Y-46248883D01*
D33*
X213949511Y-64199511D02*
X213750489Y-64199511D01*
D32*
X240641581Y-47362157D02*
X239532593Y-46253169D01*
X222300000Y-47750000D02*
X218000000Y-47750000D01*
D33*
X214100000Y-58900000D02*
X213000000Y-60000000D01*
X213000000Y-60700000D02*
X213000000Y-59300000D01*
D29*
X232599022Y-69500000D02*
X233900000Y-69500000D01*
X233900000Y-69000000D02*
X232600000Y-69000000D01*
D34*
X239900000Y-51400000D02*
X240100000Y-51200000D01*
D33*
X211500000Y-61500000D02*
X211500000Y-61300000D01*
D34*
X221900000Y-57600000D02*
X221900000Y-58500978D01*
D32*
X196084039Y-77405695D02*
X196084039Y-78309842D01*
D33*
X215200000Y-64599510D02*
X215050245Y-64449755D01*
D34*
X208700000Y-54350000D02*
X209000000Y-54050000D01*
D31*
X200800000Y-45204414D02*
X198942019Y-43346433D01*
D32*
X235675000Y-44425000D02*
X236925000Y-44425000D01*
D31*
X203000000Y-75250000D02*
X202200000Y-75250000D01*
D34*
X211450000Y-46650000D02*
X212650000Y-46650000D01*
D32*
X223000000Y-51350000D02*
X223000000Y-48450000D01*
D29*
X217400000Y-77240000D02*
X216892000Y-77240000D01*
D35*
X211500000Y-63900000D02*
X211507500Y-63892500D01*
D31*
X203050000Y-72950000D02*
X202300000Y-73700000D01*
X202200000Y-75250000D02*
X202200000Y-79600000D01*
D36*
X210900000Y-76250000D02*
X204000000Y-76250000D01*
D32*
X223000000Y-51350000D02*
X223000000Y-50150000D01*
X229900000Y-50050000D02*
X226590000Y-50050000D01*
X242725000Y-70225000D02*
X242400000Y-70550000D01*
X211150000Y-58950000D02*
X210200000Y-58000000D01*
D33*
X214575000Y-64125000D02*
X214450000Y-64000000D01*
D32*
X195300000Y-59550000D02*
X196400000Y-58450000D01*
D36*
X216450000Y-76300000D02*
X217400000Y-76300000D01*
D29*
X207850000Y-63930000D02*
X207850000Y-59650000D01*
X230200000Y-79700000D02*
X230200000Y-80000000D01*
D32*
X241148691Y-79848691D02*
X241799980Y-80499980D01*
D31*
X202600000Y-78450000D02*
X200800000Y-76650000D01*
D34*
X216999511Y-58700489D02*
X216999511Y-60249511D01*
D36*
X206250000Y-73450000D02*
X205075000Y-72275000D01*
X208706000Y-60244000D02*
X208706000Y-59656000D01*
D32*
X217316587Y-50516587D02*
X217316587Y-47700000D01*
X196081783Y-78731783D02*
X196081783Y-76689591D01*
D35*
X211300000Y-77450000D02*
X211300000Y-77750000D01*
D32*
X229000000Y-46000000D02*
X228925000Y-45925000D01*
D35*
X203550000Y-77400000D02*
X203900000Y-77750000D01*
D37*
X207800000Y-69900000D02*
X208249000Y-69451000D01*
D32*
X223850000Y-55300000D02*
X223000000Y-55300000D01*
X208200000Y-57400000D02*
X208200000Y-51800000D01*
D34*
X210750000Y-47350000D02*
X210750000Y-57500000D01*
D32*
X242440000Y-71710000D02*
X242850000Y-71300000D01*
D31*
X229975000Y-46525000D02*
X229975000Y-46575000D01*
D32*
X229900000Y-51750000D02*
X229900000Y-51400000D01*
D31*
X223350000Y-51000000D02*
X223950000Y-51000000D01*
D29*
X219202000Y-77978000D02*
X218948000Y-78232000D01*
X218313000Y-76581000D02*
X219456000Y-77724000D01*
D34*
X200800000Y-51300000D02*
X203450000Y-51300000D01*
D31*
X225800000Y-53350000D02*
X225550000Y-53600000D01*
D35*
X207000000Y-69900000D02*
X207000000Y-70350000D01*
D33*
X212149022Y-61300000D02*
X211900000Y-61300000D01*
X215642500Y-63892500D02*
X215642500Y-65807500D01*
D32*
X199286393Y-43346433D02*
X200553567Y-43346433D01*
D33*
X215015000Y-64950000D02*
X214157500Y-65807500D01*
D29*
X237900489Y-72899511D02*
X237900489Y-69399511D01*
D32*
X240750000Y-70550000D02*
X240750000Y-69800000D01*
D31*
X223350000Y-51700000D02*
X223350000Y-54300000D01*
D32*
X240500000Y-49600000D02*
X239275489Y-48375489D01*
X239000489Y-78999511D02*
X240200489Y-78999511D01*
D37*
X244149980Y-42649980D02*
X244150000Y-42649960D01*
D33*
X214457011Y-65807500D02*
X214157500Y-65807500D01*
X214400000Y-64300000D02*
X214575000Y-64125000D01*
X213949511Y-65200489D02*
X213450000Y-65700000D01*
D29*
X225400000Y-80000000D02*
X240200000Y-80000000D01*
D34*
X215000000Y-62900000D02*
X214150000Y-62900000D01*
D29*
X233900000Y-69500000D02*
X233900000Y-69000000D01*
D31*
X200800000Y-46350000D02*
X200800000Y-45204414D01*
X215650000Y-56450000D02*
X214550000Y-55350000D01*
D33*
X213949511Y-63100489D02*
X213949511Y-65025489D01*
D31*
X218350000Y-49800000D02*
X218350000Y-49850000D01*
X214550000Y-56950000D02*
X212600000Y-58900000D01*
D33*
X214650000Y-63250000D02*
X215000000Y-62900000D01*
X215892500Y-63857500D02*
X216850000Y-62900000D01*
D32*
X242805980Y-80194060D02*
X243900020Y-79100020D01*
D34*
X204550000Y-47550000D02*
X204550000Y-47500000D01*
D32*
X196084039Y-78309842D02*
X197156295Y-79382098D01*
X225550000Y-53600000D02*
X223800000Y-53600000D01*
X238100000Y-51400000D02*
X238100000Y-49950000D01*
D29*
X243200000Y-68900978D02*
X243200000Y-69750000D01*
D34*
X212600000Y-57500000D02*
X212600000Y-58450000D01*
D33*
X214442989Y-66057500D02*
X215550489Y-64950000D01*
D31*
X221650000Y-51350000D02*
X222000000Y-51000000D01*
D32*
X233550000Y-67150000D02*
X234600000Y-68200000D01*
X232600000Y-66400000D02*
X232600000Y-66200000D01*
D36*
X197190000Y-71560000D02*
X198160000Y-71560000D01*
X204600456Y-72800000D02*
X206550000Y-72800000D01*
D33*
X215200489Y-65300000D02*
X215550489Y-64950000D01*
X214575000Y-64125000D02*
X214807500Y-63892500D01*
D31*
X218350000Y-49850000D02*
X218350000Y-57350000D01*
D33*
X212600000Y-58900000D02*
X213300000Y-58900000D01*
D32*
X230950000Y-67150000D02*
X229550000Y-68550000D01*
D31*
X225800000Y-46800000D02*
X226460000Y-46800000D01*
D32*
X237325000Y-49325000D02*
X237325000Y-47575000D01*
X240771211Y-75504725D02*
X242346909Y-75504725D01*
X235050000Y-47600000D02*
X237300000Y-47600000D01*
D29*
X236800000Y-74600000D02*
X236800000Y-75100000D01*
D32*
X196084039Y-77405695D02*
X195569645Y-78219645D01*
D31*
X229975000Y-44425000D02*
X228925000Y-45475000D01*
D36*
X202837500Y-70950000D02*
X201850000Y-70950000D01*
D35*
X206371000Y-70979000D02*
X206150000Y-71200000D01*
D29*
X237900489Y-69399511D02*
X237900489Y-68000489D01*
D36*
X209900000Y-72800000D02*
X209900000Y-75750000D01*
D32*
X224200000Y-50150000D02*
X224850000Y-50150000D01*
X239200978Y-75850000D02*
X239000489Y-75649511D01*
D34*
X241000489Y-68000489D02*
X242299511Y-68000489D01*
D32*
X196380020Y-80719980D02*
X194200000Y-80719980D01*
D35*
X211907500Y-64307500D02*
X211800000Y-64200000D01*
X212200000Y-72000000D02*
X211650000Y-72000000D01*
D32*
X221575000Y-56075000D02*
X221325000Y-55825000D01*
X239275489Y-48125489D02*
X240000489Y-47400489D01*
D33*
X213000000Y-59600000D02*
X213000000Y-59500000D01*
X214900000Y-64600000D02*
X214900000Y-64450000D01*
D32*
X243480020Y-42980020D02*
X243900020Y-43400020D01*
D35*
X211300000Y-76300000D02*
X211300000Y-76754000D01*
D33*
X220250000Y-58900000D02*
X214100000Y-58900000D01*
D29*
X243600000Y-74600000D02*
X243740980Y-74600000D01*
D32*
X233050000Y-47900000D02*
X232650000Y-48300000D01*
D29*
X242551309Y-79548691D02*
X242805980Y-79803362D01*
D31*
X225150000Y-54350000D02*
X225575000Y-54775000D01*
X220950000Y-55450000D02*
X220950000Y-52500000D01*
D36*
X217400000Y-76300000D02*
X219100000Y-76300000D01*
D29*
X213196000Y-78650000D02*
X217212000Y-78650000D01*
D32*
X215825000Y-47925000D02*
X216516547Y-47925000D01*
X217316587Y-50516587D02*
X217316587Y-49800000D01*
D36*
X210900000Y-76600000D02*
X203450000Y-76600000D01*
D33*
X213450000Y-64800000D02*
X213200000Y-64550000D01*
D34*
X200200040Y-49350040D02*
X200200040Y-50049960D01*
D32*
X217400000Y-76300000D02*
X212200000Y-76300000D01*
D34*
X242400000Y-63500000D02*
X242400000Y-66600000D01*
D32*
X215825000Y-47925000D02*
X215175000Y-47925000D01*
X242280110Y-47394753D02*
X241174046Y-47394753D01*
D31*
X205880544Y-70579000D02*
X205429772Y-71029772D01*
D29*
X212475000Y-60275000D02*
X212900000Y-60700000D01*
D31*
X222000000Y-51000000D02*
X222000000Y-53200000D01*
D29*
X234700000Y-73840000D02*
X236058000Y-72482000D01*
D33*
X215550489Y-64950000D02*
X215050000Y-64950000D01*
D29*
X236800000Y-77600000D02*
X236800000Y-78500000D01*
X228200000Y-77700000D02*
X226991000Y-78909000D01*
X242805980Y-79803362D02*
X242805980Y-80499980D01*
D32*
X194650020Y-42700020D02*
X199650000Y-42700020D01*
D33*
X214750000Y-65700000D02*
X214800489Y-65700000D01*
D36*
X203775000Y-74925000D02*
X204000000Y-74700000D01*
X205750456Y-73950000D02*
X204130000Y-72329544D01*
D34*
X197751900Y-73150000D02*
X197050000Y-73150000D01*
D31*
X216400000Y-51000000D02*
X216400000Y-55900000D01*
X227400000Y-52950000D02*
X227850000Y-52500000D01*
D29*
X237300000Y-68700000D02*
X236800000Y-69200000D01*
D31*
X218350000Y-57350000D02*
X218100000Y-57600000D01*
D32*
X199943966Y-78290897D02*
X199943966Y-77406034D01*
D35*
X213360000Y-77167000D02*
X212267000Y-77167000D01*
D29*
X236800000Y-75100000D02*
X241500000Y-75100000D01*
D33*
X211700000Y-59800000D02*
X213650000Y-61750000D01*
X213949511Y-64849022D02*
X213949511Y-63100489D01*
D32*
X238500000Y-68500978D02*
X239000489Y-68000489D01*
D33*
X213949511Y-64999511D02*
X213537500Y-64587500D01*
D32*
X235050000Y-65850000D02*
X235700000Y-66500000D01*
X243600489Y-67100489D02*
X243600489Y-65850489D01*
D34*
X229975000Y-44425000D02*
X227425000Y-44425000D01*
D32*
X240100000Y-50000000D02*
X238600000Y-48500000D01*
X237900489Y-69399511D02*
X238599511Y-69399511D01*
X194200000Y-59550000D02*
X195300000Y-59550000D01*
X204196433Y-43346433D02*
X242333607Y-43346433D01*
D36*
X220472000Y-77470000D02*
X220104000Y-77102000D01*
D35*
X211973000Y-77427000D02*
X213196000Y-78650000D01*
D31*
X214100000Y-56400000D02*
X214100000Y-52850000D01*
D29*
X218464000Y-78716000D02*
X224004000Y-78716000D01*
D31*
X218350000Y-49400000D02*
X216300000Y-49400000D01*
D29*
X239960000Y-73840000D02*
X240490000Y-73840000D01*
D32*
X196205779Y-64305779D02*
X195275000Y-63375000D01*
D36*
X210900000Y-71900000D02*
X208350000Y-71900000D01*
D32*
X213668630Y-58900000D02*
X213668630Y-59331370D01*
X219450000Y-50050000D02*
X219450000Y-49250000D01*
D33*
X212524511Y-61675489D02*
X212149022Y-61300000D01*
D31*
X203000000Y-78050000D02*
X202600000Y-78450000D01*
D34*
X226000000Y-51750000D02*
X225250000Y-51750000D01*
D33*
X213450000Y-61950000D02*
X213000000Y-61500000D01*
D31*
X216300000Y-56850000D02*
X216950000Y-57500000D01*
D32*
X217707500Y-62900000D02*
X217350000Y-63257500D01*
D34*
X198000000Y-73150000D02*
X197050000Y-73150000D01*
D31*
X214100000Y-52250000D02*
X214100000Y-50100000D01*
D32*
X194200000Y-80719980D02*
X194200000Y-60400000D01*
D29*
X228200000Y-79400000D02*
X228200000Y-79900000D01*
D34*
X229300000Y-57900000D02*
X223050000Y-57900000D01*
D31*
X242400000Y-55300000D02*
X242400000Y-59700000D01*
D29*
X232600000Y-69000000D02*
X232349511Y-69250489D01*
D32*
X236800000Y-77100000D02*
X238200000Y-77100000D01*
X244074980Y-43225060D02*
X243900020Y-43400020D01*
X224275000Y-56475000D02*
X224250000Y-56500000D01*
X234290000Y-72850000D02*
X234754000Y-72850000D01*
D34*
X222500000Y-80000000D02*
X224038000Y-80000000D01*
D36*
X210900000Y-73950000D02*
X205750456Y-73950000D01*
D37*
X208249000Y-59589000D02*
X208444000Y-59394000D01*
D32*
X242268109Y-43515955D02*
X240673729Y-43515955D01*
D34*
X203450000Y-51300000D02*
X204550000Y-50200000D01*
D32*
X233200000Y-51600000D02*
X233350000Y-51750000D01*
X243130020Y-78616330D02*
X243489222Y-78257128D01*
X242850000Y-71300000D02*
X243200000Y-70950000D01*
D36*
X210900000Y-73450000D02*
X210900000Y-72500000D01*
D33*
X214287500Y-64412500D02*
X214400000Y-64300000D01*
D29*
X236800000Y-77100000D02*
X236800000Y-77600000D01*
D32*
X217600000Y-63650000D02*
X219200000Y-63650000D01*
D31*
X195929452Y-47620548D02*
X195200548Y-47620548D01*
D32*
X219125000Y-61125000D02*
X218750000Y-60750000D01*
D29*
X239000489Y-76299511D02*
X239000489Y-77599511D01*
D32*
X241650000Y-70050000D02*
X241350000Y-69750000D01*
D34*
X200800000Y-47500000D02*
X200200040Y-47500000D01*
D32*
X240000489Y-47400489D02*
X239532593Y-46932593D01*
X236800000Y-71300000D02*
X237400000Y-71300000D01*
X240550000Y-71300000D02*
X240550000Y-73780000D01*
D34*
X194760020Y-49125779D02*
X197894221Y-49125779D01*
D35*
X212150000Y-65162500D02*
X212150000Y-63892500D01*
D34*
X239750000Y-51400000D02*
X238100000Y-51400000D01*
D32*
X242360862Y-75518678D02*
X240631322Y-75518678D01*
D31*
X214100000Y-52250000D02*
X220750000Y-52250000D01*
D33*
X211900000Y-61300000D02*
X211500000Y-61300000D01*
D29*
X223266000Y-77978000D02*
X219710000Y-77978000D01*
D32*
X217800000Y-51000000D02*
X217316587Y-50516587D01*
D36*
X210900000Y-74450000D02*
X210900000Y-73950000D01*
D32*
X240000489Y-47400489D02*
X240000489Y-49499511D01*
X239532593Y-46067407D02*
X239532593Y-44657091D01*
D33*
X214807500Y-63892500D02*
X215642500Y-63892500D01*
X213274511Y-62425489D02*
X212900000Y-62050978D01*
X214100000Y-58900000D02*
X213850489Y-59149511D01*
D32*
X239510000Y-70740000D02*
X239700000Y-70550000D01*
X215300000Y-54050000D02*
X215300000Y-53500000D01*
X223000000Y-48750000D02*
X223600000Y-48150000D01*
D34*
X200800000Y-75950000D02*
X199411943Y-74561943D01*
D31*
X219450000Y-51000000D02*
X220800000Y-51000000D01*
D32*
X200800000Y-78015170D02*
X200800000Y-77539719D01*
X234802000Y-72898000D02*
X236102000Y-72898000D01*
X237050000Y-47000000D02*
X237650000Y-46400000D01*
D34*
X238100000Y-51400000D02*
X238762062Y-51400000D01*
D37*
X244150000Y-42649960D02*
X244150000Y-42625020D01*
D29*
X217400000Y-77954000D02*
X216404000Y-77954000D01*
D33*
X213987500Y-62462500D02*
X216037500Y-62462500D01*
D32*
X199943966Y-76683686D02*
X198815251Y-75554970D01*
D34*
X209600000Y-55250000D02*
X208700000Y-54350000D01*
D33*
X214857990Y-64257500D02*
X215892500Y-64257500D01*
D29*
X208475000Y-60275000D02*
X208444000Y-60244000D01*
D32*
X233370000Y-72850000D02*
X233550000Y-72850000D01*
D33*
X214350000Y-64600000D02*
X213949511Y-64199511D01*
D32*
X238400489Y-49000489D02*
X239275489Y-48125489D01*
D31*
X217650000Y-53550000D02*
X216650000Y-53550000D01*
D34*
X203500000Y-51300000D02*
X200800000Y-51300000D01*
D33*
X213949511Y-63100489D02*
X213949511Y-64424511D01*
D29*
X236800000Y-75100000D02*
X236800000Y-75600000D01*
D32*
X233200000Y-47600000D02*
X231950000Y-47600000D01*
D34*
X218750000Y-58900000D02*
X218949511Y-58700489D01*
D32*
X235700000Y-66500000D02*
X236200489Y-67000489D01*
X238150000Y-76300000D02*
X238750978Y-76300000D01*
D33*
X216292500Y-64192500D02*
X215000000Y-62900000D01*
D32*
X231200000Y-50750000D02*
X230200000Y-51750000D01*
X243400000Y-46274863D02*
X242838233Y-46836630D01*
D33*
X211650000Y-61650000D02*
X212600000Y-60700000D01*
D29*
X226991000Y-78909000D02*
X226800000Y-79100000D01*
D31*
X242400000Y-64900000D02*
X242400000Y-64050000D01*
X226590000Y-46930000D02*
X226460000Y-46800000D01*
D29*
X239000489Y-72600489D02*
X239000489Y-75649511D01*
D32*
X200800000Y-78015170D02*
X199392401Y-79422769D01*
X238600000Y-50900000D02*
X238600000Y-48500000D01*
D36*
X212200000Y-72000000D02*
X211900000Y-72000000D01*
D33*
X203000000Y-58380000D02*
X200800000Y-56180000D01*
X213000000Y-61475000D02*
X213000000Y-60700000D01*
D31*
X214800000Y-55250000D02*
X214550000Y-55000000D01*
X223300000Y-51000000D02*
X223350000Y-51000000D01*
D33*
X215050245Y-64449755D02*
X214857990Y-64257500D01*
D34*
X209000000Y-49400000D02*
X209000000Y-46350000D01*
D35*
X212892500Y-63892500D02*
X213157500Y-63892500D01*
D31*
X201375000Y-45171681D02*
X198907199Y-47639482D01*
D33*
X213014022Y-65162500D02*
X212987500Y-65162500D01*
D34*
X199754517Y-79645483D02*
X200654772Y-78745228D01*
D31*
X219600000Y-49400000D02*
X218350000Y-49400000D01*
D34*
X196994477Y-74561943D02*
X194750000Y-76806420D01*
D32*
X217316587Y-47666587D02*
X217316587Y-47250000D01*
D34*
X209275000Y-44425000D02*
X205275000Y-44425000D01*
X197350000Y-80000000D02*
X200050000Y-80000000D01*
D32*
X242299511Y-68000489D02*
X242700489Y-68000489D01*
D31*
X204130000Y-74120000D02*
X203000000Y-75250000D01*
D29*
X212894000Y-78952000D02*
X211846000Y-80000000D01*
D31*
X214550000Y-51900000D02*
X212800000Y-51900000D01*
D32*
X217800000Y-51000000D02*
X217800000Y-48450000D01*
D31*
X207649511Y-65499511D02*
X207649511Y-65700489D01*
X216100000Y-51000000D02*
X216400000Y-51000000D01*
D29*
X209600000Y-48500000D02*
X208050000Y-48500000D01*
D34*
X214200000Y-57600000D02*
X214100000Y-57500000D01*
X230200000Y-80000000D02*
X236100000Y-80000000D01*
D33*
X195720000Y-58280000D02*
X195720000Y-56180000D01*
D32*
X233400000Y-74600000D02*
X233400000Y-73000000D01*
X195720000Y-51300000D02*
X195720000Y-51670000D01*
X223000000Y-50150000D02*
X224200000Y-50150000D01*
D29*
X229300000Y-78800000D02*
X228800000Y-78800000D01*
X207650000Y-66650000D02*
X207946000Y-66946000D01*
D31*
X214550000Y-55950000D02*
X214550000Y-56950000D01*
D34*
X237632658Y-45367342D02*
X239182658Y-43817342D01*
D33*
X215600000Y-65850000D02*
X216000000Y-65850000D01*
D31*
X223150000Y-54350000D02*
X223300000Y-54350000D01*
D32*
X242449457Y-79296893D02*
X243489222Y-78257128D01*
X227850000Y-53300000D02*
X227850000Y-55750000D01*
D34*
X200200040Y-50049960D02*
X198950000Y-51300000D01*
D32*
X227125000Y-52875000D02*
X226000000Y-51750000D01*
D33*
X211949511Y-61100489D02*
X211700000Y-60850978D01*
X213200000Y-63850000D02*
X213200000Y-62550000D01*
D32*
X225250000Y-51200000D02*
X224200000Y-50150000D01*
D36*
X208444000Y-59394000D02*
X208444000Y-58969000D01*
D29*
X224038000Y-78750000D02*
X224028000Y-78740000D01*
X236500000Y-78800000D02*
X236300000Y-79000000D01*
D32*
X239622939Y-78255640D02*
X239622939Y-76652997D01*
D29*
X232199511Y-69100489D02*
X232349511Y-69250489D01*
D33*
X211500000Y-61300000D02*
X211425000Y-61375000D01*
D34*
X200800000Y-66480000D02*
X202719511Y-64560489D01*
D32*
X233400000Y-73000000D02*
X233860000Y-73000000D01*
X223100000Y-56250000D02*
X221625000Y-54775000D01*
X241148691Y-79548691D02*
X241854691Y-79548691D01*
X238100000Y-47850000D02*
X237050000Y-48900000D01*
D34*
X235400000Y-46400000D02*
X238100000Y-46400000D01*
D32*
X236200489Y-67000489D02*
X236200489Y-68000489D01*
D31*
X217800000Y-51000000D02*
X217800000Y-54650000D01*
D32*
X242194682Y-80105278D02*
X241799980Y-80499980D01*
D34*
X227125000Y-56325000D02*
X227125000Y-56475000D01*
D29*
X228800000Y-78800000D02*
X228200000Y-79400000D01*
D32*
X229900000Y-50050000D02*
X229900000Y-46650000D01*
X215450000Y-49450000D02*
X214550000Y-48550000D01*
D29*
X239000489Y-68000489D02*
X240200000Y-69200000D01*
D32*
X239960000Y-72040000D02*
X242910000Y-72040000D01*
D37*
X207500000Y-71400000D02*
X207500000Y-70600000D01*
D32*
X196400000Y-58450000D02*
X196800000Y-58050000D01*
X240100000Y-49900000D02*
X240100000Y-50000000D01*
X243130020Y-80719980D02*
X243130020Y-78616330D01*
D34*
X242249511Y-51399511D02*
X241250000Y-50400000D01*
D32*
X233934000Y-74584000D02*
X233918000Y-74600000D01*
D33*
X213557500Y-66057500D02*
X213557500Y-65842500D01*
D32*
X218000000Y-47750000D02*
X216000000Y-47750000D01*
D33*
X200800000Y-66480000D02*
X203000000Y-64280000D01*
D35*
X211800000Y-73550000D02*
X211800000Y-76700000D01*
D36*
X204467500Y-73950000D02*
X204130000Y-73612500D01*
D32*
X240200489Y-78999511D02*
X240225000Y-78975000D01*
D36*
X200800000Y-73600000D02*
X200800000Y-74200000D01*
D29*
X232925000Y-68375000D02*
X232199511Y-69100489D01*
D33*
X213000000Y-59500000D02*
X212800000Y-59500000D01*
D31*
X220750000Y-52250000D02*
X221400000Y-51600000D01*
X224350000Y-46800000D02*
X225800000Y-46800000D01*
D36*
X196250000Y-70550000D02*
X196250000Y-65795759D01*
D32*
X216516547Y-50083453D02*
X216516547Y-49816587D01*
D31*
X227325000Y-52875000D02*
X227400000Y-52950000D01*
D35*
X203900000Y-77750000D02*
X210900000Y-77750000D01*
D33*
X214112500Y-64587500D02*
X214400000Y-64300000D01*
D36*
X203650000Y-75400000D02*
X204050000Y-75800000D01*
D32*
X196600000Y-64700000D02*
X196600000Y-67500000D01*
X241349980Y-43150020D02*
X241902175Y-43150020D01*
D34*
X235199511Y-68000489D02*
X236200489Y-68000489D01*
D33*
X214900000Y-64450000D02*
X214575000Y-64125000D01*
X211949511Y-61100489D02*
X211924022Y-61075000D01*
D31*
X216892000Y-77240000D02*
X212340000Y-77240000D01*
D32*
X210600000Y-58000000D02*
X212050000Y-59450000D01*
D35*
X211750000Y-73300000D02*
X211725000Y-73325000D01*
D37*
X208000000Y-71900000D02*
X207500000Y-71400000D01*
D31*
X215250000Y-56650000D02*
X214550000Y-55950000D01*
D36*
X206150000Y-72800000D02*
X205350000Y-72000000D01*
D31*
X202200000Y-79600000D02*
X202600000Y-80000000D01*
D32*
X221200000Y-51400000D02*
X221200000Y-50000000D01*
D36*
X207310000Y-60244000D02*
X208706000Y-60244000D01*
D31*
X212250000Y-52450000D02*
X210975000Y-53725000D01*
X214550000Y-55350000D02*
X214550000Y-55950000D01*
D32*
X238950978Y-75600000D02*
X239000489Y-75649511D01*
D34*
X202719511Y-64560489D02*
X202719511Y-58299511D01*
D32*
X234100000Y-46000000D02*
X232250000Y-46000000D01*
D33*
X213537500Y-62688478D02*
X213274511Y-62425489D01*
D32*
X197000000Y-56060000D02*
X195720000Y-54780000D01*
X239960000Y-73840000D02*
X239960000Y-72040000D01*
X240619971Y-43569713D02*
X240372342Y-43817342D01*
D36*
X206250000Y-73450000D02*
X205129544Y-72329544D01*
D31*
X214550000Y-55000000D02*
X214550000Y-55350000D01*
X217800000Y-55250000D02*
X214800000Y-55250000D01*
D32*
X197216404Y-75554970D02*
X197383746Y-75554970D01*
X243200000Y-73080000D02*
X242440000Y-73840000D01*
D33*
X213537500Y-62462500D02*
X216037500Y-62462500D01*
X213537500Y-62037500D02*
X213537500Y-62462500D01*
D31*
X242400000Y-61100000D02*
X242400000Y-64900000D01*
D34*
X198735000Y-48285000D02*
X199520000Y-47500000D01*
D32*
X240225000Y-78975000D02*
X240641456Y-79391456D01*
X234754000Y-72850000D02*
X234802000Y-72898000D01*
D31*
X228925000Y-45925000D02*
X227325000Y-45925000D01*
D32*
X239510000Y-71590000D02*
X239510000Y-70740000D01*
X195319980Y-80719980D02*
X196380020Y-80719980D01*
D34*
X198950000Y-51300000D02*
X199450000Y-51300000D01*
D32*
X233550000Y-72850000D02*
X235594000Y-72850000D01*
D31*
X217352000Y-78050000D02*
X210250000Y-78050000D01*
D34*
X242100489Y-51250489D02*
X242100489Y-47999511D01*
D35*
X212892500Y-64307500D02*
X212892500Y-64792500D01*
D29*
X236058000Y-72482000D02*
X236340000Y-72200000D01*
D32*
X242050000Y-72950000D02*
X242050000Y-73250000D01*
D34*
X200800000Y-47500000D02*
X200800000Y-46350000D01*
D36*
X210900000Y-73950000D02*
X210900000Y-73450000D01*
D34*
X211450000Y-46650000D02*
X213675000Y-44425000D01*
D36*
X207944000Y-60744000D02*
X208444000Y-60244000D01*
D33*
X213949511Y-63100489D02*
X213450000Y-63600000D01*
D29*
X229047000Y-78547000D02*
X229300000Y-78800000D01*
D33*
X214100000Y-58900000D02*
X213900000Y-58900000D01*
D31*
X223950000Y-53750000D02*
X223350000Y-54350000D01*
D34*
X209600000Y-48500000D02*
X210600000Y-47500000D01*
D33*
X215850000Y-77400000D02*
X215700000Y-77250000D01*
X215892500Y-66057500D02*
X215357500Y-66057500D01*
D31*
X227325000Y-53025000D02*
X226800000Y-53550000D01*
D29*
X239000489Y-68000489D02*
X243600489Y-68000489D01*
D33*
X213537500Y-62688478D02*
X213537500Y-62037500D01*
D32*
X241650000Y-70550000D02*
X241650000Y-70050000D01*
X223275000Y-56425000D02*
X223100000Y-56250000D01*
D33*
X213987500Y-62462500D02*
X213000000Y-61475000D01*
D36*
X241800000Y-61100000D02*
X242400000Y-61100000D01*
D32*
X237325000Y-49325000D02*
X238100000Y-48550000D01*
D34*
X207450000Y-50950000D02*
X209000000Y-49400000D01*
D32*
X242725000Y-70225000D02*
X243200000Y-69750000D01*
D31*
X231725000Y-44425000D02*
X234100000Y-46800000D01*
D32*
X223950000Y-51000000D02*
X223950000Y-48500000D01*
X236450000Y-43650000D02*
X236360000Y-43740000D01*
D36*
X220472000Y-77470000D02*
X218900000Y-77470000D01*
D32*
X241650000Y-70050000D02*
X241250000Y-70050000D01*
X223000000Y-55300000D02*
X222050000Y-54350000D01*
D33*
X213000000Y-59568630D02*
X213000000Y-60700000D01*
D32*
X194750000Y-80150000D02*
X195319980Y-80719980D01*
D29*
X238150000Y-70550000D02*
X237150000Y-69550000D01*
D35*
X202700000Y-74250000D02*
X202700000Y-77150000D01*
D33*
X213537500Y-63737500D02*
X213537500Y-64412500D01*
X214350000Y-65000000D02*
X214350000Y-65300000D01*
X242500000Y-66600000D02*
X243425000Y-65675000D01*
D29*
X236800000Y-76300000D02*
X236800000Y-77100000D01*
D32*
X197350000Y-80000000D02*
X196081783Y-78731783D01*
D31*
X217800000Y-55250000D02*
X217800000Y-56450000D01*
D32*
X231550000Y-46000000D02*
X229975000Y-44425000D01*
X243286020Y-44150020D02*
X243286020Y-43566020D01*
X243600489Y-65850489D02*
X243425000Y-65675000D01*
D33*
X214850245Y-64249755D02*
X215207500Y-63892500D01*
D32*
X218949511Y-58700489D02*
X219375000Y-59125978D01*
D33*
X216292500Y-66057500D02*
X216107500Y-66057500D01*
D34*
X228100000Y-80000000D02*
X230200000Y-80000000D01*
D32*
X220425000Y-50225000D02*
X219600000Y-49400000D01*
D31*
X217250000Y-52250000D02*
X217250000Y-53250000D01*
D32*
X220250000Y-50050000D02*
X219450000Y-50050000D01*
X225250000Y-48550000D02*
X224975000Y-48275000D01*
D31*
X216400000Y-51000000D02*
X217800000Y-51000000D01*
D29*
X243200000Y-70950000D02*
X243200000Y-73600000D01*
D31*
X216300000Y-49400000D02*
X216300000Y-50250000D01*
D32*
X242805980Y-80499980D02*
X242805980Y-80194060D01*
D29*
X194260020Y-73234221D02*
X194260020Y-69331980D01*
D32*
X242400000Y-52900000D02*
X242750000Y-52550000D01*
D33*
X214500000Y-65300000D02*
X214500000Y-64750000D01*
D29*
X224028000Y-78740000D02*
X224028000Y-77470000D01*
D32*
X243200000Y-71750000D02*
X243200000Y-73080000D01*
D33*
X211650000Y-61650000D02*
X211500000Y-61500000D01*
X213949511Y-64599511D02*
X214350000Y-65000000D01*
D29*
X219710000Y-77978000D02*
X219202000Y-77978000D01*
D32*
X194760020Y-64305779D02*
X194760020Y-62710020D01*
X239275489Y-48375489D02*
X239275489Y-48125489D01*
D35*
X206150000Y-71200000D02*
X205750000Y-71600000D01*
D31*
X218350000Y-49400000D02*
X218350000Y-49800000D01*
D29*
X208400000Y-52100000D02*
X207500000Y-52100000D01*
X235980000Y-73660000D02*
X236160000Y-73840000D01*
D33*
X213000000Y-60700000D02*
X213000000Y-59600000D01*
X215892500Y-65292011D02*
X215550489Y-64950000D01*
D29*
X241148691Y-79548691D02*
X222951309Y-79548691D01*
D36*
X205706250Y-70643750D02*
X206475000Y-69875000D01*
D31*
X200800000Y-45202636D02*
X200800000Y-46220000D01*
D29*
X242843342Y-47732658D02*
X243670347Y-46905653D01*
D33*
X214800489Y-65700000D02*
X215550489Y-64950000D01*
D32*
X241148691Y-79548691D02*
X242194682Y-79548691D01*
D29*
X225288000Y-80000000D02*
X224004000Y-78716000D01*
D32*
X242050000Y-71300000D02*
X242050000Y-72950000D01*
D33*
X211950000Y-61650000D02*
X212100000Y-61500000D01*
D38*
%TO.N,Net-(C6-Pad2)*%
X209900000Y-62000000D02*
X209900000Y-62700000D01*
X209900000Y-62000000D02*
X210800000Y-62900000D01*
X212150000Y-63257500D02*
X211457500Y-63257500D01*
X210800000Y-62900000D02*
X211100000Y-62900000D01*
X212150000Y-63257500D02*
X212150000Y-63150000D01*
X211900000Y-62900000D02*
X211700000Y-62700000D01*
X209900000Y-62700000D02*
X210457500Y-63257500D01*
X210457500Y-63257500D02*
X212150000Y-63257500D01*
X211457500Y-63257500D02*
X211100000Y-62900000D01*
X212150000Y-63150000D02*
X211700000Y-62700000D01*
X212150000Y-63150000D02*
X211900000Y-62900000D01*
D32*
X210600000Y-62700000D02*
X209900000Y-62000000D01*
D38*
X211100000Y-62900000D02*
X211900000Y-62900000D01*
X211700000Y-62700000D02*
X210600000Y-62700000D01*
D31*
%TO.N,Net-(C7-Pad1)*%
X202280000Y-69020000D02*
X202780000Y-69020000D01*
X206400000Y-67900000D02*
X204900000Y-66400000D01*
X203850000Y-67950000D02*
X206400000Y-67950000D01*
X204325000Y-66975000D02*
X204900000Y-66400000D01*
X205300000Y-67950000D02*
X204325000Y-66975000D01*
X206400000Y-67950000D02*
X206400000Y-67900000D01*
X206400000Y-67950000D02*
X205300000Y-67950000D01*
X198260000Y-63620000D02*
X198260000Y-69020000D01*
X200520000Y-61360000D02*
X198260000Y-63620000D01*
X204900000Y-64650000D02*
X204900000Y-66400000D01*
X202280000Y-69020000D02*
X204325000Y-66975000D01*
X202780000Y-69020000D02*
X203850000Y-67950000D01*
X198260000Y-69020000D02*
X202280000Y-69020000D01*
%TO.N,Net-(C9-Pad1)*%
X234700000Y-71300000D02*
X231900000Y-71300000D01*
X230800000Y-70200000D02*
X231365000Y-70765000D01*
X231900000Y-71300000D02*
X231365000Y-70765000D01*
%TO.N,Net-(C12-Pad2)*%
X228770000Y-73500000D02*
X225925000Y-73500000D01*
X229570000Y-72700000D02*
X228770000Y-73500000D01*
X225925000Y-71425000D02*
X225925000Y-72355000D01*
X230800000Y-72700000D02*
X229570000Y-72700000D01*
X225925000Y-72355000D02*
X225925000Y-73500000D01*
X225800000Y-71300000D02*
X225925000Y-71425000D01*
D29*
%TO.N,Net-(C10-Pad2)*%
X225925000Y-77475000D02*
X225700000Y-77700000D01*
X227600000Y-74900000D02*
X226800000Y-75700000D01*
X230800000Y-74900000D02*
X227600000Y-74900000D01*
X225925000Y-75700000D02*
X226800000Y-75700000D01*
X225925000Y-75700000D02*
X225925000Y-77475000D01*
%TO.N,Net-(C10-Pad1)*%
X230800000Y-77400000D02*
X231900000Y-76300000D01*
X234620000Y-76300000D02*
X234700000Y-76380000D01*
X231900000Y-76300000D02*
X234620000Y-76300000D01*
D30*
%TO.N,Net-(R7-Pad2)*%
X218452546Y-69607500D02*
X218550000Y-69704954D01*
X220130000Y-73500000D02*
X218550000Y-71920000D01*
X217350000Y-69607500D02*
X218452546Y-69607500D01*
X223000000Y-73500000D02*
X220130000Y-73500000D01*
X218550000Y-69704954D02*
X218550000Y-71920000D01*
%TO.N,Net-(R8-Pad2)*%
X217350000Y-70242500D02*
X217350000Y-72350000D01*
D32*
X222950000Y-75700000D02*
X223000000Y-75750000D01*
D30*
X220740000Y-75730000D02*
X220740000Y-75760000D01*
X222990000Y-75760000D02*
X223000000Y-75750000D01*
X217350000Y-72350000D02*
X220060000Y-75060000D01*
X220740000Y-75760000D02*
X222990000Y-75760000D01*
X220070000Y-75060000D02*
X220740000Y-75730000D01*
X220060000Y-75060000D02*
X220070000Y-75060000D01*
D35*
%TO.N,Net-(C7-Pad2)*%
X212150000Y-65797500D02*
X211047500Y-65797500D01*
D38*
X211085500Y-65797500D02*
X211070989Y-65782989D01*
D35*
X211047500Y-65797500D02*
X210700000Y-65450000D01*
D31*
X209900000Y-64650000D02*
X209900000Y-64842824D01*
D38*
X212150000Y-65797500D02*
X211085500Y-65797500D01*
D31*
X209900000Y-64842824D02*
X210603588Y-65546412D01*
D35*
%TO.N,Net-(R2-Pad1)*%
X218450000Y-65800000D02*
X220550000Y-65800000D01*
X217350000Y-65797500D02*
X218447500Y-65797500D01*
X224597500Y-65797500D02*
X224800000Y-66000000D01*
X220550000Y-65800000D02*
X220552500Y-65797500D01*
X218447500Y-65797500D02*
X218450000Y-65800000D01*
X220552500Y-65797500D02*
X224597500Y-65797500D01*
%TO.N,Net-(C1-Pad1)*%
X221300000Y-62900000D02*
X222075000Y-62900000D01*
D32*
X222075000Y-62900000D02*
X223060000Y-62900000D01*
D30*
X219572500Y-64527500D02*
X219740000Y-64360000D01*
D32*
X224360000Y-61600000D02*
X224800000Y-61600000D01*
D30*
X217350000Y-64527500D02*
X219572500Y-64527500D01*
D33*
X224800000Y-62014651D02*
X224800000Y-61600000D01*
D35*
X219740000Y-64360000D02*
X221177500Y-62922500D01*
X219550000Y-64550000D02*
X219740000Y-64360000D01*
D32*
X223060000Y-62900000D02*
X224360000Y-61600000D01*
D30*
%TO.N,Net-(R11-Pad1)*%
X209897500Y-67702500D02*
X209750000Y-67850000D01*
X212150000Y-67702500D02*
X209897500Y-67702500D01*
D31*
X209897500Y-67702500D02*
X210497500Y-67702500D01*
D36*
%TO.N,Net-(C6-Pad1)*%
X205600000Y-58350000D02*
X205600000Y-58850000D01*
D31*
X204900000Y-59850000D02*
X204900000Y-58100000D01*
D36*
X205600000Y-58850000D02*
X204900000Y-59550000D01*
D33*
X198150000Y-59730000D02*
X197800000Y-60080000D01*
X196520000Y-61360000D02*
X197800000Y-60080000D01*
X196520000Y-61360000D02*
X198150000Y-59730000D01*
D31*
X206050000Y-58400000D02*
X206050000Y-57850000D01*
D36*
X205600000Y-56400000D02*
X202840000Y-53640000D01*
D31*
X204900000Y-59850000D02*
X204900000Y-59550000D01*
X202940000Y-53840000D02*
X203630000Y-54530000D01*
X206000000Y-53450000D02*
X198650000Y-53450000D01*
X206000000Y-53550000D02*
X206000000Y-53450000D01*
D29*
X203410000Y-54530000D02*
X203400000Y-54520000D01*
D31*
X203630000Y-54530000D02*
X204530000Y-54530000D01*
D33*
X198260000Y-59620000D02*
X198150000Y-59730000D01*
D36*
X205600000Y-57400000D02*
X205600000Y-56400000D01*
D31*
X205950000Y-53600000D02*
X206000000Y-53550000D01*
X205950000Y-54530000D02*
X205950000Y-58000000D01*
X198260000Y-53840000D02*
X202040000Y-53840000D01*
X205950000Y-56000000D02*
X205950000Y-58000000D01*
X206000000Y-58350000D02*
X206050000Y-58400000D01*
X204530000Y-54530000D02*
X205950000Y-54530000D01*
X205950000Y-55950000D02*
X205950000Y-56000000D01*
D36*
X205800000Y-58950000D02*
X204900000Y-59850000D01*
D31*
X204900000Y-59550000D02*
X206050000Y-58400000D01*
D36*
X204550000Y-56350000D02*
X204550000Y-61650000D01*
D31*
X205950000Y-58000000D02*
X205600000Y-58350000D01*
X202040000Y-53840000D02*
X204550000Y-56350000D01*
D36*
X205600000Y-57400000D02*
X205600000Y-58350000D01*
D31*
X204900000Y-62000000D02*
X204900000Y-59850000D01*
D36*
X202840000Y-53640000D02*
X198460000Y-53640000D01*
D31*
X206050000Y-57850000D02*
X205600000Y-57400000D01*
X205950000Y-54530000D02*
X205950000Y-56000000D01*
X206050000Y-58400000D02*
X206050000Y-56950000D01*
X205950000Y-54530000D02*
X205950000Y-53600000D01*
D36*
X205600000Y-57400000D02*
X204900000Y-58100000D01*
D31*
X198650000Y-53450000D02*
X198260000Y-53840000D01*
D36*
X206050000Y-58350000D02*
X205800000Y-58100000D01*
D33*
X198260000Y-53640000D02*
X198260000Y-59620000D01*
X197800000Y-60080000D02*
X198280000Y-59600000D01*
D31*
X206000000Y-53550000D02*
X206000000Y-58350000D01*
D36*
X206050000Y-58400000D02*
X206050000Y-58350000D01*
X198460000Y-53640000D02*
X198260000Y-53840000D01*
X204550000Y-61650000D02*
X204900000Y-62000000D01*
D29*
X205950000Y-54530000D02*
X203410000Y-54530000D01*
D31*
X198260000Y-59620000D02*
X198260000Y-53840000D01*
D33*
X201410000Y-53640000D02*
X198260000Y-53640000D01*
D31*
X202940000Y-53840000D02*
X198260000Y-53840000D01*
X204550000Y-56350000D02*
X205600000Y-57400000D01*
X196520000Y-61360000D02*
X198260000Y-59620000D01*
X204530000Y-54530000D02*
X205950000Y-55950000D01*
D36*
X205800000Y-58100000D02*
X204900000Y-58100000D01*
X202840000Y-53640000D02*
X201410000Y-53640000D01*
D31*
X206050000Y-56950000D02*
X202940000Y-53840000D01*
%TO.N,Net-(C4-Pad1)*%
X222302500Y-67702500D02*
X221462500Y-67702500D01*
D30*
X217350000Y-67702500D02*
X218607500Y-67702500D01*
D29*
X231100000Y-58100000D02*
X231100000Y-58600000D01*
X231100000Y-55900000D02*
X231100000Y-58100000D01*
D33*
X223920000Y-59720000D02*
X224150000Y-59950000D01*
D32*
X240562500Y-63237500D02*
X240600000Y-63200000D01*
X224380000Y-59720000D02*
X224400000Y-59700000D01*
X240562500Y-65800000D02*
X240562500Y-63237500D01*
D29*
X233100000Y-53900000D02*
X231100000Y-55900000D01*
D32*
X240300000Y-59000000D02*
X240562500Y-59000000D01*
X234600000Y-53900000D02*
X239000000Y-53900000D01*
D29*
X223700000Y-59700000D02*
X222580000Y-60820000D01*
D32*
X240600000Y-59037500D02*
X240562500Y-59000000D01*
X239100000Y-62100000D02*
X239100000Y-60200000D01*
X240562500Y-65800000D02*
X240562500Y-63550000D01*
X239100000Y-60200000D02*
X240300000Y-59000000D01*
D31*
X220780000Y-60820000D02*
X220750000Y-60850000D01*
D32*
X239000000Y-53900000D02*
X240425000Y-55325000D01*
D30*
X218607500Y-67702500D02*
X221462500Y-67702500D01*
D31*
X222450000Y-67850000D02*
X222302500Y-67702500D01*
D29*
X231100000Y-58600000D02*
X230000000Y-59700000D01*
X234600000Y-53900000D02*
X233100000Y-53900000D01*
X224400000Y-59700000D02*
X223700000Y-59700000D01*
D32*
X240562500Y-55462500D02*
X240425000Y-55325000D01*
X240600000Y-63200000D02*
X240200000Y-63200000D01*
X240562500Y-56500000D02*
X240562500Y-55462500D01*
X240562500Y-56500000D02*
X240562500Y-59000000D01*
X231100000Y-58600000D02*
X231100000Y-55900000D01*
X240200000Y-63200000D02*
X239100000Y-62100000D01*
D29*
X230000000Y-59700000D02*
X224400000Y-59700000D01*
D31*
X222580000Y-60820000D02*
X220780000Y-60820000D01*
D30*
%TO.N,Net-(C5-Pad1)*%
X221960000Y-69500000D02*
X222870000Y-70410000D01*
X222870000Y-70410000D02*
X223070000Y-70410000D01*
X219267500Y-68337500D02*
X220430000Y-69500000D01*
D31*
X223450000Y-71150000D02*
X223450000Y-70990000D01*
D30*
X220430000Y-69500000D02*
X221960000Y-69500000D01*
X217350000Y-68337500D02*
X219267500Y-68337500D01*
D31*
X223450000Y-70990000D02*
X222820000Y-70360000D01*
D32*
%TO.N,Net-(J6-Pad2)*%
X232200000Y-59250000D02*
X232200000Y-56950000D01*
X234600000Y-56440000D02*
X232710000Y-56440000D01*
D29*
X234660000Y-56500000D02*
X234600000Y-56440000D01*
X237637500Y-56500000D02*
X234660000Y-56500000D01*
D32*
X227725000Y-61600000D02*
X229850000Y-61600000D01*
X232710000Y-56440000D02*
X232200000Y-56950000D01*
X229850000Y-61600000D02*
X232200000Y-59250000D01*
%TO.N,Net-(J6-Pad4)*%
X228350000Y-65600000D02*
X228125000Y-65600000D01*
X228350000Y-65600000D02*
X229550000Y-65600000D01*
X229550000Y-65600000D02*
X233630000Y-61520000D01*
D29*
X236630000Y-63550000D02*
X234600000Y-61520000D01*
D32*
X233630000Y-61520000D02*
X234600000Y-61520000D01*
X228125000Y-65600000D02*
X227725000Y-66000000D01*
D29*
X237637500Y-63550000D02*
X236630000Y-63550000D01*
D32*
%TO.N,Net-(J6-Pad5)*%
X227737500Y-68200000D02*
X228200000Y-68200000D01*
X234600000Y-64060000D02*
X236340000Y-65800000D01*
X228300000Y-68200000D02*
X232440000Y-64060000D01*
X237637500Y-65800000D02*
X236340000Y-65800000D01*
X237637500Y-65800000D02*
X237150000Y-65800000D01*
D29*
X228300000Y-68200000D02*
X227737500Y-68200000D01*
D32*
X234600000Y-64060000D02*
X232940000Y-64060000D01*
X232440000Y-64060000D02*
X234600000Y-64060000D01*
D30*
%TO.N,Net-(R10-Pad1)*%
X212150000Y-68337500D02*
X211400000Y-68337500D01*
D35*
X209650000Y-70087500D02*
X209550000Y-69987500D01*
X209550000Y-69987500D02*
X209550000Y-69825000D01*
D30*
X211400000Y-68337500D02*
X209650000Y-70087500D01*
D35*
%TO.N,Net-(R13-Pad1)*%
X223650000Y-64100000D02*
X223400000Y-64100000D01*
D30*
X217350000Y-65162500D02*
X222337500Y-65162500D01*
X217350000Y-65162500D02*
X218187500Y-65162500D01*
D32*
X223650000Y-64100000D02*
X224500000Y-64100000D01*
X224500000Y-64100000D02*
X224800000Y-63800000D01*
D35*
X223400000Y-64100000D02*
X222337500Y-65162500D01*
D32*
%TO.N,Net-(J6-Pad3)*%
X227725000Y-63800000D02*
X229780000Y-63800000D01*
X231265000Y-62315000D02*
X230780000Y-62800000D01*
D33*
X229400000Y-63800000D02*
X230400000Y-62800000D01*
X227725000Y-63800000D02*
X229400000Y-63800000D01*
X234600000Y-59300000D02*
X234600000Y-58980000D01*
D29*
X237637500Y-59000000D02*
X237637500Y-61300000D01*
D32*
X237655000Y-61520000D02*
X237675000Y-61500000D01*
X229780000Y-63800000D02*
X231265000Y-62315000D01*
D33*
X231800000Y-62100000D02*
X234600000Y-59300000D01*
D29*
X237637500Y-59000000D02*
X234620000Y-59000000D01*
D33*
X230400000Y-62800000D02*
X231100000Y-62800000D01*
X231800000Y-62100000D02*
X231200000Y-62700000D01*
X227725000Y-63800000D02*
X228900000Y-63800000D01*
D29*
X234620000Y-59000000D02*
X234600000Y-58980000D01*
D32*
X234600000Y-58980000D02*
X231265000Y-62315000D01*
D30*
%TO.N,Net-(R3-Pad1)*%
X224812500Y-68200000D02*
X224600000Y-68200000D01*
X222832500Y-66432500D02*
X217350000Y-66432500D01*
D32*
X224686466Y-68200000D02*
X224812500Y-68200000D01*
D30*
X224600000Y-68200000D02*
X222832500Y-66432500D01*
%TD*%
M02*
