%TF.GenerationSoftware,KiCad,Pcbnew,6.0.2*%
%TF.CreationDate,2022-11-10T22:55:42+01:00*%
%TF.ProjectId,SI4735,53493437-3335-42e6-9b69-6361645f7063,rev?*%
%TF.SameCoordinates,Original*%
%TF.FileFunction,Legend,Bot*%
%TF.FilePolarity,Positive*%
%FSLAX46Y46*%
G04 Gerber Fmt 4.6, Leading zero omitted, Abs format (unit mm)*
G04 Created by KiCad (PCBNEW 6.0.2) date 2022-11-10 22:55:42*
%MOMM*%
%LPD*%
G01*
G04 APERTURE LIST*
%TA.AperFunction,Profile*%
%ADD10C,0.050000*%
%TD*%
%ADD11C,0.150000*%
%ADD12C,0.300000*%
%TA.AperFunction,Profile*%
%ADD13C,0.100000*%
%TD*%
%ADD14C,0.120000*%
G04 APERTURE END LIST*
D10*
X243000000Y-45450000D02*
G75*
G03*
X243000000Y-45450000I-1526434J0D01*
G01*
X243076434Y-77450000D02*
G75*
G03*
X243076434Y-77450000I-1526434J0D01*
G01*
X199535580Y-77486292D02*
G75*
G03*
X199535580Y-77486292I-1526434J0D01*
G01*
X244475000Y-81120000D02*
X193725000Y-81120000D01*
X193725000Y-81120000D02*
X193725000Y-42300000D01*
X193725000Y-42300000D02*
X244475000Y-42300000D01*
X244475000Y-42300000D02*
X244475000Y-81120000D01*
X199576434Y-45480000D02*
G75*
G03*
X199576434Y-45480000I-1526434J0D01*
G01*
D11*
%TO.C,C1*%
X223266666Y-61607142D02*
X223314285Y-61654761D01*
X223457142Y-61702380D01*
X223552380Y-61702380D01*
X223695238Y-61654761D01*
X223790476Y-61559523D01*
X223838095Y-61464285D01*
X223885714Y-61273809D01*
X223885714Y-61130952D01*
X223838095Y-60940476D01*
X223790476Y-60845238D01*
X223695238Y-60750000D01*
X223552380Y-60702380D01*
X223457142Y-60702380D01*
X223314285Y-60750000D01*
X223266666Y-60797619D01*
X222314285Y-61702380D02*
X222885714Y-61702380D01*
X222600000Y-61702380D02*
X222600000Y-60702380D01*
X222695238Y-60845238D01*
X222790476Y-60940476D01*
X222885714Y-60988095D01*
%TO.C,C2*%
X216257142Y-78983333D02*
X216304761Y-78935714D01*
X216352380Y-78792857D01*
X216352380Y-78697619D01*
X216304761Y-78554761D01*
X216209523Y-78459523D01*
X216114285Y-78411904D01*
X215923809Y-78364285D01*
X215780952Y-78364285D01*
X215590476Y-78411904D01*
X215495238Y-78459523D01*
X215400000Y-78554761D01*
X215352380Y-78697619D01*
X215352380Y-78792857D01*
X215400000Y-78935714D01*
X215447619Y-78983333D01*
X215447619Y-79364285D02*
X215400000Y-79411904D01*
X215352380Y-79507142D01*
X215352380Y-79745238D01*
X215400000Y-79840476D01*
X215447619Y-79888095D01*
X215542857Y-79935714D01*
X215638095Y-79935714D01*
X215780952Y-79888095D01*
X216352380Y-79316666D01*
X216352380Y-79935714D01*
%TO.C,C3*%
X213757142Y-78983333D02*
X213804761Y-78935714D01*
X213852380Y-78792857D01*
X213852380Y-78697619D01*
X213804761Y-78554761D01*
X213709523Y-78459523D01*
X213614285Y-78411904D01*
X213423809Y-78364285D01*
X213280952Y-78364285D01*
X213090476Y-78411904D01*
X212995238Y-78459523D01*
X212900000Y-78554761D01*
X212852380Y-78697619D01*
X212852380Y-78792857D01*
X212900000Y-78935714D01*
X212947619Y-78983333D01*
X212852380Y-79316666D02*
X212852380Y-79935714D01*
X213233333Y-79602380D01*
X213233333Y-79745238D01*
X213280952Y-79840476D01*
X213328571Y-79888095D01*
X213423809Y-79935714D01*
X213661904Y-79935714D01*
X213757142Y-79888095D01*
X213804761Y-79840476D01*
X213852380Y-79745238D01*
X213852380Y-79459523D01*
X213804761Y-79364285D01*
X213757142Y-79316666D01*
%TO.C,R1*%
X230666666Y-62052380D02*
X231000000Y-61576190D01*
X231238095Y-62052380D02*
X231238095Y-61052380D01*
X230857142Y-61052380D01*
X230761904Y-61100000D01*
X230714285Y-61147619D01*
X230666666Y-61242857D01*
X230666666Y-61385714D01*
X230714285Y-61480952D01*
X230761904Y-61528571D01*
X230857142Y-61576190D01*
X231238095Y-61576190D01*
X229714285Y-62052380D02*
X230285714Y-62052380D01*
X230000000Y-62052380D02*
X230000000Y-61052380D01*
X230095238Y-61195238D01*
X230190476Y-61290476D01*
X230285714Y-61338095D01*
%TO.C,R2*%
X230666666Y-66452380D02*
X231000000Y-65976190D01*
X231238095Y-66452380D02*
X231238095Y-65452380D01*
X230857142Y-65452380D01*
X230761904Y-65500000D01*
X230714285Y-65547619D01*
X230666666Y-65642857D01*
X230666666Y-65785714D01*
X230714285Y-65880952D01*
X230761904Y-65928571D01*
X230857142Y-65976190D01*
X231238095Y-65976190D01*
X230285714Y-65547619D02*
X230238095Y-65500000D01*
X230142857Y-65452380D01*
X229904761Y-65452380D01*
X229809523Y-65500000D01*
X229761904Y-65547619D01*
X229714285Y-65642857D01*
X229714285Y-65738095D01*
X229761904Y-65880952D01*
X230333333Y-66452380D01*
X229714285Y-66452380D01*
%TO.C,R3*%
X230666666Y-68652380D02*
X231000000Y-68176190D01*
X231238095Y-68652380D02*
X231238095Y-67652380D01*
X230857142Y-67652380D01*
X230761904Y-67700000D01*
X230714285Y-67747619D01*
X230666666Y-67842857D01*
X230666666Y-67985714D01*
X230714285Y-68080952D01*
X230761904Y-68128571D01*
X230857142Y-68176190D01*
X231238095Y-68176190D01*
X230333333Y-67652380D02*
X229714285Y-67652380D01*
X230047619Y-68033333D01*
X229904761Y-68033333D01*
X229809523Y-68080952D01*
X229761904Y-68128571D01*
X229714285Y-68223809D01*
X229714285Y-68461904D01*
X229761904Y-68557142D01*
X229809523Y-68604761D01*
X229904761Y-68652380D01*
X230190476Y-68652380D01*
X230285714Y-68604761D01*
X230333333Y-68557142D01*
%TO.C,R4*%
X243516666Y-64102380D02*
X243850000Y-63626190D01*
X244088095Y-64102380D02*
X244088095Y-63102380D01*
X243707142Y-63102380D01*
X243611904Y-63150000D01*
X243564285Y-63197619D01*
X243516666Y-63292857D01*
X243516666Y-63435714D01*
X243564285Y-63530952D01*
X243611904Y-63578571D01*
X243707142Y-63626190D01*
X244088095Y-63626190D01*
X242659523Y-63435714D02*
X242659523Y-64102380D01*
X242897619Y-63054761D02*
X243135714Y-63769047D01*
X242516666Y-63769047D01*
%TO.C,R5*%
X243516666Y-66402380D02*
X243850000Y-65926190D01*
X244088095Y-66402380D02*
X244088095Y-65402380D01*
X243707142Y-65402380D01*
X243611904Y-65450000D01*
X243564285Y-65497619D01*
X243516666Y-65592857D01*
X243516666Y-65735714D01*
X243564285Y-65830952D01*
X243611904Y-65878571D01*
X243707142Y-65926190D01*
X244088095Y-65926190D01*
X242611904Y-65402380D02*
X243088095Y-65402380D01*
X243135714Y-65878571D01*
X243088095Y-65830952D01*
X242992857Y-65783333D01*
X242754761Y-65783333D01*
X242659523Y-65830952D01*
X242611904Y-65878571D01*
X242564285Y-65973809D01*
X242564285Y-66211904D01*
X242611904Y-66307142D01*
X242659523Y-66354761D01*
X242754761Y-66402380D01*
X242992857Y-66402380D01*
X243088095Y-66354761D01*
X243135714Y-66307142D01*
%TO.C,R6*%
X243516666Y-56952380D02*
X243850000Y-56476190D01*
X244088095Y-56952380D02*
X244088095Y-55952380D01*
X243707142Y-55952380D01*
X243611904Y-56000000D01*
X243564285Y-56047619D01*
X243516666Y-56142857D01*
X243516666Y-56285714D01*
X243564285Y-56380952D01*
X243611904Y-56428571D01*
X243707142Y-56476190D01*
X244088095Y-56476190D01*
X242659523Y-55952380D02*
X242850000Y-55952380D01*
X242945238Y-56000000D01*
X242992857Y-56047619D01*
X243088095Y-56190476D01*
X243135714Y-56380952D01*
X243135714Y-56761904D01*
X243088095Y-56857142D01*
X243040476Y-56904761D01*
X242945238Y-56952380D01*
X242754761Y-56952380D01*
X242659523Y-56904761D01*
X242611904Y-56857142D01*
X242564285Y-56761904D01*
X242564285Y-56523809D01*
X242611904Y-56428571D01*
X242659523Y-56380952D01*
X242754761Y-56333333D01*
X242945238Y-56333333D01*
X243040476Y-56380952D01*
X243088095Y-56428571D01*
X243135714Y-56523809D01*
%TO.C,R7*%
X221400666Y-73858380D02*
X221734000Y-73382190D01*
X221972095Y-73858380D02*
X221972095Y-72858380D01*
X221591142Y-72858380D01*
X221495904Y-72906000D01*
X221448285Y-72953619D01*
X221400666Y-73048857D01*
X221400666Y-73191714D01*
X221448285Y-73286952D01*
X221495904Y-73334571D01*
X221591142Y-73382190D01*
X221972095Y-73382190D01*
X221067333Y-72858380D02*
X220400666Y-72858380D01*
X220829238Y-73858380D01*
%TO.C,R8*%
X221400666Y-76194380D02*
X221734000Y-75718190D01*
X221972095Y-76194380D02*
X221972095Y-75194380D01*
X221591142Y-75194380D01*
X221495904Y-75242000D01*
X221448285Y-75289619D01*
X221400666Y-75384857D01*
X221400666Y-75527714D01*
X221448285Y-75622952D01*
X221495904Y-75670571D01*
X221591142Y-75718190D01*
X221972095Y-75718190D01*
X220829238Y-75622952D02*
X220924476Y-75575333D01*
X220972095Y-75527714D01*
X221019714Y-75432476D01*
X221019714Y-75384857D01*
X220972095Y-75289619D01*
X220924476Y-75242000D01*
X220829238Y-75194380D01*
X220638761Y-75194380D01*
X220543523Y-75242000D01*
X220495904Y-75289619D01*
X220448285Y-75384857D01*
X220448285Y-75432476D01*
X220495904Y-75527714D01*
X220543523Y-75575333D01*
X220638761Y-75622952D01*
X220829238Y-75622952D01*
X220924476Y-75670571D01*
X220972095Y-75718190D01*
X221019714Y-75813428D01*
X221019714Y-76003904D01*
X220972095Y-76099142D01*
X220924476Y-76146761D01*
X220829238Y-76194380D01*
X220638761Y-76194380D01*
X220543523Y-76146761D01*
X220495904Y-76099142D01*
X220448285Y-76003904D01*
X220448285Y-75813428D01*
X220495904Y-75718190D01*
X220543523Y-75670571D01*
X220638761Y-75622952D01*
%TO.C,U2*%
X215511904Y-71302380D02*
X215511904Y-72111904D01*
X215464285Y-72207142D01*
X215416666Y-72254761D01*
X215321428Y-72302380D01*
X215130952Y-72302380D01*
X215035714Y-72254761D01*
X214988095Y-72207142D01*
X214940476Y-72111904D01*
X214940476Y-71302380D01*
X214511904Y-71397619D02*
X214464285Y-71350000D01*
X214369047Y-71302380D01*
X214130952Y-71302380D01*
X214035714Y-71350000D01*
X213988095Y-71397619D01*
X213940476Y-71492857D01*
X213940476Y-71588095D01*
X213988095Y-71730952D01*
X214559523Y-72302380D01*
X213940476Y-72302380D01*
%TO.C,R13*%
X230692857Y-64252380D02*
X231026190Y-63776190D01*
X231264285Y-64252380D02*
X231264285Y-63252380D01*
X230883333Y-63252380D01*
X230788095Y-63300000D01*
X230740476Y-63347619D01*
X230692857Y-63442857D01*
X230692857Y-63585714D01*
X230740476Y-63680952D01*
X230788095Y-63728571D01*
X230883333Y-63776190D01*
X231264285Y-63776190D01*
X229740476Y-64252380D02*
X230311904Y-64252380D01*
X230026190Y-64252380D02*
X230026190Y-63252380D01*
X230121428Y-63395238D01*
X230216666Y-63490476D01*
X230311904Y-63538095D01*
X229407142Y-63252380D02*
X228788095Y-63252380D01*
X229121428Y-63633333D01*
X228978571Y-63633333D01*
X228883333Y-63680952D01*
X228835714Y-63728571D01*
X228788095Y-63823809D01*
X228788095Y-64061904D01*
X228835714Y-64157142D01*
X228883333Y-64204761D01*
X228978571Y-64252380D01*
X229264285Y-64252380D01*
X229359523Y-64204761D01*
X229407142Y-64157142D01*
%TO.C,R12*%
X243542857Y-59452380D02*
X243876190Y-58976190D01*
X244114285Y-59452380D02*
X244114285Y-58452380D01*
X243733333Y-58452380D01*
X243638095Y-58500000D01*
X243590476Y-58547619D01*
X243542857Y-58642857D01*
X243542857Y-58785714D01*
X243590476Y-58880952D01*
X243638095Y-58928571D01*
X243733333Y-58976190D01*
X244114285Y-58976190D01*
X242590476Y-59452380D02*
X243161904Y-59452380D01*
X242876190Y-59452380D02*
X242876190Y-58452380D01*
X242971428Y-58595238D01*
X243066666Y-58690476D01*
X243161904Y-58738095D01*
X242209523Y-58547619D02*
X242161904Y-58500000D01*
X242066666Y-58452380D01*
X241828571Y-58452380D01*
X241733333Y-58500000D01*
X241685714Y-58547619D01*
X241638095Y-58642857D01*
X241638095Y-58738095D01*
X241685714Y-58880952D01*
X242257142Y-59452380D01*
X241638095Y-59452380D01*
%TO.C,R10*%
X210252380Y-74669642D02*
X209776190Y-74336309D01*
X210252380Y-74098214D02*
X209252380Y-74098214D01*
X209252380Y-74479166D01*
X209300000Y-74574404D01*
X209347619Y-74622023D01*
X209442857Y-74669642D01*
X209585714Y-74669642D01*
X209680952Y-74622023D01*
X209728571Y-74574404D01*
X209776190Y-74479166D01*
X209776190Y-74098214D01*
X210252380Y-75622023D02*
X210252380Y-75050595D01*
X210252380Y-75336309D02*
X209252380Y-75336309D01*
X209395238Y-75241071D01*
X209490476Y-75145833D01*
X209538095Y-75050595D01*
X209252380Y-76241071D02*
X209252380Y-76336309D01*
X209300000Y-76431547D01*
X209347619Y-76479166D01*
X209442857Y-76526785D01*
X209633333Y-76574404D01*
X209871428Y-76574404D01*
X210061904Y-76526785D01*
X210157142Y-76479166D01*
X210204761Y-76431547D01*
X210252380Y-76336309D01*
X210252380Y-76241071D01*
X210204761Y-76145833D01*
X210157142Y-76098214D01*
X210061904Y-76050595D01*
X209871428Y-76002976D01*
X209633333Y-76002976D01*
X209442857Y-76050595D01*
X209347619Y-76098214D01*
X209300000Y-76145833D01*
X209252380Y-76241071D01*
%TO.C,R14*%
X243542857Y-61802380D02*
X243876190Y-61326190D01*
X244114285Y-61802380D02*
X244114285Y-60802380D01*
X243733333Y-60802380D01*
X243638095Y-60850000D01*
X243590476Y-60897619D01*
X243542857Y-60992857D01*
X243542857Y-61135714D01*
X243590476Y-61230952D01*
X243638095Y-61278571D01*
X243733333Y-61326190D01*
X244114285Y-61326190D01*
X242590476Y-61802380D02*
X243161904Y-61802380D01*
X242876190Y-61802380D02*
X242876190Y-60802380D01*
X242971428Y-60945238D01*
X243066666Y-61040476D01*
X243161904Y-61088095D01*
X241733333Y-61135714D02*
X241733333Y-61802380D01*
X241971428Y-60754761D02*
X242209523Y-61469047D01*
X241590476Y-61469047D01*
D12*
%TO.C,G\u002A\u002A\u002A*%
X221642571Y-40238000D02*
X221787714Y-40165428D01*
X222005428Y-40165428D01*
X222223142Y-40238000D01*
X222368285Y-40383142D01*
X222440857Y-40528285D01*
X222513428Y-40818571D01*
X222513428Y-41036285D01*
X222440857Y-41326571D01*
X222368285Y-41471714D01*
X222223142Y-41616857D01*
X222005428Y-41689428D01*
X221860285Y-41689428D01*
X221642571Y-41616857D01*
X221570000Y-41544285D01*
X221570000Y-41036285D01*
X221860285Y-41036285D01*
X220699142Y-40165428D02*
X220699142Y-40528285D01*
X221062000Y-40383142D02*
X220699142Y-40528285D01*
X220336285Y-40383142D01*
X220916857Y-40818571D02*
X220699142Y-40528285D01*
X220481428Y-40818571D01*
X219538000Y-40165428D02*
X219538000Y-40528285D01*
X219900857Y-40383142D02*
X219538000Y-40528285D01*
X219175142Y-40383142D01*
X219755714Y-40818571D02*
X219538000Y-40528285D01*
X219320285Y-40818571D01*
X218376857Y-40165428D02*
X218376857Y-40528285D01*
X218739714Y-40383142D02*
X218376857Y-40528285D01*
X218014000Y-40383142D01*
X218594571Y-40818571D02*
X218376857Y-40528285D01*
X218159142Y-40818571D01*
D13*
%TO.C,J2*%
X193760000Y-49540000D02*
X193760000Y-58140000D01*
%TO.C,J3*%
X193760000Y-64720000D02*
X193760000Y-73320000D01*
D14*
%TO.C,C1*%
X221311252Y-63810000D02*
X219888748Y-63810000D01*
X221311252Y-61990000D02*
X219888748Y-61990000D01*
%TO.C,C2*%
X214990000Y-74980748D02*
X214990000Y-76403252D01*
X216810000Y-74980748D02*
X216810000Y-76403252D01*
%TO.C,C3*%
X214270000Y-74980748D02*
X214270000Y-76403252D01*
X212450000Y-74980748D02*
X212450000Y-76403252D01*
%TO.C,R1*%
X225535436Y-60690000D02*
X226989564Y-60690000D01*
X225535436Y-62510000D02*
X226989564Y-62510000D01*
%TO.C,R2*%
X225535436Y-66910000D02*
X226989564Y-66910000D01*
X225535436Y-65090000D02*
X226989564Y-65090000D01*
%TO.C,R3*%
X225547936Y-69110000D02*
X227002064Y-69110000D01*
X225547936Y-67290000D02*
X227002064Y-67290000D01*
%TO.C,R4*%
X239827064Y-64460000D02*
X238372936Y-64460000D01*
X239827064Y-62640000D02*
X238372936Y-62640000D01*
%TO.C,R5*%
X239827064Y-64890000D02*
X238372936Y-64890000D01*
X239827064Y-66710000D02*
X238372936Y-66710000D01*
%TO.C,R6*%
X239827064Y-55590000D02*
X238372936Y-55590000D01*
X239827064Y-57410000D02*
X238372936Y-57410000D01*
%TO.C,R7*%
X225189564Y-72590000D02*
X223735436Y-72590000D01*
X225189564Y-74410000D02*
X223735436Y-74410000D01*
%TO.C,R8*%
X225189564Y-74840000D02*
X223735436Y-74840000D01*
X225189564Y-76660000D02*
X223735436Y-76660000D01*
D11*
%TO.C,U2*%
X216825000Y-71225000D02*
X216825000Y-70667500D01*
X212675000Y-70750000D02*
X211550000Y-70750000D01*
X212675000Y-71225000D02*
X216825000Y-71225000D01*
X212675000Y-71225000D02*
X212675000Y-70750000D01*
X212675000Y-62275000D02*
X212675000Y-62832500D01*
X212675000Y-62275000D02*
X216825000Y-62275000D01*
X216825000Y-62275000D02*
X216825000Y-62832500D01*
D14*
%TO.C,R13*%
X225535436Y-62890000D02*
X226989564Y-62890000D01*
X225535436Y-64710000D02*
X226989564Y-64710000D01*
%TO.C,R12*%
X239827064Y-59910000D02*
X238372936Y-59910000D01*
X239827064Y-58090000D02*
X238372936Y-58090000D01*
%TO.C,R10*%
X208740000Y-70822936D02*
X208740000Y-72277064D01*
X210560000Y-70822936D02*
X210560000Y-72277064D01*
%TO.C,R14*%
X238372936Y-62210000D02*
X239827064Y-62210000D01*
X238372936Y-60390000D02*
X239827064Y-60390000D01*
%TO.C,G\u002A\u002A\u002A*%
G36*
X221501008Y-46478174D02*
G01*
X221523493Y-46581996D01*
X221519942Y-46612547D01*
X221480880Y-46744489D01*
X221407837Y-46928171D01*
X221312267Y-47133676D01*
X221270725Y-47218514D01*
X221183861Y-47407853D01*
X221142613Y-47509668D01*
X221123597Y-47556605D01*
X221101040Y-47638237D01*
X221097813Y-47651330D01*
X221088737Y-47688151D01*
X221037208Y-47820869D01*
X220954766Y-48006631D01*
X220914503Y-48090541D01*
X220851492Y-48221859D01*
X220769124Y-48384502D01*
X220675788Y-48560184D01*
X220606735Y-48679949D01*
X220572824Y-48724221D01*
X220562668Y-48716288D01*
X220512807Y-48639662D01*
X220437011Y-48501707D01*
X220347508Y-48327214D01*
X220312802Y-48256169D01*
X220385082Y-48256169D01*
X220423299Y-48289259D01*
X220543454Y-48301767D01*
X220600333Y-48301286D01*
X220691211Y-48285867D01*
X220725865Y-48225772D01*
X220731393Y-48090541D01*
X220730047Y-48043192D01*
X220711654Y-47926162D01*
X220678587Y-47879314D01*
X220677930Y-47879326D01*
X220641076Y-47926502D01*
X220625780Y-48037734D01*
X220624941Y-48073582D01*
X220598684Y-48169798D01*
X220523283Y-48196154D01*
X220462632Y-48204600D01*
X220388150Y-48248961D01*
X220385082Y-48256169D01*
X220312802Y-48256169D01*
X220256530Y-48140977D01*
X220176307Y-47967787D01*
X220119067Y-47832438D01*
X220097043Y-47759723D01*
X220093233Y-47740361D01*
X220055352Y-47640574D01*
X220437389Y-47640574D01*
X220467360Y-47694491D01*
X220509894Y-47737850D01*
X220572973Y-47773701D01*
X220605597Y-47760692D01*
X220678587Y-47694491D01*
X220707160Y-47651330D01*
X220683941Y-47622111D01*
X220572973Y-47615281D01*
X220482386Y-47618631D01*
X220437389Y-47640574D01*
X220055352Y-47640574D01*
X220053857Y-47636635D01*
X219996458Y-47509668D01*
X220308940Y-47509668D01*
X220326758Y-47528689D01*
X220422357Y-47552976D01*
X220572973Y-47562474D01*
X220668082Y-47558911D01*
X220789514Y-47539791D01*
X220837007Y-47509668D01*
X220819188Y-47490646D01*
X220723589Y-47466359D01*
X220572973Y-47456861D01*
X220477865Y-47460424D01*
X220356433Y-47479544D01*
X220308940Y-47509668D01*
X219996458Y-47509668D01*
X219980930Y-47475320D01*
X219885816Y-47282112D01*
X219843955Y-47199661D01*
X219757583Y-47026118D01*
X219697678Y-46900782D01*
X219675260Y-46846457D01*
X219694922Y-46832972D01*
X219780874Y-46823181D01*
X219842462Y-46808479D01*
X219886487Y-46743971D01*
X219892445Y-46707532D01*
X219939294Y-46664761D01*
X219963586Y-46673698D01*
X219992100Y-46743971D01*
X220001301Y-46780911D01*
X220071310Y-46823181D01*
X220113980Y-46804701D01*
X220142351Y-46721730D01*
X220150520Y-46553830D01*
X220150520Y-46284480D01*
X219912890Y-46303379D01*
X219841460Y-46308508D01*
X219722331Y-46313722D01*
X219675260Y-46310375D01*
X219680833Y-46296257D01*
X219721761Y-46207787D01*
X219793766Y-46057182D01*
X219886487Y-45866227D01*
X219931178Y-45773181D01*
X220016532Y-45585128D01*
X220075627Y-45440141D01*
X220097713Y-45363785D01*
X220101316Y-45342966D01*
X220105464Y-45331393D01*
X220204794Y-45331393D01*
X220209368Y-45344679D01*
X220264994Y-45420244D01*
X220363214Y-45525017D01*
X220402297Y-45565448D01*
X220494730Y-45709263D01*
X220520167Y-45882594D01*
X220524877Y-45980866D01*
X220561763Y-46083358D01*
X220652183Y-46146303D01*
X220740818Y-46207866D01*
X220784200Y-46287749D01*
X220772407Y-46338388D01*
X220720832Y-46305676D01*
X220692993Y-46284153D01*
X220564648Y-46246404D01*
X220420424Y-46256420D01*
X220315864Y-46313175D01*
X220293813Y-46343816D01*
X220289250Y-46407564D01*
X220374053Y-46442740D01*
X220555371Y-46453534D01*
X220618381Y-46455200D01*
X220737092Y-46470448D01*
X220784200Y-46496458D01*
X220776237Y-46507655D01*
X220696825Y-46529097D01*
X220559772Y-46536063D01*
X220503132Y-46536541D01*
X220366560Y-46555832D01*
X220327005Y-46591534D01*
X220386173Y-46629217D01*
X220545771Y-46654453D01*
X220617388Y-46661301D01*
X220736955Y-46684914D01*
X220784200Y-46713974D01*
X220774432Y-46725352D01*
X220692153Y-46738247D01*
X220553452Y-46731392D01*
X220514808Y-46727687D01*
X220362833Y-46730313D01*
X220286241Y-46764381D01*
X220294330Y-46820994D01*
X220376359Y-46869616D01*
X220502581Y-46896646D01*
X220641654Y-46890925D01*
X220709883Y-46884001D01*
X220777703Y-46907036D01*
X220759301Y-46955672D01*
X220652183Y-47003286D01*
X220553129Y-47054836D01*
X220520167Y-47167430D01*
X220519642Y-47190766D01*
X220488712Y-47276561D01*
X220388150Y-47298441D01*
X220301324Y-47311552D01*
X220256133Y-47351248D01*
X220289788Y-47375096D01*
X220404206Y-47396038D01*
X220572973Y-47404054D01*
X220716061Y-47398445D01*
X220841714Y-47379375D01*
X220889813Y-47351248D01*
X220857037Y-47316517D01*
X220757797Y-47298441D01*
X220683605Y-47283914D01*
X220626853Y-47218045D01*
X220644808Y-47129519D01*
X220739945Y-47052412D01*
X220751306Y-47047115D01*
X220806075Y-47006318D01*
X220839079Y-46933923D01*
X220857197Y-46805260D01*
X220857677Y-46795306D01*
X220901056Y-46795306D01*
X220988986Y-46823181D01*
X221075172Y-46793448D01*
X221171039Y-46704366D01*
X221253920Y-46585551D01*
X221256690Y-46704366D01*
X221273905Y-46777918D01*
X221338670Y-46823181D01*
X221380792Y-46805385D01*
X221409580Y-46723215D01*
X221417880Y-46556111D01*
X221417880Y-46289042D01*
X221193452Y-46305280D01*
X221127558Y-46310593D01*
X221019865Y-46331818D01*
X220976829Y-46383129D01*
X220969023Y-46488559D01*
X220969021Y-46490287D01*
X220957254Y-46618922D01*
X220929418Y-46695385D01*
X220904607Y-46725779D01*
X220901056Y-46795306D01*
X220857677Y-46795306D01*
X220867309Y-46595659D01*
X220869850Y-46509306D01*
X220869868Y-46331383D01*
X220854630Y-46220780D01*
X220817825Y-46149529D01*
X220753145Y-46089663D01*
X220703297Y-46043131D01*
X220632444Y-45891156D01*
X220660952Y-45708232D01*
X220788637Y-45497412D01*
X220951495Y-45291788D01*
X220577411Y-45291788D01*
X220558718Y-45291837D01*
X220379181Y-45297862D01*
X220252401Y-45311983D01*
X220204794Y-45331393D01*
X220105464Y-45331393D01*
X220138135Y-45240234D01*
X220205036Y-45085164D01*
X220289950Y-44902605D01*
X220380812Y-44717408D01*
X220465553Y-44554422D01*
X220532106Y-44438498D01*
X220568404Y-44394487D01*
X220605780Y-44429995D01*
X220660417Y-44526504D01*
X220689463Y-44596046D01*
X220683245Y-44647719D01*
X220602767Y-44658108D01*
X220558806Y-44662859D01*
X220481038Y-44718623D01*
X220419481Y-44856133D01*
X220408857Y-44888473D01*
X220360978Y-45029226D01*
X220327512Y-45120166D01*
X220329413Y-45160636D01*
X220404503Y-45186175D01*
X220467789Y-45171662D01*
X220542021Y-45099777D01*
X220559351Y-45060205D01*
X220596539Y-45042385D01*
X220670644Y-45099777D01*
X220698824Y-45123868D01*
X220804567Y-45182684D01*
X220865222Y-45162991D01*
X220865347Y-45067360D01*
X220864427Y-45039535D01*
X220898982Y-45076516D01*
X220965016Y-45186175D01*
X221010032Y-45272226D01*
X221018758Y-45291788D01*
X221072933Y-45413232D01*
X221098654Y-45503240D01*
X221104005Y-45530126D01*
X221145300Y-45645331D01*
X221218335Y-45816716D01*
X221312267Y-46018147D01*
X221354284Y-46107341D01*
X221431914Y-46289042D01*
X221440920Y-46310121D01*
X221501008Y-46478174D01*
G37*
G36*
X219951505Y-46455564D02*
G01*
X219992100Y-46506341D01*
X219991495Y-46518292D01*
X219968813Y-46559148D01*
X219960343Y-46556718D01*
X219912890Y-46506341D01*
X219904639Y-46485886D01*
X219936177Y-46453534D01*
X219951505Y-46455564D01*
G37*
G36*
X217615801Y-48486591D02*
G01*
X217589397Y-48512994D01*
X217562994Y-48486591D01*
X217589397Y-48460187D01*
X217615801Y-48486591D01*
G37*
G36*
X215162262Y-56099325D02*
G01*
X215212288Y-56167581D01*
X215243151Y-56315928D01*
X215250004Y-56374591D01*
X215256927Y-56503364D01*
X215247552Y-56566759D01*
X215205146Y-56582619D01*
X215098684Y-56592412D01*
X215059397Y-56590525D01*
X214993934Y-56554052D01*
X214982659Y-56447194D01*
X214986945Y-56378930D01*
X214996009Y-56351144D01*
X215012736Y-56420790D01*
X215043479Y-56494708D01*
X215111158Y-56539605D01*
X215164653Y-56500453D01*
X215190685Y-56398092D01*
X215186626Y-56271525D01*
X215153988Y-56159917D01*
X215094283Y-56102433D01*
X215084703Y-56100112D01*
X215044779Y-56085859D01*
X215107485Y-56085559D01*
X215162262Y-56099325D01*
G37*
G36*
X217615801Y-51915907D02*
G01*
X217609338Y-51955250D01*
X217562994Y-51998233D01*
X217550465Y-51996811D01*
X217510188Y-51948543D01*
X217512202Y-51933727D01*
X217562994Y-51866216D01*
X217590201Y-51861249D01*
X217615801Y-51915907D01*
G37*
G36*
X216929314Y-48275364D02*
G01*
X216902911Y-48301767D01*
X216876508Y-48275364D01*
X216902911Y-48248961D01*
X216929314Y-48275364D01*
G37*
G36*
X220837007Y-44895738D02*
G01*
X220810603Y-44922142D01*
X220784200Y-44895738D01*
X220810603Y-44869335D01*
X220837007Y-44895738D01*
G37*
G36*
X217774221Y-46849584D02*
G01*
X217747817Y-46875988D01*
X217721414Y-46849584D01*
X217747817Y-46823181D01*
X217774221Y-46849584D01*
G37*
G36*
X214282856Y-56447194D02*
G01*
X214282999Y-56450807D01*
X214266135Y-56560045D01*
X214196570Y-56591603D01*
X214148115Y-56584127D01*
X214164058Y-56551998D01*
X214201294Y-56513256D01*
X214250344Y-56407589D01*
X214259590Y-56374248D01*
X214274812Y-56360482D01*
X214282856Y-56447194D01*
G37*
G36*
X216401248Y-53133576D02*
G01*
X216397972Y-53184635D01*
X216365137Y-53208967D01*
X216269122Y-53179034D01*
X216213168Y-53143837D01*
X216251602Y-53100633D01*
X216292787Y-53076956D01*
X216375152Y-53062528D01*
X216401248Y-53133576D01*
G37*
G36*
X217034928Y-48222557D02*
G01*
X217008524Y-48248961D01*
X216982121Y-48222557D01*
X217008524Y-48196154D01*
X217034928Y-48222557D01*
G37*
G36*
X216718088Y-48064137D02*
G01*
X216691684Y-48090541D01*
X216665281Y-48064137D01*
X216691684Y-48037734D01*
X216718088Y-48064137D01*
G37*
G36*
X217226138Y-53108389D02*
G01*
X217313539Y-53189840D01*
X217351768Y-53291996D01*
X217337200Y-53347502D01*
X217271029Y-53444400D01*
X217209031Y-53486271D01*
X217114620Y-53496101D01*
X217028168Y-53417500D01*
X216998309Y-53293389D01*
X217027892Y-53168668D01*
X217116692Y-53087096D01*
X217130490Y-53083316D01*
X217226138Y-53108389D01*
G37*
G36*
X225873708Y-45512346D02*
G01*
X225925542Y-45582225D01*
X225931659Y-45626447D01*
X225878385Y-45661435D01*
X225842254Y-45652254D01*
X225800832Y-45582225D01*
X225806127Y-45545869D01*
X225847989Y-45503015D01*
X225873708Y-45512346D01*
G37*
G36*
X223938671Y-51168240D02*
G01*
X223975442Y-51177616D01*
X223940397Y-51187078D01*
X223820583Y-51191030D01*
X223722576Y-51189301D01*
X223653389Y-51181329D01*
X223674638Y-51168961D01*
X223782502Y-51159553D01*
X223938671Y-51168240D01*
G37*
G36*
X225081608Y-48575132D02*
G01*
X225133442Y-48645011D01*
X225139559Y-48689232D01*
X225086285Y-48724221D01*
X225050154Y-48715039D01*
X225008732Y-48645011D01*
X225014027Y-48608655D01*
X225055889Y-48565801D01*
X225081608Y-48575132D01*
G37*
G36*
X220520167Y-46585551D02*
G01*
X220493763Y-46611954D01*
X220467360Y-46585551D01*
X220493763Y-46559148D01*
X220520167Y-46585551D01*
G37*
G36*
X218460707Y-48222557D02*
G01*
X218434304Y-48248961D01*
X218407901Y-48222557D01*
X218434304Y-48196154D01*
X218460707Y-48222557D01*
G37*
G36*
X217510188Y-46532744D02*
G01*
X217483784Y-46559148D01*
X217457381Y-46532744D01*
X217483784Y-46506341D01*
X217510188Y-46532744D01*
G37*
G36*
X213803036Y-56087357D02*
G01*
X213829131Y-56098126D01*
X213896215Y-56176024D01*
X213928824Y-56332976D01*
X213932607Y-56378961D01*
X213935750Y-56506139D01*
X213925393Y-56568752D01*
X213884068Y-56583409D01*
X213778517Y-56592412D01*
X213774382Y-56592394D01*
X213682025Y-56566317D01*
X213661427Y-56473597D01*
X213662571Y-56454056D01*
X213672623Y-56400185D01*
X213691703Y-56447194D01*
X213715769Y-56495832D01*
X213791190Y-56539605D01*
X213801780Y-56538526D01*
X213851874Y-56484453D01*
X213865878Y-56377943D01*
X213844218Y-56259583D01*
X213787318Y-56169959D01*
X213761472Y-56150002D01*
X213717825Y-56144584D01*
X213706503Y-56229501D01*
X213704737Y-56286842D01*
X213690457Y-56318950D01*
X213648224Y-56257281D01*
X213647777Y-56256508D01*
X213624085Y-56147178D01*
X213682742Y-56083217D01*
X213803036Y-56087357D01*
G37*
G36*
X224196654Y-54935163D02*
G01*
X224187148Y-55005680D01*
X224241843Y-55112836D01*
X224285989Y-55157543D01*
X224322246Y-55228370D01*
X224309714Y-55242954D01*
X224248984Y-55220131D01*
X224165944Y-55160511D01*
X224092327Y-55088344D01*
X224059872Y-55027880D01*
X224074954Y-54980192D01*
X224145040Y-54896277D01*
X224177224Y-54870563D01*
X224213788Y-54859339D01*
X224196654Y-54935163D01*
G37*
G36*
X214431437Y-56417543D02*
G01*
X214464165Y-56488348D01*
X214569464Y-56555570D01*
X214616795Y-56565803D01*
X214628586Y-56577723D01*
X214539813Y-56585220D01*
X214474976Y-56585315D01*
X214411024Y-56551848D01*
X214401786Y-56447194D01*
X214405652Y-56385762D01*
X214414949Y-56352756D01*
X214431437Y-56417543D01*
G37*
G36*
X214869855Y-56566008D02*
G01*
X214843452Y-56592412D01*
X214817048Y-56566008D01*
X214843452Y-56539605D01*
X214869855Y-56566008D01*
G37*
G36*
X216550486Y-56110218D02*
G01*
X216602946Y-56209564D01*
X216606479Y-56245696D01*
X216581354Y-56312093D01*
X216480458Y-56328379D01*
X216438270Y-56327016D01*
X216364575Y-56297556D01*
X216357970Y-56209564D01*
X216386023Y-56133893D01*
X216480458Y-56090749D01*
X216550486Y-56110218D01*
G37*
G36*
X215771129Y-56147208D02*
G01*
X215806124Y-56231430D01*
X215820375Y-56366699D01*
X215816840Y-56480471D01*
X215802830Y-56527838D01*
X215778645Y-56470878D01*
X215744802Y-56309979D01*
X215737326Y-56265072D01*
X215732206Y-56156087D01*
X215764200Y-56141474D01*
X215771129Y-56147208D01*
G37*
G36*
X220784200Y-44737318D02*
G01*
X220757797Y-44763722D01*
X220731393Y-44737318D01*
X220757797Y-44710915D01*
X220784200Y-44737318D01*
G37*
G36*
X220530068Y-46364655D02*
G01*
X220554510Y-46383662D01*
X220498164Y-46396559D01*
X220444604Y-46392825D01*
X220428855Y-46368824D01*
X220447538Y-46358360D01*
X220530068Y-46364655D01*
G37*
G36*
X217061331Y-43707070D02*
G01*
X217059622Y-43722256D01*
X217008179Y-43779532D01*
X216878485Y-43821248D01*
X216661565Y-43849405D01*
X216348441Y-43866003D01*
X215952391Y-43878494D01*
X216195087Y-43923989D01*
X216216425Y-43927989D01*
X216304430Y-43944576D01*
X216475033Y-43977201D01*
X216592793Y-44000336D01*
X216691110Y-44050204D01*
X216736015Y-44096966D01*
X216775448Y-44138030D01*
X216790961Y-44154185D01*
X216843981Y-44235103D01*
X216876794Y-44285182D01*
X216625950Y-44358325D01*
X216608687Y-44363397D01*
X216477254Y-44407895D01*
X216437996Y-44439232D01*
X216480625Y-44464958D01*
X216486913Y-44467199D01*
X216580444Y-44541842D01*
X216589056Y-44555239D01*
X216660428Y-44666267D01*
X216666550Y-44680166D01*
X216704394Y-44790125D01*
X216705021Y-44791947D01*
X216683972Y-44867507D01*
X216591438Y-44957323D01*
X216588370Y-44959249D01*
X216461401Y-45038951D01*
X216226681Y-45085825D01*
X216198915Y-45086541D01*
X216087000Y-45093103D01*
X216069609Y-45107024D01*
X216137215Y-45133368D01*
X216141221Y-45134627D01*
X216280103Y-45163221D01*
X216289904Y-45165239D01*
X216460790Y-45180911D01*
X216580966Y-45194552D01*
X216706561Y-45251047D01*
X216725758Y-45294101D01*
X216746397Y-45340390D01*
X216690788Y-45451199D01*
X216594341Y-45518899D01*
X216448987Y-45555821D01*
X216341025Y-45569765D01*
X216318007Y-45582225D01*
X216269231Y-45608628D01*
X216267809Y-45638823D01*
X216287780Y-45645936D01*
X216332123Y-45661729D01*
X216475288Y-45678014D01*
X216639024Y-45723237D01*
X216774184Y-45783739D01*
X216842607Y-45845761D01*
X216845591Y-45903065D01*
X216843726Y-45906620D01*
X216795054Y-45999378D01*
X216783003Y-46012098D01*
X216768201Y-46039074D01*
X216724764Y-46118235D01*
X216735797Y-46205850D01*
X216813608Y-46242308D01*
X216887122Y-46255658D01*
X217007520Y-46314253D01*
X217065305Y-46361453D01*
X217068722Y-46396395D01*
X217069920Y-46408642D01*
X216995500Y-46480735D01*
X216970098Y-46503671D01*
X216961687Y-46511266D01*
X216918024Y-46580457D01*
X216953629Y-46643813D01*
X217031539Y-46696523D01*
X217163498Y-46747825D01*
X217269078Y-46799311D01*
X217287001Y-46863334D01*
X217296048Y-46895650D01*
X217292740Y-46944442D01*
X217299012Y-47070785D01*
X217322539Y-47097818D01*
X217348053Y-47127134D01*
X217457381Y-47140021D01*
X217491428Y-47141880D01*
X217538268Y-47160187D01*
X217592530Y-47181395D01*
X217610168Y-47225849D01*
X217620520Y-47251938D01*
X217579019Y-47303385D01*
X217560430Y-47326429D01*
X217529310Y-47377704D01*
X217547851Y-47404054D01*
X217572555Y-47439164D01*
X217673125Y-47489079D01*
X217704942Y-47493969D01*
X217807090Y-47509668D01*
X217825092Y-47509912D01*
X217946750Y-47531637D01*
X217986559Y-47579724D01*
X217979293Y-47588074D01*
X217932641Y-47641684D01*
X217905402Y-47663463D01*
X217875602Y-47747297D01*
X217873722Y-47752586D01*
X217892678Y-47791303D01*
X217916877Y-47840730D01*
X218020980Y-47889008D01*
X218121323Y-47920241D01*
X218187987Y-47984927D01*
X218192872Y-48000626D01*
X218191137Y-48036656D01*
X218130753Y-47995565D01*
X218075021Y-47961280D01*
X218013435Y-47982363D01*
X218004224Y-48004950D01*
X218033480Y-48037734D01*
X218056982Y-48049023D01*
X218057350Y-48116944D01*
X218056336Y-48171940D01*
X218135101Y-48196154D01*
X218143903Y-48196284D01*
X218252268Y-48229191D01*
X218277132Y-48281312D01*
X218286279Y-48300487D01*
X218231145Y-48381608D01*
X218172431Y-48429936D01*
X218155408Y-48475116D01*
X218226752Y-48495814D01*
X218394699Y-48497886D01*
X218645531Y-48491828D01*
X218660222Y-49215301D01*
X218674914Y-49938774D01*
X212131404Y-49938774D01*
X212114455Y-49458824D01*
X212113247Y-49421186D01*
X212112837Y-49177750D01*
X212126786Y-49009859D01*
X212153991Y-48932195D01*
X212197295Y-48914633D01*
X212326488Y-48894953D01*
X212497234Y-48888564D01*
X212514677Y-48888605D01*
X212718301Y-48877574D01*
X212969262Y-48849828D01*
X213217318Y-48810793D01*
X213281513Y-48799487D01*
X213662809Y-48757450D01*
X214009418Y-48759654D01*
X214249110Y-48765235D01*
X214565509Y-48747724D01*
X214896258Y-48708276D01*
X215204480Y-48662696D01*
X215564737Y-48616895D01*
X215864418Y-48590970D01*
X216128441Y-48583664D01*
X216381721Y-48593720D01*
X216649176Y-48619881D01*
X216800454Y-48636563D01*
X217073544Y-48654691D01*
X217308208Y-48648070D01*
X217548436Y-48616536D01*
X217580678Y-48610844D01*
X217753236Y-48573198D01*
X217868072Y-48535722D01*
X217901764Y-48505756D01*
X217885640Y-48488546D01*
X217799908Y-48460187D01*
X217792932Y-48459681D01*
X217703207Y-48417642D01*
X217594730Y-48328703D01*
X217559353Y-48301767D01*
X218143867Y-48301767D01*
X218144473Y-48313718D01*
X218167154Y-48354574D01*
X218175625Y-48352144D01*
X218223077Y-48301767D01*
X218231329Y-48281312D01*
X218199790Y-48248961D01*
X218184463Y-48250990D01*
X218143867Y-48301767D01*
X217559353Y-48301767D01*
X217484137Y-48244498D01*
X217372441Y-48232063D01*
X217319001Y-48244470D01*
X217318169Y-48207796D01*
X217320883Y-48202629D01*
X217293130Y-48152901D01*
X217170129Y-48114057D01*
X217000861Y-48053041D01*
X216849101Y-47952969D01*
X216784204Y-47900616D01*
X216647563Y-47842577D01*
X216454841Y-47826507D01*
X216354275Y-47825311D01*
X216246842Y-47811147D01*
X216242385Y-47807186D01*
X217044268Y-47807186D01*
X217087734Y-47826507D01*
X217115690Y-47822696D01*
X217122939Y-47791303D01*
X217115199Y-47784983D01*
X217052530Y-47791303D01*
X217044268Y-47807186D01*
X216242385Y-47807186D01*
X216198641Y-47768314D01*
X216194218Y-47747297D01*
X216242828Y-47747297D01*
X216269231Y-47773701D01*
X216295634Y-47747297D01*
X216269231Y-47720894D01*
X216242828Y-47747297D01*
X216194218Y-47747297D01*
X216180327Y-47681289D01*
X216175170Y-47642286D01*
X216165705Y-47615281D01*
X217721414Y-47615281D01*
X217722836Y-47627810D01*
X217771104Y-47668087D01*
X217785920Y-47666073D01*
X217853431Y-47615281D01*
X217858399Y-47588074D01*
X217803741Y-47562474D01*
X217764397Y-47568937D01*
X217721414Y-47615281D01*
X216165705Y-47615281D01*
X216153903Y-47581606D01*
X216099340Y-47547722D01*
X215987392Y-47530590D01*
X215793971Y-47520164D01*
X215711239Y-47516413D01*
X215556384Y-47502853D01*
X215522102Y-47493031D01*
X216748735Y-47493031D01*
X216823701Y-47501330D01*
X216896343Y-47493969D01*
X216889709Y-47474695D01*
X216865806Y-47467720D01*
X216757693Y-47474695D01*
X216748735Y-47493031D01*
X215522102Y-47493031D01*
X215442470Y-47470216D01*
X215344552Y-47404054D01*
X215397921Y-47404054D01*
X215397934Y-47404711D01*
X215445110Y-47441565D01*
X215556341Y-47456861D01*
X215558312Y-47456857D01*
X215668874Y-47441131D01*
X215714761Y-47404054D01*
X215714749Y-47403397D01*
X215667573Y-47366543D01*
X215556341Y-47351248D01*
X215554370Y-47351252D01*
X215443809Y-47366977D01*
X215397921Y-47404054D01*
X215344552Y-47404054D01*
X215342635Y-47402759D01*
X215274165Y-47331003D01*
X215978795Y-47331003D01*
X215998448Y-47342729D01*
X216084408Y-47351248D01*
X216145749Y-47342287D01*
X216190021Y-47303385D01*
X216177388Y-47289692D01*
X216535094Y-47289692D01*
X216615377Y-47273510D01*
X216770894Y-47219231D01*
X216785954Y-47213101D01*
X217332853Y-47213101D01*
X217340793Y-47229632D01*
X217430978Y-47235340D01*
X217447376Y-47234991D01*
X217517515Y-47225849D01*
X217495981Y-47209040D01*
X217442392Y-47200550D01*
X217337561Y-47210996D01*
X217332853Y-47213101D01*
X216785954Y-47213101D01*
X216821351Y-47198693D01*
X216886354Y-47160187D01*
X216850104Y-47145910D01*
X216747899Y-47163226D01*
X216612474Y-47219231D01*
X216538213Y-47267777D01*
X216535094Y-47289692D01*
X216177388Y-47289692D01*
X216168612Y-47280179D01*
X216084408Y-47283140D01*
X216022335Y-47303264D01*
X215978795Y-47331003D01*
X215274165Y-47331003D01*
X215230020Y-47284739D01*
X215093440Y-47119395D01*
X215345115Y-47119395D01*
X215346681Y-47122076D01*
X215407692Y-47134832D01*
X215529938Y-47140021D01*
X215554095Y-47139659D01*
X215668309Y-47125721D01*
X215714761Y-47097818D01*
X215712947Y-47092127D01*
X215651523Y-47073481D01*
X215529938Y-47077192D01*
X215505385Y-47080241D01*
X215391441Y-47100366D01*
X215345115Y-47119395D01*
X215093440Y-47119395D01*
X215077763Y-47100416D01*
X215075290Y-47097573D01*
X214984794Y-47052866D01*
X214847835Y-47034408D01*
X214723454Y-47020477D01*
X214610416Y-46964032D01*
X214576076Y-46878876D01*
X214633869Y-46780926D01*
X214686058Y-46733863D01*
X214707165Y-46721477D01*
X214664392Y-46781263D01*
X214630253Y-46852132D01*
X214640767Y-46942630D01*
X214714551Y-46981601D01*
X214754761Y-46945429D01*
X214759815Y-46881971D01*
X214952763Y-46881971D01*
X215023873Y-46917698D01*
X215157483Y-46924865D01*
X215311318Y-46903347D01*
X215429664Y-46860684D01*
X215952854Y-46860684D01*
X216031601Y-46863492D01*
X216159464Y-46853260D01*
X216322038Y-46823181D01*
X216411572Y-46798857D01*
X216415549Y-46795501D01*
X217007880Y-46795501D01*
X217047183Y-46875988D01*
X217088636Y-46934401D01*
X217159844Y-46977695D01*
X217223400Y-46922890D01*
X217223667Y-46863334D01*
X217156187Y-46799820D01*
X217047682Y-46771183D01*
X217036159Y-46771446D01*
X217019428Y-46785678D01*
X217007880Y-46795501D01*
X216415549Y-46795501D01*
X216427189Y-46785678D01*
X216348441Y-46782870D01*
X216220578Y-46793102D01*
X216213163Y-46794474D01*
X216058005Y-46823181D01*
X215968471Y-46847505D01*
X215952854Y-46860684D01*
X215429664Y-46860684D01*
X215444435Y-46855359D01*
X215498941Y-46823286D01*
X215519320Y-46794474D01*
X215461656Y-46775567D01*
X215312418Y-46756426D01*
X215192689Y-46749188D01*
X215038825Y-46765800D01*
X214952782Y-46812179D01*
X214952763Y-46881971D01*
X214759815Y-46881971D01*
X214762375Y-46849827D01*
X214736545Y-46735173D01*
X214681260Y-46642130D01*
X214616022Y-46595018D01*
X214496436Y-46559148D01*
X214438653Y-46549762D01*
X214394595Y-46506341D01*
X214354857Y-46480228D01*
X214235579Y-46456952D01*
X214064553Y-46444657D01*
X213734512Y-46435780D01*
X214051352Y-46402927D01*
X214153979Y-46390421D01*
X214217431Y-46376134D01*
X214561753Y-46376134D01*
X214604105Y-46394879D01*
X214715835Y-46404439D01*
X214793146Y-46407795D01*
X214840232Y-46421146D01*
X214794506Y-46448012D01*
X214757049Y-46463283D01*
X214723434Y-46491972D01*
X214785623Y-46523510D01*
X214788802Y-46524720D01*
X214982067Y-46553540D01*
X215028781Y-46537590D01*
X215666127Y-46537590D01*
X215704660Y-46548459D01*
X215823130Y-46556199D01*
X215996397Y-46559148D01*
X216162975Y-46553625D01*
X216298934Y-46534217D01*
X216348441Y-46503671D01*
X216302229Y-46484368D01*
X216184500Y-46477116D01*
X216028650Y-46480436D01*
X215868077Y-46492679D01*
X215736179Y-46512197D01*
X215666355Y-46537341D01*
X215666127Y-46537590D01*
X215028781Y-46537590D01*
X215179847Y-46486010D01*
X215197727Y-46475915D01*
X215243098Y-46442147D01*
X215226302Y-46419311D01*
X215132978Y-46400827D01*
X214948769Y-46380116D01*
X214948378Y-46380076D01*
X214765193Y-46365633D01*
X214627100Y-46362793D01*
X214563968Y-46372173D01*
X214561753Y-46376134D01*
X214217431Y-46376134D01*
X214267550Y-46364849D01*
X214275907Y-46336570D01*
X214178934Y-46305381D01*
X214035619Y-46281094D01*
X216639458Y-46281094D01*
X216683532Y-46322087D01*
X216732557Y-46368375D01*
X216768919Y-46442147D01*
X216770894Y-46446154D01*
X216807822Y-46496690D01*
X216887272Y-46500447D01*
X216955718Y-46453534D01*
X216973224Y-46396395D01*
X216917927Y-46326435D01*
X216763389Y-46282749D01*
X216677306Y-46272346D01*
X216639458Y-46281094D01*
X214035619Y-46281094D01*
X213976516Y-46271078D01*
X213940412Y-46266406D01*
X213777071Y-46263908D01*
X213694300Y-46306281D01*
X213662784Y-46340395D01*
X213672597Y-46288348D01*
X213678394Y-46239941D01*
X213640812Y-46143327D01*
X213616049Y-46084320D01*
X213634395Y-46063628D01*
X213975206Y-46063628D01*
X214024948Y-46086787D01*
X214188179Y-46115918D01*
X214394984Y-46126343D01*
X214594232Y-46117061D01*
X214737838Y-46087990D01*
X214793404Y-46064441D01*
X214803978Y-46039074D01*
X214782687Y-46031081D01*
X216457828Y-46031081D01*
X216581492Y-46031081D01*
X216644750Y-46024375D01*
X216746981Y-45977438D01*
X216792438Y-45906620D01*
X216758344Y-45836927D01*
X216682824Y-45827506D01*
X216574756Y-45909131D01*
X216457828Y-46031081D01*
X214782687Y-46031081D01*
X214718527Y-46006994D01*
X214618808Y-45993081D01*
X214444135Y-45992328D01*
X214243267Y-46007344D01*
X214124665Y-46021973D01*
X214005146Y-46043223D01*
X213975206Y-46063628D01*
X213634395Y-46063628D01*
X213679341Y-46012936D01*
X213706300Y-45991946D01*
X213740047Y-45945645D01*
X213707176Y-45907764D01*
X213595109Y-45870067D01*
X213391269Y-45824319D01*
X213272371Y-45797309D01*
X213118307Y-45754390D01*
X213028058Y-45718745D01*
X213010066Y-45705596D01*
X212992507Y-45661435D01*
X213074429Y-45661435D01*
X213083365Y-45685727D01*
X213153639Y-45714241D01*
X213190078Y-45708284D01*
X213232849Y-45661435D01*
X213223912Y-45637142D01*
X213153639Y-45608628D01*
X213117200Y-45614586D01*
X213074429Y-45661435D01*
X212992507Y-45661435D01*
X212983446Y-45638645D01*
X213017996Y-45601586D01*
X213474831Y-45601586D01*
X213493147Y-45627974D01*
X213573729Y-45661435D01*
X213589866Y-45668136D01*
X213744555Y-45707199D01*
X213937429Y-45737988D01*
X214376120Y-45757480D01*
X214790645Y-45711212D01*
X214804510Y-45708409D01*
X215010794Y-45675868D01*
X215213098Y-45656169D01*
X215226960Y-45655362D01*
X215295972Y-45645936D01*
X215275661Y-45633440D01*
X215180600Y-45619095D01*
X215025360Y-45604122D01*
X214824515Y-45589742D01*
X214685783Y-45582225D01*
X215820375Y-45582225D01*
X215846778Y-45608628D01*
X215873181Y-45582225D01*
X215846778Y-45555821D01*
X215820375Y-45582225D01*
X214685783Y-45582225D01*
X214592637Y-45577178D01*
X214344299Y-45567650D01*
X214094073Y-45562381D01*
X213884900Y-45563004D01*
X213680122Y-45570471D01*
X213535936Y-45583806D01*
X213474831Y-45601586D01*
X213017996Y-45601586D01*
X213037569Y-45580592D01*
X213153639Y-45555821D01*
X213246632Y-45547576D01*
X213301637Y-45510246D01*
X213260805Y-45451919D01*
X213195237Y-45418300D01*
X214779202Y-45418300D01*
X214856956Y-45430621D01*
X215036104Y-45438191D01*
X215318711Y-45441192D01*
X215360663Y-45441225D01*
X215666071Y-45437002D01*
X215907230Y-45425635D01*
X216075867Y-45408329D01*
X216163712Y-45386287D01*
X216162985Y-45371035D01*
X216525649Y-45371035D01*
X216526551Y-45386287D01*
X216530791Y-45457990D01*
X216558788Y-45503015D01*
X216562049Y-45502912D01*
X216635540Y-45459280D01*
X216690460Y-45372210D01*
X216693114Y-45294101D01*
X216627611Y-45240081D01*
X216560091Y-45267375D01*
X216525649Y-45371035D01*
X216162985Y-45371035D01*
X216162493Y-45360711D01*
X216063938Y-45332805D01*
X215926282Y-45321317D01*
X215715682Y-45320852D01*
X215466277Y-45329888D01*
X215211249Y-45346719D01*
X214983779Y-45369638D01*
X214817048Y-45396938D01*
X214800780Y-45401046D01*
X214779202Y-45418300D01*
X213195237Y-45418300D01*
X213125760Y-45382677D01*
X213073648Y-45359721D01*
X212960940Y-45287631D01*
X212916009Y-45221227D01*
X212914666Y-45213521D01*
X213245913Y-45213521D01*
X213263889Y-45237459D01*
X213455254Y-45285687D01*
X213728495Y-45308581D01*
X214043159Y-45301476D01*
X214368192Y-45263638D01*
X214402107Y-45258053D01*
X214628290Y-45224536D01*
X214831417Y-45200067D01*
X214971068Y-45189610D01*
X214994783Y-45188952D01*
X215098458Y-45179243D01*
X215128537Y-45163221D01*
X215108009Y-45158294D01*
X214999203Y-45148397D01*
X214813843Y-45137962D01*
X214570572Y-45127961D01*
X214288031Y-45119366D01*
X214091650Y-45115244D01*
X213886780Y-45113719D01*
X213756482Y-45116477D01*
X213711084Y-45123235D01*
X213760915Y-45133712D01*
X213885001Y-45149421D01*
X213948109Y-45161093D01*
X213926755Y-45168834D01*
X213813898Y-45174742D01*
X213602495Y-45180915D01*
X213512154Y-45183831D01*
X213327884Y-45195776D01*
X213245913Y-45213521D01*
X212914666Y-45213521D01*
X212909712Y-45185087D01*
X212850000Y-45115534D01*
X212844656Y-45095546D01*
X212924891Y-45084730D01*
X213033231Y-45074545D01*
X213153747Y-45046809D01*
X213199322Y-45015303D01*
X213180209Y-44972277D01*
X213143888Y-44958312D01*
X215534182Y-44958312D01*
X215609148Y-44966610D01*
X215681790Y-44959249D01*
X215675156Y-44939975D01*
X215651253Y-44933001D01*
X215543140Y-44939975D01*
X215534182Y-44958312D01*
X213143888Y-44958312D01*
X213090116Y-44937637D01*
X212948234Y-44922950D01*
X212827077Y-44897624D01*
X212703381Y-44797516D01*
X212653655Y-44646487D01*
X212653381Y-44644267D01*
X212839336Y-44644267D01*
X212924759Y-44691457D01*
X213091135Y-44751048D01*
X213156459Y-44768283D01*
X213347887Y-44801040D01*
X213582528Y-44824935D01*
X213839196Y-44839732D01*
X214096706Y-44845197D01*
X214333871Y-44841094D01*
X214529505Y-44827189D01*
X214662421Y-44803245D01*
X214711435Y-44769029D01*
X214703698Y-44762701D01*
X214618185Y-44744644D01*
X214453079Y-44725627D01*
X214369576Y-44718950D01*
X216163618Y-44718950D01*
X216293660Y-44769029D01*
X216348441Y-44790125D01*
X216423020Y-44817819D01*
X216568618Y-44858751D01*
X216643868Y-44849520D01*
X216665281Y-44790125D01*
X216651219Y-44751007D01*
X216574914Y-44721276D01*
X216414449Y-44714932D01*
X216163618Y-44718950D01*
X214369576Y-44718950D01*
X214227094Y-44707557D01*
X213958940Y-44692340D01*
X213886133Y-44688848D01*
X213597464Y-44672986D01*
X213335163Y-44655617D01*
X213125618Y-44638616D01*
X212995219Y-44623858D01*
X212932761Y-44615483D01*
X212840218Y-44616576D01*
X212839336Y-44644267D01*
X212653381Y-44644267D01*
X212652047Y-44633466D01*
X212598640Y-44538701D01*
X212542834Y-44485506D01*
X213534411Y-44485506D01*
X213538008Y-44517686D01*
X213580616Y-44527169D01*
X213718973Y-44540510D01*
X213936402Y-44553839D01*
X214217690Y-44566396D01*
X214547621Y-44577423D01*
X214910980Y-44586161D01*
X215320439Y-44592442D01*
X215676421Y-44593288D01*
X215929003Y-44587493D01*
X216079252Y-44574872D01*
X216128234Y-44555239D01*
X216077015Y-44528407D01*
X215926662Y-44494191D01*
X215678243Y-44452405D01*
X215630545Y-44445565D01*
X215399063Y-44421995D01*
X215130160Y-44406558D01*
X214839722Y-44398769D01*
X214543632Y-44398143D01*
X214257778Y-44404196D01*
X213998043Y-44416443D01*
X213780314Y-44434400D01*
X213620474Y-44457583D01*
X213534411Y-44485506D01*
X212542834Y-44485506D01*
X212493555Y-44438532D01*
X212452669Y-44403854D01*
X212778029Y-44403854D01*
X212779479Y-44434368D01*
X212843049Y-44434968D01*
X212981214Y-44403861D01*
X213206445Y-44339252D01*
X213209773Y-44338250D01*
X213255291Y-44322732D01*
X216080700Y-44322732D01*
X216139477Y-44328878D01*
X216295634Y-44329838D01*
X216382020Y-44328886D01*
X216603306Y-44315328D01*
X216730309Y-44284590D01*
X216770894Y-44235103D01*
X216747975Y-44216679D01*
X216637588Y-44213772D01*
X216447339Y-44238441D01*
X216364485Y-44254878D01*
X216190021Y-44289489D01*
X216111090Y-44308263D01*
X216080700Y-44322732D01*
X213255291Y-44322732D01*
X213350729Y-44290195D01*
X213419581Y-44254878D01*
X213401451Y-44239881D01*
X213312674Y-44244435D01*
X213152229Y-44270861D01*
X212985249Y-44312082D01*
X212848807Y-44358514D01*
X212779978Y-44400570D01*
X212778029Y-44403854D01*
X212452669Y-44403854D01*
X212437693Y-44391152D01*
X212353385Y-44273390D01*
X212344551Y-44199067D01*
X212406476Y-44199067D01*
X212411214Y-44283394D01*
X212451266Y-44324355D01*
X212554286Y-44326778D01*
X212703486Y-44238475D01*
X212834206Y-44138030D01*
X212685815Y-44100786D01*
X212682998Y-44100574D01*
X214507351Y-44100574D01*
X214581532Y-44105035D01*
X214740213Y-44107988D01*
X214975468Y-44109057D01*
X215139762Y-44108577D01*
X215325078Y-44106215D01*
X215428560Y-44102219D01*
X215442281Y-44096966D01*
X215358316Y-44090832D01*
X215158877Y-44084822D01*
X214861207Y-44083888D01*
X214592620Y-44090832D01*
X214525596Y-44094983D01*
X214507351Y-44100574D01*
X212682998Y-44100574D01*
X212592416Y-44093757D01*
X212476957Y-44129152D01*
X212406476Y-44199067D01*
X212344551Y-44199067D01*
X212340814Y-44167627D01*
X212406517Y-44099335D01*
X212454519Y-44044764D01*
X212455212Y-43946732D01*
X212454655Y-43945577D01*
X212712305Y-43945577D01*
X212754574Y-43996162D01*
X212790214Y-44010846D01*
X212933397Y-44035041D01*
X213140799Y-44046780D01*
X213384240Y-44045841D01*
X213635543Y-44031996D01*
X213866528Y-44005024D01*
X213951898Y-43990671D01*
X214115884Y-43954591D01*
X214176497Y-43923989D01*
X214135299Y-43899346D01*
X213993853Y-43881147D01*
X213753722Y-43869874D01*
X213416469Y-43866008D01*
X213193818Y-43868414D01*
X212930724Y-43881939D01*
X212770621Y-43907581D01*
X212712305Y-43945577D01*
X212454655Y-43945577D01*
X212410594Y-43854238D01*
X212332538Y-43813202D01*
X212320571Y-43812365D01*
X212245044Y-43757007D01*
X212201565Y-43640454D01*
X212200740Y-43626911D01*
X212824211Y-43626911D01*
X212869986Y-43636323D01*
X212995219Y-43639678D01*
X213092879Y-43637303D01*
X213149953Y-43628988D01*
X213113308Y-43616889D01*
X212994145Y-43608101D01*
X212849274Y-43617610D01*
X212824211Y-43626911D01*
X212200740Y-43626911D01*
X212192913Y-43498466D01*
X212199145Y-43470126D01*
X214701381Y-43470126D01*
X214779958Y-43476183D01*
X214947043Y-43480876D01*
X215208337Y-43484617D01*
X215569543Y-43487820D01*
X215923880Y-43488755D01*
X216264329Y-43484978D01*
X216513298Y-43476065D01*
X216666111Y-43462198D01*
X216718088Y-43443555D01*
X216699001Y-43430095D01*
X216593066Y-43413045D01*
X216409306Y-43402152D01*
X216164851Y-43397441D01*
X215876829Y-43398938D01*
X215562371Y-43406667D01*
X215238605Y-43420654D01*
X214922662Y-43440924D01*
X214786942Y-43452264D01*
X214705609Y-43462290D01*
X214701381Y-43470126D01*
X212199145Y-43470126D01*
X212221865Y-43366802D01*
X212291201Y-43281220D01*
X212312375Y-43276404D01*
X212428546Y-43266744D01*
X212633247Y-43257480D01*
X212915030Y-43248885D01*
X213262444Y-43241232D01*
X213664041Y-43234792D01*
X214108371Y-43229839D01*
X214583987Y-43226645D01*
X215093451Y-43224933D01*
X215627468Y-43225331D01*
X216070694Y-43229151D01*
X216431273Y-43237113D01*
X216717350Y-43249940D01*
X216937068Y-43268352D01*
X217098574Y-43293070D01*
X217210012Y-43324817D01*
X217279526Y-43364313D01*
X217315262Y-43412281D01*
X217320789Y-43443555D01*
X217325364Y-43469440D01*
X217302690Y-43542828D01*
X217193348Y-43601457D01*
X217129134Y-43628988D01*
X217106579Y-43638658D01*
X217061331Y-43707070D01*
G37*
G36*
X218302287Y-48064137D02*
G01*
X218275884Y-48090541D01*
X218249481Y-48064137D01*
X218275884Y-48037734D01*
X218302287Y-48064137D01*
G37*
G36*
X220613949Y-44863623D02*
G01*
X220668465Y-44918181D01*
X220665098Y-44948154D01*
X220599377Y-44974948D01*
X220555779Y-44966332D01*
X220530288Y-44918181D01*
X220537459Y-44902525D01*
X220599377Y-44861414D01*
X220613949Y-44863623D01*
G37*
G36*
X217134573Y-54873915D02*
G01*
X217498219Y-55048012D01*
X217932925Y-55355840D01*
X218338705Y-55759069D01*
X218471932Y-55920088D01*
X218566492Y-56063155D01*
X218619469Y-56199421D01*
X218649000Y-56364261D01*
X218659536Y-56470055D01*
X218656027Y-56567683D01*
X218649449Y-56750672D01*
X218569898Y-56954499D01*
X218416099Y-57086363D01*
X218183271Y-57151085D01*
X217866632Y-57153490D01*
X217688530Y-57146174D01*
X217558689Y-57153845D01*
X217510188Y-57175772D01*
X217509914Y-57176665D01*
X217451118Y-57188817D01*
X217295123Y-57200332D01*
X217049780Y-57210976D01*
X216722938Y-57220517D01*
X216322446Y-57228723D01*
X215856155Y-57235362D01*
X215331913Y-57240202D01*
X215129252Y-57241560D01*
X214667593Y-57244169D01*
X214241165Y-57245917D01*
X213861697Y-57246797D01*
X213540919Y-57246803D01*
X213290561Y-57245928D01*
X213122353Y-57244166D01*
X213048025Y-57241508D01*
X212968046Y-57235305D01*
X212805497Y-57229383D01*
X212612370Y-57226813D01*
X212282329Y-57226092D01*
X212282329Y-56988462D01*
X213496882Y-56988462D01*
X213497139Y-57004970D01*
X213525648Y-57096367D01*
X213620097Y-57120478D01*
X213697788Y-57115312D01*
X213788442Y-57067361D01*
X213805922Y-56988462D01*
X213945738Y-56988462D01*
X213977697Y-57072325D01*
X214090957Y-57110784D01*
X214155225Y-57115186D01*
X214221452Y-57087519D01*
X214236175Y-56988462D01*
X214394595Y-56988462D01*
X214398378Y-57045870D01*
X214439797Y-57106270D01*
X214553015Y-57120478D01*
X214621906Y-57117326D01*
X214694385Y-57082810D01*
X214711435Y-56988462D01*
X214869855Y-56988462D01*
X214873638Y-57045870D01*
X214915057Y-57106270D01*
X215028275Y-57120478D01*
X215097165Y-57117326D01*
X215169644Y-57082810D01*
X215186695Y-56988462D01*
X215292308Y-56988462D01*
X215300975Y-57066229D01*
X215352143Y-57110615D01*
X215477131Y-57120478D01*
X215586006Y-57114288D01*
X215648146Y-57077739D01*
X215661955Y-56988462D01*
X215767568Y-56988462D01*
X215771618Y-57047453D01*
X215813665Y-57106616D01*
X215927645Y-57120478D01*
X216059988Y-57090819D01*
X216129170Y-57013879D01*
X216112374Y-56911780D01*
X216045410Y-56873534D01*
X215922871Y-56856445D01*
X215858997Y-56859249D01*
X215785089Y-56893446D01*
X215767568Y-56988462D01*
X215661955Y-56988462D01*
X215653288Y-56910694D01*
X215602120Y-56866308D01*
X215477131Y-56856445D01*
X215368257Y-56862636D01*
X215306117Y-56899184D01*
X215292308Y-56988462D01*
X215186695Y-56988462D01*
X215182912Y-56931053D01*
X215141493Y-56870654D01*
X215028275Y-56856445D01*
X214959384Y-56859598D01*
X214886905Y-56894113D01*
X214869855Y-56988462D01*
X214711435Y-56988462D01*
X214707652Y-56931053D01*
X214666233Y-56870654D01*
X214553015Y-56856445D01*
X214484124Y-56859598D01*
X214411645Y-56894113D01*
X214394595Y-56988462D01*
X214236175Y-56988462D01*
X214233048Y-56927291D01*
X214196192Y-56868126D01*
X214090957Y-56866139D01*
X213980701Y-56902068D01*
X213959985Y-56953257D01*
X213945738Y-56988462D01*
X213805922Y-56988462D01*
X213813722Y-56953257D01*
X213813047Y-56937947D01*
X213773156Y-56874492D01*
X213655302Y-56856445D01*
X213586411Y-56859598D01*
X213513932Y-56894113D01*
X213496882Y-56988462D01*
X212282329Y-56988462D01*
X212282329Y-56500130D01*
X212334625Y-56500130D01*
X212392193Y-56705967D01*
X212397607Y-56715173D01*
X212491687Y-56808262D01*
X212628127Y-56887319D01*
X212648705Y-56895702D01*
X212783512Y-56940974D01*
X212874708Y-56956441D01*
X212963743Y-56941358D01*
X213150795Y-56845870D01*
X213153070Y-56842950D01*
X216270804Y-56842950D01*
X216328949Y-56969695D01*
X216379166Y-57013879D01*
X216398876Y-57031221D01*
X216475440Y-57063503D01*
X216488902Y-57062325D01*
X216617996Y-57018773D01*
X216665281Y-56930807D01*
X216664687Y-56914285D01*
X216640340Y-56882546D01*
X216560986Y-56920684D01*
X216464827Y-56959399D01*
X216391627Y-56920754D01*
X216387159Y-56916187D01*
X216357864Y-56849069D01*
X216389432Y-56803638D01*
X216902911Y-56803638D01*
X216905968Y-56854224D01*
X216947130Y-56922798D01*
X216984751Y-56930807D01*
X217061331Y-56947110D01*
X217219751Y-56958566D01*
X217068339Y-56889128D01*
X216987676Y-56837621D01*
X216984947Y-56794113D01*
X217063311Y-56774810D01*
X217209896Y-56788830D01*
X217233418Y-56792949D01*
X217326222Y-56788881D01*
X217351768Y-56727548D01*
X217338341Y-56678985D01*
X217272079Y-56652977D01*
X217127339Y-56655384D01*
X217099017Y-56657549D01*
X216970887Y-56676874D01*
X216915109Y-56719235D01*
X216902911Y-56803638D01*
X216389432Y-56803638D01*
X216414062Y-56768192D01*
X216428250Y-56754390D01*
X216505558Y-56709907D01*
X216583421Y-56748632D01*
X216594697Y-56757845D01*
X216651786Y-56788093D01*
X216665281Y-56736544D01*
X216626709Y-56653473D01*
X216526624Y-56616090D01*
X216403635Y-56643941D01*
X216310458Y-56720064D01*
X216270804Y-56842950D01*
X213153070Y-56842950D01*
X213275221Y-56686151D01*
X213323586Y-56484976D01*
X213282460Y-56265119D01*
X213278144Y-56254655D01*
X213249793Y-56205256D01*
X213452473Y-56205256D01*
X213454554Y-56386549D01*
X213459193Y-56484976D01*
X213470479Y-56724428D01*
X214767741Y-56738531D01*
X215037478Y-56740670D01*
X215372632Y-56740931D01*
X215661366Y-56738403D01*
X215888887Y-56733331D01*
X216040399Y-56725958D01*
X216101109Y-56716529D01*
X216101182Y-56716455D01*
X216119335Y-56648621D01*
X216132278Y-56506075D01*
X216137215Y-56319577D01*
X216135549Y-56201169D01*
X216267148Y-56201169D01*
X216304310Y-56312429D01*
X216309213Y-56317894D01*
X216312528Y-56319577D01*
X216408564Y-56368336D01*
X216535496Y-56379755D01*
X216630077Y-56345981D01*
X216634785Y-56336297D01*
X216955339Y-56336297D01*
X216989045Y-56415931D01*
X217085275Y-56473585D01*
X217205857Y-56477625D01*
X217308423Y-56434075D01*
X217351768Y-56350381D01*
X217311600Y-56296209D01*
X217175745Y-56275572D01*
X217017382Y-56290233D01*
X216955339Y-56336297D01*
X216634785Y-56336297D01*
X216653512Y-56297776D01*
X216664671Y-56180082D01*
X216648960Y-56057109D01*
X216624587Y-56011539D01*
X216982121Y-56011539D01*
X216988911Y-56061408D01*
X217041696Y-56105834D01*
X217170617Y-56117152D01*
X217284124Y-56111044D01*
X217340028Y-56077811D01*
X217342239Y-55998337D01*
X217322665Y-55926372D01*
X217285759Y-55892724D01*
X217230512Y-55901095D01*
X217114138Y-55905925D01*
X217013062Y-55928721D01*
X216982121Y-56011539D01*
X216624587Y-56011539D01*
X216609473Y-55983280D01*
X216511946Y-55957638D01*
X216396077Y-55996688D01*
X216306107Y-56086893D01*
X216267148Y-56201169D01*
X216135549Y-56201169D01*
X216134950Y-56158573D01*
X216122600Y-56032354D01*
X216094425Y-55971862D01*
X216044803Y-55954914D01*
X215938790Y-55951805D01*
X215716117Y-55949350D01*
X215441678Y-55949611D01*
X215132958Y-55952232D01*
X214807446Y-55956860D01*
X214482627Y-55963140D01*
X214175987Y-55970717D01*
X213905014Y-55979237D01*
X213687194Y-55988345D01*
X213540013Y-55997687D01*
X213480957Y-56006907D01*
X213462823Y-56067241D01*
X213452473Y-56205256D01*
X213249793Y-56205256D01*
X213177322Y-56078984D01*
X213042939Y-55987663D01*
X212845938Y-55960411D01*
X212636989Y-56004445D01*
X212471738Y-56125190D01*
X212366045Y-56298478D01*
X212334625Y-56500130D01*
X212282329Y-56500130D01*
X212282329Y-55725100D01*
X212504550Y-55498673D01*
X212546211Y-55456923D01*
X212609033Y-55402599D01*
X213567268Y-55402599D01*
X213593463Y-55442877D01*
X213613796Y-55452413D01*
X213726143Y-55472010D01*
X213915391Y-55489402D01*
X214161822Y-55504133D01*
X214445718Y-55515748D01*
X214747361Y-55523792D01*
X215047033Y-55527811D01*
X215325017Y-55527348D01*
X215561594Y-55521950D01*
X215737046Y-55511161D01*
X215831655Y-55494526D01*
X215834737Y-55492813D01*
X215799376Y-55481487D01*
X215674712Y-55471671D01*
X215475009Y-55463944D01*
X215214530Y-55458884D01*
X214907538Y-55457069D01*
X214580956Y-55455023D01*
X214275603Y-55449255D01*
X214015122Y-55440449D01*
X213819759Y-55429294D01*
X213709759Y-55416474D01*
X213617083Y-55398508D01*
X213567268Y-55402599D01*
X212609033Y-55402599D01*
X212679665Y-55341522D01*
X212794652Y-55286364D01*
X212927003Y-55272245D01*
X213127235Y-55272245D01*
X213127235Y-55251707D01*
X216551147Y-55251707D01*
X216622721Y-55261704D01*
X216787868Y-55266628D01*
X216921915Y-55271674D01*
X217055208Y-55294155D01*
X217162612Y-55350312D01*
X217273633Y-55457269D01*
X217302930Y-55492813D01*
X217417776Y-55632145D01*
X217418793Y-55633426D01*
X217485698Y-55725028D01*
X217527948Y-55813662D01*
X217551166Y-55926469D01*
X217555461Y-55998337D01*
X217560974Y-56090587D01*
X217561719Y-56180082D01*
X217562994Y-56333158D01*
X217562994Y-56851481D01*
X217761019Y-56906475D01*
X217873488Y-56935700D01*
X218023442Y-56956997D01*
X218150213Y-56936054D01*
X218302287Y-56869565D01*
X218390651Y-56819224D01*
X218472651Y-56728699D01*
X218502834Y-56590374D01*
X218504137Y-56567683D01*
X218465406Y-56341817D01*
X218344936Y-56090411D01*
X218155899Y-55829385D01*
X217911469Y-55574659D01*
X217624817Y-55342150D01*
X217309116Y-55147777D01*
X217076054Y-55037281D01*
X216903395Y-54984434D01*
X216803238Y-54997407D01*
X216770894Y-55075571D01*
X216729622Y-55141110D01*
X216625676Y-55203627D01*
X216561107Y-55231961D01*
X216551147Y-55251707D01*
X213127235Y-55251707D01*
X213127235Y-54826334D01*
X213127590Y-54731445D01*
X213132446Y-54585759D01*
X213391269Y-54585759D01*
X213407593Y-54696947D01*
X213470479Y-54744179D01*
X213526073Y-54711530D01*
X213549689Y-54585759D01*
X213540534Y-54523404D01*
X213737397Y-54523404D01*
X213747233Y-54585759D01*
X213751609Y-54613503D01*
X213800402Y-54638566D01*
X213852206Y-54612193D01*
X213853688Y-54532952D01*
X214024948Y-54532952D01*
X214025523Y-54550017D01*
X214056122Y-54641869D01*
X214111901Y-54669655D01*
X214116322Y-54664969D01*
X214817048Y-54664969D01*
X214839844Y-54766045D01*
X214922662Y-54796986D01*
X215003522Y-54768491D01*
X215028275Y-54664969D01*
X215027572Y-54661852D01*
X215186695Y-54661852D01*
X215186797Y-54664969D01*
X215187638Y-54690807D01*
X215216982Y-54796705D01*
X215272824Y-54823704D01*
X215335330Y-54758860D01*
X215357375Y-54691372D01*
X215609148Y-54691372D01*
X215609152Y-54693287D01*
X215623561Y-54803886D01*
X215657554Y-54849792D01*
X215694768Y-54835447D01*
X215733942Y-54751427D01*
X215726411Y-54625364D01*
X215712945Y-54584379D01*
X215667792Y-54534379D01*
X215626937Y-54573565D01*
X215611828Y-54673624D01*
X215609148Y-54691372D01*
X215357375Y-54691372D01*
X215363173Y-54673624D01*
X215343992Y-54573373D01*
X215261504Y-54532952D01*
X215213235Y-54560173D01*
X215186695Y-54661852D01*
X215027572Y-54661852D01*
X215005480Y-54563893D01*
X214922662Y-54532952D01*
X214841801Y-54561446D01*
X214835908Y-54586091D01*
X214817048Y-54664969D01*
X214116322Y-54664969D01*
X214162988Y-54615509D01*
X214171711Y-54586091D01*
X214171197Y-54483460D01*
X214134894Y-54408734D01*
X214078128Y-54400705D01*
X214050108Y-54433037D01*
X214024948Y-54532952D01*
X213853688Y-54532952D01*
X213854130Y-54509299D01*
X213847833Y-54467528D01*
X213868043Y-54392796D01*
X213966789Y-54364081D01*
X213984719Y-54361694D01*
X214079150Y-54319961D01*
X214096557Y-54247676D01*
X214405248Y-54247676D01*
X214405856Y-54296132D01*
X214443918Y-54391302D01*
X214508359Y-54451871D01*
X214571075Y-54444483D01*
X214594939Y-54378439D01*
X214604693Y-54268919D01*
X214817048Y-54268919D01*
X214834405Y-54337192D01*
X214922662Y-54374532D01*
X214990935Y-54357175D01*
X215028275Y-54268919D01*
X215027483Y-54265803D01*
X215186695Y-54265803D01*
X215187194Y-54268919D01*
X215198552Y-54339908D01*
X215247823Y-54404492D01*
X215311346Y-54390699D01*
X215317022Y-54384494D01*
X215346244Y-54296586D01*
X215337848Y-54259286D01*
X215587090Y-54259286D01*
X215606270Y-54296586D01*
X215635563Y-54353551D01*
X215681237Y-54409407D01*
X215707326Y-54406420D01*
X215713082Y-54308524D01*
X215696258Y-54204206D01*
X215647963Y-54161450D01*
X215587553Y-54208333D01*
X215587090Y-54259286D01*
X215337848Y-54259286D01*
X215325711Y-54205369D01*
X215265905Y-54163306D01*
X215220520Y-54181924D01*
X215186695Y-54265803D01*
X215027483Y-54265803D01*
X215010918Y-54200646D01*
X214922662Y-54163306D01*
X214854388Y-54180663D01*
X214822410Y-54256246D01*
X214817048Y-54268919D01*
X214604693Y-54268919D01*
X214605822Y-54256246D01*
X214605020Y-54220830D01*
X214581217Y-54132848D01*
X214513410Y-54120368D01*
X214456884Y-54151046D01*
X214422115Y-54216112D01*
X214405248Y-54247676D01*
X214096557Y-54247676D01*
X214104158Y-54216112D01*
X214103163Y-54186273D01*
X214067556Y-54100892D01*
X213958640Y-54067358D01*
X213941094Y-54065493D01*
X213853702Y-54068810D01*
X213800567Y-54113853D01*
X213768569Y-54221877D01*
X213744590Y-54414137D01*
X213737397Y-54523404D01*
X213540534Y-54523404D01*
X213533364Y-54474571D01*
X213470479Y-54427339D01*
X213414884Y-54459988D01*
X213391269Y-54585759D01*
X213132446Y-54585759D01*
X213134054Y-54537527D01*
X213153611Y-54409124D01*
X213192655Y-54317085D01*
X213257583Y-54232259D01*
X213387931Y-54084096D01*
X213389600Y-54229314D01*
X213407380Y-54327715D01*
X213464829Y-54374532D01*
X213491698Y-54371169D01*
X213561487Y-54312396D01*
X213575523Y-54216293D01*
X213522675Y-54129926D01*
X213496247Y-54099460D01*
X213526459Y-54073554D01*
X213633737Y-54052033D01*
X213832302Y-54030324D01*
X213860301Y-54027806D01*
X214055972Y-54016265D01*
X214208882Y-54017226D01*
X214287972Y-54030665D01*
X214306269Y-54036857D01*
X214416127Y-54054199D01*
X214602627Y-54073461D01*
X214845384Y-54092710D01*
X215124014Y-54110011D01*
X215231611Y-54116339D01*
X215509944Y-54137425D01*
X215751286Y-54162241D01*
X215932788Y-54188200D01*
X216031601Y-54212718D01*
X216155950Y-54273251D01*
X216217949Y-54308524D01*
X216346442Y-54381627D01*
X216469061Y-54474030D01*
X216512368Y-54503671D01*
X216627979Y-54532952D01*
X216689820Y-54551466D01*
X216754936Y-54636051D01*
X216779310Y-54679354D01*
X216877565Y-54751427D01*
X216904941Y-54771508D01*
X217134573Y-54873915D01*
G37*
G36*
X219678710Y-46498016D02*
G01*
X219703573Y-46588681D01*
X219698650Y-46669638D01*
X219659895Y-46713759D01*
X219632225Y-46680282D01*
X219625801Y-46545946D01*
X219630557Y-46436843D01*
X219645014Y-46423249D01*
X219678710Y-46498016D01*
G37*
G36*
X224348275Y-53530231D02*
G01*
X224337929Y-53544080D01*
X224266323Y-53582433D01*
X224236708Y-53579644D01*
X224224256Y-53552090D01*
X224298585Y-53509477D01*
X224339776Y-53500223D01*
X224348275Y-53530231D01*
G37*
G36*
X218443105Y-48372176D02*
G01*
X218451366Y-48388059D01*
X218407901Y-48407381D01*
X218379945Y-48403570D01*
X218372696Y-48372176D01*
X218380436Y-48365856D01*
X218443105Y-48372176D01*
G37*
G36*
X217721414Y-47430458D02*
G01*
X217695011Y-47456861D01*
X217668607Y-47430458D01*
X217695011Y-47404054D01*
X217721414Y-47430458D01*
G37*
G36*
X216819400Y-51763729D02*
G01*
X216823701Y-51919023D01*
X216822335Y-51989919D01*
X216811649Y-52109418D01*
X216793826Y-52156653D01*
X216722692Y-52144005D01*
X216621513Y-52066909D01*
X216570296Y-51949822D01*
X216580056Y-51827840D01*
X216661809Y-51736058D01*
X216737855Y-51698788D01*
X216796022Y-51696237D01*
X216819400Y-51763729D01*
G37*
G36*
X222949273Y-53107173D02*
G01*
X222945462Y-53135128D01*
X222914068Y-53142377D01*
X222907748Y-53134637D01*
X222914068Y-53071968D01*
X222929952Y-53063707D01*
X222949273Y-53107173D01*
G37*
G36*
X220546366Y-45397448D02*
G01*
X220638790Y-45416344D01*
X220644876Y-45476611D01*
X220625704Y-45513963D01*
X220573790Y-45555821D01*
X220540756Y-45542835D01*
X220467360Y-45476611D01*
X220443829Y-45445172D01*
X220446489Y-45406447D01*
X220538447Y-45397401D01*
X220546366Y-45397448D01*
G37*
G36*
X224226534Y-51222867D02*
G01*
X224250976Y-51241874D01*
X224194630Y-51254771D01*
X224141070Y-51251037D01*
X224125321Y-51227036D01*
X224144003Y-51216572D01*
X224226534Y-51222867D01*
G37*
G36*
X217404574Y-48380977D02*
G01*
X217378171Y-48407381D01*
X217351768Y-48380977D01*
X217378171Y-48354574D01*
X217404574Y-48380977D01*
G37*
G36*
X218302287Y-47324844D02*
G01*
X218275884Y-47351248D01*
X218249481Y-47324844D01*
X218275884Y-47298441D01*
X218302287Y-47324844D01*
G37*
G36*
X222896466Y-52948753D02*
G01*
X222892655Y-52976708D01*
X222861262Y-52983957D01*
X222854942Y-52976217D01*
X222861262Y-52913548D01*
X222877145Y-52905287D01*
X222896466Y-52948753D01*
G37*
G36*
X215353949Y-56149828D02*
G01*
X215383784Y-56222597D01*
X215407454Y-56350588D01*
X215410154Y-56376744D01*
X215411059Y-56479755D01*
X215392720Y-56509987D01*
X215389087Y-56506930D01*
X215359252Y-56434160D01*
X215335582Y-56306169D01*
X215332882Y-56280013D01*
X215331977Y-56177002D01*
X215350316Y-56146770D01*
X215353949Y-56149828D01*
G37*
G36*
X218513514Y-51760603D02*
G01*
X218510238Y-51811662D01*
X218477403Y-51835994D01*
X218381389Y-51806061D01*
X218325434Y-51770864D01*
X218363868Y-51727660D01*
X218405053Y-51703983D01*
X218487419Y-51689555D01*
X218513514Y-51760603D01*
G37*
G36*
X214559368Y-56076902D02*
G01*
X214661527Y-56120199D01*
X214697707Y-56222765D01*
X214710383Y-56354782D01*
X214657762Y-56230448D01*
X214607957Y-56154643D01*
X214527963Y-56135730D01*
X214488005Y-56143206D01*
X214417070Y-56110796D01*
X214431585Y-56075707D01*
X214534194Y-56073497D01*
X214559368Y-56076902D01*
G37*
G36*
X223496851Y-51217140D02*
G01*
X223441220Y-51253702D01*
X223318919Y-51309143D01*
X223238140Y-51342212D01*
X223120197Y-51390514D01*
X223068088Y-51411884D01*
X223054886Y-51388262D01*
X223068942Y-51370091D01*
X223151795Y-51321999D01*
X223275411Y-51268375D01*
X223400768Y-51225337D01*
X223488845Y-51209005D01*
X223496851Y-51217140D01*
G37*
G36*
X215653617Y-56222765D02*
G01*
X215646256Y-56295407D01*
X215626982Y-56288774D01*
X215620007Y-56264870D01*
X215626982Y-56156757D01*
X215645318Y-56147799D01*
X215653617Y-56222765D01*
G37*
G36*
X218091061Y-47800104D02*
G01*
X218064657Y-47826507D01*
X218038254Y-47800104D01*
X218064657Y-47773701D01*
X218091061Y-47800104D01*
G37*
G36*
X213025874Y-56829407D02*
G01*
X212852434Y-56856262D01*
X212674212Y-56836375D01*
X212537319Y-56769051D01*
X212472319Y-56669265D01*
X212448586Y-56528822D01*
X212507763Y-56528822D01*
X212601226Y-56688068D01*
X212609214Y-56696251D01*
X212712954Y-56764778D01*
X212831283Y-56800783D01*
X212928478Y-56798168D01*
X212968815Y-56750832D01*
X212951877Y-56721410D01*
X212869609Y-56698025D01*
X212866089Y-56697964D01*
X212770271Y-56649444D01*
X212700091Y-56539043D01*
X212672857Y-56408775D01*
X212705881Y-56300651D01*
X212732906Y-56262976D01*
X212746091Y-56197451D01*
X212693961Y-56189024D01*
X212599493Y-56248876D01*
X212514025Y-56370647D01*
X212507763Y-56528822D01*
X212448586Y-56528822D01*
X212440749Y-56482447D01*
X212471535Y-56314088D01*
X212575460Y-56165667D01*
X212729794Y-56085248D01*
X212910542Y-56084176D01*
X213093711Y-56173791D01*
X213160658Y-56245823D01*
X213228357Y-56416011D01*
X213224546Y-56601601D01*
X213149973Y-56750832D01*
X213145454Y-56759875D01*
X213025874Y-56829407D01*
G37*
G36*
X214197220Y-56070957D02*
G01*
X214236175Y-56117152D01*
X214217124Y-56147529D01*
X214132219Y-56169959D01*
X214061312Y-56188067D01*
X214060781Y-56262370D01*
X214062842Y-56268290D01*
X214072447Y-56323583D01*
X214025709Y-56292323D01*
X213996348Y-56250273D01*
X213989876Y-56147105D01*
X214025172Y-56103722D01*
X214111376Y-56068366D01*
X214197220Y-56070957D01*
G37*
G36*
X223424533Y-53556029D02*
G01*
X223398129Y-53582433D01*
X223371726Y-53556029D01*
X223398129Y-53529626D01*
X223424533Y-53556029D01*
G37*
G36*
X212757589Y-45027755D02*
G01*
X212753778Y-45055711D01*
X212722384Y-45062959D01*
X212716064Y-45055220D01*
X212722384Y-44992550D01*
X212738268Y-44984289D01*
X212757589Y-45027755D01*
G37*
G36*
X215272292Y-51735416D02*
G01*
X215359693Y-51816867D01*
X215397921Y-51919023D01*
X215383354Y-51974529D01*
X215317183Y-52071427D01*
X215255185Y-52113298D01*
X215160773Y-52123128D01*
X215074322Y-52044527D01*
X215044463Y-51920416D01*
X215074045Y-51795695D01*
X215162846Y-51714123D01*
X215176644Y-51710343D01*
X215272292Y-51735416D01*
G37*
G36*
X221218865Y-46455564D02*
G01*
X221259460Y-46506341D01*
X221258854Y-46518292D01*
X221236173Y-46559148D01*
X221227702Y-46556718D01*
X221180250Y-46506341D01*
X221171999Y-46485886D01*
X221203537Y-46453534D01*
X221218865Y-46455564D01*
G37*
G36*
X217510188Y-48512994D02*
G01*
X217506377Y-48540950D01*
X217474983Y-48548198D01*
X217468663Y-48540459D01*
X217474983Y-48477789D01*
X217490866Y-48469528D01*
X217510188Y-48512994D01*
G37*
G36*
X210698129Y-57806965D02*
G01*
X210698129Y-57443774D01*
X219411227Y-57443774D01*
X220506965Y-57427345D01*
X220786998Y-57423204D01*
X221264904Y-57416321D01*
X221772943Y-57409180D01*
X222265870Y-57402417D01*
X222698441Y-57396663D01*
X223794179Y-57382411D01*
X223794179Y-56640947D01*
X223360763Y-56656284D01*
X223206518Y-56662493D01*
X223050744Y-56674801D01*
X222962460Y-56697076D01*
X222918887Y-56736367D01*
X222897248Y-56799723D01*
X222861451Y-56886600D01*
X222794183Y-56952147D01*
X222756080Y-56955549D01*
X222747997Y-56903256D01*
X222766010Y-56839460D01*
X222806162Y-56685884D01*
X222840700Y-56550773D01*
X223047698Y-56550773D01*
X223061543Y-56573708D01*
X223159757Y-56586359D01*
X223352875Y-56590806D01*
X223516364Y-56589111D01*
X223669283Y-56570265D01*
X223752614Y-56517287D01*
X223787274Y-56413691D01*
X223794179Y-56242992D01*
X223790269Y-56163227D01*
X223903753Y-56163227D01*
X223906832Y-56242992D01*
X223909774Y-56319230D01*
X223926196Y-56592391D01*
X224293202Y-56592402D01*
X224450689Y-56590921D01*
X224568754Y-56578566D01*
X224589335Y-56543883D01*
X224515200Y-56475453D01*
X224349119Y-56361858D01*
X224138362Y-56222122D01*
X224046655Y-56341258D01*
X224026513Y-56366376D01*
X223966880Y-56419110D01*
X223957447Y-56386488D01*
X224004296Y-56277645D01*
X224027307Y-56199675D01*
X223983615Y-56128188D01*
X224194752Y-56128188D01*
X224248365Y-56198760D01*
X224360624Y-56282973D01*
X224373842Y-56291088D01*
X224543707Y-56383096D01*
X224653086Y-56417188D01*
X224690686Y-56389714D01*
X224690510Y-56387538D01*
X224675388Y-56314573D01*
X224640853Y-56170870D01*
X224593780Y-55985135D01*
X224498080Y-55615489D01*
X224440825Y-55708425D01*
X224384986Y-55799064D01*
X224271893Y-55982639D01*
X224429086Y-56144821D01*
X224488810Y-56209194D01*
X224567866Y-56311680D01*
X224579077Y-56355147D01*
X224524803Y-56330473D01*
X224407408Y-56228535D01*
X224347324Y-56174740D01*
X224248883Y-56109453D01*
X224195853Y-56108052D01*
X224194752Y-56128188D01*
X223983615Y-56128188D01*
X223974673Y-56113558D01*
X223947041Y-56093149D01*
X223914248Y-56093972D01*
X223903753Y-56163227D01*
X223790269Y-56163227D01*
X223788483Y-56126781D01*
X223759187Y-56090032D01*
X223688566Y-56117152D01*
X223625878Y-56156976D01*
X223614491Y-56209274D01*
X223669316Y-56305481D01*
X223720975Y-56407674D01*
X223724099Y-56468867D01*
X223683237Y-56450411D01*
X223629260Y-56361606D01*
X223603060Y-56306259D01*
X223551851Y-56238186D01*
X223485653Y-56246968D01*
X223371726Y-56328379D01*
X223337636Y-56354155D01*
X223231799Y-56419111D01*
X223178057Y-56426687D01*
X223191945Y-56373026D01*
X223204833Y-56343160D01*
X223167797Y-56350272D01*
X223144539Y-56370507D01*
X223134345Y-56434395D01*
X223132895Y-56472164D01*
X223069198Y-56534754D01*
X223047698Y-56550773D01*
X222840700Y-56550773D01*
X222864501Y-56457664D01*
X222888146Y-56364061D01*
X223020160Y-56364061D01*
X223028549Y-56363637D01*
X223086041Y-56316570D01*
X223108498Y-56292932D01*
X223213306Y-56292932D01*
X223218301Y-56313506D01*
X223276043Y-56319038D01*
X223384928Y-56254869D01*
X223385617Y-56254344D01*
X223457493Y-56172673D01*
X223476188Y-56097398D01*
X223432717Y-56064345D01*
X223406713Y-56072983D01*
X223326801Y-56135716D01*
X223248564Y-56223376D01*
X223213306Y-56292932D01*
X223108498Y-56292932D01*
X223173897Y-56224093D01*
X223267290Y-56114777D01*
X223341392Y-56017190D01*
X223366775Y-55968696D01*
X223491663Y-55968696D01*
X223506688Y-56069111D01*
X223538965Y-56097398D01*
X223545862Y-56103442D01*
X223624291Y-56090042D01*
X223705247Y-56012980D01*
X223768590Y-55894212D01*
X223792290Y-55765917D01*
X223914880Y-55765917D01*
X223916247Y-55826192D01*
X223943878Y-55974702D01*
X224014148Y-56057550D01*
X224021867Y-56062305D01*
X224101454Y-56091316D01*
X224143300Y-56041667D01*
X224155624Y-55970600D01*
X224121567Y-55892521D01*
X224043320Y-55882367D01*
X223997959Y-55868766D01*
X223983092Y-55815159D01*
X224193829Y-55815159D01*
X224203499Y-55871405D01*
X224245875Y-55865983D01*
X224312124Y-55796896D01*
X224321411Y-55781158D01*
X224340358Y-55708425D01*
X224298683Y-55702008D01*
X224220534Y-55769207D01*
X224193829Y-55815159D01*
X223983092Y-55815159D01*
X223971267Y-55772518D01*
X223969916Y-55736405D01*
X223983372Y-55673813D01*
X224033741Y-55696302D01*
X224039457Y-55700839D01*
X224121924Y-55721529D01*
X224239502Y-55665755D01*
X224241723Y-55664297D01*
X224335965Y-55596467D01*
X224375052Y-55556609D01*
X224365926Y-55550950D01*
X224284109Y-55540445D01*
X224144966Y-55536279D01*
X223914880Y-55536279D01*
X223914880Y-55765917D01*
X223792290Y-55765917D01*
X223794179Y-55755693D01*
X223793133Y-55712868D01*
X223773586Y-55661685D01*
X223714318Y-55695239D01*
X223663225Y-55762768D01*
X223698991Y-55837751D01*
X223700702Y-55841339D01*
X223721098Y-55866998D01*
X223730713Y-55902320D01*
X223654800Y-55885565D01*
X223653777Y-55885245D01*
X223550924Y-55894730D01*
X223498709Y-55959902D01*
X223491663Y-55968696D01*
X223366775Y-55968696D01*
X223371378Y-55959902D01*
X223371041Y-55957238D01*
X223339697Y-55892048D01*
X223273039Y-55783709D01*
X223193405Y-55662931D01*
X223281171Y-55662931D01*
X223313935Y-55738192D01*
X223362556Y-55815964D01*
X223440580Y-55883926D01*
X223499512Y-55859963D01*
X223506825Y-55837751D01*
X223464767Y-55764984D01*
X223326853Y-55670145D01*
X223309724Y-55660889D01*
X223281171Y-55662931D01*
X223193405Y-55662931D01*
X223175048Y-55635089D01*
X223086325Y-55988296D01*
X223084588Y-55995233D01*
X223043932Y-56173170D01*
X223020801Y-56305510D01*
X223020160Y-56364061D01*
X222888146Y-56364061D01*
X222937399Y-56169090D01*
X223021229Y-55834452D01*
X223095217Y-55536975D01*
X223239709Y-55536975D01*
X223398129Y-55641892D01*
X223484627Y-55698092D01*
X223569322Y-55738048D01*
X223621889Y-55719315D01*
X223676311Y-55641892D01*
X223700876Y-55599202D01*
X223703094Y-55556667D01*
X223639811Y-55539602D01*
X223490988Y-55536627D01*
X223239709Y-55536975D01*
X223095217Y-55536975D01*
X223108524Y-55483472D01*
X223245594Y-55483472D01*
X223493483Y-55483472D01*
X223610698Y-55480326D01*
X223713682Y-55457843D01*
X223718201Y-55443867D01*
X223901472Y-55443867D01*
X223911920Y-55455728D01*
X223996100Y-55475613D01*
X224137422Y-55483472D01*
X224208295Y-55482430D01*
X224327810Y-55474272D01*
X224375052Y-55460665D01*
X224372705Y-55455119D01*
X224317998Y-55402679D01*
X224213508Y-55322828D01*
X224179880Y-55299028D01*
X224086912Y-55242570D01*
X224031938Y-55245792D01*
X223977558Y-55306030D01*
X223931546Y-55374693D01*
X223918859Y-55403875D01*
X223901472Y-55443867D01*
X223718201Y-55443867D01*
X223731133Y-55403875D01*
X223674793Y-55306992D01*
X223657832Y-55284820D01*
X223609704Y-55249611D01*
X223543438Y-55269394D01*
X223426904Y-55349706D01*
X223245594Y-55483472D01*
X223108524Y-55483472D01*
X223112363Y-55468039D01*
X223168941Y-55238832D01*
X223286736Y-55238832D01*
X223318536Y-55243434D01*
X223330765Y-55231683D01*
X223427276Y-55231683D01*
X223460327Y-55248316D01*
X223507905Y-55210948D01*
X223694633Y-55210948D01*
X223730811Y-55282807D01*
X223743712Y-55294937D01*
X223783530Y-55303373D01*
X223792437Y-55233167D01*
X223913700Y-55233167D01*
X223951036Y-55246808D01*
X223969598Y-55230504D01*
X223976747Y-55162983D01*
X223963967Y-55120438D01*
X224019356Y-55129922D01*
X224147210Y-55204305D01*
X224195320Y-55234271D01*
X224324191Y-55295055D01*
X224400921Y-55299692D01*
X224408639Y-55245519D01*
X224406647Y-55240101D01*
X224377707Y-55135049D01*
X224346696Y-54989971D01*
X224318443Y-54877930D01*
X224268599Y-54825748D01*
X224171978Y-54828137D01*
X224090441Y-54839329D01*
X224068608Y-54826943D01*
X224134314Y-54770918D01*
X224139034Y-54767249D01*
X224196224Y-54715623D01*
X224174336Y-54695067D01*
X224060121Y-54691372D01*
X224036632Y-54691390D01*
X223934460Y-54696897D01*
X223921102Y-54726380D01*
X223981920Y-54800209D01*
X224016001Y-54839891D01*
X224033245Y-54876196D01*
X224048248Y-54907781D01*
X224006499Y-54954730D01*
X223953677Y-55018801D01*
X223913763Y-55140944D01*
X223913709Y-55219439D01*
X223913700Y-55233167D01*
X223792437Y-55233167D01*
X223794179Y-55219439D01*
X223793794Y-55194023D01*
X223778103Y-55130077D01*
X223752778Y-55143997D01*
X223730811Y-55156071D01*
X223694633Y-55210948D01*
X223507905Y-55210948D01*
X223529087Y-55194312D01*
X223561015Y-55143997D01*
X223539728Y-55113826D01*
X223520601Y-55116611D01*
X223448765Y-55170145D01*
X223427276Y-55231683D01*
X223330765Y-55231683D01*
X223395911Y-55169084D01*
X223457851Y-55064094D01*
X223449627Y-54917928D01*
X223430909Y-54853179D01*
X223424762Y-54843559D01*
X223477339Y-54843559D01*
X223479311Y-54859049D01*
X223530146Y-54929002D01*
X223550417Y-54937462D01*
X223582953Y-54908832D01*
X223580981Y-54893343D01*
X223530146Y-54823389D01*
X223509875Y-54814929D01*
X223477339Y-54843559D01*
X223424762Y-54843559D01*
X223408972Y-54818847D01*
X223382368Y-54865970D01*
X223338379Y-55004435D01*
X223298130Y-55148460D01*
X223286736Y-55238832D01*
X223168941Y-55238832D01*
X223177624Y-55203658D01*
X223264568Y-54845094D01*
X223299312Y-54695170D01*
X223450936Y-54695170D01*
X223594954Y-54813113D01*
X223681537Y-54890840D01*
X223688195Y-54908832D01*
X223700448Y-54941942D01*
X223650827Y-54986657D01*
X223601176Y-55031040D01*
X223616038Y-55064094D01*
X223622974Y-55079521D01*
X223672159Y-55080879D01*
X223738723Y-55013163D01*
X223739426Y-55011846D01*
X223787036Y-54893045D01*
X223786396Y-54876196D01*
X223899792Y-54876196D01*
X223916642Y-54893045D01*
X223926196Y-54902599D01*
X223952599Y-54876196D01*
X223926196Y-54849792D01*
X223899792Y-54876196D01*
X223786396Y-54876196D01*
X223784447Y-54824900D01*
X223732399Y-54828935D01*
X223696897Y-54838850D01*
X223704338Y-54779245D01*
X223711655Y-54756427D01*
X223694725Y-54705506D01*
X223594497Y-54693271D01*
X223450936Y-54695170D01*
X223299312Y-54695170D01*
X223317239Y-54617812D01*
X223530146Y-54617812D01*
X223551243Y-54630061D01*
X223638876Y-54638566D01*
X223699011Y-54627857D01*
X223714122Y-54593268D01*
X223925503Y-54593268D01*
X223932943Y-54627759D01*
X224034449Y-54636960D01*
X224115946Y-54633989D01*
X224147640Y-54618143D01*
X224092728Y-54578681D01*
X224020152Y-54549733D01*
X223936949Y-54580287D01*
X223930091Y-54588065D01*
X223925503Y-54593268D01*
X223714122Y-54593268D01*
X223716395Y-54588065D01*
X223715964Y-54587389D01*
X223654758Y-54564349D01*
X223571805Y-54577846D01*
X223530146Y-54617812D01*
X223317239Y-54617812D01*
X223328258Y-54570265D01*
X223341635Y-54506549D01*
X223741373Y-54506549D01*
X223767776Y-54532952D01*
X223794179Y-54506549D01*
X223767776Y-54480146D01*
X223741373Y-54506549D01*
X223341635Y-54506549D01*
X223364463Y-54397819D01*
X223477339Y-54397819D01*
X223478372Y-54424481D01*
X223503317Y-54477812D01*
X223554294Y-54430988D01*
X223561470Y-54411947D01*
X223556170Y-54400936D01*
X223688566Y-54400936D01*
X223714969Y-54427339D01*
X223734291Y-54408018D01*
X223909133Y-54408018D01*
X223952599Y-54427339D01*
X223980555Y-54423528D01*
X223986491Y-54397819D01*
X224111019Y-54397819D01*
X224115237Y-54430144D01*
X224163826Y-54506549D01*
X224196304Y-54503472D01*
X224216632Y-54430456D01*
X224206316Y-54366087D01*
X224163826Y-54321726D01*
X224140544Y-54329569D01*
X224113478Y-54392135D01*
X224111019Y-54397819D01*
X223986491Y-54397819D01*
X223987804Y-54392135D01*
X223980064Y-54385815D01*
X223917395Y-54392135D01*
X223912817Y-54400936D01*
X223909133Y-54408018D01*
X223734291Y-54408018D01*
X223741373Y-54400936D01*
X223714969Y-54374532D01*
X223688566Y-54400936D01*
X223556170Y-54400936D01*
X223531007Y-54348661D01*
X223503320Y-54343431D01*
X223477339Y-54397819D01*
X223364463Y-54397819D01*
X223370788Y-54367694D01*
X223394188Y-54226311D01*
X223660765Y-54226311D01*
X223661230Y-54250094D01*
X223725893Y-54291927D01*
X223735912Y-54295687D01*
X223788825Y-54306766D01*
X223755454Y-54262366D01*
X223722788Y-54237015D01*
X223914094Y-54237015D01*
X223914912Y-54255041D01*
X223983403Y-54264750D01*
X224035309Y-54256294D01*
X224015307Y-54232846D01*
X223984770Y-54224409D01*
X223914094Y-54237015D01*
X223722788Y-54237015D01*
X223716627Y-54232234D01*
X223660765Y-54226311D01*
X223394188Y-54226311D01*
X223394255Y-54225906D01*
X223400755Y-54133425D01*
X223400445Y-54131402D01*
X223597254Y-54131402D01*
X223598072Y-54149428D01*
X223666563Y-54159137D01*
X223718469Y-54150681D01*
X223702023Y-54131402D01*
X223914094Y-54131402D01*
X223914912Y-54149428D01*
X223923751Y-54150681D01*
X223983403Y-54159137D01*
X224035309Y-54150681D01*
X224015307Y-54127233D01*
X223984770Y-54118796D01*
X223914094Y-54131402D01*
X223702023Y-54131402D01*
X223698467Y-54127233D01*
X223667930Y-54118796D01*
X223597254Y-54131402D01*
X223400445Y-54131402D01*
X223392382Y-54078775D01*
X223371232Y-54050480D01*
X223358515Y-54041430D01*
X223322775Y-54009184D01*
X223379458Y-54022551D01*
X223417294Y-54026667D01*
X223472368Y-53978527D01*
X223481461Y-53952079D01*
X224031809Y-53952079D01*
X224042648Y-53967882D01*
X224087732Y-54004886D01*
X224093002Y-54003513D01*
X224111019Y-53952079D01*
X224108870Y-53937605D01*
X224055096Y-53899273D01*
X224035996Y-53903419D01*
X224031809Y-53952079D01*
X223481461Y-53952079D01*
X223509057Y-53871808D01*
X223594235Y-53871808D01*
X223600555Y-53934477D01*
X223616438Y-53942738D01*
X223635759Y-53899273D01*
X223631948Y-53871317D01*
X223600555Y-53864068D01*
X223594235Y-53871808D01*
X223509057Y-53871808D01*
X223519061Y-53842710D01*
X223535310Y-53772667D01*
X223535780Y-53767256D01*
X223688566Y-53767256D01*
X223714969Y-53793659D01*
X223741373Y-53767256D01*
X223899792Y-53767256D01*
X223926196Y-53793659D01*
X223952599Y-53767256D01*
X223926196Y-53740853D01*
X223899792Y-53767256D01*
X223741373Y-53767256D01*
X223714969Y-53740853D01*
X223688566Y-53767256D01*
X223535780Y-53767256D01*
X223544520Y-53666622D01*
X223511329Y-53634431D01*
X223490751Y-53623604D01*
X223530146Y-53578891D01*
X223552885Y-53562167D01*
X223557566Y-53552913D01*
X223688566Y-53552913D01*
X223695029Y-53592257D01*
X223741373Y-53635239D01*
X223753901Y-53633817D01*
X223794179Y-53585549D01*
X223792165Y-53570734D01*
X223776412Y-53549796D01*
X223899792Y-53549796D01*
X223904541Y-53585465D01*
X223904594Y-53585549D01*
X223952599Y-53661643D01*
X223978995Y-53667279D01*
X224005406Y-53615069D01*
X224004576Y-53608836D01*
X224101183Y-53608836D01*
X224102824Y-53615069D01*
X224118113Y-53673122D01*
X224157002Y-53752666D01*
X224161998Y-53756803D01*
X224239476Y-53754617D01*
X224362275Y-53701597D01*
X224499689Y-53613944D01*
X224621009Y-53507859D01*
X224623011Y-53505724D01*
X224696520Y-53419043D01*
X224699348Y-53364741D01*
X224634211Y-53300075D01*
X224566165Y-53255629D01*
X224541264Y-53263612D01*
X224533472Y-53266110D01*
X224524993Y-53289757D01*
X224455539Y-53318399D01*
X224354056Y-53339238D01*
X224225246Y-53412270D01*
X224129591Y-53511451D01*
X224101183Y-53608836D01*
X224004576Y-53608836D01*
X224000657Y-53579401D01*
X223952599Y-53503223D01*
X223926203Y-53497586D01*
X223899792Y-53549796D01*
X223776412Y-53549796D01*
X223741373Y-53503223D01*
X223714166Y-53498255D01*
X223688566Y-53552913D01*
X223557566Y-53552913D01*
X223576120Y-53516231D01*
X223509870Y-53460884D01*
X223505871Y-53458321D01*
X223393115Y-53378515D01*
X223262997Y-53277431D01*
X223243441Y-53261979D01*
X223138406Y-53202814D01*
X223353792Y-53202814D01*
X223369067Y-53288792D01*
X223414117Y-53330005D01*
X223510768Y-53379123D01*
X223597890Y-53392229D01*
X223635759Y-53358882D01*
X223629870Y-53343741D01*
X223752655Y-53343741D01*
X223758975Y-53406410D01*
X223774858Y-53414672D01*
X223794179Y-53371206D01*
X223790435Y-53343741D01*
X223911075Y-53343741D01*
X223913845Y-53371206D01*
X223917395Y-53406410D01*
X223933278Y-53414672D01*
X223952599Y-53371206D01*
X223950184Y-53353491D01*
X224047264Y-53353491D01*
X224052995Y-53361635D01*
X224082602Y-53371206D01*
X224116323Y-53382107D01*
X224235767Y-53335199D01*
X224335067Y-53263612D01*
X224333893Y-53203310D01*
X224277553Y-53180862D01*
X224145390Y-53221602D01*
X224122422Y-53239189D01*
X224060140Y-53286878D01*
X224047264Y-53353491D01*
X223950184Y-53353491D01*
X223948788Y-53343250D01*
X223917395Y-53336002D01*
X223911075Y-53343741D01*
X223790435Y-53343741D01*
X223790368Y-53343250D01*
X223758975Y-53336002D01*
X223752655Y-53343741D01*
X223629870Y-53343741D01*
X223617896Y-53312956D01*
X223547861Y-53239189D01*
X223741373Y-53239189D01*
X223767776Y-53265593D01*
X223794179Y-53239189D01*
X223767776Y-53212786D01*
X223741373Y-53239189D01*
X223547861Y-53239189D01*
X223543348Y-53234436D01*
X223503407Y-53203538D01*
X223489570Y-53179098D01*
X223569751Y-53195168D01*
X223622492Y-53200295D01*
X223685279Y-53163240D01*
X223683220Y-53131919D01*
X224005406Y-53131919D01*
X224010774Y-53163240D01*
X224014640Y-53185798D01*
X224072514Y-53206205D01*
X224188136Y-53141637D01*
X224247803Y-53080272D01*
X224222103Y-53031344D01*
X224144149Y-53010242D01*
X224048100Y-53045174D01*
X224005406Y-53131919D01*
X223683220Y-53131919D01*
X223680748Y-53094307D01*
X223601385Y-53032211D01*
X223595676Y-53030213D01*
X223496841Y-53040673D01*
X223446902Y-53078446D01*
X223406299Y-53109157D01*
X223353792Y-53202814D01*
X223138406Y-53202814D01*
X223134799Y-53200782D01*
X223085898Y-53214424D01*
X223104649Y-53287294D01*
X223198963Y-53403783D01*
X223236655Y-53442362D01*
X223273606Y-53490114D01*
X223239709Y-53475579D01*
X223165852Y-53418418D01*
X223067890Y-53323829D01*
X223007553Y-53275841D01*
X222939761Y-53306788D01*
X222918041Y-53357525D01*
X222959413Y-53457416D01*
X223079341Y-53573260D01*
X223266057Y-53691195D01*
X223312232Y-53717337D01*
X223379160Y-53769500D01*
X223365893Y-53791325D01*
X223337794Y-53787533D01*
X223223388Y-53741913D01*
X223085028Y-53660770D01*
X223078841Y-53656597D01*
X222924905Y-53574025D01*
X222825880Y-53566004D01*
X222790853Y-53633379D01*
X222812812Y-53666314D01*
X222902413Y-53744634D01*
X223037536Y-53841490D01*
X223139880Y-53913187D01*
X223218797Y-53979356D01*
X223226404Y-54004886D01*
X223181851Y-53988921D01*
X223070817Y-53922964D01*
X222930695Y-53823298D01*
X222887087Y-53790449D01*
X222760820Y-53706276D01*
X222683947Y-53683103D01*
X222634010Y-53712549D01*
X222602658Y-53764720D01*
X222635943Y-53803631D01*
X222641081Y-53808119D01*
X222615301Y-53862114D01*
X222526016Y-53960520D01*
X222388424Y-54086001D01*
X222341202Y-54126037D01*
X222212260Y-54232283D01*
X222151463Y-54273605D01*
X222150321Y-54254159D01*
X222200345Y-54178104D01*
X222221834Y-54148301D01*
X222309740Y-54037530D01*
X222370858Y-53976963D01*
X222403586Y-53949424D01*
X222411341Y-53881613D01*
X222328795Y-53834480D01*
X222293466Y-53821624D01*
X222303848Y-53787014D01*
X222404656Y-53725370D01*
X222423858Y-53714982D01*
X222538733Y-53644321D01*
X222600136Y-53591968D01*
X222600340Y-53553912D01*
X222565214Y-53441831D01*
X222497871Y-53292207D01*
X222452636Y-53193285D01*
X222394605Y-53024995D01*
X222374525Y-52900198D01*
X222376872Y-52858538D01*
X222386275Y-52814264D01*
X222403282Y-52869543D01*
X222418498Y-52933030D01*
X222471120Y-53102433D01*
X222533879Y-53260910D01*
X222593938Y-53378192D01*
X222638458Y-53424013D01*
X222701761Y-53383636D01*
X222720773Y-53283244D01*
X222686133Y-53161648D01*
X222674746Y-53137923D01*
X222626758Y-52996888D01*
X222588271Y-52827937D01*
X222587795Y-52825167D01*
X222565292Y-52750728D01*
X222633818Y-52750728D01*
X222635389Y-52773931D01*
X222667048Y-52911789D01*
X222726229Y-53069274D01*
X222757830Y-53137422D01*
X222808947Y-53221603D01*
X222860096Y-53231406D01*
X222940301Y-53182132D01*
X222956159Y-53170572D01*
X223033008Y-53078446D01*
X223028976Y-52955998D01*
X223025299Y-52941591D01*
X222982925Y-52833291D01*
X223057450Y-52833291D01*
X223095300Y-52922349D01*
X223163327Y-53000657D01*
X223273616Y-53067059D01*
X223362421Y-53042548D01*
X223400510Y-52997474D01*
X223417574Y-52923967D01*
X223346980Y-52895946D01*
X223304458Y-52910129D01*
X223297535Y-52988358D01*
X223300728Y-53000257D01*
X223289708Y-53007994D01*
X223241384Y-52935551D01*
X223238768Y-52931083D01*
X223165486Y-52831524D01*
X223106006Y-52790333D01*
X223095070Y-52791040D01*
X223057450Y-52833291D01*
X222982925Y-52833291D01*
X222970757Y-52802193D01*
X222908114Y-52745335D01*
X222848787Y-52782037D01*
X222847169Y-52784621D01*
X222808107Y-52812423D01*
X222776719Y-52741990D01*
X222769139Y-52717262D01*
X222714483Y-52640787D01*
X222658568Y-52652603D01*
X222633818Y-52750728D01*
X222565292Y-52750728D01*
X222536801Y-52656482D01*
X222459428Y-52588893D01*
X222403612Y-52593045D01*
X222363136Y-52667646D01*
X222362031Y-52683264D01*
X222349214Y-52710834D01*
X222322360Y-52637036D01*
X222318893Y-52625934D01*
X222276682Y-52558791D01*
X222190963Y-52495918D01*
X223054886Y-52495918D01*
X223054891Y-52496592D01*
X223098468Y-52575512D01*
X223201871Y-52652403D01*
X223259534Y-52681247D01*
X223327652Y-52696545D01*
X223370166Y-52647270D01*
X223376146Y-52629809D01*
X223425458Y-52629809D01*
X223470151Y-52769511D01*
X223617279Y-52887074D01*
X223640905Y-52899000D01*
X223721028Y-52916903D01*
X223764286Y-52859596D01*
X223772905Y-52808577D01*
X223737965Y-52735420D01*
X223719127Y-52719899D01*
X223693447Y-52632867D01*
X223730177Y-52537731D01*
X223814861Y-52482105D01*
X223916318Y-52496712D01*
X223969510Y-52578064D01*
X223945989Y-52697070D01*
X223923225Y-52765578D01*
X223926829Y-52897941D01*
X223940775Y-52923967D01*
X223972247Y-52982700D01*
X224041754Y-52984264D01*
X224134428Y-52884196D01*
X224198608Y-52753117D01*
X224207852Y-52582646D01*
X224145147Y-52434827D01*
X224029459Y-52325750D01*
X223879752Y-52271507D01*
X223714994Y-52288187D01*
X223587832Y-52370168D01*
X223554149Y-52391883D01*
X223484070Y-52474782D01*
X223425458Y-52629809D01*
X223376146Y-52629809D01*
X223415389Y-52515231D01*
X223415813Y-52513874D01*
X223452731Y-52370168D01*
X223445931Y-52280815D01*
X223392237Y-52202948D01*
X223324112Y-52139021D01*
X223259284Y-52103846D01*
X223253534Y-52104759D01*
X223197543Y-52158944D01*
X223132030Y-52268556D01*
X223077607Y-52394059D01*
X223054886Y-52495918D01*
X222190963Y-52495918D01*
X222187593Y-52493446D01*
X222033536Y-52419175D01*
X221809908Y-52330595D01*
X222693780Y-52330595D01*
X222761341Y-52395286D01*
X222837638Y-52443490D01*
X222919761Y-52470704D01*
X222927746Y-52468346D01*
X222982012Y-52411766D01*
X223053516Y-52301248D01*
X223127524Y-52165434D01*
X223175752Y-52062011D01*
X223361575Y-52062011D01*
X223404960Y-52084248D01*
X223521005Y-52055932D01*
X223682453Y-52008206D01*
X223908717Y-52006780D01*
X224141169Y-52059585D01*
X224193448Y-52084458D01*
X224335634Y-52211790D01*
X224440086Y-52387163D01*
X224478348Y-52567696D01*
X224462527Y-52566909D01*
X224424672Y-52499687D01*
X224379203Y-52397279D01*
X224340524Y-52292213D01*
X224323041Y-52217012D01*
X224311116Y-52211824D01*
X224240293Y-52229608D01*
X224200238Y-52238680D01*
X224188965Y-52211504D01*
X224190255Y-52168888D01*
X224120556Y-52111356D01*
X223991009Y-52068103D01*
X223828373Y-52051040D01*
X223674147Y-52059561D01*
X223526526Y-52103925D01*
X223477339Y-52186218D01*
X223494730Y-52222303D01*
X223574415Y-52238463D01*
X223736942Y-52226544D01*
X223800681Y-52219587D01*
X223942007Y-52217176D01*
X224039870Y-52252676D01*
X224139407Y-52338660D01*
X224157632Y-52357157D01*
X224236317Y-52457497D01*
X224263756Y-52565292D01*
X224262718Y-52582646D01*
X224254008Y-52728339D01*
X224247953Y-52792011D01*
X224254324Y-52959013D01*
X224306487Y-53065251D01*
X224320455Y-53080272D01*
X224325901Y-53086128D01*
X224392457Y-53126053D01*
X224460146Y-53082430D01*
X224524892Y-52994046D01*
X224592368Y-52860318D01*
X224596902Y-52849258D01*
X224643225Y-52771415D01*
X224675208Y-52774204D01*
X224678124Y-52832309D01*
X224642510Y-52942354D01*
X224609424Y-53015021D01*
X224586279Y-53103701D01*
X224586791Y-53116648D01*
X224615610Y-53160285D01*
X224672792Y-53126050D01*
X224736223Y-53025478D01*
X224767873Y-52927555D01*
X224794239Y-52711225D01*
X224785457Y-52477660D01*
X224741181Y-52278906D01*
X224672375Y-52143641D01*
X224578560Y-52019701D01*
X224485489Y-51938566D01*
X224416743Y-51925893D01*
X224407881Y-51972307D01*
X224459300Y-52056606D01*
X224474600Y-52073912D01*
X224530738Y-52156224D01*
X224515144Y-52179584D01*
X224441311Y-52144498D01*
X224322734Y-52051475D01*
X224297450Y-52029571D01*
X224068666Y-51892019D01*
X223823741Y-51855832D01*
X223549789Y-51918798D01*
X223516457Y-51932479D01*
X223480542Y-51947220D01*
X223370852Y-52011733D01*
X223361575Y-52062011D01*
X223175752Y-52062011D01*
X223189297Y-52032964D01*
X223224101Y-51932479D01*
X223217199Y-51892620D01*
X223214796Y-51892709D01*
X223141262Y-51938681D01*
X223049915Y-52045976D01*
X222965257Y-52181073D01*
X222911789Y-52310451D01*
X222889366Y-52391245D01*
X222870328Y-52407449D01*
X222846929Y-52329858D01*
X222844767Y-52321571D01*
X222805164Y-52247630D01*
X222738046Y-52264853D01*
X222711170Y-52284362D01*
X222693780Y-52330595D01*
X221809908Y-52330595D01*
X221796419Y-52325252D01*
X221686655Y-52282776D01*
X221487412Y-52195025D01*
X221389656Y-52130029D01*
X221392680Y-52085815D01*
X221495774Y-52060412D01*
X221538800Y-52058592D01*
X222792752Y-52058592D01*
X222803092Y-52100737D01*
X222865722Y-52113251D01*
X222963825Y-52064719D01*
X223073067Y-51963403D01*
X223094425Y-51938206D01*
X223170302Y-51837935D01*
X223181100Y-51784469D01*
X223133935Y-51753234D01*
X223037722Y-51763787D01*
X222919628Y-51871796D01*
X222900233Y-51895898D01*
X222824434Y-51999212D01*
X222792752Y-52058592D01*
X221538800Y-52058592D01*
X221698231Y-52051848D01*
X221785714Y-52048722D01*
X221894154Y-52032309D01*
X221924775Y-52006699D01*
X221880226Y-51978723D01*
X221751763Y-51915905D01*
X221555977Y-51827033D01*
X221309047Y-51719430D01*
X221027152Y-51600419D01*
X220772355Y-51492459D01*
X220529731Y-51385292D01*
X220339941Y-51296606D01*
X220218009Y-51233441D01*
X220178958Y-51202842D01*
X220179917Y-51201612D01*
X220245337Y-51178833D01*
X220385532Y-51153426D01*
X220571802Y-51130664D01*
X220588261Y-51129005D01*
X220767417Y-51105644D01*
X220894392Y-51079596D01*
X220942620Y-51056198D01*
X220911252Y-51034501D01*
X220798273Y-50985934D01*
X220623652Y-50920115D01*
X220409176Y-50844357D01*
X220176632Y-50765974D01*
X219947807Y-50692279D01*
X219744487Y-50630585D01*
X219627677Y-50598857D01*
X220863410Y-50598857D01*
X221402212Y-50877144D01*
X221598907Y-50980913D01*
X221783560Y-51083092D01*
X221913978Y-51160787D01*
X221970108Y-51202506D01*
X221970676Y-51215336D01*
X221911820Y-51253210D01*
X221787526Y-51285343D01*
X221736044Y-51295489D01*
X221631264Y-51329573D01*
X221601919Y-51363285D01*
X221606587Y-51368722D01*
X221678148Y-51420695D01*
X221812146Y-51504464D01*
X221983170Y-51605525D01*
X222165811Y-51709374D01*
X222334657Y-51801508D01*
X222464300Y-51867425D01*
X222529328Y-51892620D01*
X222531469Y-51892569D01*
X222592974Y-51853015D01*
X222601044Y-51842241D01*
X222599681Y-51877727D01*
X222595449Y-51923279D01*
X222635208Y-51972883D01*
X222722362Y-51956393D01*
X222833307Y-51874169D01*
X222970392Y-51737084D01*
X222893269Y-51654990D01*
X223002079Y-51654990D01*
X223028483Y-51681393D01*
X223054886Y-51654990D01*
X223028483Y-51628586D01*
X223002079Y-51654990D01*
X222893269Y-51654990D01*
X222845014Y-51603625D01*
X222833901Y-51592021D01*
X222734548Y-51505278D01*
X222662833Y-51469215D01*
X222626131Y-51450945D01*
X222535545Y-51369397D01*
X222425104Y-51244786D01*
X222244179Y-51021310D01*
X222411903Y-51176408D01*
X222461026Y-51219780D01*
X222546005Y-51281704D01*
X222579626Y-51284864D01*
X222592162Y-51280172D01*
X222659089Y-51323617D01*
X222764449Y-51417360D01*
X222832608Y-51478487D01*
X222916507Y-51534570D01*
X222949273Y-51526866D01*
X222949299Y-51522929D01*
X222965937Y-51484012D01*
X223029696Y-51523980D01*
X223090425Y-51556488D01*
X223182145Y-51549416D01*
X223330185Y-51491489D01*
X223499902Y-51436935D01*
X223773698Y-51401391D01*
X224053849Y-51410402D01*
X224289964Y-51465342D01*
X224392588Y-51518766D01*
X224408321Y-51555258D01*
X224343717Y-51562124D01*
X224211448Y-51529079D01*
X223967319Y-51478686D01*
X223659075Y-51484226D01*
X223371513Y-51555623D01*
X223252702Y-51609573D01*
X223204203Y-51654990D01*
X223198954Y-51659905D01*
X223218008Y-51713462D01*
X223257064Y-51747184D01*
X223326211Y-51756097D01*
X223346840Y-51750323D01*
X223356493Y-51784469D01*
X223359833Y-51796283D01*
X223369035Y-51837083D01*
X223450936Y-51845264D01*
X223463367Y-51842923D01*
X223646420Y-51824517D01*
X223866758Y-51821851D01*
X224077017Y-51834024D01*
X224229834Y-51860130D01*
X224331620Y-51878925D01*
X224375052Y-51847657D01*
X224375052Y-51847514D01*
X224326792Y-51798586D01*
X224305484Y-51789655D01*
X224532427Y-51789655D01*
X224562348Y-51885016D01*
X224656261Y-52033038D01*
X224658825Y-52036697D01*
X224778985Y-52276277D01*
X224842052Y-52547776D01*
X224842961Y-52711225D01*
X224843535Y-52814363D01*
X224778943Y-53039204D01*
X224737649Y-53134379D01*
X224733946Y-53233253D01*
X224809001Y-53265593D01*
X224839847Y-53251261D01*
X224899472Y-53159522D01*
X224953676Y-53008336D01*
X224992897Y-52827500D01*
X225007572Y-52646811D01*
X225005127Y-52590544D01*
X224968118Y-52366936D01*
X224901021Y-52161992D01*
X224867110Y-52082964D01*
X224825089Y-51963628D01*
X224818751Y-51906579D01*
X224840818Y-51903057D01*
X224896024Y-51962517D01*
X224960715Y-52086467D01*
X225023222Y-52250722D01*
X225071875Y-52431103D01*
X225077830Y-52460032D01*
X225104910Y-52647130D01*
X225093868Y-52800730D01*
X225041436Y-52979746D01*
X225009044Y-53074759D01*
X224962634Y-53222797D01*
X224939930Y-53312716D01*
X224941618Y-53345159D01*
X224958183Y-53364741D01*
X224996282Y-53409778D01*
X225033766Y-53403867D01*
X225100920Y-53323361D01*
X225166725Y-53174363D01*
X225222070Y-52979470D01*
X225257839Y-52761276D01*
X225258510Y-52525786D01*
X225215478Y-52285126D01*
X225137267Y-52063227D01*
X225033463Y-51874167D01*
X224913653Y-51732022D01*
X224787424Y-51650869D01*
X224664363Y-51644786D01*
X224554056Y-51727849D01*
X224532427Y-51789655D01*
X224305484Y-51789655D01*
X224200495Y-51745650D01*
X224022860Y-51697584D01*
X223820583Y-51663267D01*
X223812538Y-51662304D01*
X223731559Y-51650273D01*
X223746373Y-51642730D01*
X223861884Y-51636499D01*
X223866833Y-51636327D01*
X224059440Y-51653783D01*
X224243439Y-51704562D01*
X224280601Y-51719922D01*
X224387316Y-51752242D01*
X224455647Y-51726390D01*
X224532180Y-51630402D01*
X224592706Y-51543673D01*
X224628602Y-51464281D01*
X224592925Y-51415532D01*
X224478972Y-51363852D01*
X224464013Y-51357512D01*
X224368470Y-51307493D01*
X224341839Y-51274551D01*
X224357241Y-51272467D01*
X224443704Y-51298841D01*
X224574414Y-51358500D01*
X224784010Y-51465428D01*
X224915969Y-51279964D01*
X224919644Y-51274808D01*
X225003171Y-51168245D01*
X225051524Y-51141878D01*
X225082827Y-51185441D01*
X225091042Y-51204410D01*
X225126019Y-51233111D01*
X225188750Y-51200796D01*
X225300858Y-51098882D01*
X225335345Y-51066020D01*
X225436855Y-50980248D01*
X225475983Y-50967257D01*
X225455222Y-51018940D01*
X225377062Y-51127189D01*
X225243996Y-51283897D01*
X225190763Y-51342406D01*
X225083100Y-51449331D01*
X225025690Y-51481037D01*
X225008732Y-51444203D01*
X225007863Y-51406489D01*
X224989349Y-51371908D01*
X224927105Y-51423549D01*
X224890758Y-51470710D01*
X224887465Y-51532145D01*
X224931703Y-51626899D01*
X225030994Y-51780852D01*
X225193781Y-52063107D01*
X225294184Y-52362002D01*
X225309141Y-52525786D01*
X225323655Y-52684719D01*
X225312906Y-52805325D01*
X225273210Y-52988606D01*
X225213808Y-53175503D01*
X225144840Y-53339230D01*
X225076448Y-53452998D01*
X225018773Y-53490021D01*
X225005022Y-53487375D01*
X224958614Y-53493848D01*
X225006136Y-53544740D01*
X225146519Y-53638806D01*
X225155409Y-53644316D01*
X225264299Y-53719493D01*
X225291744Y-53766835D01*
X225249626Y-53805559D01*
X225223481Y-53822868D01*
X225205101Y-53866499D01*
X225244129Y-53938546D01*
X225349469Y-54061871D01*
X225409158Y-54129526D01*
X225502103Y-54246529D01*
X225531401Y-54303922D01*
X225495183Y-54294996D01*
X225391580Y-54213042D01*
X225339893Y-54167751D01*
X225165831Y-54013237D01*
X225057773Y-53911250D01*
X225004105Y-53848818D01*
X224993213Y-53812967D01*
X225013481Y-53790724D01*
X225021044Y-53784134D01*
X225006450Y-53726252D01*
X224908614Y-53639152D01*
X224745931Y-53523311D01*
X224573693Y-53652356D01*
X224546898Y-53671849D01*
X224402791Y-53762134D01*
X224391674Y-53767256D01*
X224282641Y-53817492D01*
X224207912Y-53851595D01*
X224163826Y-53904488D01*
X224164674Y-53916734D01*
X224196101Y-53952079D01*
X224216974Y-53975554D01*
X224333171Y-53979512D01*
X224489101Y-53926940D01*
X224502882Y-53920264D01*
X224602087Y-53874411D01*
X224617828Y-53876197D01*
X224559876Y-53925413D01*
X224473112Y-53981474D01*
X224333834Y-54039712D01*
X224258856Y-54074760D01*
X224239499Y-54150681D01*
X224238083Y-54156234D01*
X224250134Y-54201393D01*
X224264375Y-54256294D01*
X224277467Y-54306766D01*
X224286284Y-54340757D01*
X224309350Y-54430456D01*
X224341719Y-54556336D01*
X224357545Y-54618143D01*
X224412582Y-54833081D01*
X224495013Y-55155943D01*
X224517827Y-55245519D01*
X224572622Y-55460665D01*
X224585155Y-55509875D01*
X224597061Y-55556609D01*
X224651848Y-55771666D01*
X224737282Y-56105830D01*
X224810195Y-56389714D01*
X224812470Y-56398573D01*
X224850024Y-56543883D01*
X224873484Y-56634657D01*
X224916396Y-56798844D01*
X224937279Y-56875894D01*
X224944817Y-56938743D01*
X224896915Y-56951189D01*
X224845465Y-56906955D01*
X224796724Y-56799723D01*
X224783466Y-56754096D01*
X224749574Y-56707711D01*
X224678419Y-56680646D01*
X224547223Y-56665854D01*
X224333209Y-56656284D01*
X223899792Y-56640947D01*
X223899792Y-56847709D01*
X223899717Y-56862076D01*
X223889344Y-57050549D01*
X223866788Y-57219491D01*
X223834204Y-57382411D01*
X223833784Y-57384512D01*
X226117672Y-57384512D01*
X226117702Y-53965281D01*
X226117731Y-50546050D01*
X224071444Y-50559647D01*
X224070961Y-50559651D01*
X223587897Y-50563098D01*
X223113978Y-50566923D01*
X222665282Y-50570964D01*
X222257887Y-50575058D01*
X221907870Y-50579045D01*
X221631310Y-50582763D01*
X221444283Y-50586051D01*
X220863410Y-50598857D01*
X219627677Y-50598857D01*
X219588461Y-50588205D01*
X219501513Y-50572453D01*
X219501443Y-50572453D01*
X219483370Y-50577819D01*
X219467875Y-50598855D01*
X219454761Y-50643057D01*
X219443830Y-50717918D01*
X219434887Y-50830936D01*
X219430929Y-50918718D01*
X219427733Y-50989604D01*
X219422172Y-51201419D01*
X219418007Y-51473875D01*
X219417623Y-51517934D01*
X219415041Y-51814468D01*
X219413077Y-52230694D01*
X219411918Y-52730046D01*
X219411768Y-52890907D01*
X219411706Y-52957262D01*
X219411367Y-53320021D01*
X219411227Y-54008114D01*
X219411227Y-57443774D01*
X210698129Y-57443774D01*
X210698129Y-57384512D01*
X212071102Y-57384512D01*
X215424325Y-57384512D01*
X216108221Y-57384282D01*
X216694558Y-57383474D01*
X217190053Y-57381916D01*
X217602096Y-57379431D01*
X217938076Y-57375847D01*
X218205382Y-57370988D01*
X218411402Y-57364679D01*
X218563527Y-57356748D01*
X218669145Y-57347019D01*
X218735645Y-57335318D01*
X218770416Y-57321470D01*
X218780848Y-57305302D01*
X218782095Y-57253730D01*
X218783572Y-57112923D01*
X218784148Y-56935655D01*
X218784069Y-56839749D01*
X218783758Y-56636953D01*
X218783245Y-56360748D01*
X218782565Y-56029191D01*
X218781754Y-55660338D01*
X218780848Y-55272245D01*
X218777547Y-53899273D01*
X212071102Y-53899273D01*
X212071102Y-57384512D01*
X210698129Y-57384512D01*
X210698129Y-53608836D01*
X214024948Y-53608836D01*
X214044551Y-53655027D01*
X214130562Y-53688046D01*
X214192150Y-53673344D01*
X214236175Y-53608836D01*
X214216573Y-53562644D01*
X214130562Y-53529626D01*
X214068973Y-53544328D01*
X214024948Y-53608836D01*
X210698129Y-53608836D01*
X210698129Y-53426707D01*
X214341788Y-53426707D01*
X214342588Y-53451466D01*
X214379020Y-53562788D01*
X214443326Y-53608836D01*
X214479236Y-53634550D01*
X214656392Y-53672538D01*
X214923645Y-53682535D01*
X215040691Y-53681277D01*
X215211040Y-53673405D01*
X215317206Y-53652082D01*
X215386855Y-53609713D01*
X215447654Y-53538704D01*
X215552996Y-53397609D01*
X215554668Y-53542828D01*
X215556833Y-53588581D01*
X215590701Y-53668468D01*
X215688358Y-53688046D01*
X215864568Y-53688046D01*
X216015909Y-53688046D01*
X216051860Y-53686455D01*
X216169904Y-53641398D01*
X216271047Y-53516424D01*
X216374844Y-53344803D01*
X216391392Y-53516424D01*
X216402256Y-53592254D01*
X216444307Y-53669197D01*
X216536610Y-53688046D01*
X216580689Y-53686547D01*
X216628431Y-53668120D01*
X216653673Y-53610575D01*
X216663572Y-53491748D01*
X216665183Y-53301110D01*
X216770979Y-53301110D01*
X216796186Y-53475509D01*
X216867464Y-53600652D01*
X216998514Y-53666402D01*
X217176059Y-53687961D01*
X217350458Y-53662754D01*
X217475600Y-53591476D01*
X217541350Y-53460426D01*
X217562910Y-53282882D01*
X217537703Y-53108483D01*
X217466424Y-52983340D01*
X217340626Y-52920225D01*
X217676479Y-52920225D01*
X217686480Y-53010122D01*
X217701397Y-53069077D01*
X217739339Y-53227554D01*
X217752057Y-53282882D01*
X217781465Y-53410811D01*
X217807737Y-53520258D01*
X217848146Y-53630550D01*
X217902056Y-53677941D01*
X217988605Y-53688046D01*
X218074659Y-53677930D01*
X218138345Y-53621836D01*
X218183336Y-53490021D01*
X218233296Y-53291996D01*
X218284045Y-53476819D01*
X218303603Y-53538968D01*
X218367845Y-53640293D01*
X218474056Y-53678072D01*
X218498515Y-53680537D01*
X218578431Y-53670749D01*
X218628393Y-53608041D01*
X218672410Y-53466845D01*
X218683187Y-53425362D01*
X218733383Y-53232789D01*
X218776671Y-53067568D01*
X218799739Y-52957262D01*
X218779795Y-52906146D01*
X218699730Y-52895946D01*
X218629623Y-52907533D01*
X218542278Y-52994169D01*
X218513514Y-53167415D01*
X218504352Y-53231819D01*
X218470901Y-53242666D01*
X218427466Y-53179185D01*
X218389638Y-53055465D01*
X218380193Y-53014551D01*
X218328757Y-52920849D01*
X218229643Y-52895946D01*
X218164787Y-52903936D01*
X218098686Y-52960105D01*
X218051592Y-53093971D01*
X218001632Y-53291996D01*
X217950813Y-53107173D01*
X217944172Y-53084258D01*
X217878587Y-52954813D01*
X217776929Y-52904509D01*
X217732609Y-52899674D01*
X217676479Y-52920225D01*
X217340626Y-52920225D01*
X217335374Y-52917590D01*
X217157830Y-52896031D01*
X216983431Y-52921238D01*
X216858289Y-52992516D01*
X216792539Y-53123566D01*
X216770979Y-53301110D01*
X216665183Y-53301110D01*
X216665281Y-53289476D01*
X216665281Y-52890907D01*
X216335239Y-52906628D01*
X216293081Y-52908679D01*
X216130051Y-52920678D01*
X216041956Y-52943983D01*
X216003120Y-52990967D01*
X215987868Y-53074001D01*
X215990985Y-53191961D01*
X216026101Y-53281215D01*
X216032913Y-53289091D01*
X216033188Y-53291996D01*
X216040833Y-53372678D01*
X215973115Y-53512412D01*
X215864568Y-53688046D01*
X215688358Y-53688046D01*
X215734727Y-53686590D01*
X215783321Y-53668494D01*
X215808850Y-53611527D01*
X215818729Y-53493444D01*
X215820375Y-53291996D01*
X215819889Y-53152890D01*
X215813857Y-53007107D01*
X215794868Y-52930520D01*
X215755507Y-52900882D01*
X215688358Y-52895946D01*
X215646743Y-52897747D01*
X215573702Y-52933989D01*
X215554668Y-53041164D01*
X215552996Y-53186383D01*
X215444651Y-53041164D01*
X215342901Y-52942992D01*
X215208694Y-52895946D01*
X215146997Y-52898891D01*
X215090551Y-52926033D01*
X215114327Y-52992941D01*
X215218973Y-53113305D01*
X215356865Y-53257233D01*
X215205772Y-53455945D01*
X215153315Y-53523916D01*
X215086137Y-53598623D01*
X215053457Y-53600141D01*
X215037503Y-53537037D01*
X215024034Y-53481293D01*
X214982561Y-53446570D01*
X214892556Y-53458094D01*
X214729978Y-53514069D01*
X214707596Y-53518759D01*
X214637931Y-53486052D01*
X214657661Y-53439979D01*
X214751109Y-53398997D01*
X214870627Y-53359594D01*
X214990945Y-53269563D01*
X215028275Y-53137671D01*
X215026358Y-53098351D01*
X214978348Y-52980609D01*
X214856414Y-52915788D01*
X214648067Y-52895946D01*
X214589475Y-52896371D01*
X214463341Y-52906766D01*
X214407314Y-52940074D01*
X214394595Y-53008160D01*
X214399134Y-53061296D01*
X214440534Y-53100334D01*
X214550967Y-53089100D01*
X214659786Y-53079405D01*
X214729617Y-53100910D01*
X214720200Y-53142022D01*
X214677893Y-53159979D01*
X214618954Y-53184995D01*
X214525275Y-53214030D01*
X214386748Y-53302293D01*
X214341788Y-53426707D01*
X210698129Y-53426707D01*
X210698129Y-53159979D01*
X214024948Y-53159979D01*
X214025400Y-53221050D01*
X214035621Y-53351108D01*
X214067214Y-53410112D01*
X214130562Y-53424013D01*
X214154990Y-53422883D01*
X214207013Y-53397332D01*
X214230615Y-53318348D01*
X214236175Y-53159979D01*
X214235723Y-53098909D01*
X214225503Y-52968851D01*
X214193909Y-52909847D01*
X214130562Y-52895946D01*
X214106134Y-52897076D01*
X214054110Y-52922627D01*
X214030509Y-53001611D01*
X214024948Y-53159979D01*
X210698129Y-53159979D01*
X210698129Y-51928137D01*
X214817133Y-51928137D01*
X214842340Y-52102536D01*
X214913618Y-52227679D01*
X215044668Y-52293429D01*
X215222212Y-52314988D01*
X215396612Y-52289781D01*
X215491275Y-52235863D01*
X215714761Y-52235863D01*
X215724424Y-52269459D01*
X215795766Y-52304707D01*
X215952391Y-52315073D01*
X216053180Y-52311852D01*
X216158922Y-52288071D01*
X216190021Y-52235863D01*
X216184064Y-52199424D01*
X216137215Y-52156653D01*
X216121433Y-52145749D01*
X216094896Y-52060740D01*
X216084408Y-51919023D01*
X216295634Y-51919023D01*
X216295636Y-51919534D01*
X216327941Y-52043439D01*
X216405081Y-52175935D01*
X216430553Y-52206829D01*
X216465093Y-52235863D01*
X216512751Y-52275923D01*
X216623527Y-52307525D01*
X216801130Y-52315073D01*
X217087734Y-52315073D01*
X217149879Y-52315073D01*
X217278884Y-52315073D01*
X217367736Y-52296947D01*
X217438285Y-52235863D01*
X217485535Y-52186148D01*
X217595047Y-52156653D01*
X217675825Y-52171968D01*
X217721414Y-52235863D01*
X217742879Y-52280716D01*
X217829207Y-52307422D01*
X218000465Y-52315073D01*
X218114044Y-52313300D01*
X218235661Y-52295518D01*
X218312838Y-52244541D01*
X218383313Y-52143451D01*
X218487111Y-51971830D01*
X218503658Y-52143451D01*
X218514522Y-52219281D01*
X218556573Y-52296224D01*
X218648876Y-52315073D01*
X218692955Y-52313574D01*
X218740697Y-52295147D01*
X218765939Y-52237602D01*
X218775838Y-52118775D01*
X218777547Y-51916503D01*
X218777547Y-51517934D01*
X218447506Y-51533655D01*
X218410568Y-51535449D01*
X218245269Y-51547438D01*
X218155583Y-51570403D01*
X218115859Y-51616476D01*
X218100447Y-51697788D01*
X218103024Y-51813730D01*
X218137597Y-51911468D01*
X218139002Y-51913198D01*
X218155088Y-51998749D01*
X218091266Y-52129936D01*
X217990768Y-52283137D01*
X217933107Y-52127483D01*
X217916117Y-52081613D01*
X217826952Y-51842884D01*
X217763425Y-51684183D01*
X217715703Y-51589188D01*
X217673951Y-51541578D01*
X217628335Y-51525032D01*
X217569022Y-51523229D01*
X217542182Y-51524106D01*
X217476183Y-51542771D01*
X217421758Y-51601300D01*
X217364607Y-51720026D01*
X217290428Y-51919279D01*
X217149879Y-52315073D01*
X217087734Y-52315073D01*
X217087734Y-51522973D01*
X216801130Y-51522973D01*
X216737045Y-51523541D01*
X216584087Y-51537062D01*
X216486182Y-51578772D01*
X216405081Y-51662111D01*
X216404607Y-51662715D01*
X216327628Y-51795340D01*
X216295634Y-51919023D01*
X216084408Y-51919023D01*
X216086831Y-51848007D01*
X216105722Y-51728591D01*
X216137215Y-51681393D01*
X216161507Y-51672457D01*
X216190021Y-51602183D01*
X216180359Y-51568587D01*
X216109016Y-51533339D01*
X215952391Y-51522973D01*
X215851603Y-51526194D01*
X215745860Y-51549975D01*
X215714761Y-51602183D01*
X215720719Y-51638622D01*
X215767568Y-51681393D01*
X215783349Y-51692297D01*
X215809886Y-51777306D01*
X215819700Y-51909909D01*
X215820375Y-51919023D01*
X215817952Y-51990039D01*
X215799061Y-52109455D01*
X215767568Y-52156653D01*
X215743275Y-52165589D01*
X215714761Y-52235863D01*
X215491275Y-52235863D01*
X215521754Y-52218503D01*
X215587504Y-52087453D01*
X215609064Y-51909909D01*
X215583857Y-51735510D01*
X215512578Y-51610367D01*
X215381528Y-51544617D01*
X215203984Y-51523058D01*
X215029585Y-51548265D01*
X214904443Y-51619543D01*
X214838693Y-51750593D01*
X214817133Y-51928137D01*
X210698129Y-51928137D01*
X210698129Y-50942100D01*
X212960202Y-50942100D01*
X213111543Y-50942100D01*
X213147495Y-50940509D01*
X213265538Y-50895452D01*
X213366681Y-50770478D01*
X213470479Y-50598857D01*
X213487026Y-50770478D01*
X213497890Y-50846308D01*
X213539941Y-50923251D01*
X213632244Y-50942100D01*
X213676323Y-50940601D01*
X213724065Y-50922175D01*
X213749307Y-50864629D01*
X213759206Y-50745802D01*
X213760915Y-50543530D01*
X213760915Y-50463068D01*
X213866528Y-50463068D01*
X213867854Y-50541791D01*
X213892385Y-50744432D01*
X213949510Y-50859118D01*
X213958082Y-50866867D01*
X214076227Y-50920622D01*
X214236953Y-50942100D01*
X214384824Y-50922594D01*
X214512501Y-50837914D01*
X214583716Y-50676689D01*
X214605822Y-50428687D01*
X214604080Y-50300739D01*
X214594038Y-50229210D01*
X214711435Y-50229210D01*
X214711769Y-50236424D01*
X214759560Y-50291244D01*
X214896258Y-50308420D01*
X214913091Y-50308563D01*
X215041003Y-50329045D01*
X215081081Y-50387630D01*
X215056969Y-50428687D01*
X215048432Y-50443224D01*
X214922662Y-50466840D01*
X214811473Y-50483165D01*
X214764242Y-50546050D01*
X214796891Y-50601644D01*
X214922662Y-50625260D01*
X215033850Y-50641585D01*
X215081081Y-50704470D01*
X215080747Y-50711684D01*
X215032957Y-50766503D01*
X214896258Y-50783680D01*
X214879425Y-50783823D01*
X214751514Y-50804305D01*
X214711435Y-50862890D01*
X214712060Y-50872434D01*
X214745525Y-50914452D01*
X214844300Y-50936017D01*
X215028275Y-50942100D01*
X215345115Y-50942100D01*
X215345115Y-50229210D01*
X215397921Y-50229210D01*
X215423760Y-50280877D01*
X215529938Y-50308420D01*
X215534565Y-50308427D01*
X215605798Y-50316046D01*
X215643885Y-50354859D01*
X215659159Y-50449663D01*
X215661955Y-50625260D01*
X215661958Y-50636366D01*
X215665132Y-50807324D01*
X215681304Y-50898732D01*
X215720806Y-50935391D01*
X215793971Y-50942100D01*
X216146552Y-50942100D01*
X216275557Y-50942100D01*
X216364410Y-50923974D01*
X216434958Y-50862890D01*
X216482208Y-50813175D01*
X216591721Y-50783680D01*
X216672499Y-50798995D01*
X216718088Y-50862890D01*
X216743926Y-50914557D01*
X216850104Y-50942100D01*
X216936799Y-50936315D01*
X216982121Y-50918718D01*
X216981604Y-50915297D01*
X216959195Y-50844007D01*
X216910282Y-50704411D01*
X216852515Y-50546050D01*
X217034928Y-50546050D01*
X217035413Y-50685156D01*
X217041445Y-50830939D01*
X217060434Y-50907526D01*
X217075298Y-50918718D01*
X217099795Y-50937164D01*
X217166944Y-50942100D01*
X217251511Y-50930645D01*
X217290996Y-50874768D01*
X217300567Y-50744075D01*
X217304659Y-50638591D01*
X217321082Y-50596779D01*
X217355997Y-50638462D01*
X217401846Y-50689130D01*
X217508939Y-50730873D01*
X217566410Y-50716091D01*
X217632206Y-50638462D01*
X217638325Y-50621849D01*
X217653502Y-50641606D01*
X217662482Y-50744075D01*
X217673814Y-50868662D01*
X217712936Y-50928792D01*
X217800624Y-50942100D01*
X217994785Y-50942100D01*
X218123790Y-50942100D01*
X218212643Y-50923974D01*
X218283191Y-50862890D01*
X218330441Y-50813175D01*
X218439954Y-50783680D01*
X218520732Y-50798995D01*
X218566321Y-50862890D01*
X218592159Y-50914557D01*
X218698337Y-50942100D01*
X218785032Y-50936315D01*
X218830354Y-50918718D01*
X218829837Y-50915297D01*
X218807428Y-50844007D01*
X218758515Y-50704411D01*
X218692219Y-50522668D01*
X218677045Y-50481966D01*
X218606072Y-50305567D01*
X218549046Y-50205328D01*
X218490503Y-50160480D01*
X218414984Y-50150256D01*
X218386815Y-50151192D01*
X218320799Y-50169957D01*
X218266460Y-50228497D01*
X218209428Y-50347163D01*
X218135429Y-50546050D01*
X218135334Y-50546306D01*
X217994785Y-50942100D01*
X217800624Y-50942100D01*
X217846993Y-50940644D01*
X217895587Y-50922548D01*
X217921116Y-50865582D01*
X217930995Y-50747498D01*
X217932641Y-50546050D01*
X217932641Y-50150000D01*
X217780627Y-50150000D01*
X217729465Y-50152719D01*
X217630405Y-50196613D01*
X217559561Y-50316708D01*
X217490509Y-50483415D01*
X217411558Y-50316708D01*
X217389163Y-50272886D01*
X217304634Y-50176225D01*
X217183767Y-50150000D01*
X217034928Y-50150000D01*
X217034928Y-50546050D01*
X216852515Y-50546050D01*
X216843986Y-50522668D01*
X216828812Y-50481966D01*
X216757840Y-50305567D01*
X216700813Y-50205328D01*
X216642270Y-50160480D01*
X216566751Y-50150256D01*
X216538583Y-50151192D01*
X216472566Y-50169957D01*
X216418227Y-50228497D01*
X216417884Y-50229210D01*
X216361196Y-50347163D01*
X216287102Y-50546306D01*
X216146552Y-50942100D01*
X215793971Y-50942100D01*
X215798599Y-50942093D01*
X215869831Y-50934474D01*
X215907918Y-50895661D01*
X215923193Y-50800857D01*
X215925988Y-50625260D01*
X215927930Y-50484926D01*
X215940740Y-50370765D01*
X215972614Y-50319981D01*
X216031601Y-50308420D01*
X216093190Y-50293718D01*
X216137215Y-50229210D01*
X216131825Y-50204412D01*
X216083347Y-50171408D01*
X215968403Y-50154658D01*
X215767568Y-50150000D01*
X215651843Y-50151155D01*
X215497826Y-50161543D01*
X215419660Y-50186174D01*
X215397921Y-50229210D01*
X215345115Y-50229210D01*
X215345115Y-50150000D01*
X215028275Y-50150000D01*
X214990099Y-50150156D01*
X214822026Y-50158523D01*
X214735768Y-50183216D01*
X214711435Y-50229210D01*
X214594038Y-50229210D01*
X214589858Y-50199431D01*
X214550593Y-50157967D01*
X214473805Y-50150000D01*
X214410352Y-50154223D01*
X214364200Y-50185650D01*
X214345376Y-50270477D01*
X214341788Y-50434787D01*
X214339945Y-50522216D01*
X214317430Y-50680674D01*
X214267741Y-50747989D01*
X214208096Y-50761091D01*
X214160126Y-50728198D01*
X214136729Y-50624024D01*
X214130562Y-50431636D01*
X214128717Y-50299355D01*
X214114325Y-50198901D01*
X214075031Y-50157856D01*
X213998545Y-50150000D01*
X213996669Y-50150001D01*
X213923956Y-50157181D01*
X213885040Y-50195124D01*
X213869403Y-50288772D01*
X213866528Y-50463068D01*
X213760915Y-50463068D01*
X213760915Y-50144961D01*
X213430874Y-50160682D01*
X213388716Y-50162733D01*
X213225685Y-50174732D01*
X213137590Y-50198037D01*
X213098754Y-50245021D01*
X213083502Y-50328055D01*
X213086619Y-50446015D01*
X213121735Y-50535269D01*
X213128547Y-50543145D01*
X213136468Y-50626732D01*
X213068750Y-50766466D01*
X212960202Y-50942100D01*
X210698129Y-50942100D01*
X210698129Y-44607546D01*
X212002137Y-44607546D01*
X212002535Y-45077433D01*
X212003650Y-45594358D01*
X212005488Y-46148683D01*
X212008058Y-46730769D01*
X212024224Y-49991580D01*
X218772508Y-49991580D01*
X218788229Y-49661539D01*
X218790391Y-49579149D01*
X218792540Y-49389355D01*
X218794069Y-49112989D01*
X218794972Y-48760628D01*
X218795244Y-48342849D01*
X218794880Y-47870230D01*
X218793875Y-47353348D01*
X218792224Y-46802781D01*
X218791352Y-46585551D01*
X219503662Y-46585551D01*
X219503886Y-46596043D01*
X219532151Y-46752639D01*
X219601232Y-46972714D01*
X219701800Y-47229761D01*
X219824526Y-47497274D01*
X219886683Y-47626918D01*
X220000551Y-47879154D01*
X220098196Y-48111507D01*
X220153137Y-48242887D01*
X220198851Y-48342849D01*
X220265228Y-48487993D01*
X220374456Y-48704582D01*
X220447109Y-48832552D01*
X220525877Y-48956524D01*
X220575176Y-49016018D01*
X220600348Y-48998136D01*
X220607104Y-48988254D01*
X221048233Y-48988254D01*
X221076727Y-49069114D01*
X221180250Y-49093867D01*
X221281326Y-49071072D01*
X221312267Y-48988254D01*
X221470686Y-48988254D01*
X221499181Y-49069114D01*
X221602703Y-49093867D01*
X221703779Y-49071072D01*
X221734720Y-48988254D01*
X221893140Y-48988254D01*
X221921634Y-49069114D01*
X222025156Y-49093867D01*
X222126232Y-49071072D01*
X222157173Y-48988254D01*
X222128679Y-48907393D01*
X222025156Y-48882640D01*
X221924081Y-48905436D01*
X221893140Y-48988254D01*
X221734720Y-48988254D01*
X221706226Y-48907393D01*
X221602703Y-48882640D01*
X221501627Y-48905436D01*
X221470686Y-48988254D01*
X221312267Y-48988254D01*
X221283772Y-48907393D01*
X221180250Y-48882640D01*
X221079174Y-48905436D01*
X221048233Y-48988254D01*
X220607104Y-48988254D01*
X220662803Y-48906784D01*
X220747833Y-48759492D01*
X220758674Y-48739107D01*
X222270271Y-48739107D01*
X222279967Y-48880923D01*
X222347836Y-48988254D01*
X222359356Y-49006473D01*
X222496624Y-49070921D01*
X222720201Y-49093867D01*
X222867457Y-49090313D01*
X222986956Y-49068636D01*
X223041746Y-49016816D01*
X223042049Y-49014657D01*
X223107693Y-49014657D01*
X223110206Y-49032634D01*
X223151397Y-49069684D01*
X223258406Y-49088579D01*
X223450936Y-49093867D01*
X223794179Y-49093867D01*
X223794179Y-49014657D01*
X223952599Y-49014657D01*
X223977710Y-49061803D01*
X224067885Y-49086756D01*
X224243036Y-49093867D01*
X224415903Y-49087019D01*
X224493868Y-49066062D01*
X224595156Y-49066062D01*
X224629429Y-49091453D01*
X224723239Y-49093867D01*
X224819160Y-49075670D01*
X224887818Y-48988254D01*
X224937568Y-48911893D01*
X225064139Y-48882640D01*
X225173819Y-48902367D01*
X225246362Y-48988254D01*
X225287509Y-49053272D01*
X225408341Y-49093867D01*
X225491563Y-49089995D01*
X225536799Y-49077718D01*
X225534439Y-49068402D01*
X225506459Y-48984667D01*
X225453582Y-48834553D01*
X225384216Y-48642063D01*
X225334394Y-48507464D01*
X225269510Y-48352066D01*
X225221355Y-48275364D01*
X225536799Y-48275364D01*
X225540632Y-48298136D01*
X225601153Y-48341494D01*
X225748025Y-48354574D01*
X225808751Y-48356012D01*
X225924373Y-48378707D01*
X225959252Y-48433784D01*
X225958918Y-48440998D01*
X225911127Y-48495817D01*
X225774429Y-48512994D01*
X225757596Y-48513137D01*
X225629684Y-48533619D01*
X225589605Y-48592204D01*
X225589939Y-48599418D01*
X225637730Y-48654237D01*
X225774429Y-48671414D01*
X225828966Y-48671886D01*
X225919109Y-48687298D01*
X225953657Y-48747400D01*
X225959252Y-48882640D01*
X225959299Y-48901035D01*
X225968408Y-49027957D01*
X226003001Y-49077718D01*
X226006213Y-49082338D01*
X226091269Y-49093867D01*
X226154692Y-49089862D01*
X226193926Y-49063884D01*
X226214337Y-48995022D01*
X226222073Y-48862368D01*
X226223285Y-48645011D01*
X226223285Y-48196154D01*
X225880042Y-48196154D01*
X225802143Y-48196734D01*
X225641594Y-48206240D01*
X225559714Y-48230934D01*
X225536799Y-48275364D01*
X225221355Y-48275364D01*
X225214133Y-48263860D01*
X225153505Y-48222194D01*
X225072865Y-48206419D01*
X225011429Y-48202614D01*
X224936762Y-48221840D01*
X224881657Y-48294375D01*
X224820840Y-48444049D01*
X224792802Y-48519811D01*
X224719134Y-48715239D01*
X224656931Y-48875888D01*
X224612139Y-48990468D01*
X224606705Y-49014657D01*
X224595156Y-49066062D01*
X224493868Y-49066062D01*
X224507398Y-49062425D01*
X224533472Y-49014657D01*
X224524272Y-48977717D01*
X224454262Y-48935447D01*
X224407117Y-48910336D01*
X224382164Y-48820161D01*
X224375052Y-48645011D01*
X224381901Y-48472144D01*
X224406494Y-48380649D01*
X224454262Y-48354574D01*
X224491202Y-48345373D01*
X224533472Y-48275364D01*
X224508361Y-48228218D01*
X224418186Y-48203265D01*
X224243036Y-48196154D01*
X224070169Y-48203003D01*
X223978674Y-48227596D01*
X223952599Y-48275364D01*
X223961800Y-48312304D01*
X224031809Y-48354574D01*
X224078955Y-48379685D01*
X224103908Y-48469860D01*
X224111019Y-48645011D01*
X224104171Y-48817878D01*
X224079577Y-48909372D01*
X224031809Y-48935447D01*
X223994869Y-48944648D01*
X223952599Y-49014657D01*
X223794179Y-49014657D01*
X223794179Y-48645011D01*
X223793001Y-48429372D01*
X223785361Y-48295974D01*
X223765107Y-48226579D01*
X223726091Y-48200275D01*
X223662163Y-48196154D01*
X223626960Y-48196827D01*
X223572275Y-48211207D01*
X223543391Y-48262154D01*
X223532087Y-48372680D01*
X223530146Y-48565801D01*
X223530146Y-48935447D01*
X223318919Y-48935447D01*
X223258193Y-48936885D01*
X223142572Y-48959580D01*
X223107693Y-49014657D01*
X223042049Y-49014657D01*
X223054886Y-48923088D01*
X223038320Y-48857933D01*
X222962474Y-48848489D01*
X222901224Y-48865561D01*
X222764449Y-48903648D01*
X222691093Y-48910663D01*
X222600263Y-48892124D01*
X222545316Y-48856135D01*
X222560787Y-48817332D01*
X222637412Y-48788589D01*
X222764154Y-48753679D01*
X222907482Y-48706757D01*
X223020473Y-48618188D01*
X223054886Y-48488309D01*
X223050801Y-48436896D01*
X222979990Y-48300569D01*
X222826769Y-48222181D01*
X222598422Y-48206234D01*
X222558447Y-48209002D01*
X222418876Y-48228372D01*
X222350587Y-48267805D01*
X222325122Y-48341372D01*
X222320550Y-48375652D01*
X222323675Y-48443177D01*
X222373873Y-48450916D01*
X222496520Y-48408862D01*
X222561554Y-48390401D01*
X222676950Y-48384095D01*
X222756139Y-48409030D01*
X222765245Y-48458900D01*
X222764172Y-48460465D01*
X222695885Y-48498253D01*
X222572556Y-48532890D01*
X222434607Y-48573374D01*
X222333827Y-48625387D01*
X222333271Y-48625851D01*
X222270271Y-48739107D01*
X220758674Y-48739107D01*
X220843706Y-48579211D01*
X220938694Y-48388890D01*
X221021066Y-48211480D01*
X221079091Y-48069929D01*
X221101040Y-47987189D01*
X221114817Y-47940435D01*
X221167061Y-47813468D01*
X221249175Y-47631458D01*
X221319696Y-47483264D01*
X223054886Y-47483264D01*
X223057399Y-47501241D01*
X223098590Y-47538291D01*
X223205599Y-47557186D01*
X223398129Y-47562474D01*
X223741373Y-47562474D01*
X223741373Y-47207715D01*
X223854471Y-47207715D01*
X223864166Y-47349530D01*
X223943556Y-47475080D01*
X224080824Y-47539528D01*
X224304401Y-47562474D01*
X224451657Y-47558920D01*
X224571155Y-47537243D01*
X224625946Y-47485423D01*
X224626249Y-47483264D01*
X224691892Y-47483264D01*
X224694406Y-47501241D01*
X224735596Y-47538291D01*
X224842605Y-47557186D01*
X225035136Y-47562474D01*
X226223285Y-47562474D01*
X226223285Y-46664761D01*
X225880042Y-46664761D01*
X225802143Y-46665341D01*
X225641594Y-46674847D01*
X225559714Y-46699541D01*
X225536799Y-46743971D01*
X225540632Y-46766743D01*
X225601153Y-46810101D01*
X225748025Y-46823181D01*
X225808751Y-46824619D01*
X225924373Y-46847314D01*
X225959252Y-46902391D01*
X225958918Y-46909605D01*
X225911127Y-46964424D01*
X225774429Y-46981601D01*
X225757596Y-46981744D01*
X225629684Y-47002226D01*
X225589605Y-47060811D01*
X225589939Y-47068025D01*
X225637730Y-47122844D01*
X225774429Y-47140021D01*
X225883303Y-47146212D01*
X225945443Y-47182760D01*
X225959252Y-47272038D01*
X225959177Y-47283534D01*
X225944602Y-47362861D01*
X225884115Y-47396849D01*
X225748025Y-47404054D01*
X225687299Y-47405492D01*
X225571678Y-47428187D01*
X225536799Y-47483264D01*
X225539312Y-47501241D01*
X225580503Y-47538291D01*
X225687512Y-47557186D01*
X225880042Y-47562474D01*
X225378379Y-47562474D01*
X225378379Y-47113618D01*
X225377201Y-46897979D01*
X225369560Y-46764581D01*
X225349307Y-46695186D01*
X225310291Y-46668882D01*
X225246362Y-46664761D01*
X225211160Y-46665434D01*
X225156475Y-46679814D01*
X225127590Y-46730761D01*
X225116287Y-46841287D01*
X225114346Y-47034408D01*
X225114346Y-47404054D01*
X224903119Y-47404054D01*
X224842393Y-47405492D01*
X224726772Y-47428187D01*
X224691892Y-47483264D01*
X224626249Y-47483264D01*
X224639086Y-47391695D01*
X224622520Y-47326540D01*
X224546674Y-47317096D01*
X224485423Y-47334168D01*
X224348649Y-47372255D01*
X224275293Y-47379271D01*
X224184462Y-47360731D01*
X224129516Y-47324742D01*
X224144986Y-47285939D01*
X224221612Y-47257196D01*
X224348354Y-47222287D01*
X224491682Y-47175364D01*
X224604672Y-47086795D01*
X224639086Y-46956916D01*
X224635001Y-46905503D01*
X224564190Y-46769176D01*
X224410969Y-46690788D01*
X224182622Y-46674841D01*
X224142647Y-46677610D01*
X224003076Y-46696979D01*
X223934786Y-46736412D01*
X223909321Y-46809979D01*
X223904750Y-46844259D01*
X223907875Y-46911784D01*
X223958072Y-46919523D01*
X224080720Y-46877469D01*
X224145754Y-46859008D01*
X224261150Y-46852702D01*
X224340339Y-46877637D01*
X224349445Y-46927507D01*
X224348371Y-46929072D01*
X224280084Y-46966860D01*
X224156756Y-47001497D01*
X224018806Y-47041981D01*
X223918027Y-47093994D01*
X223917471Y-47094458D01*
X223854471Y-47207715D01*
X223741373Y-47207715D01*
X223741373Y-46664761D01*
X223398129Y-46664761D01*
X223320230Y-46665341D01*
X223159682Y-46674847D01*
X223077801Y-46699541D01*
X223054886Y-46743971D01*
X223058720Y-46766743D01*
X223119240Y-46810101D01*
X223266113Y-46823181D01*
X223326839Y-46824619D01*
X223442460Y-46847314D01*
X223477339Y-46902391D01*
X223477005Y-46909605D01*
X223429214Y-46964424D01*
X223292516Y-46981601D01*
X223275683Y-46981744D01*
X223147771Y-47002226D01*
X223107693Y-47060811D01*
X223108027Y-47068025D01*
X223155818Y-47122844D01*
X223292516Y-47140021D01*
X223401390Y-47146212D01*
X223463531Y-47182760D01*
X223477339Y-47272038D01*
X223477264Y-47283534D01*
X223462689Y-47362861D01*
X223402202Y-47396849D01*
X223266113Y-47404054D01*
X223205387Y-47405492D01*
X223089765Y-47428187D01*
X223054886Y-47483264D01*
X221319696Y-47483264D01*
X221351469Y-47416495D01*
X221455443Y-47197885D01*
X221532333Y-47014543D01*
X221575714Y-46867118D01*
X221594222Y-46725392D01*
X221596492Y-46559148D01*
X221589720Y-46408004D01*
X221560913Y-46229810D01*
X221498797Y-46047977D01*
X221453614Y-45951871D01*
X223794179Y-45951871D01*
X223796693Y-45969848D01*
X223837883Y-46006898D01*
X223944892Y-46025793D01*
X224137422Y-46031081D01*
X224480666Y-46031081D01*
X224480666Y-45951871D01*
X224586279Y-45951871D01*
X224588792Y-45969848D01*
X224629983Y-46006898D01*
X224736992Y-46025793D01*
X224929522Y-46031081D01*
X225272765Y-46031081D01*
X225272765Y-46003276D01*
X225387256Y-46003276D01*
X225421529Y-46028667D01*
X225515339Y-46031081D01*
X225611260Y-46012884D01*
X225679918Y-45925468D01*
X225727885Y-45850377D01*
X225853639Y-45819855D01*
X225962872Y-45840334D01*
X226027359Y-45925468D01*
X226069340Y-45995765D01*
X226191938Y-46031081D01*
X226283423Y-46026924D01*
X226328899Y-46014932D01*
X226326539Y-46005616D01*
X226298559Y-45921881D01*
X226245682Y-45771768D01*
X226176316Y-45579278D01*
X226126494Y-45444678D01*
X226061610Y-45289280D01*
X226006233Y-45201074D01*
X225945605Y-45159409D01*
X225864965Y-45143633D01*
X225803529Y-45139828D01*
X225728862Y-45159054D01*
X225673757Y-45231590D01*
X225612940Y-45381263D01*
X225584901Y-45457025D01*
X225511234Y-45652453D01*
X225449031Y-45813102D01*
X225404238Y-45927682D01*
X225387256Y-46003276D01*
X225272765Y-46003276D01*
X225272765Y-45582225D01*
X225271588Y-45366586D01*
X225263947Y-45233188D01*
X225243693Y-45163793D01*
X225204677Y-45137489D01*
X225140749Y-45133368D01*
X225105546Y-45134041D01*
X225050862Y-45148421D01*
X225021977Y-45199368D01*
X225010674Y-45309895D01*
X225008732Y-45503015D01*
X225008732Y-45872661D01*
X224797506Y-45872661D01*
X224736780Y-45874099D01*
X224621158Y-45896794D01*
X224586279Y-45951871D01*
X224480666Y-45951871D01*
X224480666Y-45582225D01*
X224479488Y-45366586D01*
X224471847Y-45233188D01*
X224451594Y-45163793D01*
X224412578Y-45137489D01*
X224348649Y-45133368D01*
X224313447Y-45134041D01*
X224258762Y-45148421D01*
X224229877Y-45199368D01*
X224218574Y-45309895D01*
X224216632Y-45503015D01*
X224216632Y-45872661D01*
X224005406Y-45872661D01*
X223944680Y-45874099D01*
X223829058Y-45896794D01*
X223794179Y-45951871D01*
X221453614Y-45951871D01*
X221391549Y-45819855D01*
X221378323Y-45793434D01*
X221269366Y-45564644D01*
X221169663Y-45338277D01*
X221099330Y-45159771D01*
X221062191Y-45059304D01*
X220975873Y-44848917D01*
X220876922Y-44628513D01*
X220814641Y-44499688D01*
X222157173Y-44499688D01*
X222302391Y-44499473D01*
X222312020Y-44499348D01*
X222408669Y-44477014D01*
X222493261Y-44400829D01*
X222591314Y-44248642D01*
X222735018Y-43998025D01*
X222736532Y-44248857D01*
X222737879Y-44333253D01*
X222750973Y-44444138D01*
X222790131Y-44490406D01*
X222870063Y-44499688D01*
X222933486Y-44495683D01*
X222972721Y-44469705D01*
X222993131Y-44400843D01*
X223000867Y-44268189D01*
X223002079Y-44050832D01*
X223002079Y-43681185D01*
X223160499Y-43681185D01*
X223164333Y-43703957D01*
X223224854Y-43747315D01*
X223371726Y-43760395D01*
X223432452Y-43761833D01*
X223548073Y-43784528D01*
X223582953Y-43839605D01*
X223582618Y-43846819D01*
X223534828Y-43901639D01*
X223398129Y-43918815D01*
X223381296Y-43918958D01*
X223253385Y-43939440D01*
X223213306Y-43998025D01*
X223213640Y-44005239D01*
X223253388Y-44050832D01*
X223261431Y-44060058D01*
X223398129Y-44077235D01*
X223507004Y-44083426D01*
X223569144Y-44119974D01*
X223582953Y-44209252D01*
X223582877Y-44220749D01*
X223568303Y-44300075D01*
X223507816Y-44334063D01*
X223371726Y-44341268D01*
X223311000Y-44342706D01*
X223195379Y-44365401D01*
X223160499Y-44420478D01*
X223163013Y-44438455D01*
X223204203Y-44475505D01*
X223311212Y-44494400D01*
X223503743Y-44499688D01*
X223846986Y-44499688D01*
X224005406Y-44499688D01*
X224163826Y-44499688D01*
X224197843Y-44499355D01*
X224282089Y-44484111D01*
X224315990Y-44423902D01*
X224322246Y-44288462D01*
X224322293Y-44270067D01*
X224331402Y-44143145D01*
X224369206Y-44088764D01*
X224454262Y-44077235D01*
X224465759Y-44077310D01*
X224545085Y-44091885D01*
X224579073Y-44152372D01*
X224586279Y-44288462D01*
X224586326Y-44306857D01*
X224595435Y-44433779D01*
X224633240Y-44488159D01*
X224718296Y-44499688D01*
X224781719Y-44495683D01*
X224820953Y-44469705D01*
X224841364Y-44400843D01*
X224849100Y-44268189D01*
X224850312Y-44050832D01*
X224849134Y-43835193D01*
X224841494Y-43701795D01*
X224821240Y-43632400D01*
X224782224Y-43606096D01*
X224718296Y-43601975D01*
X224973117Y-43601975D01*
X225088075Y-44037630D01*
X225091651Y-44050832D01*
X225137067Y-44218504D01*
X225183736Y-44361391D01*
X225228478Y-44440133D01*
X225284123Y-44475773D01*
X225363501Y-44489354D01*
X225470114Y-44489888D01*
X225526075Y-44443018D01*
X225558833Y-44319585D01*
X225594645Y-44180392D01*
X225639969Y-44113144D01*
X225684080Y-44148746D01*
X225721584Y-44288237D01*
X225725047Y-44308346D01*
X225757140Y-44434449D01*
X225810755Y-44488329D01*
X225912744Y-44499688D01*
X226027229Y-44480894D01*
X226089707Y-44433680D01*
X226091313Y-44428627D01*
X226117878Y-44337547D01*
X226162342Y-44179297D01*
X226215998Y-43984823D01*
X226320761Y-43601975D01*
X226171051Y-43601975D01*
X226161770Y-43602015D01*
X226067367Y-43616407D01*
X226017290Y-43677024D01*
X225985617Y-43813426D01*
X225954478Y-43938033D01*
X225910905Y-43989785D01*
X225865361Y-43938431D01*
X225823404Y-43784946D01*
X225798045Y-43683557D01*
X225744217Y-43617179D01*
X225638928Y-43601975D01*
X225552325Y-43610217D01*
X225489692Y-43661536D01*
X225453995Y-43787382D01*
X225420181Y-43922807D01*
X225377352Y-43990479D01*
X225335724Y-43954237D01*
X225299207Y-43813426D01*
X225298023Y-43806466D01*
X225265828Y-43673250D01*
X225214309Y-43614891D01*
X225118299Y-43601975D01*
X224973117Y-43601975D01*
X224718296Y-43601975D01*
X224660887Y-43605758D01*
X224600488Y-43647177D01*
X224586279Y-43760395D01*
X224583126Y-43829286D01*
X224548611Y-43901765D01*
X224454262Y-43918815D01*
X224396854Y-43915032D01*
X224336454Y-43873613D01*
X224322246Y-43760395D01*
X224317392Y-43676782D01*
X224276035Y-43615060D01*
X224163826Y-43601975D01*
X224005406Y-43601975D01*
X224005406Y-44499688D01*
X223846986Y-44499688D01*
X223846986Y-43601975D01*
X223503743Y-43601975D01*
X223425843Y-43602555D01*
X223265295Y-43612061D01*
X223183414Y-43636755D01*
X223160499Y-43681185D01*
X223002079Y-43681185D01*
X223002079Y-43601975D01*
X222847966Y-43601975D01*
X222772941Y-43609606D01*
X222671470Y-43666664D01*
X222570731Y-43800000D01*
X222447610Y-43998025D01*
X222431220Y-43800000D01*
X222414777Y-43682926D01*
X222372918Y-43617240D01*
X222286002Y-43601975D01*
X222225790Y-43605941D01*
X222186771Y-43631906D01*
X222166328Y-43700774D01*
X222158462Y-43833449D01*
X222157173Y-44050832D01*
X222157173Y-44499688D01*
X220814641Y-44499688D01*
X220775931Y-44419617D01*
X220683491Y-44243755D01*
X220610195Y-44122453D01*
X220566635Y-44077235D01*
X220559637Y-44080919D01*
X220511523Y-44147608D01*
X220436774Y-44278875D01*
X220347795Y-44449627D01*
X220256994Y-44634772D01*
X220176775Y-44809219D01*
X220119547Y-44947874D01*
X220097713Y-45025647D01*
X220091941Y-45049242D01*
X220051154Y-45155064D01*
X219979841Y-45319804D01*
X219888166Y-45519506D01*
X219877738Y-45541720D01*
X219721319Y-45892702D01*
X219603616Y-46192589D01*
X219529455Y-46427999D01*
X219503662Y-46585551D01*
X218791352Y-46585551D01*
X218789921Y-46229106D01*
X218775892Y-43126715D01*
X212029850Y-43126715D01*
X212010871Y-43298337D01*
X212010608Y-43301046D01*
X212007545Y-43391159D01*
X212005159Y-43576505D01*
X212003456Y-43847444D01*
X212002447Y-44194337D01*
X212002137Y-44607546D01*
X210698129Y-44607546D01*
X210698129Y-42493036D01*
X227701871Y-42493036D01*
X227701871Y-57806965D01*
X210698129Y-57806965D01*
G37*
G36*
X224540208Y-53384408D02*
G01*
X224523746Y-53404853D01*
X224453546Y-53472688D01*
X224427859Y-53456882D01*
X224447136Y-53429612D01*
X224520271Y-53364470D01*
X224558532Y-53334971D01*
X224585878Y-53321858D01*
X224540208Y-53384408D01*
G37*
G36*
X216612474Y-50542934D02*
G01*
X216606012Y-50582277D01*
X216559668Y-50625260D01*
X216547139Y-50623838D01*
X216506861Y-50575570D01*
X216508875Y-50560754D01*
X216559668Y-50493243D01*
X216586874Y-50488276D01*
X216612474Y-50542934D01*
G37*
G36*
X220608178Y-46787977D02*
G01*
X220616439Y-46803860D01*
X220572973Y-46823181D01*
X220545018Y-46819370D01*
X220537769Y-46787977D01*
X220545509Y-46781657D01*
X220608178Y-46787977D01*
G37*
G36*
X223350365Y-52254107D02*
G01*
X223334064Y-52277565D01*
X223289400Y-52315073D01*
X223282017Y-52314559D01*
X223270388Y-52283991D01*
X223327078Y-52230820D01*
X223356589Y-52217972D01*
X223350365Y-52254107D01*
G37*
G36*
X218460707Y-50542934D02*
G01*
X218454244Y-50582277D01*
X218407901Y-50625260D01*
X218395372Y-50623838D01*
X218355094Y-50575570D01*
X218357108Y-50560754D01*
X218407901Y-50493243D01*
X218435107Y-50488276D01*
X218460707Y-50542934D01*
G37*
G36*
X213470088Y-50321908D02*
G01*
X213496882Y-50387630D01*
X213488266Y-50431228D01*
X213440115Y-50456719D01*
X213424459Y-50449548D01*
X213383348Y-50387630D01*
X213385557Y-50373058D01*
X213440115Y-50318541D01*
X213470088Y-50321908D01*
G37*
%TD*%
M02*
