%TF.GenerationSoftware,KiCad,Pcbnew,6.0.2*%
%TF.CreationDate,2022-11-10T22:55:42+01:00*%
%TF.ProjectId,SI4735,53493437-3335-42e6-9b69-6361645f7063,rev?*%
%TF.SameCoordinates,Original*%
%TF.FileFunction,Paste,Bot*%
%TF.FilePolarity,Positive*%
%FSLAX46Y46*%
G04 Gerber Fmt 4.6, Leading zero omitted, Abs format (unit mm)*
G04 Created by KiCad (PCBNEW 6.0.2) date 2022-11-10 22:55:42*
%MOMM*%
%LPD*%
G01*
G04 APERTURE LIST*
G04 Aperture macros list*
%AMRoundRect*
0 Rectangle with rounded corners*
0 $1 Rounding radius*
0 $2 $3 $4 $5 $6 $7 $8 $9 X,Y pos of 4 corners*
0 Add a 4 corners polygon primitive as box body*
4,1,4,$2,$3,$4,$5,$6,$7,$8,$9,$2,$3,0*
0 Add four circle primitives for the rounded corners*
1,1,$1+$1,$2,$3*
1,1,$1+$1,$4,$5*
1,1,$1+$1,$6,$7*
1,1,$1+$1,$8,$9*
0 Add four rect primitives between the rounded corners*
20,1,$1+$1,$2,$3,$4,$5,0*
20,1,$1+$1,$4,$5,$6,$7,0*
20,1,$1+$1,$6,$7,$8,$9,0*
20,1,$1+$1,$8,$9,$2,$3,0*%
G04 Aperture macros list end*
%TA.AperFunction,Profile*%
%ADD10C,0.050000*%
%TD*%
%TA.AperFunction,Profile*%
%ADD11C,0.100000*%
%TD*%
%ADD12RoundRect,0.250000X0.325000X0.650000X-0.325000X0.650000X-0.325000X-0.650000X0.325000X-0.650000X0*%
%ADD13RoundRect,0.250000X-0.650000X0.325000X-0.650000X-0.325000X0.650000X-0.325000X0.650000X0.325000X0*%
%ADD14RoundRect,0.250000X-0.312500X-0.625000X0.312500X-0.625000X0.312500X0.625000X-0.312500X0.625000X0*%
%ADD15RoundRect,0.250000X0.312500X0.625000X-0.312500X0.625000X-0.312500X-0.625000X0.312500X-0.625000X0*%
%ADD16R,1.200000X0.400000*%
%ADD17RoundRect,0.250000X-0.625000X0.312500X-0.625000X-0.312500X0.625000X-0.312500X0.625000X0.312500X0*%
G04 APERTURE END LIST*
D10*
X243000000Y-45450000D02*
G75*
G03*
X243000000Y-45450000I-1526434J0D01*
G01*
X243076434Y-77450000D02*
G75*
G03*
X243076434Y-77450000I-1526434J0D01*
G01*
X199535580Y-77486292D02*
G75*
G03*
X199535580Y-77486292I-1526434J0D01*
G01*
X244475000Y-81120000D02*
X193725000Y-81120000D01*
X193725000Y-81120000D02*
X193725000Y-42300000D01*
X193725000Y-42300000D02*
X244475000Y-42300000D01*
X244475000Y-42300000D02*
X244475000Y-81120000D01*
X199576434Y-45480000D02*
G75*
G03*
X199576434Y-45480000I-1526434J0D01*
G01*
D11*
%TO.C,J2*%
X193760000Y-49540000D02*
X193760000Y-58140000D01*
%TO.C,J3*%
X193760000Y-64720000D02*
X193760000Y-73320000D01*
%TD*%
D12*
%TO.C,C1*%
X222075000Y-62900000D03*
X219125000Y-62900000D03*
%TD*%
D13*
%TO.C,C2*%
X215900000Y-74217000D03*
X215900000Y-77167000D03*
%TD*%
%TO.C,C3*%
X213360000Y-74217000D03*
X213360000Y-77167000D03*
%TD*%
D14*
%TO.C,R1*%
X224800000Y-61600000D03*
X227725000Y-61600000D03*
%TD*%
%TO.C,R2*%
X224800000Y-66000000D03*
X227725000Y-66000000D03*
%TD*%
%TO.C,R3*%
X224812500Y-68200000D03*
X227737500Y-68200000D03*
%TD*%
D15*
%TO.C,R4*%
X240562500Y-63550000D03*
X237637500Y-63550000D03*
%TD*%
%TO.C,R5*%
X240562500Y-65800000D03*
X237637500Y-65800000D03*
%TD*%
%TO.C,R6*%
X240562500Y-56500000D03*
X237637500Y-56500000D03*
%TD*%
%TO.C,R7*%
X225925000Y-73500000D03*
X223000000Y-73500000D03*
%TD*%
%TO.C,R8*%
X225925000Y-75750000D03*
X223000000Y-75750000D03*
%TD*%
D16*
%TO.C,U2*%
X212150000Y-70242500D03*
X212150000Y-69607500D03*
X212150000Y-68972500D03*
X212150000Y-68337500D03*
X212150000Y-67702500D03*
X212150000Y-67067500D03*
X212150000Y-66432500D03*
X212150000Y-65797500D03*
X212150000Y-65162500D03*
X212150000Y-64527500D03*
X212150000Y-63892500D03*
X212150000Y-63257500D03*
X217350000Y-63257500D03*
X217350000Y-63892500D03*
X217350000Y-64527500D03*
X217350000Y-65162500D03*
X217350000Y-65797500D03*
X217350000Y-66432500D03*
X217350000Y-67067500D03*
X217350000Y-67702500D03*
X217350000Y-68337500D03*
X217350000Y-68972500D03*
X217350000Y-69607500D03*
X217350000Y-70242500D03*
%TD*%
D14*
%TO.C,R13*%
X224800000Y-63800000D03*
X227725000Y-63800000D03*
%TD*%
D15*
%TO.C,R12*%
X240562500Y-59000000D03*
X237637500Y-59000000D03*
%TD*%
D17*
%TO.C,R10*%
X209650000Y-70087500D03*
X209650000Y-73012500D03*
%TD*%
D14*
%TO.C,R14*%
X237637500Y-61300000D03*
X240562500Y-61300000D03*
%TD*%
M02*
