%TF.GenerationSoftware,KiCad,Pcbnew,6.0.2*%
%TF.CreationDate,2022-11-10T22:55:43+01:00*%
%TF.ProjectId,SI4735,53493437-3335-42e6-9b69-6361645f7063,rev?*%
%TF.SameCoordinates,Original*%
%TF.FileFunction,AssemblyDrawing,Top*%
%FSLAX46Y46*%
G04 Gerber Fmt 4.6, Leading zero omitted, Abs format (unit mm)*
G04 Created by KiCad (PCBNEW 6.0.2) date 2022-11-10 22:55:43*
%MOMM*%
%LPD*%
G01*
G04 APERTURE LIST*
%TA.AperFunction,Profile*%
%ADD10C,0.050000*%
%TD*%
%ADD11C,0.150000*%
%ADD12C,0.090000*%
%ADD13C,0.129000*%
%ADD14C,0.102000*%
%ADD15C,0.105000*%
%ADD16C,0.120000*%
%ADD17C,0.100000*%
%TA.AperFunction,Profile*%
%ADD18C,0.100000*%
%TD*%
G04 APERTURE END LIST*
D10*
X243000000Y-45450000D02*
G75*
G03*
X243000000Y-45450000I-1526434J0D01*
G01*
X243076434Y-77450000D02*
G75*
G03*
X243076434Y-77450000I-1526434J0D01*
G01*
X199535580Y-77486292D02*
G75*
G03*
X199535580Y-77486292I-1526434J0D01*
G01*
X244475000Y-81120000D02*
X193725000Y-81120000D01*
X193725000Y-81120000D02*
X193725000Y-42300000D01*
X193725000Y-42300000D02*
X244475000Y-42300000D01*
X244475000Y-42300000D02*
X244475000Y-81120000D01*
X199576434Y-45480000D02*
G75*
G03*
X199576434Y-45480000I-1526434J0D01*
G01*
D11*
%TO.C,C4*%
X227207142Y-86547619D02*
X227254761Y-86500000D01*
X227350000Y-86452380D01*
X227588095Y-86452380D01*
X227683333Y-86500000D01*
X227730952Y-86547619D01*
X227778571Y-86642857D01*
X227778571Y-86738095D01*
X227730952Y-86880952D01*
X227159523Y-87452380D01*
X227778571Y-87452380D01*
X228397619Y-86452380D02*
X228492857Y-86452380D01*
X228588095Y-86500000D01*
X228635714Y-86547619D01*
X228683333Y-86642857D01*
X228730952Y-86833333D01*
X228730952Y-87071428D01*
X228683333Y-87261904D01*
X228635714Y-87357142D01*
X228588095Y-87404761D01*
X228492857Y-87452380D01*
X228397619Y-87452380D01*
X228302380Y-87404761D01*
X228254761Y-87357142D01*
X228207142Y-87261904D01*
X228159523Y-87071428D01*
X228159523Y-86833333D01*
X228207142Y-86642857D01*
X228254761Y-86547619D01*
X228302380Y-86500000D01*
X228397619Y-86452380D01*
X229588095Y-86785714D02*
X229588095Y-87452380D01*
X229159523Y-86785714D02*
X229159523Y-87309523D01*
X229207142Y-87404761D01*
X229302380Y-87452380D01*
X229445238Y-87452380D01*
X229540476Y-87404761D01*
X229588095Y-87357142D01*
X230397619Y-86928571D02*
X230064285Y-86928571D01*
X230064285Y-87452380D02*
X230064285Y-86452380D01*
X230540476Y-86452380D01*
X224923333Y-87287142D02*
X224875714Y-87334761D01*
X224732857Y-87382380D01*
X224637619Y-87382380D01*
X224494761Y-87334761D01*
X224399523Y-87239523D01*
X224351904Y-87144285D01*
X224304285Y-86953809D01*
X224304285Y-86810952D01*
X224351904Y-86620476D01*
X224399523Y-86525238D01*
X224494761Y-86430000D01*
X224637619Y-86382380D01*
X224732857Y-86382380D01*
X224875714Y-86430000D01*
X224923333Y-86477619D01*
X225780476Y-86715714D02*
X225780476Y-87382380D01*
X225542380Y-86334761D02*
X225304285Y-87049047D01*
X225923333Y-87049047D01*
%TO.C,C5*%
X227602380Y-88732380D02*
X227030952Y-88732380D01*
X227316666Y-88732380D02*
X227316666Y-87732380D01*
X227221428Y-87875238D01*
X227126190Y-87970476D01*
X227030952Y-88018095D01*
X228221428Y-87732380D02*
X228316666Y-87732380D01*
X228411904Y-87780000D01*
X228459523Y-87827619D01*
X228507142Y-87922857D01*
X228554761Y-88113333D01*
X228554761Y-88351428D01*
X228507142Y-88541904D01*
X228459523Y-88637142D01*
X228411904Y-88684761D01*
X228316666Y-88732380D01*
X228221428Y-88732380D01*
X228126190Y-88684761D01*
X228078571Y-88637142D01*
X228030952Y-88541904D01*
X227983333Y-88351428D01*
X227983333Y-88113333D01*
X228030952Y-87922857D01*
X228078571Y-87827619D01*
X228126190Y-87780000D01*
X228221428Y-87732380D01*
X229173809Y-87732380D02*
X229269047Y-87732380D01*
X229364285Y-87780000D01*
X229411904Y-87827619D01*
X229459523Y-87922857D01*
X229507142Y-88113333D01*
X229507142Y-88351428D01*
X229459523Y-88541904D01*
X229411904Y-88637142D01*
X229364285Y-88684761D01*
X229269047Y-88732380D01*
X229173809Y-88732380D01*
X229078571Y-88684761D01*
X229030952Y-88637142D01*
X228983333Y-88541904D01*
X228935714Y-88351428D01*
X228935714Y-88113333D01*
X228983333Y-87922857D01*
X229030952Y-87827619D01*
X229078571Y-87780000D01*
X229173809Y-87732380D01*
X229935714Y-88065714D02*
X229935714Y-88732380D01*
X229935714Y-88160952D02*
X229983333Y-88113333D01*
X230078571Y-88065714D01*
X230221428Y-88065714D01*
X230316666Y-88113333D01*
X230364285Y-88208571D01*
X230364285Y-88732380D01*
X231173809Y-88208571D02*
X230840476Y-88208571D01*
X230840476Y-88732380D02*
X230840476Y-87732380D01*
X231316666Y-87732380D01*
D12*
X224840000Y-88661428D02*
X224797142Y-88704285D01*
X224668571Y-88747142D01*
X224582857Y-88747142D01*
X224454285Y-88704285D01*
X224368571Y-88618571D01*
X224325714Y-88532857D01*
X224282857Y-88361428D01*
X224282857Y-88232857D01*
X224325714Y-88061428D01*
X224368571Y-87975714D01*
X224454285Y-87890000D01*
X224582857Y-87847142D01*
X224668571Y-87847142D01*
X224797142Y-87890000D01*
X224840000Y-87932857D01*
X225654285Y-87847142D02*
X225225714Y-87847142D01*
X225182857Y-88275714D01*
X225225714Y-88232857D01*
X225311428Y-88190000D01*
X225525714Y-88190000D01*
X225611428Y-88232857D01*
X225654285Y-88275714D01*
X225697142Y-88361428D01*
X225697142Y-88575714D01*
X225654285Y-88661428D01*
X225611428Y-88704285D01*
X225525714Y-88747142D01*
X225311428Y-88747142D01*
X225225714Y-88704285D01*
X225182857Y-88661428D01*
D11*
%TO.C,C6*%
X227657142Y-89335714D02*
X227657142Y-90002380D01*
X227419047Y-88954761D02*
X227180952Y-89669047D01*
X227800000Y-89669047D01*
X228085714Y-89002380D02*
X228752380Y-89002380D01*
X228323809Y-90002380D01*
X229323809Y-89002380D02*
X229419047Y-89002380D01*
X229514285Y-89050000D01*
X229561904Y-89097619D01*
X229609523Y-89192857D01*
X229657142Y-89383333D01*
X229657142Y-89621428D01*
X229609523Y-89811904D01*
X229561904Y-89907142D01*
X229514285Y-89954761D01*
X229419047Y-90002380D01*
X229323809Y-90002380D01*
X229228571Y-89954761D01*
X229180952Y-89907142D01*
X229133333Y-89811904D01*
X229085714Y-89621428D01*
X229085714Y-89383333D01*
X229133333Y-89192857D01*
X229180952Y-89097619D01*
X229228571Y-89050000D01*
X229323809Y-89002380D01*
X230085714Y-89335714D02*
X230085714Y-90002380D01*
X230085714Y-89430952D02*
X230133333Y-89383333D01*
X230228571Y-89335714D01*
X230371428Y-89335714D01*
X230466666Y-89383333D01*
X230514285Y-89478571D01*
X230514285Y-90002380D01*
X231323809Y-89478571D02*
X230990476Y-89478571D01*
X230990476Y-90002380D02*
X230990476Y-89002380D01*
X231466666Y-89002380D01*
D13*
X224826666Y-89927142D02*
X224785714Y-89968095D01*
X224662857Y-90009047D01*
X224580952Y-90009047D01*
X224458095Y-89968095D01*
X224376190Y-89886190D01*
X224335238Y-89804285D01*
X224294285Y-89640476D01*
X224294285Y-89517619D01*
X224335238Y-89353809D01*
X224376190Y-89271904D01*
X224458095Y-89190000D01*
X224580952Y-89149047D01*
X224662857Y-89149047D01*
X224785714Y-89190000D01*
X224826666Y-89230952D01*
X225563809Y-89149047D02*
X225400000Y-89149047D01*
X225318095Y-89190000D01*
X225277142Y-89230952D01*
X225195238Y-89353809D01*
X225154285Y-89517619D01*
X225154285Y-89845238D01*
X225195238Y-89927142D01*
X225236190Y-89968095D01*
X225318095Y-90009047D01*
X225481904Y-90009047D01*
X225563809Y-89968095D01*
X225604761Y-89927142D01*
X225645714Y-89845238D01*
X225645714Y-89640476D01*
X225604761Y-89558571D01*
X225563809Y-89517619D01*
X225481904Y-89476666D01*
X225318095Y-89476666D01*
X225236190Y-89517619D01*
X225195238Y-89558571D01*
X225154285Y-89640476D01*
D11*
%TO.C,C7*%
X227209523Y-90252380D02*
X227828571Y-90252380D01*
X227495238Y-90633333D01*
X227638095Y-90633333D01*
X227733333Y-90680952D01*
X227780952Y-90728571D01*
X227828571Y-90823809D01*
X227828571Y-91061904D01*
X227780952Y-91157142D01*
X227733333Y-91204761D01*
X227638095Y-91252380D01*
X227352380Y-91252380D01*
X227257142Y-91204761D01*
X227209523Y-91157142D01*
X228161904Y-90252380D02*
X228780952Y-90252380D01*
X228447619Y-90633333D01*
X228590476Y-90633333D01*
X228685714Y-90680952D01*
X228733333Y-90728571D01*
X228780952Y-90823809D01*
X228780952Y-91061904D01*
X228733333Y-91157142D01*
X228685714Y-91204761D01*
X228590476Y-91252380D01*
X228304761Y-91252380D01*
X228209523Y-91204761D01*
X228161904Y-91157142D01*
X229209523Y-90585714D02*
X229209523Y-91252380D01*
X229209523Y-90680952D02*
X229257142Y-90633333D01*
X229352380Y-90585714D01*
X229495238Y-90585714D01*
X229590476Y-90633333D01*
X229638095Y-90728571D01*
X229638095Y-91252380D01*
X230447619Y-90728571D02*
X230114285Y-90728571D01*
X230114285Y-91252380D02*
X230114285Y-90252380D01*
X230590476Y-90252380D01*
D13*
X224896666Y-91217142D02*
X224855714Y-91258095D01*
X224732857Y-91299047D01*
X224650952Y-91299047D01*
X224528095Y-91258095D01*
X224446190Y-91176190D01*
X224405238Y-91094285D01*
X224364285Y-90930476D01*
X224364285Y-90807619D01*
X224405238Y-90643809D01*
X224446190Y-90561904D01*
X224528095Y-90480000D01*
X224650952Y-90439047D01*
X224732857Y-90439047D01*
X224855714Y-90480000D01*
X224896666Y-90520952D01*
X225183333Y-90439047D02*
X225756666Y-90439047D01*
X225388095Y-91299047D01*
D11*
%TO.C,C8*%
X227157142Y-91797619D02*
X227204761Y-91750000D01*
X227300000Y-91702380D01*
X227538095Y-91702380D01*
X227633333Y-91750000D01*
X227680952Y-91797619D01*
X227728571Y-91892857D01*
X227728571Y-91988095D01*
X227680952Y-92130952D01*
X227109523Y-92702380D01*
X227728571Y-92702380D01*
X228347619Y-91702380D02*
X228442857Y-91702380D01*
X228538095Y-91750000D01*
X228585714Y-91797619D01*
X228633333Y-91892857D01*
X228680952Y-92083333D01*
X228680952Y-92321428D01*
X228633333Y-92511904D01*
X228585714Y-92607142D01*
X228538095Y-92654761D01*
X228442857Y-92702380D01*
X228347619Y-92702380D01*
X228252380Y-92654761D01*
X228204761Y-92607142D01*
X228157142Y-92511904D01*
X228109523Y-92321428D01*
X228109523Y-92083333D01*
X228157142Y-91892857D01*
X228204761Y-91797619D01*
X228252380Y-91750000D01*
X228347619Y-91702380D01*
X229538095Y-92035714D02*
X229538095Y-92702380D01*
X229109523Y-92035714D02*
X229109523Y-92559523D01*
X229157142Y-92654761D01*
X229252380Y-92702380D01*
X229395238Y-92702380D01*
X229490476Y-92654761D01*
X229538095Y-92607142D01*
X230347619Y-92178571D02*
X230014285Y-92178571D01*
X230014285Y-92702380D02*
X230014285Y-91702380D01*
X230490476Y-91702380D01*
X225003333Y-92647142D02*
X224955714Y-92694761D01*
X224812857Y-92742380D01*
X224717619Y-92742380D01*
X224574761Y-92694761D01*
X224479523Y-92599523D01*
X224431904Y-92504285D01*
X224384285Y-92313809D01*
X224384285Y-92170952D01*
X224431904Y-91980476D01*
X224479523Y-91885238D01*
X224574761Y-91790000D01*
X224717619Y-91742380D01*
X224812857Y-91742380D01*
X224955714Y-91790000D01*
X225003333Y-91837619D01*
X225574761Y-92170952D02*
X225479523Y-92123333D01*
X225431904Y-92075714D01*
X225384285Y-91980476D01*
X225384285Y-91932857D01*
X225431904Y-91837619D01*
X225479523Y-91790000D01*
X225574761Y-91742380D01*
X225765238Y-91742380D01*
X225860476Y-91790000D01*
X225908095Y-91837619D01*
X225955714Y-91932857D01*
X225955714Y-91980476D01*
X225908095Y-92075714D01*
X225860476Y-92123333D01*
X225765238Y-92170952D01*
X225574761Y-92170952D01*
X225479523Y-92218571D01*
X225431904Y-92266190D01*
X225384285Y-92361428D01*
X225384285Y-92551904D01*
X225431904Y-92647142D01*
X225479523Y-92694761D01*
X225574761Y-92742380D01*
X225765238Y-92742380D01*
X225860476Y-92694761D01*
X225908095Y-92647142D01*
X225955714Y-92551904D01*
X225955714Y-92361428D01*
X225908095Y-92266190D01*
X225860476Y-92218571D01*
X225765238Y-92170952D01*
%TO.C,C9*%
X254322619Y-5775954D02*
X254275000Y-5728335D01*
X254227380Y-5633097D01*
X254227380Y-5395002D01*
X254275000Y-5299763D01*
X254322619Y-5252144D01*
X254417857Y-5204525D01*
X254513095Y-5204525D01*
X254655952Y-5252144D01*
X255227380Y-5823573D01*
X255227380Y-5204525D01*
X255132142Y-4775954D02*
X255179761Y-4728335D01*
X255227380Y-4775954D01*
X255179761Y-4823573D01*
X255132142Y-4775954D01*
X255227380Y-4775954D01*
X254322619Y-4347382D02*
X254275000Y-4299763D01*
X254227380Y-4204525D01*
X254227380Y-3966430D01*
X254275000Y-3871192D01*
X254322619Y-3823573D01*
X254417857Y-3775954D01*
X254513095Y-3775954D01*
X254655952Y-3823573D01*
X255227380Y-4395002D01*
X255227380Y-3775954D01*
X254560714Y-2918811D02*
X255227380Y-2918811D01*
X254560714Y-3347382D02*
X255084523Y-3347382D01*
X255179761Y-3299763D01*
X255227380Y-3204525D01*
X255227380Y-3061668D01*
X255179761Y-2966430D01*
X255132142Y-2918811D01*
X254703571Y-2109287D02*
X254703571Y-2442621D01*
X255227380Y-2442621D02*
X254227380Y-2442621D01*
X254227380Y-1966430D01*
D14*
X255117857Y-7708335D02*
X255150238Y-7740716D01*
X255182619Y-7837859D01*
X255182619Y-7902621D01*
X255150238Y-7999763D01*
X255085476Y-8064525D01*
X255020714Y-8096906D01*
X254891190Y-8129287D01*
X254794047Y-8129287D01*
X254664523Y-8096906D01*
X254599761Y-8064525D01*
X254535000Y-7999763D01*
X254502619Y-7902621D01*
X254502619Y-7837859D01*
X254535000Y-7740716D01*
X254567380Y-7708335D01*
X255182619Y-7384525D02*
X255182619Y-7255002D01*
X255150238Y-7190240D01*
X255117857Y-7157859D01*
X255020714Y-7093097D01*
X254891190Y-7060716D01*
X254632142Y-7060716D01*
X254567380Y-7093097D01*
X254535000Y-7125478D01*
X254502619Y-7190240D01*
X254502619Y-7319763D01*
X254535000Y-7384525D01*
X254567380Y-7416906D01*
X254632142Y-7449287D01*
X254794047Y-7449287D01*
X254858809Y-7416906D01*
X254891190Y-7384525D01*
X254923571Y-7319763D01*
X254923571Y-7190240D01*
X254891190Y-7125478D01*
X254858809Y-7093097D01*
X254794047Y-7060716D01*
D11*
%TO.C,C10*%
X227589047Y-93197619D02*
X227636666Y-93150000D01*
X227731904Y-93102380D01*
X227970000Y-93102380D01*
X228065238Y-93150000D01*
X228112857Y-93197619D01*
X228160476Y-93292857D01*
X228160476Y-93388095D01*
X228112857Y-93530952D01*
X227541428Y-94102380D01*
X228160476Y-94102380D01*
X228589047Y-94007142D02*
X228636666Y-94054761D01*
X228589047Y-94102380D01*
X228541428Y-94054761D01*
X228589047Y-94007142D01*
X228589047Y-94102380D01*
X229017619Y-93197619D02*
X229065238Y-93150000D01*
X229160476Y-93102380D01*
X229398571Y-93102380D01*
X229493809Y-93150000D01*
X229541428Y-93197619D01*
X229589047Y-93292857D01*
X229589047Y-93388095D01*
X229541428Y-93530952D01*
X228970000Y-94102380D01*
X229589047Y-94102380D01*
X230446190Y-93435714D02*
X230446190Y-94102380D01*
X230017619Y-93435714D02*
X230017619Y-93959523D01*
X230065238Y-94054761D01*
X230160476Y-94102380D01*
X230303333Y-94102380D01*
X230398571Y-94054761D01*
X230446190Y-94007142D01*
X231255714Y-93578571D02*
X230922380Y-93578571D01*
X230922380Y-94102380D02*
X230922380Y-93102380D01*
X231398571Y-93102380D01*
D14*
X224782857Y-93942857D02*
X224750476Y-93975238D01*
X224653333Y-94007619D01*
X224588571Y-94007619D01*
X224491428Y-93975238D01*
X224426666Y-93910476D01*
X224394285Y-93845714D01*
X224361904Y-93716190D01*
X224361904Y-93619047D01*
X224394285Y-93489523D01*
X224426666Y-93424761D01*
X224491428Y-93360000D01*
X224588571Y-93327619D01*
X224653333Y-93327619D01*
X224750476Y-93360000D01*
X224782857Y-93392380D01*
X225430476Y-94007619D02*
X225041904Y-94007619D01*
X225236190Y-94007619D02*
X225236190Y-93327619D01*
X225171428Y-93424761D01*
X225106666Y-93489523D01*
X225041904Y-93521904D01*
X225851428Y-93327619D02*
X225916190Y-93327619D01*
X225980952Y-93360000D01*
X226013333Y-93392380D01*
X226045714Y-93457142D01*
X226078095Y-93586666D01*
X226078095Y-93748571D01*
X226045714Y-93878095D01*
X226013333Y-93942857D01*
X225980952Y-93975238D01*
X225916190Y-94007619D01*
X225851428Y-94007619D01*
X225786666Y-93975238D01*
X225754285Y-93942857D01*
X225721904Y-93878095D01*
X225689523Y-93748571D01*
X225689523Y-93586666D01*
X225721904Y-93457142D01*
X225754285Y-93392380D01*
X225786666Y-93360000D01*
X225851428Y-93327619D01*
D11*
%TO.C,C11*%
X227730952Y-94492380D02*
X227826190Y-94492380D01*
X227921428Y-94540000D01*
X227969047Y-94587619D01*
X228016666Y-94682857D01*
X228064285Y-94873333D01*
X228064285Y-95111428D01*
X228016666Y-95301904D01*
X227969047Y-95397142D01*
X227921428Y-95444761D01*
X227826190Y-95492380D01*
X227730952Y-95492380D01*
X227635714Y-95444761D01*
X227588095Y-95397142D01*
X227540476Y-95301904D01*
X227492857Y-95111428D01*
X227492857Y-94873333D01*
X227540476Y-94682857D01*
X227588095Y-94587619D01*
X227635714Y-94540000D01*
X227730952Y-94492380D01*
X228492857Y-95397142D02*
X228540476Y-95444761D01*
X228492857Y-95492380D01*
X228445238Y-95444761D01*
X228492857Y-95397142D01*
X228492857Y-95492380D01*
X229159523Y-94492380D02*
X229254761Y-94492380D01*
X229350000Y-94540000D01*
X229397619Y-94587619D01*
X229445238Y-94682857D01*
X229492857Y-94873333D01*
X229492857Y-95111428D01*
X229445238Y-95301904D01*
X229397619Y-95397142D01*
X229350000Y-95444761D01*
X229254761Y-95492380D01*
X229159523Y-95492380D01*
X229064285Y-95444761D01*
X229016666Y-95397142D01*
X228969047Y-95301904D01*
X228921428Y-95111428D01*
X228921428Y-94873333D01*
X228969047Y-94682857D01*
X229016666Y-94587619D01*
X229064285Y-94540000D01*
X229159523Y-94492380D01*
X230445238Y-95492380D02*
X229873809Y-95492380D01*
X230159523Y-95492380D02*
X230159523Y-94492380D01*
X230064285Y-94635238D01*
X229969047Y-94730476D01*
X229873809Y-94778095D01*
X231302380Y-94825714D02*
X231302380Y-95492380D01*
X230873809Y-94825714D02*
X230873809Y-95349523D01*
X230921428Y-95444761D01*
X231016666Y-95492380D01*
X231159523Y-95492380D01*
X231254761Y-95444761D01*
X231302380Y-95397142D01*
X232111904Y-94968571D02*
X231778571Y-94968571D01*
X231778571Y-95492380D02*
X231778571Y-94492380D01*
X232254761Y-94492380D01*
D14*
X224852857Y-95352857D02*
X224820476Y-95385238D01*
X224723333Y-95417619D01*
X224658571Y-95417619D01*
X224561428Y-95385238D01*
X224496666Y-95320476D01*
X224464285Y-95255714D01*
X224431904Y-95126190D01*
X224431904Y-95029047D01*
X224464285Y-94899523D01*
X224496666Y-94834761D01*
X224561428Y-94770000D01*
X224658571Y-94737619D01*
X224723333Y-94737619D01*
X224820476Y-94770000D01*
X224852857Y-94802380D01*
X225500476Y-95417619D02*
X225111904Y-95417619D01*
X225306190Y-95417619D02*
X225306190Y-94737619D01*
X225241428Y-94834761D01*
X225176666Y-94899523D01*
X225111904Y-94931904D01*
X226148095Y-95417619D02*
X225759523Y-95417619D01*
X225953809Y-95417619D02*
X225953809Y-94737619D01*
X225889047Y-94834761D01*
X225824285Y-94899523D01*
X225759523Y-94931904D01*
D11*
%TO.C,C12*%
X227720952Y-95832380D02*
X227816190Y-95832380D01*
X227911428Y-95880000D01*
X227959047Y-95927619D01*
X228006666Y-96022857D01*
X228054285Y-96213333D01*
X228054285Y-96451428D01*
X228006666Y-96641904D01*
X227959047Y-96737142D01*
X227911428Y-96784761D01*
X227816190Y-96832380D01*
X227720952Y-96832380D01*
X227625714Y-96784761D01*
X227578095Y-96737142D01*
X227530476Y-96641904D01*
X227482857Y-96451428D01*
X227482857Y-96213333D01*
X227530476Y-96022857D01*
X227578095Y-95927619D01*
X227625714Y-95880000D01*
X227720952Y-95832380D01*
X228482857Y-96737142D02*
X228530476Y-96784761D01*
X228482857Y-96832380D01*
X228435238Y-96784761D01*
X228482857Y-96737142D01*
X228482857Y-96832380D01*
X229149523Y-95832380D02*
X229244761Y-95832380D01*
X229340000Y-95880000D01*
X229387619Y-95927619D01*
X229435238Y-96022857D01*
X229482857Y-96213333D01*
X229482857Y-96451428D01*
X229435238Y-96641904D01*
X229387619Y-96737142D01*
X229340000Y-96784761D01*
X229244761Y-96832380D01*
X229149523Y-96832380D01*
X229054285Y-96784761D01*
X229006666Y-96737142D01*
X228959047Y-96641904D01*
X228911428Y-96451428D01*
X228911428Y-96213333D01*
X228959047Y-96022857D01*
X229006666Y-95927619D01*
X229054285Y-95880000D01*
X229149523Y-95832380D01*
X230435238Y-96832380D02*
X229863809Y-96832380D01*
X230149523Y-96832380D02*
X230149523Y-95832380D01*
X230054285Y-95975238D01*
X229959047Y-96070476D01*
X229863809Y-96118095D01*
X231292380Y-96165714D02*
X231292380Y-96832380D01*
X230863809Y-96165714D02*
X230863809Y-96689523D01*
X230911428Y-96784761D01*
X231006666Y-96832380D01*
X231149523Y-96832380D01*
X231244761Y-96784761D01*
X231292380Y-96737142D01*
X232101904Y-96308571D02*
X231768571Y-96308571D01*
X231768571Y-96832380D02*
X231768571Y-95832380D01*
X232244761Y-95832380D01*
D14*
X224902857Y-96582857D02*
X224870476Y-96615238D01*
X224773333Y-96647619D01*
X224708571Y-96647619D01*
X224611428Y-96615238D01*
X224546666Y-96550476D01*
X224514285Y-96485714D01*
X224481904Y-96356190D01*
X224481904Y-96259047D01*
X224514285Y-96129523D01*
X224546666Y-96064761D01*
X224611428Y-96000000D01*
X224708571Y-95967619D01*
X224773333Y-95967619D01*
X224870476Y-96000000D01*
X224902857Y-96032380D01*
X225550476Y-96647619D02*
X225161904Y-96647619D01*
X225356190Y-96647619D02*
X225356190Y-95967619D01*
X225291428Y-96064761D01*
X225226666Y-96129523D01*
X225161904Y-96161904D01*
X225809523Y-96032380D02*
X225841904Y-96000000D01*
X225906666Y-95967619D01*
X226068571Y-95967619D01*
X226133333Y-96000000D01*
X226165714Y-96032380D01*
X226198095Y-96097142D01*
X226198095Y-96161904D01*
X226165714Y-96259047D01*
X225777142Y-96647619D01*
X226198095Y-96647619D01*
D11*
%TO.C,J2*%
X197712380Y-54173333D02*
X198426666Y-54173333D01*
X198569523Y-54220952D01*
X198664761Y-54316190D01*
X198712380Y-54459047D01*
X198712380Y-54554285D01*
X197807619Y-53744761D02*
X197760000Y-53697142D01*
X197712380Y-53601904D01*
X197712380Y-53363809D01*
X197760000Y-53268571D01*
X197807619Y-53220952D01*
X197902857Y-53173333D01*
X197998095Y-53173333D01*
X198140952Y-53220952D01*
X198712380Y-53792380D01*
X198712380Y-53173333D01*
%TO.C,J3*%
X197712380Y-69353333D02*
X198426666Y-69353333D01*
X198569523Y-69400952D01*
X198664761Y-69496190D01*
X198712380Y-69639047D01*
X198712380Y-69734285D01*
X197712380Y-68972380D02*
X197712380Y-68353333D01*
X198093333Y-68686666D01*
X198093333Y-68543809D01*
X198140952Y-68448571D01*
X198188571Y-68400952D01*
X198283809Y-68353333D01*
X198521904Y-68353333D01*
X198617142Y-68400952D01*
X198664761Y-68448571D01*
X198712380Y-68543809D01*
X198712380Y-68829523D01*
X198664761Y-68924761D01*
X198617142Y-68972380D01*
%TO.C,J4*%
X248907142Y-67983333D02*
X248954761Y-68030952D01*
X249002380Y-68173809D01*
X249002380Y-68269047D01*
X248954761Y-68411904D01*
X248859523Y-68507142D01*
X248764285Y-68554761D01*
X248573809Y-68602380D01*
X248430952Y-68602380D01*
X248240476Y-68554761D01*
X248145238Y-68507142D01*
X248050000Y-68411904D01*
X248002380Y-68269047D01*
X248002380Y-68173809D01*
X248050000Y-68030952D01*
X248097619Y-67983333D01*
X249002380Y-67411904D02*
X248954761Y-67507142D01*
X248907142Y-67554761D01*
X248811904Y-67602380D01*
X248526190Y-67602380D01*
X248430952Y-67554761D01*
X248383333Y-67507142D01*
X248335714Y-67411904D01*
X248335714Y-67269047D01*
X248383333Y-67173809D01*
X248430952Y-67126190D01*
X248526190Y-67078571D01*
X248811904Y-67078571D01*
X248907142Y-67126190D01*
X248954761Y-67173809D01*
X249002380Y-67269047D01*
X249002380Y-67411904D01*
X248335714Y-66650000D02*
X249002380Y-66650000D01*
X248430952Y-66650000D02*
X248383333Y-66602380D01*
X248335714Y-66507142D01*
X248335714Y-66364285D01*
X248383333Y-66269047D01*
X248478571Y-66221428D01*
X249002380Y-66221428D01*
X248335714Y-65745238D02*
X249002380Y-65745238D01*
X248430952Y-65745238D02*
X248383333Y-65697619D01*
X248335714Y-65602380D01*
X248335714Y-65459523D01*
X248383333Y-65364285D01*
X248478571Y-65316666D01*
X249002380Y-65316666D01*
X249097619Y-65078571D02*
X249097619Y-64316666D01*
X248002380Y-63888095D02*
X248002380Y-63792857D01*
X248050000Y-63697619D01*
X248097619Y-63650000D01*
X248192857Y-63602380D01*
X248383333Y-63554761D01*
X248621428Y-63554761D01*
X248811904Y-63602380D01*
X248907142Y-63650000D01*
X248954761Y-63697619D01*
X249002380Y-63792857D01*
X249002380Y-63888095D01*
X248954761Y-63983333D01*
X248907142Y-64030952D01*
X248811904Y-64078571D01*
X248621428Y-64126190D01*
X248383333Y-64126190D01*
X248192857Y-64078571D01*
X248097619Y-64030952D01*
X248050000Y-63983333D01*
X248002380Y-63888095D01*
X249002380Y-62602380D02*
X249002380Y-63173809D01*
X249002380Y-62888095D02*
X248002380Y-62888095D01*
X248145238Y-62983333D01*
X248240476Y-63078571D01*
X248288095Y-63173809D01*
X249002380Y-62269047D02*
X248335714Y-61745238D01*
X248335714Y-62269047D02*
X249002380Y-61745238D01*
X248002380Y-61173809D02*
X248002380Y-61078571D01*
X248050000Y-60983333D01*
X248097619Y-60935714D01*
X248192857Y-60888095D01*
X248383333Y-60840476D01*
X248621428Y-60840476D01*
X248811904Y-60888095D01*
X248907142Y-60935714D01*
X248954761Y-60983333D01*
X249002380Y-61078571D01*
X249002380Y-61173809D01*
X248954761Y-61269047D01*
X248907142Y-61316666D01*
X248811904Y-61364285D01*
X248621428Y-61411904D01*
X248383333Y-61411904D01*
X248192857Y-61364285D01*
X248097619Y-61316666D01*
X248050000Y-61269047D01*
X248002380Y-61173809D01*
X248002380Y-60507142D02*
X248002380Y-59888095D01*
X248383333Y-60221428D01*
X248383333Y-60078571D01*
X248430952Y-59983333D01*
X248478571Y-59935714D01*
X248573809Y-59888095D01*
X248811904Y-59888095D01*
X248907142Y-59935714D01*
X248954761Y-59983333D01*
X249002380Y-60078571D01*
X249002380Y-60364285D01*
X248954761Y-60459523D01*
X248907142Y-60507142D01*
X249097619Y-59697619D02*
X249097619Y-58935714D01*
X249002380Y-58697619D02*
X248002380Y-58697619D01*
X248716666Y-58364285D01*
X248002380Y-58030952D01*
X249002380Y-58030952D01*
X249002380Y-57126190D02*
X248478571Y-57126190D01*
X248383333Y-57173809D01*
X248335714Y-57269047D01*
X248335714Y-57459523D01*
X248383333Y-57554761D01*
X248954761Y-57126190D02*
X249002380Y-57221428D01*
X249002380Y-57459523D01*
X248954761Y-57554761D01*
X248859523Y-57602380D01*
X248764285Y-57602380D01*
X248669047Y-57554761D01*
X248621428Y-57459523D01*
X248621428Y-57221428D01*
X248573809Y-57126190D01*
X249002380Y-56507142D02*
X248954761Y-56602380D01*
X248859523Y-56650000D01*
X248002380Y-56650000D01*
X248954761Y-55745238D02*
X249002380Y-55840476D01*
X249002380Y-56030952D01*
X248954761Y-56126190D01*
X248859523Y-56173809D01*
X248478571Y-56173809D01*
X248383333Y-56126190D01*
X248335714Y-56030952D01*
X248335714Y-55840476D01*
X248383333Y-55745238D01*
X248478571Y-55697619D01*
X248573809Y-55697619D01*
X248669047Y-56173809D01*
X253116666Y-76052380D02*
X253116666Y-76766666D01*
X253069047Y-76909523D01*
X252973809Y-77004761D01*
X252830952Y-77052380D01*
X252735714Y-77052380D01*
X254021428Y-76385714D02*
X254021428Y-77052380D01*
X253783333Y-76004761D02*
X253545238Y-76719047D01*
X254164285Y-76719047D01*
%TO.C,J5*%
X247507142Y-67883333D02*
X247554761Y-67930952D01*
X247602380Y-68073809D01*
X247602380Y-68169047D01*
X247554761Y-68311904D01*
X247459523Y-68407142D01*
X247364285Y-68454761D01*
X247173809Y-68502380D01*
X247030952Y-68502380D01*
X246840476Y-68454761D01*
X246745238Y-68407142D01*
X246650000Y-68311904D01*
X246602380Y-68169047D01*
X246602380Y-68073809D01*
X246650000Y-67930952D01*
X246697619Y-67883333D01*
X247602380Y-67311904D02*
X247554761Y-67407142D01*
X247507142Y-67454761D01*
X247411904Y-67502380D01*
X247126190Y-67502380D01*
X247030952Y-67454761D01*
X246983333Y-67407142D01*
X246935714Y-67311904D01*
X246935714Y-67169047D01*
X246983333Y-67073809D01*
X247030952Y-67026190D01*
X247126190Y-66978571D01*
X247411904Y-66978571D01*
X247507142Y-67026190D01*
X247554761Y-67073809D01*
X247602380Y-67169047D01*
X247602380Y-67311904D01*
X246935714Y-66550000D02*
X247602380Y-66550000D01*
X247030952Y-66550000D02*
X246983333Y-66502380D01*
X246935714Y-66407142D01*
X246935714Y-66264285D01*
X246983333Y-66169047D01*
X247078571Y-66121428D01*
X247602380Y-66121428D01*
X246935714Y-65645238D02*
X247602380Y-65645238D01*
X247030952Y-65645238D02*
X246983333Y-65597619D01*
X246935714Y-65502380D01*
X246935714Y-65359523D01*
X246983333Y-65264285D01*
X247078571Y-65216666D01*
X247602380Y-65216666D01*
X247697619Y-64978571D02*
X247697619Y-64216666D01*
X246602380Y-63788095D02*
X246602380Y-63692857D01*
X246650000Y-63597619D01*
X246697619Y-63550000D01*
X246792857Y-63502380D01*
X246983333Y-63454761D01*
X247221428Y-63454761D01*
X247411904Y-63502380D01*
X247507142Y-63550000D01*
X247554761Y-63597619D01*
X247602380Y-63692857D01*
X247602380Y-63788095D01*
X247554761Y-63883333D01*
X247507142Y-63930952D01*
X247411904Y-63978571D01*
X247221428Y-64026190D01*
X246983333Y-64026190D01*
X246792857Y-63978571D01*
X246697619Y-63930952D01*
X246650000Y-63883333D01*
X246602380Y-63788095D01*
X247602380Y-62502380D02*
X247602380Y-63073809D01*
X247602380Y-62788095D02*
X246602380Y-62788095D01*
X246745238Y-62883333D01*
X246840476Y-62978571D01*
X246888095Y-63073809D01*
X247602380Y-62169047D02*
X246935714Y-61645238D01*
X246935714Y-62169047D02*
X247602380Y-61645238D01*
X246602380Y-61073809D02*
X246602380Y-60978571D01*
X246650000Y-60883333D01*
X246697619Y-60835714D01*
X246792857Y-60788095D01*
X246983333Y-60740476D01*
X247221428Y-60740476D01*
X247411904Y-60788095D01*
X247507142Y-60835714D01*
X247554761Y-60883333D01*
X247602380Y-60978571D01*
X247602380Y-61073809D01*
X247554761Y-61169047D01*
X247507142Y-61216666D01*
X247411904Y-61264285D01*
X247221428Y-61311904D01*
X246983333Y-61311904D01*
X246792857Y-61264285D01*
X246697619Y-61216666D01*
X246650000Y-61169047D01*
X246602380Y-61073809D01*
X246697619Y-60359523D02*
X246650000Y-60311904D01*
X246602380Y-60216666D01*
X246602380Y-59978571D01*
X246650000Y-59883333D01*
X246697619Y-59835714D01*
X246792857Y-59788095D01*
X246888095Y-59788095D01*
X247030952Y-59835714D01*
X247602380Y-60407142D01*
X247602380Y-59788095D01*
X247697619Y-59597619D02*
X247697619Y-58835714D01*
X247602380Y-58597619D02*
X246602380Y-58597619D01*
X247316666Y-58264285D01*
X246602380Y-57930952D01*
X247602380Y-57930952D01*
X247602380Y-57026190D02*
X247078571Y-57026190D01*
X246983333Y-57073809D01*
X246935714Y-57169047D01*
X246935714Y-57359523D01*
X246983333Y-57454761D01*
X247554761Y-57026190D02*
X247602380Y-57121428D01*
X247602380Y-57359523D01*
X247554761Y-57454761D01*
X247459523Y-57502380D01*
X247364285Y-57502380D01*
X247269047Y-57454761D01*
X247221428Y-57359523D01*
X247221428Y-57121428D01*
X247173809Y-57026190D01*
X247602380Y-56407142D02*
X247554761Y-56502380D01*
X247459523Y-56550000D01*
X246602380Y-56550000D01*
X247554761Y-55645238D02*
X247602380Y-55740476D01*
X247602380Y-55930952D01*
X247554761Y-56026190D01*
X247459523Y-56073809D01*
X247078571Y-56073809D01*
X246983333Y-56026190D01*
X246935714Y-55930952D01*
X246935714Y-55740476D01*
X246983333Y-55645238D01*
X247078571Y-55597619D01*
X247173809Y-55597619D01*
X247269047Y-56073809D01*
X253116666Y-77802380D02*
X253116666Y-78516666D01*
X253069047Y-78659523D01*
X252973809Y-78754761D01*
X252830952Y-78802380D01*
X252735714Y-78802380D01*
X254069047Y-77802380D02*
X253592857Y-77802380D01*
X253545238Y-78278571D01*
X253592857Y-78230952D01*
X253688095Y-78183333D01*
X253926190Y-78183333D01*
X254021428Y-78230952D01*
X254069047Y-78278571D01*
X254116666Y-78373809D01*
X254116666Y-78611904D01*
X254069047Y-78707142D01*
X254021428Y-78754761D01*
X253926190Y-78802380D01*
X253688095Y-78802380D01*
X253592857Y-78754761D01*
X253545238Y-78707142D01*
D15*
%TO.C,Y1*%
X214316666Y-72983333D02*
X214316666Y-73316666D01*
X214083333Y-72616666D02*
X214316666Y-72983333D01*
X214550000Y-72616666D01*
X215150000Y-73316666D02*
X214750000Y-73316666D01*
X214950000Y-73316666D02*
X214950000Y-72616666D01*
X214883333Y-72716666D01*
X214816666Y-72783333D01*
X214750000Y-72816666D01*
D11*
%TO.C,R11*%
X237351428Y-94105714D02*
X237351428Y-94772380D01*
X237113333Y-93724761D02*
X236875238Y-94439047D01*
X237494285Y-94439047D01*
X237875238Y-94677142D02*
X237922857Y-94724761D01*
X237875238Y-94772380D01*
X237827619Y-94724761D01*
X237875238Y-94677142D01*
X237875238Y-94772380D01*
X238256190Y-93772380D02*
X238922857Y-93772380D01*
X238494285Y-94772380D01*
X239303809Y-94772380D02*
X239303809Y-93772380D01*
X239399047Y-94391428D02*
X239684761Y-94772380D01*
X239684761Y-94105714D02*
X239303809Y-94486666D01*
X234037142Y-94842380D02*
X233703809Y-94366190D01*
X233465714Y-94842380D02*
X233465714Y-93842380D01*
X233846666Y-93842380D01*
X233941904Y-93890000D01*
X233989523Y-93937619D01*
X234037142Y-94032857D01*
X234037142Y-94175714D01*
X233989523Y-94270952D01*
X233941904Y-94318571D01*
X233846666Y-94366190D01*
X233465714Y-94366190D01*
X234989523Y-94842380D02*
X234418095Y-94842380D01*
X234703809Y-94842380D02*
X234703809Y-93842380D01*
X234608571Y-93985238D01*
X234513333Y-94080476D01*
X234418095Y-94128095D01*
X235941904Y-94842380D02*
X235370476Y-94842380D01*
X235656190Y-94842380D02*
X235656190Y-93842380D01*
X235560952Y-93985238D01*
X235465714Y-94080476D01*
X235370476Y-94128095D01*
%TO.C,D4*%
X203779047Y-89288571D02*
X203921904Y-89336190D01*
X203969523Y-89383809D01*
X204017142Y-89479047D01*
X204017142Y-89621904D01*
X203969523Y-89717142D01*
X203921904Y-89764761D01*
X203826666Y-89812380D01*
X203445714Y-89812380D01*
X203445714Y-88812380D01*
X203779047Y-88812380D01*
X203874285Y-88860000D01*
X203921904Y-88907619D01*
X203969523Y-89002857D01*
X203969523Y-89098095D01*
X203921904Y-89193333D01*
X203874285Y-89240952D01*
X203779047Y-89288571D01*
X203445714Y-89288571D01*
X204398095Y-89526666D02*
X204874285Y-89526666D01*
X204302857Y-89812380D02*
X204636190Y-88812380D01*
X204969523Y-89812380D01*
X205207619Y-88812380D02*
X205445714Y-89812380D01*
X205636190Y-89098095D01*
X205826666Y-89812380D01*
X206064761Y-88812380D01*
X206350476Y-88812380D02*
X207017142Y-88812380D01*
X206588571Y-89812380D01*
X207874285Y-88812380D02*
X207398095Y-88812380D01*
X207350476Y-89288571D01*
X207398095Y-89240952D01*
X207493333Y-89193333D01*
X207731428Y-89193333D01*
X207826666Y-89240952D01*
X207874285Y-89288571D01*
X207921904Y-89383809D01*
X207921904Y-89621904D01*
X207874285Y-89717142D01*
X207826666Y-89764761D01*
X207731428Y-89812380D01*
X207493333Y-89812380D01*
X207398095Y-89764761D01*
X207350476Y-89717142D01*
X204602380Y-54791904D02*
X203602380Y-54791904D01*
X204602380Y-54220476D02*
X204030952Y-54649047D01*
X203602380Y-54220476D02*
X204173809Y-54791904D01*
D16*
X201739523Y-89671904D02*
X201739523Y-88871904D01*
X201930000Y-88871904D01*
X202044285Y-88910000D01*
X202120476Y-88986190D01*
X202158571Y-89062380D01*
X202196666Y-89214761D01*
X202196666Y-89329047D01*
X202158571Y-89481428D01*
X202120476Y-89557619D01*
X202044285Y-89633809D01*
X201930000Y-89671904D01*
X201739523Y-89671904D01*
X202882380Y-89138571D02*
X202882380Y-89671904D01*
X202691904Y-88833809D02*
X202501428Y-89405238D01*
X202996666Y-89405238D01*
D11*
%TO.C,C14*%
X227587142Y-97277619D02*
X227634761Y-97230000D01*
X227730000Y-97182380D01*
X227968095Y-97182380D01*
X228063333Y-97230000D01*
X228110952Y-97277619D01*
X228158571Y-97372857D01*
X228158571Y-97468095D01*
X228110952Y-97610952D01*
X227539523Y-98182380D01*
X228158571Y-98182380D01*
X228777619Y-97182380D02*
X228872857Y-97182380D01*
X228968095Y-97230000D01*
X229015714Y-97277619D01*
X229063333Y-97372857D01*
X229110952Y-97563333D01*
X229110952Y-97801428D01*
X229063333Y-97991904D01*
X229015714Y-98087142D01*
X228968095Y-98134761D01*
X228872857Y-98182380D01*
X228777619Y-98182380D01*
X228682380Y-98134761D01*
X228634761Y-98087142D01*
X228587142Y-97991904D01*
X228539523Y-97801428D01*
X228539523Y-97563333D01*
X228587142Y-97372857D01*
X228634761Y-97277619D01*
X228682380Y-97230000D01*
X228777619Y-97182380D01*
X229968095Y-97515714D02*
X229968095Y-98182380D01*
X229539523Y-97515714D02*
X229539523Y-98039523D01*
X229587142Y-98134761D01*
X229682380Y-98182380D01*
X229825238Y-98182380D01*
X229920476Y-98134761D01*
X229968095Y-98087142D01*
X230777619Y-97658571D02*
X230444285Y-97658571D01*
X230444285Y-98182380D02*
X230444285Y-97182380D01*
X230920476Y-97182380D01*
X224997142Y-98277142D02*
X224949523Y-98324761D01*
X224806666Y-98372380D01*
X224711428Y-98372380D01*
X224568571Y-98324761D01*
X224473333Y-98229523D01*
X224425714Y-98134285D01*
X224378095Y-97943809D01*
X224378095Y-97800952D01*
X224425714Y-97610476D01*
X224473333Y-97515238D01*
X224568571Y-97420000D01*
X224711428Y-97372380D01*
X224806666Y-97372380D01*
X224949523Y-97420000D01*
X224997142Y-97467619D01*
X225949523Y-98372380D02*
X225378095Y-98372380D01*
X225663809Y-98372380D02*
X225663809Y-97372380D01*
X225568571Y-97515238D01*
X225473333Y-97610476D01*
X225378095Y-97658095D01*
X226806666Y-97705714D02*
X226806666Y-98372380D01*
X226568571Y-97324761D02*
X226330476Y-98039047D01*
X226949523Y-98039047D01*
%TO.C,L2*%
X208109523Y-60452380D02*
X207633333Y-60452380D01*
X207633333Y-59452380D01*
X207533333Y-58452380D02*
X207057142Y-58452380D01*
X207057142Y-57452380D01*
X207819047Y-57547619D02*
X207866666Y-57500000D01*
X207961904Y-57452380D01*
X208200000Y-57452380D01*
X208295238Y-57500000D01*
X208342857Y-57547619D01*
X208390476Y-57642857D01*
X208390476Y-57738095D01*
X208342857Y-57880952D01*
X207771428Y-58452380D01*
X208390476Y-58452380D01*
%TO.C,D1*%
X203669047Y-84728571D02*
X203811904Y-84776190D01*
X203859523Y-84823809D01*
X203907142Y-84919047D01*
X203907142Y-85061904D01*
X203859523Y-85157142D01*
X203811904Y-85204761D01*
X203716666Y-85252380D01*
X203335714Y-85252380D01*
X203335714Y-84252380D01*
X203669047Y-84252380D01*
X203764285Y-84300000D01*
X203811904Y-84347619D01*
X203859523Y-84442857D01*
X203859523Y-84538095D01*
X203811904Y-84633333D01*
X203764285Y-84680952D01*
X203669047Y-84728571D01*
X203335714Y-84728571D01*
X204288095Y-84966666D02*
X204764285Y-84966666D01*
X204192857Y-85252380D02*
X204526190Y-84252380D01*
X204859523Y-85252380D01*
X205097619Y-84252380D02*
X205335714Y-85252380D01*
X205526190Y-84538095D01*
X205716666Y-85252380D01*
X205954761Y-84252380D01*
X206240476Y-84252380D02*
X206907142Y-84252380D01*
X206478571Y-85252380D01*
X207764285Y-84252380D02*
X207288095Y-84252380D01*
X207240476Y-84728571D01*
X207288095Y-84680952D01*
X207383333Y-84633333D01*
X207621428Y-84633333D01*
X207716666Y-84680952D01*
X207764285Y-84728571D01*
X207811904Y-84823809D01*
X207811904Y-85061904D01*
X207764285Y-85157142D01*
X207716666Y-85204761D01*
X207621428Y-85252380D01*
X207383333Y-85252380D01*
X207288095Y-85204761D01*
X207240476Y-85157142D01*
D16*
X201709523Y-85211904D02*
X201709523Y-84411904D01*
X201900000Y-84411904D01*
X202014285Y-84450000D01*
X202090476Y-84526190D01*
X202128571Y-84602380D01*
X202166666Y-84754761D01*
X202166666Y-84869047D01*
X202128571Y-85021428D01*
X202090476Y-85097619D01*
X202014285Y-85173809D01*
X201900000Y-85211904D01*
X201709523Y-85211904D01*
X202928571Y-85211904D02*
X202471428Y-85211904D01*
X202700000Y-85211904D02*
X202700000Y-84411904D01*
X202623809Y-84526190D01*
X202547619Y-84602380D01*
X202471428Y-84640476D01*
D11*
X202502380Y-75831904D02*
X201502380Y-75831904D01*
X202502380Y-75260476D02*
X201930952Y-75689047D01*
X201502380Y-75260476D02*
X202073809Y-75831904D01*
%TO.C,C15*%
X227627142Y-98747619D02*
X227674761Y-98700000D01*
X227770000Y-98652380D01*
X228008095Y-98652380D01*
X228103333Y-98700000D01*
X228150952Y-98747619D01*
X228198571Y-98842857D01*
X228198571Y-98938095D01*
X228150952Y-99080952D01*
X227579523Y-99652380D01*
X228198571Y-99652380D01*
X228817619Y-98652380D02*
X228912857Y-98652380D01*
X229008095Y-98700000D01*
X229055714Y-98747619D01*
X229103333Y-98842857D01*
X229150952Y-99033333D01*
X229150952Y-99271428D01*
X229103333Y-99461904D01*
X229055714Y-99557142D01*
X229008095Y-99604761D01*
X228912857Y-99652380D01*
X228817619Y-99652380D01*
X228722380Y-99604761D01*
X228674761Y-99557142D01*
X228627142Y-99461904D01*
X228579523Y-99271428D01*
X228579523Y-99033333D01*
X228627142Y-98842857D01*
X228674761Y-98747619D01*
X228722380Y-98700000D01*
X228817619Y-98652380D01*
X230008095Y-98985714D02*
X230008095Y-99652380D01*
X229579523Y-98985714D02*
X229579523Y-99509523D01*
X229627142Y-99604761D01*
X229722380Y-99652380D01*
X229865238Y-99652380D01*
X229960476Y-99604761D01*
X230008095Y-99557142D01*
X230817619Y-99128571D02*
X230484285Y-99128571D01*
X230484285Y-99652380D02*
X230484285Y-98652380D01*
X230960476Y-98652380D01*
X224997142Y-99597142D02*
X224949523Y-99644761D01*
X224806666Y-99692380D01*
X224711428Y-99692380D01*
X224568571Y-99644761D01*
X224473333Y-99549523D01*
X224425714Y-99454285D01*
X224378095Y-99263809D01*
X224378095Y-99120952D01*
X224425714Y-98930476D01*
X224473333Y-98835238D01*
X224568571Y-98740000D01*
X224711428Y-98692380D01*
X224806666Y-98692380D01*
X224949523Y-98740000D01*
X224997142Y-98787619D01*
X225949523Y-99692380D02*
X225378095Y-99692380D01*
X225663809Y-99692380D02*
X225663809Y-98692380D01*
X225568571Y-98835238D01*
X225473333Y-98930476D01*
X225378095Y-98978095D01*
X226854285Y-98692380D02*
X226378095Y-98692380D01*
X226330476Y-99168571D01*
X226378095Y-99120952D01*
X226473333Y-99073333D01*
X226711428Y-99073333D01*
X226806666Y-99120952D01*
X226854285Y-99168571D01*
X226901904Y-99263809D01*
X226901904Y-99501904D01*
X226854285Y-99597142D01*
X226806666Y-99644761D01*
X226711428Y-99692380D01*
X226473333Y-99692380D01*
X226378095Y-99644761D01*
X226330476Y-99597142D01*
%TO.C,U1*%
X255000000Y-71966666D02*
X255476190Y-71966666D01*
X254904761Y-72252380D02*
X255238095Y-71252380D01*
X255571428Y-72252380D01*
X255904761Y-72252380D02*
X255904761Y-71252380D01*
X256238095Y-71966666D01*
X256571428Y-71252380D01*
X256571428Y-72252380D01*
X257000000Y-72204761D02*
X257142857Y-72252380D01*
X257380952Y-72252380D01*
X257476190Y-72204761D01*
X257523809Y-72157142D01*
X257571428Y-72061904D01*
X257571428Y-71966666D01*
X257523809Y-71871428D01*
X257476190Y-71823809D01*
X257380952Y-71776190D01*
X257190476Y-71728571D01*
X257095238Y-71680952D01*
X257047619Y-71633333D01*
X257000000Y-71538095D01*
X257000000Y-71442857D01*
X257047619Y-71347619D01*
X257095238Y-71300000D01*
X257190476Y-71252380D01*
X257428571Y-71252380D01*
X257571428Y-71300000D01*
X258523809Y-72252380D02*
X257952380Y-72252380D01*
X258238095Y-72252380D02*
X258238095Y-71252380D01*
X258142857Y-71395238D01*
X258047619Y-71490476D01*
X257952380Y-71538095D01*
X259476190Y-72252380D02*
X258904761Y-72252380D01*
X259190476Y-72252380D02*
X259190476Y-71252380D01*
X259095238Y-71395238D01*
X259000000Y-71490476D01*
X258904761Y-71538095D01*
X260428571Y-72252380D02*
X259857142Y-72252380D01*
X260142857Y-72252380D02*
X260142857Y-71252380D01*
X260047619Y-71395238D01*
X259952380Y-71490476D01*
X259857142Y-71538095D01*
X260761904Y-71252380D02*
X261428571Y-71252380D01*
X261000000Y-72252380D01*
X261809523Y-71871428D02*
X262571428Y-71871428D01*
X262952380Y-71252380D02*
X263571428Y-71252380D01*
X263238095Y-71633333D01*
X263380952Y-71633333D01*
X263476190Y-71680952D01*
X263523809Y-71728571D01*
X263571428Y-71823809D01*
X263571428Y-72061904D01*
X263523809Y-72157142D01*
X263476190Y-72204761D01*
X263380952Y-72252380D01*
X263095238Y-72252380D01*
X263000000Y-72204761D01*
X262952380Y-72157142D01*
X264000000Y-72157142D02*
X264047619Y-72204761D01*
X264000000Y-72252380D01*
X263952380Y-72204761D01*
X264000000Y-72157142D01*
X264000000Y-72252380D01*
X264380952Y-71252380D02*
X265000000Y-71252380D01*
X264666666Y-71633333D01*
X264809523Y-71633333D01*
X264904761Y-71680952D01*
X264952380Y-71728571D01*
X265000000Y-71823809D01*
X265000000Y-72061904D01*
X264952380Y-72157142D01*
X264904761Y-72204761D01*
X264809523Y-72252380D01*
X264523809Y-72252380D01*
X264428571Y-72204761D01*
X264380952Y-72157142D01*
D16*
X253690476Y-79811904D02*
X253690476Y-80459523D01*
X253728571Y-80535714D01*
X253766666Y-80573809D01*
X253842857Y-80611904D01*
X253995238Y-80611904D01*
X254071428Y-80573809D01*
X254109523Y-80535714D01*
X254147619Y-80459523D01*
X254147619Y-79811904D01*
X254947619Y-80611904D02*
X254490476Y-80611904D01*
X254719047Y-80611904D02*
X254719047Y-79811904D01*
X254642857Y-79926190D01*
X254566666Y-80002380D01*
X254490476Y-80040476D01*
D11*
%TO.C,D3*%
X203779047Y-87668571D02*
X203921904Y-87716190D01*
X203969523Y-87763809D01*
X204017142Y-87859047D01*
X204017142Y-88001904D01*
X203969523Y-88097142D01*
X203921904Y-88144761D01*
X203826666Y-88192380D01*
X203445714Y-88192380D01*
X203445714Y-87192380D01*
X203779047Y-87192380D01*
X203874285Y-87240000D01*
X203921904Y-87287619D01*
X203969523Y-87382857D01*
X203969523Y-87478095D01*
X203921904Y-87573333D01*
X203874285Y-87620952D01*
X203779047Y-87668571D01*
X203445714Y-87668571D01*
X204398095Y-87906666D02*
X204874285Y-87906666D01*
X204302857Y-88192380D02*
X204636190Y-87192380D01*
X204969523Y-88192380D01*
X205207619Y-87192380D02*
X205445714Y-88192380D01*
X205636190Y-87478095D01*
X205826666Y-88192380D01*
X206064761Y-87192380D01*
X206350476Y-87192380D02*
X207017142Y-87192380D01*
X206588571Y-88192380D01*
X207874285Y-87192380D02*
X207398095Y-87192380D01*
X207350476Y-87668571D01*
X207398095Y-87620952D01*
X207493333Y-87573333D01*
X207731428Y-87573333D01*
X207826666Y-87620952D01*
X207874285Y-87668571D01*
X207921904Y-87763809D01*
X207921904Y-88001904D01*
X207874285Y-88097142D01*
X207826666Y-88144761D01*
X207731428Y-88192380D01*
X207493333Y-88192380D01*
X207398095Y-88144761D01*
X207350476Y-88097142D01*
D16*
X201789523Y-88221904D02*
X201789523Y-87421904D01*
X201980000Y-87421904D01*
X202094285Y-87460000D01*
X202170476Y-87536190D01*
X202208571Y-87612380D01*
X202246666Y-87764761D01*
X202246666Y-87879047D01*
X202208571Y-88031428D01*
X202170476Y-88107619D01*
X202094285Y-88183809D01*
X201980000Y-88221904D01*
X201789523Y-88221904D01*
X202513333Y-87421904D02*
X203008571Y-87421904D01*
X202741904Y-87726666D01*
X202856190Y-87726666D01*
X202932380Y-87764761D01*
X202970476Y-87802857D01*
X203008571Y-87879047D01*
X203008571Y-88069523D01*
X202970476Y-88145714D01*
X202932380Y-88183809D01*
X202856190Y-88221904D01*
X202627619Y-88221904D01*
X202551428Y-88183809D01*
X202513333Y-88145714D01*
D11*
X205652380Y-47161904D02*
X204652380Y-47161904D01*
X205652380Y-46590476D02*
X205080952Y-47019047D01*
X204652380Y-46590476D02*
X205223809Y-47161904D01*
%TO.C,L1*%
X198829523Y-57562380D02*
X198353333Y-57562380D01*
X198353333Y-56562380D01*
X198353333Y-61812380D02*
X197877142Y-61812380D01*
X197877142Y-60812380D01*
X199210476Y-61812380D02*
X198639047Y-61812380D01*
X198924761Y-61812380D02*
X198924761Y-60812380D01*
X198829523Y-60955238D01*
X198734285Y-61050476D01*
X198639047Y-61098095D01*
%TO.C,U3*%
X255000000Y-74966666D02*
X255476190Y-74966666D01*
X254904761Y-75252380D02*
X255238095Y-74252380D01*
X255571428Y-75252380D01*
X255904761Y-75252380D02*
X255904761Y-74252380D01*
X256238095Y-74966666D01*
X256571428Y-74252380D01*
X256571428Y-75252380D01*
X257000000Y-75204761D02*
X257142857Y-75252380D01*
X257380952Y-75252380D01*
X257476190Y-75204761D01*
X257523809Y-75157142D01*
X257571428Y-75061904D01*
X257571428Y-74966666D01*
X257523809Y-74871428D01*
X257476190Y-74823809D01*
X257380952Y-74776190D01*
X257190476Y-74728571D01*
X257095238Y-74680952D01*
X257047619Y-74633333D01*
X257000000Y-74538095D01*
X257000000Y-74442857D01*
X257047619Y-74347619D01*
X257095238Y-74300000D01*
X257190476Y-74252380D01*
X257428571Y-74252380D01*
X257571428Y-74300000D01*
X258523809Y-75252380D02*
X257952380Y-75252380D01*
X258238095Y-75252380D02*
X258238095Y-74252380D01*
X258142857Y-74395238D01*
X258047619Y-74490476D01*
X257952380Y-74538095D01*
X259476190Y-75252380D02*
X258904761Y-75252380D01*
X259190476Y-75252380D02*
X259190476Y-74252380D01*
X259095238Y-74395238D01*
X259000000Y-74490476D01*
X258904761Y-74538095D01*
X260428571Y-75252380D02*
X259857142Y-75252380D01*
X260142857Y-75252380D02*
X260142857Y-74252380D01*
X260047619Y-74395238D01*
X259952380Y-74490476D01*
X259857142Y-74538095D01*
X260761904Y-74252380D02*
X261428571Y-74252380D01*
X261000000Y-75252380D01*
X261809523Y-74871428D02*
X262571428Y-74871428D01*
X263523809Y-74252380D02*
X263047619Y-74252380D01*
X263000000Y-74728571D01*
X263047619Y-74680952D01*
X263142857Y-74633333D01*
X263380952Y-74633333D01*
X263476190Y-74680952D01*
X263523809Y-74728571D01*
X263571428Y-74823809D01*
X263571428Y-75061904D01*
X263523809Y-75157142D01*
X263476190Y-75204761D01*
X263380952Y-75252380D01*
X263142857Y-75252380D01*
X263047619Y-75204761D01*
X263000000Y-75157142D01*
X264000000Y-75157142D02*
X264047619Y-75204761D01*
X264000000Y-75252380D01*
X263952380Y-75204761D01*
X264000000Y-75157142D01*
X264000000Y-75252380D01*
X264666666Y-74252380D02*
X264761904Y-74252380D01*
X264857142Y-74300000D01*
X264904761Y-74347619D01*
X264952380Y-74442857D01*
X265000000Y-74633333D01*
X265000000Y-74871428D01*
X264952380Y-75061904D01*
X264904761Y-75157142D01*
X264857142Y-75204761D01*
X264761904Y-75252380D01*
X264666666Y-75252380D01*
X264571428Y-75204761D01*
X264523809Y-75157142D01*
X264476190Y-75061904D01*
X264428571Y-74871428D01*
X264428571Y-74633333D01*
X264476190Y-74442857D01*
X264523809Y-74347619D01*
X264571428Y-74300000D01*
X264666666Y-74252380D01*
D16*
X214990476Y-51911904D02*
X214990476Y-52559523D01*
X215028571Y-52635714D01*
X215066666Y-52673809D01*
X215142857Y-52711904D01*
X215295238Y-52711904D01*
X215371428Y-52673809D01*
X215409523Y-52635714D01*
X215447619Y-52559523D01*
X215447619Y-51911904D01*
X215752380Y-51911904D02*
X216247619Y-51911904D01*
X215980952Y-52216666D01*
X216095238Y-52216666D01*
X216171428Y-52254761D01*
X216209523Y-52292857D01*
X216247619Y-52369047D01*
X216247619Y-52559523D01*
X216209523Y-52635714D01*
X216171428Y-52673809D01*
X216095238Y-52711904D01*
X215866666Y-52711904D01*
X215790476Y-52673809D01*
X215752380Y-52635714D01*
D11*
%TO.C,J6*%
X250257142Y-67883333D02*
X250304761Y-67930952D01*
X250352380Y-68073809D01*
X250352380Y-68169047D01*
X250304761Y-68311904D01*
X250209523Y-68407142D01*
X250114285Y-68454761D01*
X249923809Y-68502380D01*
X249780952Y-68502380D01*
X249590476Y-68454761D01*
X249495238Y-68407142D01*
X249400000Y-68311904D01*
X249352380Y-68169047D01*
X249352380Y-68073809D01*
X249400000Y-67930952D01*
X249447619Y-67883333D01*
X250352380Y-67311904D02*
X250304761Y-67407142D01*
X250257142Y-67454761D01*
X250161904Y-67502380D01*
X249876190Y-67502380D01*
X249780952Y-67454761D01*
X249733333Y-67407142D01*
X249685714Y-67311904D01*
X249685714Y-67169047D01*
X249733333Y-67073809D01*
X249780952Y-67026190D01*
X249876190Y-66978571D01*
X250161904Y-66978571D01*
X250257142Y-67026190D01*
X250304761Y-67073809D01*
X250352380Y-67169047D01*
X250352380Y-67311904D01*
X249685714Y-66550000D02*
X250352380Y-66550000D01*
X249780952Y-66550000D02*
X249733333Y-66502380D01*
X249685714Y-66407142D01*
X249685714Y-66264285D01*
X249733333Y-66169047D01*
X249828571Y-66121428D01*
X250352380Y-66121428D01*
X249685714Y-65645238D02*
X250352380Y-65645238D01*
X249780952Y-65645238D02*
X249733333Y-65597619D01*
X249685714Y-65502380D01*
X249685714Y-65359523D01*
X249733333Y-65264285D01*
X249828571Y-65216666D01*
X250352380Y-65216666D01*
X250447619Y-64978571D02*
X250447619Y-64216666D01*
X249352380Y-63788095D02*
X249352380Y-63692857D01*
X249400000Y-63597619D01*
X249447619Y-63550000D01*
X249542857Y-63502380D01*
X249733333Y-63454761D01*
X249971428Y-63454761D01*
X250161904Y-63502380D01*
X250257142Y-63550000D01*
X250304761Y-63597619D01*
X250352380Y-63692857D01*
X250352380Y-63788095D01*
X250304761Y-63883333D01*
X250257142Y-63930952D01*
X250161904Y-63978571D01*
X249971428Y-64026190D01*
X249733333Y-64026190D01*
X249542857Y-63978571D01*
X249447619Y-63930952D01*
X249400000Y-63883333D01*
X249352380Y-63788095D01*
X250352380Y-62502380D02*
X250352380Y-63073809D01*
X250352380Y-62788095D02*
X249352380Y-62788095D01*
X249495238Y-62883333D01*
X249590476Y-62978571D01*
X249638095Y-63073809D01*
X250352380Y-62169047D02*
X249685714Y-61645238D01*
X249685714Y-62169047D02*
X250352380Y-61645238D01*
X249352380Y-61073809D02*
X249352380Y-60978571D01*
X249400000Y-60883333D01*
X249447619Y-60835714D01*
X249542857Y-60788095D01*
X249733333Y-60740476D01*
X249971428Y-60740476D01*
X250161904Y-60788095D01*
X250257142Y-60835714D01*
X250304761Y-60883333D01*
X250352380Y-60978571D01*
X250352380Y-61073809D01*
X250304761Y-61169047D01*
X250257142Y-61216666D01*
X250161904Y-61264285D01*
X249971428Y-61311904D01*
X249733333Y-61311904D01*
X249542857Y-61264285D01*
X249447619Y-61216666D01*
X249400000Y-61169047D01*
X249352380Y-61073809D01*
X249352380Y-59883333D02*
X249352380Y-60073809D01*
X249400000Y-60169047D01*
X249447619Y-60216666D01*
X249590476Y-60311904D01*
X249780952Y-60359523D01*
X250161904Y-60359523D01*
X250257142Y-60311904D01*
X250304761Y-60264285D01*
X250352380Y-60169047D01*
X250352380Y-59978571D01*
X250304761Y-59883333D01*
X250257142Y-59835714D01*
X250161904Y-59788095D01*
X249923809Y-59788095D01*
X249828571Y-59835714D01*
X249780952Y-59883333D01*
X249733333Y-59978571D01*
X249733333Y-60169047D01*
X249780952Y-60264285D01*
X249828571Y-60311904D01*
X249923809Y-60359523D01*
X250447619Y-59597619D02*
X250447619Y-58835714D01*
X250352380Y-58597619D02*
X249352380Y-58597619D01*
X250066666Y-58264285D01*
X249352380Y-57930952D01*
X250352380Y-57930952D01*
X250352380Y-57026190D02*
X249828571Y-57026190D01*
X249733333Y-57073809D01*
X249685714Y-57169047D01*
X249685714Y-57359523D01*
X249733333Y-57454761D01*
X250304761Y-57026190D02*
X250352380Y-57121428D01*
X250352380Y-57359523D01*
X250304761Y-57454761D01*
X250209523Y-57502380D01*
X250114285Y-57502380D01*
X250019047Y-57454761D01*
X249971428Y-57359523D01*
X249971428Y-57121428D01*
X249923809Y-57026190D01*
X250352380Y-56407142D02*
X250304761Y-56502380D01*
X250209523Y-56550000D01*
X249352380Y-56550000D01*
X250304761Y-55645238D02*
X250352380Y-55740476D01*
X250352380Y-55930952D01*
X250304761Y-56026190D01*
X250209523Y-56073809D01*
X249828571Y-56073809D01*
X249733333Y-56026190D01*
X249685714Y-55930952D01*
X249685714Y-55740476D01*
X249733333Y-55645238D01*
X249828571Y-55597619D01*
X249923809Y-55597619D01*
X250019047Y-56073809D01*
X234052380Y-60583333D02*
X234766666Y-60583333D01*
X234909523Y-60630952D01*
X235004761Y-60726190D01*
X235052380Y-60869047D01*
X235052380Y-60964285D01*
X234052380Y-59678571D02*
X234052380Y-59869047D01*
X234100000Y-59964285D01*
X234147619Y-60011904D01*
X234290476Y-60107142D01*
X234480952Y-60154761D01*
X234861904Y-60154761D01*
X234957142Y-60107142D01*
X235004761Y-60059523D01*
X235052380Y-59964285D01*
X235052380Y-59773809D01*
X235004761Y-59678571D01*
X234957142Y-59630952D01*
X234861904Y-59583333D01*
X234623809Y-59583333D01*
X234528571Y-59630952D01*
X234480952Y-59678571D01*
X234433333Y-59773809D01*
X234433333Y-59964285D01*
X234480952Y-60059523D01*
X234528571Y-60107142D01*
X234623809Y-60154761D01*
%TO.C,D2*%
X203719047Y-86078571D02*
X203861904Y-86126190D01*
X203909523Y-86173809D01*
X203957142Y-86269047D01*
X203957142Y-86411904D01*
X203909523Y-86507142D01*
X203861904Y-86554761D01*
X203766666Y-86602380D01*
X203385714Y-86602380D01*
X203385714Y-85602380D01*
X203719047Y-85602380D01*
X203814285Y-85650000D01*
X203861904Y-85697619D01*
X203909523Y-85792857D01*
X203909523Y-85888095D01*
X203861904Y-85983333D01*
X203814285Y-86030952D01*
X203719047Y-86078571D01*
X203385714Y-86078571D01*
X204338095Y-86316666D02*
X204814285Y-86316666D01*
X204242857Y-86602380D02*
X204576190Y-85602380D01*
X204909523Y-86602380D01*
X205147619Y-85602380D02*
X205385714Y-86602380D01*
X205576190Y-85888095D01*
X205766666Y-86602380D01*
X206004761Y-85602380D01*
X206290476Y-85602380D02*
X206957142Y-85602380D01*
X206528571Y-86602380D01*
X207814285Y-85602380D02*
X207338095Y-85602380D01*
X207290476Y-86078571D01*
X207338095Y-86030952D01*
X207433333Y-85983333D01*
X207671428Y-85983333D01*
X207766666Y-86030952D01*
X207814285Y-86078571D01*
X207861904Y-86173809D01*
X207861904Y-86411904D01*
X207814285Y-86507142D01*
X207766666Y-86554761D01*
X207671428Y-86602380D01*
X207433333Y-86602380D01*
X207338095Y-86554761D01*
X207290476Y-86507142D01*
D16*
X201759523Y-86561904D02*
X201759523Y-85761904D01*
X201950000Y-85761904D01*
X202064285Y-85800000D01*
X202140476Y-85876190D01*
X202178571Y-85952380D01*
X202216666Y-86104761D01*
X202216666Y-86219047D01*
X202178571Y-86371428D01*
X202140476Y-86447619D01*
X202064285Y-86523809D01*
X201950000Y-86561904D01*
X201759523Y-86561904D01*
X202521428Y-85838095D02*
X202559523Y-85800000D01*
X202635714Y-85761904D01*
X202826190Y-85761904D01*
X202902380Y-85800000D01*
X202940476Y-85838095D01*
X202978571Y-85914285D01*
X202978571Y-85990476D01*
X202940476Y-86104761D01*
X202483333Y-86561904D01*
X202978571Y-86561904D01*
D11*
X208702380Y-68211904D02*
X207702380Y-68211904D01*
X208702380Y-67640476D02*
X208130952Y-68069047D01*
X207702380Y-67640476D02*
X208273809Y-68211904D01*
%TO.C,C1*%
X227757142Y-83402380D02*
X227185714Y-83402380D01*
X227471428Y-83402380D02*
X227471428Y-82402380D01*
X227376190Y-82545238D01*
X227280952Y-82640476D01*
X227185714Y-82688095D01*
X228376190Y-82402380D02*
X228471428Y-82402380D01*
X228566666Y-82450000D01*
X228614285Y-82497619D01*
X228661904Y-82592857D01*
X228709523Y-82783333D01*
X228709523Y-83021428D01*
X228661904Y-83211904D01*
X228614285Y-83307142D01*
X228566666Y-83354761D01*
X228471428Y-83402380D01*
X228376190Y-83402380D01*
X228280952Y-83354761D01*
X228233333Y-83307142D01*
X228185714Y-83211904D01*
X228138095Y-83021428D01*
X228138095Y-82783333D01*
X228185714Y-82592857D01*
X228233333Y-82497619D01*
X228280952Y-82450000D01*
X228376190Y-82402380D01*
X229138095Y-82735714D02*
X229138095Y-83402380D01*
X229138095Y-82830952D02*
X229185714Y-82783333D01*
X229280952Y-82735714D01*
X229423809Y-82735714D01*
X229519047Y-82783333D01*
X229566666Y-82878571D01*
X229566666Y-83402380D01*
D16*
X224916666Y-83385714D02*
X224878571Y-83423809D01*
X224764285Y-83461904D01*
X224688095Y-83461904D01*
X224573809Y-83423809D01*
X224497619Y-83347619D01*
X224459523Y-83271428D01*
X224421428Y-83119047D01*
X224421428Y-83004761D01*
X224459523Y-82852380D01*
X224497619Y-82776190D01*
X224573809Y-82700000D01*
X224688095Y-82661904D01*
X224764285Y-82661904D01*
X224878571Y-82700000D01*
X224916666Y-82738095D01*
X225678571Y-83461904D02*
X225221428Y-83461904D01*
X225450000Y-83461904D02*
X225450000Y-82661904D01*
X225373809Y-82776190D01*
X225297619Y-82852380D01*
X225221428Y-82890476D01*
D11*
%TO.C,C2*%
X227157142Y-83764619D02*
X227204761Y-83717000D01*
X227300000Y-83669380D01*
X227538095Y-83669380D01*
X227633333Y-83717000D01*
X227680952Y-83764619D01*
X227728571Y-83859857D01*
X227728571Y-83955095D01*
X227680952Y-84097952D01*
X227109523Y-84669380D01*
X227728571Y-84669380D01*
X228109523Y-83764619D02*
X228157142Y-83717000D01*
X228252380Y-83669380D01*
X228490476Y-83669380D01*
X228585714Y-83717000D01*
X228633333Y-83764619D01*
X228680952Y-83859857D01*
X228680952Y-83955095D01*
X228633333Y-84097952D01*
X228061904Y-84669380D01*
X228680952Y-84669380D01*
X229109523Y-84002714D02*
X229109523Y-85002714D01*
X229109523Y-84050333D02*
X229204761Y-84002714D01*
X229395238Y-84002714D01*
X229490476Y-84050333D01*
X229538095Y-84097952D01*
X229585714Y-84193190D01*
X229585714Y-84478904D01*
X229538095Y-84574142D01*
X229490476Y-84621761D01*
X229395238Y-84669380D01*
X229204761Y-84669380D01*
X229109523Y-84621761D01*
X230347619Y-84145571D02*
X230014285Y-84145571D01*
X230014285Y-84669380D02*
X230014285Y-83669380D01*
X230490476Y-83669380D01*
D16*
X224836666Y-84575714D02*
X224798571Y-84613809D01*
X224684285Y-84651904D01*
X224608095Y-84651904D01*
X224493809Y-84613809D01*
X224417619Y-84537619D01*
X224379523Y-84461428D01*
X224341428Y-84309047D01*
X224341428Y-84194761D01*
X224379523Y-84042380D01*
X224417619Y-83966190D01*
X224493809Y-83890000D01*
X224608095Y-83851904D01*
X224684285Y-83851904D01*
X224798571Y-83890000D01*
X224836666Y-83928095D01*
X225141428Y-83928095D02*
X225179523Y-83890000D01*
X225255714Y-83851904D01*
X225446190Y-83851904D01*
X225522380Y-83890000D01*
X225560476Y-83928095D01*
X225598571Y-84004285D01*
X225598571Y-84080476D01*
X225560476Y-84194761D01*
X225103333Y-84651904D01*
X225598571Y-84651904D01*
D11*
%TO.C,C3*%
X227257142Y-85147619D02*
X227304761Y-85100000D01*
X227400000Y-85052380D01*
X227638095Y-85052380D01*
X227733333Y-85100000D01*
X227780952Y-85147619D01*
X227828571Y-85242857D01*
X227828571Y-85338095D01*
X227780952Y-85480952D01*
X227209523Y-86052380D01*
X227828571Y-86052380D01*
X228209523Y-85147619D02*
X228257142Y-85100000D01*
X228352380Y-85052380D01*
X228590476Y-85052380D01*
X228685714Y-85100000D01*
X228733333Y-85147619D01*
X228780952Y-85242857D01*
X228780952Y-85338095D01*
X228733333Y-85480952D01*
X228161904Y-86052380D01*
X228780952Y-86052380D01*
X229209523Y-85385714D02*
X229209523Y-86385714D01*
X229209523Y-85433333D02*
X229304761Y-85385714D01*
X229495238Y-85385714D01*
X229590476Y-85433333D01*
X229638095Y-85480952D01*
X229685714Y-85576190D01*
X229685714Y-85861904D01*
X229638095Y-85957142D01*
X229590476Y-86004761D01*
X229495238Y-86052380D01*
X229304761Y-86052380D01*
X229209523Y-86004761D01*
X230447619Y-85528571D02*
X230114285Y-85528571D01*
X230114285Y-86052380D02*
X230114285Y-85052380D01*
X230590476Y-85052380D01*
D16*
X224786666Y-85835714D02*
X224748571Y-85873809D01*
X224634285Y-85911904D01*
X224558095Y-85911904D01*
X224443809Y-85873809D01*
X224367619Y-85797619D01*
X224329523Y-85721428D01*
X224291428Y-85569047D01*
X224291428Y-85454761D01*
X224329523Y-85302380D01*
X224367619Y-85226190D01*
X224443809Y-85150000D01*
X224558095Y-85111904D01*
X224634285Y-85111904D01*
X224748571Y-85150000D01*
X224786666Y-85188095D01*
X225053333Y-85111904D02*
X225548571Y-85111904D01*
X225281904Y-85416666D01*
X225396190Y-85416666D01*
X225472380Y-85454761D01*
X225510476Y-85492857D01*
X225548571Y-85569047D01*
X225548571Y-85759523D01*
X225510476Y-85835714D01*
X225472380Y-85873809D01*
X225396190Y-85911904D01*
X225167619Y-85911904D01*
X225091428Y-85873809D01*
X225053333Y-85835714D01*
D11*
%TO.C,R1*%
X236433333Y-82652380D02*
X235861904Y-82652380D01*
X236147619Y-82652380D02*
X236147619Y-81652380D01*
X236052380Y-81795238D01*
X235957142Y-81890476D01*
X235861904Y-81938095D01*
X237052380Y-81652380D02*
X237147619Y-81652380D01*
X237242857Y-81700000D01*
X237290476Y-81747619D01*
X237338095Y-81842857D01*
X237385714Y-82033333D01*
X237385714Y-82271428D01*
X237338095Y-82461904D01*
X237290476Y-82557142D01*
X237242857Y-82604761D01*
X237147619Y-82652380D01*
X237052380Y-82652380D01*
X236957142Y-82604761D01*
X236909523Y-82557142D01*
X236861904Y-82461904D01*
X236814285Y-82271428D01*
X236814285Y-82033333D01*
X236861904Y-81842857D01*
X236909523Y-81747619D01*
X236957142Y-81700000D01*
X237052380Y-81652380D01*
X238004761Y-81652380D02*
X238100000Y-81652380D01*
X238195238Y-81700000D01*
X238242857Y-81747619D01*
X238290476Y-81842857D01*
X238338095Y-82033333D01*
X238338095Y-82271428D01*
X238290476Y-82461904D01*
X238242857Y-82557142D01*
X238195238Y-82604761D01*
X238100000Y-82652380D01*
X238004761Y-82652380D01*
X237909523Y-82604761D01*
X237861904Y-82557142D01*
X237814285Y-82461904D01*
X237766666Y-82271428D01*
X237766666Y-82033333D01*
X237814285Y-81842857D01*
X237861904Y-81747619D01*
X237909523Y-81700000D01*
X238004761Y-81652380D01*
X239338095Y-82652380D02*
X239004761Y-82176190D01*
X238766666Y-82652380D02*
X238766666Y-81652380D01*
X239147619Y-81652380D01*
X239242857Y-81700000D01*
X239290476Y-81747619D01*
X239338095Y-81842857D01*
X239338095Y-81985714D01*
X239290476Y-82080952D01*
X239242857Y-82128571D01*
X239147619Y-82176190D01*
X238766666Y-82176190D01*
D16*
X234166666Y-82561904D02*
X233900000Y-82180952D01*
X233709523Y-82561904D02*
X233709523Y-81761904D01*
X234014285Y-81761904D01*
X234090476Y-81800000D01*
X234128571Y-81838095D01*
X234166666Y-81914285D01*
X234166666Y-82028571D01*
X234128571Y-82104761D01*
X234090476Y-82142857D01*
X234014285Y-82180952D01*
X233709523Y-82180952D01*
X234928571Y-82561904D02*
X234471428Y-82561904D01*
X234700000Y-82561904D02*
X234700000Y-81761904D01*
X234623809Y-81876190D01*
X234547619Y-81952380D01*
X234471428Y-81990476D01*
D11*
%TO.C,R2*%
X236533333Y-83952380D02*
X235961904Y-83952380D01*
X236247619Y-83952380D02*
X236247619Y-82952380D01*
X236152380Y-83095238D01*
X236057142Y-83190476D01*
X235961904Y-83238095D01*
X237152380Y-82952380D02*
X237247619Y-82952380D01*
X237342857Y-83000000D01*
X237390476Y-83047619D01*
X237438095Y-83142857D01*
X237485714Y-83333333D01*
X237485714Y-83571428D01*
X237438095Y-83761904D01*
X237390476Y-83857142D01*
X237342857Y-83904761D01*
X237247619Y-83952380D01*
X237152380Y-83952380D01*
X237057142Y-83904761D01*
X237009523Y-83857142D01*
X236961904Y-83761904D01*
X236914285Y-83571428D01*
X236914285Y-83333333D01*
X236961904Y-83142857D01*
X237009523Y-83047619D01*
X237057142Y-83000000D01*
X237152380Y-82952380D01*
X238104761Y-82952380D02*
X238200000Y-82952380D01*
X238295238Y-83000000D01*
X238342857Y-83047619D01*
X238390476Y-83142857D01*
X238438095Y-83333333D01*
X238438095Y-83571428D01*
X238390476Y-83761904D01*
X238342857Y-83857142D01*
X238295238Y-83904761D01*
X238200000Y-83952380D01*
X238104761Y-83952380D01*
X238009523Y-83904761D01*
X237961904Y-83857142D01*
X237914285Y-83761904D01*
X237866666Y-83571428D01*
X237866666Y-83333333D01*
X237914285Y-83142857D01*
X237961904Y-83047619D01*
X238009523Y-83000000D01*
X238104761Y-82952380D01*
X239438095Y-83952380D02*
X239104761Y-83476190D01*
X238866666Y-83952380D02*
X238866666Y-82952380D01*
X239247619Y-82952380D01*
X239342857Y-83000000D01*
X239390476Y-83047619D01*
X239438095Y-83142857D01*
X239438095Y-83285714D01*
X239390476Y-83380952D01*
X239342857Y-83428571D01*
X239247619Y-83476190D01*
X238866666Y-83476190D01*
D16*
X234266666Y-83961904D02*
X234000000Y-83580952D01*
X233809523Y-83961904D02*
X233809523Y-83161904D01*
X234114285Y-83161904D01*
X234190476Y-83200000D01*
X234228571Y-83238095D01*
X234266666Y-83314285D01*
X234266666Y-83428571D01*
X234228571Y-83504761D01*
X234190476Y-83542857D01*
X234114285Y-83580952D01*
X233809523Y-83580952D01*
X234571428Y-83238095D02*
X234609523Y-83200000D01*
X234685714Y-83161904D01*
X234876190Y-83161904D01*
X234952380Y-83200000D01*
X234990476Y-83238095D01*
X235028571Y-83314285D01*
X235028571Y-83390476D01*
X234990476Y-83504761D01*
X234533333Y-83961904D01*
X235028571Y-83961904D01*
D11*
%TO.C,R3*%
X236583333Y-85302380D02*
X236011904Y-85302380D01*
X236297619Y-85302380D02*
X236297619Y-84302380D01*
X236202380Y-84445238D01*
X236107142Y-84540476D01*
X236011904Y-84588095D01*
X237202380Y-84302380D02*
X237297619Y-84302380D01*
X237392857Y-84350000D01*
X237440476Y-84397619D01*
X237488095Y-84492857D01*
X237535714Y-84683333D01*
X237535714Y-84921428D01*
X237488095Y-85111904D01*
X237440476Y-85207142D01*
X237392857Y-85254761D01*
X237297619Y-85302380D01*
X237202380Y-85302380D01*
X237107142Y-85254761D01*
X237059523Y-85207142D01*
X237011904Y-85111904D01*
X236964285Y-84921428D01*
X236964285Y-84683333D01*
X237011904Y-84492857D01*
X237059523Y-84397619D01*
X237107142Y-84350000D01*
X237202380Y-84302380D01*
X238154761Y-84302380D02*
X238250000Y-84302380D01*
X238345238Y-84350000D01*
X238392857Y-84397619D01*
X238440476Y-84492857D01*
X238488095Y-84683333D01*
X238488095Y-84921428D01*
X238440476Y-85111904D01*
X238392857Y-85207142D01*
X238345238Y-85254761D01*
X238250000Y-85302380D01*
X238154761Y-85302380D01*
X238059523Y-85254761D01*
X238011904Y-85207142D01*
X237964285Y-85111904D01*
X237916666Y-84921428D01*
X237916666Y-84683333D01*
X237964285Y-84492857D01*
X238011904Y-84397619D01*
X238059523Y-84350000D01*
X238154761Y-84302380D01*
X239488095Y-85302380D02*
X239154761Y-84826190D01*
X238916666Y-85302380D02*
X238916666Y-84302380D01*
X239297619Y-84302380D01*
X239392857Y-84350000D01*
X239440476Y-84397619D01*
X239488095Y-84492857D01*
X239488095Y-84635714D01*
X239440476Y-84730952D01*
X239392857Y-84778571D01*
X239297619Y-84826190D01*
X238916666Y-84826190D01*
D16*
X234316666Y-85311904D02*
X234050000Y-84930952D01*
X233859523Y-85311904D02*
X233859523Y-84511904D01*
X234164285Y-84511904D01*
X234240476Y-84550000D01*
X234278571Y-84588095D01*
X234316666Y-84664285D01*
X234316666Y-84778571D01*
X234278571Y-84854761D01*
X234240476Y-84892857D01*
X234164285Y-84930952D01*
X233859523Y-84930952D01*
X234583333Y-84511904D02*
X235078571Y-84511904D01*
X234811904Y-84816666D01*
X234926190Y-84816666D01*
X235002380Y-84854761D01*
X235040476Y-84892857D01*
X235078571Y-84969047D01*
X235078571Y-85159523D01*
X235040476Y-85235714D01*
X235002380Y-85273809D01*
X234926190Y-85311904D01*
X234697619Y-85311904D01*
X234621428Y-85273809D01*
X234583333Y-85235714D01*
D11*
%TO.C,R4*%
X236904761Y-86652380D02*
X236333333Y-86652380D01*
X236619047Y-86652380D02*
X236619047Y-85652380D01*
X236523809Y-85795238D01*
X236428571Y-85890476D01*
X236333333Y-85938095D01*
X237523809Y-85652380D02*
X237619047Y-85652380D01*
X237714285Y-85700000D01*
X237761904Y-85747619D01*
X237809523Y-85842857D01*
X237857142Y-86033333D01*
X237857142Y-86271428D01*
X237809523Y-86461904D01*
X237761904Y-86557142D01*
X237714285Y-86604761D01*
X237619047Y-86652380D01*
X237523809Y-86652380D01*
X237428571Y-86604761D01*
X237380952Y-86557142D01*
X237333333Y-86461904D01*
X237285714Y-86271428D01*
X237285714Y-86033333D01*
X237333333Y-85842857D01*
X237380952Y-85747619D01*
X237428571Y-85700000D01*
X237523809Y-85652380D01*
X238285714Y-86652380D02*
X238285714Y-85652380D01*
X238380952Y-86271428D02*
X238666666Y-86652380D01*
X238666666Y-85985714D02*
X238285714Y-86366666D01*
D16*
X234266666Y-86661904D02*
X234000000Y-86280952D01*
X233809523Y-86661904D02*
X233809523Y-85861904D01*
X234114285Y-85861904D01*
X234190476Y-85900000D01*
X234228571Y-85938095D01*
X234266666Y-86014285D01*
X234266666Y-86128571D01*
X234228571Y-86204761D01*
X234190476Y-86242857D01*
X234114285Y-86280952D01*
X233809523Y-86280952D01*
X234952380Y-86128571D02*
X234952380Y-86661904D01*
X234761904Y-85823809D02*
X234571428Y-86395238D01*
X235066666Y-86395238D01*
D11*
%TO.C,R5*%
X236994761Y-89032380D02*
X236423333Y-89032380D01*
X236709047Y-89032380D02*
X236709047Y-88032380D01*
X236613809Y-88175238D01*
X236518571Y-88270476D01*
X236423333Y-88318095D01*
X237613809Y-88032380D02*
X237709047Y-88032380D01*
X237804285Y-88080000D01*
X237851904Y-88127619D01*
X237899523Y-88222857D01*
X237947142Y-88413333D01*
X237947142Y-88651428D01*
X237899523Y-88841904D01*
X237851904Y-88937142D01*
X237804285Y-88984761D01*
X237709047Y-89032380D01*
X237613809Y-89032380D01*
X237518571Y-88984761D01*
X237470952Y-88937142D01*
X237423333Y-88841904D01*
X237375714Y-88651428D01*
X237375714Y-88413333D01*
X237423333Y-88222857D01*
X237470952Y-88127619D01*
X237518571Y-88080000D01*
X237613809Y-88032380D01*
X238375714Y-89032380D02*
X238375714Y-88032380D01*
X238470952Y-88651428D02*
X238756666Y-89032380D01*
X238756666Y-88365714D02*
X238375714Y-88746666D01*
D16*
X234366666Y-89111904D02*
X234100000Y-88730952D01*
X233909523Y-89111904D02*
X233909523Y-88311904D01*
X234214285Y-88311904D01*
X234290476Y-88350000D01*
X234328571Y-88388095D01*
X234366666Y-88464285D01*
X234366666Y-88578571D01*
X234328571Y-88654761D01*
X234290476Y-88692857D01*
X234214285Y-88730952D01*
X233909523Y-88730952D01*
X235090476Y-88311904D02*
X234709523Y-88311904D01*
X234671428Y-88692857D01*
X234709523Y-88654761D01*
X234785714Y-88616666D01*
X234976190Y-88616666D01*
X235052380Y-88654761D01*
X235090476Y-88692857D01*
X235128571Y-88769047D01*
X235128571Y-88959523D01*
X235090476Y-89035714D01*
X235052380Y-89073809D01*
X234976190Y-89111904D01*
X234785714Y-89111904D01*
X234709523Y-89073809D01*
X234671428Y-89035714D01*
D11*
%TO.C,R6*%
X236992261Y-87852380D02*
X236420833Y-87852380D01*
X236706547Y-87852380D02*
X236706547Y-86852380D01*
X236611309Y-86995238D01*
X236516071Y-87090476D01*
X236420833Y-87138095D01*
X237611309Y-86852380D02*
X237706547Y-86852380D01*
X237801785Y-86900000D01*
X237849404Y-86947619D01*
X237897023Y-87042857D01*
X237944642Y-87233333D01*
X237944642Y-87471428D01*
X237897023Y-87661904D01*
X237849404Y-87757142D01*
X237801785Y-87804761D01*
X237706547Y-87852380D01*
X237611309Y-87852380D01*
X237516071Y-87804761D01*
X237468452Y-87757142D01*
X237420833Y-87661904D01*
X237373214Y-87471428D01*
X237373214Y-87233333D01*
X237420833Y-87042857D01*
X237468452Y-86947619D01*
X237516071Y-86900000D01*
X237611309Y-86852380D01*
X238373214Y-87852380D02*
X238373214Y-86852380D01*
X238468452Y-87471428D02*
X238754166Y-87852380D01*
X238754166Y-87185714D02*
X238373214Y-87566666D01*
D16*
X234354166Y-87911904D02*
X234087500Y-87530952D01*
X233897023Y-87911904D02*
X233897023Y-87111904D01*
X234201785Y-87111904D01*
X234277976Y-87150000D01*
X234316071Y-87188095D01*
X234354166Y-87264285D01*
X234354166Y-87378571D01*
X234316071Y-87454761D01*
X234277976Y-87492857D01*
X234201785Y-87530952D01*
X233897023Y-87530952D01*
X235039880Y-87111904D02*
X234887500Y-87111904D01*
X234811309Y-87150000D01*
X234773214Y-87188095D01*
X234697023Y-87302380D01*
X234658928Y-87454761D01*
X234658928Y-87759523D01*
X234697023Y-87835714D01*
X234735119Y-87873809D01*
X234811309Y-87911904D01*
X234963690Y-87911904D01*
X235039880Y-87873809D01*
X235077976Y-87835714D01*
X235116071Y-87759523D01*
X235116071Y-87569047D01*
X235077976Y-87492857D01*
X235039880Y-87454761D01*
X234963690Y-87416666D01*
X234811309Y-87416666D01*
X234735119Y-87454761D01*
X234697023Y-87492857D01*
X234658928Y-87569047D01*
D11*
%TO.C,R7*%
X236603333Y-89442380D02*
X236698571Y-89442380D01*
X236793809Y-89490000D01*
X236841428Y-89537619D01*
X236889047Y-89632857D01*
X236936666Y-89823333D01*
X236936666Y-90061428D01*
X236889047Y-90251904D01*
X236841428Y-90347142D01*
X236793809Y-90394761D01*
X236698571Y-90442380D01*
X236603333Y-90442380D01*
X236508095Y-90394761D01*
X236460476Y-90347142D01*
X236412857Y-90251904D01*
X236365238Y-90061428D01*
X236365238Y-89823333D01*
X236412857Y-89632857D01*
X236460476Y-89537619D01*
X236508095Y-89490000D01*
X236603333Y-89442380D01*
X237365238Y-90347142D02*
X237412857Y-90394761D01*
X237365238Y-90442380D01*
X237317619Y-90394761D01*
X237365238Y-90347142D01*
X237365238Y-90442380D01*
X237793809Y-89537619D02*
X237841428Y-89490000D01*
X237936666Y-89442380D01*
X238174761Y-89442380D01*
X238270000Y-89490000D01*
X238317619Y-89537619D01*
X238365238Y-89632857D01*
X238365238Y-89728095D01*
X238317619Y-89870952D01*
X237746190Y-90442380D01*
X238365238Y-90442380D01*
X238793809Y-90442380D02*
X238793809Y-89442380D01*
X238889047Y-90061428D02*
X239174761Y-90442380D01*
X239174761Y-89775714D02*
X238793809Y-90156666D01*
D16*
X234336666Y-90301904D02*
X234070000Y-89920952D01*
X233879523Y-90301904D02*
X233879523Y-89501904D01*
X234184285Y-89501904D01*
X234260476Y-89540000D01*
X234298571Y-89578095D01*
X234336666Y-89654285D01*
X234336666Y-89768571D01*
X234298571Y-89844761D01*
X234260476Y-89882857D01*
X234184285Y-89920952D01*
X233879523Y-89920952D01*
X234603333Y-89501904D02*
X235136666Y-89501904D01*
X234793809Y-90301904D01*
D11*
%TO.C,R8*%
X236603333Y-90742380D02*
X236698571Y-90742380D01*
X236793809Y-90790000D01*
X236841428Y-90837619D01*
X236889047Y-90932857D01*
X236936666Y-91123333D01*
X236936666Y-91361428D01*
X236889047Y-91551904D01*
X236841428Y-91647142D01*
X236793809Y-91694761D01*
X236698571Y-91742380D01*
X236603333Y-91742380D01*
X236508095Y-91694761D01*
X236460476Y-91647142D01*
X236412857Y-91551904D01*
X236365238Y-91361428D01*
X236365238Y-91123333D01*
X236412857Y-90932857D01*
X236460476Y-90837619D01*
X236508095Y-90790000D01*
X236603333Y-90742380D01*
X237365238Y-91647142D02*
X237412857Y-91694761D01*
X237365238Y-91742380D01*
X237317619Y-91694761D01*
X237365238Y-91647142D01*
X237365238Y-91742380D01*
X237793809Y-90837619D02*
X237841428Y-90790000D01*
X237936666Y-90742380D01*
X238174761Y-90742380D01*
X238270000Y-90790000D01*
X238317619Y-90837619D01*
X238365238Y-90932857D01*
X238365238Y-91028095D01*
X238317619Y-91170952D01*
X237746190Y-91742380D01*
X238365238Y-91742380D01*
X238793809Y-91742380D02*
X238793809Y-90742380D01*
X238889047Y-91361428D02*
X239174761Y-91742380D01*
X239174761Y-91075714D02*
X238793809Y-91456666D01*
D16*
X234296666Y-91511904D02*
X234030000Y-91130952D01*
X233839523Y-91511904D02*
X233839523Y-90711904D01*
X234144285Y-90711904D01*
X234220476Y-90750000D01*
X234258571Y-90788095D01*
X234296666Y-90864285D01*
X234296666Y-90978571D01*
X234258571Y-91054761D01*
X234220476Y-91092857D01*
X234144285Y-91130952D01*
X233839523Y-91130952D01*
X234753809Y-91054761D02*
X234677619Y-91016666D01*
X234639523Y-90978571D01*
X234601428Y-90902380D01*
X234601428Y-90864285D01*
X234639523Y-90788095D01*
X234677619Y-90750000D01*
X234753809Y-90711904D01*
X234906190Y-90711904D01*
X234982380Y-90750000D01*
X235020476Y-90788095D01*
X235058571Y-90864285D01*
X235058571Y-90902380D01*
X235020476Y-90978571D01*
X234982380Y-91016666D01*
X234906190Y-91054761D01*
X234753809Y-91054761D01*
X234677619Y-91092857D01*
X234639523Y-91130952D01*
X234601428Y-91207142D01*
X234601428Y-91359523D01*
X234639523Y-91435714D01*
X234677619Y-91473809D01*
X234753809Y-91511904D01*
X234906190Y-91511904D01*
X234982380Y-91473809D01*
X235020476Y-91435714D01*
X235058571Y-91359523D01*
X235058571Y-91207142D01*
X235020476Y-91130952D01*
X234982380Y-91092857D01*
X234906190Y-91054761D01*
D11*
%TO.C,U2*%
X254957142Y-73704761D02*
X255100000Y-73752380D01*
X255338095Y-73752380D01*
X255433333Y-73704761D01*
X255480952Y-73657142D01*
X255528571Y-73561904D01*
X255528571Y-73466666D01*
X255480952Y-73371428D01*
X255433333Y-73323809D01*
X255338095Y-73276190D01*
X255147619Y-73228571D01*
X255052380Y-73180952D01*
X255004761Y-73133333D01*
X254957142Y-73038095D01*
X254957142Y-72942857D01*
X255004761Y-72847619D01*
X255052380Y-72800000D01*
X255147619Y-72752380D01*
X255385714Y-72752380D01*
X255528571Y-72800000D01*
X255957142Y-73752380D02*
X255957142Y-73085714D01*
X255957142Y-72752380D02*
X255909523Y-72800000D01*
X255957142Y-72847619D01*
X256004761Y-72800000D01*
X255957142Y-72752380D01*
X255957142Y-72847619D01*
X256861904Y-73085714D02*
X256861904Y-73752380D01*
X256623809Y-72704761D02*
X256385714Y-73419047D01*
X257004761Y-73419047D01*
X257290476Y-72752380D02*
X257957142Y-72752380D01*
X257528571Y-73752380D01*
X258242857Y-72752380D02*
X258861904Y-72752380D01*
X258528571Y-73133333D01*
X258671428Y-73133333D01*
X258766666Y-73180952D01*
X258814285Y-73228571D01*
X258861904Y-73323809D01*
X258861904Y-73561904D01*
X258814285Y-73657142D01*
X258766666Y-73704761D01*
X258671428Y-73752380D01*
X258385714Y-73752380D01*
X258290476Y-73704761D01*
X258242857Y-73657142D01*
X259766666Y-72752380D02*
X259290476Y-72752380D01*
X259242857Y-73228571D01*
X259290476Y-73180952D01*
X259385714Y-73133333D01*
X259623809Y-73133333D01*
X259719047Y-73180952D01*
X259766666Y-73228571D01*
X259814285Y-73323809D01*
X259814285Y-73561904D01*
X259766666Y-73657142D01*
X259719047Y-73704761D01*
X259623809Y-73752380D01*
X259385714Y-73752380D01*
X259290476Y-73704761D01*
X259242857Y-73657142D01*
X260242857Y-73371428D02*
X261004761Y-73371428D01*
X261480952Y-73752380D02*
X261480952Y-72752380D01*
X261719047Y-72752380D01*
X261861904Y-72800000D01*
X261957142Y-72895238D01*
X262004761Y-72990476D01*
X262052380Y-73180952D01*
X262052380Y-73323809D01*
X262004761Y-73514285D01*
X261957142Y-73609523D01*
X261861904Y-73704761D01*
X261719047Y-73752380D01*
X261480952Y-73752380D01*
X262909523Y-72752380D02*
X262719047Y-72752380D01*
X262623809Y-72800000D01*
X262576190Y-72847619D01*
X262480952Y-72990476D01*
X262433333Y-73180952D01*
X262433333Y-73561904D01*
X262480952Y-73657142D01*
X262528571Y-73704761D01*
X262623809Y-73752380D01*
X262814285Y-73752380D01*
X262909523Y-73704761D01*
X262957142Y-73657142D01*
X263004761Y-73561904D01*
X263004761Y-73323809D01*
X262957142Y-73228571D01*
X262909523Y-73180952D01*
X262814285Y-73133333D01*
X262623809Y-73133333D01*
X262528571Y-73180952D01*
X262480952Y-73228571D01*
X262433333Y-73323809D01*
X263623809Y-72752380D02*
X263719047Y-72752380D01*
X263814285Y-72800000D01*
X263861904Y-72847619D01*
X263909523Y-72942857D01*
X263957142Y-73133333D01*
X263957142Y-73371428D01*
X263909523Y-73561904D01*
X263861904Y-73657142D01*
X263814285Y-73704761D01*
X263719047Y-73752380D01*
X263623809Y-73752380D01*
X263528571Y-73704761D01*
X263480952Y-73657142D01*
X263433333Y-73561904D01*
X263385714Y-73371428D01*
X263385714Y-73133333D01*
X263433333Y-72942857D01*
X263480952Y-72847619D01*
X263528571Y-72800000D01*
X263623809Y-72752380D01*
X264385714Y-73371428D02*
X265147619Y-73371428D01*
X266147619Y-72800000D02*
X266052380Y-72752380D01*
X265909523Y-72752380D01*
X265766666Y-72800000D01*
X265671428Y-72895238D01*
X265623809Y-72990476D01*
X265576190Y-73180952D01*
X265576190Y-73323809D01*
X265623809Y-73514285D01*
X265671428Y-73609523D01*
X265766666Y-73704761D01*
X265909523Y-73752380D01*
X266004761Y-73752380D01*
X266147619Y-73704761D01*
X266195238Y-73657142D01*
X266195238Y-73323809D01*
X266004761Y-73323809D01*
X266623809Y-72752380D02*
X266623809Y-73561904D01*
X266671428Y-73657142D01*
X266719047Y-73704761D01*
X266814285Y-73752380D01*
X267004761Y-73752380D01*
X267100000Y-73704761D01*
X267147619Y-73657142D01*
X267195238Y-73561904D01*
X267195238Y-72752380D01*
%TO.C,R13*%
X237223333Y-97392380D02*
X236651904Y-97392380D01*
X236937619Y-97392380D02*
X236937619Y-96392380D01*
X236842380Y-96535238D01*
X236747142Y-96630476D01*
X236651904Y-96678095D01*
X237842380Y-96392380D02*
X237937619Y-96392380D01*
X238032857Y-96440000D01*
X238080476Y-96487619D01*
X238128095Y-96582857D01*
X238175714Y-96773333D01*
X238175714Y-97011428D01*
X238128095Y-97201904D01*
X238080476Y-97297142D01*
X238032857Y-97344761D01*
X237937619Y-97392380D01*
X237842380Y-97392380D01*
X237747142Y-97344761D01*
X237699523Y-97297142D01*
X237651904Y-97201904D01*
X237604285Y-97011428D01*
X237604285Y-96773333D01*
X237651904Y-96582857D01*
X237699523Y-96487619D01*
X237747142Y-96440000D01*
X237842380Y-96392380D01*
X238794761Y-96392380D02*
X238890000Y-96392380D01*
X238985238Y-96440000D01*
X239032857Y-96487619D01*
X239080476Y-96582857D01*
X239128095Y-96773333D01*
X239128095Y-97011428D01*
X239080476Y-97201904D01*
X239032857Y-97297142D01*
X238985238Y-97344761D01*
X238890000Y-97392380D01*
X238794761Y-97392380D01*
X238699523Y-97344761D01*
X238651904Y-97297142D01*
X238604285Y-97201904D01*
X238556666Y-97011428D01*
X238556666Y-96773333D01*
X238604285Y-96582857D01*
X238651904Y-96487619D01*
X238699523Y-96440000D01*
X238794761Y-96392380D01*
X240128095Y-97392380D02*
X239794761Y-96916190D01*
X239556666Y-97392380D02*
X239556666Y-96392380D01*
X239937619Y-96392380D01*
X240032857Y-96440000D01*
X240080476Y-96487619D01*
X240128095Y-96582857D01*
X240128095Y-96725714D01*
X240080476Y-96820952D01*
X240032857Y-96868571D01*
X239937619Y-96916190D01*
X239556666Y-96916190D01*
D16*
X234375714Y-97301904D02*
X234109047Y-96920952D01*
X233918571Y-97301904D02*
X233918571Y-96501904D01*
X234223333Y-96501904D01*
X234299523Y-96540000D01*
X234337619Y-96578095D01*
X234375714Y-96654285D01*
X234375714Y-96768571D01*
X234337619Y-96844761D01*
X234299523Y-96882857D01*
X234223333Y-96920952D01*
X233918571Y-96920952D01*
X235137619Y-97301904D02*
X234680476Y-97301904D01*
X234909047Y-97301904D02*
X234909047Y-96501904D01*
X234832857Y-96616190D01*
X234756666Y-96692380D01*
X234680476Y-96730476D01*
X235404285Y-96501904D02*
X235899523Y-96501904D01*
X235632857Y-96806666D01*
X235747142Y-96806666D01*
X235823333Y-96844761D01*
X235861428Y-96882857D01*
X235899523Y-96959047D01*
X235899523Y-97149523D01*
X235861428Y-97225714D01*
X235823333Y-97263809D01*
X235747142Y-97301904D01*
X235518571Y-97301904D01*
X235442380Y-97263809D01*
X235404285Y-97225714D01*
D11*
%TO.C,R12*%
X237411428Y-95515714D02*
X237411428Y-96182380D01*
X237173333Y-95134761D02*
X236935238Y-95849047D01*
X237554285Y-95849047D01*
X237935238Y-96087142D02*
X237982857Y-96134761D01*
X237935238Y-96182380D01*
X237887619Y-96134761D01*
X237935238Y-96087142D01*
X237935238Y-96182380D01*
X238316190Y-95182380D02*
X238982857Y-95182380D01*
X238554285Y-96182380D01*
X239363809Y-96182380D02*
X239363809Y-95182380D01*
X239459047Y-95801428D02*
X239744761Y-96182380D01*
X239744761Y-95515714D02*
X239363809Y-95896666D01*
D16*
X234375714Y-96091904D02*
X234109047Y-95710952D01*
X233918571Y-96091904D02*
X233918571Y-95291904D01*
X234223333Y-95291904D01*
X234299523Y-95330000D01*
X234337619Y-95368095D01*
X234375714Y-95444285D01*
X234375714Y-95558571D01*
X234337619Y-95634761D01*
X234299523Y-95672857D01*
X234223333Y-95710952D01*
X233918571Y-95710952D01*
X235137619Y-96091904D02*
X234680476Y-96091904D01*
X234909047Y-96091904D02*
X234909047Y-95291904D01*
X234832857Y-95406190D01*
X234756666Y-95482380D01*
X234680476Y-95520476D01*
X235442380Y-95368095D02*
X235480476Y-95330000D01*
X235556666Y-95291904D01*
X235747142Y-95291904D01*
X235823333Y-95330000D01*
X235861428Y-95368095D01*
X235899523Y-95444285D01*
X235899523Y-95520476D01*
X235861428Y-95634761D01*
X235404285Y-96091904D01*
X235899523Y-96091904D01*
D11*
%TO.C,R10*%
X236861428Y-92475714D02*
X236861428Y-93142380D01*
X236623333Y-92094761D02*
X236385238Y-92809047D01*
X237004285Y-92809047D01*
X237385238Y-93047142D02*
X237432857Y-93094761D01*
X237385238Y-93142380D01*
X237337619Y-93094761D01*
X237385238Y-93047142D01*
X237385238Y-93142380D01*
X237766190Y-92142380D02*
X238432857Y-92142380D01*
X238004285Y-93142380D01*
X238813809Y-93142380D02*
X238813809Y-92142380D01*
X238909047Y-92761428D02*
X239194761Y-93142380D01*
X239194761Y-92475714D02*
X238813809Y-92856666D01*
D16*
X234195714Y-92971904D02*
X233929047Y-92590952D01*
X233738571Y-92971904D02*
X233738571Y-92171904D01*
X234043333Y-92171904D01*
X234119523Y-92210000D01*
X234157619Y-92248095D01*
X234195714Y-92324285D01*
X234195714Y-92438571D01*
X234157619Y-92514761D01*
X234119523Y-92552857D01*
X234043333Y-92590952D01*
X233738571Y-92590952D01*
X234957619Y-92971904D02*
X234500476Y-92971904D01*
X234729047Y-92971904D02*
X234729047Y-92171904D01*
X234652857Y-92286190D01*
X234576666Y-92362380D01*
X234500476Y-92400476D01*
X235452857Y-92171904D02*
X235529047Y-92171904D01*
X235605238Y-92210000D01*
X235643333Y-92248095D01*
X235681428Y-92324285D01*
X235719523Y-92476666D01*
X235719523Y-92667142D01*
X235681428Y-92819523D01*
X235643333Y-92895714D01*
X235605238Y-92933809D01*
X235529047Y-92971904D01*
X235452857Y-92971904D01*
X235376666Y-92933809D01*
X235338571Y-92895714D01*
X235300476Y-92819523D01*
X235262380Y-92667142D01*
X235262380Y-92476666D01*
X235300476Y-92324285D01*
X235338571Y-92248095D01*
X235376666Y-92210000D01*
X235452857Y-92171904D01*
D11*
%TO.C,R14*%
X237191428Y-98035714D02*
X237191428Y-98702380D01*
X236953333Y-97654761D02*
X236715238Y-98369047D01*
X237334285Y-98369047D01*
X237715238Y-98607142D02*
X237762857Y-98654761D01*
X237715238Y-98702380D01*
X237667619Y-98654761D01*
X237715238Y-98607142D01*
X237715238Y-98702380D01*
X238096190Y-97702380D02*
X238762857Y-97702380D01*
X238334285Y-98702380D01*
X239143809Y-98702380D02*
X239143809Y-97702380D01*
X239239047Y-98321428D02*
X239524761Y-98702380D01*
X239524761Y-98035714D02*
X239143809Y-98416666D01*
D16*
X234405714Y-98551904D02*
X234139047Y-98170952D01*
X233948571Y-98551904D02*
X233948571Y-97751904D01*
X234253333Y-97751904D01*
X234329523Y-97790000D01*
X234367619Y-97828095D01*
X234405714Y-97904285D01*
X234405714Y-98018571D01*
X234367619Y-98094761D01*
X234329523Y-98132857D01*
X234253333Y-98170952D01*
X233948571Y-98170952D01*
X235167619Y-98551904D02*
X234710476Y-98551904D01*
X234939047Y-98551904D02*
X234939047Y-97751904D01*
X234862857Y-97866190D01*
X234786666Y-97942380D01*
X234710476Y-97980476D01*
X235853333Y-98018571D02*
X235853333Y-98551904D01*
X235662857Y-97713809D02*
X235472380Y-98285238D01*
X235967619Y-98285238D01*
D17*
%TO.C,C4*%
X221633605Y-62187500D02*
X221633605Y-61687500D01*
X221883605Y-61937500D02*
X221383605Y-61937500D01*
X222250000Y-60850000D02*
G75*
G03*
X222250000Y-60850000I-2500000J0D01*
G01*
%TO.C,C5*%
X220700000Y-71950000D02*
X223700000Y-71950000D01*
X223700000Y-70350000D02*
X220700000Y-70350000D01*
X220700000Y-70350000D02*
X220700000Y-71950000D01*
X223700000Y-71950000D02*
X223700000Y-70350000D01*
%TO.C,C6*%
X205250000Y-61050000D02*
X205250000Y-62950000D01*
X205250000Y-62950000D02*
X209550000Y-62950000D01*
X209550000Y-61050000D02*
X205250000Y-61050000D01*
X209550000Y-62950000D02*
X209550000Y-61050000D01*
%TO.C,C7*%
X205250000Y-65600000D02*
X209550000Y-65600000D01*
X205250000Y-63700000D02*
X205250000Y-65600000D01*
X209550000Y-63700000D02*
X205250000Y-63700000D01*
X209550000Y-65600000D02*
X209550000Y-63700000D01*
%TO.C,C8*%
X216133605Y-61787500D02*
X215633605Y-61787500D01*
X215883605Y-62037500D02*
X215883605Y-61537500D01*
X216500000Y-60700000D02*
G75*
G03*
X216500000Y-60700000I-2500000J0D01*
G01*
%TO.C,C9*%
X231850000Y-69750000D02*
X229750000Y-69750000D01*
X229750000Y-73150000D02*
X231850000Y-73150000D01*
X229750000Y-69750000D02*
X229750000Y-73150000D01*
X231850000Y-73150000D02*
X231850000Y-69750000D01*
%TO.C,C10*%
X229750000Y-77850000D02*
X231850000Y-77850000D01*
X231850000Y-77850000D02*
X231850000Y-74450000D01*
X229750000Y-74450000D02*
X229750000Y-77850000D01*
X231850000Y-74450000D02*
X229750000Y-74450000D01*
%TO.C,C11*%
X225250000Y-76650000D02*
X225250000Y-78750000D01*
X225250000Y-78750000D02*
X228650000Y-78750000D01*
X228650000Y-78750000D02*
X228650000Y-76650000D01*
X228650000Y-76650000D02*
X225250000Y-76650000D01*
%TO.C,C12*%
X228750000Y-72350000D02*
X228750000Y-70250000D01*
X225350000Y-72350000D02*
X228750000Y-72350000D01*
X228750000Y-70250000D02*
X225350000Y-70250000D01*
X225350000Y-70250000D02*
X225350000Y-72350000D01*
D18*
%TO.C,J2*%
X193760000Y-49540000D02*
X193760000Y-58140000D01*
D17*
X194760000Y-57340000D02*
X194760000Y-50340000D01*
X191260000Y-56840000D02*
X190760000Y-50840000D01*
X189260000Y-56840000D02*
X188760000Y-50840000D01*
X186760000Y-56340000D02*
X186760000Y-51340000D01*
X197260000Y-57340000D02*
X198260000Y-56340000D01*
X189760000Y-56840000D02*
X189260000Y-50840000D01*
X190760000Y-56840000D02*
X190260000Y-50840000D01*
X192760000Y-56840000D02*
X194760000Y-56840000D01*
X186760000Y-51340000D02*
X192760000Y-51340000D01*
X190260000Y-56840000D02*
X189760000Y-50840000D01*
X198260000Y-56340000D02*
X199260000Y-57340000D01*
X192760000Y-50840000D02*
X194760000Y-50840000D01*
X188760000Y-56840000D02*
X188260000Y-50840000D01*
X192760000Y-50840000D02*
X192760000Y-56840000D01*
X194760000Y-57340000D02*
X201760000Y-57340000D01*
X201760000Y-57340000D02*
X201760000Y-50340000D01*
X186760000Y-56340000D02*
X192760000Y-56340000D01*
X194760000Y-50340000D02*
X201760000Y-50340000D01*
D18*
%TO.C,J3*%
X193760000Y-64720000D02*
X193760000Y-73320000D01*
D17*
X192760000Y-72020000D02*
X194760000Y-72020000D01*
X186760000Y-71520000D02*
X186760000Y-66520000D01*
X186760000Y-71520000D02*
X192760000Y-71520000D01*
X186760000Y-66520000D02*
X192760000Y-66520000D01*
X201760000Y-72520000D02*
X201760000Y-65520000D01*
X189760000Y-72020000D02*
X189260000Y-66020000D01*
X190760000Y-72020000D02*
X190260000Y-66020000D01*
X192760000Y-66020000D02*
X194760000Y-66020000D01*
X198260000Y-71520000D02*
X199260000Y-72520000D01*
X194760000Y-65520000D02*
X201760000Y-65520000D01*
X191260000Y-72020000D02*
X190760000Y-66020000D01*
X190260000Y-72020000D02*
X189760000Y-66020000D01*
X189260000Y-72020000D02*
X188760000Y-66020000D01*
X188760000Y-72020000D02*
X188260000Y-66020000D01*
X192760000Y-66020000D02*
X192760000Y-72020000D01*
X194760000Y-72520000D02*
X194760000Y-65520000D01*
X194760000Y-72520000D02*
X201760000Y-72520000D01*
X197260000Y-72520000D02*
X198260000Y-71520000D01*
%TO.C,J4*%
X235970000Y-70030000D02*
X235970000Y-77650000D01*
X233430000Y-77015000D02*
X233430000Y-70030000D01*
X235970000Y-77650000D02*
X234065000Y-77650000D01*
X233430000Y-70030000D02*
X235970000Y-70030000D01*
X234065000Y-77650000D02*
X233430000Y-77015000D01*
%TO.C,J5*%
X229935000Y-57745000D02*
X228030000Y-57745000D01*
X230570000Y-52665000D02*
X230570000Y-57110000D01*
X228030000Y-57745000D02*
X228030000Y-52665000D01*
X230570000Y-57110000D02*
X229935000Y-57745000D01*
X228030000Y-52665000D02*
X230570000Y-52665000D01*
%TO.C,Y1*%
X216150000Y-73000000D02*
G75*
G03*
X216150000Y-73000000I-1500000J0D01*
G01*
%TO.C,R11*%
X220600000Y-69450000D02*
X220600000Y-66250000D01*
X220600000Y-66250000D02*
X211600000Y-66250000D01*
X211600000Y-66250000D02*
X211600000Y-69450000D01*
X222450000Y-67850000D02*
X220600000Y-67850000D01*
X211600000Y-69450000D02*
X220600000Y-69450000D01*
X209750000Y-67850000D02*
X211600000Y-67850000D01*
%TO.C,D4*%
X206950000Y-52720000D02*
X206950000Y-48720000D01*
X204950000Y-52720000D02*
X206950000Y-52720000D01*
X204950000Y-52020000D02*
X206950000Y-52020000D01*
X205950000Y-54530000D02*
X205950000Y-52720000D01*
X206950000Y-48720000D02*
X204950000Y-48720000D01*
X204950000Y-48720000D02*
X204950000Y-52720000D01*
X204950000Y-52120000D02*
X206950000Y-52120000D01*
X204950000Y-52220000D02*
X206950000Y-52220000D01*
X205950000Y-46910000D02*
X205950000Y-48720000D01*
%TO.C,C14*%
X227316395Y-47512500D02*
X227816395Y-47512500D01*
X227566395Y-47262500D02*
X227566395Y-47762500D01*
X231950000Y-48600000D02*
G75*
G03*
X231950000Y-48600000I-2500000J0D01*
G01*
%TO.C,L2*%
X210700000Y-58000000D02*
G75*
G03*
X210700000Y-58000000I-3000000J0D01*
G01*
%TO.C,D1*%
X203850000Y-75570000D02*
X203850000Y-73760000D01*
X202850000Y-73760000D02*
X204850000Y-73760000D01*
X202850000Y-69760000D02*
X202850000Y-73760000D01*
X204850000Y-73760000D02*
X204850000Y-69760000D01*
X203850000Y-67950000D02*
X203850000Y-69760000D01*
X204850000Y-69760000D02*
X202850000Y-69760000D01*
X202850000Y-73060000D02*
X204850000Y-73060000D01*
X202850000Y-73160000D02*
X204850000Y-73160000D01*
X202850000Y-73260000D02*
X204850000Y-73260000D01*
%TO.C,C15*%
X233742500Y-50408718D02*
X234242500Y-50408718D01*
X233992500Y-50658718D02*
X233992500Y-50158718D01*
X237580000Y-48525113D02*
G75*
G03*
X237580000Y-48525113I-2500000J0D01*
G01*
%TO.C,U1*%
X220050000Y-50500000D02*
X226750000Y-50500000D01*
X221050000Y-54200000D02*
X226750000Y-54200000D01*
X220050000Y-53200000D02*
X220050000Y-50500000D01*
X226750000Y-54200000D02*
X226750000Y-50500000D01*
X221050000Y-54200000D02*
X220050000Y-53200000D01*
%TO.C,D3*%
X204400000Y-48710000D02*
X202400000Y-48710000D01*
X204400000Y-52710000D02*
X204400000Y-48710000D01*
X202400000Y-48710000D02*
X202400000Y-52710000D01*
X203400000Y-46900000D02*
X203400000Y-48710000D01*
X204400000Y-49210000D02*
X202400000Y-49210000D01*
X204400000Y-49410000D02*
X202400000Y-49410000D01*
X203400000Y-54520000D02*
X203400000Y-52710000D01*
X204400000Y-49310000D02*
X202400000Y-49310000D01*
X202400000Y-52710000D02*
X204400000Y-52710000D01*
%TO.C,L1*%
X201520000Y-61360000D02*
G75*
G03*
X201520000Y-61360000I-3000000J0D01*
G01*
%TO.C,U3*%
X212250000Y-50500000D02*
X218950000Y-50500000D01*
X213250000Y-54200000D02*
X212250000Y-53200000D01*
X218950000Y-54200000D02*
X218950000Y-50500000D01*
X212250000Y-53200000D02*
X212250000Y-50500000D01*
X213250000Y-54200000D02*
X218950000Y-54200000D01*
%TO.C,J6*%
X235870000Y-53265000D02*
X235870000Y-67870000D01*
X235870000Y-67870000D02*
X233330000Y-67870000D01*
X235235000Y-52630000D02*
X235870000Y-53265000D01*
X233330000Y-52630000D02*
X235235000Y-52630000D01*
X233330000Y-67870000D02*
X233330000Y-52630000D01*
%TO.C,D2*%
X207400000Y-70460000D02*
X205400000Y-70460000D01*
X206400000Y-67950000D02*
X206400000Y-69760000D01*
X207400000Y-69760000D02*
X205400000Y-69760000D01*
X205400000Y-73760000D02*
X207400000Y-73760000D01*
X207400000Y-73760000D02*
X207400000Y-69760000D01*
X205400000Y-69760000D02*
X205400000Y-73760000D01*
X207400000Y-70360000D02*
X205400000Y-70360000D01*
X207400000Y-70260000D02*
X205400000Y-70260000D01*
X206400000Y-75570000D02*
X206400000Y-73760000D01*
%TD*%
M02*
