%TF.GenerationSoftware,KiCad,Pcbnew,6.0.2*%
%TF.CreationDate,2022-11-10T22:55:43+01:00*%
%TF.ProjectId,SI4735,53493437-3335-42e6-9b69-6361645f7063,rev?*%
%TF.SameCoordinates,Original*%
%TF.FileFunction,Other,User*%
%FSLAX46Y46*%
G04 Gerber Fmt 4.6, Leading zero omitted, Abs format (unit mm)*
G04 Created by KiCad (PCBNEW 6.0.2) date 2022-11-10 22:55:43*
%MOMM*%
%LPD*%
G01*
G04 APERTURE LIST*
%TA.AperFunction,Profile*%
%ADD10C,0.050000*%
%TD*%
%ADD11C,0.050000*%
%TA.AperFunction,Profile*%
%ADD12C,0.100000*%
%TD*%
G04 APERTURE END LIST*
D10*
X243000000Y-45450000D02*
G75*
G03*
X243000000Y-45450000I-1526434J0D01*
G01*
X243076434Y-77450000D02*
G75*
G03*
X243076434Y-77450000I-1526434J0D01*
G01*
X199535580Y-77486292D02*
G75*
G03*
X199535580Y-77486292I-1526434J0D01*
G01*
X244475000Y-81120000D02*
X193725000Y-81120000D01*
X193725000Y-81120000D02*
X193725000Y-42300000D01*
X193725000Y-42300000D02*
X244475000Y-42300000D01*
X244475000Y-42300000D02*
X244475000Y-81120000D01*
X199576434Y-45480000D02*
G75*
G03*
X199576434Y-45480000I-1526434J0D01*
G01*
D11*
%TO.C,C4*%
X222500000Y-60850000D02*
G75*
G03*
X222500000Y-60850000I-2750000J0D01*
G01*
%TO.C,C5*%
X219900000Y-72200000D02*
X224500000Y-72200000D01*
X219900000Y-70100000D02*
X219900000Y-72200000D01*
X224500000Y-72200000D02*
X224500000Y-70100000D01*
X224500000Y-70100000D02*
X219900000Y-70100000D01*
%TO.C,C6*%
X210950000Y-63200000D02*
X210950000Y-60800000D01*
X203850000Y-63200000D02*
X210950000Y-63200000D01*
X203850000Y-60800000D02*
X203850000Y-63200000D01*
X210950000Y-60800000D02*
X203850000Y-60800000D01*
%TO.C,C7*%
X210950000Y-63450000D02*
X203850000Y-63450000D01*
X203850000Y-65850000D02*
X210950000Y-65850000D01*
X210950000Y-65850000D02*
X210950000Y-63450000D01*
X203850000Y-63450000D02*
X203850000Y-65850000D01*
%TO.C,C8*%
X216750000Y-60700000D02*
G75*
G03*
X216750000Y-60700000I-2750000J0D01*
G01*
%TO.C,C9*%
X229500000Y-73750000D02*
X232100000Y-73750000D01*
X232100000Y-69150000D02*
X229500000Y-69150000D01*
X229500000Y-69150000D02*
X229500000Y-73750000D01*
X232100000Y-73750000D02*
X232100000Y-69150000D01*
%TO.C,C10*%
X232100000Y-73850000D02*
X229500000Y-73850000D01*
X229500000Y-78450000D02*
X232100000Y-78450000D01*
X229500000Y-73850000D02*
X229500000Y-78450000D01*
X232100000Y-78450000D02*
X232100000Y-73850000D01*
%TO.C,C11*%
X224650000Y-76400000D02*
X224650000Y-79000000D01*
X224650000Y-79000000D02*
X229250000Y-79000000D01*
X229250000Y-79000000D02*
X229250000Y-76400000D01*
X229250000Y-76400000D02*
X224650000Y-76400000D01*
%TO.C,C12*%
X229350000Y-72600000D02*
X229350000Y-70000000D01*
X224750000Y-72600000D02*
X229350000Y-72600000D01*
X229350000Y-70000000D02*
X224750000Y-70000000D01*
X224750000Y-70000000D02*
X224750000Y-72600000D01*
D12*
%TO.C,J2*%
X193760000Y-49540000D02*
X193760000Y-58140000D01*
D11*
X186260000Y-58140000D02*
X186260000Y-49540000D01*
X202560000Y-49540000D02*
X186260000Y-49540000D01*
X186260000Y-58140000D02*
X202560000Y-58140000D01*
X202560000Y-49540000D02*
X202560000Y-58140000D01*
D12*
%TO.C,J3*%
X193760000Y-64720000D02*
X193760000Y-73320000D01*
D11*
X186260000Y-73320000D02*
X202560000Y-73320000D01*
X186260000Y-73320000D02*
X186260000Y-64720000D01*
X202560000Y-64720000D02*
X202560000Y-73320000D01*
X202560000Y-64720000D02*
X186260000Y-64720000D01*
%TO.C,J4*%
X236500000Y-69530000D02*
X236500000Y-78180000D01*
X232950000Y-69530000D02*
X236500000Y-69530000D01*
X232950000Y-78180000D02*
X232950000Y-69530000D01*
X236500000Y-78180000D02*
X232950000Y-78180000D01*
%TO.C,J5*%
X231100000Y-58275000D02*
X231100000Y-52125000D01*
X227500000Y-52125000D02*
X227500000Y-58275000D01*
X231100000Y-52125000D02*
X227500000Y-52125000D01*
X227500000Y-58275000D02*
X231100000Y-58275000D01*
%TO.C,Y1*%
X216600000Y-73000000D02*
G75*
G03*
X216600000Y-73000000I-1950000J0D01*
G01*
%TO.C,R11*%
X208700000Y-69700000D02*
X223500000Y-69700000D01*
X223500000Y-66000000D02*
X208700000Y-66000000D01*
X223500000Y-69700000D02*
X223500000Y-66000000D01*
X208700000Y-66000000D02*
X208700000Y-69700000D01*
%TO.C,D4*%
X207200000Y-55580000D02*
X207200000Y-45860000D01*
X207200000Y-45860000D02*
X204700000Y-45860000D01*
X204700000Y-45860000D02*
X204700000Y-55580000D01*
X204700000Y-55580000D02*
X207200000Y-55580000D01*
%TO.C,C14*%
X232200000Y-48600000D02*
G75*
G03*
X232200000Y-48600000I-2750000J0D01*
G01*
%TO.C,L2*%
X211190000Y-58000000D02*
G75*
G03*
X211190000Y-58000000I-3490000J0D01*
G01*
%TO.C,D1*%
X205100000Y-76620000D02*
X205100000Y-66900000D01*
X202600000Y-66900000D02*
X202600000Y-76620000D01*
X202600000Y-76620000D02*
X205100000Y-76620000D01*
X205100000Y-66900000D02*
X202600000Y-66900000D01*
%TO.C,C15*%
X237830000Y-48525113D02*
G75*
G03*
X237830000Y-48525113I-2750000J0D01*
G01*
%TO.C,U1*%
X219800000Y-47950000D02*
X219800000Y-56750000D01*
X227000000Y-56750000D02*
X227000000Y-47950000D01*
X219800000Y-56750000D02*
X227000000Y-56750000D01*
X227000000Y-47950000D02*
X219800000Y-47950000D01*
%TO.C,D3*%
X202150000Y-55570000D02*
X204650000Y-55570000D01*
X204650000Y-45850000D02*
X202150000Y-45850000D01*
X204650000Y-55570000D02*
X204650000Y-45850000D01*
X202150000Y-45850000D02*
X202150000Y-55570000D01*
%TO.C,L1*%
X202010000Y-61360000D02*
G75*
G03*
X202010000Y-61360000I-3490000J0D01*
G01*
%TO.C,U3*%
X212000000Y-47950000D02*
X212000000Y-56750000D01*
X212000000Y-56750000D02*
X219200000Y-56750000D01*
X219200000Y-56750000D02*
X219200000Y-47950000D01*
X219200000Y-47950000D02*
X212000000Y-47950000D01*
%TO.C,J6*%
X236350000Y-52100000D02*
X236350000Y-68350000D01*
X236350000Y-68350000D02*
X232800000Y-68350000D01*
X232800000Y-52100000D02*
X236350000Y-52100000D01*
X232800000Y-68350000D02*
X232800000Y-52100000D01*
%TO.C,D2*%
X205150000Y-66900000D02*
X205150000Y-76620000D01*
X207650000Y-76620000D02*
X207650000Y-66900000D01*
X205150000Y-76620000D02*
X207650000Y-76620000D01*
X207650000Y-66900000D02*
X205150000Y-66900000D01*
%TD*%
M02*
