%TF.GenerationSoftware,KiCad,Pcbnew,6.0.2*%
%TF.CreationDate,2022-11-10T22:55:41+01:00*%
%TF.ProjectId,SI4735,53493437-3335-42e6-9b69-6361645f7063,rev?*%
%TF.SameCoordinates,Original*%
%TF.FileFunction,Copper,L1,Top*%
%TF.FilePolarity,Positive*%
%FSLAX46Y46*%
G04 Gerber Fmt 4.6, Leading zero omitted, Abs format (unit mm)*
G04 Created by KiCad (PCBNEW 6.0.2) date 2022-11-10 22:55:41*
%MOMM*%
%LPD*%
G01*
G04 APERTURE LIST*
G04 Aperture macros list*
%AMRoundRect*
0 Rectangle with rounded corners*
0 $1 Rounding radius*
0 $2 $3 $4 $5 $6 $7 $8 $9 X,Y pos of 4 corners*
0 Add a 4 corners polygon primitive as box body*
4,1,4,$2,$3,$4,$5,$6,$7,$8,$9,$2,$3,0*
0 Add four circle primitives for the rounded corners*
1,1,$1+$1,$2,$3*
1,1,$1+$1,$4,$5*
1,1,$1+$1,$6,$7*
1,1,$1+$1,$8,$9*
0 Add four rect primitives between the rounded corners*
20,1,$1+$1,$2,$3,$4,$5,0*
20,1,$1+$1,$4,$5,$6,$7,0*
20,1,$1+$1,$6,$7,$8,$9,0*
20,1,$1+$1,$8,$9,$2,$3,0*%
G04 Aperture macros list end*
%TA.AperFunction,Profile*%
%ADD10C,0.050000*%
%TD*%
%TA.AperFunction,Profile*%
%ADD11C,0.100000*%
%TD*%
%TA.AperFunction,ComponentPad*%
%ADD12R,1.600000X1.600000*%
%TD*%
%TA.AperFunction,ComponentPad*%
%ADD13C,1.600000*%
%TD*%
%TA.AperFunction,ComponentPad*%
%ADD14RoundRect,0.200100X0.949900X-0.949900X0.949900X0.949900X-0.949900X0.949900X-0.949900X-0.949900X0*%
%TD*%
%TA.AperFunction,ComponentPad*%
%ADD15C,2.500000*%
%TD*%
%TA.AperFunction,ComponentPad*%
%ADD16R,1.700000X1.700000*%
%TD*%
%TA.AperFunction,ComponentPad*%
%ADD17O,1.700000X1.700000*%
%TD*%
%TA.AperFunction,ComponentPad*%
%ADD18C,1.000000*%
%TD*%
%TA.AperFunction,ComponentPad*%
%ADD19O,1.600000X1.600000*%
%TD*%
%TA.AperFunction,ComponentPad*%
%ADD20C,2.000000*%
%TD*%
%TA.AperFunction,SMDPad,CuDef*%
%ADD21R,1.500000X2.000000*%
%TD*%
%TA.AperFunction,SMDPad,CuDef*%
%ADD22R,3.800000X2.000000*%
%TD*%
%TA.AperFunction,Conductor*%
%ADD23C,0.600000*%
%TD*%
%TA.AperFunction,Conductor*%
%ADD24C,0.700000*%
%TD*%
%TA.AperFunction,Conductor*%
%ADD25C,0.800000*%
%TD*%
%TA.AperFunction,Conductor*%
%ADD26C,1.200000*%
%TD*%
%TA.AperFunction,Conductor*%
%ADD27C,1.500000*%
%TD*%
%TA.AperFunction,Conductor*%
%ADD28C,1.000000*%
%TD*%
%TA.AperFunction,Conductor*%
%ADD29C,0.400000*%
%TD*%
%TA.AperFunction,Conductor*%
%ADD30C,0.300000*%
%TD*%
%TA.AperFunction,Conductor*%
%ADD31C,1.100000*%
%TD*%
%TA.AperFunction,Conductor*%
%ADD32C,2.000000*%
%TD*%
%TA.AperFunction,Conductor*%
%ADD33C,0.500000*%
%TD*%
G04 APERTURE END LIST*
D10*
X243000000Y-45450000D02*
G75*
G03*
X243000000Y-45450000I-1526434J0D01*
G01*
X243076434Y-77450000D02*
G75*
G03*
X243076434Y-77450000I-1526434J0D01*
G01*
X199535580Y-77486292D02*
G75*
G03*
X199535580Y-77486292I-1526434J0D01*
G01*
X244475000Y-81120000D02*
X193725000Y-81120000D01*
X193725000Y-81120000D02*
X193725000Y-42300000D01*
X193725000Y-42300000D02*
X244475000Y-42300000D01*
X244475000Y-42300000D02*
X244475000Y-81120000D01*
X199576434Y-45480000D02*
G75*
G03*
X199576434Y-45480000I-1526434J0D01*
G01*
D11*
%TO.C,J2*%
X193760000Y-49540000D02*
X193760000Y-58140000D01*
%TO.C,J3*%
X193760000Y-64720000D02*
X193760000Y-73320000D01*
%TD*%
D12*
%TO.P,C4,1*%
%TO.N,Net-(C4-Pad1)*%
X220750000Y-60850000D03*
D13*
%TO.P,C4,2*%
%TO.N,GND*%
X218750000Y-60850000D03*
%TD*%
%TO.P,C5,1*%
%TO.N,Net-(C5-Pad1)*%
X223450000Y-71150000D03*
%TO.P,C5,2*%
%TO.N,Net-(C5-Pad2)*%
X220950000Y-71150000D03*
%TD*%
%TO.P,C6,1*%
%TO.N,Net-(C6-Pad1)*%
X204900000Y-62000000D03*
%TO.P,C6,2*%
%TO.N,Net-(C6-Pad2)*%
X209900000Y-62000000D03*
%TD*%
%TO.P,C7,1*%
%TO.N,Net-(C7-Pad1)*%
X204900000Y-64650000D03*
%TO.P,C7,2*%
%TO.N,Net-(C7-Pad2)*%
X209900000Y-64650000D03*
%TD*%
D12*
%TO.P,C8,1*%
%TO.N,Net-(C5-Pad1)*%
X215000000Y-60700000D03*
D13*
%TO.P,C8,2*%
%TO.N,GND*%
X213000000Y-60700000D03*
%TD*%
%TO.P,C9,1*%
%TO.N,Net-(C9-Pad1)*%
X230800000Y-70200000D03*
%TO.P,C9,2*%
%TO.N,Net-(C12-Pad2)*%
X230800000Y-72700000D03*
%TD*%
%TO.P,C10,1*%
%TO.N,Net-(C10-Pad1)*%
X230800000Y-77400000D03*
%TO.P,C10,2*%
%TO.N,Net-(C10-Pad2)*%
X230800000Y-74900000D03*
%TD*%
%TO.P,C11,1*%
%TO.N,GND*%
X228200000Y-77700000D03*
%TO.P,C11,2*%
%TO.N,Net-(C10-Pad2)*%
X225700000Y-77700000D03*
%TD*%
%TO.P,C12,1*%
%TO.N,GND*%
X228300000Y-71300000D03*
%TO.P,C12,2*%
%TO.N,Net-(C12-Pad2)*%
X225800000Y-71300000D03*
%TD*%
D14*
%TO.P,J2,1,Pin_1*%
%TO.N,Net-(C6-Pad1)*%
X198260000Y-53840000D03*
D15*
%TO.P,J2,2,Pin_2*%
%TO.N,GND*%
X200800000Y-56380000D03*
X200800000Y-51300000D03*
X195720000Y-56380000D03*
X195720000Y-51300000D03*
%TD*%
D14*
%TO.P,J3,1,Pin_1*%
%TO.N,Net-(C7-Pad1)*%
X198260000Y-69020000D03*
D15*
%TO.P,J3,2,Pin_2*%
%TO.N,GND*%
X195720000Y-66480000D03*
X195720000Y-71560000D03*
X200800000Y-66480000D03*
X200800000Y-71560000D03*
%TD*%
D16*
%TO.P,J4,1,Pin_1*%
%TO.N,Net-(C10-Pad1)*%
X234700000Y-76380000D03*
D17*
%TO.P,J4,2,Pin_2*%
%TO.N,GND*%
X234700000Y-73840000D03*
%TO.P,J4,3,Pin_3*%
%TO.N,Net-(C9-Pad1)*%
X234700000Y-71300000D03*
%TD*%
D16*
%TO.P,J5,1,Pin_1*%
%TO.N,GND*%
X229300000Y-56475000D03*
D17*
%TO.P,J5,2,Pin_2*%
%TO.N,Net-(C14-Pad1)*%
X229300000Y-53935000D03*
%TD*%
D18*
%TO.P,Y1,1,1*%
%TO.N,Net-(C2-Pad1)*%
X215600000Y-73000000D03*
%TO.P,Y1,2,2*%
%TO.N,Net-(C3-Pad1)*%
X213700000Y-73000000D03*
%TD*%
D13*
%TO.P,R11,1*%
%TO.N,Net-(R11-Pad1)*%
X209750000Y-67850000D03*
D19*
%TO.P,R11,2*%
%TO.N,Net-(C4-Pad1)*%
X222450000Y-67850000D03*
%TD*%
D12*
%TO.P,D4,1,K*%
%TO.N,Net-(C6-Pad1)*%
X205950000Y-54530000D03*
D19*
%TO.P,D4,2,A*%
%TO.N,GND*%
X205950000Y-46910000D03*
%TD*%
D12*
%TO.P,C14,1*%
%TO.N,Net-(C14-Pad1)*%
X228450000Y-48600000D03*
D13*
%TO.P,C14,2*%
%TO.N,GND*%
X230450000Y-48600000D03*
%TD*%
D20*
%TO.P,L2,1,1*%
%TO.N,Net-(C6-Pad1)*%
X205700000Y-58000000D03*
%TO.P,L2,2,2*%
%TO.N,GND*%
X209700000Y-58000000D03*
%TD*%
D12*
%TO.P,D1,1,K*%
%TO.N,GND*%
X203850000Y-75570000D03*
D19*
%TO.P,D1,2,A*%
%TO.N,Net-(C7-Pad1)*%
X203850000Y-67950000D03*
%TD*%
D12*
%TO.P,C15,1*%
%TO.N,Net-(C14-Pad1)*%
X235080000Y-49525113D03*
D13*
%TO.P,C15,2*%
%TO.N,GND*%
X235080000Y-47525113D03*
%TD*%
D21*
%TO.P,U1,1,GND*%
%TO.N,GND*%
X221100000Y-55500000D03*
D22*
%TO.P,U1,2,VO*%
%TO.N,Net-(C4-Pad1)*%
X223400000Y-49200000D03*
D21*
X223400000Y-55500000D03*
%TO.P,U1,3,VI*%
%TO.N,Net-(C14-Pad1)*%
X225700000Y-55500000D03*
%TD*%
D12*
%TO.P,D3,1,K*%
%TO.N,GND*%
X203400000Y-46900000D03*
D19*
%TO.P,D3,2,A*%
%TO.N,Net-(C6-Pad1)*%
X203400000Y-54520000D03*
%TD*%
D20*
%TO.P,L1,1,1*%
%TO.N,Net-(C7-Pad1)*%
X200520000Y-61360000D03*
%TO.P,L1,2,2*%
%TO.N,Net-(C6-Pad1)*%
X196520000Y-61360000D03*
%TD*%
D21*
%TO.P,U3,1,GND*%
%TO.N,GND*%
X213300000Y-55500000D03*
%TO.P,U3,2,VO*%
%TO.N,Net-(C5-Pad1)*%
X215600000Y-55500000D03*
D22*
X215600000Y-49200000D03*
D21*
%TO.P,U3,3,VI*%
%TO.N,Net-(C14-Pad1)*%
X217900000Y-55500000D03*
%TD*%
D16*
%TO.P,J6,1,Pin_1*%
%TO.N,Net-(C4-Pad1)*%
X234600000Y-53900000D03*
D17*
%TO.P,J6,2,Pin_2*%
%TO.N,Net-(J6-Pad2)*%
X234600000Y-56440000D03*
%TO.P,J6,3,Pin_3*%
%TO.N,Net-(J6-Pad3)*%
X234600000Y-58980000D03*
%TO.P,J6,4,Pin_4*%
%TO.N,Net-(J6-Pad4)*%
X234600000Y-61520000D03*
%TO.P,J6,5,Pin_5*%
%TO.N,Net-(J6-Pad5)*%
X234600000Y-64060000D03*
%TO.P,J6,6,Pin_6*%
%TO.N,GND*%
X234600000Y-66600000D03*
%TD*%
D12*
%TO.P,D2,1,K*%
%TO.N,Net-(C7-Pad1)*%
X206400000Y-67950000D03*
D19*
%TO.P,D2,2,A*%
%TO.N,GND*%
X206400000Y-75570000D03*
%TD*%
D23*
%TO.N,GND*%
X209600000Y-54100000D02*
X209600000Y-53600000D01*
D24*
X209775000Y-71175000D02*
X209775000Y-71975000D01*
D25*
X244074980Y-63325020D02*
X243309511Y-64090489D01*
D24*
X204975000Y-71975000D02*
X204625000Y-71975000D01*
D25*
X241400000Y-53400000D02*
X240200000Y-53400000D01*
D26*
X228600000Y-64700000D02*
X228300489Y-64999511D01*
X211000000Y-55500000D02*
X209600000Y-54100000D01*
D27*
X213000000Y-60700000D02*
X213000000Y-62810002D01*
D26*
X220200000Y-44250000D02*
X220550000Y-44250000D01*
X212200001Y-65062050D02*
X212200001Y-66099999D01*
D25*
X200800000Y-74513708D02*
X194880842Y-74513708D01*
D28*
X231750000Y-79650000D02*
X231898000Y-79502000D01*
D25*
X203620000Y-58280000D02*
X203225000Y-58675000D01*
D26*
X232300000Y-61600000D02*
X232300000Y-62900000D01*
D29*
X213090000Y-69800000D02*
X213090000Y-68950000D01*
D26*
X199299980Y-80399980D02*
X198380794Y-80399980D01*
X226650000Y-45050000D02*
X228000000Y-45050000D01*
D25*
X228200000Y-77700000D02*
X227375000Y-78525000D01*
X236040000Y-45410000D02*
X235615000Y-44985000D01*
X195720000Y-51300000D02*
X195720000Y-51720000D01*
X202799511Y-59100489D02*
X202950489Y-59100489D01*
D24*
X210998533Y-78301467D02*
X211199511Y-78100489D01*
D25*
X227300000Y-74000000D02*
X227300000Y-74550000D01*
X240284000Y-80499980D02*
X240064000Y-80719980D01*
D24*
X210799998Y-70800000D02*
X210799998Y-73049998D01*
D25*
X227300000Y-73350000D02*
X219610000Y-73350000D01*
X227300000Y-79601300D02*
X227000650Y-79900650D01*
X194770000Y-70030000D02*
X194360020Y-70439980D01*
D26*
X201399980Y-80000020D02*
X201399980Y-78832886D01*
D30*
X200800000Y-55150000D02*
X200800000Y-51100000D01*
D26*
X207975000Y-59725000D02*
X208050000Y-59650000D01*
D23*
X212200001Y-62399999D02*
X213000000Y-61600000D01*
D24*
X209350000Y-74350000D02*
X207500000Y-74350000D01*
D27*
X213000000Y-62810002D02*
X212000000Y-63810002D01*
D26*
X201399980Y-80000020D02*
X201399980Y-79932886D01*
X199190000Y-47830000D02*
X199260000Y-47760000D01*
X214929220Y-46620780D02*
X214079220Y-46620780D01*
X239750000Y-61650000D02*
X237750000Y-61650000D01*
D31*
X211540489Y-70040489D02*
X211800000Y-70300000D01*
D26*
X206825000Y-51875000D02*
X204825000Y-51875000D01*
D25*
X233600000Y-47600000D02*
X232850000Y-47600000D01*
D28*
X219800000Y-76075000D02*
X219412500Y-75687500D01*
D29*
X214165001Y-68064999D02*
X213074999Y-68064999D01*
D24*
X204775000Y-73275000D02*
X204625000Y-73125000D01*
D26*
X209600020Y-80399980D02*
X221224980Y-80399980D01*
D29*
X213205001Y-67104999D02*
X212200001Y-66099999D01*
D25*
X223400000Y-77350000D02*
X223100000Y-77050000D01*
D26*
X202050000Y-46000000D02*
X207000000Y-46000000D01*
X200800000Y-51300000D02*
X199200000Y-49700000D01*
X209600000Y-49250000D02*
X209600000Y-48900000D01*
X229600000Y-56975000D02*
X231075000Y-56975000D01*
D25*
X244074980Y-46575020D02*
X244074980Y-45074980D01*
D24*
X211800000Y-72750000D02*
X211800000Y-70300000D01*
D25*
X234400000Y-47600000D02*
X233600000Y-47600000D01*
X208025000Y-53075000D02*
X208025000Y-56175000D01*
D26*
X242419510Y-67919510D02*
X241680490Y-67919510D01*
X228300489Y-66900489D02*
X228300489Y-66000489D01*
D24*
X208990000Y-71510000D02*
X209065000Y-71435000D01*
D26*
X210150000Y-58850000D02*
X210975000Y-59675000D01*
D30*
X212600000Y-57500000D02*
X212600000Y-56200000D01*
D24*
X211500000Y-75350000D02*
X211500000Y-74500000D01*
D28*
X217474511Y-78325489D02*
X216900489Y-78325489D01*
D26*
X199392000Y-72900000D02*
X199100000Y-72900000D01*
X238100000Y-53400000D02*
X237500000Y-53400000D01*
D28*
X219412500Y-75687500D02*
X219137500Y-75412500D01*
D25*
X236300000Y-73000000D02*
X236500000Y-73000000D01*
X228000000Y-70200000D02*
X228300000Y-69900000D01*
D28*
X221150000Y-78000000D02*
X221150000Y-75825000D01*
D26*
X209600020Y-78435980D02*
X209600020Y-78400020D01*
D25*
X233500000Y-47050000D02*
X233900000Y-47050000D01*
X238000000Y-61900000D02*
X238200000Y-62100000D01*
X227300000Y-74550000D02*
X227300000Y-74950000D01*
X202570000Y-56380000D02*
X195720000Y-56380000D01*
D26*
X237500000Y-61400000D02*
X243700000Y-61400000D01*
X228800000Y-44400000D02*
X228650000Y-44250000D01*
X209600000Y-48900000D02*
X207950000Y-47250000D01*
X207499511Y-60400489D02*
X207499511Y-65700489D01*
D28*
X231856000Y-79756000D02*
X238306000Y-79756000D01*
D26*
X233600489Y-68399511D02*
X235439509Y-68399511D01*
D25*
X223099960Y-78150000D02*
X221974980Y-77025020D01*
X234340000Y-43710000D02*
X233976433Y-43346433D01*
X229136547Y-43563453D02*
X217316587Y-43563453D01*
X203620000Y-57670000D02*
X203280000Y-57670000D01*
D28*
X203040000Y-75760000D02*
X202999980Y-75800020D01*
D26*
X220550000Y-44250000D02*
X228650000Y-44250000D01*
D24*
X206325000Y-72775000D02*
X206325000Y-73775000D01*
D25*
X207925000Y-49575000D02*
X207925000Y-50175000D01*
X243050000Y-52550000D02*
X243050000Y-53150000D01*
D27*
X212000000Y-63810002D02*
X212000000Y-67200000D01*
D25*
X235275000Y-44025000D02*
X235050000Y-43800000D01*
D28*
X217787500Y-75287500D02*
X217050000Y-74550000D01*
D26*
X198874088Y-79638031D02*
X200609146Y-77902973D01*
D24*
X205675000Y-73275000D02*
X205675000Y-73775000D01*
D25*
X238000000Y-54600000D02*
X238000000Y-61900000D01*
X196500000Y-79700000D02*
X195650020Y-79700000D01*
D26*
X196199553Y-78695885D02*
X195629146Y-78125478D01*
D31*
X208430000Y-69720000D02*
X207975000Y-70175000D01*
D25*
X234700000Y-73840000D02*
X235460000Y-73840000D01*
D26*
X216500000Y-70800000D02*
X215500000Y-69800000D01*
D25*
X239150000Y-47600000D02*
X239600000Y-48050000D01*
X234300000Y-45800000D02*
X234300000Y-45350000D01*
D26*
X236600000Y-65500000D02*
X236600000Y-66400000D01*
D28*
X231898000Y-79502000D02*
X237744000Y-79502000D01*
D24*
X212804950Y-77845050D02*
X213950000Y-76700000D01*
D28*
X217800000Y-73800000D02*
X217300000Y-73300000D01*
D26*
X194360020Y-79290000D02*
X194360020Y-77989980D01*
X200800000Y-49300000D02*
X199260000Y-47760000D01*
D25*
X237000000Y-47900000D02*
X236700000Y-47600000D01*
D26*
X208950000Y-56200000D02*
X209600000Y-55550000D01*
D25*
X241700000Y-54350000D02*
X241700000Y-62000000D01*
D26*
X196849553Y-79345885D02*
X196199553Y-78695885D01*
D25*
X236040000Y-45940000D02*
X236700000Y-46600000D01*
D24*
X212450000Y-74450000D02*
X210710000Y-72710000D01*
D28*
X237744000Y-72390000D02*
X237744000Y-71882000D01*
D24*
X211500000Y-77650000D02*
X211875000Y-77275000D01*
D25*
X226900000Y-69800000D02*
X227300000Y-70200000D01*
X203625000Y-51875000D02*
X203625000Y-50925000D01*
D30*
X200800000Y-51100000D02*
X195720000Y-51100000D01*
D28*
X200266000Y-75343146D02*
X200709146Y-74900000D01*
D25*
X228000000Y-79250000D02*
X228200000Y-79450000D01*
D26*
X200800000Y-71000000D02*
X201800000Y-70000000D01*
D29*
X213074999Y-68064999D02*
X212699999Y-68439999D01*
D25*
X243150000Y-69050978D02*
X242900489Y-69300489D01*
D24*
X208110000Y-73960000D02*
X208540000Y-73960000D01*
D26*
X217200000Y-47250000D02*
X212250000Y-47250000D01*
D25*
X232325000Y-48125000D02*
X231850000Y-48600000D01*
D26*
X230099980Y-80399980D02*
X230300020Y-80399980D01*
D25*
X203625000Y-51875000D02*
X203050000Y-51300000D01*
X241300000Y-68326000D02*
X241300000Y-73943022D01*
X235475000Y-46725000D02*
X235475000Y-45125000D01*
D26*
X195890000Y-44632176D02*
X195890000Y-46339186D01*
D28*
X217451467Y-77000489D02*
X218125489Y-77674511D01*
D24*
X206325000Y-72775000D02*
X205425000Y-72775000D01*
D26*
X205325000Y-50475000D02*
X205325000Y-49025000D01*
D28*
X202243146Y-73346854D02*
X202243146Y-70116854D01*
D29*
X212400000Y-55500000D02*
X211400000Y-54500000D01*
D25*
X233199511Y-68399511D02*
X231900489Y-68399511D01*
D24*
X203410000Y-71810000D02*
X203710000Y-71510000D01*
D29*
X214855000Y-69155000D02*
X214785000Y-69085000D01*
D26*
X215500000Y-69800000D02*
X214220000Y-69800000D01*
X209600000Y-55550000D02*
X209600000Y-54100000D01*
D24*
X212450000Y-74300000D02*
X215000000Y-74300000D01*
D26*
X200800000Y-47250000D02*
X201525000Y-46525000D01*
D25*
X231800000Y-45350000D02*
X233500000Y-47050000D01*
X241400000Y-53400000D02*
X241400000Y-54000000D01*
D26*
X200452793Y-44857207D02*
X200452793Y-46093888D01*
X217250000Y-47200000D02*
X218425000Y-46025000D01*
X212300000Y-58900000D02*
X210800000Y-57400000D01*
D25*
X239086399Y-45986399D02*
X239536399Y-45986399D01*
X237250000Y-54600000D02*
X238000000Y-54600000D01*
X239150000Y-53350000D02*
X239200000Y-53400000D01*
D28*
X220425000Y-78725000D02*
X220425000Y-79600000D01*
D25*
X227850000Y-70800000D02*
X226900000Y-69850000D01*
D26*
X217250000Y-47200000D02*
X220200000Y-44250000D01*
D24*
X211199511Y-78100489D02*
X211199511Y-77950489D01*
D25*
X207350000Y-59750000D02*
X206699511Y-60400489D01*
D26*
X212250000Y-47250000D02*
X211400000Y-48100000D01*
X230799511Y-58899511D02*
X229259511Y-58899511D01*
X195720000Y-77930020D02*
X195225010Y-78425010D01*
D24*
X212050000Y-73900000D02*
X212450000Y-74300000D01*
D25*
X244074980Y-42700020D02*
X244074980Y-42700000D01*
X241700000Y-62000000D02*
X242400000Y-62700000D01*
D28*
X210300000Y-73300000D02*
X210300000Y-70900000D01*
D25*
X230749022Y-48300000D02*
X231550000Y-48300000D01*
X203600000Y-59750000D02*
X203525000Y-59675000D01*
X244074980Y-64724980D02*
X244074980Y-63325020D01*
X204825000Y-51875000D02*
X203625000Y-51875000D01*
D26*
X195225010Y-78425010D02*
X195650000Y-78850000D01*
D25*
X243974960Y-43425000D02*
X244074980Y-43525020D01*
X237590489Y-63140489D02*
X243890449Y-63140489D01*
D26*
X195720000Y-51300000D02*
X196710000Y-50310000D01*
D25*
X234325000Y-46625000D02*
X234325000Y-45825000D01*
X196413840Y-58841606D02*
X195091606Y-58841606D01*
X195720000Y-68480000D02*
X195720000Y-66480000D01*
D26*
X200452793Y-44857207D02*
X200232793Y-44637207D01*
X214220000Y-69800000D02*
X213090000Y-69800000D01*
D28*
X239522000Y-80499980D02*
X240284000Y-80499980D01*
D25*
X227550000Y-79450000D02*
X227000650Y-78900650D01*
X242900489Y-68400489D02*
X242900489Y-69300489D01*
D26*
X208975000Y-54925000D02*
X208525000Y-54475000D01*
D29*
X214630001Y-68930001D02*
X214630001Y-68529999D01*
D26*
X209600000Y-57400000D02*
X209600000Y-49250000D01*
D25*
X238460000Y-73840000D02*
X238760000Y-74140000D01*
X235705020Y-43144980D02*
X244074980Y-43144980D01*
D28*
X202243146Y-73346854D02*
X201710000Y-73880000D01*
D25*
X204430978Y-59750000D02*
X204015489Y-60165489D01*
X199089351Y-79422769D02*
X200146471Y-78365649D01*
D28*
X243471306Y-78347852D02*
X243471306Y-76822694D01*
D25*
X244074980Y-42700000D02*
X243050000Y-42700000D01*
X240450000Y-65700000D02*
X239069510Y-67080490D01*
D24*
X206990000Y-73960000D02*
X207510000Y-73960000D01*
D25*
X194360020Y-70200020D02*
X194360020Y-69260020D01*
X241850000Y-52887949D02*
X242419510Y-53457459D01*
X216212500Y-77637500D02*
X215999511Y-77424511D01*
D26*
X214300489Y-79299511D02*
X215575489Y-79299511D01*
D25*
X237800000Y-54300000D02*
X237500000Y-54300000D01*
D24*
X212500000Y-71100000D02*
X212050000Y-71550000D01*
D25*
X237200000Y-47600000D02*
X237200000Y-53100000D01*
D28*
X216500000Y-70800000D02*
X216625000Y-70925000D01*
D25*
X240900000Y-64500000D02*
X240900000Y-65250000D01*
D26*
X213300000Y-55500000D02*
X212500000Y-55500000D01*
X222249520Y-45350480D02*
X216199520Y-45350480D01*
X218425000Y-46025000D02*
X217200000Y-47250000D01*
D24*
X208505000Y-72775000D02*
X207715000Y-71985000D01*
D26*
X228700978Y-65600000D02*
X232300000Y-65600000D01*
D24*
X211875000Y-77275000D02*
X212000000Y-77150000D01*
D26*
X195110020Y-47089980D02*
X194360020Y-47839980D01*
D28*
X237744000Y-71120000D02*
X237744000Y-70358000D01*
D25*
X243050000Y-42700000D02*
X242740000Y-43010000D01*
X234325000Y-46875000D02*
X234325000Y-46625000D01*
X237744000Y-74676000D02*
X237346000Y-74676000D01*
X242273811Y-43521656D02*
X243400965Y-44648810D01*
D24*
X209775000Y-72775000D02*
X208505000Y-72775000D01*
D25*
X235050000Y-47600000D02*
X236700000Y-47600000D01*
D26*
X210300000Y-73300000D02*
X211400000Y-72200000D01*
D24*
X209775000Y-71975000D02*
X209125000Y-71975000D01*
D28*
X218300000Y-73800000D02*
X217800000Y-73800000D01*
D24*
X211106854Y-74956854D02*
X210256854Y-74956854D01*
X203125000Y-72775000D02*
X203040000Y-72860000D01*
D26*
X202350000Y-46450000D02*
X200800000Y-48000000D01*
D25*
X238400000Y-47300000D02*
X238400000Y-54400000D01*
D24*
X211100000Y-74350000D02*
X209350000Y-74350000D01*
D29*
X214395001Y-69064999D02*
X213860001Y-68529999D01*
D28*
X217550000Y-74550000D02*
X217300000Y-74300000D01*
D24*
X210899980Y-78400020D02*
X210998533Y-78301467D01*
D25*
X233150000Y-73150000D02*
X234852000Y-73150000D01*
D24*
X203040000Y-73960000D02*
X203040000Y-72860000D01*
D26*
X209100000Y-46750000D02*
X201750000Y-46750000D01*
D28*
X215600000Y-76000000D02*
X215600489Y-75999511D01*
D24*
X203040000Y-72180000D02*
X203410000Y-71810000D01*
D25*
X241299511Y-74949511D02*
X241299511Y-68326489D01*
X209100000Y-48400000D02*
X207925000Y-49575000D01*
X204015489Y-60165489D02*
X203290000Y-60890978D01*
X209600000Y-49250000D02*
X209000000Y-49250000D01*
D26*
X232300000Y-56700000D02*
X232300000Y-58500000D01*
D25*
X242000000Y-53400000D02*
X241400000Y-54000000D01*
X203225000Y-58675000D02*
X202799511Y-59100489D01*
X241100000Y-68500000D02*
X241100000Y-68700000D01*
D26*
X237590489Y-65709511D02*
X237800000Y-65500000D01*
D24*
X208740000Y-71510000D02*
X208990000Y-71510000D01*
D25*
X240500000Y-55300000D02*
X240300000Y-55300000D01*
D26*
X209050000Y-54100000D02*
X208025000Y-53075000D01*
D28*
X226900000Y-57500000D02*
X226900000Y-65900000D01*
X219087989Y-78637011D02*
X218650489Y-78199511D01*
X204499940Y-78299980D02*
X204999980Y-78800020D01*
D29*
X213160001Y-67969999D02*
X212965000Y-68165000D01*
D26*
X204475000Y-51325000D02*
X205325000Y-50475000D01*
D25*
X219610000Y-73350000D02*
X219050000Y-73350000D01*
D28*
X242062000Y-73738000D02*
X242062000Y-68301020D01*
D26*
X211400000Y-55350000D02*
X211250000Y-55500000D01*
D24*
X203675000Y-70425000D02*
X203040000Y-71060000D01*
D25*
X240150000Y-47600000D02*
X240150000Y-52800000D01*
D26*
X198280489Y-64880489D02*
X194769045Y-64880489D01*
D25*
X241826020Y-80499980D02*
X241050020Y-80499980D01*
X237744000Y-73152000D02*
X233952000Y-73152000D01*
X237575000Y-48475000D02*
X237000000Y-47900000D01*
X233500000Y-47600000D02*
X233600000Y-47600000D01*
X231950000Y-44250000D02*
X231950000Y-44500000D01*
D26*
X218550489Y-79299511D02*
X219750489Y-79299511D01*
X234260000Y-43010000D02*
X242740000Y-43010000D01*
X208950000Y-59750000D02*
X208950000Y-56200000D01*
D28*
X237744000Y-75692000D02*
X237998000Y-75438000D01*
D25*
X227329220Y-45050000D02*
X229514610Y-47235390D01*
D26*
X201800000Y-65937949D02*
X201800000Y-70000000D01*
X212200001Y-68439999D02*
X212200001Y-68999999D01*
D29*
X213930001Y-67829999D02*
X212429999Y-67829999D01*
D23*
X213000000Y-61600000D02*
X213000000Y-62000000D01*
D25*
X203280000Y-57670000D02*
X202409022Y-57670000D01*
X238150000Y-64500000D02*
X237650000Y-65000000D01*
X199517487Y-78994633D02*
X199089351Y-79422769D01*
D26*
X231750000Y-79650000D02*
X230350000Y-79650000D01*
D25*
X199610000Y-65290000D02*
X199200489Y-64880489D01*
D26*
X213300000Y-55500000D02*
X211400000Y-53600000D01*
D25*
X195720000Y-51300000D02*
X195720000Y-52080000D01*
X223400000Y-75550000D02*
X222500000Y-75550000D01*
D29*
X214785000Y-69085000D02*
X213885000Y-69085000D01*
D25*
X239536399Y-46163601D02*
X238400000Y-47300000D01*
D28*
X205099980Y-78299980D02*
X201613728Y-78299980D01*
D26*
X196199553Y-78695885D02*
X195880786Y-78377118D01*
D25*
X237590489Y-64090489D02*
X237590489Y-63140489D01*
X195960770Y-58388536D02*
X194360020Y-58388536D01*
X240200000Y-53400000D02*
X239200000Y-54400000D01*
D26*
X229300000Y-56475000D02*
X228225000Y-56475000D01*
D24*
X209417050Y-77845050D02*
X212804950Y-77845050D01*
D26*
X200800000Y-48950000D02*
X202500000Y-47250000D01*
X221449980Y-73699980D02*
X219900020Y-73699980D01*
D25*
X243921616Y-43521656D02*
X236428344Y-43521656D01*
D29*
X215500000Y-69800000D02*
X214580000Y-69800000D01*
D30*
X212600000Y-56200000D02*
X213300000Y-55500000D01*
D25*
X240567517Y-47284557D02*
X240885195Y-47284557D01*
D26*
X230350000Y-79650000D02*
X230300020Y-79600020D01*
D24*
X212050000Y-71550000D02*
X212050000Y-73900000D01*
D25*
X200800000Y-53000000D02*
X207050000Y-53000000D01*
D26*
X240150000Y-61650000D02*
X239750000Y-61650000D01*
D25*
X243700000Y-55350000D02*
X243050000Y-54700000D01*
D26*
X229600000Y-56975000D02*
X229275000Y-57300000D01*
D25*
X195020000Y-69180000D02*
X195720000Y-68480000D01*
X196400000Y-57467766D02*
X196287277Y-57580489D01*
X239550000Y-55300000D02*
X238550000Y-55300000D01*
D28*
X202243146Y-77456814D02*
X202631382Y-77845050D01*
D26*
X201399980Y-80399980D02*
X202999980Y-80399980D01*
X200146471Y-76596253D02*
X200146471Y-78365649D01*
D25*
X239200000Y-56650000D02*
X239200000Y-60600000D01*
D29*
X212699999Y-68439999D02*
X214060000Y-69800000D01*
D25*
X233150000Y-73150000D02*
X233150000Y-73550000D01*
D26*
X217300000Y-72700000D02*
X217300000Y-72500000D01*
D25*
X237346000Y-74676000D02*
X236510000Y-73840000D01*
X238100000Y-53400000D02*
X238100000Y-49000000D01*
D29*
X214395001Y-69064999D02*
X214395001Y-68764999D01*
D26*
X198360000Y-48660000D02*
X196680040Y-48660000D01*
D23*
X212200001Y-61699999D02*
X212900001Y-61699999D01*
D25*
X235875000Y-44625000D02*
X235275000Y-44025000D01*
D26*
X205599980Y-79799980D02*
X204999980Y-80399980D01*
D25*
X243700000Y-61400000D02*
X243700000Y-55350000D01*
D28*
X237744000Y-76200000D02*
X237744000Y-75692000D01*
D26*
X232700000Y-67400000D02*
X228800000Y-67400000D01*
D25*
X241921656Y-43521656D02*
X242521656Y-43521656D01*
D26*
X206250000Y-47250000D02*
X206250000Y-47450000D01*
D24*
X213754950Y-77845050D02*
X213799511Y-77800489D01*
D26*
X219125000Y-45325000D02*
X219475000Y-45325000D01*
D25*
X209199511Y-59100489D02*
X209450000Y-58850000D01*
X241334045Y-47384045D02*
X240741519Y-47384045D01*
D26*
X214300489Y-79299511D02*
X214300489Y-78301467D01*
D23*
X209600000Y-53600000D02*
X208550000Y-52550000D01*
D25*
X238100000Y-53750000D02*
X237250000Y-54600000D01*
D26*
X200266000Y-75743146D02*
X201466000Y-76943146D01*
D29*
X215500000Y-69800000D02*
X215500000Y-69399998D01*
D24*
X205675000Y-71975000D02*
X205675000Y-73275000D01*
D26*
X234600000Y-66600000D02*
X228900000Y-66600000D01*
D25*
X202799511Y-59100489D02*
X202799511Y-57100489D01*
D26*
X231600489Y-58899511D02*
X231900000Y-58600000D01*
D25*
X233600000Y-73000000D02*
X233450000Y-72850000D01*
D24*
X208100489Y-64950489D02*
X208100489Y-65749511D01*
D25*
X234700000Y-42700000D02*
X235425000Y-43425000D01*
D26*
X202319511Y-63919511D02*
X202319511Y-62919511D01*
X202243146Y-77456814D02*
X202243146Y-74956854D01*
D25*
X203620000Y-57080000D02*
X202820000Y-57080000D01*
D24*
X212956854Y-74956854D02*
X212450000Y-74450000D01*
X211200000Y-73450000D02*
X212650000Y-74900000D01*
D28*
X203113728Y-79799980D02*
X201613728Y-78299980D01*
D26*
X235439509Y-68399511D02*
X235919510Y-67919510D01*
D29*
X214060000Y-69800000D02*
X214220000Y-69800000D01*
D25*
X243400020Y-80499980D02*
X243400020Y-79930020D01*
D28*
X215999511Y-75999511D02*
X218550489Y-75999511D01*
D25*
X237592000Y-73000000D02*
X237744000Y-73152000D01*
D23*
X212200001Y-61499999D02*
X212200001Y-61699999D01*
D24*
X206510000Y-73960000D02*
X206990000Y-73960000D01*
X204075000Y-71975000D02*
X203575000Y-71975000D01*
D25*
X231550000Y-46300000D02*
X232850000Y-47600000D01*
D26*
X203400000Y-47950000D02*
X203400000Y-47250000D01*
X231900000Y-58600000D02*
X232300000Y-58200000D01*
X238912490Y-67919510D02*
X235919510Y-67919510D01*
D24*
X209775000Y-72775000D02*
X209775000Y-73925000D01*
D25*
X239742000Y-80719980D02*
X244050000Y-80719980D01*
D24*
X213250000Y-77400000D02*
X213250000Y-76000000D01*
D26*
X212100002Y-67200000D02*
X212200001Y-67299999D01*
X227300650Y-79900650D02*
X227000650Y-79900650D01*
D28*
X231075000Y-56975000D02*
X231075000Y-57084022D01*
D26*
X194560489Y-59560489D02*
X194500000Y-59500000D01*
D25*
X239536399Y-44863601D02*
X239536399Y-45986399D01*
D26*
X204850000Y-47250000D02*
X205200000Y-47250000D01*
X237100000Y-62700000D02*
X238400000Y-61400000D01*
D25*
X195000000Y-52800000D02*
X195000000Y-58750000D01*
X223400000Y-78150000D02*
X223400000Y-78800000D01*
D26*
X229600000Y-56975000D02*
X229600000Y-59900978D01*
X206850000Y-50550000D02*
X205325000Y-49025000D01*
D25*
X237590489Y-63140489D02*
X237590489Y-62709511D01*
X203225000Y-58675000D02*
X203225000Y-57725000D01*
X223100000Y-77050000D02*
X222550020Y-76500020D01*
D26*
X212550000Y-56250000D02*
X210750000Y-56250000D01*
D25*
X242649980Y-80499980D02*
X242425000Y-80275000D01*
X239000000Y-62900000D02*
X238200000Y-62100000D01*
X232850000Y-47600000D02*
X232325000Y-48125000D01*
D29*
X213930001Y-67829999D02*
X213635001Y-67534999D01*
D25*
X236700000Y-53500000D02*
X236700000Y-54550000D01*
D26*
X210900000Y-59750000D02*
X208950000Y-59750000D01*
X242362051Y-53400000D02*
X241400000Y-53400000D01*
X200800000Y-47350000D02*
X200800000Y-47250000D01*
D25*
X208025000Y-55875000D02*
X208975000Y-54925000D01*
D23*
X213000000Y-60700000D02*
X213000000Y-61600000D01*
D28*
X201556854Y-74956854D02*
X201448854Y-74956854D01*
D25*
X243400020Y-79930020D02*
X243055040Y-80275000D01*
D31*
X211480000Y-69720000D02*
X208430000Y-69720000D01*
D26*
X196710000Y-50310000D02*
X197310000Y-49710000D01*
D25*
X196941198Y-75542345D02*
X196081783Y-76401760D01*
X241700000Y-54600000D02*
X242419510Y-53880490D01*
D26*
X231399511Y-60999511D02*
X232000000Y-61600000D01*
D29*
X213090000Y-68950000D02*
X213090000Y-68430000D01*
D26*
X211800000Y-70800000D02*
X216500000Y-70800000D01*
X231950000Y-44250000D02*
X231050000Y-45150000D01*
D25*
X233150000Y-74000000D02*
X233150000Y-74500000D01*
X222550020Y-76500020D02*
X221449980Y-76500020D01*
D24*
X210799998Y-73049998D02*
X211200000Y-73450000D01*
D26*
X210650000Y-47250000D02*
X210750000Y-47250000D01*
D25*
X215999511Y-77424511D02*
X215999511Y-75999511D01*
D24*
X212775000Y-76025000D02*
X212450000Y-75700000D01*
D26*
X217300000Y-71600000D02*
X219050000Y-73350000D01*
D24*
X206875000Y-71975000D02*
X206325000Y-71975000D01*
D26*
X196100000Y-48500000D02*
X194930000Y-48500000D01*
X228300489Y-58899511D02*
X230799511Y-58899511D01*
D25*
X240900000Y-61350000D02*
X240600000Y-61650000D01*
D26*
X230300020Y-80399980D02*
X230300020Y-79600020D01*
D25*
X234340000Y-43710000D02*
X233640000Y-43010000D01*
D26*
X211400000Y-57400000D02*
X211400000Y-53600000D01*
X242874980Y-61650000D02*
X241100000Y-61650000D01*
D30*
X195720000Y-51100000D02*
X195720000Y-56180000D01*
D25*
X238550000Y-55300000D02*
X238550000Y-61750000D01*
D24*
X205675000Y-73775000D02*
X205490000Y-73960000D01*
D26*
X200266433Y-43346433D02*
X198666433Y-43346433D01*
D25*
X233450000Y-72850000D02*
X237284000Y-72850000D01*
D23*
X212200001Y-61699999D02*
X212200001Y-60699999D01*
D25*
X241350000Y-65000000D02*
X242000000Y-64350000D01*
X236600000Y-55500000D02*
X236600000Y-51600000D01*
D28*
X215575489Y-78325489D02*
X214700000Y-77450000D01*
D29*
X214580000Y-69800000D02*
X214580000Y-69780000D01*
D25*
X202820000Y-57080000D02*
X202319511Y-57580489D01*
D26*
X194360020Y-67289980D02*
X194360020Y-67410020D01*
D25*
X240405417Y-75872000D02*
X240777417Y-75500000D01*
D31*
X211800000Y-69400000D02*
X211480000Y-69720000D01*
D25*
X222500000Y-79900000D02*
X222500000Y-80049960D01*
X234325000Y-46875000D02*
X234175000Y-46725000D01*
D26*
X212200000Y-69800000D02*
X211800000Y-69400000D01*
X200700000Y-77516681D02*
X200700000Y-76300000D01*
D31*
X211481025Y-64568975D02*
X211481025Y-69081025D01*
D25*
X229684412Y-47235390D02*
X229899511Y-47450489D01*
X200879511Y-66400489D02*
X200800000Y-66480000D01*
X237500000Y-54300000D02*
X236700000Y-53500000D01*
D24*
X205425000Y-72775000D02*
X204625000Y-71975000D01*
D26*
X196287277Y-57580489D02*
X195720000Y-58147766D01*
X202500000Y-47250000D02*
X203400000Y-47250000D01*
X201166000Y-72900000D02*
X199392000Y-72900000D01*
X232300000Y-65600000D02*
X232409511Y-65709511D01*
D28*
X218550489Y-75999511D02*
X218499511Y-75999511D01*
D25*
X226900000Y-69850000D02*
X226900000Y-69800000D01*
D26*
X199190000Y-47830000D02*
X200232793Y-46787207D01*
X202400000Y-51300000D02*
X203050000Y-51300000D01*
X243000000Y-62100000D02*
X243700000Y-61400000D01*
X229300000Y-58140000D02*
X228900000Y-58540000D01*
D25*
X212401467Y-75748533D02*
X203751467Y-75748533D01*
D26*
X197370000Y-49650000D02*
X197310000Y-49710000D01*
D25*
X233500000Y-47600000D02*
X234400000Y-47600000D01*
D28*
X218125489Y-77674511D02*
X218550489Y-78099511D01*
D25*
X242362051Y-53400000D02*
X242362051Y-57037949D01*
X243471306Y-76822694D02*
X243471306Y-68971306D01*
D26*
X210700489Y-79299511D02*
X209600020Y-80399980D01*
X239200000Y-53400000D02*
X238100000Y-53400000D01*
X232499980Y-80399980D02*
X231750000Y-79650000D01*
X209600000Y-57400000D02*
X210800000Y-57400000D01*
X243200000Y-53300000D02*
X243100000Y-53400000D01*
D24*
X211060000Y-75760000D02*
X210256854Y-74956854D01*
D26*
X196672723Y-59100489D02*
X195720000Y-58147766D01*
D25*
X243400965Y-45492939D02*
X243400965Y-46249035D01*
D26*
X237161511Y-68400489D02*
X236000489Y-68400489D01*
D25*
X227300000Y-76050000D02*
X220450000Y-76050000D01*
X242000000Y-64350000D02*
X242000000Y-63700000D01*
D26*
X232409511Y-65709511D02*
X237590489Y-65709511D01*
D24*
X216036292Y-74350000D02*
X211100000Y-74350000D01*
D25*
X243050000Y-47600000D02*
X243600000Y-47050000D01*
X241300000Y-73943022D02*
X240871511Y-74371511D01*
D28*
X238306000Y-79756000D02*
X238760000Y-79756000D01*
D26*
X207975000Y-70175000D02*
X207975000Y-59725000D01*
X211400000Y-72200000D02*
X210700489Y-72899511D01*
D24*
X203040000Y-71060000D02*
X204160000Y-71060000D01*
D25*
X213300000Y-60400000D02*
X213000000Y-60700000D01*
D24*
X205490000Y-73960000D02*
X206510000Y-73960000D01*
D26*
X204650000Y-49700000D02*
X205325000Y-49025000D01*
D28*
X221150000Y-75825000D02*
X220425000Y-75100000D01*
D25*
X239522000Y-75872000D02*
X240405417Y-75872000D01*
D24*
X209605000Y-71975000D02*
X209065000Y-71435000D01*
D25*
X243650000Y-53750000D02*
X243400965Y-53500965D01*
D28*
X209417050Y-78253010D02*
X209600020Y-78435980D01*
X237744000Y-74676000D02*
X237744000Y-73660000D01*
X203040000Y-73058000D02*
X203040000Y-75090000D01*
X213950000Y-76700000D02*
X214700000Y-77450000D01*
X216212500Y-77637500D02*
X215575489Y-77000489D01*
D25*
X206400000Y-76900040D02*
X207899980Y-78400020D01*
X237900000Y-65250000D02*
X237650000Y-65000000D01*
D29*
X213090000Y-68430000D02*
X213160000Y-68360000D01*
D25*
X206699511Y-64999511D02*
X206699511Y-65570489D01*
D28*
X220425000Y-78725000D02*
X220425000Y-76075000D01*
D24*
X212000000Y-77150000D02*
X212000000Y-76450000D01*
D26*
X236400000Y-66600000D02*
X236600000Y-66400000D01*
X203400000Y-47250000D02*
X205200000Y-47250000D01*
X210998533Y-78301467D02*
X210700489Y-78599511D01*
D25*
X241850000Y-48550000D02*
X241334045Y-48034045D01*
D26*
X211250000Y-55500000D02*
X210750000Y-55000000D01*
X212200001Y-63610001D02*
X212200001Y-63000001D01*
D24*
X212804950Y-77845050D02*
X212804950Y-76054950D01*
D25*
X222400000Y-78600000D02*
X220550000Y-78600000D01*
D26*
X202799511Y-59100489D02*
X196672723Y-59100489D01*
D25*
X243890449Y-63140489D02*
X244074980Y-63325020D01*
D28*
X243851727Y-78728273D02*
X243471306Y-78347852D01*
D25*
X238600000Y-63700000D02*
X242000000Y-63700000D01*
D26*
X228300489Y-62599511D02*
X228300489Y-61799511D01*
X209450000Y-58850000D02*
X209450000Y-56100000D01*
D25*
X226600489Y-79299511D02*
X221249511Y-79299511D01*
D26*
X218425000Y-46025000D02*
X219125000Y-45325000D01*
D25*
X243049980Y-80499980D02*
X243851727Y-79698233D01*
X227300000Y-75550000D02*
X224150000Y-75550000D01*
X236600000Y-47400000D02*
X236700000Y-47300000D01*
D26*
X202319511Y-70040489D02*
X209559511Y-70040489D01*
D25*
X195720000Y-69180000D02*
X195620000Y-69180000D01*
D28*
X220975000Y-78175000D02*
X220550000Y-78600000D01*
D26*
X232300000Y-62900000D02*
X228600978Y-62900000D01*
X212250000Y-47250000D02*
X215050000Y-47250000D01*
D24*
X212401467Y-75748533D02*
X212401467Y-78301467D01*
D25*
X244074980Y-43525020D02*
X244074980Y-43144980D01*
X194175020Y-78174980D02*
X194360020Y-77989980D01*
D24*
X212775000Y-78825000D02*
X212775000Y-77075000D01*
D25*
X237200000Y-47600000D02*
X237600000Y-47600000D01*
D28*
X215274511Y-78325489D02*
X216099511Y-78325489D01*
D26*
X196565407Y-47014593D02*
X197175814Y-47625000D01*
D25*
X236220000Y-73550000D02*
X236500000Y-73830000D01*
D24*
X204025000Y-70075000D02*
X203675000Y-70425000D01*
D25*
X231050000Y-45150000D02*
X233500000Y-47600000D01*
X240900000Y-64500000D02*
X238150000Y-64500000D01*
X235050000Y-43800000D02*
X234260000Y-43010000D01*
D32*
X195720000Y-66480000D02*
X200800000Y-66480000D01*
D25*
X240871511Y-74371511D02*
X240871511Y-68728489D01*
D28*
X203040000Y-75090000D02*
X203040000Y-75760000D01*
X219800000Y-74550000D02*
X217050000Y-74550000D01*
D25*
X239150000Y-47600000D02*
X240016480Y-46733520D01*
X227300000Y-70200000D02*
X227300000Y-73350000D01*
D29*
X213220001Y-68299999D02*
X213160000Y-68360000D01*
D25*
X237450000Y-44000000D02*
X236875000Y-44575000D01*
X202799511Y-60400489D02*
X203290000Y-60890978D01*
D24*
X212450000Y-75700000D02*
X212401467Y-75748533D01*
D30*
X195720000Y-56180000D02*
X200800000Y-56180000D01*
D26*
X198360000Y-48860000D02*
X198360000Y-48660000D01*
D25*
X240871511Y-74371511D02*
X240293511Y-74949511D01*
D26*
X237949511Y-68400489D02*
X237161511Y-68400489D01*
D28*
X220425000Y-75100000D02*
X220425000Y-74575000D01*
D26*
X196565407Y-47014593D02*
X194930000Y-45379186D01*
D25*
X229700489Y-68599511D02*
X229900489Y-68399511D01*
X242521656Y-43521656D02*
X244074980Y-45074980D01*
D32*
X200800000Y-71000000D02*
X200800000Y-71560000D01*
D25*
X229600978Y-68549022D02*
X229600978Y-68500000D01*
X243650000Y-53750000D02*
X243200000Y-53300000D01*
X195020000Y-68070000D02*
X194360020Y-67410020D01*
X223899980Y-80099980D02*
X222449980Y-80099980D01*
X202319511Y-56630489D02*
X202570000Y-56380000D01*
D23*
X213000000Y-62000002D02*
X212200001Y-62800001D01*
D26*
X235549120Y-67919510D02*
X234319510Y-67919510D01*
X207000000Y-47350000D02*
X207000000Y-46000000D01*
D25*
X240450000Y-65700000D02*
X237600000Y-65700000D01*
X236984045Y-43515955D02*
X235875000Y-44625000D01*
X243458882Y-78297118D02*
X243458882Y-77736330D01*
X239600000Y-48050000D02*
X239600000Y-53400000D01*
D26*
X195650000Y-78850000D02*
X196500000Y-79700000D01*
D25*
X221974980Y-79874980D02*
X221449980Y-80399980D01*
X242062000Y-74930000D02*
X242824000Y-75692000D01*
D28*
X201800000Y-76313708D02*
X201556854Y-76556854D01*
D26*
X201600000Y-72900000D02*
X201166000Y-72900000D01*
D25*
X215575489Y-77000489D02*
X216262241Y-77000489D01*
D26*
X200800000Y-51300000D02*
X204850000Y-47250000D01*
D25*
X196500000Y-79700000D02*
X194770020Y-79700000D01*
X239719510Y-67919510D02*
X239719510Y-68319510D01*
X232325000Y-48125000D02*
X232550000Y-47900000D01*
X243600000Y-47410000D02*
X243600000Y-52900000D01*
D24*
X203410000Y-71810000D02*
X203560000Y-71960000D01*
D25*
X242900489Y-69300489D02*
X242900489Y-74949511D01*
X221599960Y-74950000D02*
X221449980Y-75099980D01*
D26*
X206150000Y-48400000D02*
X205725000Y-47975000D01*
D23*
X212200001Y-62800001D02*
X212200001Y-61699999D01*
D25*
X208025000Y-56175000D02*
X208025000Y-59075000D01*
D26*
X228300489Y-60100489D02*
X229799511Y-60100489D01*
D24*
X207499511Y-60400489D02*
X208100489Y-60400489D01*
D23*
X213000000Y-60700000D02*
X213000000Y-62000002D01*
D32*
X197760000Y-71560000D02*
X200800000Y-71560000D01*
D25*
X242238000Y-80088000D02*
X240182000Y-80088000D01*
D23*
X213168001Y-62800001D02*
X212200001Y-62800001D01*
D31*
X211800000Y-67100000D02*
X211800000Y-70300000D01*
D25*
X200146471Y-78365649D02*
X200146471Y-76893726D01*
D28*
X239522000Y-78278000D02*
X239522000Y-77222000D01*
D25*
X231900489Y-68399511D02*
X231400489Y-68399511D01*
X239971656Y-44221656D02*
X239536399Y-44656913D01*
D24*
X211990000Y-76460000D02*
X212000000Y-76450000D01*
D26*
X200266000Y-75343146D02*
X200266000Y-75743146D01*
D28*
X217787500Y-75287500D02*
X217787500Y-76637500D01*
D25*
X237800000Y-47000000D02*
X237200000Y-47600000D01*
D26*
X205200000Y-47250000D02*
X206250000Y-47250000D01*
D28*
X219087989Y-76012011D02*
X219412500Y-75687500D01*
X200709146Y-74900000D02*
X199390854Y-74900000D01*
D24*
X199949980Y-79749980D02*
X200199980Y-79499980D01*
D28*
X219800000Y-75500000D02*
X219800000Y-77475000D01*
D25*
X194770020Y-79700000D02*
X194360020Y-79290000D01*
D26*
X217300000Y-74300000D02*
X217300000Y-73300000D01*
D25*
X242898000Y-79428000D02*
X243078000Y-79248000D01*
D28*
X232599980Y-80499980D02*
X239522000Y-80499980D01*
D25*
X228750000Y-78949022D02*
X229100489Y-79299511D01*
D26*
X232299511Y-64000489D02*
X232300000Y-64000000D01*
D25*
X228200000Y-79450000D02*
X227550000Y-79450000D01*
D26*
X243100000Y-53400000D02*
X240750000Y-53400000D01*
D25*
X236600000Y-49450000D02*
X237575000Y-48475000D01*
X236700000Y-47300000D02*
X236700000Y-47600000D01*
D24*
X211500000Y-75350000D02*
X203450000Y-75350000D01*
D25*
X236850000Y-65800000D02*
X236050000Y-66600000D01*
X240672000Y-79428000D02*
X242328000Y-79428000D01*
D27*
X218750000Y-58850000D02*
X218750000Y-60850000D01*
D28*
X220425000Y-77625000D02*
X220975000Y-78175000D01*
X201613728Y-78299980D02*
X204499940Y-78299980D01*
D26*
X194360020Y-58388536D02*
X194360020Y-49210000D01*
X200800000Y-71560000D02*
X202319511Y-70040489D01*
D25*
X236600000Y-51600000D02*
X236700000Y-51500000D01*
X227800000Y-58600000D02*
X231900000Y-58600000D01*
D26*
X227800000Y-58600000D02*
X227800000Y-59000000D01*
D24*
X205949511Y-60400489D02*
X202799511Y-60400489D01*
D25*
X239971656Y-44221656D02*
X237671656Y-44221656D01*
D26*
X240199511Y-68400489D02*
X237949511Y-68400489D01*
D25*
X242265955Y-47384045D02*
X241334045Y-47384045D01*
D29*
X213560002Y-69800000D02*
X212200001Y-68439999D01*
D26*
X202799511Y-60400489D02*
X202899511Y-60400489D01*
D29*
X212200001Y-68439999D02*
X213239999Y-68439999D01*
D26*
X194940489Y-63159511D02*
X194850000Y-63250000D01*
X211400000Y-53600000D02*
X211400000Y-54400000D01*
D25*
X204650978Y-59750000D02*
X204430978Y-59750000D01*
D26*
X232300000Y-58500000D02*
X232300000Y-60300000D01*
X234319510Y-67919510D02*
X233800000Y-67400000D01*
X200050000Y-49650000D02*
X197370000Y-49650000D01*
D25*
X240182000Y-80088000D02*
X239522000Y-79428000D01*
X239000000Y-65250000D02*
X237900000Y-65250000D01*
D26*
X210750000Y-47250000D02*
X210750000Y-53850000D01*
D25*
X222500000Y-79900000D02*
X222500000Y-77550040D01*
D26*
X237600000Y-62700000D02*
X238200000Y-62100000D01*
D25*
X241700000Y-54350000D02*
X240750000Y-53400000D01*
X232500000Y-44250000D02*
X231950000Y-44250000D01*
D28*
X220550000Y-78600000D02*
X220425000Y-78725000D01*
D25*
X239550000Y-61450000D02*
X239750000Y-61650000D01*
X228900000Y-45950000D02*
X229500000Y-45950000D01*
X240150000Y-55450000D02*
X240150000Y-61650000D01*
D29*
X215500000Y-69399998D02*
X214630001Y-68529999D01*
D24*
X207715000Y-71985000D02*
X207365000Y-71635000D01*
D25*
X243050000Y-47960000D02*
X243600000Y-47410000D01*
X235702000Y-74000000D02*
X236026000Y-74324000D01*
X194560489Y-59372723D02*
X195091606Y-58841606D01*
X235050000Y-47600000D02*
X236650000Y-46000000D01*
D24*
X205675000Y-71975000D02*
X204975000Y-71975000D01*
D25*
X230450000Y-47500000D02*
X230750000Y-47500000D01*
D26*
X202319511Y-62919511D02*
X202319511Y-58180489D01*
D28*
X237236000Y-68474978D02*
X237161511Y-68400489D01*
X230049511Y-79299511D02*
X236168489Y-79299511D01*
D25*
X228000000Y-70200000D02*
X228000000Y-79250000D01*
D24*
X212000000Y-75250000D02*
X211725000Y-74975000D01*
D28*
X195072000Y-72644000D02*
X197612000Y-72644000D01*
D26*
X214708440Y-47250000D02*
X214079220Y-46620780D01*
D24*
X209775000Y-73925000D02*
X209350000Y-74350000D01*
D26*
X201556854Y-77223920D02*
X201556854Y-76556854D01*
X209100000Y-48400000D02*
X208150000Y-48400000D01*
X230799511Y-58899511D02*
X231600489Y-58899511D01*
D25*
X243049980Y-80499980D02*
X243400020Y-80499980D01*
D26*
X202319511Y-69480489D02*
X202319511Y-64880489D01*
D28*
X228225000Y-57175000D02*
X227100000Y-58300000D01*
X214700000Y-77450000D02*
X213250000Y-76000000D01*
D31*
X209559511Y-70040489D02*
X211540489Y-70040489D01*
D25*
X243157152Y-43507152D02*
X237942848Y-43507152D01*
D26*
X203925000Y-50425000D02*
X204650000Y-49700000D01*
X196680040Y-48660000D02*
X195110020Y-47089980D01*
X200710000Y-43790000D02*
X201940000Y-45020000D01*
X200810000Y-46210000D02*
X201970000Y-45050000D01*
D25*
X236000489Y-68599511D02*
X236000489Y-68400489D01*
D28*
X218550489Y-79299511D02*
X218550489Y-76374511D01*
D26*
X194360020Y-77989980D02*
X194360020Y-76960020D01*
D25*
X243400965Y-46249035D02*
X242265955Y-47384045D01*
D26*
X200800000Y-47250000D02*
X200800000Y-45204414D01*
D25*
X239522000Y-75721022D02*
X240293511Y-74949511D01*
X194175020Y-80374980D02*
X194175020Y-78174980D01*
D26*
X214300489Y-78301467D02*
X212401467Y-78301467D01*
D25*
X236428344Y-43521656D02*
X234850000Y-45100000D01*
X231200000Y-49450000D02*
X230400000Y-49450000D01*
X195720000Y-69180000D02*
X195020000Y-69180000D01*
X240500000Y-55300000D02*
X240500000Y-61300000D01*
X194360020Y-47839980D02*
X194175020Y-47654980D01*
D26*
X199325109Y-75774891D02*
X200146471Y-76596253D01*
X194360020Y-49291464D02*
X194360020Y-58388536D01*
D29*
X214855000Y-69155000D02*
X214630001Y-68930001D01*
D25*
X208100489Y-66400489D02*
X200879511Y-66400489D01*
D28*
X215575489Y-77000489D02*
X217451467Y-77000489D01*
D25*
X208025000Y-53075000D02*
X208025000Y-58575978D01*
D28*
X219800000Y-77475000D02*
X219800000Y-79250000D01*
D26*
X194360020Y-64471464D02*
X194360020Y-67289980D01*
X202319511Y-58180489D02*
X195752723Y-58180489D01*
D25*
X196672723Y-59100489D02*
X196413840Y-58841606D01*
D26*
X194633567Y-74966433D02*
X194360020Y-75239980D01*
D25*
X239550000Y-55300000D02*
X239550000Y-61450000D01*
D28*
X221375000Y-73625000D02*
X221375000Y-74150000D01*
D25*
X223400000Y-78800000D02*
X223400000Y-77350000D01*
D26*
X203040000Y-60640978D02*
X202799511Y-60400489D01*
X201399980Y-80399980D02*
X201399980Y-78299980D01*
D24*
X211100000Y-73450000D02*
X211200000Y-73450000D01*
D26*
X234600000Y-66600000D02*
X240950000Y-66600000D01*
D24*
X208740000Y-73960000D02*
X209390000Y-73960000D01*
D26*
X194360020Y-76960020D02*
X194360020Y-47839980D01*
D25*
X202950489Y-59100489D02*
X203525000Y-59675000D01*
X227300000Y-73350000D02*
X227300000Y-74000000D01*
X239522000Y-79428000D02*
X242328000Y-79428000D01*
D26*
X195310000Y-73590000D02*
X194360020Y-73590000D01*
D28*
X201613728Y-78299980D02*
X206899900Y-78299980D01*
D25*
X213300000Y-55500000D02*
X213300000Y-60400000D01*
D26*
X209600000Y-54100000D02*
X209600000Y-52550000D01*
X232300000Y-58200000D02*
X232300000Y-58500000D01*
X210700489Y-78599511D02*
X210700489Y-79299511D01*
D28*
X228300489Y-66900489D02*
X227300000Y-65900000D01*
D26*
X231600000Y-59600000D02*
X232300000Y-60300000D01*
D28*
X217262730Y-76000000D02*
X214575000Y-76000000D01*
D26*
X202500000Y-47250000D02*
X202500000Y-46450000D01*
D23*
X232664000Y-65236000D02*
X232300000Y-65600000D01*
D28*
X239522000Y-80499980D02*
X239522000Y-79428000D01*
D25*
X237600000Y-62700000D02*
X238600000Y-63700000D01*
D26*
X200800000Y-51300000D02*
X200050000Y-50550000D01*
D25*
X242419510Y-53880490D02*
X242419510Y-67919510D01*
D27*
X221100000Y-55500000D02*
X221100000Y-56500000D01*
D25*
X229899511Y-47450489D02*
X229899511Y-48949511D01*
D28*
X227300000Y-65900000D02*
X226900000Y-65900000D01*
D26*
X201525000Y-46525000D02*
X202050000Y-46000000D01*
D28*
X221375000Y-74150000D02*
X220425000Y-75100000D01*
D26*
X208150000Y-48400000D02*
X206150000Y-48400000D01*
D25*
X237800000Y-47000000D02*
X237800000Y-51700000D01*
D24*
X208100489Y-60400489D02*
X212499511Y-60400489D01*
D26*
X202319511Y-64880489D02*
X198280489Y-64880489D01*
D24*
X212650000Y-74900000D02*
X212650000Y-74650000D01*
D26*
X230700000Y-44600000D02*
X229950000Y-43850000D01*
D24*
X209125000Y-73575000D02*
X208740000Y-73960000D01*
D25*
X242900489Y-74949511D02*
X241299511Y-74949511D01*
X230700000Y-46500000D02*
X232325000Y-48125000D01*
X228200000Y-78399022D02*
X229100489Y-79299511D01*
X236650000Y-45400000D02*
X235875000Y-44625000D01*
D28*
X204999980Y-78800020D02*
X201432846Y-78800020D01*
D25*
X228200000Y-77700000D02*
X228200000Y-79450000D01*
D24*
X209775000Y-70075000D02*
X204025000Y-70075000D01*
D25*
X209000000Y-49250000D02*
X208150000Y-48400000D01*
X242000000Y-62550000D02*
X241100000Y-61650000D01*
D26*
X221449980Y-80399980D02*
X223899980Y-80399980D01*
D24*
X210590000Y-73960000D02*
X211100000Y-73450000D01*
D29*
X213885000Y-69085000D02*
X212000000Y-67200000D01*
D24*
X204800000Y-70850000D02*
X204025000Y-70075000D01*
D25*
X236600000Y-67800978D02*
X236000489Y-68400489D01*
D24*
X216643146Y-74956854D02*
X212956854Y-74956854D01*
D26*
X200266000Y-75343146D02*
X196272332Y-75343146D01*
D25*
X199092563Y-75542345D02*
X196941198Y-75542345D01*
D26*
X229300000Y-56475000D02*
X229300000Y-58140000D01*
D25*
X237393087Y-44656913D02*
X236650000Y-45400000D01*
D28*
X196666000Y-73590000D02*
X195310000Y-73590000D01*
X217300000Y-74300000D02*
X218600000Y-74300000D01*
D25*
X242265955Y-52715955D02*
X242265955Y-53303904D01*
D28*
X231800000Y-57899022D02*
X230799511Y-58899511D01*
D26*
X202059511Y-59560489D02*
X194560489Y-59560489D01*
D25*
X230450000Y-48600000D02*
X230450000Y-47500000D01*
X237600000Y-47600000D02*
X238100000Y-47600000D01*
X200800000Y-66480000D02*
X199610000Y-65290000D01*
D28*
X226900000Y-66999022D02*
X227300489Y-67399511D01*
D26*
X206099980Y-79299980D02*
X206707980Y-78691980D01*
D25*
X195720000Y-51300000D02*
X195720000Y-50270000D01*
X236700000Y-47600000D02*
X237200000Y-47600000D01*
D23*
X213168001Y-62800001D02*
X213050480Y-62917522D01*
D26*
X209450000Y-58850000D02*
X210150000Y-58850000D01*
D25*
X234325000Y-46625000D02*
X231950000Y-44250000D01*
D26*
X194360020Y-58189980D02*
X194360020Y-64471464D01*
D25*
X241400000Y-55300000D02*
X240500000Y-55300000D01*
X234175000Y-46725000D02*
X232800000Y-45350000D01*
D26*
X198280000Y-73880000D02*
X195720000Y-73880000D01*
D24*
X210256854Y-74956854D02*
X202243146Y-74956854D01*
D28*
X237744000Y-78486000D02*
X237744000Y-77724000D01*
D24*
X203290000Y-66360000D02*
X205240000Y-66360000D01*
D25*
X240500000Y-61300000D02*
X240150000Y-61650000D01*
D26*
X231800000Y-57700000D02*
X232266000Y-58166000D01*
X211400000Y-57400000D02*
X213300000Y-55500000D01*
D28*
X236168489Y-79299511D02*
X236347000Y-79121000D01*
X237744000Y-77724000D02*
X237744000Y-76200000D01*
D26*
X216800000Y-71100000D02*
X212500000Y-71100000D01*
D25*
X195020000Y-69180000D02*
X194440040Y-69180000D01*
D24*
X205675000Y-73275000D02*
X204775000Y-73275000D01*
D25*
X244074980Y-79524980D02*
X244074980Y-64724980D01*
D26*
X197175814Y-47625000D02*
X199395000Y-47625000D01*
D28*
X217474511Y-78325489D02*
X218125489Y-77674511D01*
D25*
X235050000Y-47600000D02*
X234350000Y-47600000D01*
X227000650Y-78899350D02*
X227000650Y-78900650D01*
X227300000Y-74950000D02*
X227300000Y-75550000D01*
D26*
X212600000Y-60300000D02*
X211600000Y-60300000D01*
X214575000Y-76000000D02*
X215500000Y-76000000D01*
D28*
X217474511Y-75788219D02*
X217262730Y-76000000D01*
D25*
X227300000Y-74000000D02*
X221000000Y-74000000D01*
D28*
X217924511Y-77000489D02*
X218550489Y-76374511D01*
D24*
X211725000Y-74975000D02*
X211100000Y-74350000D01*
D26*
X195752723Y-58180489D02*
X195720000Y-58147766D01*
X206699511Y-61049511D02*
X206699511Y-64999511D01*
X213090000Y-69800000D02*
X212200000Y-69800000D01*
D25*
X230700000Y-46300000D02*
X231550000Y-46300000D01*
D26*
X201399980Y-80399980D02*
X201399980Y-77400020D01*
X210700020Y-79299980D02*
X210700489Y-79299511D01*
X215550000Y-46000000D02*
X217200000Y-46000000D01*
D25*
X236700000Y-46600000D02*
X236700000Y-51500000D01*
X228000000Y-70200000D02*
X228000000Y-68900000D01*
X224150000Y-79849960D02*
X223899980Y-80099980D01*
D28*
X198280000Y-73880000D02*
X197138000Y-73880000D01*
D25*
X194360020Y-79290000D02*
X194800020Y-78850000D01*
X222500000Y-75550000D02*
X222500000Y-76450000D01*
D28*
X227300489Y-67399511D02*
X228300489Y-68399511D01*
D26*
X232300000Y-65600000D02*
X232300000Y-67000000D01*
X210800000Y-57400000D02*
X211400000Y-57400000D01*
D25*
X236600000Y-51600000D02*
X236600000Y-67800978D01*
D28*
X219800000Y-77475000D02*
X219800000Y-76075000D01*
D25*
X234700000Y-73840000D02*
X235190000Y-73840000D01*
X206699511Y-65570489D02*
X205910000Y-66360000D01*
X243400020Y-80499980D02*
X243900020Y-80499980D01*
X244074980Y-80325020D02*
X244074980Y-79524980D01*
D28*
X230529511Y-57629511D02*
X229259511Y-58899511D01*
D24*
X208873980Y-78400020D02*
X210899980Y-78400020D01*
D26*
X201750000Y-46750000D02*
X201525000Y-46525000D01*
X196710000Y-47910000D02*
X197460814Y-47910000D01*
D25*
X205949511Y-60400489D02*
X206050489Y-60400489D01*
D26*
X243819510Y-67080490D02*
X239069510Y-67080490D01*
X195720000Y-70030000D02*
X195720000Y-69180000D01*
D28*
X229100489Y-79299511D02*
X230049511Y-79299511D01*
D24*
X203040000Y-73960000D02*
X203560000Y-73960000D01*
D25*
X232800000Y-43850000D02*
X229950000Y-43850000D01*
D32*
X200800000Y-51300000D02*
X195720000Y-51300000D01*
D25*
X236050000Y-47300000D02*
X235475000Y-46725000D01*
X208950000Y-59750000D02*
X207350000Y-59750000D01*
X224349960Y-79650000D02*
X223899980Y-80099980D01*
X240293511Y-74949511D02*
X239522000Y-74178000D01*
X244074980Y-43525020D02*
X244065915Y-43515955D01*
D26*
X198942019Y-43346433D02*
X197175743Y-43346433D01*
D25*
X239536399Y-45986399D02*
X239536399Y-46163601D01*
D28*
X219137500Y-75412500D02*
X218275000Y-74550000D01*
D26*
X196063567Y-43346433D02*
X194930000Y-44480000D01*
X195720000Y-71560000D02*
X195720000Y-73880000D01*
X202319511Y-63919511D02*
X194630489Y-63919511D01*
D25*
X239200000Y-53400000D02*
X239700000Y-53400000D01*
X239522000Y-76755417D02*
X239522000Y-77222000D01*
X230700000Y-46300000D02*
X230700000Y-46500000D01*
D26*
X200232793Y-44637207D02*
X198942019Y-43346433D01*
X228300489Y-61799511D02*
X228300489Y-60999511D01*
X209600000Y-55950000D02*
X209600000Y-55550000D01*
X207975000Y-70175000D02*
X207090000Y-71060000D01*
X199900000Y-48000000D02*
X200800000Y-48000000D01*
D24*
X202163708Y-74350000D02*
X201556854Y-74956854D01*
D26*
X213300000Y-55500000D02*
X211000000Y-55500000D01*
D28*
X218550489Y-75999511D02*
X219137500Y-75412500D01*
D25*
X229100489Y-79299511D02*
X228325978Y-78525000D01*
X206050489Y-60400489D02*
X206699511Y-61049511D01*
X237200000Y-60200000D02*
X239200000Y-58200000D01*
X244074980Y-64724980D02*
X243825020Y-64724980D01*
D26*
X194360020Y-73039980D02*
X194360020Y-73590000D01*
X243000000Y-62100000D02*
X238200000Y-62100000D01*
X203040000Y-61597949D02*
X203040000Y-63840000D01*
D28*
X231075000Y-57084022D02*
X230529511Y-57629511D01*
D26*
X211499511Y-59299511D02*
X211499511Y-61499511D01*
D25*
X243400965Y-53500965D02*
X243400965Y-46249035D01*
D29*
X213635001Y-67534999D02*
X213430001Y-67329999D01*
D25*
X230750000Y-47500000D02*
X231550000Y-48300000D01*
X243050000Y-53150000D02*
X243200000Y-53300000D01*
D32*
X199720000Y-56380000D02*
X200800000Y-56380000D01*
D26*
X235350000Y-67350000D02*
X235619510Y-67080490D01*
D27*
X221100000Y-56500000D02*
X218750000Y-58850000D01*
D25*
X241700000Y-54600000D02*
X241700000Y-54350000D01*
D28*
X226900000Y-65900000D02*
X226900000Y-66999022D01*
D25*
X194880842Y-74513708D02*
X194633567Y-74266433D01*
D26*
X195720000Y-73880000D02*
X195720000Y-76620000D01*
D25*
X236050000Y-46600000D02*
X235050000Y-47600000D01*
D24*
X215000000Y-74300000D02*
X217300000Y-74300000D01*
D28*
X203040000Y-73960000D02*
X200700000Y-76300000D01*
D25*
X243630000Y-42700000D02*
X244074980Y-43144980D01*
D24*
X212450000Y-75700000D02*
X211725000Y-74975000D01*
D25*
X197903648Y-80399980D02*
X196849553Y-79345885D01*
D26*
X225399980Y-80399980D02*
X228700020Y-80399980D01*
D29*
X213430001Y-67329999D02*
X212129999Y-67329999D01*
D26*
X238200000Y-59200000D02*
X237200000Y-60200000D01*
D25*
X237671656Y-44221656D02*
X237450000Y-44000000D01*
D28*
X242062000Y-68301020D02*
X241680490Y-67919510D01*
D26*
X213479220Y-46020780D02*
X212250000Y-47250000D01*
D25*
X235050000Y-47600000D02*
X234325000Y-46875000D01*
D26*
X236000489Y-68400489D02*
X235068141Y-68400489D01*
X198942019Y-43346433D02*
X198666433Y-43346433D01*
D25*
X194560489Y-59560489D02*
X194560489Y-59372723D01*
D26*
X202319511Y-58180489D02*
X202319511Y-57580489D01*
D25*
X227425000Y-69275000D02*
X228300489Y-68399511D01*
X230400000Y-49450000D02*
X230400000Y-48120780D01*
D26*
X200800000Y-47350000D02*
X200800000Y-46220000D01*
D25*
X238000000Y-54600000D02*
X238600000Y-54600000D01*
D26*
X211499511Y-61499511D02*
X211499511Y-61337460D01*
X229950000Y-43850000D02*
X229400000Y-43300000D01*
X232300000Y-64700000D02*
X228600000Y-64700000D01*
X211250000Y-46750000D02*
X209100000Y-46750000D01*
X199949980Y-79749980D02*
X202243146Y-77456814D01*
D32*
X195720000Y-71560000D02*
X197760000Y-71560000D01*
D28*
X240284000Y-68484978D02*
X240199511Y-68400489D01*
D25*
X239000000Y-45400000D02*
X239536399Y-44863601D01*
D32*
X200800000Y-66480000D02*
X200800000Y-71000000D01*
D26*
X198666433Y-43346433D02*
X196063567Y-43346433D01*
D28*
X216099511Y-78325489D02*
X217474511Y-78325489D01*
D24*
X206325000Y-71975000D02*
X205675000Y-71975000D01*
D25*
X240741519Y-47384045D02*
X240741519Y-52741519D01*
D26*
X195720000Y-71560000D02*
X195720000Y-70030000D01*
X219900020Y-73699980D02*
X219800000Y-73800000D01*
D25*
X237900000Y-62400000D02*
X238200000Y-62100000D01*
D26*
X239719510Y-67919510D02*
X238912490Y-67919510D01*
D29*
X215500000Y-69060000D02*
X212539999Y-66099999D01*
D25*
X236956913Y-44656913D02*
X236875000Y-44575000D01*
X242337427Y-75500000D02*
X240777417Y-75500000D01*
X222725000Y-78925000D02*
X222400000Y-78600000D01*
X240016480Y-46733520D02*
X240567517Y-47284557D01*
D24*
X211640000Y-75760000D02*
X212153708Y-75760000D01*
D26*
X201556854Y-76556854D02*
X201556854Y-74956854D01*
D24*
X207715000Y-71985000D02*
X208110000Y-72380000D01*
D25*
X236875000Y-44575000D02*
X236040000Y-45410000D01*
D26*
X194633567Y-74266433D02*
X195310000Y-73590000D01*
D24*
X211693186Y-77456814D02*
X202243146Y-77456814D01*
D26*
X240750000Y-53400000D02*
X239600000Y-53400000D01*
D28*
X236347000Y-79121000D02*
X237236000Y-78232000D01*
D26*
X228300489Y-64000489D02*
X232299511Y-64000489D01*
D25*
X202319511Y-57580489D02*
X202319511Y-56630489D01*
D26*
X194743567Y-43346433D02*
X200266433Y-43346433D01*
D25*
X243400000Y-63800000D02*
X243150000Y-63550000D01*
X236600000Y-55500000D02*
X236600000Y-49450000D01*
X203620000Y-57080000D02*
X203620000Y-57670000D01*
D24*
X203040000Y-75760000D02*
X211640000Y-75760000D01*
D26*
X195720000Y-77739186D02*
X195720000Y-76620000D01*
X210700489Y-79299511D02*
X214300489Y-79299511D01*
X243819510Y-67919510D02*
X243819510Y-67080490D01*
D25*
X242000000Y-66600000D02*
X242000000Y-64350000D01*
D24*
X212804950Y-76054950D02*
X212000000Y-75250000D01*
D26*
X195225010Y-78425010D02*
X195225010Y-76963095D01*
X233640000Y-43010000D02*
X234260000Y-43010000D01*
D28*
X201800000Y-70000000D02*
X201800000Y-76313708D01*
D26*
X232100489Y-60100489D02*
X232300000Y-60300000D01*
D24*
X203450000Y-75350000D02*
X203040000Y-75760000D01*
D26*
X206999940Y-78400020D02*
X207899980Y-78400020D01*
D28*
X215575489Y-78325489D02*
X215274511Y-78325489D01*
D24*
X216936292Y-75250000D02*
X212000000Y-75250000D01*
D25*
X238400000Y-47300000D02*
X238100000Y-47600000D01*
X223400000Y-78800000D02*
X223400000Y-79600000D01*
X221449980Y-77649980D02*
X222725000Y-78925000D01*
X235190000Y-73840000D02*
X236026000Y-74676000D01*
X242265955Y-53303904D02*
X242362051Y-53400000D01*
D24*
X211100000Y-73450000D02*
X211100000Y-73850000D01*
D29*
X219610000Y-73170000D02*
X219610000Y-73350000D01*
D25*
X234260000Y-43010000D02*
X234569980Y-42700020D01*
D26*
X202400000Y-50050000D02*
X205200000Y-47250000D01*
X215550000Y-46000000D02*
X214929220Y-46620780D01*
X194360020Y-70439980D02*
X194360020Y-71932020D01*
X212400000Y-55500000D02*
X210750000Y-53850000D01*
D25*
X236500000Y-73000000D02*
X237592000Y-73000000D01*
D24*
X203040000Y-72860000D02*
X203040000Y-72180000D01*
D26*
X242400000Y-62700000D02*
X243000000Y-62100000D01*
X215500000Y-76000000D02*
X215600000Y-76000000D01*
D29*
X214580000Y-69800000D02*
X213560002Y-69800000D01*
D25*
X227300000Y-76050000D02*
X227300000Y-79601300D01*
D24*
X209775000Y-70475000D02*
X209775000Y-71175000D01*
D26*
X238200000Y-62100000D02*
X237750000Y-61650000D01*
D29*
X215500000Y-69800000D02*
X214855000Y-69155000D01*
D25*
X207500489Y-59100489D02*
X207500489Y-53450489D01*
D29*
X213300000Y-55500000D02*
X212400000Y-55500000D01*
D26*
X236880490Y-67080490D02*
X236400000Y-66600000D01*
X208025000Y-53075000D02*
X207200000Y-52250000D01*
D25*
X237590489Y-65709511D02*
X237590489Y-64090489D01*
X229514610Y-47235390D02*
X230450000Y-48170780D01*
D24*
X211500000Y-77650000D02*
X211500000Y-75350000D01*
D26*
X203050000Y-51300000D02*
X203525000Y-50825000D01*
D25*
X241334045Y-51684045D02*
X241334045Y-52371994D01*
X244074980Y-43144980D02*
X236155020Y-43144980D01*
D24*
X208100489Y-65749511D02*
X208100489Y-66400489D01*
D28*
X227100000Y-60400000D02*
X227200000Y-60500000D01*
D26*
X216199520Y-45350480D02*
X215550000Y-46000000D01*
D25*
X237800000Y-47000000D02*
X237800000Y-54300000D01*
X239200000Y-54400000D02*
X239200000Y-53400000D01*
D28*
X217050000Y-74550000D02*
X215600000Y-76000000D01*
D29*
X243471306Y-78284694D02*
X243458882Y-78297118D01*
X212200001Y-68439999D02*
X212699999Y-68439999D01*
D25*
X235050000Y-47600000D02*
X236663601Y-45986399D01*
X240900000Y-54600000D02*
X240900000Y-55050000D01*
D26*
X197500000Y-49780000D02*
X197370000Y-49650000D01*
X198739146Y-74816292D02*
X197639146Y-74816292D01*
D25*
X237650000Y-65000000D02*
X237100000Y-64450000D01*
X195720000Y-66480000D02*
X196680978Y-66480000D01*
D28*
X219750489Y-79299511D02*
X219087989Y-78637011D01*
D26*
X202319511Y-62919511D02*
X202079511Y-63159511D01*
D25*
X238550000Y-55300000D02*
X237450000Y-55300000D01*
X202075000Y-52275000D02*
X207175000Y-52275000D01*
X240885195Y-47284557D02*
X240480398Y-47122924D01*
D26*
X201200000Y-55550000D02*
X200800000Y-55150000D01*
D25*
X238013601Y-45986399D02*
X239086399Y-45986399D01*
D28*
X227925000Y-56475000D02*
X226900000Y-57500000D01*
D25*
X238400000Y-54400000D02*
X238600000Y-54600000D01*
X196400000Y-52400000D02*
X196400000Y-57467766D01*
X235425000Y-43425000D02*
X243974960Y-43425000D01*
D26*
X207300000Y-50100000D02*
X206850000Y-50550000D01*
X232000000Y-61600000D02*
X232300000Y-61600000D01*
D25*
X242328000Y-79428000D02*
X243458882Y-78297118D01*
X194175020Y-80695000D02*
X194175020Y-80374980D01*
D26*
X228650000Y-44250000D02*
X231950000Y-44250000D01*
D25*
X222725000Y-78925000D02*
X222725000Y-78025000D01*
X243471306Y-76822694D02*
X243471306Y-76633879D01*
D26*
X209600000Y-52300000D02*
X208600000Y-52300000D01*
D25*
X221449980Y-76500020D02*
X221449980Y-77649980D01*
X200800000Y-56380000D02*
X203620000Y-56380000D01*
D28*
X242062000Y-74422000D02*
X242062000Y-73738000D01*
X217600000Y-73000000D02*
X217300000Y-72700000D01*
D25*
X238100000Y-49000000D02*
X237575000Y-48475000D01*
X228000000Y-68900000D02*
X227600000Y-68500000D01*
X241050020Y-80499980D02*
X243049980Y-80499980D01*
D26*
X214300489Y-78301467D02*
X213799511Y-77800489D01*
D25*
X208975000Y-54925000D02*
X208950000Y-54950000D01*
D26*
X229300000Y-56475000D02*
X232075000Y-56475000D01*
D25*
X234325000Y-45825000D02*
X234300000Y-45800000D01*
D28*
X218600000Y-74300000D02*
X219800000Y-75500000D01*
D26*
X213300000Y-55500000D02*
X211250000Y-55500000D01*
X211400000Y-54400000D02*
X211400000Y-55350000D01*
X210750000Y-47250000D02*
X211250000Y-46750000D01*
D24*
X208540000Y-73960000D02*
X208740000Y-73960000D01*
D26*
X199299980Y-80399980D02*
X199949980Y-79749980D01*
D25*
X240293511Y-68494489D02*
X240293511Y-74949511D01*
X227100000Y-69600000D02*
X227425000Y-69275000D01*
D28*
X231600489Y-58700489D02*
X230529511Y-57629511D01*
D25*
X228200000Y-77700000D02*
X229799511Y-79299511D01*
X228750000Y-69350978D02*
X228750000Y-78949022D01*
D26*
X197310000Y-49710000D02*
X198360000Y-48660000D01*
D25*
X235778344Y-43521656D02*
X240671656Y-43521656D01*
X203290000Y-60890978D02*
X203290000Y-66360000D01*
D29*
X215500000Y-69060000D02*
X219610000Y-73170000D01*
D26*
X195720000Y-56380000D02*
X195720000Y-56830000D01*
D29*
X213510001Y-68529999D02*
X213090000Y-68950000D01*
D25*
X194175020Y-47654980D02*
X194175020Y-42700000D01*
D26*
X228000000Y-45050000D02*
X228900000Y-45950000D01*
D25*
X233600000Y-43850000D02*
X232800000Y-43850000D01*
X242000000Y-63700000D02*
X242000000Y-62550000D01*
D26*
X230300020Y-80399980D02*
X232499980Y-80399980D01*
X209600000Y-57400000D02*
X211499511Y-59299511D01*
D25*
X230450000Y-48600000D02*
X230450000Y-46900000D01*
X227000650Y-78900650D02*
X227000650Y-79900650D01*
D32*
X195720000Y-56380000D02*
X199720000Y-56380000D01*
D26*
X201399980Y-78299980D02*
X201613728Y-78299980D01*
X194360020Y-69260020D02*
X194360020Y-70439980D01*
X237750000Y-61650000D02*
X237500000Y-61400000D01*
X236600000Y-65500000D02*
X237800000Y-65500000D01*
D25*
X236663601Y-45986399D02*
X236650000Y-46000000D01*
D26*
X195720000Y-76620000D02*
X195720000Y-77930020D01*
D29*
X212429999Y-67829999D02*
X212200001Y-67600001D01*
D28*
X215575489Y-79299511D02*
X215575489Y-77000489D01*
D26*
X200800000Y-55150000D02*
X200800000Y-55000000D01*
D28*
X221449980Y-75099980D02*
X221449980Y-73699980D01*
D26*
X200800000Y-51300000D02*
X202400000Y-51300000D01*
X201970000Y-45050000D02*
X219750000Y-45050000D01*
D25*
X232550000Y-47900000D02*
X237000000Y-47900000D01*
D29*
X213860001Y-68529999D02*
X213510001Y-68529999D01*
D26*
X195890000Y-46339186D02*
X196565407Y-47014593D01*
D25*
X205240000Y-66360000D02*
X206600489Y-64999511D01*
X224150000Y-75550000D02*
X224150000Y-79849960D01*
X216290000Y-43790000D02*
X216516547Y-43563453D01*
D28*
X220425000Y-75100000D02*
X220425000Y-77625000D01*
D25*
X240150000Y-52800000D02*
X240750000Y-53400000D01*
D28*
X220975000Y-78175000D02*
X221150000Y-78000000D01*
D25*
X242265955Y-52715955D02*
X242265955Y-48965955D01*
D26*
X209600000Y-51850000D02*
X207925000Y-50175000D01*
D25*
X207500489Y-53450489D02*
X207050000Y-53000000D01*
X237600000Y-65700000D02*
X237590489Y-65709511D01*
D26*
X200800000Y-45204414D02*
X200452793Y-44857207D01*
D28*
X221449980Y-77700020D02*
X221449980Y-77174980D01*
D25*
X232800000Y-45350000D02*
X231800000Y-45350000D01*
X243400020Y-79930020D02*
X242898000Y-79428000D01*
D28*
X206099980Y-79299980D02*
X205099980Y-78299980D01*
D26*
X240893510Y-67919510D02*
X239719510Y-67919510D01*
D25*
X230450000Y-47500000D02*
X228900000Y-45950000D01*
D24*
X204160000Y-71060000D02*
X206790000Y-71060000D01*
D25*
X228300000Y-71300000D02*
X228300000Y-69900000D01*
X222725000Y-78025000D02*
X223400000Y-77350000D01*
D24*
X204075000Y-71975000D02*
X204075000Y-73725000D01*
D25*
X230450000Y-48600000D02*
X231850000Y-48600000D01*
D26*
X212200001Y-63000001D02*
X212200001Y-62800001D01*
D28*
X227300489Y-64699511D02*
X227600000Y-64400000D01*
X217500000Y-72400000D02*
X217300000Y-72200000D01*
X231800000Y-57700000D02*
X231800000Y-57899022D01*
D25*
X237650000Y-65000000D02*
X241350000Y-65000000D01*
D26*
X200800000Y-71560000D02*
X202040000Y-71560000D01*
D25*
X230350000Y-79650000D02*
X224349960Y-79650000D01*
D26*
X228900000Y-45950000D02*
X228300480Y-45350480D01*
D25*
X236510000Y-73840000D02*
X236026000Y-74324000D01*
D26*
X209600000Y-50600000D02*
X206250000Y-47250000D01*
D25*
X231850000Y-48600000D02*
X231850000Y-48800000D01*
D28*
X201432846Y-78800020D02*
X201399980Y-78832886D01*
D25*
X195720000Y-69180000D02*
X195720000Y-68649960D01*
D26*
X195880786Y-76574652D02*
X197639146Y-74816292D01*
X199200000Y-48700000D02*
X199900000Y-48000000D01*
D25*
X196680978Y-66480000D02*
X198280489Y-64880489D01*
D24*
X212499511Y-60400489D02*
X212600000Y-60300000D01*
D23*
X211510000Y-54610000D02*
X211400000Y-54500000D01*
D25*
X243049980Y-80499980D02*
X242649980Y-80499980D01*
D26*
X202075000Y-52275000D02*
X203050000Y-51300000D01*
D25*
X228000000Y-69850000D02*
X227425000Y-69275000D01*
D26*
X212600000Y-58900000D02*
X212300000Y-58900000D01*
X228300489Y-68399511D02*
X231900489Y-68399511D01*
D25*
X236850000Y-54700000D02*
X237450000Y-55300000D01*
X238600000Y-54600000D02*
X240900000Y-54600000D01*
D28*
X200800000Y-74513708D02*
X200800000Y-71560000D01*
D29*
X213430001Y-67329999D02*
X213205001Y-67104999D01*
D25*
X228325978Y-78525000D02*
X227375000Y-78525000D01*
D26*
X200266433Y-43346433D02*
X200710000Y-43790000D01*
D25*
X228300000Y-71300000D02*
X228300000Y-69850000D01*
D26*
X200050000Y-50550000D02*
X200050000Y-49650000D01*
D25*
X235050000Y-45800000D02*
X235050000Y-45300000D01*
D28*
X217787500Y-76637500D02*
X216099511Y-78325489D01*
D25*
X202970000Y-56380000D02*
X202570000Y-56380000D01*
X197576607Y-75554970D02*
X197521097Y-75610480D01*
D24*
X203040000Y-66360000D02*
X203290000Y-66360000D01*
D25*
X239000000Y-65250000D02*
X239000000Y-62900000D01*
D26*
X228800000Y-67400000D02*
X228300489Y-66900489D01*
X227800000Y-59000000D02*
X227200000Y-59600000D01*
X210890000Y-72710000D02*
X211400000Y-72200000D01*
D28*
X219800000Y-74550000D02*
X219800000Y-75500000D01*
X219800000Y-79250000D02*
X219750489Y-79299511D01*
D29*
X214400001Y-68299999D02*
X214165001Y-68064999D01*
D25*
X195720000Y-70030000D02*
X194770000Y-70030000D01*
X237450000Y-55300000D02*
X237250000Y-55100000D01*
D26*
X198893364Y-75343146D02*
X199325109Y-75774891D01*
D25*
X220450000Y-76050000D02*
X220425000Y-76075000D01*
D26*
X229799511Y-60100489D02*
X232100489Y-60100489D01*
D25*
X202409022Y-57670000D02*
X202319511Y-57580489D01*
X243851727Y-79698233D02*
X243851727Y-78728273D01*
X196926437Y-79422769D02*
X196199553Y-78695885D01*
X241334045Y-48034045D02*
X241334045Y-51684045D01*
D24*
X204975000Y-71975000D02*
X204975000Y-73445000D01*
D26*
X194633567Y-74966433D02*
X194633567Y-74266433D01*
D25*
X203225000Y-57725000D02*
X203280000Y-57670000D01*
D24*
X209400000Y-70850000D02*
X204800000Y-70850000D01*
D26*
X217300000Y-72500000D02*
X217300000Y-71600000D01*
D25*
X236026000Y-74676000D02*
X237744000Y-74676000D01*
X239200000Y-53400000D02*
X238000000Y-54600000D01*
D24*
X211640000Y-75760000D02*
X211060000Y-75760000D01*
D26*
X194360020Y-61840000D02*
X194360020Y-49291464D01*
X202500000Y-46450000D02*
X202050000Y-46000000D01*
D25*
X243600000Y-52900000D02*
X243200000Y-53300000D01*
X226900000Y-66999022D02*
X226900000Y-69800000D01*
D26*
X228300489Y-66000489D02*
X228300489Y-64999511D01*
D25*
X236600000Y-49450000D02*
X236600000Y-47400000D01*
X234569980Y-42700020D02*
X244074980Y-42700020D01*
D30*
X200800000Y-56180000D02*
X200800000Y-55150000D01*
D25*
X243050000Y-47600000D02*
X243050000Y-51300000D01*
D26*
X202500000Y-46450000D02*
X202350000Y-46450000D01*
D28*
X237744000Y-79502000D02*
X237744000Y-78486000D01*
D26*
X231075000Y-56975000D02*
X231800000Y-57700000D01*
D25*
X243471306Y-76633879D02*
X242337427Y-75500000D01*
X236510000Y-73840000D02*
X236500000Y-73830000D01*
D26*
X212775000Y-78825000D02*
X213799511Y-77800489D01*
X203525000Y-50825000D02*
X203925000Y-50425000D01*
X212401467Y-78301467D02*
X210998533Y-78301467D01*
D25*
X243400965Y-45492939D02*
X243389959Y-45114599D01*
D31*
X209775000Y-71175000D02*
X209075000Y-71175000D01*
D26*
X217300000Y-73300000D02*
X217300000Y-72700000D01*
D25*
X243171656Y-43521656D02*
X244074980Y-44424980D01*
D26*
X240950000Y-66600000D02*
X242000000Y-66600000D01*
D25*
X195720000Y-56380000D02*
X195720000Y-51300000D01*
D29*
X214070001Y-67969999D02*
X213930001Y-67829999D01*
D25*
X203625000Y-50925000D02*
X203525000Y-50825000D01*
D26*
X229259511Y-58899511D02*
X228900000Y-58540000D01*
D25*
X236040000Y-45410000D02*
X236040000Y-45940000D01*
X221249511Y-79299511D02*
X220550000Y-78600000D01*
D29*
X214630001Y-68529999D02*
X213860001Y-68529999D01*
D25*
X244065915Y-43515955D02*
X236984045Y-43515955D01*
D23*
X213000000Y-60700000D02*
X213000000Y-62200002D01*
D25*
X243050000Y-54700000D02*
X243050000Y-63450000D01*
X229400000Y-43300000D02*
X229136547Y-43563453D01*
D24*
X217474511Y-75788219D02*
X216936292Y-75250000D01*
D26*
X217300000Y-72500000D02*
X217300000Y-72200000D01*
D25*
X244074980Y-43144980D02*
X243630020Y-42700020D01*
X236663601Y-45986399D02*
X238013601Y-45986399D01*
X227000650Y-78899350D02*
X226600489Y-79299511D01*
X235675000Y-44425000D02*
X236578344Y-43521656D01*
D26*
X235619510Y-67080490D02*
X238280490Y-67080490D01*
D25*
X238306000Y-79756000D02*
X238306000Y-68756978D01*
X235050000Y-43800000D02*
X235425000Y-43425000D01*
D29*
X215500000Y-69399998D02*
X212200001Y-66099999D01*
D25*
X223400000Y-79600000D02*
X223899980Y-80099980D01*
D24*
X211060000Y-75003708D02*
X211060000Y-75760000D01*
D28*
X228225000Y-58824022D02*
X228300489Y-58899511D01*
D26*
X201800000Y-70000000D02*
X202319511Y-69480489D01*
X202319511Y-70040489D02*
X202319511Y-69480489D01*
X223899980Y-80399980D02*
X225399980Y-80399980D01*
D25*
X244074980Y-45074980D02*
X244074980Y-44424980D01*
X239200000Y-60600000D02*
X238400000Y-61400000D01*
X200710000Y-43790000D02*
X216290000Y-43790000D01*
D26*
X212200001Y-67299999D02*
X212200001Y-67600001D01*
D25*
X222500000Y-75550000D02*
X219850000Y-75550000D01*
D24*
X207500000Y-74350000D02*
X202163708Y-74350000D01*
D26*
X228300489Y-66000489D02*
X228700978Y-65600000D01*
D25*
X203525000Y-59675000D02*
X204015489Y-60165489D01*
D29*
X214785000Y-69085000D02*
X214415002Y-69085000D01*
D25*
X242362051Y-53400000D02*
X242000000Y-53400000D01*
X222500000Y-77550040D02*
X221974980Y-77025020D01*
D28*
X215274511Y-78325489D02*
X218524511Y-78325489D01*
D26*
X227749350Y-79900650D02*
X228700020Y-79900650D01*
D28*
X220425000Y-79600000D02*
X221224980Y-80399980D01*
D26*
X204999980Y-78800020D02*
X204999980Y-80399980D01*
D25*
X231900489Y-68399511D02*
X230600489Y-68399511D01*
D28*
X237236000Y-76962000D02*
X237236000Y-68474978D01*
D24*
X207510000Y-71780000D02*
X207510000Y-73960000D01*
D28*
X211481025Y-69081025D02*
X211800000Y-69400000D01*
D24*
X204625000Y-71975000D02*
X204075000Y-71975000D01*
D26*
X216500000Y-70800000D02*
X217300000Y-71600000D01*
D25*
X237592000Y-73000000D02*
X233600000Y-73000000D01*
D24*
X212775000Y-77075000D02*
X213575000Y-77075000D01*
D26*
X207200000Y-52250000D02*
X206825000Y-51875000D01*
X200800000Y-51300000D02*
X200800000Y-48950000D01*
X208099980Y-80399980D02*
X209600020Y-80399980D01*
X212000000Y-67200000D02*
X212100002Y-67200000D01*
D25*
X236850000Y-54700000D02*
X236850000Y-65800000D01*
D26*
X212200001Y-65062050D02*
X212200001Y-63610001D01*
D25*
X231850000Y-48800000D02*
X231200000Y-49450000D01*
D26*
X234600000Y-66600000D02*
X233800000Y-67400000D01*
D28*
X218275000Y-74550000D02*
X217550000Y-74550000D01*
D24*
X204160000Y-71060000D02*
X207090000Y-71060000D01*
D28*
X218524511Y-78325489D02*
X218650489Y-78199511D01*
D25*
X243055040Y-80275000D02*
X242425000Y-80275000D01*
D26*
X199200000Y-49700000D02*
X199200000Y-48700000D01*
X225399980Y-79699980D02*
X225399980Y-80399980D01*
D25*
X233450000Y-72850000D02*
X233150000Y-73150000D01*
D26*
X195720000Y-51300000D02*
X197500000Y-51300000D01*
X210700489Y-79299511D02*
X212300489Y-79299511D01*
D25*
X203620000Y-57670000D02*
X203620000Y-59580000D01*
D26*
X212500000Y-55500000D02*
X211400000Y-54400000D01*
D25*
X235050000Y-47600000D02*
X235050000Y-45800000D01*
D28*
X239522000Y-77222000D02*
X239522000Y-75872000D01*
D25*
X238100000Y-53400000D02*
X238100000Y-53750000D01*
D28*
X219800000Y-74550000D02*
X218275000Y-74550000D01*
D25*
X207350000Y-59750000D02*
X203449022Y-59750000D01*
D24*
X200199980Y-79499980D02*
X202999980Y-79499980D01*
D26*
X209600000Y-52300000D02*
X209600000Y-51850000D01*
D25*
X222500000Y-80049960D02*
X222449980Y-80099980D01*
D28*
X217474511Y-78325489D02*
X217474511Y-75788219D01*
D26*
X211800000Y-69400000D02*
X211800000Y-70300000D01*
D25*
X244074980Y-60275020D02*
X244074980Y-46575020D01*
X234852000Y-73150000D02*
X236026000Y-74324000D01*
D28*
X221449980Y-79540020D02*
X221449980Y-80399980D01*
D26*
X200800000Y-46220000D02*
X201970000Y-45050000D01*
X209600000Y-55550000D02*
X208975000Y-54925000D01*
D25*
X222725000Y-78925000D02*
X223400000Y-79600000D01*
X241921656Y-43521656D02*
X242273811Y-43521656D01*
D26*
X195134156Y-77349387D02*
X197140397Y-75343146D01*
X207499511Y-65700489D02*
X207450000Y-65750000D01*
D25*
X195020000Y-69180000D02*
X195020000Y-68070000D01*
X243050000Y-63450000D02*
X243150000Y-63550000D01*
D28*
X201448854Y-74956854D02*
X199392000Y-72900000D01*
D23*
X194360020Y-49715728D02*
X194360020Y-49987980D01*
D28*
X219800000Y-73800000D02*
X218300000Y-73800000D01*
X237780513Y-79538513D02*
X237744000Y-79502000D01*
D24*
X203675000Y-70425000D02*
X209825000Y-70425000D01*
D26*
X194930000Y-44480000D02*
X194930000Y-48500000D01*
X230700000Y-46300000D02*
X230700000Y-44600000D01*
X211400000Y-54400000D02*
X211400000Y-54500000D01*
D25*
X233150000Y-74500000D02*
X233326000Y-74676000D01*
X243150000Y-65400000D02*
X243150000Y-69050978D01*
D26*
X211499511Y-65762540D02*
X211499511Y-61499511D01*
X208550000Y-52550000D02*
X208025000Y-53075000D01*
D24*
X217300000Y-74300000D02*
X217800000Y-73800000D01*
X204310000Y-73960000D02*
X205490000Y-73960000D01*
D26*
X231800489Y-61799511D02*
X232000000Y-61600000D01*
X216500000Y-70800000D02*
X216800000Y-71100000D01*
X204999980Y-80399980D02*
X207199980Y-80399980D01*
D25*
X236600000Y-55500000D02*
X243550000Y-55500000D01*
X241850000Y-52887949D02*
X242362051Y-53400000D01*
D23*
X213000000Y-62200002D02*
X212200001Y-63000001D01*
D26*
X242000000Y-66600000D02*
X243400000Y-66600000D01*
D28*
X196308000Y-73880000D02*
X195072000Y-72644000D01*
D25*
X234300000Y-45800000D02*
X235050000Y-45800000D01*
X243550000Y-55500000D02*
X243650000Y-55600000D01*
X243309511Y-64090489D02*
X237590489Y-64090489D01*
X194440040Y-69180000D02*
X194360020Y-69260020D01*
D26*
X210890000Y-72710000D02*
X210710000Y-72710000D01*
X200146471Y-78365649D02*
X199517487Y-78994633D01*
X235350000Y-67350000D02*
X234600000Y-66600000D01*
X200452793Y-46093888D02*
X198921681Y-47625000D01*
D25*
X230600489Y-68399511D02*
X229900489Y-68399511D01*
X236700000Y-46600000D02*
X236050000Y-46600000D01*
D26*
X229600000Y-59900978D02*
X229799511Y-60100489D01*
X208873980Y-78400020D02*
X209600020Y-78400020D01*
D25*
X196849553Y-79345885D02*
X196926437Y-79422769D01*
D26*
X206250000Y-47450000D02*
X205725000Y-47975000D01*
D29*
X214070001Y-67969999D02*
X213160001Y-67969999D01*
D25*
X221974980Y-77025020D02*
X221974980Y-79874980D01*
D26*
X218300000Y-73700000D02*
X217600000Y-73000000D01*
D23*
X212200001Y-62800001D02*
X212200001Y-62399999D01*
D26*
X196710000Y-50310000D02*
X196710000Y-47910000D01*
D24*
X206325000Y-71975000D02*
X206325000Y-72775000D01*
D25*
X196081783Y-78578115D02*
X196849553Y-79345885D01*
D26*
X217200000Y-47250000D02*
X217750480Y-47250000D01*
D28*
X237744000Y-73152000D02*
X237744000Y-72390000D01*
D25*
X244074980Y-44424980D02*
X244074980Y-43675020D01*
X229899511Y-47450489D02*
X230749022Y-48300000D01*
X195178556Y-65290000D02*
X194769045Y-64880489D01*
X203040000Y-66360000D02*
X208060000Y-66360000D01*
D26*
X200800000Y-48000000D02*
X200800000Y-47350000D01*
D28*
X218550489Y-78099511D02*
X218550489Y-75999511D01*
D26*
X197460814Y-47910000D02*
X196565407Y-47014593D01*
D24*
X203560000Y-71960000D02*
X203560000Y-73960000D01*
D25*
X234400000Y-47550000D02*
X234400000Y-47600000D01*
D28*
X227300489Y-67399511D02*
X227300489Y-64699511D01*
D25*
X242900489Y-74949511D02*
X242900489Y-75615511D01*
D28*
X218050000Y-72400000D02*
X217500000Y-72400000D01*
D24*
X205240000Y-66360000D02*
X205910000Y-66360000D01*
D25*
X195720000Y-68649960D02*
X194360020Y-67289980D01*
X240900000Y-65250000D02*
X239000000Y-65250000D01*
X240642031Y-47284557D02*
X240885195Y-47284557D01*
D28*
X215274511Y-78325489D02*
X214300489Y-79299511D01*
D26*
X202319511Y-64880489D02*
X202319511Y-63919511D01*
D25*
X241334045Y-47384045D02*
X241334045Y-48034045D01*
D28*
X238760000Y-68072000D02*
X238912490Y-67919510D01*
D26*
X209450000Y-56100000D02*
X209600000Y-55950000D01*
D25*
X203620000Y-57670000D02*
X203620000Y-58280000D01*
D28*
X236982000Y-78486000D02*
X237744000Y-79248000D01*
D25*
X207175000Y-52275000D02*
X207200000Y-52250000D01*
D26*
X197140397Y-75343146D02*
X198893364Y-75343146D01*
D25*
X208873980Y-78400020D02*
X208873980Y-75723980D01*
X237800000Y-54300000D02*
X236600000Y-55500000D01*
D26*
X231900489Y-68399511D02*
X233600489Y-68399511D01*
X200800000Y-51300000D02*
X198360000Y-48860000D01*
D29*
X212129999Y-67329999D02*
X212000000Y-67200000D01*
D26*
X227200000Y-60500000D02*
X227200000Y-59600000D01*
X204160000Y-71060000D02*
X203339022Y-71060000D01*
D25*
X237200000Y-53100000D02*
X237500000Y-53400000D01*
D24*
X204075000Y-73725000D02*
X204310000Y-73960000D01*
D25*
X240150000Y-47600000D02*
X243050000Y-47600000D01*
D26*
X200800000Y-55000000D02*
X200800000Y-51300000D01*
X197500000Y-51300000D02*
X197500000Y-49780000D01*
D24*
X209125000Y-71975000D02*
X209125000Y-73575000D01*
D26*
X201466000Y-75343146D02*
X200266000Y-75343146D01*
D29*
X213205001Y-67104999D02*
X212095001Y-67104999D01*
D26*
X203400020Y-80399980D02*
X204999980Y-80399980D01*
D28*
X221449980Y-77700020D02*
X220975000Y-78175000D01*
D25*
X243050000Y-51300000D02*
X243050000Y-52550000D01*
X242362051Y-53400000D02*
X239200000Y-53400000D01*
D26*
X205599980Y-79799980D02*
X206099980Y-79299980D01*
X211400000Y-72200000D02*
X211800000Y-71800000D01*
D25*
X235425000Y-43425000D02*
X235705020Y-43144980D01*
D28*
X239522000Y-68529020D02*
X238912490Y-67919510D01*
D26*
X202899511Y-60400489D02*
X202059511Y-59560489D01*
D29*
X212965000Y-68165000D02*
X212000000Y-67200000D01*
D25*
X229600978Y-68500000D02*
X228750000Y-69350978D01*
D28*
X227600000Y-68500000D02*
X227850000Y-68750000D01*
D26*
X201399980Y-78299980D02*
X202243146Y-77456814D01*
D25*
X239536399Y-45986399D02*
X239550000Y-46000000D01*
X195720000Y-52080000D02*
X195000000Y-52800000D01*
D26*
X200800000Y-53000000D02*
X201350000Y-53000000D01*
X241100000Y-61650000D02*
X240600000Y-61650000D01*
D24*
X207510000Y-73960000D02*
X208110000Y-73960000D01*
D28*
X221449980Y-73699980D02*
X221375000Y-73625000D01*
D25*
X195620000Y-69180000D02*
X194770000Y-70030000D01*
D24*
X203655000Y-77075000D02*
X212775000Y-77075000D01*
D25*
X203751467Y-75748533D02*
X203040000Y-76460000D01*
D28*
X242974978Y-68326000D02*
X242900489Y-68400489D01*
D26*
X194360020Y-75260020D02*
X195720000Y-76620000D01*
D25*
X243050000Y-52550000D02*
X243050000Y-47960000D01*
X204650978Y-59750000D02*
X203600000Y-59750000D01*
D28*
X237744000Y-73660000D02*
X237744000Y-73152000D01*
D25*
X238813601Y-45986399D02*
X237800000Y-47000000D01*
X207950000Y-53000000D02*
X208025000Y-53075000D01*
X238013601Y-45986399D02*
X236700000Y-47300000D01*
X221974980Y-77025020D02*
X221449980Y-76500020D01*
X242328000Y-79428000D02*
X242898000Y-79428000D01*
X206400000Y-75570000D02*
X206400000Y-76900040D01*
D26*
X201940000Y-45020000D02*
X201970000Y-45050000D01*
D25*
X240871511Y-68728489D02*
X241100000Y-68500000D01*
X208025000Y-56175000D02*
X208025000Y-55875000D01*
D26*
X202999980Y-80399980D02*
X202999980Y-79499980D01*
X212200001Y-68999999D02*
X211800000Y-69400000D01*
X210975000Y-59675000D02*
X211600000Y-60300000D01*
D25*
X223400000Y-75550000D02*
X223400000Y-78150000D01*
D28*
X237744000Y-75692000D02*
X237744000Y-74676000D01*
X231750000Y-79650000D02*
X231856000Y-79756000D01*
D29*
X213635001Y-67534999D02*
X212265003Y-67534999D01*
D32*
X200800000Y-51300000D02*
X200800000Y-53000000D01*
D25*
X207050000Y-53000000D02*
X207950000Y-53000000D01*
X195720000Y-50270000D02*
X194930000Y-49480000D01*
D26*
X207950000Y-47250000D02*
X210650000Y-47250000D01*
X209600000Y-52550000D02*
X209600000Y-52300000D01*
D28*
X236982000Y-78486000D02*
X236347000Y-79121000D01*
D25*
X236026000Y-74324000D02*
X236026000Y-74676000D01*
X202799511Y-57100489D02*
X203520000Y-56380000D01*
X239700000Y-53400000D02*
X240900000Y-54600000D01*
D26*
X210750000Y-56250000D02*
X209600000Y-57400000D01*
D25*
X228300000Y-66900978D02*
X228300489Y-66900489D01*
X194200000Y-80719980D02*
X194175020Y-80695000D01*
D26*
X195971640Y-77990826D02*
X195971640Y-76188360D01*
D28*
X217474511Y-75788219D02*
X216643146Y-74956854D01*
D25*
X196561969Y-79638031D02*
X196500000Y-79700000D01*
X207500489Y-59100489D02*
X209199511Y-59100489D01*
D28*
X199390854Y-74900000D02*
X197521146Y-73030292D01*
D29*
X243471306Y-76822694D02*
X243471306Y-78284694D01*
D26*
X228700020Y-80399980D02*
X230099980Y-80399980D01*
D25*
X198355794Y-80374980D02*
X198380794Y-80399980D01*
D28*
X201613728Y-78299980D02*
X206315980Y-78299980D01*
D24*
X212153708Y-75760000D02*
X212956854Y-74956854D01*
D26*
X217750480Y-47070300D02*
X219470300Y-45350480D01*
D25*
X227749350Y-79900650D02*
X227749350Y-78899350D01*
X229514610Y-47235390D02*
X229684412Y-47235390D01*
D26*
X202243146Y-74956854D02*
X201556854Y-74956854D01*
D28*
X228225000Y-56475000D02*
X228225000Y-58824022D01*
D26*
X209600000Y-57400000D02*
X209600000Y-50600000D01*
X219475000Y-45325000D02*
X219750000Y-45050000D01*
X226650000Y-45050000D02*
X227329220Y-45050000D01*
D25*
X236700000Y-51500000D02*
X236700000Y-52800000D01*
D26*
X239069510Y-67080490D02*
X238280490Y-67080490D01*
X197175743Y-43346433D02*
X195890000Y-44632176D01*
D28*
X239522000Y-75872000D02*
X239522000Y-74178000D01*
D26*
X240600000Y-61650000D02*
X240150000Y-61650000D01*
D28*
X203040000Y-75090000D02*
X203040000Y-76460000D01*
D26*
X206250000Y-47250000D02*
X207950000Y-47250000D01*
X200800000Y-50550000D02*
X203400000Y-47950000D01*
D28*
X203040000Y-79459960D02*
X202999980Y-79499980D01*
D26*
X194930000Y-45379186D02*
X194930000Y-44480000D01*
D25*
X236700000Y-47600000D02*
X232850000Y-47600000D01*
D26*
X200800000Y-51300000D02*
X200800000Y-49300000D01*
D31*
X209075000Y-71175000D02*
X208740000Y-71510000D01*
D25*
X243600000Y-47050000D02*
X243600000Y-47410000D01*
D24*
X204625000Y-71975000D02*
X204625000Y-73125000D01*
D25*
X234700000Y-73840000D02*
X236510000Y-73840000D01*
D24*
X207365000Y-71635000D02*
X207510000Y-71780000D01*
D26*
X197500000Y-51300000D02*
X200800000Y-48000000D01*
D25*
X208025000Y-58575978D02*
X207500489Y-59100489D01*
D29*
X213675000Y-68875000D02*
X213160000Y-68360000D01*
D28*
X229600978Y-68500000D02*
X227600000Y-68500000D01*
D26*
X206699511Y-60400489D02*
X206699511Y-61049511D01*
D25*
X227300000Y-75550000D02*
X227300000Y-76050000D01*
X243400965Y-45125605D02*
X243400965Y-45492939D01*
X203449022Y-59750000D02*
X202799511Y-59100489D01*
D26*
X212200001Y-66099999D02*
X212200001Y-67299999D01*
X201350000Y-44250000D02*
X220550000Y-44250000D01*
D25*
X237284000Y-72850000D02*
X237744000Y-72390000D01*
D26*
X209600000Y-48900000D02*
X209100000Y-48400000D01*
D25*
X239522000Y-75872000D02*
X239522000Y-75721022D01*
D26*
X195720000Y-58147766D02*
X195720000Y-56380000D01*
D25*
X227850000Y-70800000D02*
X227850000Y-68850000D01*
D28*
X228225000Y-56475000D02*
X228225000Y-57175000D01*
X219087989Y-78637011D02*
X219087989Y-76012011D01*
D25*
X203620000Y-56380000D02*
X203620000Y-57080000D01*
D26*
X217300000Y-71600000D02*
X216800000Y-71100000D01*
X228300489Y-64999511D02*
X228300489Y-64000489D01*
D28*
X203040000Y-73058000D02*
X203040000Y-73960000D01*
D29*
X214630001Y-68529999D02*
X214400001Y-68299999D01*
D24*
X209775000Y-71975000D02*
X209775000Y-73925000D01*
D26*
X194360020Y-75239980D02*
X194360020Y-75260020D01*
X207899980Y-78400020D02*
X208873980Y-78400020D01*
D25*
X242062000Y-73738000D02*
X242062000Y-74930000D01*
X222500000Y-76450000D02*
X222500000Y-79900000D01*
X242900489Y-75615511D02*
X242824000Y-75692000D01*
X195091606Y-58841606D02*
X195752723Y-58180489D01*
D26*
X205725000Y-47975000D02*
X202400000Y-51300000D01*
D24*
X203710000Y-71510000D02*
X204160000Y-71060000D01*
D26*
X205325000Y-49025000D02*
X207000000Y-47350000D01*
X210750000Y-55000000D02*
X210750000Y-56250000D01*
D25*
X243400000Y-66600000D02*
X243400000Y-63800000D01*
D26*
X225399980Y-80399980D02*
X225199980Y-80399980D01*
D25*
X240064000Y-80719980D02*
X194200000Y-80719980D01*
X235275000Y-44025000D02*
X235778344Y-43521656D01*
X230400000Y-48120780D02*
X229514610Y-47235390D01*
X236650000Y-45400000D02*
X239000000Y-45400000D01*
X237800000Y-51700000D02*
X236700000Y-52800000D01*
X207500489Y-59599511D02*
X207350000Y-59750000D01*
X206600489Y-64999511D02*
X206699511Y-64999511D01*
X240199511Y-68400489D02*
X240293511Y-68494489D01*
D26*
X227300650Y-79900650D02*
X227749350Y-79900650D01*
D25*
X203520000Y-56380000D02*
X203620000Y-56380000D01*
D28*
X195072000Y-72644000D02*
X194360020Y-71932020D01*
D25*
X242238000Y-80088000D02*
X241826020Y-80499980D01*
X235475000Y-46725000D02*
X234175000Y-46725000D01*
X237600000Y-47600000D02*
X240150000Y-47600000D01*
D28*
X215575489Y-77000489D02*
X217924511Y-77000489D01*
D26*
X199299980Y-80399980D02*
X201399980Y-80399980D01*
D25*
X216516547Y-43563453D02*
X216516547Y-43010000D01*
X239550000Y-46267040D02*
X240016480Y-46733520D01*
D26*
X195720000Y-69180000D02*
X195720000Y-65831444D01*
D28*
X241300000Y-68326000D02*
X240893510Y-67919510D01*
D24*
X211199511Y-77950489D02*
X211500000Y-77650000D01*
D26*
X215050000Y-47250000D02*
X217200000Y-47250000D01*
D24*
X211100000Y-73850000D02*
X213250000Y-76000000D01*
X213575000Y-77075000D02*
X213950000Y-76700000D01*
D25*
X237250000Y-55100000D02*
X237250000Y-61150000D01*
X241400000Y-66900000D02*
X242419510Y-67919510D01*
X216262241Y-77000489D02*
X217474511Y-75788219D01*
X227300000Y-74550000D02*
X220450000Y-74550000D01*
X235050000Y-45300000D02*
X234850000Y-45100000D01*
X233150000Y-74000000D02*
X235702000Y-74000000D01*
D26*
X232300000Y-67000000D02*
X232700000Y-67400000D01*
D25*
X237124980Y-60275020D02*
X244074980Y-60275020D01*
X243825020Y-64724980D02*
X243150000Y-65400000D01*
X244074980Y-63325020D02*
X244074980Y-60275020D01*
X242362051Y-57037949D02*
X237750000Y-61650000D01*
D26*
X200609146Y-76686292D02*
X198739146Y-74816292D01*
D28*
X228225000Y-56475000D02*
X227925000Y-56475000D01*
D25*
X244074980Y-44424980D02*
X243157152Y-43507152D01*
D28*
X203040000Y-76460000D02*
X203040000Y-79459960D01*
D25*
X239086399Y-45986399D02*
X238813601Y-45986399D01*
D24*
X203040000Y-76460000D02*
X203655000Y-77075000D01*
D25*
X240300000Y-55300000D02*
X239550000Y-55300000D01*
X198807715Y-75554970D02*
X197576607Y-75554970D01*
D26*
X212900000Y-60700000D02*
X209600000Y-57400000D01*
X202999980Y-80399980D02*
X203400020Y-80399980D01*
X217250000Y-47200000D02*
X216750000Y-47200000D01*
D25*
X220450000Y-74550000D02*
X220425000Y-74575000D01*
D28*
X237744000Y-76200000D02*
X238044737Y-76500737D01*
X215600489Y-75999511D02*
X215999511Y-75999511D01*
D25*
X243900020Y-80499980D02*
X244074980Y-80325020D01*
X235475000Y-45125000D02*
X235615000Y-44985000D01*
X241680490Y-67919510D02*
X241100000Y-68500000D01*
X239536399Y-44656913D02*
X237393087Y-44656913D01*
X243650000Y-55600000D02*
X243650000Y-53750000D01*
X227300000Y-70200000D02*
X228000000Y-70200000D01*
D26*
X232266000Y-58166000D02*
X232300000Y-58200000D01*
X228900000Y-66600000D02*
X228300489Y-66000489D01*
D25*
X240777417Y-75500000D02*
X239522000Y-76755417D01*
D28*
X220425000Y-76075000D02*
X220425000Y-75100000D01*
D25*
X228200000Y-79450000D02*
X227749350Y-79900650D01*
X198280000Y-73880000D02*
X198280000Y-73720000D01*
X240600000Y-68800978D02*
X240199511Y-68400489D01*
D26*
X211800000Y-71800000D02*
X212500000Y-71100000D01*
D25*
X240671656Y-43521656D02*
X241921656Y-43521656D01*
D26*
X228800000Y-44400000D02*
X230700000Y-46300000D01*
X199260000Y-47760000D02*
X201970000Y-45050000D01*
D24*
X211940000Y-66360000D02*
X212200001Y-66099999D01*
X211725000Y-74975000D02*
X211706854Y-74956854D01*
D26*
X236050000Y-66600000D02*
X236400000Y-66600000D01*
D24*
X206875000Y-73845000D02*
X206990000Y-73960000D01*
D25*
X235925000Y-46725000D02*
X236650000Y-46000000D01*
X224150000Y-75550000D02*
X223400000Y-75550000D01*
D26*
X228300489Y-60999511D02*
X231399511Y-60999511D01*
D28*
X218650489Y-78199511D02*
X218550489Y-78099511D01*
D26*
X217750480Y-47250000D02*
X217750480Y-47070300D01*
D25*
X195720000Y-71560000D02*
X194360020Y-70200020D01*
D28*
X202243146Y-70116854D02*
X202319511Y-70040489D01*
X206899900Y-78299980D02*
X206999940Y-78400020D01*
D25*
X239536399Y-44656913D02*
X236956913Y-44656913D01*
D26*
X204475000Y-50425000D02*
X203925000Y-50425000D01*
D25*
X227375000Y-78525000D02*
X227000650Y-78899350D01*
X218750000Y-73350000D02*
X218300000Y-73800000D01*
D31*
X211600000Y-64450000D02*
X211481025Y-64568975D01*
D28*
X202243146Y-74956854D02*
X202243146Y-73346854D01*
D25*
X227749350Y-78899350D02*
X227375000Y-78525000D01*
X240950000Y-66600000D02*
X240950000Y-52068090D01*
D26*
X223899980Y-80399980D02*
X223899980Y-80099980D01*
D25*
X242425000Y-80275000D02*
X242238000Y-80088000D01*
X196672723Y-59100489D02*
X195960770Y-58388536D01*
X243400965Y-44648810D02*
X243400965Y-45492939D01*
D29*
X212265003Y-67534999D02*
X212200001Y-67600001D01*
D25*
X222449980Y-80099980D02*
X222009940Y-80099980D01*
D26*
X228600978Y-62900000D02*
X228300489Y-62599511D01*
X200800000Y-51300000D02*
X200800000Y-50550000D01*
D25*
X240900000Y-54600000D02*
X241700000Y-54600000D01*
D28*
X239522000Y-74178000D02*
X239522000Y-68529020D01*
D26*
X202079511Y-63159511D02*
X194940489Y-63159511D01*
D25*
X196081783Y-76401760D02*
X196081783Y-78578115D01*
D26*
X212000000Y-46000000D02*
X217200000Y-46000000D01*
D23*
X194360020Y-58189980D02*
X194109980Y-58440020D01*
D24*
X206699511Y-60400489D02*
X205949511Y-60400489D01*
D25*
X242265955Y-48965955D02*
X241850000Y-48550000D01*
X194175020Y-42700000D02*
X234700000Y-42700000D01*
X244074980Y-43675020D02*
X243921616Y-43521656D01*
X198874088Y-79638031D02*
X196561969Y-79638031D01*
D28*
X227000000Y-59400000D02*
X227200000Y-59600000D01*
D25*
X223100000Y-77050000D02*
X222500000Y-76450000D01*
D26*
X207499511Y-60400489D02*
X206699511Y-60400489D01*
D28*
X197612000Y-72644000D02*
X200910000Y-72644000D01*
D25*
X238306000Y-68756978D02*
X237949511Y-68400489D01*
X237100000Y-64450000D02*
X237100000Y-62700000D01*
D28*
X227600000Y-64400000D02*
X227600000Y-60000000D01*
D25*
X237250000Y-54600000D02*
X237250000Y-55100000D01*
X229900489Y-68399511D02*
X229900489Y-68499511D01*
X241850000Y-48550000D02*
X241850000Y-52887949D01*
X241400000Y-55300000D02*
X241400000Y-66900000D01*
D26*
X209600020Y-80399980D02*
X209600020Y-78435980D01*
D28*
X203040000Y-71060000D02*
X203040000Y-73058000D01*
D25*
X240900000Y-55050000D02*
X240900000Y-61350000D01*
X234300000Y-45800000D02*
X234050000Y-45800000D01*
X221000000Y-74000000D02*
X220425000Y-74575000D01*
X198380794Y-80399980D02*
X197903648Y-80399980D01*
X200146471Y-76893726D02*
X198807715Y-75554970D01*
X236155020Y-43144980D02*
X235275000Y-44025000D01*
D26*
X237500000Y-61400000D02*
X238400000Y-61400000D01*
D25*
X222009940Y-80099980D02*
X221449980Y-79540020D01*
D26*
X195720000Y-56830000D02*
X194360020Y-58189980D01*
D25*
X228200000Y-77700000D02*
X228200000Y-78399022D01*
D26*
X199100000Y-72900000D02*
X197760000Y-71560000D01*
X232075000Y-56475000D02*
X232300000Y-56700000D01*
D25*
X230450000Y-48170780D02*
X230450000Y-48600000D01*
X231550000Y-48300000D02*
X231850000Y-48600000D01*
D28*
X215575489Y-77000489D02*
X214575000Y-76000000D01*
D25*
X203620000Y-59580000D02*
X203525000Y-59675000D01*
D24*
X206325000Y-72775000D02*
X203125000Y-72775000D01*
D29*
X214165001Y-68064999D02*
X214070001Y-67969999D01*
D25*
X241299511Y-68326489D02*
X241300000Y-68326000D01*
D26*
X200232793Y-46787207D02*
X200232793Y-44637207D01*
D25*
X240900000Y-65250000D02*
X240450000Y-65700000D01*
D28*
X216900489Y-78325489D02*
X216212500Y-77637500D01*
D26*
X207199980Y-80399980D02*
X208099980Y-80399980D01*
D25*
X198280000Y-73720000D02*
X199100000Y-72900000D01*
D26*
X212300489Y-79299511D02*
X212775000Y-78825000D01*
D28*
X231600489Y-58899511D02*
X231600489Y-58700489D01*
D26*
X198360000Y-48660000D02*
X199190000Y-47830000D01*
D25*
X244074980Y-80695000D02*
X244074980Y-79524980D01*
D26*
X215575489Y-79299511D02*
X218550489Y-79299511D01*
X211400000Y-48100000D02*
X211400000Y-53600000D01*
D25*
X243600000Y-47050000D02*
X244074980Y-46575020D01*
D28*
X239522000Y-79428000D02*
X239522000Y-78278000D01*
D25*
X228300000Y-71300000D02*
X228300000Y-66900978D01*
D26*
X198921681Y-47625000D02*
X197175814Y-47625000D01*
X197310000Y-49710000D02*
X196100000Y-48500000D01*
D25*
X241334045Y-52371994D02*
X242362051Y-53400000D01*
D26*
X207925000Y-50175000D02*
X206150000Y-48400000D01*
D25*
X231950000Y-44500000D02*
X235050000Y-47600000D01*
D26*
X195720000Y-51300000D02*
X195720000Y-49199960D01*
D29*
X214400001Y-68299999D02*
X213220001Y-68299999D01*
D28*
X237744000Y-70358000D02*
X237744000Y-69596000D01*
D25*
X240480398Y-47122924D02*
X240642031Y-47284557D01*
X240900000Y-55050000D02*
X240900000Y-64500000D01*
D24*
X203040000Y-76460000D02*
X211990000Y-76460000D01*
D26*
X228300489Y-64000489D02*
X228300489Y-62599511D01*
X209600000Y-57400000D02*
X209600000Y-47250000D01*
D25*
X237590489Y-62709511D02*
X237600000Y-62700000D01*
X228300000Y-69850000D02*
X229600978Y-68549022D01*
D28*
X197612000Y-72644000D02*
X196666000Y-73590000D01*
D25*
X239550000Y-46000000D02*
X239550000Y-46267040D01*
D23*
X212900001Y-61699999D02*
X213000000Y-61600000D01*
D26*
X214079220Y-46620780D02*
X213479220Y-46020780D01*
X209600000Y-57400000D02*
X209600000Y-55950000D01*
D25*
X240741519Y-52741519D02*
X241400000Y-53400000D01*
X233150000Y-73550000D02*
X233150000Y-74000000D01*
X195720000Y-51720000D02*
X196400000Y-52400000D01*
X230350000Y-45950000D02*
X230700000Y-46300000D01*
X239150000Y-47600000D02*
X239150000Y-53350000D01*
X238550000Y-61750000D02*
X238200000Y-62100000D01*
D24*
X211875000Y-77275000D02*
X211693186Y-77456814D01*
D26*
X212200001Y-67600001D02*
X212200001Y-68439999D01*
X194630489Y-63919511D02*
X194600000Y-63950000D01*
D25*
X236650000Y-46000000D02*
X236650000Y-45400000D01*
D28*
X197138000Y-73880000D02*
X196308000Y-73880000D01*
D26*
X199819511Y-56280489D02*
X199720000Y-56380000D01*
D25*
X227300000Y-74950000D02*
X221599960Y-74950000D01*
D24*
X207365000Y-71635000D02*
X206790000Y-71060000D01*
D25*
X236500000Y-73830000D02*
X236500000Y-73000000D01*
X233150000Y-73550000D02*
X236220000Y-73550000D01*
D26*
X209600000Y-47250000D02*
X209100000Y-46750000D01*
D25*
X239522000Y-78278000D02*
X240672000Y-79428000D01*
D24*
X203575000Y-71975000D02*
X203410000Y-71810000D01*
D25*
X243389959Y-45114599D02*
X243400965Y-45125605D01*
X234300000Y-45350000D02*
X232800000Y-43850000D01*
X235460000Y-73840000D02*
X236300000Y-73000000D01*
X240300000Y-55300000D02*
X240150000Y-55450000D01*
X199325109Y-75774891D02*
X199092563Y-75542345D01*
D24*
X208110000Y-72380000D02*
X208110000Y-73960000D01*
D26*
X219470300Y-45350480D02*
X222249520Y-45350480D01*
D25*
X236578344Y-43521656D02*
X243171656Y-43521656D01*
D28*
X243078000Y-68661020D02*
X243819510Y-67919510D01*
D26*
X194360020Y-71932020D02*
X194360020Y-73039980D01*
X217200000Y-47250000D02*
X217250000Y-47200000D01*
D25*
X234850000Y-45100000D02*
X233600000Y-43850000D01*
D28*
X227600000Y-60000000D02*
X227200000Y-59600000D01*
D25*
X229799511Y-79299511D02*
X230049511Y-79299511D01*
X241050020Y-80499980D02*
X240284000Y-80499980D01*
D26*
X231050000Y-45150000D02*
X230700000Y-45500000D01*
D23*
X212200001Y-60699999D02*
X212600000Y-60300000D01*
D26*
X232300000Y-62900000D02*
X232300000Y-64000000D01*
D28*
X226900000Y-69850000D02*
X226900000Y-66999022D01*
D29*
X214415002Y-69085000D02*
X214395001Y-69064999D01*
X212539999Y-66099999D02*
X212200001Y-66099999D01*
D28*
X237744000Y-68982978D02*
X237236000Y-68474978D01*
D26*
X211250000Y-46750000D02*
X212000000Y-46000000D01*
D25*
X227850000Y-68850000D02*
X226850000Y-67850000D01*
D24*
X209775000Y-71975000D02*
X209605000Y-71975000D01*
D26*
X194360020Y-67410020D02*
X194360020Y-69260020D01*
D25*
X219050000Y-73350000D02*
X218750000Y-73350000D01*
X229899511Y-48949511D02*
X230400000Y-49450000D01*
X244074980Y-43675020D02*
X244074980Y-43525020D01*
D26*
X210750000Y-53850000D02*
X210750000Y-55000000D01*
X241680490Y-67919510D02*
X240893510Y-67919510D01*
D30*
X212600000Y-57500000D02*
X212700000Y-57400000D01*
X212600000Y-58900000D02*
X212600000Y-56200000D01*
D25*
X194175020Y-80374980D02*
X198355794Y-80374980D01*
D26*
X237100000Y-62700000D02*
X243200000Y-62700000D01*
D32*
X212600000Y-57500000D02*
X212600000Y-60300000D01*
D26*
X213250000Y-76000000D02*
X214575000Y-76000000D01*
X207900000Y-53000000D02*
X208600000Y-52300000D01*
X232300000Y-64700000D02*
X232300000Y-65600000D01*
D25*
X233326000Y-74676000D02*
X236026000Y-74676000D01*
D24*
X211706854Y-74956854D02*
X211106854Y-74956854D01*
D25*
X242265955Y-47384045D02*
X242265955Y-52715955D01*
X219850000Y-75550000D02*
X219800000Y-75500000D01*
D26*
X201399980Y-80399980D02*
X201399980Y-80000020D01*
D25*
X235615000Y-44985000D02*
X234340000Y-43710000D01*
D28*
X238760000Y-79756000D02*
X238760000Y-74140000D01*
D25*
X195000000Y-58750000D02*
X195091606Y-58841606D01*
D26*
X242900489Y-68400489D02*
X240199511Y-68400489D01*
D24*
X204625000Y-73125000D02*
X204625000Y-73645000D01*
D25*
X195650020Y-79700000D02*
X194800020Y-78850000D01*
X240741519Y-47384045D02*
X240480398Y-47122924D01*
D24*
X206325000Y-73775000D02*
X206510000Y-73960000D01*
D28*
X205599980Y-79799980D02*
X203113728Y-79799980D01*
D24*
X211500000Y-74500000D02*
X210300000Y-73300000D01*
D28*
X221449980Y-76124980D02*
X221150000Y-75825000D01*
D25*
X233900000Y-47050000D02*
X234400000Y-47550000D01*
D26*
X234600000Y-66600000D02*
X236050000Y-66600000D01*
X211800000Y-70800000D02*
X211800000Y-71800000D01*
D25*
X229500000Y-45950000D02*
X230350000Y-45950000D01*
X233976433Y-43346433D02*
X200266433Y-43346433D01*
X244074980Y-43144980D02*
X244074980Y-42700000D01*
D26*
X208600000Y-52300000D02*
X206850000Y-50550000D01*
D24*
X212000000Y-76450000D02*
X212000000Y-75250000D01*
D28*
X232499980Y-80399980D02*
X232599980Y-80499980D01*
D26*
X233800000Y-67400000D02*
X232700000Y-67400000D01*
D28*
X238760000Y-74140000D02*
X238760000Y-68072000D01*
D25*
X239522000Y-80499980D02*
X239742000Y-80719980D01*
D29*
X214580000Y-69780000D02*
X213675000Y-68875000D01*
D24*
X212804950Y-77845050D02*
X213250000Y-77400000D01*
D26*
X209600000Y-54100000D02*
X209050000Y-54100000D01*
D28*
X237744000Y-69596000D02*
X237744000Y-68982978D01*
X219800000Y-73800000D02*
X219800000Y-74550000D01*
D26*
X228300480Y-45350480D02*
X222249520Y-45350480D01*
D25*
X242419510Y-53457459D02*
X242419510Y-53880490D01*
D26*
X228300489Y-60100489D02*
X228300489Y-58899511D01*
D29*
X214395001Y-68764999D02*
X214630001Y-68529999D01*
D28*
X221449980Y-76500020D02*
X221449980Y-75099980D01*
D25*
X237250000Y-61150000D02*
X237750000Y-61650000D01*
X235475000Y-46725000D02*
X235925000Y-46725000D01*
X199200489Y-64880489D02*
X198280489Y-64880489D01*
D26*
X210975000Y-59675000D02*
X210900000Y-59750000D01*
D28*
X227850000Y-68750000D02*
X227850000Y-70800000D01*
X242824000Y-75692000D02*
X243632737Y-76500737D01*
D26*
X207000000Y-46000000D02*
X215550000Y-46000000D01*
D24*
X216643146Y-74956854D02*
X216036292Y-74350000D01*
D26*
X221224980Y-80399980D02*
X221449980Y-80399980D01*
X206699511Y-64999511D02*
X207450000Y-65750000D01*
D25*
X237942848Y-43507152D02*
X237450000Y-44000000D01*
D28*
X221449980Y-77174980D02*
X221449980Y-76124980D01*
D26*
X206825000Y-51875000D02*
X204650000Y-49700000D01*
D25*
X243471306Y-68971306D02*
X242900489Y-68400489D01*
D26*
X195720000Y-49199960D02*
X194360020Y-47839980D01*
D24*
X204625000Y-73645000D02*
X204310000Y-73960000D01*
D25*
X243150000Y-63550000D02*
X243150000Y-65400000D01*
D28*
X221449980Y-77174980D02*
X221449980Y-76500020D01*
D25*
X238100000Y-47600000D02*
X239150000Y-47600000D01*
D26*
X209600000Y-52550000D02*
X208550000Y-52550000D01*
D24*
X211800000Y-71800000D02*
X210900000Y-70900000D01*
D28*
X218499511Y-75999511D02*
X217787500Y-75287500D01*
D25*
X239536399Y-44656913D02*
X239536399Y-44863601D01*
D26*
X210650000Y-47250000D02*
X212250000Y-47250000D01*
D25*
X199610000Y-65290000D02*
X195178556Y-65290000D01*
D26*
X197639146Y-74816292D02*
X198189146Y-74266292D01*
D28*
X243609454Y-78486000D02*
X243851727Y-78728273D01*
D26*
X206099980Y-79299980D02*
X210700020Y-79299980D01*
D31*
X208740000Y-73960000D02*
X208740000Y-71510000D01*
D24*
X209125000Y-71975000D02*
X206875000Y-71975000D01*
D26*
X211800000Y-70800000D02*
X210799998Y-70800000D01*
X204475000Y-50425000D02*
X204475000Y-51325000D01*
D25*
X236700000Y-52800000D02*
X236700000Y-53500000D01*
D26*
X202319511Y-57580489D02*
X196287277Y-57580489D01*
X228700020Y-80399980D02*
X228700020Y-79900650D01*
D28*
X218550489Y-76374511D02*
X218550489Y-75999511D01*
D25*
X243597727Y-78728273D02*
X242238000Y-80088000D01*
D28*
X203113728Y-79799980D02*
X202980822Y-79932886D01*
D26*
X228300489Y-60999511D02*
X228300489Y-60100489D01*
D28*
X202980822Y-79932886D02*
X201399980Y-79932886D01*
X201710000Y-73880000D02*
X197138000Y-73880000D01*
D25*
X208025000Y-59075000D02*
X207350000Y-59750000D01*
D26*
X239600000Y-53400000D02*
X239200000Y-53400000D01*
X243819510Y-67919510D02*
X241680490Y-67919510D01*
D28*
X200910000Y-72644000D02*
X201166000Y-72900000D01*
D24*
X202631382Y-77845050D02*
X213754950Y-77845050D01*
D26*
X215050000Y-47250000D02*
X214708440Y-47250000D01*
D25*
X234050000Y-45800000D02*
X232500000Y-44250000D01*
D26*
X232300000Y-60300000D02*
X232300000Y-61600000D01*
D25*
X194800020Y-78850000D02*
X195650000Y-78850000D01*
D26*
X216750000Y-47200000D02*
X215550000Y-46000000D01*
D24*
X203710000Y-71510000D02*
X208740000Y-71510000D01*
D26*
X228300489Y-61799511D02*
X231800489Y-61799511D01*
D24*
X202799511Y-60400489D02*
X202319511Y-60880489D01*
D26*
X202999980Y-79499980D02*
X203300020Y-79499980D01*
X243000000Y-68500000D02*
X242419510Y-67919510D01*
D25*
X240671656Y-43521656D02*
X239971656Y-44221656D01*
X236700000Y-47300000D02*
X236050000Y-47300000D01*
X204650978Y-59750000D02*
X203449022Y-59750000D01*
D26*
X243000000Y-68500000D02*
X242900489Y-68400489D01*
D25*
X199089351Y-79422769D02*
X196926437Y-79422769D01*
X241299511Y-74949511D02*
X240293511Y-74949511D01*
D26*
X203339022Y-71060000D02*
X202319511Y-70040489D01*
D29*
X215500000Y-69800000D02*
X215500000Y-69060000D01*
D25*
X237900000Y-65250000D02*
X237900000Y-62400000D01*
X228000000Y-70200000D02*
X228000000Y-69850000D01*
D26*
X218300000Y-73800000D02*
X218300000Y-73700000D01*
D25*
X243078000Y-79248000D02*
X242238000Y-80088000D01*
D28*
X206315980Y-78299980D02*
X206707980Y-78691980D01*
D24*
X209640000Y-69940000D02*
X203040000Y-69940000D01*
D28*
X237744000Y-71882000D02*
X237744000Y-71120000D01*
D29*
X212095001Y-67104999D02*
X212000000Y-67200000D01*
D23*
X213000000Y-60700000D02*
X212200001Y-61499999D01*
D25*
X236700000Y-54550000D02*
X236850000Y-54700000D01*
D24*
X207090000Y-71060000D02*
X208690000Y-71060000D01*
X212775000Y-77075000D02*
X212775000Y-76025000D01*
D26*
X238280490Y-67080490D02*
X236880490Y-67080490D01*
D25*
X207500489Y-59100489D02*
X207500489Y-59599511D01*
D24*
X211106854Y-74956854D02*
X211060000Y-75003708D01*
D25*
X223400000Y-78150000D02*
X223099960Y-78150000D01*
X243050000Y-51300000D02*
X243050000Y-54700000D01*
X239200000Y-56650000D02*
X239200000Y-54400000D01*
X202319511Y-57580489D02*
X202000489Y-57580489D01*
D24*
X209390000Y-73960000D02*
X210590000Y-73960000D01*
D26*
X196710000Y-50310000D02*
X195378556Y-50310000D01*
X201350000Y-53000000D02*
X202075000Y-52275000D01*
D25*
X241400000Y-54000000D02*
X241400000Y-55300000D01*
X202000489Y-57580489D02*
X200800000Y-56380000D01*
D28*
X227100000Y-58300000D02*
X227100000Y-60400000D01*
D24*
X212650000Y-74650000D02*
X212450000Y-74450000D01*
D26*
X235919510Y-67919510D02*
X235350000Y-67350000D01*
D25*
X240950000Y-52068090D02*
X241334045Y-51684045D01*
D26*
X202400000Y-51300000D02*
X202400000Y-50050000D01*
D28*
X215575489Y-79299511D02*
X215575489Y-78325489D01*
D26*
X219750000Y-45050000D02*
X226650000Y-45050000D01*
D25*
X244050000Y-80719980D02*
X244074980Y-80695000D01*
D29*
X213160000Y-68360000D02*
X212965000Y-68165000D01*
X213239999Y-68439999D02*
X213675000Y-68875000D01*
D25*
X230450000Y-46900000D02*
X229500000Y-45950000D01*
X194930000Y-49480000D02*
X194930000Y-48500000D01*
X208950000Y-54950000D02*
X208950000Y-56200000D01*
D26*
X227200000Y-59600000D02*
X231600000Y-59600000D01*
D25*
X243851727Y-78728273D02*
X243597727Y-78728273D01*
D26*
X232300000Y-64000000D02*
X232300000Y-64700000D01*
D24*
X203560000Y-73960000D02*
X204310000Y-73960000D01*
D26*
X243819510Y-67080490D02*
X243819510Y-66680490D01*
D25*
X236510000Y-73840000D02*
X238460000Y-73840000D01*
D32*
X200800000Y-53000000D02*
X200800000Y-56380000D01*
D24*
X206875000Y-71975000D02*
X206875000Y-73845000D01*
D26*
X228300489Y-68399511D02*
X228300489Y-66900489D01*
D25*
X239200000Y-58200000D02*
X239200000Y-56650000D01*
X208873980Y-75723980D02*
X207500000Y-74350000D01*
D28*
X237236000Y-78232000D02*
X237236000Y-76962000D01*
D26*
X213000000Y-60700000D02*
X212900000Y-60700000D01*
X206707980Y-78691980D02*
X206999940Y-78400020D01*
D24*
X204975000Y-73445000D02*
X205490000Y-73960000D01*
X211100000Y-73450000D02*
X211800000Y-72750000D01*
X208100489Y-60400489D02*
X208100489Y-64950489D01*
D26*
%TO.N,Net-(C4-Pad1)*%
X223600000Y-68250000D02*
X223650000Y-68300000D01*
D25*
X222550000Y-50450000D02*
X222550000Y-56500000D01*
X220750000Y-64150000D02*
X219750000Y-65150000D01*
D26*
X221250000Y-62650000D02*
X221700000Y-62200000D01*
D30*
X220700000Y-60600000D02*
X223300000Y-60600000D01*
D27*
X222450000Y-59450000D02*
X222300000Y-59300000D01*
D26*
X220750000Y-66050000D02*
X219950000Y-66050000D01*
D25*
X221500240Y-66800240D02*
X220950000Y-67350480D01*
D26*
X221500000Y-61600000D02*
X223300000Y-61600000D01*
D27*
X223400000Y-61400000D02*
X222600000Y-62200000D01*
D26*
X219950000Y-66050000D02*
X219950000Y-67350000D01*
D25*
X222550000Y-58113040D02*
X221406520Y-59256520D01*
D26*
X220100000Y-68250000D02*
X223600000Y-68250000D01*
D25*
X222450000Y-60850000D02*
X220750000Y-60850000D01*
D26*
X220750000Y-64950000D02*
X220750000Y-66050000D01*
D27*
X223749520Y-49549520D02*
X223749520Y-57150480D01*
D26*
X222950000Y-64550000D02*
X222600000Y-64200000D01*
D25*
X222550000Y-57100000D02*
X223056520Y-57606520D01*
D26*
X221500240Y-66800240D02*
X221849760Y-66800240D01*
X222600000Y-62200000D02*
X223300000Y-62200000D01*
D33*
X219950000Y-67350000D02*
X220450000Y-67850000D01*
D27*
X221500240Y-66800240D02*
X220800000Y-67500480D01*
X223400000Y-58200000D02*
X223400000Y-55500000D01*
D25*
X223400000Y-49600000D02*
X222550000Y-50450000D01*
X222050000Y-64750000D02*
X222050000Y-64450000D01*
D26*
X223700000Y-66600000D02*
X223700000Y-57200000D01*
D33*
X220450000Y-67850000D02*
X222450000Y-67850000D01*
D25*
X222700000Y-60850000D02*
X222450000Y-60850000D01*
D26*
X222450000Y-61450000D02*
X220750000Y-63150000D01*
D27*
X223400000Y-55500000D02*
X223400000Y-49200000D01*
D26*
X222950000Y-66500000D02*
X222950000Y-65700000D01*
D27*
X221406520Y-59256520D02*
X220681520Y-59981520D01*
D25*
X219750000Y-65150000D02*
X219750000Y-66250000D01*
D26*
X220750000Y-63150000D02*
X221250000Y-62650000D01*
D25*
X223400000Y-55500000D02*
X223499520Y-55599520D01*
D26*
X220750000Y-60850000D02*
X222750000Y-60850000D01*
D25*
X223400000Y-49200000D02*
X223400000Y-49600000D01*
D26*
X220750000Y-63150000D02*
X220750000Y-64950000D01*
X221800000Y-63300000D02*
X221250000Y-62750000D01*
D27*
X223512560Y-57150480D02*
X223056520Y-57606520D01*
X220750000Y-66050000D02*
X222050000Y-64750000D01*
D26*
X221849760Y-66800240D02*
X222950000Y-65700000D01*
D25*
X220750000Y-66050000D02*
X220650000Y-66050000D01*
D26*
X220750000Y-65250000D02*
X220750000Y-64950000D01*
X221700000Y-62200000D02*
X222600000Y-62200000D01*
D25*
X221800000Y-63300000D02*
X220750000Y-64350000D01*
D26*
X223650000Y-68300000D02*
X223700000Y-68250000D01*
X223700000Y-66500000D02*
X223700000Y-66600000D01*
D25*
X220650000Y-66050000D02*
X219750000Y-65150000D01*
X220750000Y-60850000D02*
X220750000Y-64150000D01*
D27*
X222450000Y-60850000D02*
X222450000Y-59450000D01*
D26*
X223400000Y-55500000D02*
X223699520Y-55799520D01*
D27*
X223400000Y-55500000D02*
X223749520Y-55849520D01*
D25*
X222950000Y-66500000D02*
X222000000Y-66500000D01*
D27*
X222950000Y-66500000D02*
X221800480Y-66500000D01*
X223400000Y-49200000D02*
X223749520Y-49549520D01*
D26*
X220750000Y-60850000D02*
X220750000Y-63150000D01*
D27*
X221800480Y-66500000D02*
X221500240Y-66800240D01*
D26*
X220750000Y-66050000D02*
X220750000Y-67450480D01*
D25*
X220750000Y-64350000D02*
X220750000Y-64950000D01*
D26*
X219950000Y-67350000D02*
X219950000Y-68100000D01*
D27*
X222050000Y-64750000D02*
X222600000Y-64200000D01*
X223056520Y-57606520D02*
X221406520Y-59256520D01*
X223400000Y-55500000D02*
X223400000Y-61400000D01*
X222050000Y-64850000D02*
X222050000Y-64750000D01*
D26*
X220750000Y-67450480D02*
X220800000Y-67500480D01*
X223700000Y-66600000D02*
X222450000Y-67850000D01*
X223700000Y-68250000D02*
X223700000Y-66500000D01*
X220750000Y-60850000D02*
X221500000Y-61600000D01*
D27*
X220750000Y-60850000D02*
X222300000Y-59300000D01*
D26*
X222450000Y-60850000D02*
X222450000Y-61450000D01*
D25*
X222550000Y-56500000D02*
X222550000Y-57100000D01*
D27*
X222300000Y-59300000D02*
X223400000Y-58200000D01*
D25*
X222050000Y-64450000D02*
X220750000Y-63150000D01*
D27*
X223749520Y-57150480D02*
X223512560Y-57150480D01*
D26*
X221250000Y-62750000D02*
X221250000Y-62650000D01*
D25*
X222550000Y-56500000D02*
X222550000Y-58113040D01*
X223300000Y-61600000D02*
X223300000Y-62200000D01*
D27*
X222600000Y-64200000D02*
X222600000Y-62200000D01*
X223749520Y-55849520D02*
X223749520Y-57150480D01*
D26*
X219950000Y-68100000D02*
X220100000Y-68250000D01*
D27*
X220681520Y-59981520D02*
X220681520Y-64418480D01*
D25*
X220600480Y-67700000D02*
X220800000Y-67500480D01*
D26*
X222950000Y-65700000D02*
X222950000Y-64550000D01*
X223700000Y-57200000D02*
X223749520Y-57150480D01*
%TO.N,Net-(C5-Pad1)*%
X215600000Y-49200000D02*
X215600000Y-55500000D01*
X215000000Y-63000000D02*
X215000000Y-60700000D01*
X214200000Y-65900000D02*
X214050000Y-65750000D01*
D28*
X217910000Y-69610000D02*
X221910000Y-69610000D01*
D26*
X217600000Y-65450000D02*
X217350000Y-65450000D01*
X215950000Y-64050000D02*
X216150000Y-63850000D01*
X215000000Y-64100000D02*
X216350000Y-65450000D01*
X217350000Y-65450000D02*
X215950000Y-64050000D01*
X215000000Y-64100000D02*
X215000000Y-65350000D01*
X215950000Y-64050000D02*
X215950000Y-65050000D01*
X214050000Y-65750000D02*
X214050000Y-63950000D01*
D28*
X216900000Y-66000000D02*
X216900000Y-68600000D01*
X221910000Y-69610000D02*
X223450000Y-71150000D01*
D26*
X215950000Y-65050000D02*
X216350000Y-65450000D01*
X215000000Y-65350000D02*
X214950000Y-65400000D01*
D27*
X215600000Y-63700000D02*
X215950000Y-64050000D01*
D28*
X216900000Y-68600000D02*
X217910000Y-69610000D01*
D26*
X215000000Y-60700000D02*
X215000000Y-64100000D01*
X217600000Y-65450000D02*
X217600000Y-65900000D01*
X217600000Y-63850000D02*
X215950000Y-62200000D01*
D27*
X215000000Y-60700000D02*
X215000000Y-49800000D01*
X215000000Y-49800000D02*
X215600000Y-49200000D01*
D26*
X217600000Y-65450000D02*
X217600000Y-63850000D01*
X216350000Y-65450000D02*
X216900000Y-66000000D01*
X214050000Y-63950000D02*
X215000000Y-63000000D01*
X217600000Y-65900000D02*
X214200000Y-65900000D01*
X216150000Y-63850000D02*
X217600000Y-63850000D01*
D27*
X215600000Y-49200000D02*
X215600000Y-63700000D01*
D25*
%TO.N,Net-(C14-Pad1)*%
X235050000Y-50750000D02*
X234500000Y-50750000D01*
X228750000Y-51050000D02*
X230550000Y-51050000D01*
X227600000Y-49150000D02*
X227650000Y-49150000D01*
X228150000Y-50450000D02*
X228275000Y-50575000D01*
X226775000Y-54425000D02*
X225700000Y-55500000D01*
D26*
X229300000Y-52370000D02*
X228040000Y-51110000D01*
D25*
X227600000Y-49900000D02*
X228150000Y-50450000D01*
X226850000Y-55500000D02*
X226775000Y-55425000D01*
X227600000Y-48250000D02*
X227600000Y-47750000D01*
X225700000Y-54600000D02*
X227100000Y-53200000D01*
D26*
X229300000Y-53935000D02*
X229300000Y-52370000D01*
D25*
X227800000Y-54550000D02*
X226900000Y-54550000D01*
X235050000Y-50750000D02*
X234750000Y-51050000D01*
X233350000Y-50450000D02*
X228400000Y-50450000D01*
X227335000Y-53935000D02*
X227265000Y-53935000D01*
X234925000Y-51625000D02*
X235080000Y-51470000D01*
X228542017Y-50042017D02*
X229050000Y-50550000D01*
X231500000Y-50450000D02*
X228150000Y-50450000D01*
D26*
X228040000Y-51110000D02*
X228040000Y-52580000D01*
D25*
X231600000Y-50550000D02*
X229050000Y-50550000D01*
X228750000Y-51050000D02*
X228750000Y-53350000D01*
X227265000Y-53935000D02*
X226775000Y-54425000D01*
X229300000Y-53935000D02*
X229300000Y-52300000D01*
X234200000Y-50400000D02*
X234200000Y-50450000D01*
X227600000Y-53670000D02*
X227335000Y-53935000D01*
X229300000Y-53935000D02*
X227265000Y-53935000D01*
X227600000Y-49150000D02*
X227600000Y-53670000D01*
X225700000Y-55500000D02*
X225700000Y-54600000D01*
X229300000Y-50250000D02*
X228499520Y-49449520D01*
X235050000Y-50750000D02*
X235050000Y-49600000D01*
X228499520Y-49449520D02*
X228499520Y-48600000D01*
X228750000Y-53350000D02*
X228165000Y-53935000D01*
X229365000Y-52300000D02*
X230150000Y-53085000D01*
X226900000Y-54550000D02*
X226775000Y-54425000D01*
X234925000Y-51625000D02*
X230875000Y-51625000D01*
X235080000Y-51470000D02*
X235080000Y-49525113D01*
X234500000Y-50750000D02*
X234200000Y-50450000D01*
X234750000Y-51050000D02*
X232100000Y-51050000D01*
D26*
X228542017Y-48692017D02*
X226600000Y-46750000D01*
D25*
X229300000Y-53935000D02*
X229300000Y-51600000D01*
X230600000Y-53450000D02*
X230600000Y-51900000D01*
X230600000Y-51900000D02*
X230875000Y-51625000D01*
X235050000Y-49600000D02*
X233750000Y-49600000D01*
X229300000Y-53935000D02*
X230150000Y-53085000D01*
X229050000Y-50550000D02*
X228499520Y-49999520D01*
X233400000Y-49600000D02*
X234200000Y-50400000D01*
X230550000Y-51050000D02*
X232100000Y-51050000D01*
X228450000Y-48600000D02*
X227100000Y-47250000D01*
D26*
X220050000Y-46750000D02*
X219150000Y-47650000D01*
D25*
X220050000Y-46600000D02*
X220050000Y-46750000D01*
D26*
X228450000Y-48600000D02*
X226600000Y-46750000D01*
D25*
X233350000Y-50450000D02*
X232550000Y-50450000D01*
X230600000Y-53900000D02*
X229950000Y-54550000D01*
X228685000Y-54550000D02*
X229300000Y-53935000D01*
X230600000Y-53450000D02*
X230600000Y-53900000D01*
D26*
X219150000Y-53300000D02*
X219150000Y-47650000D01*
D25*
X227800000Y-54550000D02*
X228685000Y-54550000D01*
D26*
X228542017Y-50042017D02*
X228542017Y-48692017D01*
D25*
X231700000Y-50450000D02*
X231500000Y-50450000D01*
X229300000Y-53935000D02*
X229585000Y-53650000D01*
X235050000Y-49600000D02*
X234200000Y-50450000D01*
X230150000Y-53085000D02*
X230150000Y-52350000D01*
X227600000Y-48250000D02*
X227600000Y-49150000D01*
X227507983Y-47657983D02*
X226600000Y-46750000D01*
X227600000Y-47750000D02*
X226600000Y-46750000D01*
X232550000Y-50450000D02*
X231700000Y-50450000D01*
X229300000Y-51600000D02*
X228275000Y-50575000D01*
X232550000Y-49600000D02*
X232375000Y-49775000D01*
D26*
X226600000Y-46750000D02*
X220050000Y-46750000D01*
X217900000Y-55500000D02*
X217900000Y-54550000D01*
X228040000Y-52580000D02*
X228160000Y-52700000D01*
D25*
X228499520Y-49999520D02*
X228499520Y-49449520D01*
X229300000Y-53935000D02*
X228165000Y-53935000D01*
X229950000Y-54550000D02*
X228685000Y-54550000D01*
X231700000Y-50450000D02*
X231600000Y-50550000D01*
X226775000Y-55425000D02*
X226775000Y-54425000D01*
D26*
X217900000Y-54550000D02*
X219150000Y-53300000D01*
D25*
X232375000Y-49775000D02*
X231700000Y-50450000D01*
X227600000Y-49150000D02*
X227600000Y-49900000D01*
X229585000Y-53650000D02*
X230400000Y-53650000D01*
X227650000Y-49150000D02*
X228499520Y-49999520D01*
X225700000Y-55500000D02*
X226850000Y-55500000D01*
X229300000Y-53935000D02*
X229300000Y-50250000D01*
X232550000Y-50450000D02*
X233400000Y-49600000D01*
X230400000Y-53650000D02*
X230600000Y-53450000D01*
X233750000Y-49600000D02*
X232550000Y-49600000D01*
X226850000Y-55500000D02*
X227800000Y-54550000D01*
X234200000Y-50450000D02*
X233350000Y-50450000D01*
X229300000Y-52300000D02*
X229365000Y-52300000D01*
X229300000Y-52300000D02*
X230550000Y-51050000D01*
X228275000Y-50575000D02*
X228750000Y-51050000D01*
X228165000Y-53935000D02*
X227335000Y-53935000D01*
X230150000Y-52350000D02*
X230600000Y-51900000D01*
X230875000Y-51625000D02*
X231450000Y-51050000D01*
X228400000Y-50450000D02*
X228275000Y-50575000D01*
X231450000Y-51050000D02*
X232100000Y-51050000D01*
X227100000Y-53200000D02*
X228050000Y-53200000D01*
X233400000Y-49600000D02*
X233750000Y-49600000D01*
%TD*%
M02*
